<svg width="50" height="50" viewBox="0 0 50 50" fill="none" xmlns="http://www.w3.org/2000/svg">
<path d="M6.25293 37.3992C5.82168 37.3992 5.47168 37.05 5.47168 36.618V19.5313C5.47168 17.8078 6.87324 16.4062 8.59668 16.4062H14.3779C14.8092 16.4062 15.1592 16.7555 15.1592 17.1875C15.1592 17.6195 14.8092 17.9688 14.3779 17.9688H8.59668C7.73496 17.9688 7.03418 18.6695 7.03418 19.5313V36.618C7.03418 37.05 6.68418 37.3992 6.25293 37.3992Z" fill="#743EF9"/>
<path d="M43.7529 37.3992C43.3217 37.3992 42.9717 37.05 42.9717 36.618V19.5313C42.9717 18.6695 42.2709 17.9688 41.4092 17.9688H35.6279C35.1967 17.9688 34.8467 17.6195 34.8467 17.1875C34.8467 16.7555 35.1967 16.4062 35.6279 16.4062H41.4092C43.1326 16.4062 44.5342 17.8078 44.5342 19.5313V36.618C44.5342 37.05 44.1842 37.3992 43.7529 37.3992Z" fill="#743EF9"/>
<path d="M43.7527 46.875H6.24805C4.52461 46.875 3.12305 45.4734 3.12305 43.75V40.625C3.12305 40.193 3.47305 39.8438 3.9043 39.8438H46.0973C46.5285 39.8438 46.8785 40.193 46.8785 40.625V43.75C46.8785 45.4734 45.4769 46.875 43.7535 46.875H43.7527ZM4.68477 41.4062V43.75C4.68477 44.6117 5.38555 45.3125 6.24726 45.3125H43.7527C44.6144 45.3125 45.3152 44.6117 45.3152 43.75V41.4062H4.68555H4.68477Z" fill="#743EF9"/>
<path d="M27.7344 44.1406H22.2656C21.8344 44.1406 21.4844 43.7914 21.4844 43.3594C21.4844 42.9273 21.8344 42.5781 22.2656 42.5781H27.7344C28.1656 42.5781 28.5156 42.9273 28.5156 43.3594C28.5156 43.7914 28.1656 44.1406 27.7344 44.1406Z" fill="#743EF9"/>
<path d="M25 21.4711C19.9531 21.4711 15.8477 17.3656 15.8477 12.3188C15.8477 7.2719 19.9531 3.16565 25 3.16565C30.0469 3.16565 34.1523 7.2719 34.1523 12.3188C34.1523 17.3656 30.0469 21.4711 25 21.4711ZM25 4.72815C20.8148 4.72815 17.4102 8.13284 17.4102 12.3188C17.4102 16.5047 20.8148 19.9086 25 19.9086C29.1852 19.9086 32.5898 16.5039 32.5898 12.3188C32.5898 8.13362 29.1852 4.72815 25 4.72815Z" fill="#743EF9"/>
<path d="M25.0002 17.282C24.9104 17.282 24.8205 17.2664 24.7346 17.2352L20.5361 15.7156C20.2268 15.6031 20.0205 15.3094 20.0205 14.9813V11.4695C20.0205 11.2164 20.1432 10.9781 20.3502 10.832C20.5564 10.6852 20.8229 10.6492 21.0611 10.7328L25.0002 12.1195L28.9393 10.7328C29.1783 10.6492 29.4432 10.6852 29.6502 10.832C29.8572 10.9789 29.9799 11.2164 29.9799 11.4695V14.9813C29.9799 15.3102 29.7736 15.6039 29.4643 15.7156L25.2658 17.2352C25.1799 17.2664 25.09 17.282 25.0002 17.282ZM21.583 14.4336L25.0002 15.6703L28.4174 14.4336V12.5727L25.2596 13.6852C25.0916 13.7445 24.9088 13.7445 24.7408 13.6852L21.583 12.5727V14.4336Z" fill="#743EF9"/>
<path d="M25.0003 13.7289C24.912 13.7289 24.8245 13.7141 24.7401 13.6844L18.5674 11.5047C18.2635 11.3969 18.0573 11.1141 18.0463 10.7922C18.0354 10.4703 18.2245 10.1758 18.5206 10.0492L24.6924 7.41877C24.8885 7.33518 25.1088 7.33518 25.3049 7.41877L31.4768 10.0492C31.7729 10.1758 31.962 10.4703 31.951 10.7922C31.9401 11.1141 31.7338 11.3969 31.4299 11.5047L25.2581 13.6844C25.1737 13.7141 25.0862 13.7289 24.9979 13.7289H25.0003ZM20.9807 10.6992L25.0003 12.1188L29.0198 10.7L25.0003 8.98674L20.9807 10.6992Z" fill="#743EF9"/>
<path d="M15.5488 31.6547C12.4512 31.6547 9.93164 29.1343 9.93164 26.0375C9.93164 22.9406 12.452 20.4203 15.5488 20.4203C18.6457 20.4203 21.166 22.9406 21.166 26.0375C21.166 29.1343 18.6457 31.6547 15.5488 31.6547ZM15.5488 21.982C13.3129 21.982 11.4941 23.8008 11.4941 26.0367C11.4941 28.2726 13.3137 30.0914 15.5488 30.0914C17.784 30.0914 19.6035 28.2726 19.6035 26.0367C19.6035 23.8008 17.784 21.982 15.5488 21.982Z" fill="#743EF9"/>
<path d="M12.4199 37.3991C12.291 37.3991 12.1629 37.3679 12.0457 37.3038C11.7941 37.1671 11.6387 36.9038 11.6387 36.6179V29.7218C11.6387 29.2898 11.9887 28.9406 12.4199 28.9406C12.8512 28.9406 13.2012 29.2898 13.2012 29.7218V35.1851L15.1215 33.9476C15.3785 33.782 15.709 33.7804 15.9668 33.9476L17.8965 35.1874V29.7218C17.8965 29.2898 18.2465 28.9406 18.6777 28.9406C19.109 28.9406 19.459 29.2898 19.459 29.7218V36.6179C19.459 36.9038 19.3027 37.1663 19.052 37.3038C18.8004 37.4398 18.4949 37.4296 18.2551 37.2749L15.5449 35.5335L12.8426 37.2749C12.7137 37.357 12.5676 37.3991 12.4199 37.3991Z" fill="#743EF9"/>
<path d="M39.2871 25.7812H25.8027C25.3715 25.7812 25.0215 25.432 25.0215 25C25.0215 24.568 25.3715 24.2188 25.8027 24.2188H39.2871C39.7184 24.2188 40.0684 24.568 40.0684 25C40.0684 25.432 39.7184 25.7812 39.2871 25.7812Z" fill="#743EF9"/>
<path d="M39.2871 30.0914H25.8027C25.3715 30.0914 25.0215 29.7422 25.0215 29.3102C25.0215 28.8781 25.3715 28.5289 25.8027 28.5289H39.2871C39.7184 28.5289 40.0684 28.8781 40.0684 29.3102C40.0684 29.7422 39.7184 30.0914 39.2871 30.0914Z" fill="#743EF9"/>
<path d="M39.2871 34.4H25.8027C25.3715 34.4 25.0215 34.0508 25.0215 33.6188C25.0215 33.1867 25.3715 32.8375 25.8027 32.8375H39.2871C39.7184 32.8375 40.0684 33.1867 40.0684 33.6188C40.0684 34.0508 39.7184 34.4 39.2871 34.4Z" fill="#743EF9"/>
</svg>
