<svg width="40" height="40" viewBox="0 0 40 40" fill="none" xmlns="http://www.w3.org/2000/svg">
<path d="M20 13.2812C23.6675 13.2812 26.6406 10.3081 26.6406 6.64062C26.6406 2.97311 23.6675 0 20 0C16.3325 0 13.3594 2.97311 13.3594 6.64062C13.3594 10.3081 16.3325 13.2812 20 13.2812Z" fill="#FF5C2A"/>
<path d="M24.8796 14.1816C23.4736 15.0947 21.7977 15.6258 20 15.6258C18.2023 15.6258 16.5264 15.0947 15.1204 14.1816C13.5661 14.7756 12.125 15.652 10.8719 16.7766L20 20.1997L29.128 16.7766C27.875 15.652 26.4339 14.7755 24.8796 14.1816Z" fill="#FF5C2A"/>
<path d="M34.0625 24.2188H33.2812C32.6341 24.2188 32.1094 24.7434 32.1094 25.3906V28.5156C32.1094 29.1628 32.6341 29.6875 33.2812 29.6875H34.0625C35.5727 29.6875 36.7969 28.4633 36.7969 26.9531C36.7969 25.443 35.5727 24.2188 34.0625 24.2188Z" fill="#FF5C2A"/>
<path d="M6.8325 18.3025C6.51656 18.5215 6.32812 18.8814 6.32812 19.2657V21.8747H6.71875C8.65727 21.8747 10.2344 23.4518 10.2344 25.3903V28.5153C10.2344 30.4539 8.65727 32.031 6.71875 32.031H6.32812V34.5001C6.32812 34.9886 6.63117 35.4259 7.08852 35.5974L18.8281 39.9997V22.2622L7.91148 18.1685C7.55156 18.0334 7.14836 18.0835 6.8325 18.3025Z" fill="#FF5C2A"/>
<path d="M29.7656 28.5153V25.3903C29.7656 23.4518 31.3427 21.8747 33.2812 21.8747H33.6719V19.2657C33.6719 18.8814 33.4834 18.5215 33.1675 18.3025C32.8516 18.0835 32.4483 18.0334 32.0885 18.1685L21.1719 22.2622V39.9997L32.9115 35.5974C33.3688 35.4259 33.6719 34.9886 33.6719 34.5001V32.031H33.2812C31.3427 32.031 29.7656 30.4539 29.7656 28.5153Z" fill="#FF5C2A"/>
<path d="M7.89062 28.5156V25.3906C7.89062 24.7434 7.36594 24.2188 6.71875 24.2188H5.9375C4.42734 24.2188 3.20312 25.443 3.20312 26.9531C3.20312 28.4633 4.42734 29.6875 5.9375 29.6875H6.71875C7.36594 29.6875 7.89062 29.1628 7.89062 28.5156Z" fill="#FF5C2A"/>
</svg>
