<svg width="25" height="20" viewBox="0 0 25 20" fill="none" xmlns="http://www.w3.org/2000/svg">
<path d="M3.82454 0C3.82387 0 3.82319 0 3.82251 0C3.586 0 3.36376 0.0964573 3.19583 0.271833C3.02609 0.449105 2.93262 0.685386 2.93262 0.9366V14.9835C2.93262 15.4985 3.33434 15.9187 3.82839 15.9201C5.91076 15.9253 9.39926 16.3799 11.8059 19.0171V4.31661C11.8059 4.14195 11.7634 3.97795 11.6831 3.84215C9.70751 0.511435 5.91167 0.00521387 3.82454 0Z" fill="#FF5C2A"/>
<path d="M22.0679 14.9837V0.9366C22.0679 0.685149 21.9745 0.449105 21.8047 0.271833C21.6368 0.0964573 21.4143 0 21.178 0C21.1774 0 21.1764 0 21.1758 0C19.0889 0.00521387 15.293 0.511433 13.3177 3.84238C13.2374 3.97818 13.1948 4.14218 13.1948 4.31685V19.0173C15.6015 16.3801 19.0902 15.9255 21.1724 15.9203C21.666 15.9189 22.0679 15.4987 22.0679 14.9837Z" fill="#FF5C2A"/>
<path d="M24.1052 3.23828H23.4566V14.9825C23.4566 16.2976 22.4334 17.3702 21.1755 17.3733C19.4093 17.3778 16.497 17.7395 14.4346 19.7835C18.0016 18.869 21.7619 19.4636 23.9052 19.9748C24.1727 20.0386 24.4492 19.9727 24.6636 19.7937C24.8772 19.6153 24.9996 19.3484 24.9996 19.0621V4.17488C24.9999 3.65847 24.5984 3.23828 24.1052 3.23828Z" fill="#1CB098"/>
<path d="M1.54305 14.9825V3.23828H0.894417C0.401266 3.23828 0 3.65847 0 4.17488V19.0621C0 19.3487 0.122666 19.6153 0.336085 19.7937C0.55041 19.9727 0.82652 20.0388 1.09448 19.9748C3.23751 19.4634 6.99804 18.8687 10.5648 19.7835C8.50239 17.7395 5.5901 17.3778 3.8239 17.3735C2.56647 17.3702 1.54305 16.2978 1.54305 14.9825Z" fill="#1CB098"/>
</svg>
