<svg width="38" height="30" viewBox="0 0 38 30" fill="none" xmlns="http://www.w3.org/2000/svg">
<path d="M33.1074 25.25C34.3335 25.25 35.3088 24.4249 36.1846 23.2709C37.9771 20.9089 35.0339 19.0214 33.9115 18.097C32.7703 17.1573 31.4962 16.6249 30.2045 16.5M28.5681 13C30.8274 13 32.659 11.0412 32.659 8.625C32.659 6.20876 30.8274 4.25 28.5681 4.25" stroke="white" stroke-width="1.5" stroke-linecap="round"/>
<path d="M4.39248 25.25C3.16635 25.25 2.1911 24.4249 1.31544 23.2709C-0.477133 20.9089 2.466 19.0214 3.58852 18.097C4.72959 17.1573 6.00368 16.6249 7.29546 16.5M8.11364 13C5.8543 13 4.02273 11.0412 4.02273 8.625C4.02273 6.20876 5.8543 4.25 8.11364 4.25" stroke="white" stroke-width="1.5" stroke-linecap="round"/>
<path d="M12.3418 20.1946C10.6698 21.3002 6.28593 23.5579 8.956 26.3829C10.2603 27.763 11.713 28.75 13.5394 28.75H23.961C25.7873 28.75 27.2399 27.763 28.5443 26.3829C31.2143 23.5579 26.8305 21.3002 25.1585 20.1946C21.2376 17.6018 16.2627 17.6018 12.3418 20.1946Z" stroke="white" stroke-width="1.5" stroke-linecap="round" stroke-linejoin="round"/>
<path d="M24.4773 6.875C24.4773 10.2577 21.9131 13 18.75 13C15.5869 13 13.0227 10.2577 13.0227 6.875C13.0227 3.49225 15.5869 0.75 18.75 0.75C21.9131 0.75 24.4773 3.49225 24.4773 6.875Z" stroke="white" stroke-width="1.5"/>
</svg>
