<svg width="34" height="32" viewBox="0 0 34 32" fill="none" xmlns="http://www.w3.org/2000/svg">
<path d="M24.75 13.7572C24.75 13.1811 24.75 12.8931 24.8332 12.6364C25.0751 11.8905 25.7129 11.601 26.3518 11.2979C27.07 10.9571 27.429 10.7867 27.7849 10.7568C28.1889 10.7227 28.5935 10.8134 28.9388 11.0152C29.3966 11.2828 29.7158 11.7913 30.0426 12.2048C31.5521 14.1144 32.3066 15.0694 32.5828 16.1224C32.8057 16.9721 32.8057 17.8607 32.5828 18.7104C32.1801 20.2462 30.9076 21.5337 29.9657 22.7254C29.4839 23.3349 29.243 23.6397 28.9388 23.8175C28.5935 24.0193 28.1889 24.11 27.7849 24.076C27.429 24.046 27.07 23.8757 26.3518 23.5349C25.7129 23.2317 25.0751 22.9424 24.8332 22.1964C24.75 21.9397 24.75 21.6517 24.75 21.0755V13.7572Z" stroke="white" stroke-width="1.5"/>
<path d="M8.75001 13.7574C8.75001 13.0321 8.73045 12.3801 8.16746 11.8701C7.96269 11.6846 7.6912 11.5558 7.14826 11.2982C6.43002 10.9574 6.0709 10.787 5.71506 10.757C4.64746 10.6671 4.07307 11.4261 3.45741 12.2051C1.948 14.1147 1.1933 15.0696 0.917136 16.1226C0.694288 16.9724 0.694288 17.8611 0.917136 18.7107C1.31992 20.2465 2.59243 21.5339 3.53434 22.7257C4.12807 23.4769 4.69523 24.1622 5.71506 24.0764C6.0709 24.0464 6.43002 23.8759 7.14826 23.5352C7.6912 23.2775 7.96269 23.1487 8.16746 22.9632C8.73045 22.4532 8.75001 21.8014 8.75001 21.0759V13.7574Z" stroke="white" stroke-width="1.5"/>
<path d="M5.55029 10.7499C5.55029 5.22712 10.5647 0.75 16.7503 0.75C22.9359 0.75 27.9503 5.22712 27.9503 10.7499" stroke="white" stroke-width="1.5" stroke-linecap="square" stroke-linejoin="round"/>
<path d="M27.9499 24.0835V25.4168C27.9499 28.3623 25.0844 30.7501 21.5499 30.7501H18.3499" stroke="white" stroke-width="1.5" stroke-linecap="round" stroke-linejoin="round"/>
</svg>
