<svg width="29" height="32" viewBox="0 0 29 32" fill="none" xmlns="http://www.w3.org/2000/svg">
<path d="M28.1627 23.0031C27.1601 17.0799 24.0385 12.6692 21.3248 10.0785C20.5351 9.32463 20.1404 8.9477 19.2682 8.59886C18.3959 8.25 17.6463 8.25 16.1469 8.25H12.8536C11.3543 8.25 10.6046 8.25 9.73239 8.59886C8.86021 8.9477 8.46539 9.32463 7.67573 10.0785C4.96205 12.6692 1.84048 17.0799 0.837737 23.0031C0.0916609 27.4101 4.23246 30.75 8.86018 30.75H20.1404C24.768 30.75 28.9089 27.4101 28.1627 23.0031Z" stroke="white" stroke-width="1.5" stroke-linecap="round"/>
<path d="M15.5129 14.2495C15.5129 13.6282 15 13.1245 14.3671 13.1245C13.7343 13.1245 13.2212 13.6282 13.2212 14.2495H15.5129ZM13.2212 24.7495C13.2212 25.3708 13.7343 25.8745 14.3671 25.8745C15 25.8745 15.5129 25.3708 15.5129 24.7495H13.2212ZM16.0059 17.1804C16.3888 17.6749 17.1076 17.7711 17.6115 17.3952C18.1153 17.0191 18.2132 16.3134 17.8302 15.8187L16.0059 17.1804ZM12.586 21.9028C12.1144 21.4885 11.39 21.528 10.968 21.9909C10.546 22.4539 10.5861 23.1651 11.0577 23.5795L12.586 21.9028ZM14.3671 18.2235C13.3781 18.2235 12.9279 18.0651 12.7488 17.9466C12.6666 17.8923 12.5903 17.8306 12.5903 17.5338H10.2986C10.2986 18.406 10.6207 19.2519 11.4686 19.8127C12.2193 20.3092 13.2304 20.4735 14.3671 20.4735V18.2235ZM12.5903 17.5338C12.5903 17.3905 12.6679 17.1685 12.9808 16.9419C13.2932 16.7154 13.7796 16.5414 14.3671 16.5414V14.2914C13.3404 14.2914 12.3655 14.5914 11.6201 15.1314C10.8752 15.6709 10.2986 16.5076 10.2986 17.5338H12.5903ZM16.4097 21.4659C16.4097 21.7987 16.2892 21.9753 16.0317 22.1272C15.7046 22.3201 15.1435 22.4581 14.3671 22.4581V24.7081C15.3517 24.7081 16.3848 24.5437 17.2116 24.0559C18.1081 23.5273 18.7014 22.6452 18.7014 21.4659H16.4097ZM14.3671 20.4735C15.3653 20.4735 15.8858 20.6244 16.1324 20.7823C16.2762 20.8743 16.4097 21.009 16.4097 21.4659H18.7014C18.7014 20.4103 18.3035 19.4863 17.3844 18.8977C16.5683 18.3751 15.4946 18.2235 14.3671 18.2235V20.4735ZM15.5129 15.4164V14.2495H13.2212V15.4164H15.5129ZM13.2212 23.5831V24.7495H15.5129V23.5831H13.2212ZM14.3671 16.5414C15.1843 16.5414 15.766 16.8706 16.0059 17.1804L17.8302 15.8187C17.0692 14.8357 15.7415 14.2914 14.3671 14.2914V16.5414ZM14.3671 22.4581C13.5521 22.4581 12.9189 22.1953 12.586 21.9028L11.0577 23.5795C11.8888 24.3097 13.1025 24.7081 14.3671 24.7081V22.4581Z" fill="white"/>
<path d="M7.25388 4.41431C6.93868 3.96387 6.48183 3.35249 7.42555 3.21308C8.39558 3.06977 9.40283 3.72171 10.3888 3.70831C11.2807 3.69619 11.7351 3.30778 12.2226 2.75322C12.736 2.16925 13.5309 0.75 14.5007 0.75C15.4705 0.75 16.2655 2.16925 16.7788 2.75322C17.2663 3.30778 17.7207 3.69619 18.6126 3.70831C19.5986 3.72171 20.6059 3.06977 21.5759 3.21308C22.5196 3.35249 22.0628 3.96387 21.7476 4.41431L20.3223 6.45096C19.7127 7.32219 19.4079 7.7578 18.7699 8.00391C18.1321 8.25 17.3077 8.25 15.6591 8.25H13.3424C11.6937 8.25 10.8693 8.25 10.2314 8.00391C9.59352 7.7578 9.28869 7.32219 8.67903 6.45096L7.25388 4.41431Z" stroke="white" stroke-width="1.5"/>
</svg>
