<svg width="31" height="31" viewBox="0 0 31 31" fill="none" xmlns="http://www.w3.org/2000/svg">
<path d="M6.82632 1.08423C4.85135 1.27006 3.52195 1.69004 2.52971 2.63923C0.75 4.34172 0.75 7.08182 0.75 12.562V18.3747C0.75 23.855 0.75 26.595 2.52971 28.2976C4.30943 30 7.17382 30 12.9026 30H15.9408C21.6695 30 24.5341 30 26.3137 28.2976C27.9289 26.7525 28.0782 24.3695 28.092 19.8457" stroke="white" stroke-width="1.5" stroke-linecap="round" stroke-linejoin="round"/>
<path d="M14.4312 8.07558C14.2933 7.4913 13.6837 7.12404 13.0699 7.25532C12.456 7.38659 12.0701 7.96669 12.208 8.55099L14.4312 8.07558ZM26.2841 8.64643C26.4251 8.06277 26.0421 7.48092 25.4289 7.34683C24.8157 7.21275 24.2044 7.57721 24.0635 8.16087L26.2841 8.64643ZM23.9309 13.5537L22.8205 13.3109L22.8193 13.316L23.9309 13.5537ZM29.9273 6.52075C29.9273 5.92188 29.4172 5.43641 28.788 5.43641C28.1589 5.43641 27.6488 5.92188 27.6488 6.52075H29.9273ZM27.6488 13.2832C27.6488 13.882 28.1589 14.3675 28.788 14.3675C29.4172 14.3675 29.9273 13.882 29.9273 13.2832H27.6488ZM11.0031 5.60243C11.0031 5.80409 10.9242 5.92052 10.9228 5.92272C10.9163 5.93277 10.9341 5.90394 11.0066 5.83668C11.1515 5.70225 11.4005 5.51847 11.7628 5.29519C12.4785 4.85412 13.4832 4.35184 14.5753 3.8739C15.6623 3.39823 16.8017 2.96145 17.7734 2.64611C18.2597 2.4883 18.692 2.3648 19.0473 2.28195C19.422 2.19458 19.6441 2.16868 19.7374 2.16868V0C19.3632 0 18.9261 0.0774076 18.5052 0.175548C18.0649 0.278213 17.5652 0.422431 17.0381 0.593467C15.9832 0.935816 14.7711 1.40124 13.6235 1.90353C12.4809 2.40355 11.3679 2.95502 10.5245 3.47477C10.1072 3.73188 9.71632 4.00528 9.41623 4.28368C9.26621 4.42286 9.11028 4.58938 8.98559 4.78105C8.86601 4.96488 8.72461 5.24921 8.72461 5.60243H11.0031ZM30.7501 5.60243C30.7501 5.24921 30.6087 4.96488 30.4892 4.78105C30.3644 4.58938 30.2084 4.42286 30.0585 4.28368C29.7584 4.00528 29.3675 3.73188 28.9503 3.47477C28.1069 2.95502 26.9938 2.40355 25.8512 1.90353C24.7036 1.40124 23.4916 0.935816 22.4366 0.593467C21.9095 0.422431 21.4098 0.278213 20.9696 0.175548C20.5487 0.0774076 20.1115 0 19.7374 0V2.16868C19.8306 2.16868 20.0527 2.19458 20.4274 2.28195C20.7827 2.3648 21.215 2.4883 21.7013 2.64611C22.673 2.96145 23.8124 3.39823 24.8994 3.8739C25.9915 4.35184 26.9962 4.85412 27.712 5.29519C28.0742 5.51847 28.3232 5.70225 28.4681 5.83668C28.5406 5.90394 28.5585 5.93277 28.552 5.92272C28.5505 5.92052 28.4716 5.80409 28.4716 5.60243H30.7501ZM28.4716 5.60243C28.4716 5.40077 28.5505 5.28434 28.552 5.28215C28.5585 5.2721 28.5406 5.30093 28.4681 5.36819C28.3232 5.50261 28.0742 5.6864 27.712 5.90968C26.9962 6.35074 25.9915 6.85302 24.8994 7.33096C23.8124 7.80664 22.673 8.24341 21.7013 8.55875C21.215 8.71656 20.7827 8.84007 20.4274 8.92292C20.0527 9.01029 19.8306 9.03618 19.7374 9.03618V11.2049C20.1115 11.2049 20.5487 11.1275 20.9696 11.0293C21.4098 10.9267 21.9095 10.7824 22.4366 10.6114C23.4916 10.269 24.7036 9.80362 25.8512 9.30134C26.9938 8.80131 28.1069 8.24984 28.9503 7.7301C29.3675 7.47298 29.7584 7.19958 30.0585 6.92118C30.2084 6.78201 30.3644 6.61548 30.4892 6.42381C30.6087 6.23998 30.7501 5.95565 30.7501 5.60243H28.4716ZM8.72461 5.60243C8.72461 5.95565 8.86601 6.23998 8.98559 6.42381C9.11028 6.61548 9.26621 6.78201 9.41623 6.92118C9.71632 7.19958 10.1072 7.47298 10.5245 7.7301C11.3679 8.24984 12.4809 8.80131 13.6235 9.30134C14.7711 9.80362 15.9832 10.269 17.0381 10.6114C17.5652 10.7824 18.0649 10.9267 18.5052 11.0293C18.9261 11.1275 19.3632 11.2049 19.7374 11.2049V9.03618C19.6441 9.03618 19.422 9.01029 19.0473 8.92292C18.692 8.84007 18.2597 8.71656 17.7734 8.55875C16.8017 8.24341 15.6623 7.80664 14.5753 7.33096C13.4832 6.85302 12.4785 6.35074 11.7628 5.90968C11.4005 5.6864 11.1515 5.50261 11.0066 5.36819C10.9341 5.30093 10.9163 5.2721 10.9228 5.28215C10.9242 5.28434 11.0031 5.40077 11.0031 5.60243H8.72461ZM12.208 8.55099L13.4451 13.7914L15.6681 13.316L14.4312 8.07558L12.208 8.55099ZM24.0635 8.16087L22.8205 13.3109L25.0411 13.7964L26.2841 8.64643L24.0635 8.16087ZM14.5166 15.3547C15.8499 16.2291 17.583 16.6266 19.2437 16.6266C20.9044 16.6266 22.6374 16.2291 23.9708 15.3547L22.678 13.569C21.8147 14.135 20.5654 14.4579 19.2437 14.4579C17.922 14.4579 16.6726 14.135 15.8094 13.569L14.5166 15.3547ZM22.8193 13.316C22.781 13.4784 22.7125 13.5463 22.678 13.569L23.9708 15.3547C24.5884 14.9496 24.9112 14.3469 25.0423 13.7914L22.8193 13.316ZM13.4451 13.7914C13.5761 14.3469 13.8989 14.9496 14.5166 15.3547L15.8094 13.569C15.7749 13.5463 15.7064 13.4784 15.6681 13.316L13.4451 13.7914ZM27.6488 6.52075V13.2832H29.9273V6.52075H27.6488Z" fill="white"/>
</svg>
