<svg width="60" height="60" viewBox="0 0 60 60" fill="none" xmlns="http://www.w3.org/2000/svg">
<path d="M17.6981 26.3154C17.2229 26.2468 16.7399 26.3698 16.3555 26.6573C15.971 26.9448 15.7165 27.3733 15.6479 27.8484C15.5793 28.3236 15.7023 28.8065 15.9899 29.191C16.2774 29.5755 16.7058 29.83 17.181 29.8986C21.1646 30.4731 23.4344 32.795 23.928 36.799C24.0819 37.9897 23.9986 39.1991 23.6828 40.3574C23.3394 41.6253 22.6953 42.7917 21.8052 43.7576C20.9151 44.7236 19.8052 45.4607 18.5696 45.9064C16.6708 46.6744 14.5648 46.7615 12.6092 46.153C7.22416 44.4444 7.36514 38.1239 7.37487 37.7906C7.37487 27.2549 17.2734 12.8124 17.3732 12.6674C17.6463 12.2726 17.7514 11.7855 17.6653 11.3132C17.5793 10.8409 17.3091 10.4222 16.9143 10.1491C16.5195 9.87597 16.0323 9.7709 15.56 9.85697C15.0878 9.94304 14.669 10.2132 14.3959 10.608C13.9615 11.2356 3.75457 26.12 3.75585 37.7191C3.62769 40.9373 5.08429 47.5637 11.5149 49.6036C12.7144 49.9828 13.9652 50.1751 15.2232 50.1737C16.8299 50.1726 18.4218 49.8655 19.9135 49.2686C21.6624 48.6147 23.2314 47.5557 24.492 46.1783C25.7526 44.801 26.6688 43.1445 27.1657 41.3447C27.6172 39.7228 27.738 38.0266 27.521 36.357C27.3265 33.7951 26.2349 31.3839 24.4383 29.5472C22.6417 27.7106 20.255 26.5662 17.6981 26.3154Z" fill="#1CB098"/>
<path d="M56.146 36.357C55.9515 33.7951 54.8599 31.3839 53.0633 29.5472C51.2667 27.7106 48.88 26.5662 46.3231 26.3153C45.8479 26.2468 45.3649 26.3698 44.9805 26.6573C44.596 26.9448 44.3415 27.3733 44.2729 27.8484C44.2043 28.3236 44.3273 28.8065 44.6148 29.191C44.9024 29.5755 45.3308 29.83 45.806 29.8986C49.7896 30.4731 52.0594 32.795 52.553 36.799C52.7068 37.9897 52.6236 39.199 52.3082 40.3574C51.9648 41.6253 51.3207 42.7918 50.4305 43.7577C49.5403 44.7237 48.4303 45.4608 47.1946 45.9064C45.2958 46.6744 43.1898 46.7615 41.2342 46.1529C35.8492 44.4444 35.9901 38.1238 35.9999 37.7906C35.9999 27.2549 45.8988 12.8124 45.9987 12.6674C46.1339 12.4719 46.2293 12.2517 46.2794 12.0194C46.3295 11.787 46.3334 11.5471 46.2908 11.3132C46.2481 11.0793 46.1599 10.8562 46.031 10.6564C45.9022 10.4567 45.7352 10.2843 45.5397 10.1491C45.3442 10.0138 45.124 9.91845 44.8917 9.86833C44.6593 9.81821 44.4193 9.81435 44.1855 9.85697C43.9516 9.89958 43.7285 9.98784 43.5287 10.1167C43.329 10.2456 43.1566 10.4125 43.0213 10.608C42.5869 11.2356 32.3795 26.12 32.3809 37.719C32.2527 40.9372 33.7093 47.5636 40.1399 49.6036C41.3395 49.9827 42.5902 50.175 43.8482 50.1737C45.4549 50.1726 47.0467 49.8655 48.5385 49.2686C50.2875 48.6146 51.8567 47.5555 53.1175 46.178C54.3782 44.8005 55.2946 43.1438 55.7915 41.3438C56.2423 39.722 56.3628 38.0263 56.146 36.357Z" fill="#1CB098"/>
</svg>
