<svg width="60" height="60" viewBox="0 0 60 60" fill="none" xmlns="http://www.w3.org/2000/svg">
<path d="M17.6978 26.3154C17.2226 26.2468 16.7397 26.3698 16.3552 26.6573C15.9708 26.9448 15.7162 27.3733 15.6477 27.8484C15.5791 28.3236 15.7021 28.8065 15.9896 29.191C16.2771 29.5755 16.7056 29.83 17.1807 29.8986C21.1644 30.4731 23.4341 32.795 23.9278 36.799C24.0817 37.9897 23.9983 39.1991 23.6825 40.3574C23.3391 41.6253 22.6951 42.7917 21.8049 43.7576C20.9148 44.7236 19.8049 45.4607 18.5693 45.9064C16.6706 46.6744 14.5646 46.7615 12.6089 46.153C7.22392 44.4444 7.3649 38.1239 7.37462 37.7906C7.37462 27.2549 17.2731 12.8124 17.373 12.6674C17.6461 12.2726 17.7512 11.7855 17.6651 11.3132C17.579 10.8409 17.3089 10.4222 16.914 10.1491C16.5192 9.87597 16.0321 9.7709 15.5598 9.85697C15.0875 9.94304 14.6688 10.2132 14.3957 10.608C13.9612 11.2356 3.75433 26.12 3.75561 37.7191C3.62744 40.9373 5.08405 47.5637 11.5147 49.6036C12.7142 49.9828 13.9649 50.1751 15.223 50.1737C16.8297 50.1726 18.4215 49.8655 19.9133 49.2686C21.6621 48.6147 23.2312 47.5557 24.4917 46.1783C25.7523 44.801 26.6686 43.1445 27.1655 41.3447C27.617 39.7228 27.7378 38.0266 27.5208 36.357C27.3263 33.7951 26.2347 31.3839 24.4381 29.5472C22.6414 27.7106 20.2548 26.5662 17.6978 26.3154Z" fill="#743EF9"/>
<path d="M56.1457 36.357C55.9512 33.7951 54.8597 31.3839 53.0631 29.5472C51.2664 27.7106 48.8798 26.5662 46.3228 26.3153C45.8476 26.2468 45.3647 26.3698 44.9802 26.6573C44.5958 26.9448 44.3412 27.3733 44.2727 27.8484C44.2041 28.3236 44.3271 28.8065 44.6146 29.191C44.9021 29.5755 45.3306 29.83 45.8057 29.8986C49.7894 30.4731 52.0591 32.795 52.5528 36.799C52.7066 37.9897 52.6234 39.199 52.308 40.3574C51.9645 41.6253 51.3204 42.7918 50.4302 43.7577C49.54 44.7237 48.43 45.4608 47.1943 45.9064C45.2956 46.6744 43.1896 46.7615 41.2339 46.1529C35.8489 44.4444 35.9899 38.1238 35.9996 37.7906C35.9996 27.2549 45.8986 12.8124 45.9984 12.6674C46.1337 12.4719 46.229 12.2517 46.2792 12.0194C46.3293 11.787 46.3331 11.5471 46.2905 11.3132C46.2479 11.0793 46.1596 10.8562 46.0308 10.6564C45.9019 10.4567 45.735 10.2843 45.5395 10.1491C45.344 10.0138 45.1238 9.91845 44.8914 9.86833C44.659 9.81821 44.4191 9.81435 44.1852 9.85697C43.9514 9.89958 43.7282 9.98784 43.5285 10.1167C43.3287 10.2456 43.1563 10.4125 43.0211 10.608C42.5867 11.2356 32.3793 26.12 32.3806 37.719C32.2524 40.9372 33.709 47.5636 40.1397 49.6036C41.3392 49.9827 42.5899 50.175 43.848 50.1737C45.4547 50.1726 47.0465 49.8655 48.5382 49.2686C50.2873 48.6146 51.8565 47.5555 53.1172 46.178C54.378 44.8005 55.2943 43.1438 55.7913 41.3438C56.242 39.722 56.3626 38.0263 56.1457 36.357Z" fill="#743EF9"/>
</svg>
