<svg width="40" height="40" viewBox="0 0 40 40" fill="none" xmlns="http://www.w3.org/2000/svg">
<path d="M11.7989 17.5436C11.4821 17.4979 11.1601 17.5799 10.9038 17.7715C10.6475 17.9632 10.4778 18.2488 10.4321 18.5656C10.3864 18.8824 10.4684 19.2044 10.6601 19.4607C10.8517 19.717 11.1374 19.8867 11.4542 19.9324C14.1099 20.3154 15.6231 21.8634 15.9522 24.5326C16.0548 25.3265 15.9992 26.1327 15.7887 26.905C15.5597 27.7502 15.1304 28.5278 14.537 29.1717C13.9435 29.8157 13.2036 30.3071 12.3799 30.6043C11.1141 31.1163 9.71004 31.1744 8.40627 30.7686C4.81627 29.6296 4.91026 25.4159 4.91674 25.1938C4.91674 18.1699 11.5157 8.5416 11.5823 8.44496C11.7644 8.18175 11.8344 7.857 11.777 7.54214C11.7197 7.22728 11.5396 6.94811 11.2764 6.76605C11.0131 6.58398 10.6884 6.51394 10.3735 6.57132C10.0587 6.6287 9.7795 6.8088 9.59743 7.07201C9.30782 7.49041 2.50321 17.4133 2.50407 25.146C2.41862 27.2915 3.38969 31.7091 7.67678 33.0691C8.47646 33.3219 9.31029 33.4501 10.149 33.4492C11.2201 33.4484 12.2813 33.2436 13.2758 32.8458C14.4418 32.4098 15.4878 31.7038 16.3281 30.7855C17.1685 29.8673 17.7794 28.763 18.1106 27.5631C18.4116 26.4818 18.4922 25.3511 18.3475 24.238C18.2178 22.5301 17.4901 20.9226 16.2924 19.6982C15.0946 18.4737 13.5035 17.7108 11.7989 17.5436Z" fill="#1882FF"/>
<path d="M37.431 24.238C37.3013 22.5301 36.5736 20.9226 35.3759 19.6982C34.1781 18.4737 32.587 17.7108 30.8824 17.5436C30.5656 17.4979 30.2436 17.5799 29.9873 17.7715C29.731 17.9632 29.5613 18.2488 29.5156 18.5656C29.4699 18.8824 29.5519 19.2044 29.7436 19.4607C29.9352 19.717 30.2209 19.8867 30.5376 19.9324C33.1934 20.3154 34.7066 21.8633 35.0357 24.5326C35.1382 25.3264 35.0828 26.1327 34.8725 26.905C34.6435 27.7502 34.2141 28.5278 33.6206 29.1718C33.0272 29.8158 32.2872 30.3072 31.4634 30.6043C30.1976 31.1163 28.7935 31.1743 27.4898 30.7686C23.8998 29.6296 23.9938 25.4159 24.0002 25.1938C24.0002 18.1699 30.5995 8.5416 30.6661 8.44496C30.7563 8.31463 30.8199 8.16782 30.8533 8.01291C30.8867 7.85801 30.8892 7.69803 30.8608 7.54213C30.8324 7.38623 30.7736 7.23745 30.6877 7.10429C30.6018 6.97113 30.4905 6.85619 30.3601 6.76604C30.2298 6.67589 30.083 6.6123 29.9281 6.57889C29.7732 6.54547 29.6132 6.5429 29.4573 6.57131C29.3014 6.59972 29.1526 6.65856 29.0195 6.74447C28.8863 6.83038 28.7714 6.94168 28.6812 7.07201C28.3916 7.49038 21.5867 17.4133 21.5876 25.146C21.5021 27.2915 22.4732 31.7091 26.7603 33.0691C27.56 33.3218 28.3938 33.45 29.2325 33.4491C30.3036 33.4484 31.3648 33.2437 32.3593 32.8458C33.5254 32.4097 34.5715 31.7036 35.412 30.7853C36.2525 29.867 36.8634 28.7626 37.1947 27.5626C37.4952 26.4814 37.5755 25.3508 37.431 24.238Z" fill="#1882FF"/>
</svg>
