<svg width="30" height="24" viewBox="0 0 30 24" fill="none" xmlns="http://www.w3.org/2000/svg">
<path d="M4.5889 0C4.58808 0 4.58727 0 4.58645 0C4.30264 0 4.03594 0.11575 3.83442 0.326202C3.63072 0.538929 3.51855 0.822469 3.51855 1.12393V17.9803C3.51855 18.5983 4.00063 19.1025 4.59351 19.1042C7.09243 19.1105 11.2787 19.656 14.1668 22.8207V5.17997C14.1668 4.97037 14.1158 4.77357 14.0194 4.61061C11.6486 0.613726 7.09351 0.00625669 4.5889 0Z" fill="white"/>
<path d="M26.482 17.9806V1.12393C26.482 0.822184 26.3698 0.538929 26.1661 0.326202C25.9646 0.11575 25.6976 0 25.4141 0C25.4133 0 25.4122 0 25.4114 0C22.907 0.00625669 18.3519 0.613723 15.9815 4.61089C15.885 4.77385 15.834 4.97065 15.834 5.18025V22.821C18.7221 19.6562 22.9087 19.1108 25.4073 19.1045C25.9996 19.1028 26.482 18.5986 26.482 17.9806Z" fill="white"/>
<path d="M28.9266 3.8877H28.1483V17.9809C28.1483 19.559 26.9204 20.8462 25.4109 20.8499C23.2914 20.8553 19.7965 21.2892 17.3215 23.7422C21.6021 22.6447 26.1146 23.3582 28.6866 23.9717C29.0076 24.0482 29.3395 23.9691 29.5967 23.7544C29.853 23.5402 30 23.22 30 22.8765V5.01162C30.0002 4.39193 29.5184 3.8877 28.9266 3.8877Z" fill="#FFBF00"/>
<path d="M1.85171 17.9809V3.8877H1.07333C0.481533 3.8877 0 4.39193 0 5.01162V22.8764C0 23.2203 0.147203 23.5402 0.403313 23.7544C0.66051 23.9691 0.991851 24.0484 1.31342 23.9717C3.88511 23.3579 8.39788 22.6444 12.6782 23.7421C10.2031 21.2892 6.70831 20.8553 4.58881 20.8501C3.07985 20.8462 1.85171 19.5593 1.85171 17.9809Z" fill="#FFBF00"/>
</svg>
