<svg width="72" height="72" viewBox="0 0 72 72" fill="none" xmlns="http://www.w3.org/2000/svg">
<g clip-path="url(#clip0_319_1717)">
<path d="M36.3902 25.5244H9.39244C8.80997 25.5244 8.33789 25.9966 8.33789 26.579C8.33789 27.1614 8.80997 27.6335 9.39244 27.6335H36.3903C36.9728 27.6335 37.4449 27.1613 37.4449 26.579C37.4449 25.9966 36.9728 25.5244 36.3902 25.5244Z" fill="#1882FF"/>
<path d="M36.3902 32.9346H9.39244C8.80997 32.9346 8.33789 33.4068 8.33789 33.9891C8.33789 34.5714 8.80997 35.0437 9.39244 35.0437H36.3903C36.9728 35.0437 37.4449 34.5714 37.4449 33.9891C37.4449 33.4068 36.9728 32.9346 36.3902 32.9346Z" fill="#1882FF"/>
<path d="M36.3902 40.3447H9.39244C8.80997 40.3447 8.33789 40.8169 8.33789 41.3993C8.33789 41.9816 8.80997 42.4538 9.39244 42.4538H36.3903C36.9728 42.4538 37.4449 41.9816 37.4449 41.3993C37.4449 40.8169 36.9728 40.3447 36.3902 40.3447Z" fill="#1882FF"/>
<path d="M37.4449 48.8099C37.4449 48.2274 36.9728 47.7554 36.3903 47.7554H9.39244C8.80997 47.7554 8.33789 48.2276 8.33789 48.8099C8.33789 49.3922 8.80997 49.8645 9.39244 49.8645H36.3903C36.9728 49.8645 37.4449 49.3924 37.4449 48.8099Z" fill="#1882FF"/>
<path d="M9.39244 58.6152C8.80997 58.6152 8.33789 59.0875 8.33789 59.6698C8.33789 60.2521 8.80997 60.7243 9.39244 60.7243H22.9259C23.5084 60.7243 23.9805 60.2521 23.9805 59.6698C23.9805 59.0875 23.5084 58.6152 22.9259 58.6152H9.39244Z" fill="#1882FF"/>
<path d="M48.5429 13.0576V9.63567C48.5429 8.33208 47.4825 7.27148 46.1787 7.27148H24.5271C23.2235 7.27148 22.1631 8.33208 22.1631 9.63567V13.0576C22.1631 14.3612 23.2235 15.4217 24.5271 15.4217H26.3555C26.938 15.4217 27.4101 14.9495 27.4101 14.3671C27.4101 13.7847 26.938 13.3126 26.3555 13.3126H24.5271C24.3866 13.3126 24.2723 13.1983 24.2723 13.0578V9.63567C24.2723 9.49519 24.3866 9.38072 24.5271 9.38072H46.1787C46.3194 9.38072 46.4337 9.49505 46.4337 9.63567V13.0576C46.4337 13.1981 46.3194 13.3125 46.1787 13.3125H31.2859C30.7034 13.3125 30.2313 13.7847 30.2313 14.367C30.2313 14.9495 30.7034 15.4215 31.2859 15.4215H46.1789C47.4825 15.4218 48.5429 14.3612 48.5429 13.0576Z" fill="#1882FF"/>
<path d="M56.4285 64.3073C55.846 64.3073 55.3739 64.7795 55.3739 65.3618V66.782C55.3739 68.496 53.9793 69.8908 52.265 69.8908H5.61096C3.89688 69.8908 2.50216 68.4962 2.50216 66.782V16.0914C2.50216 15.8632 2.52888 15.6393 2.57655 15.4215H12.1788C14.1836 15.4215 15.8146 13.7905 15.8146 11.7858V2.18362C16.0324 2.13595 16.2561 2.10923 16.4844 2.10923H52.2648C53.9791 2.10923 55.3738 3.50381 55.3738 5.21803V19.2583C55.3738 19.8408 55.8459 20.3129 56.4283 20.3129C57.0108 20.3129 57.4829 19.8406 57.4829 19.2583V5.21789C57.483 2.34084 55.1422 0 52.265 0H16.4845C15.0908 0 13.7803 0.542813 12.7948 1.52831L1.92124 12.4019C0.935738 13.3874 0.393066 14.6977 0.393066 16.0916V66.7821C0.393066 69.6593 2.73377 72 5.61096 72H52.265C55.1422 72 57.483 69.6592 57.483 66.7821V65.3619C57.483 64.7795 57.0109 64.3073 56.4285 64.3073ZM13.7055 3.60056V11.7858C13.7055 12.6276 13.0206 13.3124 12.1788 13.3124H3.99363L13.7055 3.60056Z" fill="#1882FF"/>
<path d="M70.8729 37.6874C71.6131 36.6007 71.8047 35.2604 71.3984 34.01C70.9921 32.7596 70.0492 31.7879 68.8117 31.344C67.9908 31.0496 67.443 30.2958 67.4169 29.4239C67.3771 28.1098 66.7441 26.9128 65.6803 26.1399C64.6167 25.3672 63.2825 25.1353 62.0208 25.5035C61.183 25.7479 60.2975 25.4599 59.7636 24.7701C58.9591 23.7302 57.7436 23.1338 56.4287 23.1338C55.114 23.1338 53.8983 23.7302 53.0937 24.7701C52.5598 25.46 51.6738 25.7476 50.8366 25.5035C49.5748 25.135 48.2407 25.3672 47.1769 26.1399C46.1132 26.9128 45.4805 28.1097 45.4406 29.4238C45.4143 30.2957 44.8667 31.0493 44.0456 31.3439C42.8081 31.7877 41.8652 32.7596 41.459 34.0099C41.0528 35.2603 41.2443 36.6007 41.9846 37.6872C42.4756 38.4082 42.4756 39.3397 41.9846 40.0605C41.2443 41.1471 41.0528 42.4874 41.459 43.7379C41.8652 44.9883 42.8081 45.96 44.0456 46.404C44.8667 46.6986 45.4144 47.4522 45.4406 48.3241C45.4773 49.5329 46.0312 50.6687 46.9607 51.4401C47.574 51.9491 48.3107 52.2676 49.0818 52.3741V61.9757C49.0818 62.7858 49.5212 63.5346 50.2284 63.9297C50.9348 64.3244 51.8031 64.3068 52.4935 63.8817L56.3614 61.5006C56.4244 61.4617 56.4619 61.4793 56.4966 61.5006L60.3642 63.8817C61.0543 64.3064 61.9224 64.3247 62.6294 63.9295C63.3368 63.5344 63.7761 62.7855 63.7761 61.9755V52.3738C64.5469 52.2675 65.2836 51.949 65.8969 51.4401C66.8265 50.6687 67.3806 49.533 67.4173 48.3239C67.4435 47.4521 67.9912 46.6983 68.8122 46.4039C70.0498 45.96 70.9927 44.9882 71.3988 43.7377C71.8051 42.4873 71.6135 41.147 70.8733 40.0604C70.3817 39.3398 70.3817 38.4083 70.8729 37.6874ZM61.4697 62.0856L57.6019 59.7046C56.8829 59.262 55.9751 59.2613 55.2553 59.7046L51.3876 62.0855C51.2996 62.1391 51.1909 62.0774 51.1909 61.9755V52.1738C51.9159 52.0899 52.6348 52.3849 53.0937 52.9779C53.8984 54.0177 55.114 54.6141 56.4289 54.6141C57.7436 54.6141 58.9591 54.0177 59.7636 52.9779C60.2226 52.3848 60.9417 52.0899 61.6666 52.1738V61.9755C61.6666 62.0781 61.5565 62.1392 61.4697 62.0856ZM69.1298 41.2484C69.5 41.7915 69.5956 42.4613 69.3925 43.0862C69.1894 43.7112 68.7182 44.1969 68.0996 44.4188C66.4568 45.008 65.3614 46.5159 65.3086 48.2604C65.2899 48.8736 65.0203 49.4264 64.5497 49.8171C64.0205 50.2563 63.3039 50.4219 62.6117 50.22C60.9364 49.7312 59.1636 50.3072 58.0954 51.6873C57.6934 52.2069 57.0857 52.505 56.4286 52.505C55.7716 52.505 55.1639 52.207 54.7616 51.6873C53.9461 50.6331 52.7197 50.0481 51.4396 50.0481C51.0433 50.0481 50.6417 50.1043 50.2457 50.2198C49.5468 50.4235 48.8323 50.2528 48.3073 49.817C47.8367 49.4263 47.5671 48.8735 47.5487 48.2604C47.4958 46.5159 46.4003 45.008 44.7574 44.4186C44.1389 44.1967 43.6678 43.7112 43.4646 43.0862C43.2616 42.4613 43.3572 41.7914 43.7273 41.2483C44.7099 39.8059 44.7099 37.9422 43.7273 36.4998C43.3572 35.9567 43.2616 35.2867 43.4646 34.6617C43.6677 34.0367 44.1389 33.551 44.7574 33.3292C46.4003 32.7399 47.4958 31.232 47.5487 29.4875C47.5685 28.8306 47.8846 28.2324 48.4163 27.8463C48.9477 27.46 49.6143 27.3441 50.2456 27.528C51.9204 28.017 53.6937 27.4409 54.7616 26.0608C55.1638 25.541 55.7713 25.2429 56.4286 25.2429C57.0857 25.2429 57.6932 25.5409 58.0954 26.0606C59.1634 27.4409 60.9359 28.0169 62.6116 27.528C63.2424 27.3438 63.909 27.4598 64.4407 27.8461C64.9724 28.2323 65.2888 28.8306 65.3085 29.4874C65.3614 31.2318 66.4568 32.7399 68.0996 33.3291C68.7182 33.5509 69.1893 34.0366 69.3925 34.6615C69.5956 35.2865 69.5 35.9565 69.1298 36.4995C68.147 37.942 68.147 39.806 69.1298 41.2484Z" fill="#1882FF"/>
<path d="M56.4287 30.0352C51.5549 30.0352 47.5898 34.0002 47.5898 38.874C47.5898 43.7478 51.5549 47.7128 56.4287 47.7128C61.3023 47.7128 65.2674 43.7478 65.2674 38.874C65.2674 34.0002 61.3023 30.0352 56.4287 30.0352ZM56.4287 45.6038C52.7179 45.6038 49.6989 42.5848 49.6989 38.8741C49.6989 35.1635 52.7179 32.1444 56.4287 32.1444C60.1395 32.1444 63.1583 35.1633 63.1583 38.8741C63.1583 42.585 60.1394 45.6038 56.4287 45.6038Z" fill="#1882FF"/>
</g>
<defs>
<clipPath id="clip0_319_1717">
<rect width="72" height="72" fill="white"/>
</clipPath>
</defs>
</svg>
