<svg width="40" height="40" viewBox="0 0 40 40" fill="none" xmlns="http://www.w3.org/2000/svg">
<path d="M30.4677 25.873L30.4818 25.8324C30.5841 25.4485 30.7438 25.0822 30.9555 24.746C31.2243 24.4655 31.5348 24.2281 31.8759 24.0421C32.564 23.6911 33.1351 23.1477 33.5198 22.4779C33.7881 21.7582 33.8474 20.9773 33.6908 20.2253C33.6189 19.8254 33.6082 19.4168 33.659 19.0136C33.7801 18.6466 33.9559 18.3001 34.1807 17.9858C34.6538 17.3612 34.9381 16.6143 35 15.8333C34.9378 15.0527 34.6538 14.3061 34.1813 13.6816C33.9562 13.3671 33.78 13.0202 33.6588 12.6529C33.6081 12.25 33.6188 11.8417 33.6906 11.442C33.8471 10.6901 33.7881 9.9093 33.5205 9.18942C33.1356 8.52029 32.5649 7.97721 31.8774 7.62609C31.5359 7.43964 31.2252 7.20165 30.9562 6.92051C30.7443 6.58426 30.5844 6.21801 30.4817 5.83409C30.3044 5.08251 29.9155 4.39743 29.3612 3.85984C28.7307 3.42655 27.9865 3.18885 27.2217 3.17651C26.8332 3.15933 26.4499 3.08135 26.0856 2.94542C25.7606 2.7397 25.4686 2.48591 25.2197 2.19267C24.735 1.58403 24.0818 1.13153 23.3417 0.89159C22.5928 0.785644 21.8293 0.901957 21.146 1.22609C20.7821 1.38582 20.3954 1.4875 20 1.52742C19.6049 1.48765 19.2185 1.38605 18.855 1.22634C18.1716 0.901677 17.4076 0.785732 16.6586 0.893007C15.9188 1.13207 15.2658 1.58372 14.7811 2.19159C14.5326 2.48526 14.2406 2.73913 13.9152 2.94434C13.5509 3.08027 13.1675 3.15824 12.7791 3.17542C12.0142 3.18777 11.27 3.42547 10.6396 3.85876C10.0851 4.3967 9.69602 5.08197 9.51817 5.83376C9.4159 6.21769 9.25621 6.58396 9.0445 6.92017C8.77568 7.2007 8.46523 7.43812 8.12408 7.62409C7.43603 7.97504 6.86487 8.51849 6.48017 9.18826C6.21189 9.90797 6.15264 10.6889 6.30925 11.4408C6.38106 11.8408 6.39176 12.2494 6.341 12.6526C6.21994 13.0195 6.04406 13.3661 5.81933 13.6804C5.34616 14.305 5.06183 15.0521 5 15.8333C5.06218 16.6139 5.34623 17.3604 5.81867 17.9849C6.04381 18.2994 6.21998 18.6463 6.34117 19.0136C6.39198 19.4166 6.38127 19.8251 6.30942 20.2249C6.15293 20.9768 6.21188 21.7576 6.4795 22.4775C6.86437 23.1466 7.43514 23.6897 8.12258 24.0408C8.46411 24.2273 8.77484 24.4653 9.04383 24.7464C9.25566 25.0827 9.4156 25.4489 9.51825 25.8328L9.53367 25.8772C9.531 25.8815 9.5265 25.8838 9.52392 25.8882L5.22542 33.3333C5.06831 33.6051 4.99121 33.9158 5.00301 34.2295C5.01482 34.5433 5.11504 34.8473 5.29214 35.1066C5.46923 35.3659 5.71598 35.5698 6.00395 35.6949C6.29192 35.82 6.60939 35.8612 6.91975 35.8138L9.82092 35.3727L10.8903 38.1078C11.0034 38.4008 11.1977 38.6555 11.4503 38.8421C11.7029 39.0287 12.0034 39.1396 12.3167 39.1617C12.3598 39.1649 12.4029 39.1666 12.4461 39.1666C12.7383 39.1673 13.0254 39.0906 13.2783 38.9442C13.5312 38.7978 13.7408 38.587 13.8857 38.3333L18.338 30.6206C18.515 30.5636 18.6873 30.501 18.8539 30.4402C19.2179 30.2805 19.6046 30.1789 20 30.1391C20.3951 30.1789 20.7815 30.2805 21.145 30.4402C21.3117 30.5012 21.4859 30.5617 21.663 30.6188L21.6667 30.6298L26.1141 38.3333C26.259 38.587 26.4686 38.7978 26.7214 38.9442C26.9743 39.0906 27.2615 39.1673 27.5537 39.1666C27.5968 39.1666 27.6399 39.1649 27.6831 39.1617C27.9966 39.1395 28.2973 39.0286 28.5501 38.8418C28.8028 38.655 28.9972 38.4002 29.1105 38.107L30.179 35.3727L33.079 35.8138C33.3895 35.8615 33.7071 35.8205 33.9952 35.6955C34.2834 35.5704 34.5303 35.3665 34.7076 35.1072C34.8848 34.8479 34.9852 34.5438 34.997 34.2299C35.0089 33.916 34.9318 33.6052 34.7746 33.3333L30.4677 25.873ZM12.4423 37.4999L11.1312 34.1446C11.0618 33.9688 10.9349 33.8217 10.7711 33.7273C10.6074 33.6328 10.4165 33.5966 10.2296 33.6246L6.66908 34.1666L10.4533 27.6118C10.5112 27.6804 10.5732 27.7455 10.6388 27.8067C11.2692 28.24 12.0135 28.4777 12.7783 28.49C13.1668 28.5072 13.5501 28.5852 13.9144 28.7211C14.2394 28.9268 14.5314 29.1806 14.7803 29.4738C15.2174 29.9892 15.7656 30.3989 16.3837 30.6721L12.4423 37.4999ZM21.7167 28.8744C21.1723 28.6413 20.5913 28.5053 20 28.4724C19.4087 28.5049 18.8276 28.6409 18.2833 28.8744C17.8949 29.064 17.4671 29.1588 17.035 29.1511C16.6219 28.962 16.2602 28.6765 15.9803 28.3186C15.6044 27.88 15.1546 27.5106 14.6514 27.2269C14.115 26.9982 13.5428 26.865 12.9606 26.8333C12.5186 26.8327 12.0835 26.7237 11.6935 26.5158C11.4029 26.1638 11.1992 25.7485 11.0986 25.3033C10.9439 24.737 10.693 24.2016 10.3569 23.7204C9.97579 23.2815 9.52079 22.9127 9.0125 22.6308C8.60534 22.4305 8.25321 22.1338 7.98667 21.7666C7.87365 21.3245 7.8664 20.862 7.9655 20.4166C8.06432 19.8327 8.06542 19.2365 7.96875 18.6523C7.81349 18.0973 7.56439 17.5731 7.23225 17.1023C6.94305 16.7317 6.74888 16.2961 6.66667 15.8333C6.74877 15.3705 6.94295 14.9349 7.23225 14.5645C7.56471 14.0938 7.81383 13.5695 7.96875 13.0145C8.06544 12.4302 8.06435 11.8339 7.9655 11.2499C7.8662 10.8045 7.87374 10.3419 7.9875 9.89992C8.25375 9.53185 8.60606 9.23456 9.01367 9.03401C9.52222 8.75239 9.97751 8.38388 10.3589 7.94517C10.6942 7.46406 10.9444 6.92896 11.0987 6.36317C11.1997 5.91777 11.4037 5.50224 11.6943 5.14992C12.0844 4.94209 12.5195 4.8331 12.9614 4.83251C13.5438 4.8007 14.1161 4.66739 14.6525 4.43859C15.1561 4.15544 15.6059 3.78592 15.9814 3.34692C16.2613 2.98929 16.623 2.70408 17.0361 2.51526C17.4679 2.50835 17.8953 2.60313 18.2837 2.79192C18.8279 3.02505 19.4088 3.16115 20 3.19409C20.5913 3.16164 21.1724 3.02557 21.7167 2.79209C22.1054 2.60337 22.533 2.5086 22.965 2.51542C23.3781 2.70452 23.7398 2.99002 24.0197 3.34792C24.3956 3.78647 24.8454 4.15592 25.3486 4.43959C25.885 4.66827 26.4572 4.8015 27.0394 4.83326C27.4814 4.83385 27.9165 4.94284 28.3065 5.15067C28.5971 5.50268 28.8008 5.91804 28.9014 6.36326C29.0561 6.92947 29.307 7.46487 29.6431 7.94609C30.0242 8.38498 30.4792 8.75377 30.9875 9.03576C31.3947 9.23606 31.7468 9.53269 32.0133 9.89992C32.1264 10.342 32.1336 10.8045 32.0345 11.2499C31.9357 11.8338 31.9346 12.43 32.0312 13.0143C32.1865 13.5692 32.4356 14.0934 32.7677 14.5643C33.0569 14.9348 33.2511 15.3705 33.3333 15.8333C33.2512 16.296 33.057 16.7316 32.7677 17.102C32.4353 17.5727 32.1862 18.097 32.0312 18.652C31.9346 19.2363 31.9357 19.8326 32.0345 20.4166C32.1338 20.862 32.1263 21.3246 32.0125 21.7666C31.7463 22.1347 31.3939 22.432 30.9863 22.6325C30.4778 22.9141 30.0225 23.2826 29.6411 23.7213C29.3058 24.2025 29.0556 24.7376 28.9013 25.3033C28.8003 25.7488 28.5963 26.1644 28.3057 26.5168C27.9156 26.7246 27.4805 26.8336 27.0386 26.8342C26.4562 26.866 25.8839 26.9993 25.3475 27.2281C24.8439 27.5112 24.3941 27.8808 24.0186 28.3198C23.7387 28.6774 23.377 28.9626 22.9639 29.1514C22.5322 29.1578 22.1051 29.0629 21.7167 28.8744ZM29.7708 33.6244C29.5839 33.5967 29.3931 33.633 29.2295 33.7274C29.0658 33.8218 28.9388 33.9688 28.8692 34.1444L27.5578 37.4999L23.6161 30.6721C24.2339 30.3992 24.7819 29.9899 25.2189 29.4749C25.4674 29.1812 25.7594 28.9274 26.0848 28.7222C26.4491 28.5862 26.8325 28.5083 27.2209 28.4911C27.9858 28.4787 28.73 28.241 29.3604 27.8078C29.4264 27.7463 29.4886 27.6809 29.5467 27.612L33.3309 34.1666L29.7708 33.6244ZM30 15.8333C30 13.8554 29.4135 11.922 28.3147 10.2776C27.2159 8.63306 25.6541 7.35134 23.8268 6.59446C21.9996 5.83758 19.9889 5.63955 18.0491 6.0254C16.1093 6.41126 14.3275 7.36366 12.9289 8.76219C11.5304 10.1607 10.578 11.9425 10.1921 13.8824C9.80629 15.8222 10.0043 17.8328 10.7612 19.6601C11.5181 21.4874 12.7998 23.0491 14.4443 24.148C16.0888 25.2468 18.0222 25.8333 20 25.8333C22.6513 25.8304 25.1931 24.7759 27.0679 22.9011C28.9426 21.0264 29.9971 18.4845 30 15.8333ZM20 24.1666C18.3518 24.1666 16.7407 23.6778 15.3702 22.7622C13.9998 21.8465 12.9317 20.545 12.301 19.0223C11.6703 17.4996 11.5052 15.824 11.8268 14.2075C12.1483 12.591 12.942 11.1061 14.1074 9.9407C15.2729 8.77526 16.7577 7.98159 18.3742 7.66005C19.9908 7.3385 21.6663 7.50353 23.189 8.13426C24.7117 8.76499 26.0132 9.83309 26.9289 11.2035C27.8446 12.5739 28.3333 14.1851 28.3333 15.8333C28.3307 18.0426 27.4519 20.1607 25.8897 21.7229C24.3274 23.2852 22.2093 24.164 20 24.1666ZM23.7956 12.6399C23.8867 12.7006 23.9649 12.7786 24.0259 12.8695C24.0868 12.9604 24.1292 13.0625 24.1507 13.1698C24.1721 13.2771 24.1722 13.3876 24.151 13.495C24.1297 13.6024 24.0874 13.7045 24.0267 13.7955L20.6933 18.7955C20.6249 18.898 20.5346 18.9841 20.4289 19.0475C20.3232 19.1109 20.2048 19.1501 20.0822 19.1622C20.0545 19.1649 20.0268 19.1666 20 19.1666C19.779 19.1665 19.5671 19.0787 19.4108 18.9224L16.9108 16.4224C16.759 16.2653 16.675 16.0548 16.6769 15.8363C16.6788 15.6178 16.7665 15.4087 16.921 15.2542C17.0755 15.0997 17.2845 15.0121 17.503 15.0102C17.7215 15.0083 17.932 15.0923 18.0892 15.2441L19.8706 17.0255L22.6399 12.871C22.7626 12.6872 22.9532 12.5596 23.1699 12.5163C23.3866 12.4729 23.6117 12.5174 23.7956 12.6399Z" fill="#FE5A86"/>
</svg>
