<svg width="66" height="66" viewBox="0 0 66 66" fill="none" xmlns="http://www.w3.org/2000/svg">
<path d="M62.0401 59.9265C62.1721 62.5665 59.6641 64.6785 56.4961 64.6785H9.50406C6.33606 64.6785 3.82806 62.4345 3.96006 59.9265C4.22406 55.1745 4.62006 48.1785 5.41206 44.8785C6.60006 39.8625 12.2761 38.4105 12.2761 38.4105L25.3441 33.3945H40.7881L53.8561 38.4105C53.8561 38.4105 59.5321 39.8625 60.7201 44.8785C61.3801 48.1785 61.7761 55.1745 62.0401 59.9265Z" fill="#676767"/>
<path d="M37.3559 64.6787C39.5999 58.0787 42.1079 48.8387 42.3719 38.5427V34.0547H23.6279V38.9387C24.0239 48.9707 26.3999 58.0787 28.6439 64.6787H37.3559Z" fill="white"/>
<path d="M40.7879 34.7148V26.1348H25.2119V34.7148L32.9999 39.0708L40.7879 34.7148Z" fill="#FBC791"/>
<path d="M45.731 20.4804C46.1116 19.0734 45.7357 17.7477 44.8915 17.5194C44.0473 17.2911 43.0544 18.2466 42.6739 19.6536C42.2934 21.0606 42.6692 22.3863 43.5134 22.6146C44.3576 22.8429 45.3505 21.8874 45.731 20.4804Z" fill="#FFE0B2"/>
<path d="M23.3183 19.6627C22.9377 18.2557 21.9449 17.3002 21.1007 17.5285C20.2565 17.7568 19.8806 19.0825 20.2612 20.4895C20.6417 21.8965 21.6346 22.852 22.4788 22.6237C23.323 22.3954 23.6988 21.0697 23.3183 19.6627Z" fill="#FFE0B2"/>
<path d="M44.4841 18.2145C44.4841 25.2105 39.3361 32.8665 33.0001 32.8665C26.6641 32.8665 21.5161 25.2105 21.5161 18.2145C21.5161 11.2185 26.6641 6.73047 33.0001 6.73047C39.3361 6.73047 44.4841 11.2185 44.4841 18.2145Z" fill="#FFE0B2"/>
<path d="M37.0919 64.6793L34.8479 43.0312H31.1519L28.7759 64.6793H37.0919Z" fill="#6AB7E6"/>
<path d="M37.8842 39.4672L35.5082 36.0352H30.4922L28.1162 39.4672L31.1522 43.0312H34.8482L37.8842 39.4672Z" fill="#4CA0D8"/>
<path d="M23.6279 34.0559L28.1159 41.1839L32.9999 36.0359L25.2119 30.7559L23.6279 34.0559Z" fill="#E6E6E5"/>
<path d="M40.788 30.7559L33 36.0359L37.884 41.1839L42.372 34.0559L40.788 30.7559Z" fill="#E6E6E5"/>
<path d="M37.356 64.6787H39.864L48.84 49.1027L44.484 44.7467L48.84 41.7107L46.992 35.7707L42.24 34.0547C42.768 45.9347 39.996 57.0227 37.356 64.6787Z" fill="#525252"/>
<path d="M17.1602 49.1038L26.1362 64.6798H28.6442C26.0042 57.0238 23.2322 45.8038 23.6282 33.9238L19.0082 35.6398L17.1602 41.5798L21.5162 44.6158L17.1602 49.1038Z" fill="#525252"/>
<path d="M35.6402 2.11122C22.0442 -1.32078 21.7802 7.39122 21.7802 7.39122C17.2922 12.2752 22.4402 21.5152 22.4402 21.5152C22.0442 19.9312 22.7042 18.0832 23.2322 17.1592C23.4962 16.6312 23.4962 15.9712 23.4962 15.4432C23.2322 13.9912 24.2882 12.6712 24.2882 12.6712C32.2082 17.0272 38.4122 11.8792 38.4122 11.8792C40.3922 13.4632 43.0322 12.6712 43.0322 12.6712C41.9762 17.1592 43.8242 20.5912 43.8242 20.5912C46.2002 14.9152 49.6322 5.54322 35.6402 2.11122Z" fill="#813630"/>
</svg>
