<svg width="34" height="34" viewBox="0 0 34 34" fill="none" xmlns="http://www.w3.org/2000/svg">
<g clip-path="url(#clip0_540_4898)">
<path d="M14.4765 31.289H7.61875C6.5513 31.2857 5.52831 30.8612 4.77214 30.1078C4.01597 29.3543 3.58776 28.3329 3.58059 27.2655V13.6296C3.58271 13.2622 3.66519 12.8998 3.82224 12.5677C3.97929 12.2356 4.2071 11.9419 4.48969 11.7071L5.69695 10.8133C5.91031 10.5856 6.03762 10.2907 6.05696 9.97927C6.07631 9.66784 5.98649 9.35942 5.80295 9.10708C5.61942 8.85474 5.35366 8.67428 5.05142 8.59675C4.74918 8.51923 4.42936 8.54949 4.14703 8.68234L2.90988 9.60605C2.29394 10.0826 1.79326 10.6917 1.44504 11.3883C1.09681 12.0849 0.909989 12.8509 0.898438 13.6296V27.2801C0.902122 29.0613 1.61131 30.7686 2.8708 32.0282C4.13029 33.2878 5.83748 33.9972 7.61875 34.001H14.4765C14.6551 34.005 14.8328 33.9733 14.999 33.9077C15.1651 33.8421 15.3165 33.7439 15.4443 33.619C15.572 33.4941 15.6735 33.3449 15.7428 33.1802C15.8121 33.0155 15.8478 32.8386 15.8478 32.66C15.8478 32.4813 15.8121 32.3044 15.7428 32.1398C15.6735 31.9751 15.572 31.8259 15.4443 31.701C15.3165 31.576 15.1651 31.4779 14.999 31.4123C14.8328 31.3467 14.6551 31.3149 14.4765 31.3189V31.289Z" fill="#FF5C2A"/>
<path d="M33.1014 13.5988C33.0938 12.8256 32.9148 12.0636 32.5773 11.3679C32.2398 10.6722 31.7523 10.0599 31.1498 9.57523L20.8515 1.3641C19.7531 0.481259 18.3862 0 16.977 0C15.5678 0 14.2009 0.481259 13.1025 1.3641L9.83934 3.73347C9.54486 3.94482 9.34641 4.26449 9.28763 4.62215C9.22885 4.97982 9.31456 5.34619 9.5259 5.64066C9.73724 5.93513 10.0569 6.13359 10.4146 6.19237C10.7722 6.25115 11.1386 6.16544 11.4331 5.9541L14.7421 3.48047C15.3719 2.96264 16.162 2.67954 16.9773 2.67954C17.7927 2.67954 18.5828 2.96264 19.2126 3.48047L29.5102 11.6916C29.803 11.9234 30.0404 12.2176 30.2054 12.5526C30.3703 12.8877 30.4586 13.2553 30.4638 13.6287V27.2791C30.4638 27.8075 30.3597 28.3307 30.1575 28.8189C29.9553 29.307 29.6589 29.7506 29.2853 30.1242C28.9117 30.4978 28.4681 30.7942 27.98 30.9964C27.4918 31.1986 26.9686 31.3027 26.4402 31.3027H23.3855C23.2353 31.3027 23.0912 31.243 22.985 31.1368C22.8788 31.0306 22.8191 30.8865 22.8191 30.7362V24.5817C22.8191 23.6397 22.4459 22.7361 21.7812 22.0686C21.1164 21.4011 20.2143 21.0242 19.2723 21.0203H14.8019C14.3342 21.0203 13.871 21.1123 13.4389 21.2913C13.0068 21.4702 12.6141 21.7325 12.2834 22.0633C11.9527 22.394 11.6904 22.7866 11.5114 23.2187C11.3325 23.6509 11.2404 24.114 11.2405 24.5817V26.9365C11.2365 27.1151 11.2683 27.2927 11.3339 27.4589C11.3995 27.6251 11.4976 27.7765 11.6226 27.9042C11.7475 28.032 11.8967 28.1335 12.0614 28.2027C12.226 28.272 12.4029 28.3077 12.5816 28.3077C12.7603 28.3077 12.9371 28.272 13.1018 28.2027C13.2665 28.1335 13.4157 28.032 13.5406 27.9042C13.6655 27.7765 13.7637 27.6251 13.8293 27.4589C13.8949 27.2927 13.9266 27.1151 13.9227 26.9365V24.5817C13.9205 24.467 13.9413 24.353 13.9837 24.2465C14.0262 24.1399 14.0894 24.0428 14.1698 23.961C14.2502 23.8791 14.3461 23.8141 14.4519 23.7697C14.5576 23.7253 14.6712 23.7025 14.7859 23.7025H19.2577C19.4867 23.7025 19.7063 23.7934 19.8682 23.9553C20.0301 24.1172 20.121 24.3368 20.121 24.5658V30.7349C20.1249 31.598 20.4705 32.4244 21.0821 33.0334C21.6938 33.6423 22.5218 33.9842 23.3849 33.9842H26.3632C27.2459 33.9845 28.1201 33.811 28.9357 33.4735C29.7514 33.1359 30.4925 32.641 31.1169 32.0171C31.7413 31.3931 32.2366 30.6522 32.5746 29.8367C32.9126 29.0213 33.0867 28.1473 33.0868 27.2645L33.1014 13.5988Z" fill="#FF5C2A"/>
</g>
<defs>
<clipPath id="clip0_540_4898">
<rect width="34" height="34" fill="white"/>
</clipPath>
</defs>
</svg>
