<svg width="50" height="50" viewBox="0 0 50 50" fill="none" xmlns="http://www.w3.org/2000/svg">
<path d="M14.8905 38.2047C14.6519 38.4689 14.3736 38.6945 14.0657 38.8733C13.9178 38.9579 13.7635 39.0311 13.6043 39.0921L15.736 42.1372L13.5538 42.244C13.3588 42.2535 13.1745 42.3357 13.0371 42.4744L11.3912 44.1351L10.4576 39.9082C9.99616 40.1229 9.49334 40.2342 8.98435 40.2342C8.47537 40.2342 7.97255 40.1229 7.51109 39.9082L6.57747 44.1351L4.93163 42.4744C4.79424 42.3357 4.60991 42.2535 4.41493 42.244L2.23273 42.1372L4.36429 39.0922C4.20535 39.0313 4.05132 38.9584 3.90357 38.8739C3.59549 38.6948 3.31707 38.469 3.07824 38.2046L0.14113 42.4004C0.0610661 42.5148 0.0131398 42.6486 0.00233982 42.7879C-0.00846013 42.9271 0.0182611 43.0667 0.079722 43.1921C0.141183 43.3175 0.235137 43.4242 0.351803 43.501C0.46847 43.5778 0.603585 43.6219 0.743083 43.6287L4.03555 43.7897L6.47638 46.2528C6.57518 46.3526 6.69904 46.4239 6.83493 46.4592C6.97082 46.4945 7.11371 46.4925 7.24857 46.4535C7.38343 46.4144 7.50527 46.3398 7.60129 46.2373C7.6973 46.1349 7.76393 46.0085 7.79417 45.8714L8.98437 40.4831L10.1746 45.8714C10.2048 46.0085 10.2715 46.1349 10.3675 46.2373C10.4635 46.3397 10.5853 46.4144 10.7202 46.4534C10.855 46.4924 10.9979 46.4944 11.1338 46.4591C11.2697 46.4238 11.3935 46.3526 11.4923 46.2528L13.9332 43.7897L17.2256 43.6287C17.3651 43.6219 17.5003 43.5778 17.6169 43.501C17.7336 43.4242 17.8275 43.3175 17.889 43.1921C17.9505 43.0667 17.9772 42.9271 17.9664 42.7879C17.9556 42.6486 17.9077 42.5148 17.8276 42.4004L14.8905 38.2047Z" fill="#FFBF00"/>
<path d="M47.6562 3.51562H2.34375C1.72236 3.5163 1.12661 3.76345 0.687218 4.20284C0.247826 4.64223 0.000678278 5.23798 0 5.85938L0 25.3826C0.0547352 25.2501 0.117936 25.1213 0.189211 24.997C0.52253 24.4382 0.995891 23.9762 1.5625 23.6565V5.85938C1.56271 5.65224 1.64508 5.45364 1.79155 5.30718C1.93802 5.16071 2.13661 5.07833 2.34375 5.07812H47.6562C47.8634 5.07833 48.062 5.16071 48.2084 5.30718C48.3549 5.45364 48.4373 5.65224 48.4375 5.85938V33.2031C48.4373 33.4103 48.3549 33.6089 48.2084 33.7553C48.062 33.9018 47.8634 33.9842 47.6562 33.9844H18.1936C18.1282 34.398 17.9879 34.7961 17.7795 35.1593C17.7001 35.2945 17.6114 35.424 17.5139 35.5469H47.6562C48.2776 35.5462 48.8734 35.299 49.3128 34.8597C49.7522 34.4203 49.9993 33.8245 50 33.2031V5.85938C49.9993 5.23798 49.7522 4.64223 49.3128 4.20284C48.8734 3.76345 48.2776 3.5163 47.6562 3.51562Z" fill="#FFBF00"/>
<path d="M16.3086 14.7351L25 17.1577L33.6914 14.7351L25 11.7632L16.3086 14.7351Z" fill="#FFBF00"/>
<path d="M19.0117 31C18.999 31.0572 18.982 31.1133 18.9609 31.168C18.9298 31.2701 18.8933 31.3705 18.8516 31.4688L18.7813 31.6211C18.7422 31.7109 18.6992 31.7969 18.6563 31.8789C18.5625 32.0508 18.4688 32.207 18.3828 32.3399C18.3633 32.3672 18.3438 32.3945 18.3281 32.4219H41.9922C42.0947 32.4222 42.1963 32.4019 42.2909 32.3624C42.3855 32.3228 42.4712 32.2647 42.543 32.1914L46.6445 28.0899C46.7178 28.0181 46.7759 27.9324 46.8155 27.8378C46.8551 27.7432 46.8753 27.6416 46.875 27.5391V11.5234C46.8753 11.4209 46.8551 11.3193 46.8155 11.2247C46.7759 11.1301 46.7178 11.0444 46.6445 10.9727L42.543 6.8711C42.4712 6.79785 42.3855 6.73972 42.2909 6.70014C42.1963 6.66056 42.0947 6.64032 41.9922 6.64063H8.00782C7.90527 6.64032 7.80371 6.66056 7.70911 6.70014C7.61451 6.73972 7.5288 6.79785 7.45704 6.8711L3.35547 10.9727C3.28223 11.0444 3.2241 11.1301 3.18452 11.2247C3.14494 11.3193 3.1247 11.4209 3.125 11.5234V21.9023C3.17805 21.8447 3.23412 21.79 3.29297 21.7383C3.33985 21.6953 3.38672 21.6523 3.4375 21.6094C3.44872 21.5969 3.46192 21.5863 3.47657 21.5781C3.54092 21.523 3.60877 21.4721 3.67969 21.4258C3.75 21.375 3.82422 21.3281 3.90235 21.2813C4.50569 20.9495 5.18673 20.7849 5.875 20.8047C6.02344 20.8047 6.16797 20.8125 6.30469 20.8164C6.3711 20.8203 6.4375 20.8242 6.4961 20.8242C6.54297 20.7969 6.58594 20.7656 6.62891 20.7383C7.31674 20.2405 8.13604 19.9566 8.98438 19.9219C9.83272 19.9566 10.652 20.2405 11.3398 20.7383C11.3828 20.7656 11.4258 20.7969 11.4727 20.8242C11.5313 20.8242 11.5898 20.8203 11.6523 20.8164C11.7969 20.8125 11.9414 20.8047 12.0938 20.8047C12.782 20.7849 13.4631 20.9495 14.0664 21.2813C14.775 21.7327 15.3358 22.3818 15.6797 23.1484C15.7031 23.1953 15.7305 23.2539 15.7578 23.3047C15.8086 23.332 15.8672 23.3594 15.9102 23.3828C16.5283 23.6698 17.0763 24.0884 17.5156 24.6094H33.9961C34.2033 24.6094 34.402 24.6917 34.5485 24.8382C34.695 24.9847 34.7774 25.1834 34.7774 25.3906C34.7774 25.5978 34.695 25.7965 34.5485 25.9431C34.402 26.0896 34.2033 26.1719 33.9961 26.1719H18.1953C18.256 26.5804 18.273 26.9942 18.2461 27.4063C18.2422 27.4609 18.2383 27.5313 18.2383 27.5938C18.2656 27.6367 18.2969 27.6797 18.3242 27.7227C18.3281 27.7266 18.3281 27.7305 18.332 27.7344H37.1094C37.3166 27.7344 37.5153 27.8167 37.6618 27.9632C37.8083 28.1097 37.8906 28.3084 37.8906 28.5156C37.8906 28.7228 37.8083 28.9215 37.6618 29.0681C37.5153 29.2146 37.3166 29.2969 37.1094 29.2969H19.0508C19.0391 29.25 19.0273 29.2031 19.0117 29.1563C19.0969 29.4562 19.1403 29.7664 19.1406 30.0781C19.1408 30.2799 19.1225 30.4813 19.0859 30.6797C19.1836 30.7422 19.2773 30.8008 19.3711 30.8594H19.0508C19.0391 30.9063 19.0273 30.9531 19.0117 31ZM36.5391 15.5625L33.2031 16.4922V21.0938C33.2039 21.2463 33.1594 21.3956 33.0753 21.5229C32.9911 21.6501 32.8711 21.7496 32.7305 21.8086C32.4411 21.9341 32.1451 22.0437 31.8438 22.1367C31.8086 22.1523 31.7695 22.1641 31.7344 22.1758C29.5434 22.7896 27.2751 23.083 25 23.0469C22.7167 23.0829 20.4403 22.7868 18.2422 22.168C17.9108 22.0648 17.5848 21.9449 17.2656 21.8086C17.1265 21.7478 17.0081 21.6479 16.9249 21.5209C16.8417 21.394 16.7972 21.2456 16.7969 21.0938V16.4922L14.4531 15.8398V18.75C14.4531 18.9572 14.3708 19.1559 14.2243 19.3024C14.0778 19.4489 13.8791 19.5313 13.6719 19.5313C13.4647 19.5313 13.266 19.4489 13.1195 19.3024C12.9729 19.1559 12.8906 18.9572 12.8906 18.75V14.832C12.8923 14.8256 12.8936 14.8191 12.8945 14.8125C12.895 14.7624 12.9016 14.7126 12.9141 14.6641C12.9387 14.5296 12.9982 14.404 13.0867 14.2998C13.1751 14.1957 13.2893 14.1165 13.418 14.0703L24.7461 10.1992C24.9103 10.1406 25.0897 10.1406 25.2539 10.1992L36.582 14.0703C36.7397 14.1245 36.8759 14.2277 36.9707 14.3647C37.0656 14.5018 37.1142 14.6656 37.1094 14.8322C37.1046 14.9988 37.0466 15.1596 36.9441 15.2909C36.8415 15.4223 36.6996 15.5175 36.5391 15.5625Z" fill="#FFBF00"/>
<path d="M25 18.75C24.9291 18.75 24.8585 18.7403 24.7902 18.7214L18.3594 16.9287V20.5598C18.471 20.5991 18.5876 20.6378 18.7094 20.6758C20.756 21.2486 22.875 21.521 25 21.4843C27.1244 21.521 29.2428 21.2488 31.2889 20.6764C31.2874 20.677 31.2609 20.6884 31.2366 20.7002C31.2721 20.6829 31.3088 20.6683 31.3465 20.6565C31.4472 20.6251 31.5453 20.5925 31.6406 20.5589V16.9287L25.2098 18.7214C25.1415 18.7403 25.0709 18.75 25 18.75Z" fill="#FFBF00"/>
<path d="M0.962828 28.5637C0.628542 29.0019 0.429651 29.5283 0.390625 30.0781C0.429651 30.6279 0.628542 31.1543 0.962828 31.5926C1.08536 31.7642 1.1859 31.9504 1.26211 32.147C1.29785 32.3667 1.30547 32.5901 1.28479 32.8117C1.21744 33.3471 1.30654 33.8905 1.54133 34.3763C1.84737 34.8261 2.27749 35.1773 2.77939 35.3872C2.97757 35.4775 3.16344 35.5927 3.33251 35.73C3.46971 35.899 3.58483 36.0848 3.67509 36.2829C3.88499 36.7848 4.23611 37.2149 4.68579 37.521C5.1716 37.756 5.71513 37.8452 6.25058 37.7777C6.47229 37.7572 6.69569 37.7648 6.91548 37.8004C7.11208 37.8766 7.29835 37.9771 7.46995 38.0997C7.90819 38.4339 8.43458 38.6328 8.98438 38.6719C9.53418 38.6328 10.0606 38.434 10.4988 38.0997C10.6704 37.9771 10.8567 37.8766 11.0533 37.8004C11.273 37.7646 11.4964 37.7569 11.718 37.7777C12.2534 37.845 12.7968 37.7559 13.2826 37.5212C13.7324 37.2151 14.0836 36.785 14.2935 36.2831C14.3838 36.0849 14.499 35.8991 14.6362 35.73C14.8053 35.5928 14.9911 35.4777 15.1892 35.3874C15.691 35.1775 16.1211 34.8264 16.4272 34.3767C16.6622 33.8909 16.7514 33.3474 16.684 32.8119C16.6632 32.5902 16.6708 32.3668 16.7067 32.147C16.7829 31.9504 16.8834 31.7641 17.0059 31.5926C17.3402 31.1543 17.5391 30.6279 17.5781 30.0781C17.5391 29.5283 17.3402 29.0019 17.0059 28.5637C16.8834 28.3921 16.7829 28.2058 16.7067 28.0092C16.6709 27.7895 16.6633 27.5661 16.684 27.3445C16.7513 26.8091 16.6622 26.2657 16.4274 25.7799C16.1214 25.3301 15.6913 24.9789 15.1894 24.769C14.9912 24.6787 14.8053 24.5635 14.6362 24.4263C14.499 24.2572 14.3839 24.0714 14.2937 23.8733C14.0838 23.3715 13.7326 22.9414 13.283 22.6353C12.797 22.4005 12.2536 22.3114 11.7182 22.3785C11.4965 22.3992 11.273 22.3916 11.0533 22.3558C10.8567 22.2796 10.6704 22.1791 10.4988 22.0566C10.0606 21.7223 9.53417 21.5234 8.98438 21.4844C8.43457 21.5234 7.90817 21.7223 7.46992 22.0566C7.29833 22.1791 7.11205 22.2796 6.91546 22.3558C6.69576 22.3917 6.47238 22.3993 6.25075 22.3785C5.71539 22.3116 5.1721 22.4007 4.68615 22.6351C4.23636 22.9411 3.88517 23.3712 3.67525 23.8731C3.58496 24.0713 3.46978 24.2572 3.3325 24.4263C3.16348 24.5635 2.97767 24.6786 2.77956 24.7688C2.27771 24.9787 1.84761 25.3299 1.5415 25.7795C1.30656 26.2654 1.21738 26.8089 1.28477 27.3443C1.30555 27.566 1.29793 27.7895 1.26211 28.0092C1.1859 28.2058 1.08536 28.3921 0.962828 28.5637ZM2.28062 29.4031C2.49428 29.1002 2.65989 28.7661 2.77157 28.4126C2.8539 28.0416 2.87905 27.6601 2.84615 27.2814C2.81416 27.0408 2.83037 26.7963 2.89383 26.5621C3.06698 26.3864 3.27396 26.2476 3.50227 26.1541C3.84413 25.9957 4.15955 25.7856 4.43743 25.5312C4.69195 25.2533 4.90213 24.9378 5.06056 24.5958C5.15397 24.3675 5.29276 24.1606 5.46854 23.9876C5.70274 23.9244 5.9471 23.9082 6.18761 23.9397C6.56621 23.9729 6.94767 23.9478 7.31867 23.8653C7.67222 23.7537 8.0064 23.5881 8.30937 23.3744C8.50895 23.2191 8.73892 23.1076 8.98438 23.0469C9.22983 23.1076 9.4598 23.2191 9.65938 23.3744C9.96229 23.588 10.2964 23.7536 10.6499 23.8653C11.0209 23.9476 11.4024 23.9728 11.7811 23.9399C12.0217 23.9079 12.2662 23.9241 12.5004 23.9876C12.6761 24.1607 12.8149 24.3677 12.9084 24.596C13.0667 24.9379 13.2769 25.2533 13.5313 25.5312C13.8092 25.7857 14.1247 25.9959 14.4667 26.1543C14.6949 26.2477 14.9019 26.3865 15.0749 26.5623C15.1384 26.7964 15.1546 27.0409 15.1228 27.2814C15.0898 27.66 15.1149 28.0414 15.1972 28.4124C15.3088 28.766 15.4744 29.1002 15.6881 29.4031C15.8434 29.6027 15.9549 29.8327 16.0156 30.0781C15.9549 30.3236 15.8434 30.5535 15.6881 30.7531C15.4745 31.056 15.3089 31.3901 15.1972 31.7436C15.1149 32.1147 15.0897 32.4962 15.1226 32.8749C15.1546 33.1154 15.1384 33.3599 15.0749 33.5941C14.9018 33.7699 14.6948 33.9087 14.4665 34.0021C14.1246 34.1605 13.8092 34.3706 13.5313 34.6251C13.2768 34.903 13.0666 35.2185 12.9082 35.5604C12.8148 35.7887 12.676 35.9956 12.5002 36.1687C12.2661 36.2321 12.0216 36.2483 11.7811 36.2166C11.4025 36.1841 11.0212 36.2092 10.6501 36.2909C10.2965 36.4026 9.96235 36.5682 9.65938 36.7819C9.4598 36.9371 9.22983 37.0487 8.98438 37.1094C8.73892 37.0487 8.50895 36.9371 8.30937 36.7819C8.00646 36.5682 7.67236 36.4026 7.31889 36.2909C7.07476 36.2302 6.8237 36.2017 6.57216 36.2062C6.4396 36.2062 6.31067 36.2114 6.18764 36.2164C5.94709 36.2483 5.70259 36.2321 5.46836 36.1687C5.29263 35.9955 5.15384 35.7885 5.06038 35.5602C4.90199 35.2184 4.69188 34.903 4.43744 34.6251C4.15951 34.3706 3.84402 34.1604 3.50207 34.0019C3.27379 33.9085 3.06686 33.7697 2.89383 33.5939C2.83037 33.3598 2.8141 33.1154 2.84595 32.8749C2.87892 32.4963 2.85383 32.1148 2.77157 31.7438C2.65993 31.3903 2.49432 31.0561 2.28062 30.7531C2.12538 30.5535 2.0138 30.3236 1.95312 30.0781C2.0138 29.8327 2.12538 29.6027 2.28062 29.4031Z" fill="#FFBF00"/>
<path d="M8.98438 34.7656C9.91148 34.7656 10.8178 34.4907 11.5886 33.9756C12.3595 33.4606 12.9603 32.7285 13.3151 31.872C13.6698 31.0154 13.7627 30.0729 13.5818 29.1636C13.4009 28.2544 12.9545 27.4191 12.2989 26.7636C11.6434 26.108 10.8081 25.6616 9.89886 25.4807C8.98957 25.2998 8.04708 25.3927 7.19055 25.7474C6.33402 26.1022 5.60193 26.703 5.08686 27.4739C4.57179 28.2447 4.29688 29.151 4.29688 30.0781C4.2983 31.3209 4.79261 32.5124 5.67138 33.3911C6.55015 34.2699 7.74161 34.7642 8.98438 34.7656Z" fill="#FFBF00"/>
</svg>
