<svg width="40" height="40" viewBox="0 0 40 40" fill="none" xmlns="http://www.w3.org/2000/svg">
<path d="M20.002 18.6364C21.2875 18.6364 22.5442 18.2365 23.6132 17.4873C24.6821 16.7381 25.5152 15.6732 26.0072 14.4274C26.4991 13.1815 26.6279 11.8106 26.3771 10.488C26.1263 9.16543 25.5072 7.95054 24.5982 6.997C23.6891 6.04346 22.5309 5.39409 21.27 5.13101C20.0092 4.86793 18.7022 5.00295 17.5145 5.51901C16.3268 6.03506 15.3116 6.90896 14.5974 8.03021C13.8832 9.15145 13.502 10.4697 13.502 11.8182C13.504 13.6258 14.1895 15.3588 15.408 16.637C16.6265 17.9152 18.2787 18.6342 20.002 18.6364ZM20.002 7.72728C20.7733 7.72728 21.5273 7.9672 22.1687 8.41672C22.81 8.86623 23.3099 9.50515 23.6051 10.2527C23.9003 11.0002 23.9775 11.8227 23.827 12.6163C23.6765 13.4098 23.3051 14.1388 22.7597 14.7109C22.2142 15.283 21.5193 15.6726 20.7628 15.8305C20.0063 15.9883 19.2221 15.9073 18.5095 15.5977C17.7969 15.2881 17.1878 14.7637 16.7592 14.091C16.3307 13.4182 16.102 12.6273 16.102 11.8182C16.1031 10.7336 16.5143 9.69373 17.2455 8.92679C17.9766 8.15985 18.968 7.72847 20.002 7.72728Z" fill="#743EF9"/>
<path d="M22.6 20H17.4C14.6427 20.0033 11.9993 21.1537 10.0496 23.1989C8.09989 25.244 7.00317 28.0168 7 30.9091V33.6364C7 33.998 7.13696 34.3449 7.38076 34.6006C7.62456 34.8563 7.95522 35 8.3 35H31.7C32.0448 35 32.3754 34.8563 32.6192 34.6006C32.863 34.3449 33 33.998 33 33.6364V30.9091C32.9968 28.0168 31.9001 25.244 29.9504 23.1989C28.0007 21.1537 25.3573 20.0033 22.6 20ZM20.363 22.7273L22.4128 29.1773L20 31.708L17.5872 29.1773L19.637 22.7273H20.363ZM9.6 30.9091C9.60315 28.8341 10.3575 26.8378 11.7103 25.324C13.0632 23.8101 14.9137 22.8917 16.8875 22.7545L14.8667 29.114C14.7903 29.3543 14.7793 29.6121 14.8348 29.8586C14.8903 30.1051 15.0101 30.3305 15.1809 30.5095L16.8617 32.2727H9.6V30.9091ZM30.4 32.2727H23.1383L24.8191 30.5095C24.9899 30.3305 25.1097 30.1051 25.1652 29.8586C25.2207 29.6121 25.2097 29.3543 25.1333 29.114L23.1125 22.7545C25.0863 22.8917 26.9368 23.8101 28.2897 25.324C29.6425 26.8378 30.3968 28.8341 30.4 30.9091V32.2727Z" fill="#743EF9"/>
</svg>
