<svg width="40" height="40" viewBox="0 0 40 40" fill="none" xmlns="http://www.w3.org/2000/svg">
<path fill-rule="evenodd" clip-rule="evenodd" d="M3.55634 17.2595C2.61301 16.7378 2.08301 15.8245 2.08301 14.8695C2.08301 13.9128 2.61301 12.9995 3.55634 12.4795L17.413 4.82117C18.9863 3.95284 21.013 3.95284 22.5863 4.82117L36.443 12.4795C37.3863 12.9995 37.9163 13.9128 37.9163 14.8695C37.9163 15.8245 37.3863 16.7378 36.443 17.2595L22.5863 24.9162C21.013 25.7862 18.9863 25.7862 17.413 24.9162L3.55634 17.2595ZM4.76467 15.0712L18.6213 22.7278C19.4597 23.1912 20.5397 23.1912 21.378 22.7278L35.2347 15.0712C35.3263 15.0212 35.4163 14.9612 35.4163 14.8695C35.4163 14.7762 35.3263 14.7178 35.2347 14.6662L21.378 7.00951C20.5397 6.54617 19.4597 6.54617 18.6213 7.00951L4.76467 14.6662C4.67301 14.7178 4.58301 14.7762 4.58301 14.8695C4.58301 14.9612 4.67301 15.0212 4.76467 15.0712Z" fill="#FF5C2A"/>
<path fill-rule="evenodd" clip-rule="evenodd" d="M30.4163 18.75C30.4163 18.06 30.9763 17.5 31.6663 17.5C32.3563 17.5 32.9163 18.06 32.9163 18.75V26.25C32.9163 29.7017 30.118 32.5 26.6663 32.5H13.333C9.88134 32.5 7.08301 29.7017 7.08301 26.25V18.75C7.08301 18.06 7.64301 17.5 8.33301 17.5C9.02301 17.5 9.58301 18.06 9.58301 18.75V26.25C9.58301 28.3217 11.2613 30 13.333 30H26.6663C28.738 30 30.4163 28.3217 30.4163 26.25V18.75Z" fill="#FF5C2A"/>
<path fill-rule="evenodd" clip-rule="evenodd" d="M19.1163 16.2989C18.6279 15.8123 18.6279 15.0189 19.1163 14.5323C19.6029 14.0439 20.3962 14.0439 20.8829 14.5323L26.7163 20.3656C26.9513 20.5989 27.0829 20.9173 27.0829 21.2489V34.5823C27.0829 35.2723 26.5229 35.8323 25.8329 35.8323C25.1429 35.8323 24.5829 35.2723 24.5829 34.5823V21.7673L19.1163 16.2989Z" fill="#FF5C2A"/>
</svg>
