<svg width="72" height="72" viewBox="0 0 72 72" fill="none" xmlns="http://www.w3.org/2000/svg">
<path d="M65.5589 19.5984C63.7065 19.9019 62.5096 21.7375 62.5096 24.2751V37.5308C62.5096 38.2859 62.3612 39.0301 62.0938 39.7279C61.9088 39.1242 61.5996 38.5627 61.1468 38.0964C59.5792 36.4803 57.0197 36.4726 55.435 38.0117L44.8659 48.2741C43.5009 49.6001 42.7184 51.4503 42.7184 53.3525V58.9577C41.3714 58.9989 40.2866 60.1012 40.2866 61.458V66.8017C40.2866 67.2501 40.6503 67.6137 41.0986 67.6137H61.4754C61.9237 67.6137 62.2874 67.2501 62.2874 66.8017V61.458C62.2874 60.083 61.1746 58.9651 59.8027 58.9523C59.8511 58.5821 59.5785 57.4919 60.5154 56.5551L68.4866 48.5828C69.7047 47.3658 70.376 45.7471 70.376 44.0236V24.2751C70.3762 20.8255 68.2841 19.1552 65.5589 19.5984ZM60.6635 61.4583V65.9901H41.9107V61.4583C41.9107 60.9709 42.3073 60.5743 42.7947 60.5743H59.7796C60.267 60.5743 60.6635 60.9707 60.6635 61.4583ZM68.7521 44.0239C68.7521 45.3127 68.2499 46.5233 67.3384 47.4349L59.3672 55.4072C57.8833 56.8911 58.2269 58.6341 58.1788 58.9502H44.3425V53.3526C44.3425 51.8872 44.9452 50.4608 45.9973 49.4395L56.5664 39.1771C57.5133 38.2582 59.0426 38.2602 59.9816 39.2278C60.9174 40.1924 60.8847 41.7185 59.9319 42.6431L54.8905 47.5385C54.5691 47.8515 54.5617 48.3654 54.8737 48.6867C55.1877 49.0092 55.7015 49.0166 56.0219 48.7036L61.0633 43.8081C61.0641 43.8073 61.0645 43.8066 61.0654 43.8058C61.0654 43.8058 61.0661 43.8052 61.0665 43.8049C61.2749 43.5194 64.1338 41.4856 64.1338 37.5306V24.2749C64.1338 22.6022 64.8116 21.3662 65.8213 21.2013C67.8704 20.8684 68.7522 22.2242 68.7522 24.2749V44.0239H68.7521Z" fill="#1882FF"/>
<path d="M52.3415 29.9403C55.4923 29.9403 58.0554 27.3772 58.0554 24.2264C58.0554 20.9992 55.4324 18.502 52.3415 18.502C52.2325 18.502 51.1785 18.502 51.2876 18.502C50.4585 16.6796 50.4589 14.8932 51.2874 13.0705H51.8995C52.3478 13.0705 52.7115 12.7068 52.7115 12.2585C52.7115 11.8102 52.3478 11.4465 51.8995 11.4465C50.8497 11.4462 44.3496 11.4443 44.7565 11.4444C45.3603 10.6991 45.7373 9.7631 45.7373 8.73134C45.7373 6.27673 43.7406 4.38574 41.4002 4.38574C32.4394 4.38574 22.0074 4.38771 15.5432 4.38898C15.0948 4.38898 14.7312 4.75263 14.7312 5.20095C14.7312 5.64926 15.0948 6.01291 15.5432 6.01291H16.1552C16.9829 7.8357 16.9825 9.62163 16.1538 11.4444H15.5433C15.095 11.4444 14.7313 11.8081 14.7313 12.2564C14.7313 12.7047 15.095 13.0684 15.5433 13.0684C16.3516 13.0684 22.9047 13.0684 22.6858 13.0684C22.0623 13.837 21.7055 14.7798 21.7055 15.7889C21.7055 16.8206 22.0825 17.7566 22.6863 18.502C22.5734 18.502 14.6484 18.5062 14.7578 18.5062C14.3095 18.5062 13.9458 18.8698 13.9458 19.3181C13.9458 19.7665 14.3095 20.1301 14.7578 20.1301H15.8102C17.1183 22.8792 17.1176 25.5668 15.8082 28.316H14.7578C14.3095 28.316 13.9458 28.6797 13.9458 29.128C13.9458 29.5763 14.3095 29.94 14.7578 29.94C24.3774 29.9403 42.7666 29.9403 52.3415 29.9403ZM51.8995 20.126C54.6663 20.5909 56.4313 21.4324 56.4313 24.2264C56.4313 26.4817 54.5968 28.3162 52.3415 28.3162H39.5277C40.6063 27.2626 41.2555 25.7956 41.2555 24.2264C41.2555 22.7228 40.7027 21.2998 39.5289 20.126H51.8995ZM34.4875 6.00968H41.4003C42.8541 6.00968 44.1134 7.18334 44.1134 8.7312C44.1134 10.2273 42.8964 11.4443 41.4003 11.4443C41.052 11.4443 34.2286 11.4443 34.4853 11.4443C35.028 10.7687 35.4412 9.73329 35.4412 8.7312C35.4412 7.71265 35.0318 6.68637 34.4875 6.00968ZM36.3388 13.0684H49.5227C48.8661 14.8754 48.8661 16.6949 49.5227 18.502H36.3599H36.3493H36.3388C34.8427 18.502 33.6246 17.285 33.6246 15.7889C33.6246 14.244 34.8794 13.0684 36.3388 13.0684ZM17.9201 11.4443C18.5767 9.63626 18.5767 7.8177 17.9201 6.00954H31.104C32.5648 6.00954 33.8171 7.18657 33.8171 8.73105C33.8171 10.2272 32.6001 11.4441 31.104 11.4441H26.0426L17.9201 11.4443ZM32.9563 18.502H26.0425C24.5464 18.502 23.3294 17.285 23.3294 15.7889C23.3294 14.2381 24.5906 13.0684 26.0425 13.0684C26.3966 13.0684 33.2158 13.0684 32.9542 13.0684C32.3993 13.7567 32.0005 14.7779 32.0005 15.7889C32.0005 16.7925 32.4158 17.8294 32.9563 18.502ZM17.5987 20.126H35.5416C37.741 20.126 39.6314 21.9009 39.6314 24.2264C39.6314 26.4817 37.7969 28.3162 35.5416 28.3162H17.5987C18.7036 25.5935 18.7036 22.8487 17.5987 20.126Z" fill="#1882FF"/>
<path d="M9.71291 61.4585V66.8022C9.71291 67.2505 10.0766 67.6142 10.5249 67.6142H30.9017C31.35 67.6142 31.7137 67.2505 31.7137 66.8022V61.4585C31.7137 60.1012 30.6284 58.9988 29.2807 58.9582V53.353C29.2807 51.4498 28.4983 49.5994 27.1333 48.2746L16.5653 38.0122C14.9676 36.4611 12.4036 36.4992 10.8525 38.0969C10.3999 38.5629 10.0906 39.1243 9.90557 39.7281C9.63782 39.0303 9.4896 38.2862 9.4896 37.5313V24.2755C9.4896 21.738 8.29274 19.9024 6.44127 19.5989C3.72173 19.1585 1.62402 20.8184 1.62402 24.2755V44.0241C1.62402 45.7476 2.29438 47.3673 3.51248 48.5833L11.4848 56.5556C12.4288 57.4996 12.1508 58.5956 12.1975 58.9527C10.8261 58.9649 9.71291 60.0832 9.71291 61.4585ZM4.66096 47.4351C3.74957 46.5247 3.24838 45.314 3.24838 44.0241V24.2753C3.24838 22.1913 4.15499 20.8716 6.17929 21.2016C7.18799 21.3666 7.86566 22.6025 7.86566 24.2753V37.531C7.86566 39.6034 8.71476 41.626 10.1939 43.0809L10.934 43.8062C10.9349 43.8071 10.9361 43.8074 10.9371 43.8082L10.9372 43.8084L15.9775 48.7038C16.2989 49.0168 16.8128 49.0094 17.1257 48.6869C17.4376 48.3654 17.4301 47.8516 17.1088 47.5387L12.0736 42.6483C12.0727 42.6474 12.0725 42.6462 12.0716 42.6454L12.0636 42.6375C11.6039 42.1886 11.3451 41.5886 11.3357 40.9464C11.3262 40.3015 11.5683 39.6913 12.0178 39.2282C12.945 38.2735 14.4793 38.2502 15.434 39.1774L26.0019 49.4398C27.0539 50.4602 27.6567 51.8864 27.6567 53.353V58.9506H13.8217C13.7736 58.6342 14.1173 56.8915 12.6333 55.4075L4.66096 47.4351ZM12.2198 60.5745H29.2058C29.6932 60.5745 30.0898 60.9711 30.0898 61.4585V65.9903H11.337V61.4585C11.337 60.9709 11.7334 60.5745 12.2198 60.5745Z" fill="#1882FF"/>
</svg>
