<svg width="60" height="60" viewBox="0 0 60 60" fill="none" xmlns="http://www.w3.org/2000/svg">
<path d="M29.9996 47.4727C20.3648 47.4727 12.5264 39.6342 12.5264 29.9997C12.5264 20.3653 20.3648 12.5269 29.9996 12.5269C39.6337 12.5269 47.4722 20.3653 47.4722 29.9997C47.4722 39.6342 39.6337 47.4727 29.9996 47.4727ZM29.9996 14.3031C21.3445 14.3031 14.3026 21.3446 14.3026 29.9997C14.3026 38.6548 21.3445 45.6964 29.9996 45.6964C38.6547 45.6964 45.6959 38.6548 45.6959 29.9997C45.6959 21.3446 38.6547 14.3031 29.9996 14.3031Z" fill="#743EF9"/>
<path d="M30.0002 47.4727C24.5437 47.4727 20.2695 39.7976 20.2695 29.9997C20.2695 20.2018 24.5437 12.5269 30.0002 12.5269C35.4559 12.5269 39.73 20.2018 39.73 29.9997C39.73 39.7976 35.4559 47.4727 30.0002 47.4727ZM30.0002 14.3031C25.6886 14.3031 22.0458 21.4914 22.0458 29.9997C22.0458 38.5081 25.6886 45.6964 30.0002 45.6964C34.3118 45.6964 37.9537 38.5081 37.9537 29.9997C37.9537 21.4914 34.3118 14.3031 30.0002 14.3031Z" fill="#743EF9"/>
<path d="M29.9996 39.7301C20.2017 39.7301 12.5264 35.456 12.5264 29.9999C12.5264 24.5438 20.2017 20.27 29.9996 20.27C39.7975 20.27 47.4722 24.5438 47.4722 29.9999C47.4722 35.456 39.7975 39.7301 29.9996 39.7301ZM29.9996 22.0463C21.4909 22.0463 14.3026 25.6886 14.3026 29.9999C14.3026 34.3115 21.4909 37.9539 29.9996 37.9539C38.5076 37.9539 45.6959 34.3115 45.6959 29.9999C45.6959 25.6886 38.5076 22.0463 29.9996 22.0463Z" fill="#743EF9"/>
<path d="M30.0005 47.4726C29.5099 47.4726 29.1123 47.0749 29.1123 46.5844V38.8417C29.1123 38.3512 29.5099 37.9536 30.0005 37.9536C30.491 37.9536 30.8886 38.3512 30.8886 38.8417V46.5844C30.8886 47.0749 30.491 47.4726 30.0005 47.4726Z" fill="#743EF9"/>
<path d="M30.0005 25.9522C29.5099 25.9522 29.1123 25.5546 29.1123 25.064V13.415C29.1123 12.9244 29.5099 12.5269 30.0005 12.5269C30.491 12.5269 30.8886 12.9244 30.8886 13.415V25.064C30.8886 25.5546 30.491 25.9522 30.0005 25.9522Z" fill="#743EF9"/>
<path d="M46.5847 30.888H34.7358C34.2453 30.888 33.8477 30.4905 33.8477 29.9999C33.8477 29.5094 34.2453 29.1118 34.7358 29.1118H46.5847C47.0752 29.1118 47.4729 29.5094 47.4729 29.9999C47.4729 30.4905 47.0752 30.888 46.5847 30.888Z" fill="#743EF9"/>
<path d="M25.1482 30.888H13.4145C12.9239 30.888 12.5264 30.4905 12.5264 29.9999C12.5264 29.5094 12.9239 29.1118 13.4145 29.1118H25.1482C25.6387 29.1118 26.0364 29.5094 26.0364 29.9999C26.0364 30.4905 25.6387 30.888 25.1482 30.888Z" fill="#743EF9"/>
<path d="M47.5077 19.3124C46.9783 19.3124 46.4482 19.1445 45.9861 18.8087C45.0611 18.137 44.692 17.0005 45.0452 15.9135L45.2444 15.3012C45.3533 14.9657 45.2339 14.6004 44.9481 14.3926L44.4283 14.0145C43.5035 13.3428 43.1343 12.2067 43.4875 11.1197C43.8407 10.0328 44.8073 9.33033 45.95 9.33033H46.5932C46.9463 9.33033 47.2573 9.10443 47.3669 8.76863L47.5659 8.15594C47.9191 7.06967 48.8857 6.36719 50.0278 6.36719C51.1706 6.36719 52.1371 7.06967 52.4902 8.15658L52.6894 8.76758C52.799 9.10442 53.1098 9.33032 53.463 9.33032H54.1062C55.249 9.33032 56.2155 10.0328 56.5687 11.1197C56.9218 12.2067 56.5527 13.3428 55.6278 14.0145L55.1075 14.3926C54.8223 14.6004 54.7029 14.9657 54.8119 15.3016L55.011 15.9131C55.3642 17.0004 54.995 18.137 54.0701 18.8087C53.1445 19.4807 51.9498 19.4796 51.0269 18.8087L50.5065 18.4305C50.22 18.2224 49.8349 18.223 49.5497 18.4305L49.0294 18.8087C48.5672 19.1445 48.0378 19.3124 47.5077 19.3124ZM45.95 11.1066C45.4019 11.1066 45.2194 11.5367 45.1764 11.6685C45.134 11.8004 45.0286 12.2552 45.472 12.5776L45.9923 12.9557C46.9027 13.6173 47.2808 14.7805 46.9332 15.8504L46.7341 16.4627C46.5648 16.9838 46.9179 17.2902 47.0297 17.3716C47.142 17.4528 47.5417 17.694 47.9858 17.3716L48.5062 16.9935C49.4158 16.3323 50.6391 16.3316 51.5501 16.9935L52.0704 17.3716C52.5146 17.694 52.9135 17.4528 53.0266 17.3716C53.1383 17.2902 53.4915 16.9838 53.3222 16.4623L53.123 15.8508C52.7755 14.7805 53.1536 13.6173 54.0632 12.9557L54.5843 12.5776C55.0277 12.2552 54.9222 11.8004 54.8799 11.6685C54.8369 11.5368 54.6544 11.1066 54.1062 11.1066H53.4631C52.3376 11.1066 51.3475 10.3873 51.0005 9.31679L50.8014 8.70615C50.6314 8.18402 50.1665 8.14343 50.0278 8.14343C49.8898 8.14343 49.4241 8.18402 49.2548 8.70551L49.0557 9.31781C48.7088 10.3873 47.7186 11.1066 46.5932 11.1066H45.95Z" fill="#743EF9"/>
<path d="M27.8361 35.6837C27.3559 35.6837 26.8758 35.5314 26.456 35.2267C25.6171 34.6175 25.282 33.5868 25.6025 32.6005L25.7732 32.0753C25.8502 31.8387 25.7663 31.5816 25.5644 31.4352L25.1183 31.1112C24.2794 30.5016 23.9449 29.4709 24.2655 28.485C24.5854 27.499 25.4624 26.8621 26.499 26.8621H27.0512C27.2997 26.8621 27.5189 26.7032 27.5959 26.4666L27.7666 25.9413C28.0865 24.9556 28.9628 24.3184 29.9994 24.3184C31.0361 24.3184 31.9132 24.955 32.2337 25.941L32.4043 26.4666C32.4814 26.7035 32.6999 26.8621 32.949 26.8621H33.5014C34.538 26.8621 35.415 27.499 35.7349 28.485C36.0554 29.4709 35.7203 30.5016 34.8814 31.1108L34.4346 31.4356C34.2334 31.5816 34.1494 31.8386 34.2264 32.0749L34.3971 32.6005C34.7176 33.5868 34.3825 34.6175 33.5436 35.2267C32.7062 35.8353 31.6224 35.8363 30.7836 35.2264L30.3366 34.9023C30.1354 34.7563 29.8641 34.756 29.663 34.9021L29.2161 35.2267C28.7971 35.5314 28.3169 35.6837 27.8361 35.6837ZM26.499 28.6383C26.1236 28.6383 25.9931 28.9152 25.9543 29.0341C25.9162 29.1528 25.8585 29.4532 26.1624 29.6739L26.6086 29.9979C27.435 30.5988 27.7778 31.6541 27.4621 32.6245L27.2914 33.1494C27.1755 33.5067 27.3989 33.7163 27.4995 33.7898C27.6015 33.8627 27.8694 34.0111 28.1719 33.7894L28.6195 33.4647C29.4458 32.8652 30.5552 32.8656 31.3803 33.4651L31.8271 33.7891C32.1303 34.0094 32.3982 33.8637 32.5001 33.7898C32.6014 33.7163 32.8241 33.5067 32.7082 33.1494L32.5376 32.6241C32.2219 31.6541 32.5646 30.5988 33.3903 29.9983L33.8378 29.6735C34.1411 29.4532 34.0842 29.1528 34.046 29.0338C34.0071 28.9148 33.8767 28.6383 33.5014 28.6383H32.949C31.9277 28.6383 31.0299 27.9858 30.7148 27.0147L30.5449 26.4901C30.4283 26.1331 30.125 26.0947 29.9994 26.0947C29.8745 26.0947 29.5714 26.1331 29.4555 26.4901L29.2848 27.0154C28.9698 27.986 28.072 28.6383 27.0512 28.6383H26.499Z" fill="#743EF9"/>
<path d="M12.4919 53.6337C11.9624 53.6337 11.4323 53.4657 10.9703 53.1299L10.4499 52.7518C10.1639 52.5436 9.78025 52.5436 9.49439 52.7518L8.97338 53.1299C8.04911 53.8016 6.85294 53.8019 5.92877 53.1296C5.0045 52.4579 4.63541 51.3218 4.98853 50.2351L5.18767 49.6228C5.29664 49.287 5.17804 48.9217 4.89208 48.7139L4.37173 48.3357C3.44681 47.6641 3.07769 46.5279 3.43091 45.441C3.78401 44.3541 4.75055 43.6515 5.89333 43.6515H6.5365C6.8897 43.6515 7.20055 43.4257 7.31017 43.0899L7.50932 42.4775C7.86251 41.391 8.82907 40.6885 9.97183 40.6885C11.1146 40.6885 12.0811 41.391 12.4343 42.4779L12.6334 43.0902C12.7424 43.4257 13.0532 43.6515 13.4064 43.6515H14.0496C15.1924 43.6515 16.1596 44.3537 16.5128 45.4407C16.8659 46.5276 16.4968 47.6641 15.5719 48.3357L15.0508 48.7142C14.7656 48.9217 14.647 49.287 14.7559 49.6225L14.9551 50.2355C15.3075 51.322 14.9384 52.4583 14.0141 53.1299C13.552 53.4657 13.0219 53.6337 12.4919 53.6337ZM9.97181 50.8183C10.5054 50.8183 11.0389 50.9838 11.4941 51.3147L12.0138 51.6929C12.4578 52.0149 12.8582 51.7745 12.9699 51.6929C13.0823 51.6114 13.4348 51.3054 13.2655 50.784L13.0664 50.1717C12.7188 49.1024 13.0962 47.9388 14.0066 47.2769L14.5283 46.8985C14.9717 46.5765 14.8662 46.1216 14.8232 45.9898C14.7802 45.858 14.5977 45.4278 14.0496 45.4278H13.4064C12.2809 45.4278 11.2908 44.7086 10.9439 43.6387L10.7448 43.0264C10.5762 42.5053 10.1106 42.4647 9.97183 42.4647C9.83302 42.4647 9.36748 42.5053 9.19816 43.0268L8.99902 43.6391C8.65207 44.7086 7.66196 45.4278 6.5365 45.4278H5.89331C5.34518 45.4278 5.16268 45.858 5.11964 45.9898C5.07737 46.1216 4.97185 46.5765 5.41523 46.8987L5.93569 47.2769C6.84602 47.9378 7.2241 49.1014 6.87652 50.1717L6.67736 50.7844C6.50806 51.3051 6.86062 51.6114 6.97295 51.6926C7.08604 51.7741 7.48369 52.0167 7.92977 51.6929L8.45024 51.3148C8.90462 50.9838 9.43817 50.8183 9.97181 50.8183Z" fill="#743EF9"/>
<path d="M47.7728 50.0178C47.5349 50.0178 47.2969 49.9224 47.1221 49.734C46.7883 49.3749 46.8091 48.8129 47.1686 48.4788C47.5036 48.1677 47.8305 47.8468 48.1482 47.5179C48.4896 47.1654 49.0516 47.1557 49.4034 47.4964C49.7566 47.8374 49.7664 48.3994 49.4249 48.7522C49.0849 49.104 48.7359 49.4471 48.3772 49.7805C48.2065 49.939 47.9894 50.0178 47.7728 50.0178Z" fill="#743EF9"/>
<path d="M51.8533 45.1839C51.686 45.1839 51.5168 45.1371 51.3669 45.0386C50.9568 44.7693 50.8423 44.2187 51.1116 43.8087C51.5452 43.1474 51.9511 42.4591 52.3188 41.7628C52.5478 41.3289 53.0862 41.1647 53.5192 41.392C53.9528 41.6209 54.1187 42.1584 53.8897 42.592C53.4963 43.3376 53.0612 44.0747 52.5964 44.7828C52.4264 45.0427 52.1426 45.1839 51.8533 45.1839ZM54.9784 38.5222C54.893 38.5222 54.8056 38.5097 54.7188 38.4833C54.2498 38.3401 53.9855 37.8436 54.1291 37.3746C54.3601 36.6172 54.5566 35.8425 54.7133 35.0728C54.8111 34.5925 55.2795 34.2817 55.7603 34.3792C56.2412 34.477 56.5514 34.9458 56.4535 35.4266C56.2862 36.2519 56.0753 37.0818 55.8276 37.8929C55.7111 38.2756 55.3593 38.5222 54.9784 38.5222ZM56.1094 31.2517C55.6084 31.2462 55.2157 30.8437 55.2213 30.3535L55.2233 30C55.2233 29.3297 55.1963 28.6484 55.1429 27.9746C55.1039 27.4858 55.4689 27.058 55.9581 27.0192C56.4424 26.9821 56.8754 27.3453 56.9135 27.8345C56.9704 28.5547 56.9996 29.2832 56.9996 29.9999L56.9975 30.3736C56.9919 30.8607 56.5951 31.2517 56.1094 31.2517Z" fill="#743EF9"/>
<path d="M55.1705 23.9375C54.7813 23.9375 54.4239 23.679 54.315 23.2852C54.1929 22.8429 54.059 22.4061 53.914 21.9739C53.7571 21.509 54.0076 21.0052 54.4725 20.8491C54.9374 20.6933 55.4411 20.9428 55.5972 21.4077C55.7533 21.8704 55.897 22.3392 56.0274 22.8128C56.1579 23.2856 55.8804 23.7747 55.4072 23.9052C55.328 23.9271 55.249 23.9375 55.1705 23.9375Z" fill="#743EF9"/>
<path d="M29.9996 57.0002C24.0193 57.0002 18.3505 55.0807 13.606 51.4486C13.2168 51.1503 13.1425 50.5931 13.4408 50.2035C13.7386 49.8153 14.2964 49.7404 14.6856 50.0381C19.1179 53.4306 24.4135 55.2239 29.9996 55.2239C36.3913 55.2239 42.4883 52.8287 47.1683 48.4793C47.5263 48.1456 48.0876 48.1657 48.4234 48.5252C48.7572 48.8845 48.7364 49.4465 48.3769 49.7803C43.3681 54.436 36.8416 57.0002 29.9996 57.0002Z" fill="#743EF9"/>
<path d="M7.88191 44.7601C7.58707 44.7601 7.29841 44.6129 7.12911 44.3445C4.42797 40.0475 3 35.0871 3 29.9998C3.00002 15.1122 15.1119 3 29.9999 3C36.4277 3 42.6571 5.30285 47.5418 9.48406C47.9144 9.80322 47.9581 10.3638 47.639 10.7365C47.3211 11.109 46.7598 11.1527 46.3872 10.8336C41.8238 6.92754 36.0044 4.77624 29.9999 4.77624C16.0916 4.77624 4.77633 16.0916 4.77633 29.9998C4.77633 34.7521 6.10992 39.3855 8.63341 43.3995C8.89431 43.8147 8.76942 44.3629 8.35383 44.6237C8.20734 44.716 8.04364 44.7601 7.88191 44.7601Z" fill="#743EF9"/>
<path d="M54.7557 22.5791C54.3844 22.5791 54.0389 22.3448 53.914 21.9737C53.5289 20.8291 53.0557 19.7009 52.5089 18.6209C52.2876 18.1831 52.4625 17.6489 52.9003 17.4272C53.3381 17.2051 53.8716 17.3811 54.0937 17.8182C54.6793 18.9744 55.1851 20.1821 55.5972 21.4071C55.7541 21.8724 55.5036 22.3757 55.0387 22.5322C54.9451 22.5637 54.8493 22.5791 54.7557 22.5791Z" fill="#743EF9"/>
</svg>
