<svg width="50" height="50" viewBox="0 0 50 50" fill="none" xmlns="http://www.w3.org/2000/svg">
<path fill-rule="evenodd" clip-rule="evenodd" d="M20.0883 33.3257L18.3627 28.555L21.6917 24.1271H24.2433C27.8949 24.1271 30.8657 27.0978 30.8657 30.7493V33.3257H20.0883ZM16.5198 33.345L17.6469 30.3212L18.7653 33.4076L18.76 33.4097C18.4059 33.5454 18.0564 33.7074 17.729 33.8991C17.3977 33.7074 17.0449 33.5451 16.6874 33.4089L16.5198 33.345ZM4.43176 33.3257V30.7492C4.43176 27.0977 7.40252 24.127 11.0541 24.127H13.5955L16.9328 28.5525L15.164 33.3258L4.43176 33.3257ZM15.1867 24.127H20.1024L17.649 27.3866L15.1867 24.127Z" fill="#1CB098"/>
<path fill-rule="evenodd" clip-rule="evenodd" d="M17.6488 24.0418C14.418 24.0418 11.7896 21.4134 11.7896 18.1824V17.7479L16.8959 19.6456C17.108 19.7244 17.333 19.7649 17.5593 19.7649C17.7809 19.7649 18.001 19.7261 18.2092 19.6505L23.5082 17.7266V18.1825C23.5081 21.4134 20.8797 24.0418 17.6488 24.0418Z" fill="#1CB098"/>
<path fill-rule="evenodd" clip-rule="evenodd" d="M17.5593 18.4954C17.4845 18.4954 17.4095 18.4821 17.3381 18.4556L8.59098 15.2048C8.34934 15.1149 8.18613 14.888 8.17771 14.6304C8.16929 14.3728 8.31762 14.1357 8.55292 14.0304L17.105 10.2041C17.2655 10.1326 17.4486 10.1304 17.6103 10.1986L26.7313 14.0349C26.9722 14.1361 27.1263 14.3745 27.1198 14.6358C27.1134 14.8969 26.9474 15.1274 26.7019 15.2165L17.7759 18.4572C17.7059 18.4827 17.6327 18.4954 17.5593 18.4954Z" fill="#1CB098"/>
<path fill-rule="evenodd" clip-rule="evenodd" d="M8.81234 19.0657C8.46182 19.0657 8.17761 18.7815 8.17761 18.431V14.6098C8.17761 14.2592 8.46182 13.9751 8.81234 13.9751C9.16298 13.9751 9.44707 14.2592 9.44707 14.6098V18.431C9.44707 18.7815 9.16287 19.0657 8.81234 19.0657Z" fill="#1CB098"/>
<path fill-rule="evenodd" clip-rule="evenodd" d="M34.6613 46.4816H18.366V44.1947C19.3038 43.5186 20.7452 43.1762 22.6568 43.1762C26.3282 43.1762 30.3032 44.4373 30.4706 44.491C30.5331 44.5113 30.5988 44.5215 30.6647 44.5215C30.6651 44.5214 30.6658 44.5214 30.6666 44.5215C31.0173 44.5215 31.3015 44.2373 31.3015 43.8867C31.3015 43.8119 31.2885 43.7401 31.2647 43.6735L28.9582 35.0656C28.9131 34.8977 28.8009 34.7554 28.648 34.6722L28.5048 34.5953H28.9681H31.8167C32.104 34.5953 32.3556 34.7882 32.4298 35.0656L35.2743 45.6825C35.3254 45.8732 35.2849 46.0766 35.1649 46.2333C35.0447 46.3899 34.8585 46.4816 34.6613 46.4816ZM17.0964 46.4816H0.636079C0.438844 46.4816 0.252681 46.3899 0.132494 46.2333C0.012423 46.0767 -0.0280624 45.8732 0.0229191 45.6826L2.86761 35.0657C2.942 34.7881 3.19345 34.5953 3.48077 34.5953H6.95776L6.81427 34.6723C6.66133 34.7553 6.5491 34.8976 6.50412 35.0658L4.18447 43.7225C4.12438 43.9469 4.19185 44.1864 4.36002 44.3465C4.5283 44.5067 4.77087 44.5621 4.9921 44.491C5.03293 44.4777 9.12205 43.1762 12.8056 43.1762C14.7172 43.1762 16.1586 43.5188 17.0965 44.1949L17.0964 46.4816ZM19.2141 34.5952H25.2538C26.0885 34.8525 26.9398 35.2079 27.8032 35.6604L29.7606 42.9647C28.2422 42.5576 25.3868 41.9067 22.6568 41.9067C20.9024 41.9067 19.4656 42.1804 18.366 42.7221V34.9972C18.5495 34.8895 18.8338 34.7409 19.2141 34.5952ZM10.2086 34.5952H16.2355C16.621 34.742 16.9103 34.8919 17.0964 34.9998V42.7221C15.997 42.1804 14.5599 41.9067 12.8056 41.9067C10.0777 41.9067 7.22094 42.5579 5.70188 42.9648L7.65912 35.6603C8.52258 35.2079 9.37379 34.8525 10.2086 34.5952Z" fill="#1CB098"/>
<path fill-rule="evenodd" clip-rule="evenodd" d="M38.9567 13.0393C38.8817 13.0393 38.8069 13.0261 38.7355 12.9997L28.5371 9.20917C28.2955 9.11944 28.1323 8.89244 28.1239 8.63477C28.1156 8.37721 28.2638 8.14007 28.4992 8.03487L38.4702 3.57389C38.6306 3.50214 38.8136 3.50007 38.9755 3.56824L49.6101 8.0411C49.8509 8.14237 50.005 8.38078 49.9985 8.64203C49.9921 8.90316 49.8262 9.13373 49.5807 9.22278L39.1734 13.0014C39.1034 13.0267 39.0301 13.0393 38.9567 13.0393Z" fill="#1CB098"/>
<path fill-rule="evenodd" clip-rule="evenodd" d="M28.7583 13.7044C28.4076 13.7044 28.1235 13.4202 28.1235 13.0697V8.61434C28.1235 8.2637 28.4076 7.97949 28.7583 7.97949C29.1088 7.97949 29.393 8.2637 29.393 8.61434V13.0696C29.393 13.4202 29.1088 13.7044 28.7583 13.7044Z" fill="#1CB098"/>
<path fill-rule="evenodd" clip-rule="evenodd" d="M44.1714 18.2151H33.9514C32.7373 18.2151 31.7496 17.2275 31.7496 16.0135V11.7573L38.2932 14.1894C38.5054 14.2683 38.7303 14.3087 38.9567 14.3087C39.1781 14.3087 39.3984 14.2701 39.6066 14.1945L46.3728 11.7378V16.0135C46.3727 17.2275 45.3853 18.2151 44.1714 18.2151Z" fill="#1CB098"/>
</svg>
