<svg width="40" height="40" viewBox="0 0 40 40" fill="none" xmlns="http://www.w3.org/2000/svg">
<path fill-rule="evenodd" clip-rule="evenodd" d="M6.32764 19.644C6.27242 19.6992 6.25 19.7625 6.25 19.8164V25.3164C6.25 26.276 7.04035 27.0664 7.99998 27.0664H10.1666C10.3096 27.0664 10.4167 26.9593 10.4167 26.8164V19.8164C10.4167 19.6811 10.3006 19.5664 10.1666 19.5664H6.50004C6.44612 19.5664 6.38285 19.5888 6.32764 19.644ZM3.75 19.8164C3.75 18.3093 4.99307 17.0664 6.50004 17.0664H10.1666C11.6993 17.0664 12.9167 18.3183 12.9167 19.8164V26.8164C12.9167 28.3401 11.6903 29.5664 10.1666 29.5664H7.99998C5.65961 29.5664 3.75 27.6567 3.75 25.3164V19.8164Z" fill="#1882FF"/>
<path fill-rule="evenodd" clip-rule="evenodd" d="M19.9997 6.23242C14.2401 6.23242 9.58301 10.8895 9.58301 16.6491V18.3324C9.58301 19.0228 9.02337 19.5824 8.33301 19.5824C7.64266 19.5824 7.08301 19.0228 7.08301 18.3324V16.6491C7.08301 9.50873 12.8593 3.73242 19.9997 3.73242C27.1401 3.73242 32.9164 9.50873 32.9164 16.6491V18.3158C32.9164 19.0061 32.3567 19.5658 31.6664 19.5658C30.976 19.5658 30.4164 19.0061 30.4164 18.3158V16.6491C30.4164 10.8895 25.7593 6.23242 19.9997 6.23242Z" fill="#1882FF"/>
<path fill-rule="evenodd" clip-rule="evenodd" d="M31.7465 27.0911C32.4234 27.227 32.8618 27.8859 32.7259 28.5627C31.8442 32.9519 27.9738 36.2499 23.3336 36.2499H21.667C20.9766 36.2499 20.417 35.6903 20.417 34.9999C20.417 34.3095 20.9766 33.7499 21.667 33.7499H23.3336C26.7601 33.7499 29.6232 31.3145 30.2748 28.0704C30.4108 27.3936 31.0697 26.9551 31.7465 27.0911Z" fill="#1882FF"/>
<path fill-rule="evenodd" clip-rule="evenodd" d="M29.6607 19.644C29.6055 19.6992 29.583 19.7625 29.583 19.8164V26.8164C29.583 26.9517 29.6991 27.0664 29.8331 27.0664H31.9164C32.926 27.0664 33.7497 26.2427 33.7497 25.233V19.8164C33.7497 19.6811 33.6337 19.5664 33.4997 19.5664H29.8331C29.7792 19.5664 29.7159 19.5888 29.6607 19.644ZM27.083 19.8164C27.083 18.3093 28.3261 17.0664 29.8331 17.0664H33.4997C35.0323 17.0664 36.2497 18.3183 36.2497 19.8164V25.233C36.2497 27.6234 34.3068 29.5664 31.9164 29.5664H29.8331C28.3004 29.5664 27.083 28.3144 27.083 26.8164V19.8164Z" fill="#1882FF"/>
</svg>
