<svg width="34" height="34" viewBox="0 0 34 34" fill="none" xmlns="http://www.w3.org/2000/svg">
<path d="M10.2744 8.98086H20.0951C20.6231 8.98086 21.0513 8.55267 21.0513 8.02461C21.0513 7.49655 20.6231 7.06836 20.0951 7.06836H10.2744C9.7463 7.06836 9.31812 7.49655 9.31812 8.02461C9.31812 8.55267 9.7463 8.98086 10.2744 8.98086Z" fill="#1882FF"/>
<path d="M10.2744 14.1801H14.6891C15.2171 14.1801 15.6453 13.7519 15.6453 13.2238C15.6453 12.6958 15.2171 12.2676 14.6891 12.2676H10.2744C9.7463 12.2676 9.31812 12.6958 9.31812 13.2238C9.31812 13.7519 9.7463 14.1801 10.2744 14.1801Z" fill="#1882FF"/>
<path d="M25.7232 1.16797H8.27691C5.72266 1.16797 3.64441 3.24622 3.64441 5.80047V25.1911C3.64441 27.7453 5.72266 29.8236 8.27691 29.8236H13.1219C13.65 29.8236 14.0782 29.3954 14.0782 28.8673C14.0782 28.3393 13.65 27.9111 13.1219 27.9111H8.27691C6.77772 27.9111 5.55691 26.6913 5.55691 25.1911V5.80047C5.55691 4.30022 6.77666 3.08047 8.27691 3.08047H25.7232C27.2223 3.08047 28.4432 4.30022 28.4432 5.80047V25.1911C28.4432 26.3673 27.693 27.4032 26.5742 27.7677C26.0717 27.9313 25.7986 28.471 25.9622 28.9736C26.1258 29.4762 26.6656 29.7482 27.1682 29.5856C29.0753 28.964 30.3567 27.1971 30.3567 25.1911V5.80047C30.3557 3.24622 28.2774 1.16797 25.7232 1.16797Z" fill="#1882FF"/>
<path d="M19.9973 17.7188C17.1817 17.7188 14.8888 20.0095 14.8888 22.8262C14.8888 24.2467 15.4742 25.5313 16.4135 26.4578V31.8744C16.4135 32.2261 16.6069 32.5491 16.916 32.7159C17.2263 32.8838 17.6024 32.8668 17.8957 32.6734L19.9984 31.2943L22.101 32.6734C22.2594 32.7776 22.4421 32.8296 22.6259 32.8296C22.781 32.8296 22.9383 32.7914 23.0807 32.7149C23.3899 32.5481 23.5832 32.2251 23.5832 31.8734V26.4557C24.5214 25.5292 25.1069 24.2446 25.1069 22.8241C25.1047 20.0095 22.814 17.7188 19.9973 17.7188ZM19.9973 19.6312C21.7579 19.6312 23.1912 21.0646 23.1912 22.8262C23.1912 24.5878 21.7579 26.0211 19.9973 26.0211C18.2357 26.0211 16.8024 24.5878 16.8024 22.8262C16.8024 21.0646 18.2357 19.6312 19.9973 19.6312ZM21.6686 30.1033L20.5232 29.351C20.2034 29.1427 19.7922 29.1427 19.4735 29.351L18.3281 30.1033V27.6297C18.854 27.8136 19.4108 27.9336 19.9984 27.9336C20.587 27.9336 21.1427 27.8136 21.6686 27.6297V30.1033Z" fill="#1882FF"/>
</svg>
