<svg width="34" height="34" viewBox="0 0 34 34" fill="none" xmlns="http://www.w3.org/2000/svg">
<path d="M17 31.591C14.4466 31.6074 11.9309 30.9736 9.69003 29.7494C9.64514 29.7306 9.59699 29.721 9.54836 29.721C9.49973 29.721 9.45159 29.7306 9.4067 29.7494L4.40586 31.166C4.09979 31.2634 3.77288 31.275 3.46067 31.1996C3.14847 31.1242 2.86292 30.9646 2.63507 30.7382C2.40723 30.5118 2.24581 30.2273 2.16837 29.9156C2.09094 29.6039 2.10044 29.2769 2.19586 28.9702L3.69753 23.941C3.73014 23.8543 3.73014 23.7586 3.69753 23.6719C2.16172 20.8649 1.54903 17.6455 1.94641 14.4706C2.3438 11.2957 3.73106 8.32665 5.91131 5.9848C8.09157 3.64294 10.954 2.04728 14.0925 1.42429C17.2309 0.801293 20.4858 1.18262 23.3952 2.51414C26.3047 3.84566 28.7208 6.05974 30.3007 8.84211C31.8807 11.6245 32.5441 14.8338 32.1969 18.0146C31.8497 21.1953 30.5095 24.1859 28.3665 26.5619C26.2235 28.9379 23.3866 30.5786 20.2584 31.251C19.1865 31.4738 18.0948 31.5877 17 31.591ZM9.50586 27.5252C9.92645 27.5309 10.3395 27.6378 10.71 27.8369C12.5434 28.8423 14.5906 29.3944 16.6809 29.4471C18.7712 29.4998 20.8437 29.0515 22.7253 28.1398C24.607 27.228 26.2431 25.8792 27.4971 24.2061C28.7511 22.5329 29.5865 20.584 29.9336 18.5221C30.2806 16.4601 30.1292 14.3451 29.492 12.3537C28.8548 10.3622 27.7503 8.55213 26.2708 7.07465C24.7913 5.59717 22.9797 4.49517 20.9874 3.86073C18.995 3.22628 16.8798 3.0778 14.8184 3.42768C12.7529 3.77083 10.8001 4.60494 9.12415 5.85986C7.44818 7.11478 6.09806 8.7538 5.18734 10.6391C4.27663 12.5244 3.83195 14.6008 3.89072 16.6937C3.94948 18.7866 4.50997 20.8348 5.52503 22.666C5.68464 22.9551 5.78557 23.2729 5.82204 23.6011C5.85851 23.9293 5.82979 24.2614 5.73753 24.5785L4.42003 28.956L8.79753 27.6385C9.0268 27.5662 9.26547 27.528 9.50586 27.5252Z" fill="#743EF9"/>
<path d="M11.3333 18.7702C12.3113 18.7702 13.1042 17.9774 13.1042 16.9993C13.1042 16.0213 12.3113 15.2285 11.3333 15.2285C10.3553 15.2285 9.5625 16.0213 9.5625 16.9993C9.5625 17.9774 10.3553 18.7702 11.3333 18.7702Z" fill="#743EF9"/>
<path d="M17 18.7702C17.978 18.7702 18.7709 17.9774 18.7709 16.9993C18.7709 16.0213 17.978 15.2285 17 15.2285C16.022 15.2285 15.2292 16.0213 15.2292 16.9993C15.2292 17.9774 16.022 18.7702 17 18.7702Z" fill="#743EF9"/>
<path d="M22.6667 18.7702C23.6447 18.7702 24.4375 17.9774 24.4375 16.9993C24.4375 16.0213 23.6447 15.2285 22.6667 15.2285C21.6887 15.2285 20.8959 16.0213 20.8959 16.9993C20.8959 17.9774 21.6887 18.7702 22.6667 18.7702Z" fill="#743EF9"/>
</svg>
