<svg width="60" height="60" viewBox="0 0 60 60" fill="none" xmlns="http://www.w3.org/2000/svg">
<path d="M53.4375 4.21875H21.5625C18.978 4.21875 16.875 6.32171 16.875 8.90625V20.2037C5.4629 19.3447 1.29101 34.5416 11.3486 39.6904C5.84392 41.5986 1.875 46.8227 1.875 52.9688C1.875 54.5197 3.13659 55.7812 4.6875 55.7812H27.1875C28.7384 55.7812 30 54.5197 30 52.9688C30 49.3652 28.6261 46.0847 26.3896 43.5938H30V44.5312C30 46.0822 31.2616 47.3438 32.8125 47.3438H36.5625V49.3915C33.6287 50.4413 34.3513 54.8147 37.5 54.8438C40.649 54.8145 41.3711 50.4408 38.4375 49.3915V47.3438H42.1875C43.7384 47.3438 45 46.0822 45 44.5312V43.5938H53.4375C56.022 43.5938 58.125 41.4908 58.125 38.9062V8.90625C58.125 6.32171 56.022 4.21875 53.4375 4.21875ZM7.5 30.4688C7.5 25.8165 11.2848 22.0312 15.9375 22.0312C27.131 22.4946 27.1278 38.4448 15.9375 38.9062C11.2848 38.9062 7.5 35.1215 7.5 30.4688ZM18.349 48.2812H13.5251L15.9357 41.6382L18.349 48.2812ZM28.125 52.9688C28.125 53.486 27.7048 53.9062 27.1875 53.9062H24.375V52.0312C24.375 51.5131 23.9557 51.0938 23.4375 51.0938C22.9193 51.0938 22.5 51.5131 22.5 52.0312V53.9062H9.375V52.0312C9.375 51.5131 8.95568 51.0938 8.4375 51.0938C7.91932 51.0938 7.5 51.5131 7.5 52.0312V53.9062H4.6875C4.17022 53.9062 3.75 53.486 3.75 52.9688C3.75 46.838 8.30532 41.7641 14.2061 40.9189L11.3068 48.8983C11.0743 49.4849 11.5562 50.174 12.1875 50.1562H19.6875C20.3178 50.1737 20.8017 49.4852 20.5682 48.8983L17.669 40.9189C23.5697 41.7641 28.125 46.838 28.125 52.9688ZM37.5 52.9688C36.2679 52.9472 36.268 51.1151 37.5 51.0938C38.7321 51.1153 38.732 52.9473 37.5 52.9688ZM43.125 44.5312C43.125 45.0485 42.7048 45.4688 42.1875 45.4688H32.8125C32.2952 45.4688 31.875 45.0485 31.875 44.5312V43.5938H43.125V44.5312ZM56.25 38.9062C56.25 40.4572 54.9884 41.7188 53.4375 41.7188H24.3395C23.1901 40.858 21.9088 40.1696 20.5264 39.6904C28.9189 35.5164 27.7625 23.121 18.75 20.5561V8.90625C18.75 7.35534 20.0116 6.09375 21.5625 6.09375H53.4375C54.9884 6.09375 56.25 7.35534 56.25 8.90625V38.9062Z" fill="#743EF9"/>
<path d="M30.0001 15.4688H45.0001C46.2288 15.4491 46.2352 13.6146 45.0001 13.5938H30.0001C28.7723 13.613 28.7641 15.4477 30.0001 15.4688Z" fill="#743EF9"/>
<path d="M47.8124 20.1562H27.1874C25.9618 20.1749 25.9498 22.01 27.1874 22.0312H47.8124C49.0381 22.0125 49.0501 20.1774 47.8124 20.1562Z" fill="#743EF9"/>
<path d="M43.1251 28.5938C44.354 28.5741 44.3602 26.7396 43.1251 26.7188H31.8751C30.6463 26.7384 30.6401 28.5728 31.8751 28.5938H43.1251Z" fill="#743EF9"/>
<path d="M46.8751 33.2812H28.1251C26.8973 33.3002 26.8891 35.1355 28.1251 35.1562H46.8751C48.1014 35.1377 48.1122 33.302 46.8751 33.2812Z" fill="#743EF9"/>
</svg>
