<svg width="60" height="60" viewBox="0 0 60 60" fill="none" xmlns="http://www.w3.org/2000/svg">
<path d="M27.1875 3.75H25.3125V1.875H23.4375V3.75H19.6875V1.875H17.8125V3.75H14.0625V1.875H12.1875V3.75H8.4375V1.875H6.5625V3.75H4.6875C3.94226 3.75223 3.22819 4.04926 2.70122 4.57622C2.17426 5.10319 1.87723 5.81726 1.875 6.5625V27.1875C1.87723 27.9327 2.17426 28.6468 2.70122 29.1738C3.22819 29.7007 3.94226 29.9978 4.6875 30H27.1875C27.9327 29.9978 28.6468 29.7007 29.1738 29.1738C29.7007 28.6468 29.9978 27.9327 30 27.1875V6.5625C29.9978 5.81726 29.7007 5.10319 29.1738 4.57622C28.6468 4.04926 27.9327 3.75223 27.1875 3.75ZM28.125 27.1875C28.125 27.4361 28.0262 27.6746 27.8504 27.8504C27.6746 28.0262 27.4361 28.125 27.1875 28.125H4.6875C4.43886 28.125 4.2004 28.0262 4.02459 27.8504C3.84877 27.6746 3.75 27.4361 3.75 27.1875V11.25H28.125V27.1875ZM28.125 9.375H3.75V6.5625C3.75 6.31386 3.84877 6.0754 4.02459 5.89959C4.2004 5.72377 4.43886 5.625 4.6875 5.625H6.5625V7.5H8.4375V5.625H12.1875V7.5H14.0625V5.625H17.8125V7.5H19.6875V5.625H23.4375V7.5H25.3125V5.625H27.1875C27.4361 5.625 27.6746 5.72377 27.8504 5.89959C28.0262 6.0754 28.125 6.31386 28.125 6.5625V9.375Z" fill="#743EF9"/>
<path d="M10.3125 13.125H6.5625C6.31386 13.125 6.0754 13.2238 5.89959 13.3996C5.72377 13.5754 5.625 13.8139 5.625 14.0625V17.8125C5.625 18.0611 5.72377 18.2996 5.89959 18.4754C6.0754 18.6512 6.31386 18.75 6.5625 18.75H10.3125C10.5611 18.75 10.7996 18.6512 10.9754 18.4754C11.1512 18.2996 11.25 18.0611 11.25 17.8125V14.0625C11.25 13.8139 11.1512 13.5754 10.9754 13.3996C10.7996 13.2238 10.5611 13.125 10.3125 13.125ZM9.375 16.875H7.5V15H9.375V16.875Z" fill="#743EF9"/>
<path d="M17.8125 13.125H14.0625C13.8139 13.125 13.5754 13.2238 13.3996 13.3996C13.2238 13.5754 13.125 13.8139 13.125 14.0625V17.8125C13.125 18.0611 13.2238 18.2996 13.3996 18.4754C13.5754 18.6512 13.8139 18.75 14.0625 18.75H17.8125C18.0611 18.75 18.2996 18.6512 18.4754 18.4754C18.6512 18.2996 18.75 18.0611 18.75 17.8125V14.0625C18.75 13.8139 18.6512 13.5754 18.4754 13.3996C18.2996 13.2238 18.0611 13.125 17.8125 13.125ZM16.875 16.875H15V15H16.875V16.875Z" fill="#743EF9"/>
<path d="M25.3125 13.125H21.5625C21.3139 13.125 21.0754 13.2238 20.8996 13.3996C20.7238 13.5754 20.625 13.8139 20.625 14.0625V17.8125C20.625 18.0611 20.7238 18.2996 20.8996 18.4754C21.0754 18.6512 21.3139 18.75 21.5625 18.75H25.3125C25.5611 18.75 25.7996 18.6512 25.9754 18.4754C26.1512 18.2996 26.25 18.0611 26.25 17.8125V14.0625C26.25 13.8139 26.1512 13.5754 25.9754 13.3996C25.7996 13.2238 25.5611 13.125 25.3125 13.125ZM24.375 16.875H22.5V15H24.375V16.875Z" fill="#743EF9"/>
<path d="M10.3125 20.625H6.5625C6.31386 20.625 6.0754 20.7238 5.89959 20.8996C5.72377 21.0754 5.625 21.3139 5.625 21.5625V25.3125C5.625 25.5611 5.72377 25.7996 5.89959 25.9754C6.0754 26.1512 6.31386 26.25 6.5625 26.25H10.3125C10.5611 26.25 10.7996 26.1512 10.9754 25.9754C11.1512 25.7996 11.25 25.5611 11.25 25.3125V21.5625C11.25 21.3139 11.1512 21.0754 10.9754 20.8996C10.7996 20.7238 10.5611 20.625 10.3125 20.625ZM9.375 24.375H7.5V22.5H9.375V24.375Z" fill="#743EF9"/>
<path d="M17.8125 20.625H14.0625C13.8139 20.625 13.5754 20.7238 13.3996 20.8996C13.2238 21.0754 13.125 21.3139 13.125 21.5625V25.3125C13.125 25.5611 13.2238 25.7996 13.3996 25.9754C13.5754 26.1512 13.8139 26.25 14.0625 26.25H17.8125C18.0611 26.25 18.2996 26.1512 18.4754 25.9754C18.6512 25.7996 18.75 25.5611 18.75 25.3125V21.5625C18.75 21.3139 18.6512 21.0754 18.4754 20.8996C18.2996 20.7238 18.0611 20.625 17.8125 20.625ZM16.875 24.375H15V22.5H16.875V24.375Z" fill="#743EF9"/>
<path d="M25.3125 20.625H21.5625C21.3139 20.625 21.0754 20.7238 20.8996 20.8996C20.7238 21.0754 20.625 21.3139 20.625 21.5625V25.3125C20.625 25.5611 20.7238 25.7996 20.8996 25.9754C21.0754 26.1512 21.3139 26.25 21.5625 26.25H25.3125C25.5611 26.25 25.7996 26.1512 25.9754 25.9754C26.1512 25.7996 26.25 25.5611 26.25 25.3125V21.5625C26.25 21.3139 26.1512 21.0754 25.9754 20.8996C25.7996 20.7238 25.5611 20.625 25.3125 20.625ZM24.375 24.375H22.5V22.5H24.375V24.375Z" fill="#743EF9"/>
<path d="M44.0625 30C41.2812 30 38.5624 30.8247 36.2498 32.37C33.9372 33.9152 32.1348 36.1114 31.0705 38.681C30.0061 41.2506 29.7276 44.0781 30.2702 46.806C30.8128 49.5338 32.1521 52.0395 34.1188 54.0062C36.0855 55.9729 38.5912 57.3122 41.3191 57.8548C44.0469 58.3974 46.8744 58.1189 49.444 57.0546C52.0136 55.9902 54.2098 54.1878 55.7551 51.8752C57.3003 49.5626 58.125 46.8438 58.125 44.0625C58.1205 40.3343 56.6375 36.76 54.0013 34.1237C51.365 31.4875 47.7907 30.0045 44.0625 30ZM55.0406 49.3219L53.4656 48.4031L52.5281 50.0344L54.1125 50.9438C53.2572 52.1834 52.1835 53.2572 50.9438 54.1125L50.0344 52.5281L48.4031 53.4656L49.3219 55.0406C47.9652 55.6911 46.5 56.0853 45 56.2031V54.375H43.125V56.2031C41.6251 56.0853 40.1598 55.6911 38.8031 55.0406L39.7219 53.4656L38.0906 52.5281L37.1813 54.1125C35.9416 53.2572 34.8678 52.1834 34.0125 50.9438L35.5969 50.0344L34.6594 48.4031L33.0844 49.3219C32.4339 47.9652 32.0397 46.5 31.9219 45H33.75V43.125H31.9219C32.0397 41.625 32.4339 40.1598 33.0844 38.8031L34.6594 39.7219L35.5969 38.0906L34.0125 37.1812C34.8678 35.9416 35.9416 34.8678 37.1813 34.0125L38.0906 35.5969L39.7219 34.6594L38.8031 33.0844C40.1598 32.4339 41.6251 32.0397 43.125 31.9219V33.75H45V31.9219C46.5 32.0397 47.9652 32.4339 49.3219 33.0844L48.4031 34.6594L50.0344 35.5969L50.9438 34.0125C52.1835 34.8678 53.2572 35.9416 54.1125 37.1812L52.5281 38.0906L53.4656 39.7219L55.0406 38.8031C55.6911 40.1598 56.0853 41.625 56.2031 43.125H54.375V45H56.2031C56.0853 46.5 55.6911 47.9652 55.0406 49.3219Z" fill="#743EF9"/>
<path d="M44.9997 41.4225V35.625H43.1247V41.4225C42.6771 41.5798 42.2767 41.848 41.9609 42.2021C41.6451 42.5562 41.4242 42.9846 41.319 43.4472C41.2137 43.9098 41.2274 44.3916 41.3589 44.8474C41.4904 45.3033 41.7354 45.7184 42.0709 46.0538C42.4063 46.3893 42.8214 46.6343 43.2773 46.7658C43.7331 46.8973 44.2149 46.911 44.6775 46.8057C45.1401 46.7005 45.5685 46.4796 45.9226 46.1638C46.2767 45.848 46.5449 45.4476 46.7022 45H49.6872V43.125H46.7022C46.5621 42.7329 46.3368 42.3768 46.0423 42.0824C45.7479 41.7879 45.3918 41.5626 44.9997 41.4225ZM44.0622 45C43.8768 45 43.6955 44.945 43.5414 44.842C43.3872 44.739 43.267 44.5926 43.1961 44.4213C43.1251 44.25 43.1065 44.0615 43.1427 43.8796C43.1789 43.6977 43.2682 43.5307 43.3993 43.3996C43.5304 43.2685 43.6975 43.1792 43.8793 43.143C44.0612 43.1068 44.2497 43.1254 44.421 43.1964C44.5923 43.2673 44.7387 43.3875 44.8417 43.5417C44.9447 43.6958 44.9997 43.8771 44.9997 44.0625C44.9997 44.3111 44.9009 44.5496 44.7251 44.7254C44.5493 44.9012 44.3108 45 44.0622 45Z" fill="#743EF9"/>
<path d="M34.6816 8.92871L35.1675 7.11677L36.9785 7.60233L36.4927 9.41428L34.6816 8.92871Z" fill="#743EF9"/>
<path d="M39.9648 10.8545L40.9019 9.23155L42.5248 10.1686L41.5878 11.7915L39.9648 10.8545Z" fill="#743EF9"/>
<path d="M44.5781 14.0923L45.904 12.7665L47.2298 14.0923L45.9039 15.4181L44.5781 14.0923Z" fill="#743EF9"/>
<path d="M48.2031 18.4019L49.8269 17.4644L50.7644 19.0881L49.1406 20.0256L48.2031 18.4019Z" fill="#743EF9"/>
<path d="M50.5928 23.5059L52.4038 23.0203L52.8894 24.8313L51.0783 25.3169L50.5928 23.5059Z" fill="#743EF9"/>
<path d="M51.5625 29.0625H53.4375V30.9375H51.5625V29.0625Z" fill="#743EF9"/>
<path d="M29.0625 51.5625H30.9375V53.4375H29.0625V51.5625Z" fill="#743EF9"/>
<path d="M23.0361 52.4043L23.5219 50.5924L25.333 51.0779L24.8472 52.8899L23.0361 52.4043Z" fill="#743EF9"/>
<path d="M17.4697 49.8213L18.4068 48.1984L20.0297 49.1354L19.0927 50.7583L17.4697 49.8213Z" fill="#743EF9"/>
<path d="M12.7578 45.9077L14.0836 44.5819L15.4095 45.9077L14.0836 47.2335L12.7578 45.9077Z" fill="#743EF9"/>
<path d="M9.23633 40.9038L10.8601 39.9663L11.7976 41.5901L10.1738 42.5276L9.23633 40.9038Z" fill="#743EF9"/>
<path d="M7.12598 35.1616L8.93701 34.6761L9.42258 36.4871L7.61154 36.9727L7.12598 35.1616Z" fill="#743EF9"/>
</svg>
