<svg width="60" height="60" viewBox="0 0 60 60" fill="none" xmlns="http://www.w3.org/2000/svg">
<path fill-rule="evenodd" clip-rule="evenodd" d="M17.4105 21.447C14.2706 15.8427 15.2276 8.78131 19.7773 4.22311C25.3998 -1.40979 34.4617 -1.40562 40.0732 4.22311C42.6077 6.76568 44.0951 10.1432 44.2609 13.7272C44.4256 17.2961 43.2789 20.773 41.0315 23.5148C40.7085 23.9117 40.1402 23.9617 39.7561 23.645C39.369 23.3233 39.3126 22.749 39.6302 22.366C43.7326 17.3497 43.372 10.0971 38.7912 5.50969C33.8929 0.593497 25.9568 0.593497 21.0584 5.50969C16.9754 9.59929 16.2012 15.864 19.1361 20.8114L19.2477 20.3824C19.3736 19.8999 19.8684 19.609 20.3528 19.7315C20.8372 19.8616 21.1279 20.3518 21.0021 20.842L20.3988 23.1624C20.3168 23.4855 20.1606 23.5546 20.0764 23.6602C20.0453 23.6602 19.7932 23.9403 19.2792 23.8211L16.816 23.17C16.3316 23.0475 16.0415 22.5497 16.1679 22.0672C16.2944 21.577 16.7891 21.286 17.2736 21.4161L17.4105 21.447ZM53.1684 18.4143C53.207 18.3527 53.184 18.2616 53.1157 18.2228L51.5439 17.3115C51.4737 17.2717 51.3869 17.2922 51.3471 17.365L39.8578 37.3232L39.5759 39.9195L41.679 38.3801L53.1684 18.4143ZM49.454 31.6712V50.7562H45.1732C41.5534 50.7408 38.6944 50.7332 35.1402 53.3523C33.4857 54.5623 32.1111 56.1937 31.0478 58.1771H28.8029C27.7396 56.1935 26.365 54.5623 24.7105 53.3523C20.9076 50.5604 17.9168 50.7562 13.99 50.7562H10.3971V44.3383H11.7271V47.6085C11.7271 48.114 12.1327 48.5199 12.6336 48.5199C17.1009 48.5199 21.0103 48.0267 25.0318 50.7791C26.7094 51.928 28.0865 53.498 29.125 55.4585H29.1258C29.4701 56.1088 30.39 56.0964 30.7254 55.4585C31.7642 53.4978 33.1413 51.928 34.8189 50.7791C38.8405 48.0268 42.7504 48.5199 47.2175 48.5199C47.7179 48.5199 48.1235 48.1139 48.1235 47.6085V31.6712H49.454ZM6.81258 42.5232H14.624V39.9577H6.81258V42.5232ZM6.81258 35.7302V38.135H14.624V35.7302H6.81258ZM6.81258 31.3495V33.9151H14.624V31.3495H6.81258ZM24.2482 39.9577H16.4363V42.5232H24.2482V39.9577ZM16.4365 33.9151H24.2484V31.3495H16.4365V33.9151ZM24.2482 35.7302H16.4363V38.135H24.2482V35.7302ZM13.5396 27.6122V29.5268H25.1546C25.6548 29.5268 26.0606 29.9404 26.0606 30.4382V43.427C26.0606 43.9325 25.6548 44.3383 25.1546 44.3383H13.5396V46.6972C13.8262 46.6896 14.1099 46.6895 14.3887 46.6818C18.3593 46.6282 22.1092 46.5822 26.0529 49.2781C27.1613 50.0363 28.1521 50.9553 29.0191 52.0199V31.5563C29.0191 29.3812 27.4903 27.6122 25.6107 27.6122H13.5396ZM30.8316 31.5563C30.8316 29.3812 32.3607 27.6122 34.24 27.6122H43.3536L38.1927 36.5802C38.1299 36.6874 38.0902 36.81 38.0767 36.9324L37.5521 41.7726C37.4669 42.5607 38.3494 43.0729 38.9882 42.6074L42.9036 39.7355C43.0053 39.6589 43.0903 39.5593 43.1533 39.4522L46.3115 33.9687V46.6972C46.025 46.6896 45.7412 46.6895 45.4621 46.6818C41.4921 46.6282 37.7419 46.5822 33.7978 49.2781C32.6897 50.0363 31.6983 50.9553 30.8317 52.0199V31.5563H30.8316ZM54.9322 17.84C54.7964 17.3346 54.4732 16.9056 54.0219 16.6453L52.4498 15.734C51.515 15.1935 50.3135 15.5237 49.7771 16.4538L44.3997 25.7972H34.2399C32.4489 25.7972 30.8661 26.7929 29.9254 28.3168C28.9845 26.7928 27.4019 25.7972 25.6107 25.7972H12.6336C12.1327 25.7972 11.7271 26.2032 11.7271 26.7086V29.527H5.90615C5.40574 29.527 5 29.9406 5 30.4383V43.4271C5 43.9326 5.4056 44.3385 5.90615 44.3385H8.58434V51.66C8.58434 52.1656 8.98994 52.5714 9.49049 52.5714H14.6825C18.0974 52.5638 20.565 52.556 23.6388 54.8153C25.1942 55.9564 26.4725 57.5341 27.438 59.4946C27.5907 59.8009 27.9056 60 28.2505 60H31.6004C31.9451 60 32.2597 59.8009 32.4127 59.4946C33.3779 57.534 34.6562 55.9564 36.2119 54.8153C39.5144 52.3903 42.1643 52.5714 45.8605 52.5714H50.3601C50.8605 52.5714 51.2661 52.1654 51.2661 51.66V30.7598C51.2661 30.2543 50.8605 29.8485 50.3601 29.8485H48.6807L54.7381 19.3257C54.9988 18.8739 55.0677 18.3454 54.9322 17.84ZM33.9921 16.3849C33.9453 15.6267 33.5722 14.5928 32.0612 13.9113C32.0535 13.9113 32.0458 13.9037 32.0379 13.9037C31.2509 13.5744 30.5864 13.5284 29.9957 13.4901C29.4962 13.4595 29.0639 13.4289 28.5721 13.222C27.8022 12.862 27.7279 12.5174 27.7177 12.372C27.7174 11.8071 28.518 11.5414 28.5674 11.4989C28.9597 11.3303 29.4204 11.2384 29.9364 11.2308H29.9402C30.9907 11.269 31.8878 11.4683 32.683 11.8435C33.1348 12.058 33.6752 11.8665 33.8903 11.4147C34.105 10.9551 33.9126 10.419 33.4608 10.2047C32.6609 9.82167 31.7953 9.57674 30.8314 9.47704V9.07883C30.8314 8.5733 30.4258 8.16747 29.9253 8.16747C29.4249 8.16747 29.019 8.57344 29.019 9.07883V9.49241C28.6046 9.56137 28.2147 9.67629 27.8532 9.82943C26.3153 10.4727 25.9449 11.5372 25.9053 12.3184C25.9038 12.3414 25.9034 12.3644 25.9044 12.395C25.9286 13.1302 26.2816 14.1641 27.827 14.884C27.8366 14.884 27.8463 14.8916 27.8559 14.8993C28.6331 15.221 29.2934 15.267 29.8797 15.3052C30.3871 15.3435 30.8258 15.3665 31.3323 15.5808C32.4512 16.0717 32.4472 16.816 31.3386 17.2964C30.0917 17.8367 28.3069 17.4846 27.1379 16.9517C26.6819 16.745 26.1451 16.9441 25.9379 17.4035C25.731 17.8553 25.9328 18.3992 26.3886 18.6059C27.2229 18.9889 28.1045 19.2263 29.0191 19.3336V19.7242C29.0191 20.2297 29.425 20.6355 29.9254 20.6355C30.426 20.6355 30.8316 20.2297 30.8316 19.7242V19.3182C32.6441 19.0253 33.897 17.9606 33.9915 16.5076C33.9941 16.4615 33.9944 16.4231 33.9921 16.3849ZM35.2083 19.7009C38.1264 16.7707 38.1296 12.0351 35.2083 9.10152C32.2953 6.17597 27.5551 6.17597 24.6425 9.10152C21.7195 12.0367 21.7248 16.7749 24.6425 19.7009C27.5553 22.6188 32.2953 22.6188 35.2083 19.7009ZM23.3607 7.81494C19.7341 11.4581 19.7315 17.3451 23.3607 20.9876C26.9725 24.6126 32.8782 24.6126 36.49 20.9876C40.1173 17.3471 40.1172 11.4556 36.49 7.81494C32.8701 4.18475 26.9805 4.18475 23.3607 7.81494Z" fill="#743EF9"/>
</svg>
