<svg width="61" height="61" viewBox="0 0 61 61" fill="none" xmlns="http://www.w3.org/2000/svg">
<path d="M39.2436 37.0996L41.5356 49.5514H23.8999L26.1919 37.0996H39.2436Z" fill="#CCCFF2"/>
<path d="M60.3431 7.50123V35.5005C60.3431 39.6438 56.9767 43.0017 52.8419 43.0017H12.5994C8.45612 43.0017 5.09814 39.6438 5.09814 35.5005V7.50123C5.09814 3.34923 8.45612 0 12.5994 0H52.8419C56.9767 -2.82857e-07 60.3431 3.34923 60.3431 7.50123Z" fill="#8D98A9"/>
<path d="M60.2655 36.5664C59.748 40.2077 56.6157 43.0033 52.8451 43.0033H12.601C8.82177 43.0033 5.68947 40.2077 5.17188 36.5664H60.2655Z" fill="#423D9B"/>
<path d="M56.3399 8.99879V31.5518H9.09814V8.99879C9.09814 6.23767 11.3416 3.99414 14.1027 3.99414H51.344C54.1051 3.99414 56.3399 6.23767 56.3399 8.99879Z" fill="white"/>
<path d="M45.6235 51.7919H21.3947C20.7696 51.7919 20.3746 51.1009 20.7037 50.5635C22.0967 48.2822 27.3066 46.582 33.5146 46.582C39.7118 46.582 44.9217 48.2822 46.3147 50.5635C46.6436 51.1009 46.2488 51.7919 45.6235 51.7919Z" fill="#8D98A9"/>
<path d="M35.3763 39.7476C35.3763 40.1706 35.031 40.5158 34.5993 40.5158H29.3511C28.9282 40.5158 28.5742 40.1706 28.5742 39.7476C28.5742 39.316 28.9282 38.9707 29.3511 38.9707H34.5993C35.031 38.9707 35.3763 39.316 35.3763 39.7476Z" fill="#211A67"/>
<path d="M12.7837 1.92157C16.9803 1.35352 23.5947 1.33943 27.8722 1.92157C23.692 2.4904 17.0787 2.50295 12.7837 1.92157Z" fill="white"/>
<path d="M34.6323 50.3218C36.9673 49.8224 40.6399 49.8121 43.0102 50.3218C40.6847 50.8218 37.0127 50.8309 34.6323 50.3218Z" fill="white"/>
<path d="M39.3604 41.0558C42.8864 40.5785 48.4439 40.5667 52.0379 41.0558C48.5256 41.5337 42.969 41.5443 39.3604 41.0558Z" fill="white"/>
<path d="M36.6166 54.0496C36.6166 62.4579 0 62.39 0 54.0496C0 49.9473 2.35375 46.4135 5.58781 44.7306C5.59713 44.7212 5.59713 44.7212 5.59713 44.7212C7.07643 43.9297 8.76313 43.4774 10.5629 43.4774L11.5616 43.4868H25.3566V43.4774C25.6553 43.508 27.2122 43.3375 29.0973 43.9297C33.4505 45.2395 36.6166 49.2723 36.6166 54.0496Z" fill="#F34B58"/>
<path d="M36.6166 54.0487C36.6166 51.509 35.7156 49.185 34.2232 47.3633C34.2047 47.3827 22.7886 59.3262 0.775879 56.0282C6.00994 62.322 36.6166 61.7619 36.6166 54.0487Z" fill="#E11226"/>
<path d="M13.0686 44.1912C13.03 43.3827 13.0516 40.4407 13.0459 38.8828H23.2562C23.2502 40.4907 23.2725 43.3698 23.2332 44.1912H13.0686Z" fill="#FABDAB"/>
<path d="M13.0459 38.8828V43.0793C21.2789 43.5307 23.2561 40.6058 23.2561 40.6058V38.8828H13.0459Z" fill="#F2A496"/>
<path d="M24.819 44.2542C20.8729 46.8575 15.7439 46.8575 11.7976 44.2542C11.4195 44.0048 11.205 43.5662 11.2051 43.1133C11.2051 43.1027 11.2051 43.0921 11.2051 43.0814C11.2051 42.0729 12.2556 41.4054 13.1636 41.8443C16.4091 43.4126 20.2075 43.4126 23.4529 41.8443C24.3609 41.4055 25.4115 42.073 25.4115 43.0815V43.1133C25.4115 43.5663 25.197 44.0048 24.819 44.2542Z" fill="#E11226"/>
<path d="M30.2783 28.8062C30.2783 30.6435 28.7866 32.1352 26.9492 32.1352V25.4727C28.7866 25.4727 30.2783 26.9643 30.2783 28.8062Z" fill="#FABDAB"/>
<path d="M28.1173 25.6948V31.9132C27.7526 32.0505 27.3619 32.1351 26.9497 32.1351V25.4727C27.3619 25.4727 27.7526 25.5575 28.1173 25.6948Z" fill="#F2A496"/>
<path d="M6.33838 28.8062C6.33838 30.6435 7.83009 32.1352 9.66744 32.1352V25.4727C7.83009 25.4727 6.33838 26.9643 6.33838 28.8062Z" fill="#FABDAB"/>
<path d="M8.5 25.6948V31.9132C8.86463 32.0505 9.25536 32.1351 9.66757 32.1351V25.4727C9.25536 25.4727 8.86463 25.5575 8.5 25.6948Z" fill="#F2A496"/>
<path d="M17.672 17.9928C18.0899 18.0793 18.526 18.0793 18.9436 17.9928C23.7806 16.9914 27.7246 21.5022 27.7246 27.8819C27.7246 31.2102 26.6725 34.9012 24.9652 37.7466C21.9561 42.797 14.6617 42.7996 11.6511 37.7466C9.94369 34.9012 8.8916 31.2102 8.8916 27.8819C8.8916 21.5022 12.8359 16.9916 17.672 17.9928Z" fill="#BF7D5A"/>
<path d="M26.3828 22.0078C26.4675 22.6366 26.5226 23.284 26.5226 23.959C26.5226 27.2873 25.4704 30.9783 23.7631 33.8237C20.7539 38.8744 13.4595 38.8766 10.4491 33.8237C10.0116 33.0945 9.61876 32.3088 9.27393 31.489C9.72234 33.7109 10.5468 35.9062 11.6516 37.7475C14.6608 42.7982 21.9551 42.8003 24.9656 37.7475C26.6729 34.902 27.7251 31.2111 27.7251 27.8827C27.7251 25.6364 27.2275 23.6318 26.3828 22.0078Z" fill="#AA6256"/>
<path d="M49.0957 20.7265V13.7971C49.0957 11.7473 32.7344 11.7473 32.7344 13.7971V20.7265C32.7344 24.2223 49.0957 24.2223 49.0957 20.7265Z" fill="#1D2943"/>
<path d="M52.3743 12.0018L41.648 8.24973C41.1945 8.09115 40.659 8.09125 40.2056 8.24992L29.488 12.0019C28.277 12.426 28.3372 13.6343 29.5871 14L40.3049 17.1346C40.7025 17.2508 41.1511 17.2509 41.5486 17.1347L52.2749 14.0001C53.5257 13.6345 53.5856 12.4256 52.3743 12.0018Z" fill="#4C5C75"/>
<path d="M43.0376 9.67383C44.5689 10.5766 47.1534 11.5319 48.9318 11.843C48.0196 11.3041 44.8095 9.98569 43.0376 9.67383Z" fill="white"/>
<path d="M47.8101 19.5861C47.8101 20.2943 47.2555 20.8661 46.5814 20.8661C45.8987 20.8661 45.3526 20.2943 45.3526 19.5861C45.3526 19.0314 45.6853 18.5706 46.1547 18.3914V15.7888L40.7446 13.0128L41.0775 12.2363L46.752 15.1147C46.9055 15.183 47.008 15.3366 47.008 15.5072V18.3914C47.4774 18.5706 47.8101 19.0314 47.8101 19.5861Z" fill="#FEBC1F"/>
<path d="M40.931 13.7876C41.9667 13.7876 42.8064 13.2895 42.8064 12.6751C42.8064 12.0606 41.9667 11.5625 40.931 11.5625C39.8953 11.5625 39.0557 12.0606 39.0557 12.6751C39.0557 13.2895 39.8953 13.7876 40.931 13.7876Z" fill="#1D2943"/>
</svg>
