<svg width="34" height="34" viewBox="0 0 34 34" fill="none" xmlns="http://www.w3.org/2000/svg">
<path d="M9.91665 15.2298H7.08331C3.65498 15.2298 1.77081 13.3457 1.77081 9.91732V7.08399C1.77081 3.65565 3.65498 1.77148 7.08331 1.77148H9.91665C13.345 1.77148 15.2291 3.65565 15.2291 7.08399V9.91732C15.2291 13.3457 13.345 15.2298 9.91665 15.2298ZM7.08331 3.89648C4.84498 3.89648 3.89581 4.84565 3.89581 7.08399V9.91732C3.89581 12.1557 4.84498 13.1048 7.08331 13.1048H9.91665C12.155 13.1048 13.1041 12.1557 13.1041 9.91732V7.08399C13.1041 4.84565 12.155 3.89648 9.91665 3.89648H7.08331Z" fill="#1CB098"/>
<path d="M26.9166 15.2298H24.0833C20.655 15.2298 18.7708 13.3457 18.7708 9.91732V7.08399C18.7708 3.65565 20.655 1.77148 24.0833 1.77148H26.9166C30.345 1.77148 32.2291 3.65565 32.2291 7.08399V9.91732C32.2291 13.3457 30.345 15.2298 26.9166 15.2298ZM24.0833 3.89648C21.845 3.89648 20.8958 4.84565 20.8958 7.08399V9.91732C20.8958 12.1557 21.845 13.1048 24.0833 13.1048H26.9166C29.155 13.1048 30.1041 12.1557 30.1041 9.91732V7.08399C30.1041 4.84565 29.155 3.89648 26.9166 3.89648H24.0833Z" fill="#1CB098"/>
<path d="M26.9166 32.2298H24.0833C20.655 32.2298 18.7708 30.3457 18.7708 26.9173V24.084C18.7708 20.6557 20.655 18.7715 24.0833 18.7715H26.9166C30.345 18.7715 32.2291 20.6557 32.2291 24.084V26.9173C32.2291 30.3457 30.345 32.2298 26.9166 32.2298ZM24.0833 20.8965C21.845 20.8965 20.8958 21.8457 20.8958 24.084V26.9173C20.8958 29.1557 21.845 30.1048 24.0833 30.1048H26.9166C29.155 30.1048 30.1041 29.1557 30.1041 26.9173V24.084C30.1041 21.8457 29.155 20.8965 26.9166 20.8965H24.0833Z" fill="#1CB098"/>
<path d="M9.91665 32.2298H7.08331C3.65498 32.2298 1.77081 30.3457 1.77081 26.9173V24.084C1.77081 20.6557 3.65498 18.7715 7.08331 18.7715H9.91665C13.345 18.7715 15.2291 20.6557 15.2291 24.084V26.9173C15.2291 30.3457 13.345 32.2298 9.91665 32.2298ZM7.08331 20.8965C4.84498 20.8965 3.89581 21.8457 3.89581 24.084V26.9173C3.89581 29.1557 4.84498 30.1048 7.08331 30.1048H9.91665C12.155 30.1048 13.1041 29.1557 13.1041 26.9173V24.084C13.1041 21.8457 12.155 20.8965 9.91665 20.8965H7.08331Z" fill="#1CB098"/>
</svg>
