<svg width="64" height="64" viewBox="0 0 64 64" fill="none" xmlns="http://www.w3.org/2000/svg">
<g clip-path="url(#clip0_304_22791)">
<path d="M32.0002 28.7958C33.069 28.7958 34.0668 28.2199 34.6042 27.2931C34.8638 26.8451 34.711 26.2714 34.263 26.0118C33.8152 25.7522 33.2415 25.9048 32.9818 26.3528C32.7788 26.7032 32.4025 26.9208 32.0002 26.9208C31.5978 26.9208 31.2214 26.7032 31.0184 26.3528C30.7587 25.9048 30.185 25.7523 29.7372 26.0118C29.2892 26.2714 29.1364 26.8451 29.396 27.2931C29.9335 28.2201 30.9313 28.7958 32.0002 28.7958Z" fill="#1882FF"/>
<path d="M27.8584 23.6184C28.3763 23.6184 28.7959 23.1986 28.7959 22.6809V21.6455C28.7959 21.1278 28.3763 20.708 27.8584 20.708C27.3405 20.708 26.9209 21.1278 26.9209 21.6455V22.6809C26.9209 23.1986 27.3406 23.6184 27.8584 23.6184Z" fill="#1882FF"/>
<path d="M36.1416 23.6184C36.6595 23.6184 37.0791 23.1986 37.0791 22.6809V21.6455C37.0791 21.1278 36.6595 20.708 36.1416 20.708C35.6237 20.708 35.2041 21.1278 35.2041 21.6455V22.6809C35.2041 23.1986 35.6237 23.6184 36.1416 23.6184Z" fill="#1882FF"/>
<path d="M32 49.7002C29.1994 49.7002 26.9209 51.9787 26.9209 54.7793C26.9209 57.5799 29.1993 59.8584 32 59.8584C34.8008 59.8584 37.0791 57.5799 37.0791 54.7793C37.0791 51.9787 34.8006 49.7002 32 49.7002ZM32 57.9836C30.2333 57.9836 28.7959 56.5462 28.7959 54.7794C28.7959 53.0127 30.2333 51.5752 32 51.5752C33.7668 51.5752 35.2041 53.0126 35.2041 54.7793C35.2041 56.5461 33.7668 57.9836 32 57.9836Z" fill="#1882FF"/>
<path d="M32.2588 53.8418H31.7412C31.2233 53.8418 30.8037 54.2615 30.8037 54.7793C30.8037 55.297 31.2233 55.7168 31.7412 55.7168H32.2588C32.7767 55.7168 33.1963 55.297 33.1963 54.7793C33.1963 54.2615 32.7767 53.8418 32.2588 53.8418Z" fill="#1882FF"/>
<path d="M61.1359 47.6326C61.122 47.632 61.1081 47.6321 61.0942 47.6317C61.0934 47.6317 61.0926 47.6316 61.0918 47.6316H61.0886C61.024 47.6296 60.9597 47.6296 60.8957 47.6316H53.5975C53.3124 44.8512 51.7675 42.3251 49.4015 40.8047C49.3184 40.4965 49.162 40.2086 48.9401 39.9719C48.5676 39.5742 48.0415 39.3462 47.4969 39.3462H39.15V34.5207C41.4499 32.6344 42.9939 29.8591 43.2525 26.725H44.425C46.0837 26.725 47.4334 25.3755 47.4334 23.7166V20.5075C47.466 20.5091 47.4982 20.5125 47.5312 20.5125H49.6021C50.69 20.5125 51.575 19.6275 51.575 18.5396V15.4334C51.575 14.615 51.2353 13.8215 50.643 13.2565C50.3123 12.941 49.9244 12.7105 49.5041 12.5731V6.01662H51.7084C52.7767 6.01662 53.6459 5.1475 53.6459 4.07912V1.9375C53.6459 0.869125 52.7767 0 51.7084 0H44.1632C43.6454 0 43.2257 0.41975 43.2257 0.9375C43.2257 1.45525 43.6454 1.875 44.1632 1.875H47.6292V4.14162H12.2917C12.2574 4.14162 12.2292 4.11363 12.2292 4.07912V1.9375C12.2292 1.903 12.2574 1.875 12.2917 1.875H40.4132C40.9311 1.875 41.3507 1.45525 41.3507 0.9375C41.3507 0.41975 40.9311 0 40.4132 0H12.2917C11.2234 0 10.3542 0.869125 10.3542 1.9375V4.07912C10.3542 5.1475 11.2234 6.01662 12.2917 6.01662H20.7084V16.5041V16.5665H19.575C17.9163 16.5665 16.5667 17.916 16.5667 19.5748V23.7165C16.5667 25.3752 17.9163 26.7249 19.575 26.7249H20.7477C21.0065 29.8589 22.5502 32.6339 24.8499 34.5202V39.346H16.503C15.9584 39.346 15.4323 39.574 15.0597 39.9716C14.7211 40.333 14.534 40.8121 14.5315 41.3031C12.2016 42.9036 10.7186 45.1931 10.4137 47.6314H3.10975C3.04338 47.6292 2.97675 47.6291 2.90975 47.6314H2.90812C2.90775 47.6314 2.90725 47.6315 2.90687 47.6315C2.89262 47.632 2.87838 47.6317 2.86413 47.6325C1.258 47.7081 0 49.0537 0 50.696V58.9209C0 60.5798 1.3495 61.9291 3.00825 61.9291H5.275C5.79288 61.9291 6.2125 61.5094 6.2125 60.9916C6.2125 60.4739 5.79288 60.0541 5.275 60.0541H3.00825C2.38337 60.0541 1.875 59.5457 1.875 58.9209V50.696C1.875 50.0713 2.35275 49.5402 2.942 49.5065H3.07525C3.34362 49.5223 3.59387 49.6296 3.79037 49.8172C4.01687 50.0334 4.14162 50.3246 4.14162 50.6375V54.7791C4.14162 56.438 5.49125 57.7874 7.15 57.7874H23.2857C23.5672 58.6004 23.9589 59.3616 24.4438 60.054H9.025C8.50712 60.054 8.0875 60.4738 8.0875 60.9915C8.0875 61.5093 8.50712 61.929 9.025 61.929H26.1856C27.7733 63.2226 29.7973 64 32 64C34.2028 64 36.2268 63.2226 37.8144 61.9291H60.9916C62.6505 61.9291 63.9999 60.5796 63.9999 58.9209V50.696C64 49.0537 62.7419 47.7081 61.1359 47.6326ZM39.558 49.5065H58.2064C58.0614 49.8633 57.9834 50.2474 57.9834 50.6375V54.7791C57.9834 55.404 57.475 55.9124 56.85 55.9124H41.1488C41.1945 55.5406 41.2209 55.163 41.2209 54.7791C41.2209 52.8195 40.6044 51.002 39.558 49.5065ZM51.7099 47.6315H47.892C48.5682 46.1759 49.0339 44.6469 49.285 43.06C50.6131 44.236 51.4815 45.8631 51.7099 47.6315ZM47.5718 41.2537C47.5978 41.2815 47.596 41.3078 47.5955 41.3164C47.4499 43.5504 46.8447 45.6719 45.797 47.6315H37.8174C37.1935 47.1229 36.5016 46.6955 35.7584 46.3623C37.5399 45.2568 38.8007 43.3908 39.0865 41.2211H47.4969C47.5336 41.2211 47.5579 41.2389 47.5718 41.2537ZM22.5834 14.3H41.4168L41.4166 16.5047C41.4163 16.539 41.3885 16.5666 41.3543 16.5666H22.6459C22.6115 16.5666 22.5834 16.5386 22.5834 16.5042V14.3ZM45.5584 23.7165C45.5584 24.3414 45.05 24.8499 44.425 24.8499H43.2918V18.4414H44.425C45.05 18.4414 45.5584 18.9498 45.5584 19.5748V23.7165ZM49.7001 18.5396C49.7001 18.5936 49.6561 18.6375 49.6022 18.6375H47.5312C47.4772 18.6375 47.4334 18.5935 47.4334 18.5396V15.4919C47.4334 14.8634 47.9166 14.3294 48.5106 14.3014C48.5292 14.3005 48.5479 14.3 48.5662 14.3C48.8599 14.3 49.136 14.41 49.3488 14.6131C49.5754 14.8292 49.7001 15.1205 49.7001 15.4334V18.5396ZM49.5041 1.875H51.7084C51.7427 1.875 51.7709 1.903 51.7709 1.9375V4.07912C51.7709 4.11363 51.7427 4.14162 51.7084 4.14162H49.5041V1.875ZM47.6291 12.5761C46.421 12.9768 45.5584 14.1322 45.5584 15.4917V16.7887C45.2083 16.6458 44.8259 16.5664 44.425 16.5664H43.2918V16.5065C43.2918 16.5056 43.2919 16.5049 43.2919 16.5041V6.01662H47.6292V12.5761H47.6291ZM41.4168 6.01662V12.425H22.5834V6.01662H41.4168ZM18.4416 23.7166V19.5749C18.4416 18.95 18.95 18.4416 19.5749 18.4416H20.7084L20.7085 24.8501H19.575C18.9501 24.85 18.4416 24.3415 18.4416 23.7166ZM22.5835 25.7879L22.5834 18.4385C22.6043 18.4391 22.6248 18.4416 22.6459 18.4416H41.3543C41.3753 18.4416 41.3958 18.4391 41.4166 18.4385V25.7879C41.4166 30.9801 37.1924 35.2044 32 35.2044C26.8078 35.2044 22.5835 30.9801 22.5835 25.7879ZM32 37.0794C33.9043 37.0794 35.6995 36.6049 37.2749 35.7689V40.2834C37.2749 43.192 34.9085 45.5584 31.9999 45.5584C29.0912 45.5584 26.7249 43.192 26.7249 40.2834V35.7687C28.3002 36.6047 30.0956 37.0794 32 37.0794ZM16.428 41.2536C16.4419 41.2388 16.4662 41.2211 16.503 41.2211H24.9134C25.199 43.3909 26.46 45.2569 28.2416 46.3624C27.4985 46.6955 26.8066 47.1229 26.1828 47.6315H18.2033C17.1555 45.6722 16.55 43.5509 16.4044 41.3164C16.4037 41.3078 16.402 41.2814 16.428 41.2536ZM14.784 43.4715C15.0474 44.9119 15.4904 46.3022 16.108 47.6316H12.308C12.5632 46.0985 13.4356 44.6364 14.784 43.4715ZM7.15 55.9125C6.525 55.9125 6.01662 55.4041 6.01662 54.7793V50.6375C6.01662 50.2474 5.93862 49.8633 5.79362 49.5065H24.442C23.3955 51.002 22.7791 52.8195 22.7791 54.7791C22.7791 55.163 22.8055 55.5406 22.8512 55.9124L7.15 55.9125ZM24.6541 54.7791C24.6541 50.7286 27.9494 47.4333 32 47.4333C36.0506 47.4333 39.3459 50.7286 39.3459 54.7791C39.3459 58.8296 36.0505 62.125 32 62.125C27.9495 62.125 24.6541 58.8296 24.6541 54.7791ZM62.125 58.9209C62.125 59.5457 61.6166 60.0541 60.9917 60.0541H39.5563C40.041 59.3618 40.4327 58.6004 40.7142 57.7875H56.85C58.5089 57.7875 59.8584 56.438 59.8584 54.7793V50.6375C59.8584 50.3246 59.9831 50.0334 60.2096 49.8172C60.4061 49.6296 60.6559 49.5223 60.9249 49.5065H61.0581C61.6474 49.5401 62.1251 50.0711 62.1251 50.696V58.9209H62.125Z" fill="#1882FF"/>
</g>
<defs>
<clipPath id="clip0_304_22791">
<rect width="64" height="64" fill="white"/>
</clipPath>
</defs>
</svg>
