<svg width="124" height="124" viewBox="0 0 124 124" fill="none" xmlns="http://www.w3.org/2000/svg">
<path d="M57.6581 83.5258L35.6886 121.578L31.4249 105.667L15.4551 109.946L37.4461 71.8564L57.6581 83.5258Z" fill="#ADEEFA"/>
<path d="M86.5527 71.8564L108.544 109.946L92.5737 105.667L88.3103 121.578L66.3408 83.5258L86.5527 71.8564Z" fill="#ADEEFA"/>
<path d="M66.3181 3.28135C71.1447 1.30601 76.6962 2.79351 79.8883 6.91738C81.7512 9.32388 84.485 10.9022 87.5004 11.3123C92.668 12.015 96.7318 16.0788 97.4345 21.2464C97.8446 24.2619 99.423 26.9958 101.829 28.8586C105.953 32.0508 107.441 37.6021 105.465 42.4287C104.313 45.2453 104.313 48.4019 105.465 51.2185C107.441 56.0451 105.953 61.5966 101.829 64.7887C99.423 66.6516 97.8446 69.3854 97.4345 72.4008C96.7318 77.5684 92.668 81.6322 87.5004 82.3349C84.485 82.745 81.751 84.3233 79.8883 86.7299C76.696 90.8537 71.1447 92.3412 66.3181 90.3659C63.5016 89.2131 60.3449 89.2131 57.5283 90.3659C52.7017 92.3412 47.1502 90.8537 43.9582 86.7299C42.0952 84.3233 39.3615 82.745 36.346 82.3349C31.1784 81.6322 27.1146 77.5684 26.4119 72.4008C26.0018 69.3854 24.4235 66.6514 22.017 64.7887C17.8931 61.5964 16.4056 56.0451 18.381 51.2185C19.5337 48.4019 19.5337 45.2453 18.381 42.4287C16.4056 37.6021 17.8931 32.0506 22.017 28.8586C24.4235 26.9956 26.0018 24.2619 26.4119 21.2464C27.1146 16.0788 31.1784 12.015 36.346 11.3123C39.3615 10.9022 42.0955 9.32388 43.9582 6.91738C47.1504 2.79351 52.7017 1.30601 57.5283 3.28135C60.3449 4.4341 63.5016 4.4341 66.3181 3.28135Z" fill="#FFEC80"/>
<path d="M61.9995 76.7052C78.0528 76.7052 91.0665 63.6914 91.0665 47.6382C91.0665 31.585 78.0528 18.5713 61.9995 18.5713C45.9463 18.5713 32.9326 31.585 32.9326 47.6382C32.9326 63.6914 45.9463 76.7052 61.9995 76.7052Z" fill="white"/>
<path d="M59.2263 61.2473L45.0918 47.1128L52.6284 39.5767L59.2263 46.1749L71.371 34.0303L78.9071 41.5666L59.2263 61.2473Z" fill="#FF7D97"/>
<path d="M110.642 108.735L94.9551 81.5647C97.5569 79.3738 99.3549 76.2578 99.8352 72.7269C100.162 70.326 101.396 68.1869 103.312 66.7037C108.279 62.8591 110.087 56.1139 107.708 50.3005C106.79 48.058 106.79 45.5881 107.708 43.3458C110.087 37.5324 108.279 30.7874 103.312 26.9426C101.396 25.4595 100.161 23.3204 99.8352 20.9194C98.9887 14.6957 94.0507 9.75774 87.827 8.91165C85.4263 8.58514 83.2872 7.35028 81.8043 5.43428C77.9592 0.467227 71.2147 -1.34001 65.4009 1.03888C63.1583 1.95667 60.6884 1.95667 58.4461 1.03888C52.6332 -1.34025 45.8877 0.467227 42.0429 5.43428C40.5598 7.35028 38.4207 8.58514 36.0198 8.91165C29.7958 9.75799 24.8581 14.6957 24.012 20.9197C23.6855 23.3206 22.4506 25.4597 20.5346 26.9428C15.5675 30.7877 13.7603 37.5329 16.1392 43.346C17.057 45.5883 17.057 48.0585 16.1392 50.3008C13.7601 56.1139 15.5675 62.8591 20.5346 66.704C22.4506 68.1871 23.6855 70.3262 24.012 72.7269C24.4984 76.3043 26.3383 79.4549 28.9953 81.6497L13.3577 108.735C12.868 109.583 12.9372 110.643 13.5338 111.42C14.1302 112.197 15.1357 112.539 16.0825 112.285L29.7127 108.633L33.3492 122.205C33.6028 123.151 34.4015 123.851 35.3728 123.979C35.4789 123.993 35.5847 124 35.6896 124C36.5466 124 37.3503 123.545 37.7865 122.789L54.6604 93.5628C55.9398 93.425 57.2139 93.1118 58.4459 92.6075C60.6884 91.6897 63.1586 91.6897 65.4006 92.6075C66.6851 93.1333 68.0154 93.4538 69.3498 93.5817L86.2125 122.789C86.649 123.545 87.4525 124 88.3095 124C88.4146 124 88.5202 123.993 88.6265 123.979C89.5979 123.851 90.3965 123.151 90.6501 122.205L94.2868 108.633L107.917 112.285C108.863 112.539 109.869 112.198 110.465 111.42C111.062 110.643 111.131 109.583 110.642 108.735ZM36.5149 115.302L33.7649 105.04C33.5985 104.419 33.1928 103.89 32.6364 103.569C32.08 103.248 31.4192 103.161 30.7984 103.327L20.477 106.092L33.2041 84.0482C34.104 84.3701 35.046 84.6024 36.0195 84.7349C38.4205 85.0614 40.5595 86.2963 42.0427 88.2123C43.925 90.644 46.503 92.3165 49.3261 93.113L36.5149 115.302ZM56.6108 88.1241C52.8057 89.6816 48.3904 88.4984 45.8735 85.2472C43.6077 82.3202 40.3398 80.4333 36.6721 79.9348C32.5981 79.3808 29.3656 76.1485 28.8119 72.0743C28.3132 68.4066 26.4265 65.139 23.4994 62.873C20.2481 60.3562 19.065 55.9407 20.6223 52.1356C22.0245 48.7098 22.0245 44.9367 20.6223 41.5109C19.065 37.7058 20.2481 33.2903 23.4994 30.7736C26.4265 28.5078 28.3132 25.2402 28.8119 21.5722C29.3659 17.4983 32.5981 14.2658 36.6721 13.7118C40.3398 13.2133 43.6077 11.3266 45.8735 8.39959C47.6485 6.10645 50.367 4.84228 53.1506 4.84228C54.314 4.84228 55.489 5.06344 56.6105 5.52245C60.0366 6.92445 63.8099 6.92445 67.2355 5.52245C71.0403 3.96495 75.4561 5.14821 77.9728 8.39959C80.2385 11.3266 83.5062 13.2133 87.1737 13.7118C91.2477 14.2658 94.4801 17.498 95.0341 21.5722C95.5328 25.2402 97.4195 28.5078 100.347 30.7736C103.598 33.2903 104.781 37.7056 103.224 41.5109C101.822 44.9367 101.822 48.7098 103.224 52.1356C104.781 55.9407 103.598 60.3562 100.347 62.873C97.4195 65.1387 95.5328 68.4063 95.0341 72.0741C94.4801 76.1483 91.2477 79.3808 87.1739 79.9345C83.5059 80.433 80.2383 82.3197 77.9725 85.247C75.4556 88.4986 71.0403 89.6814 67.2355 88.1239C63.8097 86.7221 60.0368 86.7221 56.6108 88.1241ZM93.2007 103.327C91.908 102.98 90.5806 103.748 90.2342 105.04L87.484 115.302L74.6509 93.0747C77.4227 92.2637 79.9505 90.6064 81.804 88.2123C83.2869 86.2961 85.426 85.0612 87.8267 84.7349C88.8457 84.5964 89.8297 84.3461 90.7673 84.0005L103.522 106.092L93.2007 103.327Z" fill="black"/>
<path d="M50.9157 37.8631L43.3794 45.3992C42.9252 45.8534 42.6699 46.4696 42.6699 47.112C42.6699 47.7543 42.9252 48.3706 43.3794 48.8247L57.5139 62.9595C57.9681 63.4137 58.5843 63.669 59.2267 63.669C59.8691 63.669 60.4853 63.4137 60.9395 62.9595L80.6202 43.2788C81.5661 42.3329 81.5661 40.7991 80.6202 39.8532L73.0841 32.3169C72.6297 31.8627 72.0137 31.6074 71.3713 31.6074C70.729 31.6074 70.1127 31.8627 69.6586 32.3169L59.2269 42.7488L54.3417 37.8634C53.8876 37.4092 53.2714 37.1539 52.629 37.1539C51.9861 37.1536 51.3699 37.4089 50.9157 37.8631ZM57.5137 47.8871C57.9678 48.3413 58.5841 48.5966 59.2264 48.5966C59.8688 48.5966 60.485 48.3413 60.9392 47.8871L71.3708 37.4552L75.4816 41.566L59.2264 57.8212L48.5177 47.1122L52.6285 43.0017L57.5137 47.8871Z" fill="black"/>
<path d="M93.4888 47.6381C93.4888 41.2036 91.5605 35.0153 87.9126 29.742C84.3502 24.5931 79.4018 20.6557 73.6025 18.356C72.3584 17.8631 70.9511 18.4713 70.4579 19.7149C69.9647 20.9585 70.5732 22.3663 71.8165 22.8595C82.0391 26.9131 88.6446 36.6394 88.6446 47.6381C88.6446 62.3299 76.6918 74.2827 61.9999 74.2827C47.308 74.2827 35.3552 62.3299 35.3552 47.6381C35.3552 36.6391 41.9607 26.9129 52.1833 22.8592C53.4269 22.3661 54.0353 20.9583 53.5422 19.7147C53.049 18.4711 51.6409 17.8626 50.3976 18.3558C44.598 20.6557 39.6496 24.5928 36.0872 29.7418C32.4391 35.015 30.5107 41.2034 30.5107 47.6378C30.5107 65.0009 44.6368 79.127 61.9999 79.127C79.363 79.1272 93.4888 65.0012 93.4888 47.6381Z" fill="black"/>
<path d="M61.9994 20.9929C62.6364 20.9929 63.2614 20.7362 63.7117 20.2832C64.1622 19.8327 64.4216 19.2102 64.4216 18.5707C64.4216 17.9336 64.1625 17.3087 63.7117 16.8582C63.2614 16.4076 62.6364 16.1484 61.9994 16.1484C61.3623 16.1484 60.7374 16.4076 60.2869 16.8582C59.8363 17.3087 59.5771 17.9336 59.5771 18.5707C59.5771 19.2102 59.8363 19.8327 60.2869 20.2832C60.7374 20.7362 61.3623 20.9929 61.9994 20.9929Z" fill="black"/>
</svg>
