<svg width="80" height="80" viewBox="0 0 80 80" fill="none" xmlns="http://www.w3.org/2000/svg">
<g clip-path="url(#clip0_888_5340)">
<path d="M56.8524 74.613C69.4535 65.6341 76.6727 51.0445 79.681 35.6531C81.2147 27.8033 76.961 19.9228 69.5652 16.915C66.8032 15.7902 64.6343 13.4208 63.7647 10.5763C61.8096 4.19016 55.9275 0 49.4357 0H42.5739C11.8477 5.09094 6.06035 71.0316 39.7552 79.9991C45.9786 80.05 51.8813 78.1548 56.8524 74.613Z" fill="#FB8798"/>
<path d="M32.3329 34.5895C33.6494 21.2113 37.3971 9.18547 42.5738 0H30.5649C27.3423 0 24.2682 1.00688 21.6743 2.91391C19.0626 4.83391 17.1829 7.48281 16.2358 10.5763C15.3663 13.4208 13.1974 15.79 10.4354 16.915C3.0396 19.9228 -1.21415 27.8033 0.319598 35.6531C3.32475 51.0284 10.5374 65.6272 23.1482 74.613C28.0288 78.0905 33.7668 79.9495 39.7551 79.9991C33.598 69.1178 30.5576 52.6297 32.3329 34.5895Z" fill="#FB6276"/>
<path d="M68.7974 46.0611C70.3886 41.9144 71.6447 37.2109 72.222 33.9397C69.1631 25.877 50.5266 22.4444 34.0372 23.4695C21.2908 27.6325 17.1842 47.0309 32.1613 52.7325C47.022 53.5739 64.8527 51.1014 68.7974 46.0611Z" fill="#05DBB7"/>
<path d="M34.0374 23.4697C21.1641 24.27 9.59957 27.7871 7.77832 33.9399C8.35113 37.1861 9.60301 41.8919 11.203 46.0613C13.1408 50.0114 21.95 52.1543 32.1614 52.7325C31.3382 42.8919 32.0916 32.7193 34.0374 23.4697Z" fill="#0BCC97"/>
<path d="M52.4157 68.3859C60.7586 62.4415 65.78 53.9436 68.7975 46.0615C68.7814 46.0615 48.3592 46.0615 31.8409 46.0615C21.2911 49.7981 26.042 67.2287 36.1464 72.0036C41.7146 73.0212 47.6003 71.8173 52.4157 68.3859Z" fill="#FCE299"/>
<path d="M11.2031 46.0615C14.2205 53.9437 19.242 62.4415 27.5848 68.3859C30.1973 70.2476 33.1255 71.4515 36.1466 72.0036C33.5073 64.6042 31.9716 55.7173 31.8411 46.0615C20.6284 46.0615 11.2144 46.0615 11.2031 46.0615Z" fill="#FDCD64"/>
<path d="M66.6848 23.9974C61.8008 22.0112 58.0092 17.8996 56.4528 12.8118C55.5122 9.73461 52.6531 7.64648 49.4353 7.64648H38.8715C27.4494 10.3438 23.6744 30.9502 32.3989 33.9402H72.222C72.9234 29.7495 70.6397 25.6038 66.6848 23.9974Z" fill="#ECEAF5"/>
<path d="M30.5647 7.64648C27.3454 7.64648 24.4879 9.73461 23.5472 12.8134C21.9908 17.8995 18.1977 22.0112 13.3152 23.9974C9.36036 25.604 7.07677 29.7495 7.77817 33.9402H32.399C33.4118 24.2605 35.6971 15.3063 38.8716 7.64648H30.5647Z" fill="#DBD8F1"/>
<path d="M56.9686 44.5048C56.9686 44.4773 56.9719 37.7038 56.9719 37.6763C56.9719 30.0826 51.9713 23.6243 45.0542 21.4707C22.463 21.4707 16.968 55.4546 44.8677 54.2235C46.7152 53.9791 48.568 53.6068 50.4263 53.1112C54.1985 52.0668 56.9686 48.6082 56.9686 44.5048Z" fill="#F38054"/>
<path d="M33.1316 44.5056C33.1316 37.4642 33.1303 37.8055 33.1331 37.7322L33.1378 37.7292C33.137 37.7117 33.1347 37.6947 33.1347 37.677C33.1347 30.0636 38.1483 23.6212 45.0541 21.4714C43.4592 20.9748 41.7625 20.707 40.0017 20.707C30.6294 20.707 23.0317 28.3047 23.0317 37.677C23.0317 37.6945 23.0341 37.7117 23.0348 37.7292L23.0302 37.7322C23.0273 37.8055 23.0286 37.4642 23.0286 44.5056C23.0286 48.6091 25.7988 52.0678 29.5709 53.1119C34.6225 54.5856 39.7238 54.9048 44.8677 54.2242C43.1308 53.9839 41.3995 53.6153 39.6739 53.1119C35.9017 52.0677 33.1316 48.6091 33.1316 44.5056Z" fill="#E96339"/>
<path d="M49.3934 59.2948H30.6105C29.0368 59.2948 27.8669 57.8153 28.2559 56.2905C29.1257 52.8805 31.4418 50.0481 34.5134 48.4858C37.9507 46.5464 42.0529 46.5464 45.4905 48.4858C48.5621 50.0481 50.8782 52.8805 51.748 56.2905C52.1369 57.8155 50.9671 59.2948 49.3934 59.2948Z" fill="#5A6CD9"/>
<path d="M28.8485 32.9246C32.8731 32.9246 32.8731 42.4278 28.8485 42.4278C25.8236 43.039 23.0317 40.7256 23.0317 37.6762C23.0317 34.6267 25.8236 32.3134 28.8485 32.9246Z" fill="#FFB09E"/>
<path d="M52.1235 32.8281C54.8015 32.8281 56.9721 34.9986 56.9721 37.6767C56.9721 40.7263 54.1802 43.0395 51.1554 42.4283C47.491 42.4289 47.4893 32.9258 51.1538 32.9252C51.3102 32.9014 51.6085 32.8281 52.1235 32.8281Z" fill="#FFCEBF"/>
<path d="M47.8288 28.4265C47.3905 28.0553 46.7398 28.1051 46.3401 28.5176C43.7738 31.1667 39.9194 32.522 38.644 30.4504C38.5735 30.336 38.4763 30.2474 38.3641 30.1864C28.8485 31.5356 28.8485 50.3239 44.2383 49.0354C48.8413 47.3171 52.1232 42.8821 52.1232 37.6771C52.1232 34.0662 50.5232 30.7084 47.8288 28.4265Z" fill="#FFDFCF"/>
<path d="M36.2849 37.2254C36.2849 34.6537 37.0374 32.2191 38.3645 30.1858C38.1762 30.0832 37.9459 30.0579 37.7287 30.1188C35.6637 30.6969 34.0834 29.9815 33.9498 28.1394C33.9185 27.7098 33.424 27.4893 33.0707 27.7357C29.8623 29.9724 27.8809 33.651 27.8809 37.6768C27.8809 44.3665 33.3054 49.7982 40.0023 49.7982C41.4926 49.7982 42.9196 49.5276 44.2388 49.0351C39.5963 47.2713 36.2849 42.6466 36.2849 37.2254Z" fill="#FFCEBF"/>
<path d="M40.0019 44.95C38.6333 44.95 37.3305 44.357 36.4272 43.3233C35.9868 42.8192 36.0385 42.0535 36.5426 41.6128C37.0468 41.1727 37.8126 41.2241 38.2529 41.7281C39.1799 42.7891 40.8216 42.7927 41.7483 41.7292C42.1882 41.2245 42.9538 41.172 43.4586 41.6117C43.9633 42.0516 44.0158 42.8172 43.5761 43.322C42.6744 44.3567 41.3716 44.95 40.0019 44.95Z" fill="#425460"/>
<path d="M33.9412 38.8891C33.2718 38.8891 32.729 38.3465 32.729 37.677V35.7376C32.729 35.0682 33.2717 34.5254 33.9412 34.5254C34.6106 34.5254 35.1534 35.068 35.1534 35.7376V37.677C35.1532 38.3465 34.6106 38.8891 33.9412 38.8891Z" fill="#425460"/>
<path d="M46.0628 38.8891C45.3934 38.8891 44.8506 38.3465 44.8506 37.677V35.7376C44.8506 35.0682 45.3932 34.5254 46.0628 34.5254C46.7321 34.5254 47.275 35.068 47.275 35.7376V37.677C47.2748 38.3465 46.7321 38.8891 46.0628 38.8891Z" fill="#425460"/>
</g>
<defs>
<clipPath id="clip0_888_5340">
<rect width="80" height="80" fill="white"/>
</clipPath>
</defs>
</svg>
