<svg width="64" height="64" viewBox="0 0 64 64" fill="none" xmlns="http://www.w3.org/2000/svg">
<path fill-rule="evenodd" clip-rule="evenodd" d="M38.6953 45.9066C38.2466 45.9066 37.8829 45.5429 37.8829 45.0941V39.3588C37.8829 35.5808 34.8092 32.5074 31.0311 32.5074H26.1114C25.6626 32.5074 25.2989 32.1436 25.2989 31.6949C25.2989 31.2461 25.6626 30.8825 26.1114 30.8825H31.0311C35.7052 30.8825 39.5078 34.685 39.5078 39.359V45.0943C39.5078 45.5429 39.1441 45.9066 38.6953 45.9066ZM6.48482 45.9066C6.03614 45.9066 5.67236 45.5429 5.67236 45.0941V39.3588C5.67236 34.6849 9.47494 30.8823 14.149 30.8823H19.0692C19.518 30.8823 19.8817 31.2461 19.8817 31.6948C19.8817 32.1436 19.518 32.5072 19.0692 32.5072H14.1492C10.3711 32.5072 7.29726 35.5808 7.29726 39.3587V45.094C7.29726 45.5429 6.93349 45.9066 6.48482 45.9066Z" fill="#1882FF"/>
<path fill-rule="evenodd" clip-rule="evenodd" d="M22.59 37.2253C22.3336 37.2253 22.0922 37.1043 21.9389 36.8989L18.4178 32.1808C18.1493 31.8212 18.2233 31.312 18.583 31.0437C18.9425 30.7755 19.4517 30.8491 19.7199 31.2088L22.5902 35.0546L25.4602 31.2089C25.7288 30.8493 26.2379 30.7753 26.5974 31.0437C26.957 31.3121 27.031 31.8212 26.7626 32.1808L23.2412 36.8991C23.0878 37.1044 22.8465 37.2253 22.59 37.2253Z" fill="#1882FF"/>
<path fill-rule="evenodd" clip-rule="evenodd" d="M25.0528 44.0862C24.7195 44.0862 24.4071 43.8798 24.288 43.5479L22.5878 38.8107L20.8978 43.4907C20.7453 43.9128 20.2796 44.1315 19.8575 43.9788C19.4356 43.8266 19.2169 43.361 19.3693 42.9389L21.826 36.1361C21.9422 35.8141 22.2478 35.5996 22.5902 35.5996H22.5909C22.9336 35.6001 23.2392 35.8152 23.3549 36.1378L25.8174 42.9991C25.9689 43.4213 25.7495 43.8867 25.3272 44.0382C25.2366 44.0708 25.144 44.0862 25.0528 44.0862Z" fill="#1882FF"/>
<path fill-rule="evenodd" clip-rule="evenodd" d="M19.0693 32.5071C18.6206 32.5071 18.2568 32.1434 18.2568 31.6947V28.9511C18.2568 28.5023 18.6206 28.1387 19.0693 28.1387C19.5181 28.1387 19.8817 28.5023 19.8817 28.9511V31.6945C19.8817 32.1432 19.518 32.5071 19.0693 32.5071Z" fill="#1882FF"/>
<path fill-rule="evenodd" clip-rule="evenodd" d="M26.1118 32.5071C25.6631 32.5071 25.2993 32.1434 25.2993 31.6947V28.9511C25.2993 28.5023 25.6631 28.1387 26.1118 28.1387C26.5606 28.1387 26.9242 28.5023 26.9242 28.9511V31.6945C26.9242 32.1432 26.5606 32.5071 26.1118 32.5071Z" fill="#1882FF"/>
<path fill-rule="evenodd" clip-rule="evenodd" d="M22.5902 30.7729C18.4547 30.7729 15.0903 27.4085 15.0903 23.2729V20.4183C15.0903 20.1524 15.2205 19.903 15.4391 19.7512C15.6576 19.5993 15.9364 19.5639 16.1858 19.6568L22.479 21.9956L29.0004 19.6278C29.2497 19.5375 29.527 19.5742 29.744 19.7261C29.961 19.8782 30.0902 20.1265 30.0902 20.3916V23.273C30.0901 27.4085 26.7257 30.7729 22.5902 30.7729ZM16.7152 21.5871V23.2729C16.7152 26.5123 19.3507 29.148 22.5902 29.148C25.8297 29.148 28.465 26.5125 28.465 23.2729V21.5508L22.7529 23.6248C22.5718 23.6907 22.3733 23.6899 22.1925 23.6228L16.7152 21.5871Z" fill="#1882FF"/>
<path fill-rule="evenodd" clip-rule="evenodd" d="M22.4757 23.6737C22.3799 23.6737 22.2839 23.6567 22.1925 23.6228L10.9962 19.4617C10.6869 19.3467 10.478 19.0563 10.4672 18.7265C10.4565 18.3968 10.6463 18.0933 10.9475 17.9585L21.8941 13.0609C22.0997 12.9693 22.334 12.9665 22.5409 13.0538L34.2159 17.9642C34.5241 18.0939 34.7214 18.399 34.7131 18.7334C34.7049 19.0677 34.4924 19.3627 34.1782 19.4768L22.753 23.6248C22.6633 23.6575 22.5696 23.6737 22.4757 23.6737ZM13.4246 18.6307L22.4791 21.9957L31.6733 18.6576L22.2361 14.6883L13.4246 18.6307Z" fill="#1882FF"/>
<path fill-rule="evenodd" clip-rule="evenodd" d="M11.2797 24.4037C10.8311 24.4037 10.4673 24.0399 10.4673 23.5913V18.7001C10.4673 18.2513 10.8311 17.8877 11.2797 17.8877C11.7286 17.8877 12.0922 18.2513 12.0922 18.7001V23.5913C12.0922 24.0399 11.7284 24.4037 11.2797 24.4037Z" fill="#1882FF"/>
<path fill-rule="evenodd" clip-rule="evenodd" d="M44.3662 59.4963H0.813928C0.561466 59.4963 0.323178 59.3789 0.169339 59.1784C0.0156475 58.9779 -0.0361737 58.7175 0.0290825 58.4734L3.67028 44.8838C3.76551 44.5286 4.08736 44.2817 4.45513 44.2817H9.10987C9.55869 44.2817 9.92232 44.6454 9.92232 45.0942C9.92232 45.5429 9.55869 45.9066 9.10987 45.9066H5.0786L1.87279 57.8714H43.3073L40.1016 45.9066H36.0702C35.6215 45.9066 35.2577 45.5429 35.2577 45.0942C35.2577 44.6454 35.6215 44.2817 36.0702 44.2817H40.7251C41.0929 44.2817 41.4149 44.5287 41.5098 44.8838L45.1508 58.4734C45.2162 58.7175 45.1644 58.9779 45.0107 59.1784C44.8569 59.3789 44.6186 59.4963 44.3662 59.4963Z" fill="#1882FF"/>
<path fill-rule="evenodd" clip-rule="evenodd" d="M22.6957 56.9873C22.5056 56.9873 22.3175 56.9206 22.1673 56.7921C20.9831 55.779 19.0396 55.2653 16.3908 55.2653C11.6759 55.2653 6.44179 56.9312 6.38953 56.9482C6.10636 57.0393 5.79588 56.9683 5.58047 56.7632C5.36522 56.5583 5.27885 56.2518 5.35577 55.9645L8.32492 44.8839C8.3825 44.6687 8.52615 44.4865 8.72192 44.3803C11.6146 42.809 14.4402 42.0122 17.1205 42.0122C20.9394 42.0122 23.1011 43.6442 23.1914 43.7137C23.391 43.8674 23.5079 44.1053 23.5079 44.3571V56.1748C23.5079 56.4918 23.3235 56.7802 23.0353 56.9127C22.9268 56.9628 22.8109 56.9873 22.6957 56.9873ZM9.80337 45.645L7.29809 54.9948C9.24249 54.4739 12.8992 53.6403 16.3908 53.6403C18.6364 53.6403 20.4758 53.9907 21.8831 54.6841V44.7996C21.2288 44.4202 19.58 43.6371 17.1206 43.6371C14.807 43.6371 12.3469 44.3124 9.80337 45.645Z" fill="#1882FF"/>
<path fill-rule="evenodd" clip-rule="evenodd" d="M22.6956 56.9869C22.5804 56.9869 22.4646 56.9624 22.3559 56.9124C22.0677 56.7797 21.8833 56.4915 21.8833 56.1744V44.3568C21.8833 44.1046 22.0002 43.8671 22.1997 43.7134C22.2899 43.6437 24.4516 42.0117 28.2706 42.0117C30.9508 42.0117 33.7765 42.8087 36.6691 44.3798C36.8647 44.4863 37.0084 44.6685 37.0661 44.8834L40.0184 55.9015C40.0489 55.9867 40.0655 56.0787 40.0655 56.1744C40.0655 56.6232 39.7018 56.987 39.2529 56.987C39.2519 56.9868 39.251 56.9868 39.2504 56.987C39.1661 56.987 39.082 56.9738 39.002 56.9478C38.7877 56.8792 33.6997 55.2649 29.0004 55.2649C26.3514 55.2649 24.4079 55.7785 23.2237 56.7918C23.0739 56.9202 22.8858 56.9869 22.6956 56.9869ZM29.0004 53.64C32.4948 53.64 36.1497 54.4733 38.0932 54.9943L35.5878 45.6448C33.0443 44.3121 30.5844 43.6368 28.2706 43.6368C25.7861 43.6368 24.1563 44.4154 23.5082 44.7959V54.6838C24.9156 53.9903 26.7548 53.64 29.0004 53.64Z" fill="#1882FF"/>
<path fill-rule="evenodd" clip-rule="evenodd" d="M22.6958 59.4958C22.2469 59.4958 21.8833 59.1321 21.8833 58.6834V56.1743C21.8833 55.7256 22.2469 55.3618 22.6958 55.3618C23.1444 55.3618 23.5082 55.7256 23.5082 56.1743V58.6834C23.5082 59.1321 23.1444 59.4958 22.6958 59.4958Z" fill="#1882FF"/>
<path fill-rule="evenodd" clip-rule="evenodd" d="M49.8645 16.69C49.7685 16.69 49.6727 16.6731 49.5813 16.6393L36.5275 11.7874C36.2182 11.6725 36.0092 11.382 35.9985 11.0522C35.9878 10.7225 36.1776 10.419 36.4789 10.2843L49.2418 4.57424C49.4471 4.48241 49.6813 4.47975 49.8886 4.56701L63.5008 10.2923C63.8091 10.4219 64.0063 10.7271 63.9981 11.0615C63.9898 11.3957 63.7775 11.6908 63.4632 11.8048L50.1419 16.6415C50.0523 16.6738 49.9584 16.69 49.8645 16.69ZM38.9555 10.9564L49.8678 15.012L60.958 10.9856L49.5836 6.20152L38.9555 10.9564Z" fill="#1882FF"/>
<path fill-rule="evenodd" clip-rule="evenodd" d="M36.8105 17.5413C36.3617 17.5413 35.998 17.1775 35.998 16.7288V11.026C35.998 10.5772 36.3617 10.2134 36.8105 10.2134C37.2592 10.2134 37.623 10.5772 37.623 11.026V16.7287C37.623 17.1775 37.2592 17.5413 36.8105 17.5413Z" fill="#1882FF"/>
<path fill-rule="evenodd" clip-rule="evenodd" d="M56.5395 23.3151H43.4579C41.9039 23.3151 40.6396 22.0511 40.6396 20.4972V13.1824C40.6396 12.987 40.6603 12.7905 40.7011 12.5985C40.7501 12.3675 40.8973 12.1692 41.1043 12.0555C41.3113 11.9417 41.5575 11.9237 41.7788 12.0059L49.8681 15.0123L58.2186 11.9805C58.4382 11.9008 58.681 11.9192 58.8858 12.0312C59.0904 12.1431 59.2372 12.3377 59.2887 12.5652C59.3343 12.7673 59.3574 12.975 59.3574 13.1824V20.4972C59.3572 22.0511 58.0933 23.3151 56.5395 23.3151ZM42.2645 13.92V20.4972C42.2645 21.155 42.7999 21.6902 43.4579 21.6902L56.5395 21.6904C57.1972 21.6904 57.7323 21.1552 57.7323 20.4973V13.8858L50.1421 16.6414C49.9611 16.7073 49.7623 16.7066 49.5816 16.6394L42.2645 13.92Z" fill="#1882FF"/>
</svg>
