<svg width="44" height="44" viewBox="0 0 44 44" fill="none" xmlns="http://www.w3.org/2000/svg">
<g clip-path="url(#clip0_304_22791)">
<path d="M21.9999 19.7974C22.7347 19.7974 23.4207 19.4015 23.7901 18.7642C23.9686 18.4562 23.8636 18.0619 23.5556 17.8834C23.2477 17.7049 22.8533 17.8098 22.6747 18.1178C22.5352 18.3587 22.2765 18.5083 21.9999 18.5083C21.7232 18.5083 21.4645 18.3587 21.3249 18.1178C21.1463 17.8098 20.752 17.705 20.4441 17.8834C20.1361 18.0619 20.031 18.4562 20.2095 18.7642C20.5791 19.4016 21.265 19.7974 21.9999 19.7974Z" fill="#FFBF00"/>
<path d="M19.1523 16.2377C19.5084 16.2377 19.7969 15.9491 19.7969 15.5932V14.8813C19.7969 14.5254 19.5084 14.2368 19.1523 14.2368C18.7963 14.2368 18.5078 14.5254 18.5078 14.8813V15.5932C18.5078 15.9491 18.7964 16.2377 19.1523 16.2377Z" fill="#FFBF00"/>
<path d="M24.8472 16.2377C25.2032 16.2377 25.4917 15.9491 25.4917 15.5932V14.8813C25.4917 14.5254 25.2032 14.2368 24.8472 14.2368C24.4911 14.2368 24.2026 14.5254 24.2026 14.8813V15.5932C24.2026 15.9491 24.4911 16.2377 24.8472 16.2377Z" fill="#FFBF00"/>
<path d="M22.0002 34.1689C20.0748 34.1689 18.5083 35.7354 18.5083 37.6608C18.5083 39.5863 20.0747 41.1527 22.0002 41.1527C23.9257 41.1527 25.4921 39.5863 25.4921 37.6608C25.4921 35.7354 23.9256 34.1689 22.0002 34.1689ZM22.0002 39.8638C20.7856 39.8638 19.7974 38.8756 19.7974 37.6609C19.7974 36.4463 20.7856 35.458 22.0002 35.458C23.2148 35.458 24.203 36.4462 24.203 37.6608C24.203 38.8755 23.2148 39.8638 22.0002 39.8638Z" fill="#FFBF00"/>
<path d="M22.1781 37.0161H21.8223C21.4662 37.0161 21.1777 37.3047 21.1777 37.6606C21.1777 38.0166 21.4662 38.3052 21.8223 38.3052H22.1781C22.5342 38.3052 22.8227 38.0166 22.8227 37.6606C22.8227 37.3047 22.5342 37.0161 22.1781 37.0161Z" fill="#FFBF00"/>
<path d="M42.0309 32.7474C42.0214 32.747 42.0118 32.7471 42.0023 32.7468C42.0017 32.7468 42.0012 32.7467 42.0006 32.7467H41.9984C41.954 32.7454 41.9098 32.7454 41.8658 32.7467H36.8483C36.6523 30.8352 35.5902 29.0985 33.9635 28.0533C33.9064 27.8413 33.7989 27.6434 33.6463 27.4807C33.3902 27.2073 33.0285 27.0505 32.6541 27.0505H26.9156V23.733C28.4968 22.4361 29.5583 20.5281 29.7361 18.3734H30.5422C31.6826 18.3734 32.6104 17.4457 32.6104 16.3052V14.0989C32.6329 14.1 32.655 14.1023 32.6777 14.1023H34.1015C34.8494 14.1023 35.4578 13.4939 35.4578 12.746V10.6104C35.4578 10.0478 35.2242 9.50228 34.8171 9.11384C34.5897 8.89694 34.323 8.73847 34.0341 8.64402V4.13643H35.5495C36.284 4.13643 36.8815 3.53891 36.8815 2.8044V1.33203C36.8815 0.597523 36.284 0 35.5495 0H30.3622C30.0062 0 29.7177 0.288578 29.7177 0.644531C29.7177 1.00048 30.0062 1.28906 30.3622 1.28906H32.7451V2.84737H8.45058C8.42695 2.84737 8.40761 2.82812 8.40761 2.8044V1.33203C8.40761 1.30831 8.42695 1.28906 8.45058 1.28906H27.7841C28.1401 1.28906 28.4286 1.00048 28.4286 0.644531C28.4286 0.288578 28.1401 0 27.7841 0H8.45058C7.71607 0 7.11855 0.597523 7.11855 1.33203V2.8044C7.11855 3.53891 7.71607 4.13643 8.45058 4.13643H14.237V11.3466V11.3895H13.4578C12.3174 11.3895 11.3896 12.3173 11.3896 13.4576V16.3051C11.3896 17.4455 12.3174 18.3734 13.4578 18.3734H14.2641C14.442 20.528 15.5033 22.4358 17.0843 23.7327V27.0504H11.3458C10.9714 27.0504 10.6097 27.2071 10.3536 27.4805C10.1208 27.7289 9.99212 28.0583 9.99041 28.3959C8.38862 29.4962 7.36905 31.0703 7.15945 32.7466H2.13795C2.09232 32.7451 2.04652 32.745 2.00045 32.7466H1.99934C1.99908 32.7466 1.99873 32.7467 1.99848 32.7467C1.98868 32.747 1.97888 32.7468 1.96909 32.7473C0.864875 32.7993 0 33.7245 0 34.8535V40.5081C0 41.6486 0.927781 42.5763 2.06817 42.5763H3.62656C3.9826 42.5763 4.27109 42.2877 4.27109 41.9317C4.27109 41.5758 3.9826 41.2872 3.62656 41.2872H2.06817C1.63857 41.2872 1.28906 40.9377 1.28906 40.5081V34.8535C1.28906 34.424 1.61752 34.0589 2.02262 34.0357H2.11423C2.29874 34.0465 2.47079 34.1204 2.60588 34.2494C2.7616 34.3979 2.84737 34.5982 2.84737 34.8133V37.6606C2.84737 38.8011 3.77523 39.7288 4.91563 39.7288H16.009C16.2025 40.2878 16.4717 40.8111 16.8051 41.2871H6.20469C5.84865 41.2871 5.56016 41.5757 5.56016 41.9317C5.56016 42.2876 5.84865 42.5762 6.20469 42.5762H18.0026C19.0941 43.4656 20.4856 44 22 44C23.5144 44 24.9059 43.4656 25.9974 42.5763H41.9317C43.0722 42.5763 43.9999 41.6485 43.9999 40.5081V34.8535C44 33.7245 43.135 32.7993 42.0309 32.7474ZM27.1961 34.0357H40.0169C39.9172 34.281 39.8636 34.5451 39.8636 34.8133V37.6606C39.8636 38.0903 39.5141 38.4398 39.0844 38.4398H28.2898C28.3212 38.1842 28.3394 37.9246 28.3394 37.6606C28.3394 36.3134 27.9155 35.0639 27.1961 34.0357ZM35.5505 32.7467H32.9257C33.3907 31.7459 33.7108 30.6947 33.8834 29.6038C34.7965 30.4123 35.3935 31.5309 35.5505 32.7467ZM32.7056 28.362C32.7235 28.381 32.7223 28.3991 32.7219 28.405C32.6218 29.9409 32.2058 31.3994 31.4854 32.7467H25.9994C25.5705 32.397 25.0949 32.1032 24.5839 31.874C25.8087 31.114 26.6755 29.8311 26.872 28.3395H32.6541C32.6794 28.3395 32.696 28.3517 32.7056 28.362ZM15.5261 9.83125H28.474L28.4739 11.347C28.4737 11.3706 28.4546 11.3896 28.431 11.3896H15.569C15.5454 11.3896 15.5261 11.3703 15.5261 11.3467V9.83125ZM31.3214 16.3051C31.3214 16.7347 30.9719 17.0843 30.5422 17.0843H29.7631V12.6784H30.5422C30.9719 12.6784 31.3214 13.028 31.3214 13.4576V16.3051ZM34.1688 12.746C34.1688 12.7831 34.1386 12.8133 34.1015 12.8133H32.6777C32.6406 12.8133 32.6104 12.783 32.6104 12.746V10.6507C32.6104 10.2186 32.9427 9.85145 33.3511 9.8322C33.3639 9.83159 33.3767 9.83125 33.3893 9.83125C33.5912 9.83125 33.781 9.90687 33.9273 10.0465C34.0831 10.1951 34.1688 10.3953 34.1688 10.6104V12.746ZM34.0341 1.28906H35.5495C35.5731 1.28906 35.5925 1.30831 35.5925 1.33203V2.8044C35.5925 2.82812 35.5731 2.84737 35.5495 2.84737H34.0341V1.28906ZM32.745 8.64609C31.9144 8.92152 31.3214 9.71592 31.3214 10.6506V11.5423C31.0807 11.444 30.8178 11.3894 30.5422 11.3894H29.7631V11.3482C29.7631 11.3476 29.7632 11.3471 29.7632 11.3466V4.13643H32.7451V8.64609H32.745ZM28.474 4.13643V8.54219H15.5261V4.13643H28.474ZM12.6786 16.3052V13.4577C12.6786 13.0281 13.0281 12.6786 13.4577 12.6786H14.237L14.2371 17.0845H13.4578C13.0282 17.0844 12.6786 16.7348 12.6786 16.3052ZM15.5262 17.7292L15.5261 12.6765C15.5404 12.6769 15.5545 12.6786 15.569 12.6786H28.431C28.4455 12.6786 28.4596 12.6769 28.4739 12.6765V17.7292C28.4739 21.2988 25.5698 24.203 22 24.203C18.4303 24.203 15.5262 21.2988 15.5262 17.7292ZM22 25.4921C23.3092 25.4921 24.5434 25.1659 25.6265 24.5911V27.6948C25.6265 29.6945 23.9996 31.3214 21.9999 31.3214C20.0002 31.3214 18.3734 29.6945 18.3734 27.6948V24.591C19.4564 25.1658 20.6907 25.4921 22 25.4921ZM11.2942 28.3619C11.3038 28.3516 11.3205 28.3395 11.3458 28.3395H17.1279C17.3243 29.8312 18.1912 31.1141 19.4161 31.8741C18.9052 32.1032 18.4296 32.397 18.0006 32.7467H12.5147C11.7944 31.3997 11.3781 29.9412 11.278 28.405C11.2776 28.3991 11.2764 28.3809 11.2942 28.3619ZM10.164 29.8867C10.3451 30.8769 10.6496 31.8328 11.0742 32.7467H8.46175C8.63723 31.6927 9.23699 30.6875 10.164 29.8867ZM4.91563 38.4398C4.48594 38.4398 4.13643 38.0903 4.13643 37.6607V34.8133C4.13643 34.5451 4.0828 34.281 3.98312 34.0357H16.8039C16.0844 35.0639 15.6606 36.3134 15.6606 37.6606C15.6606 37.9246 15.6788 38.1842 15.7102 38.4398L4.91563 38.4398ZM16.9497 37.6606C16.9497 34.8759 19.2152 32.6104 22 32.6104C24.7848 32.6104 27.0503 34.8759 27.0503 37.6606C27.0503 40.4454 24.7847 42.7109 22 42.7109C19.2153 42.7109 16.9497 40.4454 16.9497 37.6606ZM42.7109 40.5081C42.7109 40.9377 42.3614 41.2872 41.9318 41.2872H27.1949C27.5282 40.8112 27.7975 40.2878 27.991 39.7289H39.0844C40.2249 39.7289 41.1526 38.8011 41.1526 37.6607V34.8133C41.1526 34.5982 41.2384 34.3979 41.3941 34.2494C41.5292 34.1204 41.7009 34.0465 41.8859 34.0357H41.9775C42.3826 34.0588 42.711 34.4239 42.711 34.8535V40.5081H42.7109Z" fill="#FFBF00"/>
</g>
<defs>
<clipPath id="clip0_304_22791">
<rect width="44" height="44" fill="white"/>
</clipPath>
</defs>
</svg>
