<svg width="80" height="80" viewBox="0 0 80 80" fill="none" xmlns="http://www.w3.org/2000/svg">
<path d="M71.398 60.3584L70.1518 59.9431C69.098 59.5917 68.3872 58.6056 68.3872 57.4948V57.3072L62.0893 57.1094L57.915 64.5075L71.0824 66.6794L71.398 60.3584Z" fill="#FBBD80"/>
<path d="M60.645 52.9033V57.4949C60.645 58.4193 60.1519 59.2558 59.3794 59.7135L60.3011 62.1452C61.5511 61.5438 62.4861 60.47 62.9277 59.1841C63.1596 58.5091 63.7888 58.0633 64.5024 58.0646H64.516C65.886 58.0646 67.1906 57.7918 68.3869 57.3072V52.9033H60.645Z" fill="#F4AA73"/>
<path d="M76.4712 62.0493L71.3981 60.3584L65.9479 63.9918C65.081 64.5698 63.9518 64.5698 63.0849 63.9918L57.6348 60.3584L58.0648 74.8387H72.2584L73.5487 73.8486L74.839 74.8387H76.1293C78.2671 74.8387 80.0002 73.1056 80.0002 70.9678V66.9457C80.0002 64.7242 78.5787 62.7518 76.4712 62.0493Z" fill="#B8B2B8"/>
<path d="M59.6975 62.3909C59.908 62.3207 60.1078 62.2321 60.3035 62.1378L57.6344 60.3584L52.5613 62.0495C50.4538 62.752 49.0322 64.7243 49.0322 66.9459V70.9678C49.0322 72.6507 50.1129 74.0684 51.6129 74.6017V66.9456C51.6129 65.8329 52.3222 64.8495 53.3782 64.4979L59.6975 62.3909Z" fill="#4E3D4D"/>
<path d="M67.0969 36.1289H61.9356C61.4937 36.1289 61.0622 36.1727 60.6453 36.2573L58.3394 46.4516H72.2583C73.0845 45.6253 73.5486 44.5048 73.5486 43.3364V42.5806C73.5486 39.0173 70.66 36.1289 67.0969 36.1289Z" fill="#D48C64"/>
<path d="M60.6451 36.2568C57.7005 36.8548 55.4839 39.4589 55.4839 42.5801V43.3359C55.4839 44.5043 55.948 45.6248 56.7742 46.4511H60.6451V36.2568Z" fill="#C6805D"/>
<path d="M61.8424 42.9791C61.4517 42.8489 61.0414 42.8158 60.6444 42.875L57.813 46.5883C57.813 50.8641 60.2402 55.293 64.516 55.293C65.1852 55.293 65.8344 55.3981 66.4538 55.2386C69.7917 54.3784 72.2578 51.3478 72.2578 47.7413V46.4509L61.8424 42.9791Z" fill="#FFD18D"/>
<path d="M60.6453 47.7413V42.875C60.2747 42.9305 59.9152 43.0667 59.5952 43.28L57.3489 44.7775C56.99 45.0169 56.7744 45.4197 56.7744 45.8511V47.7413C56.7744 52.017 60.2405 55.4831 64.5163 55.4831C65.1858 55.4831 65.8344 55.3984 66.4541 55.2386C63.1169 54.378 60.6453 51.3475 60.6453 47.7413Z" fill="#FBBD80"/>
<path d="M74.8389 74.8383H72.2583V69.677C72.2583 68.9644 72.836 68.3867 73.5486 68.3867C74.2613 68.3867 74.8389 68.9644 74.8389 69.677V74.8383Z" fill="#B0A8AF"/>
<path d="M23.0619 60.5902L21.1193 59.9426C20.0655 59.5912 19.3547 58.6051 19.3547 57.4943V57.3066L12.5755 57.3124L7.6377 66.0851L23.0619 66.6959V60.5902Z" fill="#AF6E4D"/>
<path d="M11.6132 52.9033V57.495C11.6132 58.6058 10.9024 59.5919 9.84863 59.9432L8.60254 60.3585L9.9541 62.6283L10.6657 62.391C12.2182 61.8733 13.3858 60.6696 13.896 59.1841C14.1277 58.5091 14.7571 58.0633 15.4707 58.0646H15.4843C16.8543 58.0646 18.1591 57.7918 19.3552 57.3072V52.9033H11.6132Z" fill="#845252"/>
<path d="M27.4388 62.0493L22.3657 60.3584L16.9155 63.9918C16.0486 64.5698 14.9194 64.5698 14.0525 63.9918L11.2782 62.1423L4.49879 62.8786C2.39129 63.5811 0.969727 65.5534 0.969727 67.7748V71.7968L2.58066 74.62C2.9841 74.7625 3.41879 74.8386 3.87098 74.8386H5.16129L6.50098 73.7042L7.74191 74.8386H21.9355L30.9677 66.9454C30.9679 64.7242 29.5463 62.7518 27.4388 62.0493Z" fill="#887F88"/>
<path d="M7.74176 74.8383H5.16113V69.677C5.16113 68.9644 5.73879 68.3867 6.45145 68.3867C7.1641 68.3867 7.74176 68.9644 7.74176 69.677V74.8383Z" fill="#736572"/>
<path d="M47.9426 54.4558C47.0204 53.7364 46.452 52.6195 46.452 51.4028V48.8956L34.6348 48.8281L33.5488 57.7873L39.4538 66.0678L47.9426 54.4558Z" fill="#E29A6C"/>
<path d="M33.5484 43.8711V51.4036C33.5484 52.6205 32.9796 53.7377 32.0571 54.457L31.5293 56.0234L33.9216 56.2617C35.2946 55.0613 36.129 53.3042 36.129 51.4009C36.129 50.6003 36.8451 50.0027 37.6355 50.1302C38.406 50.2544 39.1946 50.3227 39.9999 50.3227C42.3041 50.3227 44.4846 49.803 46.4515 48.8964V43.8711H33.5484Z" fill="#D48C64"/>
<path d="M47.9422 54.4561L40.8969 61.2722C40.3968 61.7559 39.603 61.7559 39.1029 61.2722L33.9216 56.2612L31.6347 55.7671L29.6772 61.9353L36.1288 74.8386H43.8707L50.3222 61.9353L47.9422 54.4561Z" fill="#ECEAEC"/>
<path d="M31.002 57.7623L31.7163 57.5241C32.5459 57.2475 33.2909 56.8131 33.9218 56.2617L32.0573 54.457L31.002 57.7623Z" fill="#DBD8DB"/>
<path d="M29.4251 58.042L20.0077 60.3836L19.0405 70.87L20.6451 74.6184C21.0487 74.7611 21.483 74.8381 21.9354 74.8381H30.9676L29.4251 58.042Z" fill="#615260"/>
<path d="M27.4007 56.2422L21.5937 58.1778C19.486 58.8803 18.0645 60.8527 18.0645 63.0742V70.967C18.0645 72.65 19.1451 74.085 20.6451 74.6183V63.0758C20.6451 61.9644 21.3562 60.9778 22.4105 60.6262L28.6895 58.5327L27.4007 56.2422Z" fill="#4E3D4D"/>
<path d="M40 23.2255C44.9883 23.2255 49.0321 19.1817 49.0321 14.1933C49.0321 9.20498 44.9883 5.16113 40 5.16113C35.0116 5.16113 30.9678 9.20498 30.9678 14.1933C30.9678 19.1817 35.0116 23.2255 40 23.2255Z" fill="#845252"/>
<path d="M28.1759 14.7539C24.4359 17.0134 21.9355 21.1177 21.9355 25.8059C21.9355 32.9322 27.7124 38.7092 34.8388 38.7092H49.7873L28.1759 14.7539Z" fill="#70393C"/>
<path d="M38.2998 23.2256C33.3113 23.2256 29.2676 27.2695 29.2676 32.2579V34.8386C29.2676 41.9648 32.874 47.5561 40.0002 47.5561L42.5812 47.4837C48.4707 46.2881 52.9035 41.0809 52.9035 34.8386V23.2256H38.2998Z" fill="#F4AA73"/>
<path d="M32.2579 34.8384V30.9675C32.2579 26.6917 35.724 23.2256 39.9998 23.2256H36.1289C31.1406 23.2256 27.0967 27.2695 27.0967 32.2578V34.8384C27.0967 41.9646 32.8737 47.7417 40 47.7417C40.8839 47.7417 41.7468 47.6528 42.5807 47.4836C36.6911 46.2878 32.2579 41.0807 32.2579 34.8384Z" fill="#E29A6C"/>
<path d="M58.0647 25.8066C58.0647 18.6804 52.2877 12.9033 45.1614 12.9033H34.8387C32.4012 12.9033 30.1205 13.5799 28.1758 14.7544C30.2552 19.543 35.8684 28.2418 49.4395 29.5189C51.4089 29.7043 52.9031 31.3849 52.9031 33.363V36.1114C56.0322 33.7571 58.0647 30.0239 58.0647 25.8066Z" fill="#7A4646"/>
<path d="M32.0573 54.457C31.717 54.7222 31.3275 54.9341 30.9017 55.0759L27.4009 56.2428L25.1034 60.7769C24.734 61.5058 24.7317 62.3666 25.0972 63.0973L30.9679 74.8388H36.1292L32.0573 54.457Z" fill="#736572"/>
<path d="M58.4063 58.178L52.5993 56.2422L49.0322 74.8381H58.0644C60.2024 74.8381 61.9353 73.105 61.9353 70.9672V63.0745C61.9355 60.8528 60.5139 58.8805 58.4063 58.178Z" fill="#615260"/>
<path d="M47.9423 54.4561C48.2827 54.7212 48.6727 54.9336 49.0986 55.0754L52.5994 56.2423L54.8969 60.7764C55.2663 61.5053 55.2686 62.3661 54.9031 63.0968L49.0323 74.8382H43.8711L47.9423 54.4561Z" fill="#736572"/>
<path d="M18.0643 36.1289H12.903C12.4612 36.1289 12.0296 36.1727 11.6127 36.2573L9.30664 46.4514H23.2255C24.0518 45.6252 24.5159 44.5047 24.5159 43.3362V42.5805C24.5159 39.0173 21.6274 36.1289 18.0643 36.1289Z" fill="#615260"/>
<path d="M11.6129 36.2568C8.66822 36.8548 6.45166 39.4589 6.45166 42.5801V43.3359C6.45166 44.5043 6.91572 45.6248 7.74197 46.4511H11.6129V36.2568Z" fill="#4E3D4D"/>
<path d="M12.8101 42.9791C12.4195 42.8489 12.0092 42.8158 11.6122 42.875L8.78076 46.5884C8.78076 50.8642 11.2079 55.2931 15.4837 55.2931C16.1529 55.2931 16.8022 55.3983 17.4215 55.2388C20.7595 54.3786 23.2256 51.348 23.2256 47.7414V46.4511L12.8101 42.9791Z" fill="#C6805D"/>
<path d="M11.6131 47.7413V42.875C11.2425 42.9305 10.883 43.0667 10.563 43.28L8.31672 44.7775C7.95781 45.0169 7.74219 45.4197 7.74219 45.8511V47.7413C7.74219 52.017 11.2083 55.4831 15.4841 55.4831C16.1536 55.4831 16.8022 55.3984 17.4219 55.2386C14.0845 54.378 11.6131 51.3475 11.6131 47.7413Z" fill="#AF6E4D"/>
<path d="M10.6653 62.3909C10.8758 62.3207 11.0823 62.2367 11.2781 62.1423L8.60219 60.3584L3.52891 62.0495C1.42156 62.752 0 64.7242 0 66.9457V70.9676C0 72.6506 1.08063 74.0867 2.58063 74.62V66.9454C2.58063 65.8328 3.29 64.8493 4.34594 64.4978L10.6653 62.3909Z" fill="#736572"/>
</svg>
