<svg width="80" height="80" viewBox="0 0 80 80" fill="none" xmlns="http://www.w3.org/2000/svg">
<path d="M59.5292 71.7819L54.335 58.4531H48.9287V67.5727L51.3815 68.2645L53.0797 71.9437H53.74V72.2072C53.9444 72.0599 54.2076 71.997 54.457 72.0565L58.5048 72.9592C59.2017 73.1253 59.7842 72.4363 59.5292 71.7819Z" fill="black"/>
<path d="M58.7104 73.7382C58.5844 73.7382 58.4568 73.7234 58.3301 73.6932L54.2926 72.7926C54.0642 72.9592 53.7052 72.9953 53.4517 72.8655C53.3669 72.8221 53.2859 72.7653 53.2166 72.6982H53.0795C52.7854 72.6982 52.5179 72.5273 52.3941 72.2597L50.8419 68.8959L48.7237 68.2989C48.3986 68.2068 48.1738 67.9098 48.1738 67.5722V58.453C48.1738 58.0358 48.5114 57.6982 48.9285 57.6982H54.3346C54.6457 57.6982 54.925 57.8891 55.0378 58.1788L60.2323 71.5072C60.4542 72.0755 60.3414 72.7159 59.9397 73.1773C59.625 73.5385 59.1762 73.7382 58.7104 73.7382ZM54.2639 71.2787C54.387 71.2787 54.5108 71.2935 54.6324 71.3222L58.6691 72.2229L59.5292 71.7814L58.8261 72.0556L53.8187 59.2077H49.6833V67.001L51.5863 67.5376C51.7985 67.598 51.9739 67.7476 52.0668 67.9481L53.5622 71.1888H53.7399C53.8747 71.1888 54.0015 71.2242 54.1106 71.2861C54.1614 71.2817 54.213 71.2787 54.2639 71.2787Z" fill="black"/>
<path d="M75.8417 11.1571V57.9495C75.8417 62.025 72.5512 65.3156 68.4908 65.3156H16.053C11.9776 65.3156 8.68701 62.025 8.68701 57.9495V11.1571C8.68701 7.08157 11.9776 3.79102 16.053 3.79102H68.4908C72.5512 3.79102 75.8417 7.08157 75.8417 11.1571Z" fill="black"/>
<path d="M68.4908 66.0697H16.0534C11.5753 66.0697 7.93213 62.4266 7.93213 57.9492V11.1567C7.93213 6.67926 11.5753 3.03613 16.0534 3.03613H68.4908C72.9601 3.03613 76.5959 6.67926 76.5959 11.1567V57.9492C76.5959 62.4266 72.9601 66.0697 68.4908 66.0697ZM16.0534 4.54557C12.4074 4.54557 9.44156 7.51137 9.44156 11.1567V57.9492C9.44156 61.5945 12.4074 64.5603 16.0534 64.5603H68.4908C72.1273 64.5603 75.0865 61.5945 75.0865 57.9492V11.1567C75.0865 7.51137 72.1273 4.54557 68.4908 4.54557H16.0534Z" fill="black"/>
<path d="M71.3134 11.1571V57.9495C71.3134 62.025 68.0228 65.3156 63.9625 65.3156H11.5246C7.44925 65.3156 4.15869 62.025 4.15869 57.9495V11.1571C4.15869 7.08157 7.44925 3.79102 11.5246 3.79102H63.9625C68.0228 3.79102 71.3134 7.08157 71.3134 11.1571Z" fill="white"/>
<path d="M63.9625 66.0697H11.5251C7.04694 66.0697 3.40381 62.4266 3.40381 57.9492V11.1567C3.40381 6.67926 7.04694 3.03613 11.5251 3.03613H63.9625C68.4318 3.03613 72.0683 6.67926 72.0683 11.1567V57.9492C72.0683 62.4266 68.4318 66.0697 63.9625 66.0697ZM11.5251 4.54557C7.87904 4.54557 4.91324 7.51137 4.91324 11.1567V57.9492C4.91324 61.5945 7.87904 64.5603 11.5251 64.5603H63.9625C67.5997 64.5603 70.5589 61.5945 70.5589 57.9492V11.1567C70.5589 7.51137 67.5997 4.54557 63.9625 4.54557H11.5251Z" fill="black"/>
<path d="M71.3134 11.1571V16.3646H4.15869V11.1571C4.15869 7.08157 7.44925 3.79102 11.5246 3.79102H63.9625C68.0228 3.79102 71.3134 7.08157 71.3134 11.1571Z" fill="#283E42"/>
<path d="M71.3136 17.1193H4.15853C3.74137 17.1193 3.40381 16.7817 3.40381 16.3646V11.1567C3.40381 6.67926 7.04694 3.03613 11.5251 3.03613H63.9625C68.4318 3.03613 72.0683 6.67926 72.0683 11.1567V16.3646C72.0683 16.7817 71.7308 17.1193 71.3136 17.1193ZM4.91324 15.6098H70.5589V11.1567C70.5589 7.51137 67.5997 4.54557 63.9625 4.54557H11.5251C7.87904 4.54557 4.91324 7.51137 4.91324 11.1567V15.6098Z" fill="black"/>
<path d="M11.823 11.8404C12.7959 11.8404 13.5845 11.0517 13.5845 10.0789C13.5845 9.10604 12.7959 8.31738 11.823 8.31738C10.8502 8.31738 10.0615 9.10604 10.0615 10.0789C10.0615 11.0517 10.8502 11.8404 11.823 11.8404Z" fill="white"/>
<path d="M17.9241 11.8404C18.897 11.8404 19.6856 11.0517 19.6856 10.0789C19.6856 9.10604 18.897 8.31738 17.9241 8.31738C16.9513 8.31738 16.1626 9.10604 16.1626 10.0789C16.1626 11.0517 16.9513 11.8404 17.9241 11.8404Z" fill="white"/>
<path d="M24.0237 11.8404C24.9966 11.8404 25.7852 11.0517 25.7852 10.0789C25.7852 9.10604 24.9966 8.31738 24.0237 8.31738C23.0509 8.31738 22.2622 9.10604 22.2622 10.0789C22.2622 11.0517 23.0509 11.8404 24.0237 11.8404Z" fill="white"/>
<path d="M42.2315 10.8337H38.5213C38.1042 10.8337 37.7666 10.4961 37.7666 10.0789C37.7666 9.66178 38.1042 9.32422 38.5213 9.32422H42.2315C42.6487 9.32422 42.9862 9.66178 42.9862 10.0789C42.9862 10.4961 42.6487 10.8337 42.2315 10.8337Z" fill="black"/>
<path d="M65.4084 10.8337H46.4461C46.029 10.8337 45.6914 10.4961 45.6914 10.0789C45.6914 9.66178 46.029 9.32422 46.4461 9.32422H65.4084C65.8255 9.32422 66.1631 9.66178 66.1631 10.0789C66.1631 10.4961 65.8255 10.8337 65.4084 10.8337Z" fill="black"/>
<path d="M37.2153 55.467L45.0797 75.6476C45.3347 76.302 46.2299 76.4151 46.6307 75.8213L49.0001 72.4177C49.2006 72.1208 49.5805 71.9728 49.929 72.0557L53.9767 72.9585C54.6737 73.1246 55.2562 72.4356 55.0011 71.7812L47.1368 51.6006L37.2153 55.467Z" fill="#283E42"/>
<path d="M45.9048 76.9638C45.8443 76.9638 45.7832 76.9601 45.722 76.9535C45.1132 76.8857 44.5973 76.4899 44.3762 75.9216L36.5121 55.7411C36.361 55.3527 36.5526 54.9149 36.941 54.7638L46.8629 50.8973C47.0494 50.8229 47.2572 50.828 47.4407 50.9091C47.6235 50.9902 47.768 51.1398 47.8402 51.3263L55.7043 71.5068C55.9262 72.0758 55.8141 72.7156 55.4117 73.1769C55.0115 73.6354 54.3976 73.8322 53.802 73.6929L49.7646 72.7922C49.7624 72.7959 49.6216 72.846 49.6194 72.849L47.2499 76.2526C46.9492 76.6985 46.4435 76.9638 45.9048 76.9638ZM45.7854 75.3733C45.8119 75.374 45.9999 75.3939 46.0116 75.3902L48.3812 71.9866C48.7519 71.4354 49.4455 71.1656 50.1044 71.3218L54.1411 72.2225L55.0012 71.781L54.2981 72.0552L46.7081 52.5777L38.1925 55.8958L45.7824 75.3733H45.7854Z" fill="black"/>
<path d="M38.103 55.472L30.0059 75.5604C29.7433 76.2118 28.8469 76.3146 28.453 75.7161L26.123 72.2854C25.926 71.9862 25.5478 71.8338 25.1984 71.9127L21.1405 72.7686C20.4417 72.9266 19.8672 72.231 20.1298 71.5796L28.2269 51.4912L38.103 55.472Z" fill="#283E42"/>
<path d="M29.1851 76.8668C28.6389 76.8668 28.1274 76.594 27.8223 76.1312L25.4992 72.7092C25.494 72.7092 25.3591 72.6517 25.354 72.6517L21.2959 73.5074C20.7144 73.64 20.0982 73.4351 19.7032 72.9708C19.3067 72.505 19.202 71.8638 19.4297 71.2978L27.5267 51.2093C27.683 50.8231 28.123 50.6374 28.5092 50.7914L38.3854 54.7721C38.5711 54.8473 38.7193 54.9925 38.7974 55.1767C38.8762 55.361 38.8777 55.5688 38.8033 55.7546L30.7063 75.843C30.4785 76.4083 29.9582 76.7982 29.3487 76.8586C29.2941 76.8645 29.2396 76.8668 29.1851 76.8668ZM25.3894 71.1364C25.9244 71.1364 26.447 71.4061 26.7529 71.869L29.0774 75.2925L29.3059 75.2785L37.1206 55.8902L28.6448 52.4741L20.8301 71.8623C20.8338 71.8623 20.9805 72.0304 20.9849 72.0304L25.043 71.1747C25.1572 71.1489 25.2736 71.1364 25.3894 71.1364Z" fill="black"/>
<path d="M17.5005 42.0049C17.4887 44.0571 20.1733 45.6739 20.7638 47.529C21.3759 49.4515 20.1427 52.3191 21.2959 53.923C22.4606 55.5429 25.5798 55.2863 27.1862 56.4696C28.7766 57.6412 29.4546 60.7014 31.3698 61.3356C33.2179 61.9476 35.5809 59.9172 37.633 59.9291C39.6851 59.941 42.0245 61.9985 43.8796 61.4079C45.8021 60.7959 46.5155 57.7436 48.1195 56.5904C49.7394 55.4256 52.8554 55.7183 54.0387 54.1119C55.2103 52.5215 54.0102 49.64 54.6444 47.7248C55.2563 45.8766 57.9594 44.291 57.9713 42.2389C57.9832 40.1868 55.2986 38.57 54.708 36.7149C54.096 34.7924 55.3291 31.9248 54.1759 30.3209C53.0112 28.7009 49.892 28.9576 48.2857 27.7743C46.6952 26.6027 46.0173 23.5425 44.1021 22.9083C42.2539 22.2963 39.8909 24.3267 37.8389 24.3148C35.7868 24.3029 33.4474 22.2454 31.5922 22.836C29.6697 23.448 28.9563 26.5003 27.3524 27.6535C25.7325 28.8182 22.6165 28.5256 21.4332 30.132C20.2616 31.7224 21.4616 34.6039 20.8275 36.5191C20.2155 38.3672 17.5124 39.9529 17.5005 42.0049Z" fill="#1CB098"/>
<path d="M43.159 62.2699C42.1581 62.2699 41.1433 61.8446 40.1549 61.4304C39.2837 61.0656 38.3838 60.6882 37.6291 60.6838C37.6247 60.6838 37.6203 60.6838 37.6158 60.6838C36.8641 60.6838 35.9642 61.0486 35.0945 61.4017C33.784 61.9338 32.4272 62.4821 31.1329 62.0517C29.779 61.6036 29.0081 60.3234 28.2622 59.0852C27.7691 58.2663 27.3041 57.4939 26.7388 57.0768C26.1617 56.6522 25.2765 56.4341 24.339 56.2034C22.9453 55.8599 21.5044 55.5054 20.6833 54.3638C19.8711 53.2339 19.9928 51.7628 20.1107 50.3403C20.1873 49.4132 20.2669 48.4543 20.0451 47.7571C19.838 47.1077 19.2631 46.4297 18.6543 45.7125C17.7559 44.6534 16.738 43.4535 16.7461 42.0001C16.7542 40.5474 17.7861 39.3601 18.6963 38.3113C19.3139 37.6008 19.8969 36.9301 20.1114 36.2815C20.3406 35.588 20.2728 34.6291 20.2065 33.7012C20.1055 32.2772 20.0009 30.8047 20.8263 29.6844C21.6599 28.5523 23.1045 28.214 24.5012 27.8875C25.4416 27.6671 26.3297 27.4593 26.912 27.0407C27.4824 26.6309 27.9571 25.8629 28.459 25.0499C29.2189 23.8206 30.0045 22.5492 31.3629 22.1166C32.6645 21.7046 34.0132 22.2669 35.3178 22.8131C36.1889 23.1779 37.0889 23.5553 37.8436 23.5597H37.8576C38.6093 23.5597 39.5085 23.1948 40.3782 22.8425C41.6887 22.3119 43.0448 21.7621 44.3397 22.1918C45.6929 22.6399 46.4639 23.9201 47.2097 25.1583C47.7021 25.9764 48.1679 26.7503 48.7332 27.166C49.311 27.592 50.1962 27.8101 51.1344 28.0408C52.5274 28.3843 53.9683 28.7388 54.7886 29.8797C55.6015 31.0103 55.4799 32.4814 55.362 33.9039C55.2854 34.8311 55.2058 35.7892 55.4276 36.4864C55.6347 37.1365 56.2096 37.8145 56.8184 38.5317C57.7168 39.5908 58.7346 40.7907 58.7265 42.2433C58.7184 43.696 57.6859 44.8841 56.7756 45.9329C56.1587 46.6427 55.5757 47.3141 55.3613 47.9619C55.1313 48.6562 55.1999 49.6158 55.2655 50.5438C55.3664 51.9677 55.4718 53.4395 54.6471 54.5591C53.8128 55.6919 52.3675 56.0302 50.9701 56.3574C50.0303 56.5771 49.1422 56.7849 48.5607 57.2028C47.9902 57.6133 47.5156 58.3813 47.0129 59.1935C46.2531 60.4229 45.4674 61.6943 44.1091 62.1269C43.7943 62.2271 43.4774 62.2699 43.159 62.2699ZM37.6158 59.1744H37.6379C38.6912 59.1803 39.7318 59.6166 40.7379 60.0382C41.8383 60.4995 42.8775 60.9351 43.6506 60.6882C44.4768 60.4258 45.0849 59.4419 45.729 58.4005C46.287 57.4969 46.8641 56.5638 47.6792 55.9779C48.5054 55.3838 49.5837 55.1318 50.6259 54.8871C51.8095 54.6107 52.9269 54.349 53.4317 53.6643C53.9263 52.9922 53.8452 51.8549 53.7597 50.6514C53.6838 49.5768 53.6042 48.4653 53.9285 47.4873C54.238 46.5527 54.9485 45.7339 55.6362 44.9431C56.4462 44.01 57.2119 43.1285 57.2171 42.2345C57.2223 41.3412 56.4668 40.4509 55.6679 39.5082C54.9891 38.7093 54.2882 37.8823 53.9889 36.9441C53.6772 35.9624 53.7685 34.8524 53.8577 33.7793C53.9572 32.5765 54.0508 31.44 53.5637 30.7612C53.0676 30.0713 51.9532 29.7971 50.7733 29.5068C49.7333 29.2503 48.658 28.9857 47.8384 28.3813C47.0299 27.7865 46.4639 26.8461 45.9162 25.9366C45.2846 24.8878 44.6884 23.8972 43.8651 23.6245C43.0934 23.3695 42.0498 23.7933 40.9457 24.2414C39.9419 24.6483 38.9042 25.0691 37.8583 25.0691C37.8502 25.0691 37.8421 25.0691 37.8347 25.0691C36.7815 25.0632 35.7408 24.6269 34.7348 24.2053C33.6337 23.7439 32.5952 23.3098 31.8206 23.5553C30.9951 23.8176 30.3871 24.8016 29.7429 25.8437C29.185 26.7466 28.6079 27.6804 27.7935 28.2663C26.9673 28.8604 25.8882 29.1124 24.8453 29.3571C23.6624 29.6335 22.5451 29.8952 22.041 30.5791C21.5457 31.252 21.6267 32.3893 21.7122 33.5943C21.7889 34.6682 21.8678 35.7789 21.5442 36.7562C21.2346 37.6915 20.5241 38.5096 19.8365 39.3011C19.0258 40.2342 18.2607 41.1157 18.2556 42.009C18.2504 42.903 19.0059 43.7933 19.8055 44.736C20.4836 45.5349 21.1845 46.3611 21.4838 47.2994C21.7955 48.2811 21.7041 49.391 21.615 50.4649C21.5155 51.6677 21.4211 52.8042 21.909 53.4823C22.405 54.1729 23.5202 54.4471 24.7002 54.7374C25.7394 54.9939 26.8147 55.2585 27.6335 55.8622C28.4413 56.4569 29.0073 57.3974 29.555 58.3061C30.1873 59.3557 30.7836 60.3462 31.6076 60.6189C32.3763 60.8739 33.4207 60.4516 34.5269 60.0028C35.5315 59.5952 36.5693 59.1744 37.6158 59.1744Z" fill="black"/>
<path d="M37.7355 53.517C44.0287 53.517 49.1303 48.4154 49.1303 42.1223C49.1303 35.8291 44.0287 30.7275 37.7355 30.7275C31.4424 30.7275 26.3408 35.8291 26.3408 42.1223C26.3408 48.4154 31.4424 53.517 37.7355 53.517Z" fill="white"/>
<path d="M33.8874 42.7619C34.091 42.9677 34.2009 43.266 34.1434 43.5448L33.682 46.1099C33.5661 46.8535 34.3256 47.4161 34.979 47.0663L37.293 45.8702C37.5544 45.7228 37.8707 45.7247 38.1303 45.8751L40.4304 47.0978C41.0982 47.4552 41.8643 46.9015 41.7384 46.1564L41.3067 43.5862C41.2711 43.3069 41.3658 43.0098 41.5716 42.8063L43.4613 40.9937C43.9854 40.4759 43.6929 39.5625 42.9678 39.4653L40.3839 39.0596C40.0864 39.0206 39.8456 38.8332 39.7168 38.5719L38.5768 36.2209C38.2458 35.5492 37.2969 35.5437 36.9767 36.2116L35.791 38.5492C35.6592 38.809 35.4163 38.9936 35.1184 39.0291L32.5299 39.4049C31.8037 39.4937 31.5008 40.4037 32.0373 40.9277L33.8874 42.7619Z" fill="#1CB098"/>
</svg>
