<svg width="300" height="200" viewBox="0 0 300 200" fill="none" xmlns="http://www.w3.org/2000/svg">
<g opacity="0.02">
<path fill-rule="evenodd" clip-rule="evenodd" d="M299.227 135.486C295.22 122.445 291.213 109.041 286.478 96.362C279.193 76.0752 271.18 55.7885 263.531 35.5018C259.889 26.0829 256.246 16.3018 252.604 6.883C250.419 1.44906 248.233 2.21054e-05 242.405 0.362285C240.948 0.362285 239.491 0 238.034 0C235.485 0 232.571 1.10122e-05 230.021 1.0868C219.822 5.43396 208.531 7.60753 197.604 8.69432C185.584 10.1434 173.2 10.5056 161.18 11.2302C153.531 11.5924 145.882 11.9547 138.233 12.6792C130.948 13.0415 124.027 14.4905 116.742 14.4905C110.186 14.8528 103.63 14.8528 97.0735 17.0264C88.696 19.9245 79.9542 22.4603 70.8482 24.2716C53.7289 27.532 37.3381 32.2414 20.2188 36.5886C14.7552 38.0376 9.29164 39.1244 3.82804 40.5734C0.914121 41.298 -0.542838 42.747 0.185641 46.3697C0.914121 48.5433 0.549904 51.0791 0.549904 53.6149C0.549904 53.9772 0.549881 54.3395 0.185641 54.7017C2.00684 61.5847 3.09961 68.4677 4.55656 75.3507C6.01352 78.9733 7.47048 82.9583 8.19896 86.5809C10.0202 97.811 14.0268 108.317 17.6692 118.822C20.9474 128.241 23.8613 138.022 26.7752 147.441C30.4176 159.396 33.3315 171.713 36.2454 184.392C36.6096 185.479 36.9739 186.928 37.3382 188.015C38.0666 190.188 38.7951 192.724 40.252 194.897C42.0732 197.433 43.8944 200.331 47.5368 199.969C54.4574 199.607 61.0137 198.882 67.57 195.984C74.4906 193.086 81.7754 190.55 89.0602 188.739C106.908 184.392 124.756 180.407 142.603 176.422C147.703 175.335 153.166 174.611 158.266 173.524C163.365 172.437 168.464 171.35 173.564 170.626C177.206 169.901 181.213 169.539 185.22 169.177C186.677 168.815 188.862 168.452 189.226 167.365C191.776 163.018 195.418 162.656 199.789 163.018C203.067 163.381 206.345 163.381 209.624 163.018C228.2 161.207 246.776 159.396 265.716 156.86C275.187 155.773 284.293 153.962 292.67 148.528C299.955 143.818 301.048 142.369 299.227 135.486ZM144.06 154.686C131.676 155.411 121.113 160.845 110.186 165.554C99.6232 169.901 89.4244 174.248 78.8615 178.233C72.6694 180.407 66.1131 181.856 59.5568 180.769C57.7356 180.407 55.9144 179.682 54.0932 178.958C54.0932 178.233 54.4574 177.871 54.4574 177.147C58.0998 176.422 61.7422 175.698 65.0204 174.611C81.4112 169.539 97.4377 164.105 113.1 157.222C120.021 153.962 127.67 152.513 134.954 150.701C138.961 149.615 143.332 150.339 148.431 152.513C146.246 153.6 145.153 154.324 144.06 154.686ZM146.61 148.89C132.769 146.717 120.749 151.426 108.365 156.135C97.802 160.12 87.239 164.467 76.676 168.09C71.5767 169.901 66.4774 171.35 61.378 172.799C58.8283 173.524 56.2786 173.524 53.3647 173.524C51.5435 173.524 49.7223 172.799 49.358 170.264C49.358 168.09 50.815 167.003 52.6362 166.641C57.007 165.554 61.3779 164.105 65.7488 163.381C79.2257 160.845 91.9741 155.773 104.358 150.339C115.285 145.63 126.213 141.645 138.233 143.094C142.968 143.818 147.339 144.905 152.074 145.992C152.802 146.354 153.531 147.079 154.623 147.441C154.623 147.803 154.623 148.166 154.623 148.89C152.074 148.89 149.524 149.252 146.61 148.89ZM165.186 142.007C147.339 135.486 129.855 137.298 112.372 143.094C95.2523 148.89 78.8615 156.86 61.0137 160.845C50.815 163.381 50.4508 164.467 46.4442 152.875C42.4375 140.92 39.1594 128.966 35.8812 117.011C33.3315 108.679 30.7818 99.9846 28.2322 91.6525C26.411 85.1318 24.5898 78.6111 22.7686 72.0904C20.9474 65.9319 18.7619 59.7734 16.9407 53.6149C20.2189 48.5433 24.954 47.8187 29.6891 46.732C36.2454 45.6452 42.4375 43.8338 48.6296 41.6602C53.3647 39.8489 58.0998 38.0376 62.8349 36.5886C84.3251 25.7207 108.001 11.5924 129.491 27.8942C129.855 28.2565 129.855 28.2565 130.219 28.6188C130.948 29.3433 131.312 29.7056 131.676 30.4301C134.226 35.8641 136.411 41.6603 138.233 47.4565C139.325 50.3546 139.69 53.6149 140.418 56.5131C144.06 67.3809 147.339 77.8865 150.981 88.7544C151.345 89.1167 151.345 89.479 151.709 90.2035C153.895 94.5507 156.08 99.26 157.173 103.969C160.087 109.403 161.544 115.2 163.729 120.996C165.915 127.154 168.1 133.313 170.286 139.471C170.65 140.196 170.65 141.283 170.65 143.456C169.193 142.732 167.008 142.732 165.186 142.007ZM159.359 93.4639C162.272 95.2752 161.544 98.1733 162.637 101.071C159.359 97.811 159.359 97.811 159.359 93.4639ZM188.862 143.456C188.133 143.818 187.405 143.818 186.677 144.181C191.776 138.022 197.604 133.675 205.253 131.864C211.445 130.415 218.365 129.328 224.922 129.69C240.948 130.052 256.975 130.415 273.001 128.241C275.187 127.879 278.101 126.43 278.829 129.328C279.558 132.588 276.644 133.675 274.094 134.037C267.902 135.124 262.074 136.211 255.882 136.211C247.869 136.211 239.856 135.124 231.842 135.124C224.922 135.124 218.365 135.486 211.445 136.573C203.432 137.66 195.783 138.747 188.862 143.456ZM276.28 141.283C273.73 142.369 270.816 142.732 267.902 143.094C256.246 144.543 244.591 144.181 232.935 143.456C222.008 142.732 211.081 143.094 200.518 142.732C211.809 139.471 222.736 136.211 234.756 138.384C246.412 140.196 258.432 139.834 270.452 138.022C273.001 137.66 275.551 137.66 278.101 137.298C278.465 137.66 278.465 138.022 278.829 138.747C277.736 139.471 277.372 140.92 276.28 141.283ZM282.107 121.72C275.915 124.618 269.359 126.43 262.438 126.43C247.869 126.792 233.663 126.792 219.094 126.792C207.438 126.792 197.239 130.052 188.133 137.298C185.584 139.471 183.034 140.92 179.027 143.818C177.206 138.747 175.385 134.762 173.928 130.777C171.014 121.72 168.829 112.302 165.915 103.245C163.365 95.6374 160.087 88.0299 156.445 80.7847C148.796 65.5696 143.696 49.6301 140.782 32.966C140.418 29.7056 141.146 27.8942 143.696 26.0829C148.431 22.4603 153.531 20.649 159.359 20.649C172.471 20.2867 185.584 20.2867 198.696 20.649C209.988 21.0113 221.279 19.5622 231.842 15.2151C234.392 14.1283 236.942 13.4037 239.491 12.3169C241.677 11.5924 243.134 12.3169 244.226 14.1283C246.776 18.4754 249.326 22.4603 251.147 26.8075C253.697 33.3282 255.882 40.2112 258.432 47.0942C261.346 55.7885 263.895 64.1206 267.174 72.8149C271.18 83.3205 276.279 93.4639 280.65 103.607C282.472 107.592 283.929 111.577 285.021 115.562C286.114 118.822 285.75 119.909 282.107 121.72Z" fill="#00112B"/>
<path fill-rule="evenodd" clip-rule="evenodd" d="M122.935 44.1962C121.842 44.1962 120.385 44.1962 119.292 44.1962C102.902 40.2113 87.9677 46.0075 74.1266 53.615C63.5637 59.4112 52.6364 63.7584 40.6165 65.5697C39.888 65.5697 38.7954 65.2074 37.7026 64.1206C39.1596 63.3961 40.2522 62.6716 41.7092 62.3093C53.7291 60.1357 64.6563 55.4264 75.2193 49.2679C85.418 43.4717 97.0737 40.9358 108.729 39.4868C113.829 39.1245 119.292 39.1245 122.935 44.1962Z" fill="#00112B"/>
<path fill-rule="evenodd" clip-rule="evenodd" d="M56.2788 117.01C57.3715 116.286 58.8285 115.199 59.9212 114.475C73.7623 108.316 87.2392 101.071 102.537 97.8104C110.915 95.9991 119.292 94.9123 127.306 93.4633C128.034 93.4633 129.127 93.101 129.855 93.4633C130.948 93.8255 131.676 94.9123 132.769 95.2746C132.041 95.9991 131.312 97.4482 130.22 97.4482C128.398 97.8104 126.577 97.8104 124.756 97.8104C109.094 97.4481 94.524 101.795 80.6829 107.954C74.4908 110.852 68.2987 113.388 62.1067 116.286C60.6497 117.01 58.8286 117.373 57.3716 118.097C57.0074 118.459 56.643 117.735 56.2788 117.01Z" fill="#00112B"/>
<path fill-rule="evenodd" clip-rule="evenodd" d="M133.133 119.91C124.391 120.634 115.285 120.996 107.272 125.344C105.815 126.068 103.994 127.155 102.537 127.879C103.629 128.242 104.722 128.966 105.45 130.053C114.921 125.344 124.755 123.17 135.318 123.532C136.411 123.532 137.868 123.17 138.961 122.808C136.775 120.634 134.954 119.91 133.133 119.91Z" fill="#00112B"/>
<path fill-rule="evenodd" clip-rule="evenodd" d="M134.59 87.3049C125.484 87.3049 116.014 86.5803 106.908 87.6671C97.8016 88.7539 88.6955 90.5652 79.9537 93.101C71.212 95.9991 62.8345 99.984 53.7285 103.969C55.5497 100.709 67.9338 93.4633 78.4968 90.203C87.6028 87.6671 97.4373 85.4935 106.908 84.4067C120.384 82.2332 129.855 83.32 134.59 87.3049Z" fill="#00112B"/>
<path fill-rule="evenodd" clip-rule="evenodd" d="M124.028 59.0477C122.935 59.0477 122.207 59.0477 121.114 58.6854C114.558 55.7873 107.637 56.1496 101.081 57.5987C91.2462 59.41 81.7759 61.5835 72.6699 65.9307C65.7494 69.5533 58.8289 72.4515 51.9083 75.7118C50.0871 76.4364 48.266 76.7986 44.9878 77.5231C46.0805 75.7118 46.4448 74.9873 46.809 74.9873C58.4647 69.5533 70.1203 63.7571 82.1402 59.0477C91.6104 55.4251 101.445 53.6138 111.644 53.6138C116.015 53.6138 120.75 53.976 123.664 57.9609C124.392 57.9609 124.028 58.6855 124.028 59.0477Z" fill="#00112B"/>
<path fill-rule="evenodd" clip-rule="evenodd" d="M135.319 108.68C119.293 107.955 105.087 113.752 90.5177 119.186C85.4184 120.997 80.319 123.895 75.2196 126.068C72.6699 127.155 70.1202 127.88 67.5705 128.604C65.7493 128.967 63.5639 129.691 61.7427 127.518C67.9348 124.982 74.1268 122.808 79.9547 119.91C91.2461 114.476 102.902 110.491 114.922 107.593C119.293 106.506 124.392 106.144 129.127 105.782C131.312 105.782 133.498 106.506 135.683 106.506C135.319 107.593 135.319 107.955 135.319 108.68Z" fill="#00112B"/>
<path fill-rule="evenodd" clip-rule="evenodd" d="M114.558 72.8151C120.386 68.4679 124.393 68.1056 128.764 71.7283C124.028 73.1773 119.657 72.4528 114.558 72.8151Z" fill="#00112B"/>
<path fill-rule="evenodd" clip-rule="evenodd" d="M161.18 40.9369C165.186 38.4011 169.193 35.8652 173.928 35.503C180.12 35.1407 186.676 34.4162 192.868 35.503C207.438 37.6766 221.279 35.8652 234.756 31.5181C235.12 31.5181 235.849 31.5181 237.306 31.5181C235.849 35.503 232.571 36.2275 229.657 36.952C217.273 39.4879 204.888 40.9369 192.14 38.7633C187.041 38.0388 181.577 38.0388 176.114 38.7633C172.835 39.1256 169.193 40.2124 165.915 41.2992C164.458 41.6615 163.001 42.0237 161.544 42.7482C161.18 41.6615 161.18 41.2992 161.18 40.9369Z" fill="#00112B"/>
<path fill-rule="evenodd" clip-rule="evenodd" d="M253.696 93.4642C249.325 95.6377 244.59 97.0868 239.855 97.8113C233.663 98.5358 227.47 99.6226 221.643 99.6226C208.53 99.6226 195.417 100.709 182.669 104.694C184.49 103.608 185.947 102.158 188.133 101.434C196.146 98.1736 204.159 96.7245 212.901 96.3623C225.285 96.3623 238.033 95.6377 250.053 92.3774C251.146 92.0151 251.874 92.0151 252.967 92.0151C252.967 92.0151 253.331 92.7396 253.696 93.4642Z" fill="#00112B"/>
<path fill-rule="evenodd" clip-rule="evenodd" d="M169.194 55.0633C169.922 52.8897 172.108 51.8029 173.929 51.0784C180.485 48.9048 186.677 47.4558 193.962 47.4558C203.068 47.818 212.174 48.1803 221.28 47.4558C226.744 47.0935 232.207 44.9199 237.307 43.8331C238.764 43.4709 239.856 43.1086 241.678 43.4709C240.949 44.1954 240.221 44.9199 239.492 45.6445C232.207 49.9916 224.558 50.7161 216.181 51.0784C207.803 51.0784 199.79 51.0784 191.413 51.0784C184.492 50.7161 177.936 52.5274 171.744 55.4255C171.379 55.7878 170.651 55.7878 169.922 55.7878C169.558 55.4256 169.558 55.4255 169.194 55.0633Z" fill="#00112B"/>
<path fill-rule="evenodd" clip-rule="evenodd" d="M170.286 69.5555C175.385 65.9328 180.484 61.5857 187.405 61.2235C193.233 60.8612 199.425 61.2234 205.253 60.8612C210.716 60.8612 216.18 60.8612 221.279 60.1367C226.014 59.4121 230.385 57.6008 234.756 56.514C236.577 56.1518 238.034 55.0649 239.855 55.0649C235.849 59.0498 231.114 62.6725 225.65 63.0348C218.001 63.7593 209.988 63.7593 202.339 64.1215C196.875 64.1215 191.047 63.7593 185.584 64.4838C182.305 64.8461 179.392 66.6574 176.478 68.1064C174.656 68.831 172.835 69.9178 171.378 71.0045C171.014 70.6423 170.65 69.9177 170.286 69.5555Z" fill="#00112B"/>
<path fill-rule="evenodd" clip-rule="evenodd" d="M257.34 101.435C255.519 103.971 252.605 104.695 250.055 105.058C241.678 106.144 232.936 107.956 224.194 107.956C215.088 107.956 206.711 109.767 198.333 112.303C197.241 112.665 196.512 112.665 195.419 113.027C195.419 113.027 195.055 112.665 194.691 112.303C197.605 109.405 201.247 108.318 204.89 107.231C208.532 106.144 212.539 105.42 216.545 105.058C230.022 103.971 243.135 103.971 256.248 100.348C256.248 100.71 256.612 101.073 257.34 101.435Z" fill="#00112B"/>
<path fill-rule="evenodd" clip-rule="evenodd" d="M248.597 66.6558C243.862 71.7274 234.392 74.6255 226.743 72.4519C234.392 70.2784 241.312 68.4671 248.597 66.6558Z" fill="#00112B"/>
<path fill-rule="evenodd" clip-rule="evenodd" d="M248.232 79.6978C243.497 84.0449 237.669 83.6826 231.477 84.0449C234.755 81.1468 239.855 79.6978 248.232 79.6978Z" fill="#00112B"/>
<path fill-rule="evenodd" clip-rule="evenodd" d="M180.121 93.1019C183.763 89.4792 187.77 87.3057 192.869 90.2038C188.499 91.2906 184.492 92.0151 180.121 93.1019Z" fill="#00112B"/>
<path fill-rule="evenodd" clip-rule="evenodd" d="M179.391 80.0603C183.398 76.7999 185.947 76.4376 190.683 77.8867C187.04 80.0603 185.219 80.0603 179.391 80.0603Z" fill="#00112B"/>
</g>
</svg>
