<svg width="124" height="124" viewBox="0 0 124 124" fill="none" xmlns="http://www.w3.org/2000/svg">
<g clip-path="url(#clip0_1031_46769)">
<path fill-rule="evenodd" clip-rule="evenodd" d="M52.4791 23.3895C49.9185 26.9949 45.788 28.7058 41.4281 27.9671C37.3749 27.2798 33.9852 28.0206 31.0024 31.0034C28.0184 33.9871 27.2795 37.3749 27.9656 41.4293C28.7043 45.7892 26.9935 49.9197 23.3883 52.4803C20.0359 54.8613 18.1631 57.7806 18.1631 61.9998C18.1631 66.2189 20.0359 69.1382 23.3883 71.5194C26.9937 74.0801 28.7048 78.2106 27.9659 82.5704C27.2785 86.6237 28.0194 90.0133 31.0022 92.9961C33.9859 95.9799 37.3736 96.719 41.4281 96.0329C45.788 95.2942 49.9185 97.0048 52.4791 100.61C54.8601 103.963 57.7796 105.835 61.9988 105.835C66.2179 105.835 69.1373 103.963 71.5184 100.61C74.0791 97.0048 78.2096 95.294 82.5695 96.0327C86.6227 96.72 90.0124 95.9791 92.9951 92.9961C95.9791 90.0124 96.7181 86.6247 96.0319 82.5702C95.2933 78.2101 97.0041 74.0798 100.61 71.5192C103.962 69.1382 105.835 66.2189 105.835 61.9995C105.835 57.7801 103.962 54.861 100.61 52.4801C97.0041 49.9194 95.293 45.7889 96.0319 41.4291C96.7193 37.3758 95.9782 33.9862 92.9954 31.0034C90.0116 28.0194 86.6239 27.2805 82.5695 27.9666C78.2096 28.7053 74.0791 26.9945 71.5184 23.3893C69.1375 20.0369 66.2182 18.1641 61.9988 18.1641C57.7794 18.1641 54.8603 20.0371 52.4791 23.3895Z" fill="#FCDB35"/>
<path fill-rule="evenodd" clip-rule="evenodd" d="M18.1631 62C18.1631 66.2191 20.0362 69.1384 23.3883 71.5194C26.9935 74.0803 28.7048 78.2105 27.9661 82.5706C27.2788 86.6239 28.0196 90.0136 31.0024 92.9963C33.9862 95.9803 37.3739 96.7192 41.4283 96.0331C45.7884 95.2945 49.919 97.0053 52.4796 100.611C54.3672 103.268 56.5932 104.996 59.5365 105.598C64.3066 105.3 65.9237 103.268 67.811 100.611C70.8243 96.3683 75.3218 95.3785 80.3338 95.7658C83.5498 96.0142 86.4231 94.8629 88.5774 92.4613C91.1368 89.6086 91.7527 86.3846 91.1073 82.5706C90.3684 78.2105 92.0794 74.08 95.6846 71.5194C99.037 69.1384 100.91 66.2191 100.91 62C100.91 57.7808 99.037 54.8615 95.6846 52.4805C92.0792 49.9197 90.3684 45.7894 91.1073 41.4293C91.7527 37.6153 91.1368 34.3911 88.5774 31.5386C86.4231 29.1373 83.5498 27.9859 80.3338 28.2344C75.3218 28.6217 70.8246 27.6319 67.811 23.3895C65.9237 20.7322 64.3066 18.7 59.5365 18.4023C56.5932 19.0044 54.3672 20.7322 52.4796 23.3895C49.919 26.9949 45.7884 28.7057 41.4283 27.9671C37.3741 27.2809 33.9862 28.0199 31.0024 31.0038C28.0196 33.9866 27.2788 37.3763 27.9661 41.4295C28.7048 45.7896 26.9937 49.9201 23.3883 52.4808C20.0362 54.8617 18.1631 57.7811 18.1631 62.0002V62Z" fill="#FFEB87"/>
<path d="M78.6965 81.768C89.6146 70.8499 89.6146 53.1482 78.6965 42.2301C67.7784 31.312 50.0767 31.312 39.1586 42.2301C28.2405 53.1482 28.2405 70.8499 39.1586 81.768C50.0767 92.6861 67.7784 92.6861 78.6965 81.768Z" fill="#FCDB35"/>
<path d="M61.9989 89.9616C77.4417 89.9616 89.9606 77.4427 89.9606 61.9998C89.9606 46.557 77.4417 34.0381 61.9989 34.0381C46.556 34.0381 34.0371 46.557 34.0371 61.9998C34.0371 77.4427 46.556 89.9616 61.9989 89.9616Z" fill="white"/>
<path fill-rule="evenodd" clip-rule="evenodd" d="M44.5683 56.9503C46.6421 55.7532 49.318 56.4701 50.5154 58.5439L55.0259 66.3566L71.5414 49.8411C73.2345 48.148 76.0049 48.148 77.6981 49.8411C79.3912 51.5343 79.3912 54.3049 77.6981 55.9978L56.791 76.9046C55.8956 77.8 54.745 78.1906 53.4895 78.0255C52.2342 77.8603 51.2238 77.1851 50.5905 76.0884L42.9744 62.8972C41.7773 60.8236 42.4942 58.1477 44.5678 56.9503H44.5683Z" fill="#85CAFF"/>
<path fill-rule="evenodd" clip-rule="evenodd" d="M37.9912 106.974L33.8004 114.235C33.4863 114.779 32.9167 115.082 32.3308 115.082C32.0424 115.082 31.7505 115.009 31.4844 114.855C30.673 114.386 30.3953 113.35 30.8634 112.538L35.0554 105.279C35.5236 104.469 36.5601 104.191 37.3715 104.658C38.1816 105.127 38.4594 106.164 37.9912 106.974ZM63.6951 112.953V121.336C63.6951 122.272 62.9363 123.031 62 123.031C61.0637 123.031 60.3037 122.272 60.3037 121.336V112.953C60.3037 112.017 61.0637 111.258 62 111.258C62.9363 111.258 63.6951 112.017 63.6951 112.953ZM93.1359 112.538C93.6028 113.35 93.3272 114.386 92.5161 114.855C92.2487 115.009 91.9557 115.082 91.6709 115.082C91.0836 115.082 90.5127 114.779 90.2001 114.235L86.008 106.974C85.5411 106.164 85.8189 105.127 86.6278 104.658C87.4391 104.191 88.4757 104.469 88.9426 105.279L93.1359 112.538ZM123.032 62.0002C123.032 62.9365 122.271 63.6953 121.335 63.6953H112.954C112.016 63.6953 111.258 62.9365 111.258 62.0002C111.258 61.0639 112.016 60.3052 112.954 60.3052H121.335C122.271 60.3052 123.032 61.0639 123.032 62.0002ZM114.855 92.5149C114.541 93.0588 113.971 93.3635 113.385 93.3635C113.096 93.3635 112.806 93.2899 112.54 93.1359L105.279 88.9451C104.467 88.4769 104.19 87.4391 104.659 86.629C105.126 85.8177 106.163 85.5399 106.975 86.008L114.235 90.2001C115.043 90.6682 115.322 91.7048 114.854 92.5149H114.855ZM19.3416 86.6293C19.8097 87.4394 19.5319 88.4771 18.7206 88.9453L11.4608 93.1361C11.1946 93.2901 10.9028 93.3638 10.6156 93.3638C10.0295 93.3638 9.45863 93.0591 9.14476 92.5151C8.67661 91.705 8.9544 90.6685 9.76573 90.2003L17.0255 86.0083C17.8369 85.5401 18.8734 85.8179 19.3416 86.6293ZM104.659 37.3705C104.189 36.5604 104.467 35.5238 105.279 35.0557L112.54 30.8636C113.349 30.3955 114.388 30.6745 114.855 31.4846C115.323 32.2947 115.044 33.3325 114.235 33.8007L106.975 37.9915C106.708 38.1455 106.415 38.2191 106.129 38.2191C105.543 38.2191 104.972 37.9144 104.659 37.3705H104.659ZM86.0078 17.0258L90.1998 9.76597C90.668 8.95464 91.7045 8.67685 92.5159 9.14621C93.3272 9.61315 93.6026 10.6509 93.1356 11.461L88.9424 18.7209C88.6307 19.2648 88.0611 19.5695 87.475 19.5695C87.1877 19.5695 86.8959 19.4959 86.6276 19.3418C85.8187 18.8737 85.5406 17.8371 86.0078 17.0258ZM60.304 11.0467V2.66382C60.304 1.72752 61.0639 0.96875 62.0002 0.96875C62.9365 0.96875 63.6953 1.72752 63.6953 2.66382V11.0467C63.6953 11.983 62.9365 12.7429 62.0002 12.7429C61.0639 12.7429 60.304 11.983 60.304 11.0467ZM11.0464 63.6953H2.66358C1.72728 63.6953 0.96875 62.9365 0.96875 62.0002C0.96875 61.0639 1.72752 60.3052 2.66358 60.3052H11.0464C11.9827 60.3052 12.7415 61.0639 12.7415 62.0002C12.7415 62.9365 11.9827 63.6953 11.0464 63.6953ZM9.14476 31.4846C9.61291 30.6733 10.6507 30.3955 11.4608 30.8636L18.7206 35.0557C19.5307 35.5238 19.8097 36.5604 19.3416 37.3705C19.0275 37.9144 18.4578 38.2191 17.872 38.2191C17.5847 38.2191 17.2929 38.1455 17.0258 37.9915L9.76597 33.8007C8.95464 33.3325 8.67661 32.2947 9.14476 31.4846ZM30.8634 11.461C30.3953 10.6509 30.673 9.61412 31.4844 9.14621C32.2945 8.67806 33.3311 8.95585 33.8004 9.76597L37.9912 17.0258C38.4594 17.8371 38.1816 18.8737 37.3715 19.3418C37.1041 19.4959 36.8123 19.5695 36.525 19.5695C35.9389 19.5695 35.3693 19.2648 35.0554 18.7209L30.8634 11.461ZM76.4998 54.799L55.5937 75.7064C55.0742 76.2259 54.4404 76.4419 53.7119 76.345C52.9834 76.2491 52.4278 75.8781 52.0601 75.2406L44.4443 62.0494C43.7112 60.7806 44.1479 59.1521 45.4167 58.419C46.6867 57.6859 48.3152 58.1226 49.0483 59.3914L53.5588 67.2044C53.8225 67.6609 54.2837 67.9689 54.8056 68.0368C55.3285 68.1068 55.8528 67.9283 56.2262 67.5546L72.7408 51.04C73.2392 50.5416 73.9081 50.2672 74.6201 50.2672C75.3322 50.2672 76.0035 50.5416 76.4995 51.04C76.9979 51.5385 77.2748 52.2062 77.2748 52.9194C77.2748 53.6327 76.9982 54.3004 76.4995 54.7988L76.4998 54.799ZM74.6204 46.8764C73.0023 46.8764 71.4836 47.5031 70.3431 48.6426L55.3905 63.5965L51.9841 57.6966C50.3171 54.8085 46.6107 53.815 43.7216 55.482C40.8335 57.1502 39.8403 60.8564 41.5083 63.7445L49.1241 76.9367C50.0195 78.4881 51.4927 79.4721 53.2694 79.7068C53.5309 79.7407 53.7901 79.7582 54.0456 79.7582C55.5317 79.7582 56.9102 79.1849 57.9913 78.104L78.8974 57.1967C80.0379 56.0574 80.6649 54.5387 80.6649 52.9194C80.6649 51.3002 80.0379 49.7816 78.8974 48.6421C77.7594 47.5029 76.2404 46.8759 74.6201 46.8759L74.6204 46.8764ZM62.0002 88.2066C76.4487 88.2066 88.2049 76.4501 88.2049 61.9995C88.2049 47.5489 76.4484 35.7948 62.0002 35.7948C47.5521 35.7948 35.7943 47.5501 35.7943 61.9995C35.7943 76.4489 47.5496 88.2066 62.0002 88.2066ZM62.0002 32.4037C45.6795 32.4037 32.4032 45.6812 32.4032 61.9995C32.4032 78.3179 45.6795 91.5965 62.0002 91.5965C78.321 91.5965 91.5951 78.3203 91.5951 61.9995C91.5951 45.6787 78.3188 32.4037 62.0002 32.4037ZM99.5902 70.1278C102.707 67.9145 104.095 65.4083 104.095 62.0007C104.095 58.5931 102.707 56.0858 99.5902 53.8724C95.4461 50.9284 93.4769 46.1796 94.3277 41.167C94.9639 37.3976 94.1749 34.6427 91.7653 32.2344C89.3548 29.8251 86.6009 29.0346 82.8327 29.6733C77.8202 30.5231 73.0702 28.5551 70.1273 24.4108C67.914 21.2953 65.4078 19.9049 62.0002 19.9049C58.5927 19.9049 56.0865 21.2953 53.8719 24.4108C50.9291 28.5549 46.1791 30.5231 41.1665 29.6733C37.3971 29.0359 34.6423 29.8251 32.2339 32.2344C29.8235 34.644 29.0342 37.4 29.6728 41.167C30.5226 46.1796 28.5556 50.9284 24.4103 53.8724C21.2936 56.0858 19.9044 58.5931 19.9044 62.0007C19.9044 65.4083 21.2936 67.9145 24.4103 70.1278C28.5544 73.0718 30.5214 77.8207 29.6728 82.8332C29.0354 86.6026 29.8244 89.3575 32.2339 91.767C34.6435 94.1763 37.3984 94.9656 41.1665 94.327C41.9357 94.1974 42.6994 94.1332 43.4499 94.1332C47.594 94.1332 51.3798 96.0804 53.8719 99.5894C56.0865 102.706 58.5927 104.095 62.0002 104.095C65.4078 104.095 67.914 102.706 70.1273 99.5894C73.0702 95.4454 77.8214 93.4783 82.8327 94.327C86.6009 94.9654 89.357 94.1751 91.7653 91.767C94.1749 89.3565 94.9663 86.6014 94.3277 82.8332C93.4766 77.8207 95.4437 73.0718 99.5902 70.1278ZM101.551 51.1081C98.4952 48.9357 97.0419 45.4324 97.6686 41.7342C98.4974 36.8372 97.3838 33.0574 94.1632 29.8365C90.9857 26.659 87.0938 25.5115 82.2667 26.3309C78.5685 26.9567 75.0641 25.5055 72.8917 22.4471C70.0164 18.3987 66.5553 16.5136 62.0002 16.5136C57.4452 16.5136 53.9829 18.3987 51.1076 22.4471C48.9364 25.5055 45.432 26.9567 41.7325 26.3309C36.8367 25.5021 33.0567 26.6157 29.836 29.8365C26.6585 33.014 25.5123 36.906 26.3306 41.7342C26.9562 45.4312 25.5052 48.9357 22.4469 51.1081C18.3997 53.9833 16.5133 57.4445 16.5133 62.0007C16.5133 66.557 18.3997 70.0169 22.4469 72.8921C25.5052 75.0646 26.9564 78.569 26.3294 82.2672C25.5019 87.163 26.6154 90.9431 29.836 94.1649C33.0135 97.3412 36.9055 98.4887 41.7338 97.6706C45.4307 97.0438 48.9364 98.496 51.1076 101.553C53.9829 105.602 57.444 107.487 62.0002 107.487C66.5565 107.487 70.0164 105.602 72.8917 101.553C75.0641 98.496 78.5685 97.0438 82.2667 97.6706C87.1638 98.4994 90.9436 97.3846 94.1632 94.164C97.3419 90.9865 98.4882 87.0945 97.6686 82.2675C97.0419 78.5693 98.4952 75.0648 101.551 72.8924C105.601 70.0171 107.485 66.5572 107.485 62.001C107.485 57.4447 105.601 53.9836 101.551 51.1083V51.1081Z" fill="black"/>
</g>
<defs>
<clipPath id="clip0_1031_46769">
<rect width="124" height="124" fill="white"/>
</clipPath>
</defs>
</svg>
