<svg width="64" height="64" viewBox="0 0 64 64" fill="none" xmlns="http://www.w3.org/2000/svg">
<path d="M63.1038 18.7412L32.4372 8.07455C32.1542 7.9745 31.8455 7.9745 31.5625 8.07455L0.895848 18.7412C0.634791 18.8325 0.408564 19.0026 0.248497 19.2281C0.0884291 19.4536 0.00244141 19.7233 0.00244141 19.9999C0.00244141 20.2764 0.0884291 20.5461 0.248497 20.7716C0.408564 20.9971 0.634791 21.1673 0.895848 21.2585L16.0292 26.5225C16.0167 26.57 16.0069 26.618 15.9998 26.6665V35.9999C16.0048 37.4472 16.4854 38.8527 17.3678 39.9999H6.66651C6.31289 39.9999 5.97375 40.1404 5.72371 40.3904C5.47366 40.6405 5.33318 40.9796 5.33318 41.3332C5.33318 41.6868 5.47366 42.026 5.72371 42.276C5.97375 42.5261 6.31289 42.6665 6.66651 42.6665H7.99985V47.9999C7.99985 48.3535 8.14032 48.6926 8.39037 48.9427C8.64042 49.1927 8.97956 49.3332 9.33318 49.3332H33.3332C33.6868 49.3332 34.0259 49.1927 34.276 48.9427C34.526 48.6926 34.6665 48.3535 34.6665 47.9999C34.6665 47.6463 34.526 47.3071 34.276 47.0571C34.0259 46.807 33.6868 46.6665 33.3332 46.6665H10.6665V42.6665H39.9998V49.3332C39.9999 49.5969 40.0781 49.8546 40.2246 50.0738C40.3712 50.293 40.5794 50.4639 40.823 50.5648C41.0666 50.6657 41.3346 50.6921 41.5932 50.6407C41.8518 50.5892 42.0894 50.4623 42.2758 50.2759L45.3332 47.2186L48.3905 50.2759C48.577 50.4623 48.8145 50.5892 49.0731 50.6407C49.3317 50.6921 49.5998 50.6657 49.8434 50.5648C50.087 50.4639 50.2952 50.293 50.4417 50.0738C50.5882 49.8546 50.6665 49.5969 50.6665 49.3332V42.6665H51.9998C53.0607 42.6665 54.0781 43.088 54.8283 43.8381C55.5784 44.5883 55.9998 45.6057 55.9998 46.6665V49.3332C55.9998 50.3941 55.5784 51.4115 54.8283 52.1616C54.0781 52.9118 53.0607 53.3332 51.9998 53.3332H6.66651C6.31289 53.3332 5.97375 53.4737 5.72371 53.7237C5.47366 53.9738 5.33318 54.3129 5.33318 54.6665C5.33318 55.0202 5.47366 55.3593 5.72371 55.6094C5.97375 55.8594 6.31289 55.9999 6.66651 55.9999H51.9998C53.7673 55.9978 55.4618 55.2947 56.7116 54.0449C57.9613 52.7951 58.6644 51.1007 58.6665 49.3332V46.6665C58.6644 44.8991 57.9613 43.2046 56.7116 41.9548C55.4618 40.7051 53.7673 40.002 51.9998 39.9999H46.6318C47.5143 38.8527 47.9949 37.4472 47.9998 35.9999V30.6665C47.9998 30.3129 47.8594 29.9738 47.6093 29.7237C47.3593 29.4737 47.0201 29.3332 46.6665 29.3332C46.3129 29.3332 45.9738 29.4737 45.7237 29.7237C45.4737 29.9738 45.3332 30.3129 45.3332 30.6665V35.9999C45.3332 37.0607 44.9118 38.0782 44.1616 38.8283C43.4115 39.5785 42.394 39.9999 41.3332 39.9999H22.6665C21.6056 39.9999 20.5882 39.5785 19.8381 38.8283C19.0879 38.0782 18.6665 37.0607 18.6665 35.9999V27.4399L31.5625 31.9252C31.8456 32.0247 32.1541 32.0247 32.4372 31.9252L55.9998 23.7332V32.2479C55.1102 32.5624 54.3604 33.1813 53.883 33.9952C53.4056 34.8091 53.2312 35.7655 53.3908 36.6955C53.5504 37.6255 54.0335 38.4692 54.755 39.0774C55.4764 39.6855 56.3896 40.0191 57.3332 40.0191C58.2768 40.0191 59.19 39.6855 59.9114 39.0774C60.6328 38.4692 61.116 37.6255 61.2756 36.6955C61.4351 35.7655 61.2608 34.8091 60.7834 33.9952C60.3059 33.1813 59.5561 32.5624 58.6665 32.2479V22.7999L63.1038 21.2559C63.3649 21.1646 63.5911 20.9945 63.7512 20.769C63.9113 20.5435 63.9973 20.2738 63.9973 19.9972C63.9973 19.7207 63.9113 19.451 63.7512 19.2255C63.5911 18.9999 63.3649 18.8298 63.1038 18.7385V18.7412ZM47.9998 46.1145L46.2758 44.3905C46.0258 44.1406 45.6867 44.0002 45.3332 44.0002C44.9796 44.0002 44.6406 44.1406 44.3905 44.3905L42.6665 46.1145V42.6665H47.9998V46.1145ZM57.3332 37.3332C57.0695 37.3332 56.8117 37.255 56.5924 37.1085C56.3732 36.962 56.2023 36.7538 56.1013 36.5101C56.0004 36.2665 55.974 35.9984 56.0255 35.7398C56.0769 35.4811 56.2039 35.2435 56.3904 35.0571C56.5768 34.8706 56.8144 34.7436 57.0731 34.6922C57.3317 34.6407 57.5998 34.6671 57.8434 34.768C58.0871 34.869 58.2953 35.0399 58.4418 35.2591C58.5883 35.4784 58.6665 35.7362 58.6665 35.9999C58.6665 36.3535 58.526 36.6926 58.276 36.9427C58.0259 37.1927 57.6868 37.3332 57.3332 37.3332ZM31.9998 29.2545L5.39185 19.9999L31.9998 10.7452L58.6079 19.9999L31.9998 29.2545Z" fill="#1882FF"/>
</svg>
