<svg width="44" height="44" viewBox="0 0 44 44" fill="none" xmlns="http://www.w3.org/2000/svg">
<path fill-rule="evenodd" clip-rule="evenodd" d="M26.6032 31.5606C26.2947 31.5606 26.0446 31.3106 26.0446 31.0021V27.059C26.0446 24.4616 23.9315 22.3487 21.3341 22.3487H17.9517C17.6432 22.3487 17.3932 22.0986 17.3932 21.7901C17.3932 21.4815 17.6432 21.2315 17.9517 21.2315H21.3341C24.5475 21.2315 27.1617 23.8458 27.1617 27.0591V31.0022C27.1617 31.3106 26.9117 31.5606 26.6032 31.5606ZM4.45846 31.5606C4.15 31.5606 3.8999 31.3106 3.8999 31.0021V27.059C3.8999 23.8457 6.51417 21.2314 9.7276 21.2314H13.1102C13.4188 21.2314 13.6688 21.4815 13.6688 21.79C13.6688 22.0986 13.4188 22.3486 13.1102 22.3486H9.72769C7.13028 22.3486 5.01702 24.4616 5.01702 27.0589V31.002C5.01702 31.3106 4.76693 31.5606 4.45846 31.5606Z" fill="#FFBF00"/>
<path fill-rule="evenodd" clip-rule="evenodd" d="M15.5307 25.5923C15.3544 25.5923 15.1884 25.509 15.083 25.3678L12.6622 22.1242C12.4777 21.8769 12.5286 21.5268 12.7758 21.3424C13.023 21.158 13.3731 21.2086 13.5575 21.4559L15.5308 24.0999L17.504 21.456C17.6886 21.2087 18.0386 21.1579 18.2857 21.3424C18.533 21.5269 18.5838 21.8769 18.3993 22.1242L15.9784 25.368C15.8729 25.5091 15.707 25.5923 15.5307 25.5923Z" fill="#FFBF00"/>
<path fill-rule="evenodd" clip-rule="evenodd" d="M17.2234 30.3091C16.9944 30.3091 16.7796 30.1672 16.6977 29.939L15.5288 26.6823L14.3669 29.8997C14.262 30.1899 13.9419 30.3403 13.6517 30.2353C13.3616 30.1307 13.2113 29.8105 13.3161 29.5203L15.005 24.8435C15.0849 24.6221 15.295 24.4746 15.5304 24.4746H15.5309C15.7665 24.4749 15.9766 24.6228 16.0562 24.8446L17.7491 29.5618C17.8533 29.852 17.7024 30.172 17.4121 30.2761C17.3498 30.2985 17.2862 30.3091 17.2234 30.3091Z" fill="#FFBF00"/>
<path fill-rule="evenodd" clip-rule="evenodd" d="M13.1098 22.3485C12.8014 22.3485 12.5513 22.0984 12.5513 21.79V19.9038C12.5513 19.5952 12.8014 19.3452 13.1098 19.3452C13.4184 19.3452 13.6684 19.5952 13.6684 19.9038V21.7899C13.6684 22.0983 13.4183 22.3485 13.1098 22.3485Z" fill="#FFBF00"/>
<path fill-rule="evenodd" clip-rule="evenodd" d="M17.9516 22.3485C17.6432 22.3485 17.3931 22.0984 17.3931 21.79V19.9038C17.3931 19.5952 17.6432 19.3452 17.9516 19.3452C18.2602 19.3452 18.5102 19.5952 18.5102 19.9038V21.7899C18.5102 22.0983 18.2602 22.3485 17.9516 22.3485Z" fill="#FFBF00"/>
<path fill-rule="evenodd" clip-rule="evenodd" d="M15.5307 21.1567C12.6875 21.1567 10.3745 18.8437 10.3745 16.0004V14.0379C10.3745 13.8551 10.464 13.6836 10.6143 13.5793C10.7645 13.4748 10.9562 13.4505 11.1277 13.5143L15.4542 15.1223L19.9377 13.4944C20.1091 13.4323 20.2997 13.4576 20.4489 13.562C20.5981 13.6666 20.6869 13.8373 20.6869 14.0195V16.0005C20.6868 18.8437 18.3738 21.1567 15.5307 21.1567ZM11.4916 14.8415V16.0004C11.4916 18.2275 13.3035 20.0395 15.5307 20.0395C17.7578 20.0395 19.5696 18.2276 19.5696 16.0004V14.8165L15.6425 16.2424C15.518 16.2877 15.3816 16.2871 15.2572 16.241L11.4916 14.8415Z" fill="#FFBF00"/>
<path fill-rule="evenodd" clip-rule="evenodd" d="M15.4519 16.2755C15.386 16.2755 15.3201 16.2639 15.2572 16.2405L7.55978 13.3798C7.34713 13.3007 7.20351 13.1011 7.1961 12.8743C7.18869 12.6477 7.31922 12.439 7.52628 12.3463L15.0521 8.97923C15.1934 8.9163 15.3545 8.91437 15.4968 8.97436L23.5233 12.3503C23.7352 12.4394 23.8708 12.6492 23.8652 12.8791C23.8595 13.1089 23.7134 13.3117 23.4974 13.3902L15.6425 16.242C15.5809 16.2644 15.5165 16.2755 15.4519 16.2755ZM9.22928 12.8085L15.4542 15.1219L21.7752 12.8269L15.2872 10.0981L9.22928 12.8085Z" fill="#FFBF00"/>
<path fill-rule="evenodd" clip-rule="evenodd" d="M7.75485 16.7776C7.44639 16.7776 7.19629 16.5275 7.19629 16.2191V12.8564C7.19629 12.5478 7.44639 12.2979 7.75485 12.2979C8.06342 12.2979 8.31341 12.5478 8.31341 12.8564V16.2191C8.31341 16.5275 8.06331 16.7776 7.75485 16.7776Z" fill="#FFBF00"/>
<path fill-rule="evenodd" clip-rule="evenodd" d="M30.5017 40.9038H0.559545C0.385978 40.9038 0.222154 40.8231 0.11639 40.6853C0.0107271 40.5475 -0.0249 40.3684 0.0199637 40.2006L2.52329 30.8578C2.58876 30.6136 2.81003 30.4438 3.06287 30.4438H6.263C6.57157 30.4438 6.82156 30.6938 6.82156 31.0024C6.82156 31.3109 6.57157 31.561 6.263 31.561H3.49151L1.28751 39.7867H29.7737L27.5698 31.561H24.7982C24.4898 31.561 24.2397 31.3109 24.2397 31.0024C24.2397 30.6938 24.4898 30.4438 24.7982 30.4438H27.9985C28.2513 30.4438 28.4727 30.6137 28.5379 30.8578L31.0412 40.2006C31.0861 40.3684 31.0505 40.5475 30.9448 40.6853C30.8391 40.8231 30.6753 40.9038 30.5017 40.9038Z" fill="#FFBF00"/>
<path fill-rule="evenodd" clip-rule="evenodd" d="M15.6033 39.1787C15.4726 39.1787 15.3433 39.1328 15.24 39.0445C14.4259 38.348 13.0897 37.9948 11.2687 37.9948C8.02716 37.9948 4.42873 39.1401 4.3928 39.1518C4.19812 39.2144 3.98467 39.1656 3.83658 39.0246C3.68859 38.8837 3.62921 38.673 3.68209 38.4755L5.72338 30.8576C5.76297 30.7096 5.86173 30.5844 5.99632 30.5114C7.98503 29.4311 9.92767 28.8833 11.7703 28.8833C14.3959 28.8833 15.882 30.0053 15.9441 30.0531C16.0813 30.1588 16.1617 30.3223 16.1617 30.4954V38.6201C16.1617 38.838 16.0349 39.0363 15.8368 39.1274C15.7622 39.1618 15.6825 39.1787 15.6033 39.1787ZM6.73981 31.3808L5.01744 37.8088C6.35421 37.4507 8.86819 36.8776 11.2687 36.8776C12.8125 36.8776 14.0771 37.1185 15.0446 37.5953V30.7996C14.5948 30.5388 13.4612 30.0004 11.7704 30.0004C10.1798 30.0004 8.48848 30.4647 6.73981 31.3808Z" fill="#FFBF00"/>
<path fill-rule="evenodd" clip-rule="evenodd" d="M15.6034 39.1788C15.5242 39.1788 15.4445 39.1619 15.3698 39.1275C15.1717 39.0363 15.0449 38.8381 15.0449 38.6201V30.4955C15.0449 30.3222 15.1253 30.1589 15.2624 30.0532C15.3245 30.0053 16.8106 28.8833 19.4362 28.8833C21.2788 28.8833 23.2215 29.4312 25.2102 30.5114C25.3447 30.5846 25.4434 30.7098 25.4831 30.8576L27.5128 38.4325C27.5337 38.4911 27.5452 38.5543 27.5452 38.6201C27.5452 38.9287 27.2951 39.1788 26.9866 39.1788C26.9858 39.1787 26.9852 39.1787 26.9848 39.1788C26.9269 39.1788 26.869 39.1697 26.814 39.1519C26.6667 39.1047 23.1687 37.9949 19.9379 37.9949C18.1168 37.9949 16.7806 38.348 15.9665 39.0446C15.8634 39.1329 15.7341 39.1788 15.6034 39.1788ZM19.9379 36.8777C22.3403 36.8777 24.8531 37.4506 26.1893 37.8088L24.4668 31.381C22.7181 30.4648 21.0269 30.0005 19.4362 30.0005C17.7281 30.0005 16.6076 30.5358 16.162 30.7974V37.5954C17.1297 37.1186 18.3941 36.8777 19.9379 36.8777Z" fill="#FFBF00"/>
<path fill-rule="evenodd" clip-rule="evenodd" d="M15.6035 40.9037C15.2949 40.9037 15.0449 40.6536 15.0449 40.3451V38.6201C15.0449 38.3116 15.2949 38.0615 15.6035 38.0615C15.9119 38.0615 16.162 38.3116 16.162 38.6201V40.3451C16.162 40.6536 15.9119 40.9037 15.6035 40.9037Z" fill="#FFBF00"/>
<path fill-rule="evenodd" clip-rule="evenodd" d="M34.2817 11.4745C34.2157 11.4745 34.1499 11.4628 34.087 11.4396L25.1125 8.10394C24.8999 8.02497 24.7562 7.82521 24.7488 7.59846C24.7415 7.37181 24.8719 7.16312 25.0791 7.07055L33.8536 3.14488C33.9948 3.08175 34.1558 3.07992 34.2983 3.13991L43.6567 7.07603C43.8686 7.16515 44.0042 7.37495 43.9985 7.60485C43.9929 7.83465 43.8469 8.03755 43.6308 8.11591L34.4724 11.4411C34.4108 11.4633 34.3463 11.4745 34.2817 11.4745ZM26.7818 7.53259L34.284 10.3208L41.9085 7.55269L34.0886 4.26364L26.7818 7.53259Z" fill="#FFBF00"/>
<path fill-rule="evenodd" clip-rule="evenodd" d="M25.3071 12.0599C24.9985 12.0599 24.7485 11.8098 24.7485 11.5013V7.58064C24.7485 7.27207 24.9985 7.02197 25.3071 7.02197C25.6156 7.02197 25.8657 7.27207 25.8657 7.58064V11.5012C25.8657 11.8098 25.6156 12.0599 25.3071 12.0599Z" fill="#FFBF00"/>
<path fill-rule="evenodd" clip-rule="evenodd" d="M38.8706 16.0293H29.877C28.8086 16.0293 27.9395 15.1602 27.9395 14.0919V9.06304C27.9395 8.92866 27.9537 8.79356 27.9817 8.66161C28.0154 8.50276 28.1166 8.36644 28.2589 8.28829C28.4012 8.21003 28.5705 8.19764 28.7226 8.25418L34.284 10.3211L40.025 8.23673C40.1759 8.18192 40.3429 8.1946 40.4837 8.27154C40.6244 8.34848 40.7253 8.48226 40.7607 8.63867C40.7921 8.77763 40.8079 8.92044 40.8079 9.06305V14.0919C40.8078 15.1602 39.9388 16.0293 38.8706 16.0293ZM29.0566 9.57014V14.0919C29.0566 14.5442 29.4246 14.9122 29.877 14.9122L38.8706 14.9123C39.3228 14.9123 39.6906 14.5443 39.6906 14.092V9.5466L34.4724 11.4411C34.3479 11.4864 34.2113 11.4859 34.0871 11.4397L29.0566 9.57014Z" fill="#FFBF00"/>
</svg>
