<svg width="124" height="124" viewBox="0 0 124 124" fill="none" xmlns="http://www.w3.org/2000/svg">
<path fill-rule="evenodd" clip-rule="evenodd" d="M76.5252 90.3053H47.4753C45.648 90.3053 44.1574 88.8147 44.1574 86.9874V85.4989C44.1574 68.2142 26.3145 63.3591 26.3145 40.1304C26.3145 18.8181 44.1571 8.16211 62.0003 8.16211C79.8435 8.16211 97.6859 18.8181 97.6859 40.1304C97.6859 63.3591 79.843 68.2144 79.843 85.4989V86.9874C79.843 88.8149 78.3528 90.3053 76.5252 90.3053Z" fill="#FCDB35"/>
<path fill-rule="evenodd" clip-rule="evenodd" d="M70.5682 90.3059H47.4763C45.649 90.3059 44.1584 88.8152 44.1584 86.9879V85.4995C44.1584 68.2148 26.3154 63.3596 26.3154 40.1309C26.3154 20.0061 42.2257 9.385 59.0224 8.26367C75.819 9.385 91.7291 20.0059 91.7291 40.1309C91.7291 63.3596 73.8861 68.215 73.8861 85.4995V86.9879C73.8861 88.8155 72.3957 90.3059 70.5682 90.3059Z" fill="#FFEB87"/>
<path d="M62.001 58.1613C66.4102 58.1613 69.9845 54.587 69.9845 50.1778C69.9845 45.7687 66.4102 42.1943 62.001 42.1943C57.5919 42.1943 54.0176 45.7687 54.0176 50.1778C54.0176 54.587 57.5919 58.1613 62.001 58.1613Z" fill="#F99500"/>
<path fill-rule="evenodd" clip-rule="evenodd" d="M60.111 57.9369C56.6138 57.0883 54.0166 53.9372 54.0166 50.1789C54.0166 46.4206 56.6136 43.2695 60.111 42.4209C63.6082 43.2695 66.2054 46.4206 66.2054 50.1789C66.2054 53.9372 63.6084 57.0883 60.111 57.9369Z" fill="#F9AC00"/>
<path fill-rule="evenodd" clip-rule="evenodd" d="M120.73 42.1879C120.73 43.8593 119.374 45.2148 117.703 45.2148H111.125C109.453 45.2148 108.098 43.8593 108.098 42.1879C108.098 40.5166 109.453 39.1599 111.125 39.1599H117.703C119.374 39.1599 120.73 40.5142 120.73 42.1879ZM21.482 21.3642C20.9206 22.3349 19.9027 22.8783 18.8567 22.8783C18.344 22.8783 17.8235 22.7478 17.3452 22.4717L11.6495 19.1825C10.2019 18.3463 9.70445 16.4957 10.5407 15.0482C11.3782 13.6006 13.2288 13.1031 14.6775 13.9382L20.3733 17.2274C21.8209 18.0663 22.3183 19.9166 21.482 21.3642ZM113.458 69.3277C112.899 70.2957 111.879 70.8404 110.832 70.8404C110.32 70.8404 109.802 70.7099 109.323 70.4338L103.625 67.1446C102.179 66.3096 101.683 64.4566 102.519 63.0078C103.354 61.5627 105.204 61.0667 106.652 61.9017L112.352 65.1909C113.796 66.026 114.293 67.8789 113.458 69.3277ZM21.482 63.0078C22.3183 64.4568 21.8209 66.3096 20.3733 67.1446L14.6775 70.4338C14.1992 70.7101 13.6788 70.8404 13.166 70.8404C12.12 70.8404 11.1021 70.2981 10.5407 69.3277C9.70445 67.8787 10.2019 66.026 11.6495 65.1909L17.3452 61.9017C18.794 61.064 20.6445 61.5603 21.482 63.0078ZM12.8744 45.2148H6.29639C4.6236 45.2148 3.26953 43.8593 3.26953 42.1879C3.26953 40.5166 4.62384 39.1599 6.29639 39.1599H12.8744C14.5458 39.1599 15.9028 40.5142 15.9028 42.1879C15.9028 43.8617 14.546 45.2148 12.8744 45.2148ZM102.519 21.3642C101.683 19.9166 102.179 18.0663 103.625 17.2274L109.323 13.9382C110.77 13.1031 112.623 13.6006 113.458 15.0482C114.293 16.4957 113.796 18.3463 112.352 19.1825L106.652 22.4741C106.177 22.7478 105.657 22.8781 105.143 22.8781C104.097 22.8781 103.078 22.3346 102.519 21.3639L102.519 21.3642ZM72.3906 111.7C72.3906 113.37 71.0338 114.727 69.3625 114.727H65.0273V115.846C65.0273 117.517 63.6718 118.874 62.0005 118.874C60.3291 118.874 58.9736 117.517 58.9736 115.846V114.727H54.6373C52.9671 114.727 51.6104 113.37 51.6104 111.7C51.6104 110.03 52.9671 108.673 54.6373 108.673H69.3625C71.0338 108.673 72.3906 110.027 72.3906 111.7ZM78.943 100.998C78.943 102.669 77.5874 104.025 75.9161 104.025H48.0834C46.4106 104.025 45.0566 102.669 45.0566 100.998C45.0566 99.3267 46.4109 97.9712 48.0834 97.9712H75.9161C77.5874 97.9712 78.943 99.3267 78.943 100.998ZM85.3178 64.6511C81.1374 70.4822 76.8151 76.5132 76.8151 85.4901V86.9798C76.8151 87.1345 76.6797 87.2702 76.525 87.2702H65.0273V60.7531C69.6308 59.4358 73.0096 55.1903 73.0096 50.1697C73.0096 44.0981 68.0721 39.1594 62.0005 39.1594C55.9288 39.1594 50.9875 44.0981 50.9875 50.1697C50.9875 55.1903 54.3687 59.4358 58.9736 60.7531V87.2702H47.4736C47.3188 87.2702 47.1832 87.1345 47.1832 86.9798V85.4901C47.1832 76.5129 42.8623 70.4822 38.6793 64.6511C34.0884 58.2445 29.3415 51.6214 29.3415 40.1213C29.3415 20.2387 46.2702 11.1797 62.0005 11.1797C77.7308 11.1797 94.6595 20.2387 94.6595 40.1213C94.6595 51.6214 89.9099 58.2442 85.3178 64.6511ZM62.0005 55.1253C64.7319 55.1253 66.9556 52.9016 66.9556 50.1699C66.9556 47.4383 64.7319 45.2145 62.0005 45.2145C59.2691 45.2145 57.0427 47.4383 57.0427 50.1699C57.0427 52.9016 59.2664 55.1253 62.0005 55.1253ZM88.4202 13.7784C81.4137 8.19909 72.0312 5.12598 62.0005 5.12598C51.9698 5.12598 42.5872 8.19885 35.5807 13.7784C27.5372 20.1825 23.2866 29.2912 23.2866 40.1213C23.2866 53.5652 28.8494 61.3299 33.7612 68.1766C37.7139 73.6934 41.1283 78.4579 41.1283 85.4901V86.9798C41.1283 90.4772 43.9774 93.3251 47.4736 93.3251H76.5252C80.0238 93.3251 82.8693 90.4772 82.8693 86.9798V85.4901C82.8693 78.4594 86.2849 73.6934 90.2403 68.1792C95.1482 61.3299 100.715 53.5652 100.715 40.1213C100.715 29.2912 96.4616 20.1825 88.4207 13.7784H88.4202Z" fill="black"/>
</svg>
