<svg width="44" height="44" viewBox="0 0 44 44" fill="none" xmlns="http://www.w3.org/2000/svg">
<path d="M43.3842 12.8844L22.3008 5.5511C22.1063 5.48232 21.894 5.48232 21.6995 5.5511L0.61617 12.8844C0.436693 12.9472 0.281163 13.0641 0.171116 13.2192C0.0610697 13.3742 0.00195313 13.5596 0.00195312 13.7498C0.00195313 13.9399 0.0610697 14.1253 0.171116 14.2803C0.281163 14.4354 0.436693 14.5524 0.61617 14.6151L11.0203 18.2341C11.0118 18.2667 11.005 18.2997 11.0002 18.3331V24.7498C11.0035 25.7448 11.334 26.7111 11.9407 27.4998H4.5835C4.34039 27.4998 4.10723 27.5963 3.93532 27.7683C3.76341 27.9402 3.66684 28.1733 3.66684 28.4164C3.66684 28.6595 3.76341 28.8927 3.93532 29.0646C4.10723 29.2365 4.34039 29.3331 4.5835 29.3331H5.50017V32.9998C5.50017 33.2429 5.59675 33.476 5.76866 33.6479C5.94056 33.8199 6.17372 33.9164 6.41684 33.9164H22.9168C23.16 33.9164 23.3931 33.8199 23.565 33.6479C23.7369 33.476 23.8335 33.2429 23.8335 32.9998C23.8335 32.7567 23.7369 32.5235 23.565 32.3516C23.3931 32.1797 23.16 32.0831 22.9168 32.0831H7.3335V29.3331H27.5002V33.9164C27.5002 34.0977 27.554 34.2749 27.6547 34.4256C27.7554 34.5763 27.8986 34.6938 28.0661 34.7631C28.2335 34.8325 28.4178 34.8507 28.5956 34.8153C28.7734 34.7799 28.9367 34.6927 29.0649 34.5645L31.1668 32.4626L33.2688 34.5645C33.397 34.6927 33.5603 34.7799 33.7381 34.8153C33.9159 34.8507 34.1001 34.8325 34.2676 34.7631C34.4351 34.6938 34.5782 34.5763 34.679 34.4256C34.7797 34.2749 34.8335 34.0977 34.8335 33.9164V29.3331H35.7502C36.4795 29.3331 37.179 29.6228 37.6947 30.1386C38.2104 30.6543 38.5002 31.3538 38.5002 32.0831V33.9164C38.5002 34.6458 38.2104 35.3452 37.6947 35.861C37.179 36.3767 36.4795 36.6664 35.7502 36.6664H4.5835C4.34039 36.6664 4.10723 36.763 3.93532 36.9349C3.76341 37.1068 3.66684 37.34 3.66684 37.5831C3.66684 37.8262 3.76341 38.0594 3.93532 38.2313C4.10723 38.4032 4.34039 38.4998 4.5835 38.4998H35.7502C36.9653 38.4983 38.1302 38.015 38.9895 37.1557C39.8487 36.2965 40.3321 35.1316 40.3335 33.9164V32.0831C40.3321 30.868 39.8487 29.703 38.9895 28.8438C38.1302 27.9846 36.9653 27.5012 35.7502 27.4998H32.0597C32.6663 26.7111 32.9968 25.7448 33.0002 24.7498V21.0831C33.0002 20.84 32.9036 20.6068 32.7317 20.4349C32.5598 20.263 32.3266 20.1664 32.0835 20.1664C31.8404 20.1664 31.6072 20.263 31.4353 20.4349C31.2634 20.6068 31.1668 20.84 31.1668 21.0831V24.7498C31.1668 25.4791 30.8771 26.1786 30.3614 26.6943C29.8457 27.21 29.1462 27.4998 28.4168 27.4998H15.5835C14.8542 27.4998 14.1547 27.21 13.639 26.6943C13.1232 26.1786 12.8335 25.4791 12.8335 24.7498V18.8648L21.6995 21.9484C21.8941 22.0168 22.1062 22.0168 22.3008 21.9484L38.5002 16.3164V22.1703C37.8886 22.3865 37.3731 22.812 37.0448 23.3715C36.7166 23.9311 36.5967 24.5886 36.7064 25.228C36.8161 25.8674 37.1483 26.4474 37.6443 26.8655C38.1403 27.2837 38.7681 27.513 39.4168 27.513C40.0656 27.513 40.6934 27.2837 41.1894 26.8655C41.6853 26.4474 42.0175 25.8674 42.1272 25.228C42.2369 24.5886 42.1171 23.9311 41.7888 23.3715C41.4606 22.812 40.9451 22.3865 40.3335 22.1703V15.6748L43.3842 14.6133C43.5636 14.5505 43.7192 14.4336 43.8292 14.2785C43.9393 14.1235 43.9984 13.9381 43.9984 13.7479C43.9984 13.5578 43.9393 13.3724 43.8292 13.2174C43.7192 13.0623 43.5636 12.9453 43.3842 12.8826V12.8844ZM33.0002 31.7036L31.8149 30.5183C31.643 30.3465 31.4099 30.25 31.1668 30.25C30.9238 30.25 30.6907 30.3465 30.5188 30.5183L29.3335 31.7036V29.3331H33.0002V31.7036ZM39.4168 25.6664C39.2355 25.6664 39.0583 25.6127 38.9076 25.5119C38.7568 25.4112 38.6393 25.2681 38.57 25.1006C38.5006 24.9331 38.4824 24.7487 38.5178 24.5709C38.5532 24.3931 38.6405 24.2298 38.7687 24.1016C38.8969 23.9734 39.0602 23.8861 39.238 23.8507C39.4158 23.8153 39.6001 23.8335 39.7676 23.9029C39.9351 23.9723 40.0783 24.0897 40.179 24.2405C40.2797 24.3912 40.3335 24.5685 40.3335 24.7498C40.3335 24.9929 40.2369 25.226 40.065 25.3979C39.8931 25.5699 39.66 25.6664 39.4168 25.6664ZM22.0002 20.1123L3.70717 13.7498L22.0002 7.38718L40.2932 13.7498L22.0002 20.1123Z" fill="#FFBF00"/>
</svg>
