<svg width="205" height="61" viewBox="0 0 205 61" fill="none" xmlns="http://www.w3.org/2000/svg">
<path d="M11.9313 0C11.9292 0 11.9271 0 11.925 0C11.1871 0 10.4936 0.289374 9.96968 0.815505C9.44007 1.34732 9.14844 2.05617 9.14844 2.80982V44.9507C9.14844 46.4957 10.4018 47.7563 11.9433 47.7606C18.4405 47.7762 29.3249 49.1399 36.834 57.0518V12.9499C36.834 12.4259 36.7012 11.9339 36.4506 11.5265C30.2867 1.53431 18.4433 0.0156417 11.9313 0Z" fill="#FF5C2A"/>
<path d="M68.8528 44.9515V2.80982C68.8528 2.05546 68.5612 1.34732 68.0316 0.815505C67.5076 0.289374 66.8135 0 66.0763 0C66.0742 0 66.0713 0 66.0692 0C59.5579 0.0156417 47.7146 1.53431 41.5514 11.5272C41.3007 11.9346 41.168 12.4266 41.168 12.9506V57.0524C48.677 49.1406 59.5621 47.7769 66.0586 47.7613C67.5987 47.757 68.8528 46.4964 68.8528 44.9515Z" fill="#FF5C2A"/>
<path d="M75.2094 9.71875H73.1856V44.9517C73.1856 48.897 69.9932 52.1149 66.0684 52.1242C60.5577 52.1377 51.4712 53.2226 45.0361 59.3549C56.1656 56.6112 67.8981 58.3951 74.5852 59.9287C75.4198 60.1199 76.2827 59.9223 76.9514 59.3855C77.618 58.8501 78.0001 58.0495 78.0001 57.1906V12.5286C78.0008 10.9793 76.7481 9.71875 75.2094 9.71875Z" fill="#1CB098"/>
<path d="M4.81445 44.9517V9.71875H2.79066C1.25198 9.71875 0 10.9793 0 12.5286V57.1906C0 58.0502 0.382727 58.8501 1.04861 59.3854C1.71733 59.9222 2.57881 60.1206 3.41488 59.9286C10.1013 58.3943 21.8345 56.6105 32.9632 59.3549C26.5282 53.2226 17.4416 52.1376 11.9309 52.1248C8.0076 52.1149 4.81445 48.8977 4.81445 44.9517Z" fill="#1CB098"/>
<path d="M87.232 42V39.668H89.08C89.4907 39.668 89.8573 39.6093 90.18 39.492C90.532 39.3747 90.8107 39.1253 91.016 38.744C91.2213 38.3627 91.324 37.7907 91.324 37.028V15.776C91.324 14.9253 91.2213 14.3093 91.016 13.928C90.84 13.5173 90.576 13.2533 90.224 13.136C89.9013 12.9893 89.52 12.916 89.08 12.916H87.232V10.584H111.652L111.828 18.68H108.748L108.528 16.612C108.469 15.8787 108.323 15.2773 108.088 14.808C107.883 14.3093 107.589 13.928 107.208 13.664C106.827 13.4 106.328 13.268 105.712 13.268H98.32V24.268H108.748V26.908H98.32V39.316H107.12C107.707 39.316 108.191 39.1693 108.572 38.876C108.953 38.5827 109.247 38.1867 109.452 37.688C109.687 37.1893 109.848 36.6173 109.936 35.972L110.288 33.904H113.324L113.016 42H87.232ZM124.91 42.44C122.798 42.44 121.082 42.22 119.762 41.78C118.471 41.3107 117.533 40.6947 116.946 39.932C116.359 39.14 116.066 38.26 116.066 37.292C116.066 36.324 116.301 35.6053 116.77 35.136C117.239 34.6667 117.797 34.3587 118.442 34.212C119.087 34.036 119.659 33.948 120.158 33.948C120.158 35.1507 120.349 36.2067 120.73 37.116C121.141 37.996 121.698 38.6707 122.402 39.14C123.135 39.6093 123.971 39.844 124.91 39.844C126.435 39.844 127.535 39.5507 128.21 38.964C128.914 38.3773 129.266 37.6733 129.266 36.852C129.266 36.2067 129.105 35.6493 128.782 35.18C128.459 34.6813 127.902 34.2267 127.11 33.816C126.318 33.376 125.233 32.9213 123.854 32.452C122.27 31.8947 120.935 31.2933 119.85 30.648C118.765 29.9733 117.929 29.1813 117.342 28.272C116.785 27.3333 116.506 26.204 116.506 24.884C116.506 22.5373 117.371 20.792 119.102 19.648C120.833 18.4747 123.121 17.888 125.966 17.888C127.814 17.888 129.295 18.0933 130.41 18.504C131.554 18.8853 132.375 19.3987 132.874 20.044C133.402 20.66 133.666 21.3053 133.666 21.98C133.666 22.9773 133.314 23.74 132.61 24.268C131.935 24.7667 130.791 25.016 129.178 25.016C129.178 23.5493 128.855 22.42 128.21 21.628C127.565 20.8067 126.597 20.396 125.306 20.396C124.69 20.396 124.103 20.4987 123.546 20.704C123.018 20.9093 122.578 21.2173 122.226 21.628C121.903 22.0093 121.742 22.508 121.742 23.124C121.742 23.74 121.903 24.2827 122.226 24.752C122.578 25.2213 123.194 25.676 124.074 26.116C124.954 26.556 126.186 27.0547 127.77 27.612C129.09 28.052 130.249 28.5947 131.246 29.24C132.243 29.856 133.021 30.6187 133.578 31.528C134.165 32.408 134.458 33.464 134.458 34.696C134.458 37.1307 133.622 39.0373 131.95 40.416C130.307 41.7653 127.961 42.44 124.91 42.44ZM149.21 42.44C147.069 42.44 145.177 42.0587 143.534 41.296C141.892 40.504 140.601 39.228 139.662 37.468C138.753 35.6787 138.298 33.288 138.298 30.296C138.298 27.128 138.768 24.6493 139.706 22.86C140.674 21.0413 141.965 19.7507 143.578 18.988C145.221 18.2253 147.054 17.844 149.078 17.844C150.985 17.844 152.584 18.0493 153.874 18.46C155.165 18.8707 156.133 19.428 156.778 20.132C157.453 20.8067 157.79 21.584 157.79 22.464C157.79 23.08 157.629 23.6813 157.306 24.268C157.013 24.8253 156.456 25.2947 155.634 25.676C154.813 26.028 153.64 26.204 152.114 26.204C152.114 25.1773 152.026 24.2387 151.85 23.388C151.674 22.5373 151.381 21.848 150.97 21.32C150.56 20.792 149.988 20.528 149.254 20.528C148.404 20.528 147.656 20.8213 147.01 21.408C146.394 21.9653 145.91 22.948 145.558 24.356C145.236 25.764 145.074 27.7293 145.074 30.252C145.074 32.2173 145.25 33.86 145.602 35.18C145.984 36.5 146.556 37.4973 147.318 38.172C148.081 38.8173 149.078 39.14 150.31 39.14C151.337 39.14 152.261 38.9933 153.082 38.7C153.933 38.3773 154.666 37.952 155.282 37.424C155.898 36.8667 156.368 36.2507 156.69 35.576C157.042 35.7813 157.306 36.0747 157.482 36.456C157.658 36.808 157.746 37.1893 157.746 37.6C157.746 38.3333 157.438 39.0813 156.822 39.844C156.236 40.5773 155.312 41.1933 154.05 41.692C152.818 42.1907 151.205 42.44 149.21 42.44ZM170.786 42.44C168.498 42.44 166.738 41.736 165.506 40.328C164.274 38.8907 163.658 36.6907 163.658 33.728V23.872C163.658 23.0213 163.555 22.376 163.35 21.936C163.144 21.4667 162.822 21.1587 162.382 21.012C161.942 20.836 161.37 20.748 160.666 20.748H160.578V18.416H170.346V32.496C170.346 33.7573 170.434 34.8573 170.61 35.796C170.815 36.7053 171.167 37.424 171.666 37.952C172.164 38.4507 172.839 38.7 173.69 38.7C174.628 38.7 175.391 38.436 175.978 37.908C176.564 37.3507 176.99 36.5733 177.254 35.576C177.547 34.5493 177.694 33.3613 177.694 32.012V23.564C177.694 22.7133 177.547 22.0973 177.254 21.716C176.96 21.3053 176.579 21.0413 176.11 20.924C175.64 20.8067 175.112 20.748 174.526 20.748H174.394V18.416H184.382V36.896C184.382 37.7467 184.499 38.3773 184.734 38.788C184.998 39.1693 185.35 39.4187 185.79 39.536C186.259 39.624 186.772 39.668 187.33 39.668H187.682V42H178.926L177.958 38.876H177.738C177.298 39.6387 176.814 40.2547 176.286 40.724C175.787 41.1933 175.244 41.56 174.658 41.824C174.071 42.0587 173.455 42.22 172.81 42.308C172.164 42.396 171.49 42.44 170.786 42.44ZM189.529 42V39.668H190.057C190.497 39.668 190.952 39.6093 191.421 39.492C191.92 39.3453 192.331 39.0667 192.653 38.656C193.005 38.2453 193.181 37.6293 193.181 36.808V13.576C193.181 12.784 193.005 12.1973 192.653 11.816C192.301 11.4347 191.876 11.1853 191.377 11.068C190.908 10.9507 190.468 10.892 190.057 10.892H189.529V8.56H199.869V36.808C199.869 37.6293 200.031 38.2453 200.353 38.656C200.705 39.0667 201.131 39.3453 201.629 39.492C202.128 39.6093 202.583 39.668 202.993 39.668H203.521V42H189.529Z" fill="#08001C"/>
<path d="M91.268 60.144C90.62 60.144 90.016 60.028 89.456 59.796C88.904 59.564 88.416 59.24 87.992 58.824C87.576 58.408 87.248 57.92 87.008 57.36C86.776 56.8 86.66 56.188 86.66 55.524C86.66 54.86 86.776 54.248 87.008 53.688C87.248 53.12 87.576 52.632 87.992 52.224C88.408 51.808 88.896 51.488 89.456 51.264C90.016 51.032 90.62 50.916 91.268 50.916C91.924 50.916 92.528 51.032 93.08 51.264C93.64 51.488 94.128 51.808 94.544 52.224C94.968 52.64 95.296 53.128 95.528 53.688C95.76 54.248 95.876 54.86 95.876 55.524C95.876 56.188 95.756 56.8 95.516 57.36C95.284 57.92 94.96 58.408 94.544 58.824C94.128 59.24 93.64 59.564 93.08 59.796C92.52 60.028 91.916 60.144 91.268 60.144ZM91.268 58.848C91.732 58.848 92.156 58.764 92.54 58.596C92.932 58.428 93.272 58.196 93.56 57.9C93.848 57.596 94.072 57.244 94.232 56.844C94.392 56.436 94.472 55.996 94.472 55.524C94.472 55.052 94.392 54.616 94.232 54.216C94.072 53.816 93.848 53.464 93.56 53.16C93.272 52.856 92.932 52.62 92.54 52.452C92.156 52.284 91.732 52.2 91.268 52.2C90.804 52.2 90.376 52.284 89.984 52.452C89.6 52.62 89.264 52.856 88.976 53.16C88.688 53.464 88.464 53.816 88.304 54.216C88.152 54.616 88.076 55.052 88.076 55.524C88.076 55.996 88.152 56.436 88.304 56.844C88.464 57.244 88.688 57.596 88.976 57.9C89.264 58.196 89.604 58.428 89.996 58.596C90.388 58.764 90.812 58.848 91.268 58.848ZM97.3272 60V53.508H98.6232V54.78L98.4672 54.612C98.6272 54.204 98.8832 53.896 99.2352 53.688C99.5872 53.472 99.9952 53.364 100.459 53.364C100.939 53.364 101.363 53.468 101.731 53.676C102.099 53.884 102.387 54.172 102.595 54.54C102.803 54.908 102.907 55.332 102.907 55.812V60H101.563V56.172C101.563 55.844 101.503 55.568 101.383 55.344C101.263 55.112 101.091 54.936 100.867 54.816C100.651 54.688 100.403 54.624 100.123 54.624C99.8432 54.624 99.5912 54.688 99.3672 54.816C99.1512 54.936 98.9832 55.112 98.8632 55.344C98.7432 55.576 98.6832 55.852 98.6832 56.172V60H97.3272ZM104.358 60V50.916H105.714V60H104.358ZM107.3 60V53.508H108.656V60H107.3ZM107.3 52.62V51.06H108.656V52.62H107.3ZM110.241 60V53.508H111.537V54.78L111.381 54.612C111.541 54.204 111.797 53.896 112.149 53.688C112.501 53.472 112.909 53.364 113.373 53.364C113.853 53.364 114.277 53.468 114.645 53.676C115.013 53.884 115.301 54.172 115.509 54.54C115.717 54.908 115.821 55.332 115.821 55.812V60H114.477V56.172C114.477 55.844 114.417 55.568 114.297 55.344C114.177 55.112 114.005 54.936 113.781 54.816C113.565 54.688 113.317 54.624 113.037 54.624C112.757 54.624 112.505 54.688 112.281 54.816C112.065 54.936 111.897 55.112 111.777 55.344C111.657 55.576 111.597 55.852 111.597 56.172V60H110.241ZM120.32 60.144C119.672 60.144 119.096 59.996 118.592 59.7C118.096 59.396 117.708 58.988 117.428 58.476C117.148 57.956 117.008 57.376 117.008 56.736C117.008 56.08 117.148 55.5 117.428 54.996C117.716 54.492 118.1 54.096 118.58 53.808C119.06 53.512 119.604 53.364 120.212 53.364C120.7 53.364 121.136 53.448 121.52 53.616C121.904 53.784 122.228 54.016 122.492 54.312C122.756 54.6 122.956 54.932 123.092 55.308C123.236 55.684 123.308 56.084 123.308 56.508C123.308 56.612 123.304 56.72 123.296 56.832C123.288 56.944 123.272 57.048 123.248 57.144H118.076V56.064H122.48L121.832 56.556C121.912 56.164 121.884 55.816 121.748 55.512C121.62 55.2 121.42 54.956 121.148 54.78C120.884 54.596 120.572 54.504 120.212 54.504C119.852 54.504 119.532 54.596 119.252 54.78C118.972 54.956 118.756 55.212 118.604 55.548C118.452 55.876 118.392 56.276 118.424 56.748C118.384 57.188 118.444 57.572 118.604 57.9C118.772 58.228 119.004 58.484 119.3 58.668C119.604 58.852 119.948 58.944 120.332 58.944C120.724 58.944 121.056 58.856 121.328 58.68C121.608 58.504 121.828 58.276 121.988 57.996L123.092 58.536C122.964 58.84 122.764 59.116 122.492 59.364C122.228 59.604 121.908 59.796 121.532 59.94C121.164 60.076 120.76 60.144 120.32 60.144ZM131.026 60.144C130.394 60.144 129.806 60.028 129.262 59.796C128.726 59.564 128.258 59.244 127.858 58.836C127.466 58.42 127.158 57.932 126.934 57.372C126.71 56.812 126.598 56.196 126.598 55.524C126.598 54.86 126.706 54.248 126.922 53.688C127.146 53.12 127.458 52.632 127.858 52.224C128.258 51.808 128.726 51.488 129.262 51.264C129.798 51.032 130.386 50.916 131.026 50.916C131.658 50.916 132.222 51.024 132.717 51.24C133.222 51.456 133.646 51.74 133.99 52.092C134.334 52.436 134.582 52.812 134.734 53.22L133.462 53.82C133.27 53.34 132.962 52.952 132.538 52.656C132.122 52.352 131.618 52.2 131.026 52.2C130.434 52.2 129.91 52.34 129.454 52.62C128.998 52.9 128.642 53.288 128.386 53.784C128.138 54.28 128.014 54.86 128.014 55.524C128.014 56.188 128.138 56.772 128.386 57.276C128.642 57.772 128.998 58.16 129.454 58.44C129.91 58.712 130.434 58.848 131.026 58.848C131.618 58.848 132.122 58.7 132.538 58.404C132.962 58.108 133.27 57.72 133.462 57.24L134.734 57.84C134.582 58.24 134.334 58.616 133.99 58.968C133.646 59.32 133.222 59.604 132.717 59.82C132.222 60.036 131.658 60.144 131.026 60.144ZM139.072 60.144C138.448 60.144 137.876 59.996 137.356 59.7C136.844 59.404 136.436 59 136.132 58.488C135.828 57.976 135.676 57.396 135.676 56.748C135.676 56.092 135.828 55.512 136.132 55.008C136.436 54.496 136.844 54.096 137.356 53.808C137.868 53.512 138.44 53.364 139.072 53.364C139.712 53.364 140.284 53.512 140.788 53.808C141.3 54.096 141.704 54.496 142 55.008C142.304 55.512 142.456 56.092 142.456 56.748C142.456 57.404 142.304 57.988 142 58.5C141.696 59.012 141.288 59.416 140.776 59.712C140.264 60 139.696 60.144 139.072 60.144ZM139.072 58.884C139.456 58.884 139.796 58.792 140.092 58.608C140.388 58.424 140.62 58.172 140.788 57.852C140.964 57.524 141.052 57.156 141.052 56.748C141.052 56.34 140.964 55.976 140.788 55.656C140.62 55.336 140.388 55.084 140.092 54.9C139.796 54.716 139.456 54.624 139.072 54.624C138.696 54.624 138.356 54.716 138.052 54.9C137.756 55.084 137.52 55.336 137.344 55.656C137.176 55.976 137.092 56.34 137.092 56.748C137.092 57.156 137.176 57.524 137.344 57.852C137.52 58.172 137.756 58.424 138.052 58.608C138.356 58.792 138.696 58.884 139.072 58.884ZM146.096 60.144C145.608 60.144 145.18 60.036 144.812 59.82C144.444 59.596 144.156 59.288 143.948 58.896C143.748 58.496 143.648 58.036 143.648 57.516V53.508H145.004V57.396C145.004 57.692 145.064 57.952 145.184 58.176C145.304 58.4 145.472 58.576 145.688 58.704C145.904 58.824 146.152 58.884 146.432 58.884C146.72 58.884 146.972 58.82 147.188 58.692C147.404 58.564 147.572 58.384 147.692 58.152C147.82 57.92 147.884 57.648 147.884 57.336V53.508H149.228V60H147.944V58.728L148.088 58.896C147.936 59.296 147.684 59.604 147.332 59.82C146.98 60.036 146.568 60.144 146.096 60.144ZM150.812 60V53.508H152.108V54.816L151.988 54.624C152.132 54.2 152.364 53.896 152.684 53.712C153.004 53.52 153.388 53.424 153.836 53.424H154.232V54.66H153.668C153.22 54.66 152.856 54.8 152.576 55.08C152.304 55.352 152.168 55.744 152.168 56.256V60H150.812ZM157.559 60.144C156.895 60.144 156.311 59.98 155.807 59.652C155.311 59.324 154.963 58.884 154.763 58.332L155.807 57.84C155.983 58.208 156.223 58.5 156.527 58.716C156.839 58.932 157.183 59.04 157.559 59.04C157.879 59.04 158.139 58.968 158.339 58.824C158.539 58.68 158.639 58.484 158.639 58.236C158.639 58.076 158.595 57.948 158.507 57.852C158.419 57.748 158.307 57.664 158.171 57.6C158.043 57.536 157.911 57.488 157.775 57.456L156.755 57.168C156.195 57.008 155.775 56.768 155.495 56.448C155.223 56.12 155.087 55.74 155.087 55.308C155.087 54.916 155.187 54.576 155.387 54.288C155.587 53.992 155.863 53.764 156.215 53.604C156.567 53.444 156.963 53.364 157.403 53.364C157.995 53.364 158.523 53.512 158.987 53.808C159.451 54.096 159.779 54.5 159.971 55.02L158.927 55.512C158.799 55.2 158.595 54.952 158.315 54.768C158.043 54.584 157.735 54.492 157.391 54.492C157.095 54.492 156.859 54.564 156.683 54.708C156.507 54.844 156.419 55.024 156.419 55.248C156.419 55.4 156.459 55.528 156.539 55.632C156.619 55.728 156.723 55.808 156.851 55.872C156.979 55.928 157.111 55.976 157.247 56.016L158.303 56.328C158.839 56.48 159.251 56.72 159.539 57.048C159.827 57.368 159.971 57.752 159.971 58.2C159.971 58.584 159.867 58.924 159.659 59.22C159.459 59.508 159.179 59.736 158.819 59.904C158.459 60.064 158.039 60.144 157.559 60.144ZM164.348 60.144C163.7 60.144 163.124 59.996 162.62 59.7C162.124 59.396 161.736 58.988 161.456 58.476C161.176 57.956 161.036 57.376 161.036 56.736C161.036 56.08 161.176 55.5 161.456 54.996C161.744 54.492 162.128 54.096 162.608 53.808C163.088 53.512 163.632 53.364 164.24 53.364C164.728 53.364 165.164 53.448 165.548 53.616C165.932 53.784 166.256 54.016 166.52 54.312C166.784 54.6 166.984 54.932 167.12 55.308C167.264 55.684 167.336 56.084 167.336 56.508C167.336 56.612 167.332 56.72 167.324 56.832C167.316 56.944 167.3 57.048 167.276 57.144H162.104V56.064H166.508L165.86 56.556C165.94 56.164 165.912 55.816 165.776 55.512C165.648 55.2 165.448 54.956 165.176 54.78C164.912 54.596 164.6 54.504 164.24 54.504C163.88 54.504 163.56 54.596 163.28 54.78C163 54.956 162.784 55.212 162.632 55.548C162.48 55.876 162.42 56.276 162.452 56.748C162.412 57.188 162.472 57.572 162.632 57.9C162.8 58.228 163.032 58.484 163.328 58.668C163.632 58.852 163.976 58.944 164.36 58.944C164.752 58.944 165.084 58.856 165.356 58.68C165.636 58.504 165.856 58.276 166.016 57.996L167.12 58.536C166.992 58.84 166.792 59.116 166.52 59.364C166.256 59.604 165.936 59.796 165.56 59.94C165.192 60.076 164.788 60.144 164.348 60.144ZM173.481 60.144C172.953 60.144 172.489 60.048 172.089 59.856C171.689 59.656 171.373 59.38 171.141 59.028C170.917 58.668 170.805 58.252 170.805 57.78C170.805 57.38 170.877 57.032 171.021 56.736C171.165 56.432 171.345 56.176 171.561 55.968C171.777 55.752 171.993 55.572 172.209 55.428C172.425 55.284 172.605 55.172 172.749 55.092L173.481 54.684C173.721 54.548 173.949 54.404 174.165 54.252C174.381 54.1 174.557 53.928 174.693 53.736C174.829 53.544 174.897 53.328 174.897 53.088C174.897 52.8 174.801 52.56 174.609 52.368C174.417 52.168 174.177 52.068 173.889 52.068C173.601 52.068 173.361 52.164 173.169 52.356C172.977 52.548 172.881 52.796 172.881 53.1C172.881 53.308 172.929 53.512 173.025 53.712C173.129 53.912 173.249 54.1 173.385 54.276C173.529 54.444 173.669 54.604 173.805 54.756L178.605 60H176.913L172.797 55.572C172.605 55.364 172.413 55.144 172.221 54.912C172.037 54.672 171.881 54.408 171.753 54.12C171.633 53.832 171.573 53.512 171.573 53.16C171.573 52.704 171.677 52.308 171.885 51.972C172.101 51.636 172.381 51.376 172.725 51.192C173.077 51.008 173.461 50.916 173.877 50.916C174.301 50.916 174.685 51.012 175.029 51.204C175.373 51.388 175.645 51.644 175.845 51.972C176.053 52.3 176.157 52.672 176.157 53.088C176.157 53.52 176.057 53.892 175.857 54.204C175.657 54.516 175.413 54.78 175.125 54.996C174.845 55.212 174.581 55.396 174.333 55.548L173.601 55.98C173.409 56.092 173.205 56.232 172.989 56.4C172.781 56.56 172.605 56.752 172.461 56.976C172.317 57.192 172.245 57.452 172.245 57.756C172.245 58.132 172.361 58.424 172.593 58.632C172.833 58.84 173.145 58.944 173.529 58.944C173.777 58.944 173.997 58.904 174.189 58.824C174.381 58.744 174.549 58.64 174.693 58.512C174.845 58.384 174.977 58.244 175.089 58.092C175.209 57.932 175.317 57.784 175.413 57.648L176.805 55.608H178.257L176.649 58.104C176.521 58.296 176.369 58.512 176.193 58.752C176.017 58.984 175.805 59.208 175.557 59.424C175.309 59.632 175.013 59.804 174.669 59.94C174.333 60.076 173.937 60.144 173.481 60.144ZM182.279 60V51.06H188.171V52.32H183.695V54.888H187.931V56.148H183.695V58.74H188.171V60H182.279ZM192.355 60.144C191.731 60.144 191.171 59.996 190.675 59.7C190.187 59.396 189.799 58.988 189.511 58.476C189.231 57.964 189.091 57.388 189.091 56.748C189.091 56.108 189.235 55.532 189.523 55.02C189.811 54.508 190.199 54.104 190.687 53.808C191.175 53.512 191.727 53.364 192.343 53.364C192.863 53.364 193.323 53.468 193.723 53.676C194.123 53.884 194.439 54.172 194.671 54.54L194.467 54.852V50.916H195.811V60H194.527V58.68L194.683 58.932C194.459 59.324 194.139 59.624 193.723 59.832C193.307 60.04 192.851 60.144 192.355 60.144ZM192.487 58.884C192.863 58.884 193.199 58.792 193.495 58.608C193.799 58.424 194.035 58.172 194.203 57.852C194.379 57.524 194.467 57.156 194.467 56.748C194.467 56.34 194.379 55.976 194.203 55.656C194.035 55.336 193.799 55.084 193.495 54.9C193.199 54.716 192.863 54.624 192.487 54.624C192.111 54.624 191.771 54.716 191.467 54.9C191.163 55.084 190.927 55.336 190.759 55.656C190.591 55.976 190.507 56.34 190.507 56.748C190.507 57.156 190.591 57.524 190.759 57.852C190.927 58.172 191.159 58.424 191.455 58.608C191.759 58.792 192.103 58.884 192.487 58.884ZM199.71 60.144C199.222 60.144 198.794 60.036 198.426 59.82C198.058 59.596 197.77 59.288 197.562 58.896C197.362 58.496 197.262 58.036 197.262 57.516V53.508H198.618V57.396C198.618 57.692 198.678 57.952 198.798 58.176C198.918 58.4 199.086 58.576 199.302 58.704C199.518 58.824 199.766 58.884 200.046 58.884C200.334 58.884 200.586 58.82 200.802 58.692C201.018 58.564 201.186 58.384 201.306 58.152C201.434 57.92 201.498 57.648 201.498 57.336V53.508H202.842V60H201.558V58.728L201.702 58.896C201.55 59.296 201.298 59.604 200.946 59.82C200.594 60.036 200.182 60.144 199.71 60.144Z" fill="#08001C"/>
</svg>
