<svg width="78" height="60" viewBox="0 0 78 60" fill="none" xmlns="http://www.w3.org/2000/svg">
<path d="M11.9313 0C11.9292 0 11.9271 0 11.925 0C11.1871 0 10.4936 0.289374 9.96968 0.815505C9.44007 1.34732 9.14844 2.05617 9.14844 2.80982V44.9507C9.14844 46.4957 10.4018 47.7563 11.9433 47.7606C18.4405 47.7762 29.3249 49.1399 36.834 57.0518V12.9499C36.834 12.4259 36.7012 11.9339 36.4506 11.5265C30.2867 1.53431 18.4433 0.0156417 11.9313 0Z" fill="#1CB098"/>
<path d="M68.8528 44.9515V2.80982C68.8528 2.05546 68.5612 1.34732 68.0316 0.815505C67.5076 0.289374 66.8135 0 66.0763 0C66.0742 0 66.0713 0 66.0692 0C59.5579 0.0156417 47.7146 1.53431 41.5514 11.5272C41.3007 11.9346 41.168 12.4266 41.168 12.9506V57.0524C48.677 49.1406 59.5621 47.7769 66.0586 47.7613C67.5987 47.757 68.8528 46.4964 68.8528 44.9515Z" fill="#1CB098"/>
<path d="M75.2084 9.71861H73.1846V44.9516C73.1846 48.8968 69.9922 52.1148 66.0675 52.124C60.5568 52.1375 51.4702 53.2225 45.0352 59.3548C56.1646 56.611 67.8971 58.3949 74.5842 59.9285C75.4189 60.1198 76.2818 59.9221 76.9505 59.3853C77.6171 58.8499 77.9991 58.0494 77.9991 57.1905V12.5284C77.9998 10.9792 76.7471 9.71861 75.2084 9.71861Z" fill="#FFBF00"/>
<path d="M4.81445 44.9516V9.71861H2.79066C1.25198 9.71861 0 10.9792 0 12.5284V57.1905C0 58.0501 0.382727 58.8499 1.04861 59.3853C1.71733 59.9221 2.57881 60.1205 3.41488 59.9285C10.1013 58.3942 21.8345 56.6103 32.9632 59.3547C26.5282 53.2225 17.4416 52.1375 11.9309 52.1247C8.0076 52.1148 4.81445 48.8975 4.81445 44.9516Z" fill="#FFBF00"/>
</svg>
