<svg width="171" height="50" viewBox="0 0 171 50" fill="none" xmlns="http://www.w3.org/2000/svg">
<path d="M65.2885 27.7265C58.351 27.7265 54.6915 23.3967 54.6915 17.2227C54.6915 11.0488 58.351 6.46289 65.2885 6.46289C72.2765 6.46289 75.8854 11.0488 75.8854 17.2227C75.8854 23.3975 72.1242 27.7265 65.2885 27.7265ZM65.2885 10.3573C60.9175 10.3573 59.0882 13.2265 59.0882 17.2235C59.0882 21.0921 60.9175 23.8329 65.2885 23.8329C69.71 23.8329 71.4888 21.0921 71.4888 17.2235C71.4896 13.3283 69.71 10.3573 65.2885 10.3573Z" fill="#FF5C2A"/>
<path d="M98.3742 27.4702H94.7404L85.4648 16.0439L83.94 13.6108H83.8895V27.4702H79.569V6.71875H83.2028L92.5802 18.145L94.0033 20.5022H94.0537V6.71875H98.3742V27.4702Z" fill="#FF5C2A"/>
<path d="M118.78 27.4702H102.948V6.71875H107.269V23.1913L106.887 23.5758H118.781V27.4702H118.78Z" fill="#FF5C2A"/>
<path d="M125.894 27.4702H121.574V6.71875H125.894V27.4702Z" fill="#FF5C2A"/>
<path d="M149.4 27.4702H145.766L136.491 16.0439L134.966 13.6108H134.915V27.4702H130.596V6.71875H134.229L143.607 18.145L145.03 20.5022H145.081V6.71875H149.401V27.4702H149.4Z" fill="#FF5C2A"/>
<path d="M170.999 27.4702H153.974V6.71875H171V10.6131H157.888L158.294 11.0227V14.7369L157.888 15.1465H169.781V19.0408H157.888L158.294 19.4512V23.1655L157.888 23.575H171L170.999 27.4702Z" fill="#FF5C2A"/>
<path d="M60.4046 34.5068L56.9575 39.3536V42.8594H55.9759V39.3536L52.5192 34.5068H53.7467L55.8942 37.5692L56.4567 38.5289H56.4767L57.0288 37.5692L59.1866 34.5068H60.4046Z" fill="#FF5C2A"/>
<path d="M64.7966 42.9619C62.2502 42.9619 60.92 41.2712 60.92 38.7347C60.92 36.1982 62.2598 34.4033 64.7966 34.4033C67.3535 34.4033 68.6837 36.1877 68.6837 38.7347C68.6837 41.2712 67.3127 42.9619 64.7966 42.9619ZM64.807 35.3323C62.7413 35.3323 61.9224 36.8679 61.9224 38.7347C61.9224 40.57 62.751 42.0338 64.807 42.0338C66.8728 42.0338 67.6813 40.5692 67.6813 38.7347C67.6813 36.9196 66.8832 35.3323 64.807 35.3323Z" fill="#FF5C2A"/>
<path d="M77.1457 39.0337C77.1457 41.5912 76.0303 42.962 73.6377 42.962C71.2443 42.962 70.1193 41.6114 70.1193 39.0337V34.5068H71.0904V39.0232C71.0904 40.8795 71.7555 42.0347 73.6369 42.0347C75.4886 42.0347 76.1737 40.8795 76.1737 39.0232V34.5068H77.1457V39.0337Z" fill="#FF5C2A"/>
<path d="M86.0185 42.8596H84.9239L83.891 40.6632C83.492 39.8078 82.8686 39.416 81.7741 39.416H79.8101L79.9127 39.5194V42.8604H78.9415V34.5078H82.5721C84.0857 34.5078 85.3542 35.3229 85.3542 36.9732C85.3542 38.0653 84.6082 38.8804 83.6971 39.1179V39.1381C84.0858 39.3029 84.5056 39.6745 84.7813 40.2521L86.0185 42.8596ZM82.5713 35.436H79.8093L79.9119 35.5393V38.3852L79.8093 38.4886H82.4583C83.6555 38.4886 84.3502 37.8594 84.3502 36.9732C84.351 35.8584 83.5842 35.436 82.5713 35.436Z" fill="#FF5C2A"/>
<path d="M94.053 42.8594H90.1668V34.5068H93.9609C95.6796 34.5068 96.4769 35.5691 96.4769 36.7549C96.4769 37.5385 96.2005 38.0442 95.5466 38.4456V38.4658C96.4056 38.8471 96.8351 39.5596 96.8351 40.4869C96.8351 41.9409 95.8735 42.8594 94.053 42.8594ZM93.8583 35.4358H91.0354L91.1379 35.5392V37.9933L91.0354 38.0967H93.8583C95.045 38.0967 95.4745 37.4981 95.4745 36.7565C95.4745 35.8679 94.9224 35.4358 93.8583 35.4358ZM94.0426 39.0232H91.0354L91.1379 39.1266V41.8287L91.0354 41.9321H94.053C95.3206 41.9321 95.8327 41.4167 95.8327 40.4877C95.8327 39.5798 95.2702 39.0232 94.0426 39.0232Z" fill="#FF5C2A"/>
<path d="M105.196 39.0337C105.196 41.5912 104.08 42.962 101.687 42.962C99.2933 42.962 98.1683 41.6114 98.1683 39.0337V34.5068H99.1395V39.0232C99.1395 40.8795 99.8045 42.0347 101.686 42.0347C103.537 42.0347 104.223 40.8795 104.223 39.0232V34.5068H105.195V39.0337H105.196Z" fill="#FF5C2A"/>
<path d="M110.139 42.9623C108.81 42.9623 107.419 42.5285 106.58 41.6011L107.348 40.8798C108.228 41.6948 109.046 42.0349 110.099 42.0349C111.633 42.0349 112.441 41.4476 112.441 40.6536C112.441 40.0865 111.96 39.5598 110.835 39.2618C110.651 39.2101 109.495 38.9007 109.311 38.849C107.797 38.4273 106.795 37.8796 106.795 36.6631C106.795 35.5088 107.787 34.4053 110.037 34.4053C111.366 34.4053 112.491 34.8802 113.207 35.6848L112.471 36.3957C111.949 35.7664 111.131 35.3343 110.047 35.3343C108.493 35.3343 107.797 35.9425 107.797 36.6235C107.797 37.2625 108.431 37.5929 109.801 37.9741C109.986 38.025 110.947 38.294 111.142 38.3449C112.778 38.7787 113.443 39.6236 113.443 40.5922C113.443 41.7562 112.563 42.9623 110.139 42.9623Z" fill="#FF5C2A"/>
<path d="M115.901 42.8594H114.93V34.5068H115.901V42.8594Z" fill="#FF5C2A"/>
<path d="M124.597 42.8594H123.708L119.422 37.1265L118.788 36.1466H118.767V42.8594H117.796V34.5068H118.685L123.001 40.2809L123.605 41.2196H123.625V34.5068H124.597V42.8594Z" fill="#FF5C2A"/>
<path d="M132.528 42.8594H126.442V34.5068H132.528V35.4358H127.312L127.414 35.5392V38.1169L127.312 38.2203H132.037V39.1476H127.312L127.414 39.251V41.8287L127.312 41.9321H132.528V42.8594Z" fill="#FF5C2A"/>
<path d="M137.319 42.9623C135.989 42.9623 134.599 42.5285 133.76 41.6011L134.527 40.8798C135.406 41.6948 136.225 42.0349 137.278 42.0349C138.812 42.0349 139.62 41.4476 139.62 40.6536C139.62 40.0865 139.14 39.5598 138.015 39.2618C137.83 39.2101 136.675 38.9007 136.491 38.849C134.977 38.4273 133.975 37.8796 133.975 36.6631C133.975 35.5088 134.966 34.4053 137.216 34.4053C138.546 34.4053 139.672 34.8802 140.387 35.6848L139.651 36.3957C139.129 35.7664 138.311 35.3343 137.227 35.3343C135.672 35.3343 134.977 35.9425 134.977 36.6235C134.977 37.2625 135.611 37.5929 136.982 37.9741C137.165 38.025 138.127 38.294 138.321 38.3449C139.958 38.7787 140.623 39.6236 140.623 40.5922C140.622 41.7562 139.742 42.9623 137.319 42.9623Z" fill="#FF5C2A"/>
<path d="M145.207 42.9623C143.877 42.9623 142.487 42.5285 141.648 41.6011L142.416 40.8798C143.295 41.6948 144.114 42.0349 145.167 42.0349C146.702 42.0349 147.51 41.4476 147.51 40.6536C147.51 40.0865 147.029 39.5598 145.904 39.2618C145.72 39.2101 144.564 38.9007 144.38 38.849C142.866 38.4273 141.864 37.8796 141.864 36.6631C141.864 35.5088 142.856 34.4053 145.106 34.4053C146.435 34.4053 147.561 34.8802 148.276 35.6848L147.54 36.3957C147.018 35.7664 146.2 35.3343 145.117 35.3343C143.562 35.3343 142.866 35.9425 142.866 36.6235C142.866 37.2625 143.5 37.5929 144.871 37.9741C145.054 38.025 146.016 38.294 146.211 38.3449C147.847 38.7787 148.512 39.6236 148.512 40.5922C148.511 41.7562 147.631 42.9623 145.207 42.9623Z" fill="#FF5C2A"/>
<path d="M38.9349 6.23047H18.7991C16.7228 6.23047 15.0237 7.9425 15.0237 10.0362V46.1943C15.0237 48.2876 16.7228 50 18.7991 50H38.9349C41.0117 50 42.7099 48.2876 42.7099 46.1943V10.0362C42.7099 7.9425 41.0117 6.23047 38.9349 6.23047ZM28.8672 48.0983C28.0561 48.0983 27.3994 47.434 27.3994 46.6176C27.3994 45.8004 28.0566 45.1369 28.8672 45.1369C29.6779 45.1369 30.3351 45.8004 30.3351 46.6176C30.3351 47.434 29.6779 48.0983 28.8672 48.0983Z" fill="#FF5C2A"/>
<path d="M35.6837 7.92188H18.3802C17.4553 7.92188 16.7025 8.68916 16.7025 9.63347V42.0411C16.7025 42.9858 17.4553 43.754 18.3802 43.754H39.354C40.2789 43.754 41.0318 42.9858 41.0318 42.0411V13.3143L35.6837 7.92188Z" fill="white"/>
<path d="M36.7928 13.9076C35.8565 13.9076 35.0941 13.1495 35.0941 12.2166V8.51562L40.4426 13.9076H36.7928Z" fill="#FF5C2A"/>
<path d="M33.5869 17.9767H20.5822C20.4018 17.9767 20.2562 17.8299 20.2562 17.6485C20.2562 17.4671 20.4018 17.3203 20.5822 17.3203H33.5869C33.7664 17.3203 33.9124 17.4671 33.9124 17.6485C33.9124 17.8299 33.7664 17.9767 33.5869 17.9767Z" fill="#08001C"/>
<path d="M27.7489 20.8312H20.5822C20.4018 20.8312 20.2562 20.6844 20.2562 20.503C20.2562 20.3216 20.4018 20.1748 20.5822 20.1748H27.7489C27.9289 20.1748 28.0745 20.3216 28.0745 20.503C28.0741 20.6844 27.9289 20.8312 27.7489 20.8312Z" fill="#08001C"/>
<path d="M33.5869 23.6862H20.5822C20.4018 23.6862 20.2562 23.5389 20.2562 23.3575C20.2562 23.1765 20.4018 23.0293 20.5822 23.0293H33.5869C33.7664 23.0293 33.9124 23.1765 33.9124 23.3575C33.9124 23.5389 33.7664 23.6862 33.5869 23.6862Z" fill="#08001C"/>
<path d="M30.8246 26.5402H20.5822C20.4018 26.5402 20.2562 26.3934 20.2562 26.2124C20.2562 26.031 20.4018 25.8838 20.5822 25.8838H30.8246C31.0041 25.8838 31.1502 26.031 31.1502 26.2124C31.1502 26.3934 31.0041 26.5402 30.8246 26.5402Z" fill="#08001C"/>
<path d="M27.1895 29.3962H20.5822C20.4018 29.3962 20.2562 29.249 20.2562 29.0676C20.2562 28.8866 20.4018 28.7402 20.5822 28.7402H27.1895C27.3695 28.7402 27.5151 28.8866 27.5151 29.0676C27.5151 29.249 27.3695 29.3962 27.1895 29.3962Z" fill="#08001C"/>
<path d="M33.5869 32.2506H20.5822C20.4018 32.2506 20.2562 32.1034 20.2562 31.922C20.2562 31.7414 20.4018 31.5938 20.5822 31.5938H33.5869C33.7664 31.5938 33.9124 31.7414 33.9124 31.922C33.9124 32.1034 33.7664 32.2506 33.5869 32.2506Z" fill="#08001C"/>
<path d="M0.00012207 0.546434C0.00012207 0.244079 0.243537 0 0.542149 0H5.85502C6.15493 0 6.39748 0.244079 6.39748 0.546434V5.90248C6.39748 6.20352 6.15493 6.44891 5.85502 6.44891H0.542149C0.243537 6.44891 0.00012207 6.20308 0.00012207 5.90248V0.546434Z" fill="#FF5C2A"/>
<path d="M9.27826 5.26159C9.27826 5.06747 9.43474 4.91016 9.62686 4.91016H13.0424C13.235 4.91016 13.3906 5.06703 13.3906 5.26159V8.70537C13.3906 8.89861 13.235 9.05638 13.0424 9.05638H9.62686C9.43474 9.05638 9.27826 8.89818 9.27826 8.70537V5.26159Z" fill="#FF5C2A"/>
<path d="M10.8799 14.7355C10.8799 14.6228 10.9704 14.5312 11.0825 14.5312H13.0702C13.1819 14.5312 13.2728 14.6228 13.2728 14.7355V16.7393C13.2728 16.8524 13.1819 16.944 13.0702 16.944H11.0825C10.9704 16.944 10.8799 16.8519 10.8799 16.7393V14.7355Z" fill="#FF5C2A"/>
<path d="M4.32782 9.21748C4.32782 9.07726 4.4404 8.96289 4.58036 8.96289H7.05533C7.19529 8.96289 7.3083 9.07769 7.3083 9.21748V11.7134C7.3083 11.8541 7.19529 11.9676 7.05533 11.9676H4.58036C4.4404 11.9676 4.32782 11.8541 4.32782 11.7134V9.21748Z" fill="#FF5C2A"/>
<path d="M9.27826 10.5395C9.27826 10.454 9.34693 10.3848 9.43126 10.3848H10.9287C11.0134 10.3848 11.0817 10.454 11.0817 10.5395V12.0495C11.0817 12.1345 11.0134 12.2033 10.9287 12.2033H9.43126C9.34693 12.2033 9.27826 12.1345 9.27826 12.0495V10.5395Z" fill="#FF5C2A"/>
</svg>
