<svg width="210" height="50" viewBox="0 0 210 50" fill="none" xmlns="http://www.w3.org/2000/svg">
<path d="M58.823 9.24908H77.049V16.0073H74.0114V14.6556C74.0114 14.3797 73.9861 14.0953 73.9354 13.8024C73.8904 13.5096 73.8173 13.2195 73.716 12.9323C73.6204 12.6451 73.4798 12.4114 73.2941 12.2311C73.1085 12.0453 72.8976 11.9524 72.6613 11.9524H66.9235V19.3864H69.9611V16.3452H72.6613V25.1308H69.9611V22.0896H66.9235V27.4962H72.9988C73.2351 27.4962 73.446 27.4061 73.6317 27.2259C73.8173 27.04 73.9579 26.8035 74.0536 26.5163C74.1548 26.229 74.2279 25.939 74.273 25.6461C74.3236 25.3533 74.3489 25.0689 74.3489 24.7929V23.4413H77.3866V30.1995H58.823V27.4962H61.5232V11.9524H58.823V9.24908Z" fill="#743EF9"/>
<path d="M85.6474 30.5881C84.331 30.5881 83.2144 30.2502 82.2975 29.5743C81.3805 28.8985 80.6971 27.9552 80.247 26.7444C79.8026 25.5335 79.5804 24.0918 79.5804 22.4191C79.5804 21.197 79.738 20.0791 80.053 19.0654C80.3736 18.0516 80.818 17.1984 81.3862 16.5057C81.96 15.8073 82.6491 15.2695 83.4535 14.8922C84.2635 14.5092 85.1495 14.3177 86.1114 14.3177C86.5952 14.3177 87.0509 14.3628 87.4784 14.4529C87.9059 14.5374 88.2688 14.6444 88.5669 14.7739C88.8707 14.9034 89.1576 15.0639 89.4276 15.2554C89.6976 15.4469 89.9142 15.6271 90.0773 15.7961C90.2461 15.965 90.4092 16.1537 90.5667 16.3621V11.9524H88.8791V9.24908H95.292V27.4962H96.9796V30.1995H91.9674L90.9464 28.2396C90.727 28.5437 90.4795 28.8225 90.2039 29.0759C89.0901 30.084 87.5712 30.5881 85.6474 30.5881ZM90.5667 19.2259C89.9254 18.0432 89.0535 17.4518 87.9509 17.4518C86.8371 17.4518 86.0074 17.8883 85.4617 18.7612C84.9217 19.6342 84.6517 20.8732 84.6517 22.4782C84.6517 23.2329 84.7389 23.9313 84.9132 24.5733C85.0933 25.2097 85.3295 25.7391 85.622 26.1615C85.9202 26.5838 86.2605 26.9133 86.643 27.1498C87.0256 27.3807 87.425 27.4962 87.8412 27.4962C88.4038 27.4962 88.9016 27.3413 89.3348 27.0316C89.7735 26.7162 90.1842 26.2516 90.5667 25.6377V19.2259Z" fill="#743EF9"/>
<path d="M98.5153 14.6556H104.928V24.1171C104.928 25.0069 105.007 25.6996 105.164 26.1952C105.328 26.6908 105.558 27.0316 105.856 27.2174C106.16 27.4033 106.571 27.4962 107.088 27.4962C107.561 27.4962 108.045 27.2963 108.54 26.8964C109.04 26.4965 109.513 25.939 109.957 25.2238L109.991 17.3589H108.303V14.6556H114.716V27.4962H116.404V30.1995H111.164L109.983 27.9017C109.032 29.6588 107.46 30.5374 105.266 30.5374C104.478 30.5374 103.789 30.4304 103.198 30.2164C102.608 30.0024 102.124 29.7095 101.747 29.3378C101.37 28.9605 101.064 28.4846 100.827 27.9101C100.597 27.3301 100.434 26.7106 100.338 26.0516C100.248 25.3871 100.203 24.6296 100.203 23.7792V17.3589H98.5153V14.6556Z" fill="#743EF9"/>
<path d="M128.993 17.6208C128.352 17.2209 127.536 17.021 126.546 17.021C126.147 17.021 125.776 17.0773 125.432 17.19C125.089 17.297 124.76 17.4828 124.445 17.7475C124.136 18.0122 123.871 18.3473 123.652 18.7528C123.433 19.1583 123.258 19.6736 123.129 20.2987C123 20.9239 122.935 21.6335 122.935 22.4276C122.935 23.2216 123.005 23.9284 123.146 24.5479C123.286 25.1674 123.472 25.6743 123.703 26.0685C123.939 26.4628 124.22 26.7866 124.546 27.04C124.878 27.2935 125.219 27.4737 125.567 27.5807C125.916 27.682 126.293 27.7327 126.698 27.7327C127.885 27.7327 128.81 27.5046 129.474 27.0485C130.144 26.5867 130.678 25.877 131.077 24.9196L133.322 25.6968C133.119 26.2431 132.861 26.7584 132.546 27.2428C132.236 27.7215 131.862 28.1636 131.423 28.5691C130.985 28.9746 130.495 29.3237 129.955 29.6166C129.421 29.9038 128.816 30.1291 128.141 30.2924C127.466 30.4557 126.754 30.5374 126.006 30.5374C124.898 30.5374 123.849 30.3431 122.859 29.9545C121.874 29.5659 121.017 29.0252 120.285 28.3325C119.56 27.6342 118.983 26.7753 118.556 25.756C118.134 24.7366 117.923 23.6271 117.923 22.4276C117.923 21.4645 118.058 20.5578 118.328 19.7074C118.598 18.857 118.977 18.1051 119.467 17.4518C119.962 16.7985 120.541 16.2354 121.205 15.7623C121.869 15.2892 122.606 14.9316 123.416 14.6894C124.226 14.4416 125.075 14.3177 125.964 14.3177C126.667 14.3177 127.328 14.3853 127.947 14.5205C128.566 14.65 129.117 14.8302 129.601 15.0611C130.09 15.2864 130.546 15.568 130.968 15.9059C131.39 16.2438 131.758 16.6042 132.073 16.9872C132.394 17.3645 132.692 17.7897 132.968 18.2628C133.254 18.7077 133.398 19.1949 133.398 19.7243C133.398 20.4733 133.134 21.1125 132.605 21.6419C132.082 22.1657 131.446 22.4276 130.698 22.4276C129.95 22.4276 129.311 22.1657 128.782 21.6419C128.259 21.1125 127.998 20.4733 127.998 19.7243C127.998 19.3075 128.085 18.9161 128.259 18.55C128.439 18.184 128.684 17.8742 128.993 17.6208Z" fill="#743EF9"/>
<path d="M149.447 20.0199V27.4962H151.135V30.1995H145.878L145.127 28.4423C144.553 29.2646 143.886 29.8278 143.127 30.1319C142.373 30.436 141.318 30.5881 139.963 30.5881C139.26 30.5881 138.604 30.4642 137.997 30.2164C137.395 29.9742 136.88 29.6419 136.452 29.2195C136.031 28.7972 135.699 28.2903 135.457 27.6989C135.221 27.1076 135.102 26.474 135.102 25.7982C135.102 24.6324 135.558 23.6666 136.469 22.9006C137.381 22.1291 138.545 21.7433 139.963 21.7433C141.105 21.7433 142.05 21.8531 142.798 22.0727C143.546 22.2868 144.187 22.6303 144.722 23.1034V19.5215C144.722 19.0147 144.651 18.5923 144.511 18.2544C144.376 17.9108 144.17 17.6489 143.895 17.4687C143.619 17.2829 143.31 17.1533 142.967 17.0801C142.623 17.0069 142.213 16.9703 141.735 16.9703C141.352 16.9703 141.006 17.052 140.697 17.2153C140.871 17.5814 140.958 17.9671 140.958 18.3726C140.958 19.1217 140.694 19.7609 140.165 20.2903C139.642 20.814 139.006 21.0759 138.258 21.0759C137.51 21.0759 136.872 20.814 136.343 20.2903C135.82 19.7609 135.558 19.1217 135.558 18.3726C135.558 17.9897 135.631 17.6292 135.777 17.2913C135.929 16.9534 136.137 16.6577 136.402 16.4043C136.627 16.1678 136.86 15.9566 137.102 15.7707C137.344 15.5793 137.648 15.3906 138.013 15.2047C138.385 15.0133 138.787 14.8556 139.22 14.7317C139.653 14.6078 140.171 14.5092 140.773 14.436C141.38 14.3571 142.044 14.3177 142.764 14.3177C143.698 14.3177 144.575 14.4557 145.397 14.7317C146.218 15.0076 146.927 15.3906 147.523 15.8806C148.119 16.3705 148.589 16.9731 148.932 17.6884C149.275 18.4036 149.447 19.1808 149.447 20.0199ZM144.722 26.4487V25.2829C144.373 24.9506 143.979 24.6718 143.54 24.4466C143.107 24.2157 142.705 24.1002 142.334 24.1002C141.535 24.1002 140.972 24.2354 140.646 24.5057C140.32 24.7704 140.157 25.2012 140.157 25.7982C140.157 26.5134 140.297 27.04 140.579 27.3779C140.86 27.7158 141.383 27.8848 142.148 27.8848C142.581 27.8848 143.031 27.7468 143.498 27.4709C143.971 27.1893 144.379 26.8485 144.722 26.4487Z" fill="#743EF9"/>
<path d="M156.366 11.2765H158.054V14.6556H162.779V17.3589H158.054V26.1446C158.054 26.5275 158.161 26.8485 158.374 27.1076C158.594 27.3667 158.937 27.4962 159.404 27.4962C159.927 27.4962 160.371 27.3244 160.737 26.9809C161.103 26.6317 161.333 26.1277 161.429 25.4687L163.454 25.8067C163.37 26.4656 163.207 27.0766 162.965 27.6398C162.728 28.1974 162.419 28.6958 162.036 29.1351C161.654 29.5687 161.179 29.9123 160.61 30.1657C160.048 30.4135 159.421 30.5374 158.729 30.5374C157.047 30.5374 155.725 30.146 154.763 29.3631C153.807 28.5747 153.328 27.5018 153.328 26.1446V17.3589H151.641V14.6556H151.978C152.845 14.6556 153.61 14.4078 154.273 13.9122C154.937 13.4166 155.635 12.5381 156.366 11.2765Z" fill="#743EF9"/>
<path d="M166.939 12.8563C166.416 12.3269 166.154 11.6877 166.154 10.9386C166.154 10.1896 166.416 9.5532 166.939 9.02944C167.468 8.50005 168.106 8.23535 168.854 8.23535C169.603 8.23535 170.238 8.50005 170.761 9.02944C171.29 9.5532 171.554 10.1896 171.554 10.9386C171.554 11.6877 171.29 12.3269 170.761 12.8563C170.238 13.38 169.603 13.6419 168.854 13.6419C168.106 13.6419 167.468 13.38 166.939 12.8563ZM164.804 14.6556H171.217V27.4962H172.905V30.1995H164.804V27.4962H166.492V17.3589H164.804V14.6556Z" fill="#743EF9"/>
<path d="M179.36 14.9513C180.35 14.5627 181.399 14.3684 182.507 14.3684C183.615 14.3684 184.661 14.5627 185.646 14.9513C186.636 15.3399 187.497 15.8834 188.228 16.5817C188.959 17.2744 189.536 18.1305 189.958 19.1498C190.385 20.1692 190.599 21.2787 190.599 22.4782C190.599 23.6778 190.385 24.7873 189.958 25.8067C189.536 26.826 188.959 27.6849 188.228 28.3832C187.497 29.0759 186.636 29.6166 185.646 30.0052C184.661 30.3938 183.615 30.5881 182.507 30.5881C181.399 30.5881 180.35 30.3938 179.36 30.0052C178.375 29.6166 177.517 29.0759 176.786 28.3832C176.06 27.6849 175.484 26.826 175.056 25.8067C174.634 24.7873 174.423 23.6778 174.423 22.4782C174.423 21.2787 174.634 20.1692 175.056 19.1498C175.484 18.1305 176.06 17.2744 176.786 16.5817C177.517 15.8834 178.375 15.3399 179.36 14.9513ZM182.507 17.0717C182.113 17.0717 181.762 17.128 181.452 17.2406C181.143 17.3533 180.859 17.5391 180.6 17.7982C180.341 18.0573 180.127 18.3924 179.959 18.8035C179.796 19.2146 179.666 19.7271 179.571 20.341C179.481 20.9548 179.436 21.6673 179.436 22.4782C179.436 23.2892 179.481 24.0016 179.571 24.6155C179.666 25.2294 179.796 25.7419 179.959 26.153C180.127 26.5641 180.341 26.8992 180.6 27.1583C180.859 27.4174 181.143 27.6032 181.452 27.7158C181.762 27.8285 182.113 27.8848 182.507 27.8848C183.002 27.8848 183.432 27.7919 183.798 27.606C184.164 27.4145 184.481 27.1104 184.752 26.6937C185.027 26.2769 185.232 25.7165 185.367 25.0126C185.508 24.3086 185.578 23.4638 185.578 22.4782C185.578 21.4927 185.508 20.6479 185.367 19.9439C185.232 19.2399 185.027 18.6796 184.752 18.2628C184.481 17.8461 184.164 17.5448 183.798 17.3589C183.432 17.1674 183.002 17.0717 182.507 17.0717Z" fill="#743EF9"/>
<path d="M203.248 14.3177C204.035 14.3177 204.724 14.4247 205.315 14.6387C205.906 14.8527 206.389 15.1484 206.766 15.5258C207.143 15.8975 207.447 16.3733 207.678 16.9534C207.914 17.5279 208.077 18.1474 208.167 18.8119C208.263 19.4708 208.31 20.2255 208.31 21.0759V27.4962H209.998V30.1995H201.897V27.4962H203.585V20.738C203.585 19.8482 203.504 19.1555 203.34 18.6599C203.183 18.1643 202.952 17.8235 202.648 17.6377C202.35 17.4518 201.942 17.3589 201.425 17.3589C200.952 17.3589 200.469 17.5588 199.974 17.9587C199.479 18.3586 199.009 18.9161 198.564 19.6314L198.522 27.4962H200.21V30.1995H192.109V27.4962H193.797V17.3589H192.109V14.6556H197.349L198.531 16.945C198.739 16.5676 198.978 16.2297 199.248 15.9312C199.524 15.6271 199.85 15.3512 200.227 15.1034C200.609 14.8499 201.057 14.6556 201.568 14.5205C202.08 14.3853 202.64 14.3177 203.248 14.3177Z" fill="#743EF9"/>
<path d="M58.823 47.4839L61.8158 38.9615H63.4836L66.4764 47.4839H65.0371L64.386 45.5735H60.9248L60.2623 47.4839H58.823ZM61.3132 44.3724H63.9747L62.4669 39.911H62.8439L61.3132 44.3724Z" fill="#743EF9"/>
<path d="M69.8444 47.6212C69.2276 47.6212 68.6793 47.4801 68.1995 47.1979C67.7274 46.9081 67.3504 46.5192 67.0687 46.0311C66.7945 45.543 66.6574 44.9901 66.6574 44.3724C66.6574 43.7623 66.7945 43.2132 67.0687 42.7251C67.3428 42.237 67.7198 41.8557 68.1995 41.5811C68.6793 41.299 69.2276 41.1579 69.8444 41.1579C70.2633 41.1579 70.6555 41.2341 71.021 41.3867C71.3865 41.5316 71.7026 41.7337 71.9691 41.993C72.2433 42.2522 72.4451 42.5535 72.5745 42.8967L71.4437 43.4229C71.3142 43.1026 71.1048 42.8471 70.8154 42.6564C70.5336 42.4582 70.21 42.359 69.8444 42.359C69.4941 42.359 69.1781 42.4467 68.8963 42.6221C68.6222 42.7899 68.4052 43.0301 68.2452 43.3428C68.0853 43.6479 68.0054 43.9949 68.0054 44.3838C68.0054 44.7727 68.0853 45.1236 68.2452 45.4362C68.4052 45.7413 68.6222 45.9815 68.8963 46.1569C69.1781 46.3323 69.4941 46.42 69.8444 46.42C70.2176 46.42 70.5412 46.3247 70.8154 46.134C71.0972 45.9358 71.3066 45.6726 71.4437 45.3447L72.5745 45.8824C72.4527 46.2103 72.2547 46.5077 71.9805 46.7746C71.714 47.0339 71.398 47.2399 71.0324 47.3924C70.6669 47.5449 70.2709 47.6212 69.8444 47.6212Z" fill="#743EF9"/>
<path d="M75.4024 47.6212C74.9836 47.6212 74.6142 47.5487 74.2944 47.4038C73.9822 47.2513 73.7385 47.0454 73.5633 46.7861C73.3882 46.5192 73.3006 46.2065 73.3006 45.8481C73.3006 45.5125 73.3729 45.2113 73.5176 44.9443C73.6699 44.6774 73.9022 44.4524 74.2144 44.2694C74.5267 44.0864 74.9188 43.9567 75.391 43.8805L77.5385 43.5258V44.544L75.6423 44.8757C75.2996 44.9367 75.0483 45.0473 74.8884 45.2074C74.7285 45.36 74.6485 45.5583 74.6485 45.8023C74.6485 46.0387 74.7361 46.2332 74.9112 46.3857C75.094 46.5306 75.3263 46.6031 75.608 46.6031C75.9583 46.6031 76.2629 46.5268 76.5219 46.3743C76.7884 46.2217 76.994 46.0196 77.1387 45.768C77.2834 45.5087 77.3557 45.2227 77.3557 44.91V43.3199C77.3557 43.0149 77.2415 42.767 77.0131 42.5764C76.7922 42.3781 76.4952 42.2789 76.1221 42.2789C75.7794 42.2789 75.4786 42.3705 75.2197 42.5535C74.9683 42.7289 74.7818 42.9577 74.6599 43.2399L73.5862 42.7022C73.7004 42.3971 73.887 42.1302 74.1459 41.9014C74.4048 41.665 74.7056 41.482 75.0483 41.3523C75.3986 41.2227 75.768 41.1579 76.1563 41.1579C76.6437 41.1579 77.074 41.2494 77.4471 41.4324C77.8279 41.6154 78.1211 41.8709 78.3267 42.1989C78.5399 42.5192 78.6465 42.8929 78.6465 43.3199V47.4839H77.4129V46.3628L77.6756 46.3971C77.5309 46.6488 77.3443 46.8662 77.1159 47.0492C76.895 47.2322 76.6399 47.3733 76.3505 47.4725C76.0688 47.5716 75.7527 47.6212 75.4024 47.6212Z" fill="#743EF9"/>
<path d="M82.7831 47.6212C82.1891 47.6212 81.656 47.4801 81.1839 47.1979C80.7193 46.9081 80.35 46.5192 80.0758 46.0311C79.8093 45.543 79.676 44.9939 79.676 44.3838C79.676 43.7737 79.8131 43.2246 80.0873 42.7365C80.3614 42.2484 80.7307 41.8633 81.1953 41.5811C81.6598 41.299 82.1853 41.1579 82.7716 41.1579C83.2666 41.1579 83.7045 41.257 84.0853 41.4553C84.466 41.6536 84.7669 41.9281 84.9877 42.2789L84.7935 42.5764V38.8242H86.0729V47.4839H84.8506V46.2256L84.9991 46.4658C84.7859 46.8395 84.4813 47.1255 84.0853 47.3237C83.6893 47.522 83.2552 47.6212 82.7831 47.6212ZM82.9087 46.42C83.2666 46.42 83.5865 46.3323 83.8682 46.1569C84.1576 45.9815 84.3823 45.7413 84.5422 45.4362C84.7097 45.1236 84.7935 44.7727 84.7935 44.3838C84.7935 43.9949 84.7097 43.6479 84.5422 43.3428C84.3823 43.0378 84.1576 42.7975 83.8682 42.6221C83.5865 42.4467 83.2666 42.359 82.9087 42.359C82.5508 42.359 82.2272 42.4467 81.9378 42.6221C81.6484 42.7975 81.4237 43.0378 81.2638 43.3428C81.1039 43.6479 81.0239 43.9949 81.0239 44.3838C81.0239 44.7727 81.1039 45.1236 81.2638 45.4362C81.4237 45.7413 81.6446 45.9815 81.9263 46.1569C82.2157 46.3323 82.5432 46.42 82.9087 46.42Z" fill="#743EF9"/>
<path d="M90.2528 47.6212C89.6359 47.6212 89.0876 47.4801 88.6079 47.1979C88.1357 46.9081 87.7664 46.5192 87.4999 46.0311C87.2333 45.5354 87.1 44.9825 87.1 44.3724C87.1 43.747 87.2333 43.1941 87.4999 42.7136C87.774 42.2332 88.1395 41.8557 88.5965 41.5811C89.0534 41.299 89.5712 41.1579 90.15 41.1579C90.6145 41.1579 91.0295 41.2379 91.3951 41.3981C91.7606 41.5583 92.069 41.7794 92.3203 42.0616C92.5716 42.3361 92.762 42.6526 92.8915 43.0111C93.0286 43.3695 93.0971 43.7508 93.0971 44.155C93.0971 44.2542 93.0933 44.3571 93.0857 44.4639C93.0781 44.5706 93.0628 44.6698 93.04 44.7613H88.1167V43.7318H92.3089L91.6921 44.2008C91.7682 43.8271 91.7416 43.4953 91.6121 43.2055C91.4903 42.9081 91.2999 42.6755 91.041 42.5077C90.7897 42.3323 90.4927 42.2446 90.15 42.2446C89.8073 42.2446 89.5027 42.3323 89.2361 42.5077C88.9696 42.6755 88.764 42.9195 88.6193 43.2399C88.4746 43.5525 88.4175 43.9338 88.448 44.3838C88.4099 44.8032 88.467 45.1693 88.6193 45.482C88.7792 45.7947 89.0001 46.0387 89.2818 46.2141C89.5712 46.3895 89.8987 46.4772 90.2642 46.4772C90.6374 46.4772 90.9534 46.3933 91.2123 46.2256C91.4788 46.0578 91.6883 45.8404 91.8406 45.5735L92.8915 46.0883C92.7696 46.3781 92.5793 46.6412 92.3203 46.8776C92.069 47.1064 91.7644 47.2894 91.4065 47.4267C91.0562 47.5563 90.6716 47.6212 90.2528 47.6212Z" fill="#743EF9"/>
<path d="M94.1284 47.4839V41.2951H95.362V42.6336L95.2021 42.4277C95.3316 42.0082 95.5677 41.6917 95.9104 41.4782C96.253 41.2646 96.6452 41.1579 97.0869 41.1579C97.5819 41.1579 98.0198 41.2913 98.4006 41.5583C98.7889 41.8175 99.0479 42.1645 99.1773 42.5992L98.8118 42.6336C98.9945 42.1379 99.2725 41.768 99.6457 41.5239C100.026 41.2799 100.46 41.1579 100.948 41.1579C101.374 41.1579 101.759 41.257 102.102 41.4553C102.452 41.6536 102.73 41.9281 102.935 42.2789C103.141 42.6297 103.244 43.0301 103.244 43.4801V47.4839H101.953V43.8347C101.953 43.522 101.896 43.2589 101.782 43.0454C101.675 42.8242 101.523 42.6564 101.325 42.542C101.134 42.42 100.91 42.359 100.651 42.359C100.392 42.359 100.163 42.42 99.9655 42.542C99.7675 42.6564 99.6114 42.8242 99.4972 43.0454C99.3829 43.2665 99.3258 43.5297 99.3258 43.8347V47.4839H98.0464V43.8347C98.0464 43.522 97.9893 43.2589 97.8751 43.0454C97.7685 42.8242 97.6162 42.6564 97.4182 42.542C97.2278 42.42 96.9993 42.359 96.7328 42.359C96.4739 42.359 96.2454 42.42 96.0474 42.542C95.8494 42.6564 95.6933 42.8242 95.5791 43.0454C95.4725 43.2665 95.4192 43.5297 95.4192 43.8347V47.4839H94.1284Z" fill="#743EF9"/>
<path d="M104.834 50.0006C104.681 50.0006 104.529 49.9853 104.377 49.9548C104.232 49.9319 104.099 49.8938 103.977 49.8404V48.7308C104.068 48.7537 104.179 48.7727 104.308 48.788C104.438 48.8109 104.563 48.8223 104.685 48.8223C105.043 48.8223 105.306 48.7422 105.473 48.5821C105.649 48.4296 105.805 48.1931 105.942 47.8728L106.353 46.9348L106.33 48.0216L103.657 41.2951H105.039L107.016 46.4543H106.547L108.512 41.2951H109.906L107.175 48.1588C107.031 48.5249 106.848 48.8452 106.627 49.1197C106.414 49.4019 106.159 49.6193 105.862 49.7718C105.572 49.9243 105.23 50.0006 104.834 50.0006Z" fill="#743EF9"/>
<path d="M112.454 47.4839V38.9615H117.995V40.1626H113.802V42.7251H117.538V43.9262H113.802V47.4839H112.454Z" fill="#743EF9"/>
<path d="M121.585 47.6212C120.991 47.6212 120.447 47.4801 119.952 47.1979C119.464 46.9157 119.076 46.5306 118.787 46.0425C118.497 45.5544 118.353 45.0015 118.353 44.3838C118.353 43.7584 118.497 43.2055 118.787 42.7251C119.076 42.237 119.464 41.8557 119.952 41.5811C120.439 41.299 120.984 41.1579 121.585 41.1579C122.194 41.1579 122.739 41.299 123.219 41.5811C123.706 41.8557 124.091 42.237 124.372 42.7251C124.662 43.2055 124.806 43.7584 124.806 44.3838C124.806 45.0092 124.662 45.5659 124.372 46.054C124.083 46.542 123.695 46.9272 123.207 47.2093C122.72 47.4839 122.179 47.6212 121.585 47.6212ZM121.585 46.42C121.951 46.42 122.274 46.3323 122.556 46.1569C122.838 45.9815 123.059 45.7413 123.219 45.4362C123.386 45.1236 123.47 44.7727 123.47 44.3838C123.47 43.9949 123.386 43.6479 123.219 43.3428C123.059 43.0378 122.838 42.7975 122.556 42.6221C122.274 42.4467 121.951 42.359 121.585 42.359C121.227 42.359 120.904 42.4467 120.614 42.6221C120.332 42.7975 120.108 43.0378 119.94 43.3428C119.78 43.6479 119.7 43.9949 119.7 44.3838C119.7 44.7727 119.78 45.1236 119.94 45.4362C120.108 45.7413 120.332 45.9815 120.614 46.1569C120.904 46.3323 121.227 46.42 121.585 46.42Z" fill="#743EF9"/>
<path d="M125.838 47.4839V41.2951H127.072V42.542L126.958 42.359C127.095 41.9548 127.316 41.665 127.62 41.4896C127.925 41.3066 128.29 41.2151 128.717 41.2151H129.094V42.3933H128.557C128.13 42.3933 127.784 42.5268 127.517 42.7937C127.258 43.053 127.129 43.4267 127.129 43.9148V47.4839H125.838Z" fill="#743EF9"/>
<path d="M131.642 47.4839V38.9615H132.99V43.583L132.636 43.4458L136.486 38.9615H138.165L134.761 42.9539L134.829 41.993L138.302 47.4839H136.714L134.224 43.583L132.99 45.0244V47.4839H131.642Z" fill="#743EF9"/>
<path d="M138.952 47.4839V41.2951H140.243V47.4839H138.952ZM138.952 40.4486V38.9615H140.243V40.4486H138.952Z" fill="#743EF9"/>
<path d="M144.379 47.6212C143.785 47.6212 143.252 47.4801 142.78 47.1979C142.315 46.9081 141.946 46.5192 141.672 46.0311C141.405 45.543 141.272 44.9939 141.272 44.3838C141.272 43.7737 141.409 43.2246 141.683 42.7365C141.957 42.2484 142.327 41.8633 142.791 41.5811C143.256 41.299 143.781 41.1579 144.368 41.1579C144.863 41.1579 145.301 41.257 145.681 41.4553C146.062 41.6536 146.363 41.9281 146.584 42.2789L146.389 42.5764V38.8242H147.669V47.4839H146.447V46.2256L146.595 46.4658C146.382 46.8395 146.077 47.1255 145.681 47.3237C145.285 47.522 144.851 47.6212 144.379 47.6212ZM144.505 46.42C144.863 46.42 145.182 46.3323 145.464 46.1569C145.754 45.9815 145.978 45.7413 146.138 45.4362C146.306 45.1236 146.389 44.7727 146.389 44.3838C146.389 43.9949 146.306 43.6479 146.138 43.3428C145.978 43.0378 145.754 42.7975 145.464 42.6221C145.182 42.4467 144.863 42.359 144.505 42.359C144.147 42.359 143.823 42.4467 143.534 42.6221C143.244 42.7975 143.02 43.0378 142.86 43.3428C142.7 43.6479 142.62 43.9949 142.62 44.3838C142.62 44.7727 142.7 45.1236 142.86 45.4362C143.02 45.7413 143.241 45.9815 143.522 46.1569C143.812 46.3323 144.139 46.42 144.505 46.42Z" fill="#743EF9"/>
<path d="M151.232 47.6212C150.6 47.6212 150.044 47.4648 149.564 47.1522C149.092 46.8395 148.761 46.42 148.57 45.8938L149.564 45.4248C149.732 45.7756 149.96 46.054 150.25 46.2599C150.547 46.4658 150.874 46.5687 151.232 46.5687C151.537 46.5687 151.784 46.5001 151.974 46.3628C152.165 46.2256 152.26 46.0387 152.26 45.8023C152.26 45.6498 152.218 45.5277 152.134 45.4362C152.051 45.3371 151.944 45.257 151.815 45.196C151.693 45.135 151.567 45.0892 151.438 45.0587L150.467 44.7842C149.934 44.6317 149.534 44.4029 149.267 44.0978C149.008 43.7851 148.879 43.4229 148.879 43.0111C148.879 42.6374 148.974 42.3133 149.164 42.0387C149.355 41.7565 149.617 41.5392 149.953 41.3867C150.288 41.2341 150.665 41.1579 151.083 41.1579C151.647 41.1579 152.15 41.299 152.591 41.5811C153.033 41.8557 153.345 42.2408 153.528 42.7365L152.534 43.2055C152.412 42.9081 152.218 42.6717 151.952 42.4963C151.693 42.3209 151.399 42.2332 151.072 42.2332C150.79 42.2332 150.566 42.3018 150.398 42.4391C150.231 42.5687 150.147 42.7403 150.147 42.9539C150.147 43.0988 150.185 43.2208 150.261 43.3199C150.337 43.4114 150.436 43.4877 150.558 43.5487C150.68 43.6021 150.805 43.6479 150.935 43.686L151.94 43.9834C152.45 44.1283 152.843 44.3571 153.117 44.6698C153.391 44.9748 153.528 45.3409 153.528 45.768C153.528 46.134 153.429 46.4582 153.231 46.7403C153.041 47.0149 152.774 47.2322 152.431 47.3924C152.089 47.5449 151.689 47.6212 151.232 47.6212Z" fill="#743EF9"/>
<path d="M49.9909 25.3605C49.9925 25.2499 49.9995 25.1404 49.9995 25.0292C49.9995 11.2059 38.8069 0 24.9995 0C11.1921 0 0 11.2059 0 25.0292C0 28.6307 0.776569 32.2193 2.28282 35.4906C3.74327 38.6626 5.87358 41.5152 8.49322 43.8218C11.1279 46.1418 14.2472 47.8981 17.5992 48.9362C21.8452 50.2516 26.2002 49.9753 30.5729 49.9753C33.5789 49.9753 36.5855 49.9753 39.5915 49.9753C42.3605 49.9753 45.1299 49.9753 47.8988 49.9753C49.0543 49.9753 49.9914 49.0376 49.9914 47.8803V25.3605H49.9909Z" fill="#743EF9"/>
<path d="M34.6896 41.3549H14.5285C13.3105 41.3549 12.3238 40.3665 12.3238 39.1476V11.4401C12.3238 10.2212 13.3111 9.23279 14.5285 9.23279H26.488C32.2354 9.23279 36.8943 13.8972 36.8943 19.6515V39.1476C36.8943 40.3665 35.907 41.3549 34.6896 41.3549Z" fill="white"/>
<path d="M28.3008 38.5212C27.4817 39.3413 26.8382 40.2936 26.3839 41.3549H34.6896C35.907 41.3549 36.8943 40.3665 36.8943 39.1476V29.9181L28.3008 38.5212Z" fill="white"/>
<path d="M26.488 9.23225C29.2407 9.23225 29.3205 10.804 29.3205 11.991V14.6078C29.3205 15.8272 30.3077 16.8151 31.5251 16.8151H34.1389C35.3245 16.8151 36.8943 16.8949 36.8943 19.651C36.8943 13.8972 32.2354 9.23225 26.488 9.23225Z" fill="white"/>
<path d="M31.7601 45.8267L29.079 46.8789C27.9899 47.3062 26.9142 46.2298 27.341 45.1388L28.3919 42.4545C28.7325 41.5842 29.2493 40.7933 29.9095 40.1323L38.1262 31.9058L42.2963 36.0808L34.0796 44.3074C33.4194 44.9683 32.6299 45.4857 31.7601 45.8267Z" fill="white"/>
<path d="M30.7222 39.3192L34.8922 43.4942L36.5348 41.8497C35.0135 40.5623 34.2111 38.3167 34.7688 35.2683L30.7222 39.3192Z" fill="white"/>
<path d="M30.7222 39.3192L29.9095 40.1323C29.2493 40.7933 28.7325 41.5842 28.3919 42.4545L27.341 45.1388C26.9142 46.2292 27.9894 47.3062 29.079 46.8789L31.7601 45.8267C32.6294 45.4857 33.42 44.9683 34.0801 44.3074L34.8922 43.4942L30.7222 39.3192Z" fill="white"/>
<path d="M40.2005 29.8231L44.3695 33.9971L42.2952 36.0738L38.1262 31.8999L40.2005 29.8231Z" fill="white"/>
<path d="M44.3711 34.0036L40.2011 29.8285L41.9347 28.0928C42.5194 27.5074 43.4674 27.5074 44.0526 28.0928L46.1048 30.1474C46.6895 30.7328 46.6895 31.6819 46.1048 32.2673L44.3711 34.0036Z" fill="white"/>
<path d="M29.9305 44.2863C29.3905 43.7457 28.7638 43.3621 28.1225 43.1435L27.341 45.1388C26.9142 46.2292 27.9894 47.3062 29.079 46.8789L31.0725 46.097C30.8537 45.455 30.4705 44.8275 29.9305 44.2863Z" fill="#08001C"/>
<path d="M18.5676 37.2193C19.7986 37.2193 20.7965 36.4236 20.7965 35.442C20.7965 34.4604 19.7986 33.6647 18.5676 33.6647C17.3366 33.6647 16.3387 34.4604 16.3387 35.442C16.3387 36.4236 17.3366 37.2193 18.5676 37.2193Z" fill="white"/>
<path d="M30.65 33.6647C31.8808 33.6647 32.8789 34.4606 32.8789 35.442C32.8789 36.4234 31.8808 37.2193 30.65 37.2193C29.4191 37.2193 28.421 36.4234 28.421 35.442C28.421 34.46 29.4191 33.6647 30.65 33.6647Z" fill="white"/>
<path d="M26.406 34.0764C26.406 32.9644 25.6014 32.8597 24.6088 32.8597C23.6161 32.8597 22.8115 32.9644 22.8115 34.0764C22.8115 35.1884 23.6161 36.09 24.6088 36.09C25.6014 36.0895 26.406 35.1884 26.406 34.0764Z" fill="#08001C"/>
<path d="M29.7085 32.4086V33.3199C29.7085 33.6345 29.9634 33.8897 30.2776 33.8897C30.5917 33.8897 30.8467 33.6345 30.8467 33.3199V32.4086C30.8467 32.0941 30.5917 31.8389 30.2776 31.8389C29.9628 31.8394 29.7085 32.0941 29.7085 32.4086ZM29.4767 19.4832C29.1626 19.4832 28.9077 19.7384 28.9077 20.0529V21.3031H27.6154C27.3012 21.3031 27.0463 21.5583 27.0463 21.8728C27.0463 22.1874 27.3012 22.4426 27.6154 22.4426H28.9077V23.7365C28.9077 24.051 29.1626 24.3062 29.4767 24.3062C29.7909 24.3062 30.0458 24.051 30.0458 23.7365V22.4426H31.2945C31.6087 22.4426 31.8636 22.1874 31.8636 21.8728C31.8636 21.5583 31.6087 21.3031 31.2945 21.3031H30.0458V20.0529C30.0453 19.7378 29.7909 19.4832 29.4767 19.4832ZM18.3714 32.4086V33.3199C18.3714 33.6345 18.6263 33.8897 18.9405 33.8897C19.2547 33.8897 19.5096 33.6345 19.5096 33.3199V32.4086C19.5096 32.0941 19.2547 31.8389 18.9405 31.8389C18.6263 31.8389 18.3714 32.0941 18.3714 32.4086ZM46.5068 29.7449L44.4547 27.6903C43.649 26.8837 42.3384 26.8837 41.5327 27.6903L37.4634 31.7644V19.6515C37.4634 13.5924 32.5399 8.66303 26.488 8.66303H16.8129C16.4987 8.66303 16.2438 8.91823 16.2438 9.23279C16.2438 9.54735 16.4987 9.80256 16.8129 9.80256H26.488C28.7514 9.80256 28.7514 10.9156 28.7514 11.9915V14.6083C28.7514 16.1396 29.9957 17.3854 31.5251 17.3854H34.1389C35.214 17.3854 36.3252 17.3854 36.3252 19.6515V32.904C28.9206 40.3174 29.1442 40.039 28.635 40.7857H14.5285C13.6263 40.7857 12.8923 40.0508 12.8923 39.1476V11.4401C12.8923 10.6496 13.455 9.97197 14.2299 9.82899C14.5387 9.77234 14.7435 9.47504 14.6864 9.16588C14.6292 8.85672 14.3328 8.65169 14.024 8.70888C12.7091 8.95114 11.7547 10.0998 11.7547 11.4401V39.1476C11.7547 40.6789 12.999 41.9247 14.5285 41.9247H27.9985C27.8546 42.2473 27.8724 42.2312 26.8124 44.9311C26.5311 45.6498 26.6949 46.4348 27.2403 46.9808C27.777 47.5182 28.559 47.6947 29.2876 47.4092L31.9687 46.3571C33.8904 45.6034 34.7403 44.384 35.2948 43.8973L36.2579 42.9331C36.4799 42.7108 36.4799 42.3499 36.2579 42.1276C36.0358 41.9053 35.6753 41.9053 35.4533 42.1276L34.8928 42.6887L31.5273 39.3192C32.5205 38.3248 37.3782 33.4613 38.1273 32.7113L41.4928 36.0808L37.3788 40.1998C37.1567 40.4221 37.1567 40.783 37.3788 41.0053C37.6008 41.2276 37.9613 41.2276 38.1834 41.0053L46.5074 32.6714C47.3125 31.8637 47.3125 30.5515 46.5068 29.7449ZM34.1394 16.2459H31.5257C30.6235 16.2459 29.8895 15.511 29.8895 14.6078C29.889 11.6171 29.9461 11.0764 29.654 10.3254C32.5361 11.309 34.8206 13.5961 35.803 16.4817C35.2005 16.2469 34.5587 16.2459 34.1394 16.2459ZM28.8715 46.3485C28.5773 46.4639 28.2674 46.3992 28.0438 46.1753C27.8201 45.9514 27.7555 45.6417 27.8708 45.3465L28.4388 43.8957C29.2272 44.296 29.9063 44.9618 30.3207 45.7798L28.8715 46.3485ZM34.0871 43.4937L33.677 43.9043C32.6116 44.971 31.4831 45.3125 31.3845 45.3622C30.8612 44.2717 29.9461 43.3551 28.8554 42.8301C28.898 42.7556 29.2288 41.6188 30.3115 40.5348L30.7216 40.1242L34.0871 43.4937ZM42.2963 35.2747L38.9308 31.9052L40.2011 30.6335L43.5665 34.003L42.2963 35.2747ZM45.7022 31.8653L44.3711 33.198L41.0056 29.8285L42.3368 28.4958C42.6989 28.1332 43.2879 28.1332 43.6501 28.4958L45.7022 30.5504C46.0644 30.913 46.0644 31.5027 45.7022 31.8653ZM22.8201 17.1021C22.5415 16.425 21.579 16.4423 21.3236 17.1167L17.3922 27.4513C17.2807 27.7453 17.4278 28.0744 17.7215 28.1861C18.0152 28.2978 18.3439 28.1505 18.4555 27.8565L19.2951 25.6497H24.8265L25.658 27.8548C25.7696 28.1511 26.0989 28.2973 26.3909 28.1867C26.6852 28.0755 26.8334 27.7469 26.7224 27.4529C22.6719 16.7093 22.8266 17.1183 22.8201 17.1021ZM19.7279 24.5107L22.0727 18.3463L24.3964 24.5107H19.7279ZM26.1371 32.543C25.7238 32.3331 25.2274 32.2899 24.6093 32.2899C23.9912 32.2899 23.4943 32.3331 23.081 32.543C22.6989 32.7372 22.243 33.1608 22.243 34.0759C22.243 35.5003 23.3046 36.6587 24.6093 36.6587C25.914 36.6587 26.9751 35.5003 26.9751 34.0759C26.9746 33.1608 26.5192 32.7372 26.1371 32.543ZM24.6088 35.5202C23.9314 35.5202 23.3806 34.8728 23.3806 34.0764C23.3806 33.628 23.4302 33.4295 24.6088 33.4295C25.7874 33.4295 25.8369 33.6275 25.8369 34.0764C25.8369 34.8722 25.2862 35.5202 24.6088 35.5202Z" fill="#08001C"/>
</svg>
