<svg width="216" height="50" viewBox="0 0 216 50" fill="none" xmlns="http://www.w3.org/2000/svg">
<path d="M1.43901 46.4279H16.7007C17.3185 48.4927 19.2056 49.9996 21.4326 49.9996H27.6635C29.8905 49.9996 31.7776 48.4927 32.3954 46.4279H47.6571C48.4514 46.4279 49.0956 45.7719 49.0956 44.9629C49.0956 44.1539 48.4514 43.4978 47.6571 43.4978H46.7869V38.3888C46.7869 37.4433 45.9187 36.7454 45.0163 36.9636C42.7159 37.52 41.1894 37.797 39.228 37.7706C35.874 37.7258 34.4409 37.0428 30.4535 36.73C27.892 36.5292 25.8142 37.7342 24.4906 39.4469C23.1665 37.7342 21.0887 36.5292 18.5281 36.73C14.5505 37.0423 13.1017 37.7258 9.75368 37.7706C7.79228 37.7965 6.26571 37.5195 3.96535 36.9636C3.06242 36.7454 2.19471 37.4438 2.19471 38.3888V43.4978H1.43852C0.644181 43.4978 0 44.1539 0 44.9629C0.000978254 45.7719 0.64467 46.4279 1.43901 46.4279ZM5.07225 40.2175C6.53816 40.5204 8.02755 40.7246 9.79281 40.7007C13.4231 40.6519 14.9321 39.9515 18.7502 39.6516C20.1359 39.543 22.4392 40.353 23.0961 43.0306L23.0966 43.0325C23.4541 44.4752 25.5148 44.5335 25.8861 43.032C25.8861 43.032 25.8865 43.031 25.8865 43.0301C26.5434 40.3525 28.8458 39.5425 30.2324 39.6511C34.0511 39.951 35.559 40.6514 39.1898 40.7002C40.9546 40.7246 42.444 40.5199 43.9104 40.217V43.4973H31.1784C31.176 43.4973 31.1735 43.4968 31.1711 43.4968C30.3767 43.4968 29.7325 44.1529 29.7325 44.9619C29.7325 46.124 28.8042 47.0695 27.6635 47.0695H21.433C20.2919 47.0695 19.3636 46.124 19.3636 44.9619C19.3636 44.1529 18.7194 43.4968 17.925 43.4968C17.9226 43.4968 17.9201 43.4973 17.9177 43.4973H5.07225V40.2175Z" fill="#743EF9"/>
<path d="M23.0557 33.8539H26.0178C28.305 33.8539 30.1788 32.0217 30.1945 29.7701L30.217 26.697C30.6298 24.0608 31.6633 21.6094 33.2897 19.4101C34.7267 17.4683 35.4863 15.1524 35.4863 12.713C35.4863 6.4438 30.4483 1.48623 24.3934 1.5744C18.4985 1.65759 13.6977 6.54044 13.6116 12.5461C13.5749 15.0603 14.3424 17.4449 15.8303 19.4425C17.442 21.6054 18.4667 24.0399 18.879 26.6786V29.7407C18.879 32.0088 20.7524 33.8539 23.0557 33.8539ZM27.3174 29.7492C27.313 30.3973 26.73 30.9243 26.0178 30.9243H23.0557C22.3391 30.9243 21.7561 30.3933 21.7561 29.7407V27.9947H27.3306L27.3174 29.7492ZM16.4877 12.589C16.5508 8.19181 20.115 4.56478 24.433 4.50401C28.9227 4.43626 32.6093 8.12107 32.6093 12.713C32.6093 14.5108 32.0502 16.217 30.9918 17.6472C29.3214 19.9058 28.1817 22.396 27.5953 25.0646H25.987V16.5712C25.987 15.7622 25.3428 15.1061 24.5485 15.1061C23.7541 15.1061 23.11 15.7622 23.11 16.5712V25.0646H21.5051C20.9211 22.387 19.7859 19.9053 18.1218 17.6716C17.0262 16.2005 16.4613 14.4431 16.4877 12.589Z" fill="#FFBF00"/>
<path d="M10.8258 11.2668C10.8258 10.4578 10.1816 9.80176 9.38724 9.80176H4.59184C3.7975 9.80176 3.15332 10.4578 3.15332 11.2668C3.15332 12.0758 3.7975 12.7319 4.59184 12.7319H9.38724C10.1821 12.7319 10.8258 12.0758 10.8258 11.2668Z" fill="#FFBF00"/>
<path d="M38.3513 19.8516L42.4829 22.3309C43.1677 22.7418 44.0496 22.5087 44.4521 21.8123C44.8552 21.1154 44.6273 20.2172 43.943 19.8068L39.8113 17.328C39.127 16.9175 38.2451 17.1491 37.8421 17.8465C37.4386 18.543 37.6665 19.4411 38.3513 19.8516Z" fill="#FFBF00"/>
<path d="M6.61372 22.3304L10.7454 19.8511C11.4297 19.4406 11.6576 18.5425 11.2546 17.8456C10.851 17.1482 9.96962 16.9165 9.28533 17.327L5.15368 19.8058C4.46939 20.2163 4.24146 21.1144 4.6445 21.8113C5.04754 22.5092 5.92944 22.7414 6.61372 22.3304Z" fill="#FFBF00"/>
<path d="M39.811 5.20588L43.9426 2.72709C44.6269 2.31662 44.8549 1.41845 44.4518 0.721545C44.0488 0.0241378 43.1669 -0.207501 42.4826 0.202973L38.3509 2.68176C37.6667 3.09223 37.4387 3.99039 37.8418 4.6873C38.2448 5.38471 39.1267 5.61635 39.811 5.20588Z" fill="#FFBF00"/>
<path d="M10.7454 2.68176L6.61372 0.202973C5.92944 -0.207501 5.04754 0.0241378 4.6445 0.721545C4.24146 1.41845 4.46939 2.31662 5.15368 2.72709L9.28533 5.20588C9.97011 5.61685 10.8515 5.38421 11.2546 4.6873C11.6576 3.99039 11.4297 3.09223 10.7454 2.68176Z" fill="#FFBF00"/>
<path d="M45.942 11.2668C45.942 10.4578 45.2978 9.80176 44.5035 9.80176H39.7081C38.9137 9.80176 38.2695 10.4578 38.2695 11.2668C38.2695 12.0758 38.9137 12.7319 39.7081 12.7319H44.5035C45.2978 12.7319 45.942 12.0758 45.942 11.2668Z" fill="#FFBF00"/>
<path d="M58.3418 25.7231V3.2689H62.3666V14.9632L61.2716 14.5714L70.6529 3.2689H75.7135L66.9241 13.8781L67.1608 10.9847L75.9798 25.7231H71.2448L65.326 15.8372L62.3666 19.4239V25.7231H58.3418Z" fill="#743EF9"/>
<path d="M77.5102 25.7231V9.32702H81.1502V12.552L80.8543 11.9793C81.2291 10.9948 81.8408 10.2513 82.6891 9.74897C83.5572 9.22655 84.5634 8.96534 85.7077 8.96534C86.8915 8.96534 87.9371 9.22655 88.8447 9.74897C89.772 10.2714 90.4921 11.0048 91.005 11.9492C91.518 12.8735 91.7745 13.9485 91.7745 15.1741V25.7231H87.8977V16.1085C87.8977 15.3851 87.7596 14.7622 87.4834 14.2398C87.2071 13.7174 86.8224 13.3155 86.3292 13.0342C85.8557 12.7328 85.2934 12.5821 84.6423 12.5821C84.011 12.5821 83.4487 12.7328 82.9555 13.0342C82.4622 13.3155 82.0775 13.7174 81.8013 14.2398C81.5251 14.7622 81.387 15.3851 81.387 16.1085V25.7231H77.5102Z" fill="#743EF9"/>
<path d="M102.333 26.0848C100.754 26.0848 99.3143 25.7131 98.0121 24.9696C96.7297 24.2262 95.7038 23.2114 94.9343 21.9255C94.1846 20.6395 93.8098 19.1727 93.8098 17.5251C93.8098 15.8774 94.1846 14.4106 94.9343 13.1246C95.7038 11.8387 96.7297 10.824 98.0121 10.0805C99.2945 9.33706 100.735 8.96534 102.333 8.96534C103.911 8.96534 105.342 9.33706 106.624 10.0805C107.906 10.824 108.922 11.8387 109.672 13.1246C110.442 14.3905 110.826 15.8573 110.826 17.5251C110.826 19.1727 110.442 20.6395 109.672 21.9255C108.903 23.2114 107.877 24.2262 106.594 24.9696C105.312 25.7131 103.891 26.0848 102.333 26.0848ZM102.333 22.468C103.201 22.468 103.961 22.257 104.612 21.8351C105.282 21.4131 105.805 20.8304 106.18 20.0869C106.575 19.3234 106.772 18.4694 106.772 17.5251C106.772 16.5606 106.575 15.7167 106.18 14.9933C105.805 14.2499 105.282 13.6672 104.612 13.2452C103.961 12.8031 103.201 12.5821 102.333 12.5821C101.445 12.5821 100.666 12.8031 99.9949 13.2452C99.3241 13.6672 98.7914 14.2499 98.3968 14.9933C98.022 15.7167 97.8346 16.5606 97.8346 17.5251C97.8346 18.4694 98.022 19.3234 98.3968 20.0869C98.7914 20.8304 99.3241 21.4131 99.9949 21.8351C100.666 22.257 101.445 22.468 102.333 22.468Z" fill="#743EF9"/>
<path d="M116.94 25.7231L111.406 9.32702H115.49L119.544 21.7748L118.124 21.7446L122.444 9.32702H125.877L130.168 21.7446L128.748 21.7748L132.802 9.32702H136.886L131.352 25.7231H127.89L123.51 12.7328H124.812L120.373 25.7231H116.94Z" fill="#743EF9"/>
<path d="M138.42 25.7231V2.90723H142.296V25.7231H138.42Z" fill="#743EF9"/>
<path d="M152.919 26.0848C151.262 26.0848 149.812 25.703 148.569 24.9395C147.326 24.1759 146.359 23.1411 145.669 21.8351C144.978 20.529 144.633 19.0823 144.633 17.4949C144.633 15.8473 144.978 14.3905 145.669 13.1246C146.379 11.8387 147.336 10.824 148.539 10.0805C149.762 9.33706 151.124 8.96534 152.623 8.96534C153.886 8.96534 154.991 9.17632 155.938 9.59828C156.905 10.0202 157.723 10.6029 158.394 11.3464C159.065 12.0898 159.578 12.9438 159.933 13.9083C160.288 14.8527 160.466 15.8774 160.466 16.9825C160.466 17.2638 160.446 17.5552 160.406 17.8566C160.387 18.158 160.337 18.4192 160.259 18.6402H147.829V15.6262H158.069L156.234 17.0428C156.411 16.1185 156.362 15.2947 156.086 14.5714C155.829 13.848 155.395 13.2753 154.784 12.8534C154.192 12.4314 153.472 12.2204 152.623 12.2204C151.814 12.2204 151.094 12.4314 150.463 12.8534C149.832 13.2552 149.348 13.858 149.013 14.6618C148.697 15.4454 148.579 16.3998 148.658 17.5251C148.579 18.5297 148.707 19.4239 149.042 20.2075C149.397 20.9711 149.91 21.5638 150.581 21.9858C151.272 22.4077 152.061 22.6187 152.949 22.6187C153.837 22.6187 154.586 22.4278 155.198 22.046C155.829 21.6643 156.322 21.1519 156.678 20.5089L159.815 22.0762C159.499 22.8598 159.006 23.553 158.335 24.1558C157.664 24.7586 156.865 25.2308 155.938 25.5724C155.03 25.914 154.024 26.0848 152.919 26.0848Z" fill="#743EF9"/>
<path d="M170.3 26.0848C168.741 26.0848 167.35 25.7131 166.127 24.9696C164.904 24.2061 163.937 23.1713 163.227 21.8652C162.517 20.5591 162.162 19.1124 162.162 17.5251C162.162 15.9176 162.517 14.4709 163.227 13.1849C163.937 11.899 164.904 10.8742 166.127 10.1107C167.37 9.34711 168.751 8.96534 170.27 8.96534C171.494 8.96534 172.579 9.2165 173.526 9.71884C174.492 10.2011 175.252 10.8842 175.804 11.7683L175.213 12.5821V2.90723H179.089V25.7231H175.42V22.5584L175.834 23.3421C175.282 24.2262 174.512 24.9093 173.526 25.3916C172.539 25.8537 171.464 26.0848 170.3 26.0848ZM170.714 22.468C171.602 22.468 172.381 22.257 173.052 21.8351C173.723 21.4131 174.246 20.8304 174.621 20.0869C175.015 19.3435 175.213 18.4895 175.213 17.5251C175.213 16.5807 175.015 15.7368 174.621 14.9933C174.246 14.2298 173.723 13.637 173.052 13.2151C172.381 12.7931 171.602 12.5821 170.714 12.5821C169.846 12.5821 169.067 12.8031 168.376 13.2452C167.686 13.6672 167.143 14.2499 166.749 14.9933C166.374 15.7167 166.186 16.5606 166.186 17.5251C166.186 18.4895 166.374 19.3435 166.749 20.0869C167.143 20.8304 167.686 21.4131 168.376 21.8351C169.067 22.257 169.846 22.468 170.714 22.468Z" fill="#743EF9"/>
<path d="M189.917 32.3539C188.714 32.3539 187.599 32.1529 186.573 31.7511C185.547 31.3492 184.659 30.7866 183.909 30.0632C183.179 29.36 182.647 28.5261 182.311 27.5616L185.922 26.1752C186.159 26.9387 186.622 27.5516 187.313 28.0137C188.023 28.496 188.891 28.7371 189.917 28.7371C190.706 28.7371 191.397 28.5864 191.989 28.285C192.6 27.9836 193.074 27.5415 193.409 26.9588C193.745 26.3962 193.912 25.7131 193.912 24.9093V21.172L194.652 22.0762C194.1 23.0607 193.36 23.8042 192.433 24.3065C191.505 24.8089 190.45 25.06 189.266 25.06C187.767 25.06 186.425 24.7084 185.241 24.0051C184.057 23.3019 183.13 22.3374 182.459 21.1117C181.789 19.886 181.453 18.5096 181.453 16.9825C181.453 15.4354 181.789 14.059 182.459 12.8534C183.13 11.6478 184.048 10.7034 185.212 10.0202C186.376 9.31697 187.697 8.96534 189.177 8.96534C190.381 8.96534 191.436 9.22655 192.344 9.74897C193.271 10.2513 194.04 10.9847 194.652 11.9492L194.119 12.9438V9.32702H197.789V24.9093C197.789 26.3359 197.444 27.6119 196.753 28.7371C196.082 29.8623 195.155 30.7464 193.971 31.3894C192.807 32.0324 191.456 32.3539 189.917 32.3539ZM189.739 21.4131C190.568 21.4131 191.288 21.2323 191.9 20.8706C192.531 20.4888 193.024 19.9664 193.38 19.3033C193.735 18.6402 193.912 17.8767 193.912 17.0127C193.912 16.1688 193.725 15.4153 193.35 14.7522C192.995 14.069 192.502 13.5366 191.87 13.1548C191.259 12.773 190.548 12.5821 189.739 12.5821C188.931 12.5821 188.201 12.773 187.55 13.1548C186.898 13.5366 186.385 14.069 186.011 14.7522C185.655 15.4153 185.478 16.1688 185.478 17.0127C185.478 17.8566 185.655 18.6101 186.011 19.2732C186.385 19.9362 186.889 20.4587 187.52 20.8404C188.171 21.2222 188.911 21.4131 189.739 21.4131Z" fill="#743EF9"/>
<path d="M208.453 26.0848C206.796 26.0848 205.346 25.703 204.103 24.9395C202.86 24.1759 201.893 23.1411 201.203 21.8351C200.512 20.529 200.167 19.0823 200.167 17.4949C200.167 15.8473 200.512 14.3905 201.203 13.1246C201.913 11.8387 202.87 10.824 204.073 10.0805C205.296 9.33706 206.658 8.96534 208.157 8.96534C209.42 8.96534 210.525 9.17632 211.472 9.59828C212.438 10.0202 213.257 10.6029 213.928 11.3464C214.599 12.0898 215.112 12.9438 215.467 13.9083C215.822 14.8527 216 15.8774 216 16.9825C216 17.2638 215.98 17.5552 215.94 17.8566C215.921 18.158 215.871 18.4192 215.792 18.6402H203.363V15.6262H213.602L211.768 17.0428C211.945 16.1185 211.896 15.2947 211.62 14.5714C211.363 13.848 210.929 13.2753 210.317 12.8534C209.726 12.4314 209.005 12.2204 208.157 12.2204C207.348 12.2204 206.628 12.4314 205.997 12.8534C205.365 13.2552 204.882 13.858 204.547 14.6618C204.231 15.4454 204.113 16.3998 204.192 17.5251C204.113 18.5297 204.241 19.4239 204.576 20.2075C204.931 20.9711 205.444 21.5638 206.115 21.9858C206.806 22.4077 207.595 22.6187 208.483 22.6187C209.37 22.6187 210.12 22.4278 210.732 22.046C211.363 21.6643 211.856 21.1519 212.212 20.5089L215.348 22.0762C215.033 22.8598 214.54 23.553 213.869 24.1558C213.198 24.7586 212.399 25.2308 211.472 25.5724C210.564 25.914 209.558 26.0848 208.453 26.0848Z" fill="#743EF9"/>
<path d="M59.6878 44.754C59.5479 44.754 59.4302 44.7054 59.3348 44.6082C59.2457 44.5111 59.2012 44.3912 59.2012 44.2487V37.6699C59.2012 37.5273 59.2489 37.4075 59.3443 37.3103C59.4397 37.2131 59.5542 37.1646 59.6878 37.1646C59.8277 37.1646 59.9454 37.2131 60.0408 37.3103C60.1362 37.4075 60.184 37.5273 60.184 37.6699V43.7434H63.638C63.778 43.7434 63.8956 43.792 63.9911 43.8891C64.0865 43.9863 64.1342 44.1062 64.1342 44.2487C64.1342 44.3912 64.0865 44.5111 63.9911 44.6082C63.8956 44.7054 63.778 44.754 63.638 44.754H59.6878Z" fill="#743EF9"/>
<path d="M67.4032 44.7929C66.9388 44.7929 66.5221 44.6763 66.1532 44.443C65.7843 44.2033 65.4916 43.8827 65.2754 43.481C65.0655 43.0729 64.9605 42.6129 64.9605 42.1011C64.9605 41.5893 65.075 41.1293 65.304 40.7212C65.5394 40.3131 65.8542 39.9924 66.2486 39.7592C66.6494 39.5195 67.0978 39.3996 67.594 39.3996C68.0901 39.3996 68.5354 39.5195 68.9298 39.7592C69.3242 39.9924 69.6359 40.3131 69.8649 40.7212C70.1002 41.1293 70.2179 41.5893 70.2179 42.1011H69.8458C69.8458 42.6129 69.7377 43.0729 69.5214 43.481C69.3115 43.8827 69.022 44.2033 68.6531 44.443C68.2842 44.6763 67.8675 44.7929 67.4032 44.7929ZM67.594 43.9183C67.9184 43.9183 68.2078 43.8405 68.4623 43.6851C68.7167 43.5231 68.9171 43.3061 69.0634 43.034C69.2097 42.7554 69.2828 42.4445 69.2828 42.1011C69.2828 41.7513 69.2097 41.4403 69.0634 41.1682C68.9171 40.8896 68.7167 40.6726 68.4623 40.5171C68.2078 40.3552 67.9184 40.2742 67.594 40.2742C67.2759 40.2742 66.9865 40.3552 66.7257 40.5171C66.4713 40.6726 66.2677 40.8896 66.115 41.1682C65.9687 41.4403 65.8956 41.7513 65.8956 42.1011C65.8956 42.4445 65.9687 42.7554 66.115 43.034C66.2677 43.3061 66.4713 43.5231 66.7257 43.6851C66.9865 43.8405 67.2759 43.9183 67.594 43.9183ZM69.7313 44.7637C69.5914 44.7637 69.4737 44.7184 69.3783 44.6277C69.2892 44.5305 69.2447 44.4106 69.2447 44.2681V42.7813L69.426 41.7513L70.2179 42.1011V44.2681C70.2179 44.4106 70.1702 44.5305 70.0748 44.6277C69.9857 44.7184 69.8712 44.7637 69.7313 44.7637Z" fill="#743EF9"/>
<path d="M76.0746 44.7637C75.9347 44.7637 75.817 44.7184 75.7216 44.6277C75.6325 44.5305 75.588 44.4106 75.588 44.2681V41.8776C75.588 41.5083 75.5212 41.2071 75.3876 40.9739C75.254 40.7406 75.0727 40.569 74.8437 40.4588C74.6211 40.3422 74.3635 40.2839 74.0709 40.2839C73.8037 40.2839 73.562 40.339 73.3457 40.4491C73.1294 40.5592 72.9577 40.7082 72.8305 40.8961C72.7032 41.0775 72.6396 41.2881 72.6396 41.5278H72.0385C72.0385 41.1196 72.1339 40.7568 72.3248 40.4394C72.5219 40.1155 72.7891 39.8596 73.1263 39.6717C73.4634 39.4838 73.8419 39.3899 74.2617 39.3899C74.7006 39.3899 75.0918 39.4871 75.4353 39.6814C75.7852 39.8693 76.0587 40.1479 76.2559 40.5171C76.4595 40.8864 76.5612 41.3399 76.5612 41.8776V44.2681C76.5612 44.4106 76.5135 44.5305 76.4181 44.6277C76.329 44.7184 76.2146 44.7637 76.0746 44.7637ZM72.153 44.7637C72.0131 44.7637 71.8954 44.7184 71.8 44.6277C71.7109 44.5305 71.6664 44.4106 71.6664 44.2681V39.9341C71.6664 39.7851 71.7109 39.6652 71.8 39.5745C71.8954 39.4838 72.0131 39.4385 72.153 39.4385C72.2993 39.4385 72.417 39.4838 72.506 39.5745C72.5951 39.6652 72.6396 39.7851 72.6396 39.9341V44.2681C72.6396 44.4106 72.5951 44.5305 72.506 44.6277C72.417 44.7184 72.2993 44.7637 72.153 44.7637Z" fill="#743EF9"/>
<path d="M80.3458 44.7929C79.8687 44.7929 79.4457 44.6795 79.0768 44.4528C78.7142 44.2195 78.428 43.9021 78.218 43.5004C78.0081 43.0923 77.9032 42.6258 77.9032 42.1011C77.9032 41.5699 78.0145 41.1034 78.2371 40.7018C78.4661 40.2936 78.7778 39.9762 79.1722 39.7494C79.5666 39.5162 80.0214 39.3996 80.5366 39.3996C81.0455 39.3996 81.4972 39.5162 81.8916 39.7494C82.2859 39.9762 82.5945 40.2936 82.8171 40.7018C83.0461 41.1034 83.1606 41.5699 83.1606 42.1011H82.5976C82.5976 42.6258 82.499 43.0923 82.3018 43.5004C82.111 43.9021 81.847 44.2195 81.5099 44.4528C81.1728 44.6795 80.7847 44.7929 80.3458 44.7929ZM80.5176 46.9599C80.0659 46.9599 79.6429 46.8692 79.2485 46.6878C78.8541 46.5064 78.5202 46.2408 78.2467 45.891C78.164 45.7808 78.1322 45.6675 78.1512 45.5508C78.1767 45.4342 78.2403 45.3403 78.3421 45.269C78.4566 45.1913 78.5743 45.1654 78.6951 45.1913C78.8223 45.2172 78.9241 45.282 79.0004 45.3856C79.1722 45.6059 79.3885 45.7776 79.6493 45.9007C79.9101 46.0238 80.2059 46.0853 80.5366 46.0853C80.842 46.0853 81.1219 46.0108 81.3763 45.8618C81.6371 45.7128 81.8438 45.4925 81.9965 45.201C82.1492 44.9095 82.2255 44.5532 82.2255 44.1321V42.7522L82.5404 41.897L83.1606 42.1011V44.2001C83.1606 44.7119 83.0493 45.1751 82.8266 45.5897C82.604 46.0108 82.2923 46.3444 81.8916 46.5906C81.4972 46.8368 81.0392 46.9599 80.5176 46.9599ZM80.5366 43.9183C80.8674 43.9183 81.16 43.8405 81.4145 43.6851C81.6689 43.5296 81.8661 43.3158 82.0061 43.0437C82.1524 42.7716 82.2255 42.4574 82.2255 42.1011C82.2255 41.7448 82.1524 41.4306 82.0061 41.1585C81.8661 40.8799 81.6689 40.6629 81.4145 40.5074C81.16 40.3519 80.8674 40.2742 80.5366 40.2742C80.2059 40.2742 79.9133 40.3519 79.6588 40.5074C79.4044 40.6629 79.204 40.8799 79.0577 41.1585C78.9114 41.4306 78.8382 41.7448 78.8382 42.1011C78.8382 42.4574 78.9114 42.7716 79.0577 43.0437C79.204 43.3158 79.4044 43.5296 79.6588 43.6851C79.9133 43.8405 80.2059 43.9183 80.5366 43.9183Z" fill="#743EF9"/>
<path d="M86.8036 44.8026C86.3647 44.8026 85.9703 44.7087 85.6205 44.5208C85.277 44.3264 85.0034 44.0446 84.7999 43.6753C84.6027 43.3061 84.5041 42.8526 84.5041 42.3149V39.9244C84.5041 39.7818 84.5486 39.6652 84.6377 39.5745C84.7331 39.4773 84.8508 39.4288 84.9907 39.4288C85.1307 39.4288 85.2452 39.4773 85.3342 39.5745C85.4296 39.6652 85.4773 39.7818 85.4773 39.9244V42.3149C85.4773 42.6777 85.5441 42.9789 85.6777 43.2186C85.8113 43.4518 85.9926 43.6268 86.2216 43.7434C86.4506 43.8535 86.7082 43.9086 86.9945 43.9086C87.268 43.9086 87.5097 43.8535 87.7196 43.7434C87.9359 43.6332 88.1076 43.4842 88.2349 43.2964C88.3621 43.1085 88.4257 42.8979 88.4257 42.6647H89.0268C89.0268 43.0664 88.9282 43.4292 88.731 43.7531C88.5402 44.077 88.2762 44.3329 87.9391 44.5208C87.6083 44.7087 87.2298 44.8026 86.8036 44.8026ZM88.9123 44.754C88.7724 44.754 88.6547 44.7086 88.5593 44.618C88.4702 44.5208 88.4257 44.4009 88.4257 44.2584V39.9244C88.4257 39.7754 88.4702 39.6555 88.5593 39.5648C88.6547 39.4741 88.7724 39.4288 88.9123 39.4288C89.0586 39.4288 89.1763 39.4741 89.2654 39.5648C89.3544 39.6555 89.3989 39.7754 89.3989 39.9244V44.2584C89.3989 44.4009 89.3544 44.5208 89.2654 44.618C89.1763 44.7086 89.0586 44.754 88.9123 44.754Z" fill="#743EF9"/>
<path d="M93.2885 44.7929C92.8241 44.7929 92.4075 44.6763 92.0385 44.443C91.6696 44.2033 91.377 43.8827 91.1607 43.481C90.9508 43.0729 90.8458 42.6129 90.8458 42.1011C90.8458 41.5893 90.9603 41.1293 91.1893 40.7212C91.4247 40.3131 91.7396 39.9924 92.1339 39.7592C92.5347 39.5195 92.9832 39.3996 93.4793 39.3996C93.9755 39.3996 94.4208 39.5195 94.8151 39.7592C95.2095 39.9924 95.5212 40.3131 95.7502 40.7212C95.9856 41.1293 96.1033 41.5893 96.1033 42.1011H95.7311C95.7311 42.6129 95.623 43.0729 95.4067 43.481C95.1968 43.8827 94.9074 44.2033 94.5384 44.443C94.1695 44.6763 93.7528 44.7929 93.2885 44.7929ZM93.4793 43.9183C93.8037 43.9183 94.0932 43.8405 94.3476 43.6851C94.602 43.5231 94.8024 43.3061 94.9487 43.034C95.095 42.7554 95.1682 42.4445 95.1682 42.1011C95.1682 41.7513 95.095 41.4403 94.9487 41.1682C94.8024 40.8896 94.602 40.6726 94.3476 40.5171C94.0932 40.3552 93.8037 40.2742 93.4793 40.2742C93.1613 40.2742 92.8718 40.3552 92.611 40.5171C92.3566 40.6726 92.153 40.8896 92.0004 41.1682C91.8541 41.4403 91.7809 41.7513 91.7809 42.1011C91.7809 42.4445 91.8541 42.7554 92.0004 43.034C92.153 43.3061 92.3566 43.5231 92.611 43.6851C92.8718 43.8405 93.1613 43.9183 93.4793 43.9183ZM95.6166 44.7637C95.4767 44.7637 95.359 44.7184 95.2636 44.6277C95.1745 44.5305 95.13 44.4106 95.13 44.2681V42.7813L95.3113 41.7513L96.1033 42.1011V44.2681C96.1033 44.4106 96.0555 44.5305 95.9601 44.6277C95.8711 44.7184 95.7566 44.7637 95.6166 44.7637Z" fill="#743EF9"/>
<path d="M99.7272 44.7929C99.2501 44.7929 98.8271 44.6795 98.4582 44.4528C98.0956 44.2195 97.8093 43.9021 97.5994 43.5004C97.3895 43.0923 97.2846 42.6258 97.2846 42.1011C97.2846 41.5699 97.3959 41.1034 97.6185 40.7018C97.8475 40.2936 98.1592 39.9762 98.5536 39.7494C98.948 39.5162 99.4028 39.3996 99.918 39.3996C100.427 39.3996 100.879 39.5162 101.273 39.7494C101.667 39.9762 101.976 40.2936 102.198 40.7018C102.427 41.1034 102.542 41.5699 102.542 42.1011H101.979C101.979 42.6258 101.88 43.0923 101.683 43.5004C101.492 43.9021 101.228 44.2195 100.891 44.4528C100.554 44.6795 100.166 44.7929 99.7272 44.7929ZM99.899 46.9599C99.4473 46.9599 99.0243 46.8692 98.6299 46.6878C98.2355 46.5064 97.9016 46.2408 97.6281 45.891C97.5454 45.7808 97.5136 45.6675 97.5326 45.5508C97.5581 45.4342 97.6217 45.3403 97.7235 45.269C97.838 45.1913 97.9556 45.1654 98.0765 45.1913C98.2037 45.2172 98.3055 45.282 98.3818 45.3856C98.5536 45.6059 98.7699 45.7776 99.0307 45.9007C99.2915 46.0238 99.5873 46.0853 99.918 46.0853C100.223 46.0853 100.503 46.0108 100.758 45.8618C101.018 45.7128 101.225 45.4925 101.378 45.201C101.531 44.9095 101.607 44.5532 101.607 44.1321V42.7522L101.922 41.897L102.542 42.1011V44.2001C102.542 44.7119 102.431 45.1751 102.208 45.5897C101.985 46.0108 101.674 46.3444 101.273 46.5906C100.879 46.8368 100.421 46.9599 99.899 46.9599ZM99.918 43.9183C100.249 43.9183 100.541 43.8405 100.796 43.6851C101.05 43.5296 101.247 43.3158 101.387 43.0437C101.534 42.7716 101.607 42.4574 101.607 42.1011C101.607 41.7448 101.534 41.4306 101.387 41.1585C101.247 40.8799 101.05 40.6629 100.796 40.5074C100.541 40.3519 100.249 40.2742 99.918 40.2742C99.5873 40.2742 99.2947 40.3519 99.0402 40.5074C98.7858 40.6629 98.5854 40.8799 98.4391 41.1585C98.2928 41.4306 98.2196 41.7448 98.2196 42.1011C98.2196 42.4574 98.2928 42.7716 98.4391 43.0437C98.5854 43.3158 98.7858 43.5296 99.0402 43.6851C99.2947 43.8405 99.5873 43.9183 99.918 43.9183Z" fill="#743EF9"/>
<path d="M106.443 44.7929C105.915 44.7929 105.444 44.6795 105.03 44.4528C104.623 44.2195 104.302 43.9021 104.067 43.5004C103.838 43.0923 103.723 42.6258 103.723 42.1011C103.723 41.5699 103.831 41.1034 104.048 40.7018C104.27 40.2936 104.576 39.9762 104.964 39.7494C105.352 39.5162 105.797 39.3996 106.3 39.3996C106.796 39.3996 107.222 39.513 107.578 39.7397C107.934 39.96 108.205 40.2677 108.389 40.6629C108.58 41.0516 108.675 41.5018 108.675 42.0136C108.675 42.1367 108.634 42.2404 108.551 42.3246C108.469 42.4023 108.364 42.4412 108.236 42.4412H104.391V41.6638H108.208L107.817 41.9359C107.81 41.612 107.747 41.3237 107.626 41.071C107.505 40.8119 107.333 40.6078 107.111 40.4588C106.888 40.3098 106.618 40.2353 106.3 40.2353C105.937 40.2353 105.625 40.3163 105.364 40.4783C105.11 40.6402 104.916 40.8637 104.782 41.1488C104.649 41.4273 104.582 41.7448 104.582 42.1011C104.582 42.4574 104.662 42.7748 104.821 43.0534C104.98 43.332 105.199 43.5523 105.479 43.7142C105.759 43.8762 106.08 43.9572 106.443 43.9572C106.64 43.9572 106.84 43.9215 107.044 43.8503C107.254 43.7725 107.422 43.6851 107.549 43.5879C107.645 43.5166 107.747 43.481 107.855 43.481C107.969 43.4745 108.068 43.5069 108.151 43.5782C108.259 43.6753 108.316 43.7822 108.322 43.8989C108.329 44.0155 108.278 44.1159 108.17 44.2001C107.953 44.375 107.683 44.5175 107.359 44.6277C107.041 44.7378 106.735 44.7929 106.443 44.7929Z" fill="#743EF9"/>
<path d="M116.147 44.8512C115.632 44.8512 115.148 44.754 114.697 44.5596C114.251 44.3588 113.86 44.0835 113.523 43.7337C113.192 43.3773 112.932 42.9627 112.741 42.4898C112.556 42.0169 112.464 41.5051 112.464 40.9544C112.464 40.4102 112.556 39.9049 112.741 39.4385C112.932 38.9656 113.192 38.5542 113.523 38.2043C113.86 37.848 114.251 37.5695 114.697 37.3686C115.142 37.1678 115.625 37.0674 116.147 37.0674C116.637 37.0674 117.057 37.1322 117.407 37.2617C117.763 37.3913 118.119 37.6051 118.475 37.9031C118.526 37.942 118.564 37.9841 118.59 38.0294C118.621 38.0683 118.641 38.1104 118.647 38.1558C118.66 38.1946 118.666 38.2432 118.666 38.3015C118.666 38.4246 118.621 38.5283 118.532 38.6125C118.45 38.6902 118.348 38.7356 118.227 38.7485C118.106 38.755 117.989 38.7129 117.874 38.6222C117.639 38.4149 117.394 38.2562 117.139 38.146C116.891 38.0359 116.561 37.9808 116.147 37.9808C115.772 37.9808 115.419 38.0586 115.088 38.2141C114.757 38.3695 114.465 38.5833 114.21 38.8554C113.962 39.1275 113.768 39.445 113.628 39.8077C113.488 40.1641 113.418 40.5463 113.418 40.9544C113.418 41.369 113.488 41.7577 113.628 42.1205C113.768 42.4768 113.962 42.791 114.21 43.0631C114.465 43.3352 114.757 43.549 115.088 43.7045C115.419 43.8535 115.772 43.928 116.147 43.928C116.471 43.928 116.777 43.8729 117.063 43.7628C117.356 43.6462 117.636 43.4875 117.903 43.2866C118.017 43.2024 118.129 43.1668 118.237 43.1797C118.351 43.1862 118.447 43.2316 118.523 43.3158C118.599 43.3935 118.637 43.5037 118.637 43.6462C118.637 43.711 118.625 43.7758 118.599 43.8405C118.574 43.8989 118.536 43.9539 118.485 44.0057C118.141 44.2843 117.772 44.4949 117.378 44.6374C116.99 44.7799 116.58 44.8512 116.147 44.8512Z" fill="#743EF9"/>
<path d="M122.113 44.7929C121.598 44.7929 121.143 44.6795 120.749 44.4528C120.355 44.2195 120.043 43.9021 119.814 43.5004C119.591 43.0923 119.48 42.6258 119.48 42.1011C119.48 41.5699 119.591 41.1034 119.814 40.7018C120.043 40.2936 120.355 39.9762 120.749 39.7494C121.143 39.5162 121.598 39.3996 122.113 39.3996C122.622 39.3996 123.074 39.5162 123.468 39.7494C123.863 39.9762 124.171 40.2936 124.394 40.7018C124.623 41.1034 124.737 41.5699 124.737 42.1011C124.737 42.6258 124.626 43.0923 124.403 43.5004C124.181 43.9021 123.872 44.2195 123.478 44.4528C123.084 44.6795 122.629 44.7929 122.113 44.7929ZM122.113 43.9183C122.444 43.9183 122.737 43.8405 122.991 43.6851C123.246 43.5296 123.443 43.3158 123.583 43.0437C123.729 42.7716 123.802 42.4574 123.802 42.1011C123.802 41.7448 123.729 41.4306 123.583 41.1585C123.443 40.8799 123.246 40.6629 122.991 40.5074C122.737 40.3519 122.444 40.2742 122.113 40.2742C121.783 40.2742 121.49 40.3519 121.236 40.5074C120.981 40.6629 120.781 40.8799 120.634 41.1585C120.488 41.4306 120.415 41.7448 120.415 42.1011C120.415 42.4574 120.488 42.7716 120.634 43.0437C120.781 43.3158 120.981 43.5296 121.236 43.6851C121.49 43.8405 121.783 43.9183 122.113 43.9183Z" fill="#743EF9"/>
<path d="M127.426 44.754C127.146 44.754 126.898 44.6763 126.682 44.5208C126.466 44.3653 126.297 44.1547 126.176 43.8891C126.055 43.617 125.995 43.3061 125.995 42.9562V37.6504C125.995 37.5079 126.04 37.3913 126.129 37.3006C126.218 37.2099 126.332 37.1646 126.472 37.1646C126.612 37.1646 126.727 37.2099 126.816 37.3006C126.905 37.3913 126.949 37.5079 126.949 37.6504V42.9562C126.949 43.1959 126.994 43.3935 127.083 43.549C127.172 43.7045 127.286 43.7822 127.426 43.7822H127.665C127.792 43.7822 127.894 43.8276 127.97 43.9183C128.053 44.009 128.094 44.1256 128.094 44.2681C128.094 44.4106 128.034 44.5273 127.913 44.618C127.792 44.7086 127.636 44.754 127.445 44.754H127.426Z" fill="#743EF9"/>
<path d="M130.287 44.754C130.007 44.754 129.759 44.6763 129.543 44.5208C129.326 44.3653 129.158 44.1547 129.037 43.8891C128.916 43.617 128.856 43.3061 128.856 42.9562V37.6504C128.856 37.5079 128.9 37.3913 128.989 37.3006C129.078 37.2099 129.193 37.1646 129.333 37.1646C129.473 37.1646 129.587 37.2099 129.676 37.3006C129.765 37.3913 129.81 37.5079 129.81 37.6504V42.9562C129.81 43.1959 129.854 43.3935 129.943 43.549C130.032 43.7045 130.147 43.7822 130.287 43.7822H130.525C130.653 43.7822 130.754 43.8276 130.831 43.9183C130.913 44.009 130.955 44.1256 130.955 44.2681C130.955 44.4106 130.894 44.5273 130.774 44.618C130.653 44.7086 130.497 44.754 130.306 44.754H130.287Z" fill="#743EF9"/>
<path d="M134.07 44.7929C133.542 44.7929 133.072 44.6795 132.658 44.4528C132.251 44.2195 131.93 43.9021 131.695 43.5004C131.466 43.0923 131.351 42.6258 131.351 42.1011C131.351 41.5699 131.459 41.1034 131.675 40.7018C131.898 40.2936 132.203 39.9762 132.591 39.7494C132.98 39.5162 133.425 39.3996 133.927 39.3996C134.423 39.3996 134.85 39.513 135.206 39.7397C135.562 39.96 135.832 40.2677 136.017 40.6629C136.208 41.0516 136.303 41.5018 136.303 42.0136C136.303 42.1367 136.262 42.2404 136.179 42.3246C136.096 42.4023 135.991 42.4412 135.864 42.4412H132.019V41.6638H135.836L135.444 41.9359C135.438 41.612 135.374 41.3237 135.254 41.071C135.133 40.8119 134.961 40.6078 134.738 40.4588C134.516 40.3098 134.245 40.2353 133.927 40.2353C133.565 40.2353 133.253 40.3163 132.992 40.4783C132.738 40.6402 132.544 40.8637 132.41 41.1488C132.277 41.4273 132.21 41.7448 132.21 42.1011C132.21 42.4574 132.289 42.7748 132.448 43.0534C132.607 43.332 132.827 43.5523 133.107 43.7142C133.387 43.8762 133.708 43.9572 134.07 43.9572C134.268 43.9572 134.468 43.9215 134.672 43.8503C134.881 43.7725 135.05 43.6851 135.177 43.5879C135.273 43.5166 135.374 43.481 135.483 43.481C135.597 43.4745 135.696 43.5069 135.778 43.5782C135.887 43.6753 135.944 43.7822 135.95 43.8989C135.956 44.0155 135.906 44.1159 135.797 44.2001C135.581 44.375 135.311 44.5175 134.986 44.6277C134.668 44.7378 134.363 44.7929 134.07 44.7929Z" fill="#743EF9"/>
<path d="M139.534 44.7929C139.057 44.7929 138.633 44.6795 138.265 44.4528C137.902 44.2195 137.616 43.9021 137.406 43.5004C137.196 43.0923 137.091 42.6258 137.091 42.1011C137.091 41.5699 137.202 41.1034 137.425 40.7018C137.654 40.2936 137.966 39.9762 138.36 39.7494C138.754 39.5162 139.209 39.3996 139.724 39.3996C140.233 39.3996 140.685 39.5162 141.079 39.7494C141.474 39.9762 141.782 40.2936 142.005 40.7018C142.234 41.1034 142.348 41.5699 142.348 42.1011H141.785C141.785 42.6258 141.687 43.0923 141.49 43.5004C141.299 43.9021 141.035 44.2195 140.698 44.4528C140.361 44.6795 139.973 44.7929 139.534 44.7929ZM139.705 46.9599C139.254 46.9599 138.831 46.8692 138.436 46.6878C138.042 46.5064 137.708 46.2408 137.434 45.891C137.352 45.7808 137.32 45.6675 137.339 45.5508C137.364 45.4342 137.428 45.3403 137.53 45.269C137.644 45.1913 137.762 45.1654 137.883 45.1913C138.01 45.2172 138.112 45.282 138.188 45.3856C138.36 45.6059 138.576 45.7776 138.837 45.9007C139.098 46.0238 139.394 46.0853 139.724 46.0853C140.03 46.0853 140.31 46.0108 140.564 45.8618C140.825 45.7128 141.032 45.4925 141.184 45.201C141.337 44.9095 141.413 44.5532 141.413 44.1321V42.7522L141.728 41.897L142.348 42.1011V44.2001C142.348 44.7119 142.237 45.1751 142.014 45.5897C141.792 46.0108 141.48 46.3444 141.079 46.5906C140.685 46.8368 140.227 46.9599 139.705 46.9599ZM139.724 43.9183C140.055 43.9183 140.348 43.8405 140.602 43.6851C140.857 43.5296 141.054 43.3158 141.194 43.0437C141.34 42.7716 141.413 42.4574 141.413 42.1011C141.413 41.7448 141.34 41.4306 141.194 41.1585C141.054 40.8799 140.857 40.6629 140.602 40.5074C140.348 40.3519 140.055 40.2742 139.724 40.2742C139.394 40.2742 139.101 40.3519 138.847 40.5074C138.592 40.6629 138.392 40.8799 138.245 41.1585C138.099 41.4306 138.026 41.7448 138.026 42.1011C138.026 42.4574 138.099 42.7716 138.245 43.0437C138.392 43.3158 138.592 43.5296 138.847 43.6851C139.101 43.8405 139.394 43.9183 139.724 43.9183Z" fill="#743EF9"/>
<path d="M146.249 44.7929C145.721 44.7929 145.25 44.6795 144.837 44.4528C144.43 44.2195 144.109 43.9021 143.873 43.5004C143.644 43.0923 143.53 42.6258 143.53 42.1011C143.53 41.5699 143.638 41.1034 143.854 40.7018C144.077 40.2936 144.382 39.9762 144.77 39.7494C145.158 39.5162 145.603 39.3996 146.106 39.3996C146.602 39.3996 147.028 39.513 147.384 39.7397C147.741 39.96 148.011 40.2677 148.196 40.6629C148.386 41.0516 148.482 41.5018 148.482 42.0136C148.482 42.1367 148.44 42.2404 148.358 42.3246C148.275 42.4023 148.17 42.4412 148.043 42.4412H144.198V41.6638H148.014L147.623 41.9359C147.617 41.612 147.553 41.3237 147.432 41.071C147.311 40.8119 147.14 40.6078 146.917 40.4588C146.694 40.3098 146.424 40.2353 146.106 40.2353C145.743 40.2353 145.432 40.3163 145.171 40.4783C144.916 40.6402 144.722 40.8637 144.589 41.1488C144.455 41.4273 144.388 41.7448 144.388 42.1011C144.388 42.4574 144.468 42.7748 144.627 43.0534C144.786 43.332 145.005 43.5523 145.285 43.7142C145.565 43.8762 145.886 43.9572 146.249 43.9572C146.446 43.9572 146.647 43.9215 146.85 43.8503C147.06 43.7725 147.229 43.6851 147.356 43.5879C147.451 43.5166 147.553 43.481 147.661 43.481C147.776 43.4745 147.874 43.5069 147.957 43.5782C148.065 43.6753 148.122 43.7822 148.129 43.8989C148.135 44.0155 148.084 44.1159 147.976 44.2001C147.76 44.375 147.489 44.5175 147.165 44.6277C146.847 44.7378 146.542 44.7929 146.249 44.7929Z" fill="#743EF9"/>
</svg>
