<svg width="210" height="50" viewBox="0 0 210 50" fill="none" xmlns="http://www.w3.org/2000/svg">
<path d="M58.8228 9.24859H77.0488V16.0068H74.0111V14.6551C74.0111 14.3792 73.9858 14.0948 73.9352 13.8019C73.8902 13.5091 73.8171 13.219 73.7158 12.9318C73.6202 12.6446 73.4795 12.4109 73.2939 12.2306C73.1083 12.0448 72.8973 11.9519 72.6611 11.9519H66.9232V19.3859H69.9609V16.3447H72.6611V25.1303H69.9609V22.0892H66.9232V27.4957H72.9986C73.2348 27.4957 73.4458 27.4056 73.6314 27.2254C73.8171 27.0395 73.9577 26.803 74.0533 26.5158C74.1546 26.2285 74.2277 25.9385 74.2727 25.6457C74.3233 25.3528 74.3486 25.0684 74.3486 24.7924V23.4408H77.3863V30.199H58.8228V27.4957H61.5229V11.9519H58.8228V9.24859Z" fill="#1882FF"/>
<path d="M85.6471 30.5876C84.3308 30.5876 83.2142 30.2497 82.2972 29.5739C81.3803 28.898 80.6968 27.9547 80.2468 26.7439C79.8024 25.533 79.5802 24.0913 79.5802 22.4186C79.5802 21.1965 79.7377 20.0786 80.0527 19.0649C80.3734 18.0511 80.8178 17.1979 81.3859 16.5052C81.9597 15.8069 82.6488 15.269 83.4532 14.8917C84.2633 14.5087 85.1493 14.3172 86.1112 14.3172C86.595 14.3172 87.0506 14.3623 87.4782 14.4524C87.9057 14.5369 88.2685 14.6439 88.5667 14.7734C88.8704 14.9029 89.1573 15.0635 89.4273 15.2549C89.6973 15.4464 89.9139 15.6266 90.0771 15.7956C90.2458 15.9645 90.4089 16.1532 90.5665 16.3616V11.9519H88.8789V9.24859H95.2917V27.4957H96.9793V30.199H91.9672L90.9462 28.2391C90.7268 28.5432 90.4793 28.822 90.2036 29.0754C89.0898 30.0835 87.571 30.5876 85.6471 30.5876ZM90.5665 19.2254C89.9252 18.0427 89.0532 17.4513 87.9507 17.4513C86.8369 17.4513 86.0071 17.8878 85.4615 18.7607C84.9214 19.6337 84.6514 20.8727 84.6514 22.4778C84.6514 23.2324 84.7386 23.9308 84.913 24.5728C85.093 25.2092 85.3293 25.7386 85.6218 26.161C85.9199 26.5834 86.2603 26.9128 86.6428 27.1494C87.0253 27.3803 87.4247 27.4957 87.841 27.4957C88.4035 27.4957 88.9014 27.3408 89.3345 27.0311C89.7733 26.7157 90.1839 26.2511 90.5665 25.6372V19.2254Z" fill="#1882FF"/>
<path d="M98.515 14.6551H104.928V24.1166C104.928 25.0064 105.007 25.6992 105.164 26.1948C105.327 26.6904 105.558 27.0311 105.856 27.2169C106.16 27.4028 106.571 27.4957 107.088 27.4957C107.561 27.4957 108.044 27.2958 108.539 26.8959C109.04 26.4961 109.513 25.9385 109.957 25.2233L109.991 17.3584H108.303V14.6551H114.716V27.4957H116.404V30.199H111.164L109.982 27.9012C109.032 29.6583 107.459 30.5369 105.265 30.5369C104.478 30.5369 103.789 30.4299 103.198 30.2159C102.607 30.0019 102.124 29.709 101.747 29.3373C101.37 28.96 101.063 28.4841 100.827 27.9096C100.596 27.3296 100.433 26.7101 100.338 26.0511C100.248 25.3866 100.203 24.6291 100.203 23.7787V17.3584H98.515V14.6551Z" fill="#1882FF"/>
<path d="M128.993 17.6203C128.352 17.2204 127.536 17.0205 126.546 17.0205C126.147 17.0205 125.775 17.0768 125.432 17.1895C125.089 17.2965 124.76 17.4823 124.445 17.747C124.136 18.0117 123.871 18.3468 123.652 18.7523C123.432 19.1578 123.258 19.6731 123.129 20.2982C122.999 20.9234 122.935 21.633 122.935 22.4271C122.935 23.2212 123.005 23.9279 123.146 24.5474C123.286 25.167 123.472 25.6738 123.702 26.068C123.939 26.4623 124.22 26.7861 124.546 27.0395C124.878 27.293 125.218 27.4732 125.567 27.5802C125.916 27.6816 126.293 27.7322 126.698 27.7322C127.885 27.7322 128.81 27.5042 129.474 27.048C130.143 26.5862 130.678 25.8766 131.077 24.9191L133.322 25.6963C133.119 26.2426 132.86 26.7579 132.545 27.2423C132.236 27.721 131.862 28.1631 131.423 28.5686C130.984 28.9741 130.495 29.3232 129.955 29.6161C129.421 29.9033 128.816 30.1286 128.141 30.2919C127.466 30.4552 126.754 30.5369 126.006 30.5369C124.898 30.5369 123.849 30.3426 122.859 29.954C121.874 29.5654 121.016 29.0248 120.285 28.332C119.559 27.6337 118.983 26.7748 118.555 25.7555C118.133 24.7361 117.922 23.6266 117.922 22.4271C117.922 21.464 118.057 20.5573 118.327 19.7069C118.597 18.8565 118.977 18.1046 119.467 17.4513C119.962 16.7981 120.541 16.2349 121.205 15.7618C121.869 15.2887 122.605 14.9311 123.416 14.6889C124.226 14.4411 125.075 14.3172 125.964 14.3172C126.667 14.3172 127.328 14.3848 127.947 14.52C128.566 14.6495 129.117 14.8297 129.601 15.0606C130.09 15.2859 130.546 15.5675 130.968 15.9054C131.389 16.2433 131.758 16.6038 132.073 16.9867C132.394 17.3641 132.692 17.7893 132.967 18.2623C133.254 18.7072 133.398 19.1944 133.398 19.7238C133.398 20.4728 133.133 21.112 132.604 21.6414C132.081 22.1652 131.446 22.4271 130.698 22.4271C129.949 22.4271 129.311 22.1652 128.782 21.6414C128.259 21.112 127.997 20.4728 127.997 19.7238C127.997 19.307 128.085 18.9156 128.259 18.5496C128.439 18.1835 128.684 17.8737 128.993 17.6203Z" fill="#1882FF"/>
<path d="M149.447 20.0195V27.4957H151.134V30.199H145.877L145.126 28.4419C144.553 29.2641 143.886 29.8273 143.127 30.1314C142.373 30.4355 141.318 30.5876 139.962 30.5876C139.259 30.5876 138.604 30.4637 137.996 30.2159C137.394 29.9737 136.88 29.6414 136.452 29.219C136.03 28.7967 135.698 28.2898 135.457 27.6985C135.22 27.1071 135.102 26.4735 135.102 25.7977C135.102 24.6319 135.558 23.6661 136.469 22.9001C137.38 22.1286 138.545 21.7428 139.962 21.7428C141.104 21.7428 142.049 21.8526 142.798 22.0723C143.546 22.2863 144.187 22.6298 144.721 23.1029V19.521C144.721 19.0142 144.651 18.5918 144.511 18.2539C144.375 17.9103 144.17 17.6485 143.895 17.4682C143.619 17.2824 143.309 17.1529 142.966 17.0796C142.623 17.0064 142.213 16.9698 141.734 16.9698C141.352 16.9698 141.006 17.0515 140.697 17.2148C140.871 17.5809 140.958 17.9667 140.958 18.3722C140.958 19.1212 140.694 19.7604 140.165 20.2898C139.642 20.8135 139.006 21.0754 138.258 21.0754C137.51 21.0754 136.871 20.8135 136.343 20.2898C135.819 19.7604 135.558 19.1212 135.558 18.3722C135.558 17.9892 135.631 17.6287 135.777 17.2908C135.929 16.9529 136.137 16.6573 136.402 16.4038C136.627 16.1673 136.86 15.9561 137.102 15.7702C137.344 15.5788 137.648 15.3901 138.013 15.2042C138.385 15.0128 138.787 14.8551 139.22 14.7312C139.653 14.6073 140.171 14.5087 140.772 14.4355C141.38 14.3567 142.044 14.3172 142.764 14.3172C143.698 14.3172 144.575 14.4552 145.396 14.7312C146.218 15.0071 146.927 15.3901 147.523 15.8801C148.119 16.37 148.589 16.9726 148.932 17.6879C149.275 18.4031 149.447 19.1803 149.447 20.0195ZM144.721 26.4482V25.2824C144.373 24.9501 143.979 24.6713 143.54 24.4461C143.107 24.2152 142.705 24.0997 142.334 24.0997C141.535 24.0997 140.972 24.2349 140.646 24.5052C140.32 24.7699 140.157 25.2007 140.157 25.7977C140.157 26.513 140.297 27.0395 140.578 27.3774C140.86 27.7154 141.383 27.8843 142.148 27.8843C142.581 27.8843 143.031 27.7463 143.498 27.4704C143.97 27.1888 144.378 26.8481 144.721 26.4482Z" fill="#1882FF"/>
<path d="M156.366 11.276H158.053V14.6551H162.779V17.3584H158.053V26.1441C158.053 26.527 158.16 26.8481 158.374 27.1071C158.593 27.3662 158.937 27.4957 159.404 27.4957C159.927 27.4957 160.371 27.3239 160.737 26.9804C161.102 26.6312 161.333 26.1272 161.429 25.4683L163.454 25.8062C163.369 26.4651 163.206 27.0761 162.964 27.6393C162.728 28.1969 162.419 28.6953 162.036 29.1346C161.654 29.5682 161.178 29.9118 160.61 30.1652C160.048 30.413 159.42 30.5369 158.729 30.5369C157.047 30.5369 155.725 30.1455 154.763 29.3627C153.806 28.5742 153.328 27.5013 153.328 26.1441V17.3584H151.641V14.6551H151.978C152.844 14.6551 153.609 14.4073 154.273 13.9117C154.937 13.4161 155.635 12.5376 156.366 11.276Z" fill="#1882FF"/>
<path d="M166.939 12.8558C166.416 12.3264 166.154 11.6872 166.154 10.9381C166.154 10.1891 166.416 9.55271 166.939 9.02895C167.467 8.49956 168.106 8.23486 168.854 8.23486C169.602 8.23486 170.238 8.49956 170.761 9.02895C171.29 9.55271 171.554 10.1891 171.554 10.9381C171.554 11.6872 171.29 12.3264 170.761 12.8558C170.238 13.3795 169.602 13.6414 168.854 13.6414C168.106 13.6414 167.467 13.3795 166.939 12.8558ZM164.804 14.6551H171.217V27.4957H172.904V30.199H164.804V27.4957H166.491V17.3584H164.804V14.6551Z" fill="#1882FF"/>
<path d="M179.359 14.9508C180.349 14.5622 181.399 14.3679 182.507 14.3679C183.615 14.3679 184.661 14.5622 185.646 14.9508C186.636 15.3394 187.496 15.8829 188.228 16.5812C188.959 17.2739 189.536 18.13 189.957 19.1493C190.385 20.1687 190.599 21.2782 190.599 22.4778C190.599 23.6773 190.385 24.7868 189.957 25.8062C189.536 26.8255 188.959 27.6844 188.228 28.3827C187.496 29.0754 186.636 29.6161 185.646 30.0047C184.661 30.3933 183.615 30.5876 182.507 30.5876C181.399 30.5876 180.349 30.3933 179.359 30.0047C178.375 29.6161 177.517 29.0754 176.786 28.3827C176.06 27.6844 175.484 26.8255 175.056 25.8062C174.634 24.7868 174.423 23.6773 174.423 22.4778C174.423 21.2782 174.634 20.1687 175.056 19.1493C175.484 18.13 176.06 17.2739 176.786 16.5812C177.517 15.8829 178.375 15.3394 179.359 14.9508ZM182.507 17.0712C182.113 17.0712 181.761 17.1275 181.452 17.2402C181.143 17.3528 180.859 17.5386 180.6 17.7977C180.341 18.0568 180.127 18.3919 179.958 18.803C179.795 19.2141 179.666 19.7266 179.57 20.3405C179.48 20.9543 179.435 21.6668 179.435 22.4778C179.435 23.2887 179.48 24.0012 179.57 24.615C179.666 25.2289 179.795 25.7414 179.958 26.1525C180.127 26.5636 180.341 26.8987 180.6 27.1578C180.859 27.4169 181.143 27.6027 181.452 27.7154C181.761 27.828 182.113 27.8843 182.507 27.8843C183.002 27.8843 183.432 27.7914 183.798 27.6055C184.163 27.414 184.481 27.1099 184.751 26.6932C185.027 26.2764 185.232 25.7161 185.367 25.0121C185.508 24.3081 185.578 23.4633 185.578 22.4778C185.578 21.4922 185.508 20.6474 185.367 19.9434C185.232 19.2395 185.027 18.6791 184.751 18.2623C184.481 17.8456 184.163 17.5443 183.798 17.3584C183.432 17.1669 183.002 17.0712 182.507 17.0712Z" fill="#1882FF"/>
<path d="M203.247 14.3172C204.035 14.3172 204.724 14.4242 205.315 14.6383C205.905 14.8523 206.389 15.1479 206.766 15.5253C207.143 15.897 207.447 16.3729 207.677 16.9529C207.914 17.5274 208.077 18.1469 208.167 18.8114C208.262 19.4704 208.31 20.225 208.31 21.0754V27.4957H209.998V30.199H201.897V27.4957H203.585V20.7375C203.585 19.8477 203.503 19.155 203.34 18.6594C203.183 18.1638 202.952 17.823 202.648 17.6372C202.35 17.4513 201.942 17.3584 201.425 17.3584C200.952 17.3584 200.468 17.5584 199.973 17.9582C199.478 18.3581 199.009 18.9156 198.564 19.6309L198.522 27.4957H200.21V30.199H192.109V27.4957H193.797V17.3584H192.109V14.6551H197.349L198.53 16.9445C198.739 16.5672 198.978 16.2292 199.248 15.9308C199.523 15.6266 199.85 15.3507 200.227 15.1029C200.609 14.8494 201.056 14.6551 201.568 14.52C202.08 14.3848 202.64 14.3172 203.247 14.3172Z" fill="#1882FF"/>
<path d="M58.8228 47.4839L61.8156 38.9615H63.4833L66.4761 47.4839H65.0368L64.3857 45.5735H60.9246L60.262 47.4839H58.8228ZM61.313 44.3724H63.9745L62.4667 39.911H62.8436L61.313 44.3724Z" fill="#1882FF"/>
<path d="M69.8442 47.6212C69.2274 47.6212 68.6791 47.4801 68.1993 47.1979C67.7271 46.9081 67.3502 46.5192 67.0684 46.0311C66.7943 45.543 66.6572 44.9901 66.6572 44.3724C66.6572 43.7623 66.7943 43.2132 67.0684 42.7251C67.3426 42.237 67.7195 41.8557 68.1993 41.5811C68.6791 41.299 69.2274 41.1579 69.8442 41.1579C70.263 41.1579 70.6552 41.2341 71.0208 41.3867C71.3863 41.5316 71.7023 41.7337 71.9689 41.993C72.243 42.2522 72.4448 42.5535 72.5743 42.8967L71.4434 43.4229C71.314 43.1026 71.1045 42.8471 70.8152 42.6564C70.5334 42.4582 70.2097 42.359 69.8442 42.359C69.4939 42.359 69.1779 42.4467 68.8961 42.6221C68.6219 42.7899 68.4049 43.0301 68.245 43.3428C68.0851 43.6479 68.0051 43.9949 68.0051 44.3838C68.0051 44.7727 68.0851 45.1236 68.245 45.4362C68.4049 45.7413 68.6219 45.9815 68.8961 46.1569C69.1779 46.3323 69.4939 46.42 69.8442 46.42C70.2173 46.42 70.541 46.3247 70.8152 46.134C71.0969 45.9358 71.3063 45.6726 71.4434 45.3447L72.5743 45.8824C72.4524 46.2103 72.2544 46.5077 71.9803 46.7746C71.7138 47.0339 71.3977 47.2399 71.0322 47.3924C70.6667 47.5449 70.2707 47.6212 69.8442 47.6212Z" fill="#1882FF"/>
<path d="M75.4022 47.6212C74.9833 47.6212 74.614 47.5487 74.2942 47.4038C73.9819 47.2513 73.7382 47.0454 73.5631 46.7861C73.3879 46.5192 73.3004 46.2065 73.3004 45.8481C73.3004 45.5125 73.3727 45.2113 73.5174 44.9443C73.6697 44.6774 73.902 44.4524 74.2142 44.2694C74.5264 44.0864 74.9186 43.9567 75.3908 43.8805L77.5383 43.5258V44.544L75.6421 44.8757C75.2994 44.9367 75.0481 45.0473 74.8881 45.2074C74.7282 45.36 74.6483 45.5583 74.6483 45.8023C74.6483 46.0387 74.7358 46.2332 74.911 46.3857C75.0938 46.5306 75.326 46.6031 75.6078 46.6031C75.9581 46.6031 76.2627 46.5268 76.5216 46.3743C76.7882 46.2217 76.9938 46.0196 77.1385 45.768C77.2832 45.5087 77.3555 45.2227 77.3555 44.91V43.3199C77.3555 43.0149 77.2413 42.767 77.0128 42.5764C76.792 42.3781 76.495 42.2789 76.1218 42.2789C75.7791 42.2789 75.4783 42.3705 75.2194 42.5535C74.9681 42.7289 74.7815 42.9577 74.6597 43.2399L73.5859 42.7022C73.7002 42.3971 73.8867 42.1302 74.1457 41.9014C74.4046 41.665 74.7054 41.482 75.0481 41.3523C75.3984 41.2227 75.7677 41.1579 76.1561 41.1579C76.6435 41.1579 77.0737 41.2494 77.4469 41.4324C77.8276 41.6154 78.1208 41.8709 78.3264 42.1989C78.5397 42.5192 78.6463 42.8929 78.6463 43.3199V47.4839H77.4126V46.3628L77.6753 46.3971C77.5307 46.6488 77.3441 46.8662 77.1156 47.0492C76.8948 47.2322 76.6397 47.3733 76.3503 47.4725C76.0685 47.5716 75.7525 47.6212 75.4022 47.6212Z" fill="#1882FF"/>
<path d="M82.7828 47.6212C82.1888 47.6212 81.6558 47.4801 81.1836 47.1979C80.7191 46.9081 80.3497 46.5192 80.0756 46.0311C79.8091 45.543 79.6758 44.9939 79.6758 44.3838C79.6758 43.7737 79.8129 43.2246 80.087 42.7365C80.3612 42.2484 80.7305 41.8633 81.195 41.5811C81.6596 41.299 82.185 41.1579 82.7714 41.1579C83.2664 41.1579 83.7043 41.257 84.085 41.4553C84.4658 41.6536 84.7666 41.9281 84.9875 42.2789L84.7933 42.5764V38.8242H86.0726V47.4839H84.8504V46.2256L84.9989 46.4658C84.7856 46.8395 84.481 47.1255 84.085 47.3237C83.689 47.522 83.255 47.6212 82.7828 47.6212ZM82.9085 46.42C83.2664 46.42 83.5862 46.3323 83.868 46.1569C84.1574 45.9815 84.382 45.7413 84.542 45.4362C84.7095 45.1236 84.7933 44.7727 84.7933 44.3838C84.7933 43.9949 84.7095 43.6479 84.542 43.3428C84.382 43.0378 84.1574 42.7975 83.868 42.6221C83.5862 42.4467 83.2664 42.359 82.9085 42.359C82.5506 42.359 82.2269 42.4467 81.9375 42.6221C81.6481 42.7975 81.4235 43.0378 81.2636 43.3428C81.1037 43.6479 81.0237 43.9949 81.0237 44.3838C81.0237 44.7727 81.1037 45.1236 81.2636 45.4362C81.4235 45.7413 81.6443 45.9815 81.9261 46.1569C82.2155 46.3323 82.5429 46.42 82.9085 46.42Z" fill="#1882FF"/>
<path d="M90.2525 47.6212C89.6357 47.6212 89.0874 47.4801 88.6076 47.1979C88.1355 46.9081 87.7661 46.5192 87.4996 46.0311C87.2331 45.5354 87.0998 44.9825 87.0998 44.3724C87.0998 43.747 87.2331 43.1941 87.4996 42.7136C87.7738 42.2332 88.1393 41.8557 88.5962 41.5811C89.0531 41.299 89.571 41.1579 90.1497 41.1579C90.6143 41.1579 91.0293 41.2379 91.3948 41.3981C91.7604 41.5583 92.0688 41.7794 92.3201 42.0616C92.5714 42.3361 92.7618 42.6526 92.8912 43.0111C93.0283 43.3695 93.0969 43.7508 93.0969 44.155C93.0969 44.2542 93.093 44.3571 93.0854 44.4639C93.0778 44.5706 93.0626 44.6698 93.0397 44.7613H88.1164V43.7318H92.3087L91.6918 44.2008C91.768 43.8271 91.7413 43.4953 91.6119 43.2055C91.49 42.9081 91.2996 42.6755 91.0407 42.5077C90.7894 42.3323 90.4924 42.2446 90.1497 42.2446C89.807 42.2446 89.5024 42.3323 89.2359 42.5077C88.9694 42.6755 88.7637 42.9195 88.6191 43.2399C88.4744 43.5525 88.4173 43.9338 88.4477 44.3838C88.4096 44.8032 88.4668 45.1693 88.6191 45.482C88.779 45.7947 88.9998 46.0387 89.2816 46.2141C89.571 46.3895 89.8984 46.4772 90.264 46.4772C90.6371 46.4772 90.9531 46.3933 91.2121 46.2256C91.4786 46.0578 91.688 45.8404 91.8403 45.5735L92.8912 46.0883C92.7694 46.3781 92.579 46.6412 92.3201 46.8776C92.0688 47.1064 91.7642 47.2894 91.4063 47.4267C91.056 47.5563 90.6714 47.6212 90.2525 47.6212Z" fill="#1882FF"/>
<path d="M94.1281 47.4839V41.2951H95.3618V42.6336L95.2019 42.4277C95.3313 42.0082 95.5674 41.6917 95.9101 41.4782C96.2528 41.2646 96.645 41.1579 97.0867 41.1579C97.5817 41.1579 98.0195 41.2913 98.4003 41.5583C98.7887 41.8175 99.0476 42.1645 99.1771 42.5992L98.8115 42.6336C98.9943 42.1379 99.2723 41.768 99.6454 41.5239C100.026 41.2799 100.46 41.1579 100.948 41.1579C101.374 41.1579 101.759 41.257 102.101 41.4553C102.452 41.6536 102.73 41.9281 102.935 42.2789C103.141 42.6297 103.244 43.0301 103.244 43.4801V47.4839H101.953V43.8347C101.953 43.522 101.896 43.2589 101.782 43.0454C101.675 42.8242 101.523 42.6564 101.325 42.542C101.134 42.42 100.91 42.359 100.651 42.359C100.392 42.359 100.163 42.42 99.9653 42.542C99.7673 42.6564 99.6111 42.8242 99.4969 43.0454C99.3827 43.2665 99.3256 43.5297 99.3256 43.8347V47.4839H98.0462V43.8347C98.0462 43.522 97.9891 43.2589 97.8749 43.0454C97.7682 42.8242 97.6159 42.6564 97.4179 42.542C97.2276 42.42 96.9991 42.359 96.7326 42.359C96.4736 42.359 96.2452 42.42 96.0472 42.542C95.8492 42.6564 95.6931 42.8242 95.5788 43.0454C95.4722 43.2665 95.4189 43.5297 95.4189 43.8347V47.4839H94.1281Z" fill="#1882FF"/>
<path d="M104.833 50.0006C104.681 50.0006 104.529 49.9853 104.377 49.9548C104.232 49.9319 104.099 49.8938 103.977 49.8404V48.7308C104.068 48.7537 104.179 48.7727 104.308 48.788C104.437 48.8109 104.563 48.8223 104.685 48.8223C105.043 48.8223 105.306 48.7422 105.473 48.5821C105.648 48.4296 105.804 48.1931 105.942 47.8728L106.353 46.9348L106.33 48.0216L103.657 41.2951H105.039L107.015 46.4543H106.547L108.512 41.2951H109.905L107.175 48.1588C107.03 48.5249 106.848 48.8452 106.627 49.1197C106.414 49.4019 106.159 49.6193 105.862 49.7718C105.572 49.9243 105.229 50.0006 104.833 50.0006Z" fill="#1882FF"/>
<path d="M112.454 47.4839V38.9615H117.994V40.1626H113.802V42.7251H117.537V43.9262H113.802V47.4839H112.454Z" fill="#1882FF"/>
<path d="M121.585 47.6212C120.991 47.6212 120.446 47.4801 119.951 47.1979C119.464 46.9157 119.076 46.5306 118.786 46.0425C118.497 45.5544 118.352 45.0015 118.352 44.3838C118.352 43.7584 118.497 43.2055 118.786 42.7251C119.076 42.237 119.464 41.8557 119.951 41.5811C120.439 41.299 120.983 41.1579 121.585 41.1579C122.194 41.1579 122.739 41.299 123.218 41.5811C123.706 41.8557 124.09 42.237 124.372 42.7251C124.662 43.2055 124.806 43.7584 124.806 44.3838C124.806 45.0092 124.662 45.5659 124.372 46.054C124.083 46.542 123.694 46.9272 123.207 47.2093C122.72 47.4839 122.179 47.6212 121.585 47.6212ZM121.585 46.42C121.95 46.42 122.274 46.3323 122.556 46.1569C122.838 45.9815 123.059 45.7413 123.218 45.4362C123.386 45.1236 123.47 44.7727 123.47 44.3838C123.47 43.9949 123.386 43.6479 123.218 43.3428C123.059 43.0378 122.838 42.7975 122.556 42.6221C122.274 42.4467 121.95 42.359 121.585 42.359C121.227 42.359 120.903 42.4467 120.614 42.6221C120.332 42.7975 120.108 43.0378 119.94 43.3428C119.78 43.6479 119.7 43.9949 119.7 44.3838C119.7 44.7727 119.78 45.1236 119.94 45.4362C120.108 45.7413 120.332 45.9815 120.614 46.1569C120.903 46.3323 121.227 46.42 121.585 46.42Z" fill="#1882FF"/>
<path d="M125.838 47.4839V41.2951H127.072V42.542L126.957 42.359C127.094 41.9548 127.315 41.665 127.62 41.4896C127.925 41.3066 128.29 41.2151 128.717 41.2151H129.093V42.3933H128.557C128.13 42.3933 127.784 42.5268 127.517 42.7937C127.258 43.053 127.129 43.4267 127.129 43.9148V47.4839H125.838Z" fill="#1882FF"/>
<path d="M131.642 47.4839V38.9615H132.99V43.583L132.636 43.4458L136.485 38.9615H138.165L134.761 42.9539L134.829 41.993L138.302 47.4839H136.714L134.224 43.583L132.99 45.0244V47.4839H131.642Z" fill="#1882FF"/>
<path d="M138.952 47.4839V41.2951H140.242V47.4839H138.952ZM138.952 40.4486V38.9615H140.242V40.4486H138.952Z" fill="#1882FF"/>
<path d="M144.379 47.6212C143.785 47.6212 143.252 47.4801 142.78 47.1979C142.315 46.9081 141.946 46.5192 141.672 46.0311C141.405 45.543 141.272 44.9939 141.272 44.3838C141.272 43.7737 141.409 43.2246 141.683 42.7365C141.957 42.2484 142.326 41.8633 142.791 41.5811C143.256 41.299 143.781 41.1579 144.367 41.1579C144.862 41.1579 145.3 41.257 145.681 41.4553C146.062 41.6536 146.363 41.9281 146.583 42.2789L146.389 42.5764V38.8242H147.669V47.4839H146.446V46.2256L146.595 46.4658C146.382 46.8395 146.077 47.1255 145.681 47.3237C145.285 47.522 144.851 47.6212 144.379 47.6212ZM144.504 46.42C144.862 46.42 145.182 46.3323 145.464 46.1569C145.753 45.9815 145.978 45.7413 146.138 45.4362C146.305 45.1236 146.389 44.7727 146.389 44.3838C146.389 43.9949 146.305 43.6479 146.138 43.3428C145.978 43.0378 145.753 42.7975 145.464 42.6221C145.182 42.4467 144.862 42.359 144.504 42.359C144.147 42.359 143.823 42.4467 143.534 42.6221C143.244 42.7975 143.019 43.0378 142.86 43.3428C142.7 43.6479 142.62 43.9949 142.62 44.3838C142.62 44.7727 142.7 45.1236 142.86 45.4362C143.019 45.7413 143.24 45.9815 143.522 46.1569C143.811 46.3323 144.139 46.42 144.504 46.42Z" fill="#1882FF"/>
<path d="M151.232 47.6212C150.6 47.6212 150.044 47.4648 149.564 47.1522C149.092 46.8395 148.761 46.42 148.57 45.8938L149.564 45.4248C149.731 45.7756 149.96 46.054 150.249 46.2599C150.546 46.4658 150.874 46.5687 151.232 46.5687C151.536 46.5687 151.784 46.5001 151.974 46.3628C152.165 46.2256 152.26 46.0387 152.26 45.8023C152.26 45.6498 152.218 45.5277 152.134 45.4362C152.05 45.3371 151.944 45.257 151.814 45.196C151.692 45.135 151.567 45.0892 151.437 45.0587L150.466 44.7842C149.933 44.6317 149.533 44.4029 149.267 44.0978C149.008 43.7851 148.879 43.4229 148.879 43.0111C148.879 42.6374 148.974 42.3133 149.164 42.0387C149.355 41.7565 149.617 41.5392 149.952 41.3867C150.287 41.2341 150.664 41.1579 151.083 41.1579C151.647 41.1579 152.149 41.299 152.591 41.5811C153.033 41.8557 153.345 42.2408 153.528 42.7365L152.534 43.2055C152.412 42.9081 152.218 42.6717 151.951 42.4963C151.692 42.3209 151.399 42.2332 151.072 42.2332C150.79 42.2332 150.565 42.3018 150.398 42.4391C150.23 42.5687 150.147 42.7403 150.147 42.9539C150.147 43.0988 150.185 43.2208 150.261 43.3199C150.337 43.4114 150.436 43.4877 150.558 43.5487C150.68 43.6021 150.805 43.6479 150.935 43.686L151.94 43.9834C152.45 44.1283 152.842 44.3571 153.116 44.6698C153.391 44.9748 153.528 45.3409 153.528 45.768C153.528 46.134 153.429 46.4582 153.231 46.7403C153.04 47.0149 152.774 47.2322 152.431 47.3924C152.088 47.5449 151.689 47.6212 151.232 47.6212Z" fill="#1882FF"/>
<path d="M49.9909 25.3605C49.9925 25.2499 49.9995 25.1404 49.9995 25.0292C49.9995 11.2059 38.8069 0 24.9995 0C11.1921 0 0 11.2059 0 25.0292C0 28.6307 0.776569 32.2193 2.28282 35.4906C3.74327 38.6626 5.87358 41.5152 8.49322 43.8218C11.1279 46.1418 14.2472 47.8981 17.5992 48.9362C21.8452 50.2516 26.2002 49.9753 30.5729 49.9753C33.5789 49.9753 36.5855 49.9753 39.5915 49.9753C42.3605 49.9753 45.1299 49.9753 47.8988 49.9753C49.0543 49.9753 49.9914 49.0376 49.9914 47.8803V25.3605H49.9909Z" fill="#1882FF"/>
<path d="M34.6896 41.3549H14.5285C13.3105 41.3549 12.3238 40.3665 12.3238 39.1476V11.4401C12.3238 10.2212 13.3111 9.23279 14.5285 9.23279H26.488C32.2354 9.23279 36.8943 13.8972 36.8943 19.6515V39.1476C36.8943 40.3665 35.907 41.3549 34.6896 41.3549Z" fill="white"/>
<path d="M28.3008 38.5212C27.4817 39.3413 26.8382 40.2936 26.3839 41.3549H34.6896C35.907 41.3549 36.8943 40.3665 36.8943 39.1476V29.9181L28.3008 38.5212Z" fill="white"/>
<path d="M26.488 9.23225C29.2407 9.23225 29.3205 10.804 29.3205 11.991V14.6078C29.3205 15.8272 30.3077 16.8151 31.5251 16.8151H34.1389C35.3245 16.8151 36.8943 16.8949 36.8943 19.651C36.8943 13.8972 32.2354 9.23225 26.488 9.23225Z" fill="white"/>
<path d="M31.7601 45.8267L29.079 46.8789C27.9899 47.3062 26.9142 46.2298 27.341 45.1388L28.3919 42.4545C28.7325 41.5842 29.2493 40.7933 29.9095 40.1323L38.1262 31.9058L42.2963 36.0808L34.0796 44.3074C33.4194 44.9683 32.6299 45.4857 31.7601 45.8267Z" fill="white"/>
<path d="M30.7222 39.3192L34.8922 43.4942L36.5348 41.8497C35.0135 40.5623 34.2111 38.3167 34.7688 35.2683L30.7222 39.3192Z" fill="white"/>
<path d="M30.7222 39.3192L29.9095 40.1323C29.2493 40.7933 28.7325 41.5842 28.3919 42.4545L27.341 45.1388C26.9142 46.2292 27.9894 47.3062 29.079 46.8789L31.7601 45.8267C32.6294 45.4857 33.42 44.9683 34.0801 44.3074L34.8922 43.4942L30.7222 39.3192Z" fill="white"/>
<path d="M40.2005 29.8231L44.3695 33.9971L42.2952 36.0738L38.1262 31.8999L40.2005 29.8231Z" fill="white"/>
<path d="M44.3711 34.0036L40.2011 29.8285L41.9347 28.0928C42.5194 27.5074 43.4674 27.5074 44.0526 28.0928L46.1048 30.1474C46.6895 30.7328 46.6895 31.6819 46.1048 32.2673L44.3711 34.0036Z" fill="white"/>
<path d="M29.9305 44.2863C29.3905 43.7457 28.7638 43.3621 28.1225 43.1435L27.341 45.1388C26.9142 46.2292 27.9894 47.3062 29.079 46.8789L31.0725 46.097C30.8537 45.455 30.4705 44.8275 29.9305 44.2863Z" fill="#00112B"/>
<path d="M18.5676 37.2193C19.7986 37.2193 20.7965 36.4236 20.7965 35.442C20.7965 34.4604 19.7986 33.6647 18.5676 33.6647C17.3366 33.6647 16.3387 34.4604 16.3387 35.442C16.3387 36.4236 17.3366 37.2193 18.5676 37.2193Z" fill="white"/>
<path d="M30.65 33.6647C31.8808 33.6647 32.8789 34.4606 32.8789 35.442C32.8789 36.4234 31.8808 37.2193 30.65 37.2193C29.4191 37.2193 28.421 36.4234 28.421 35.442C28.421 34.46 29.4191 33.6647 30.65 33.6647Z" fill="white"/>
<path d="M26.406 34.0764C26.406 32.9644 25.6014 32.8597 24.6088 32.8597C23.6161 32.8597 22.8115 32.9644 22.8115 34.0764C22.8115 35.1884 23.6161 36.09 24.6088 36.09C25.6014 36.0895 26.406 35.1884 26.406 34.0764Z" fill="#00112B"/>
<path d="M29.7085 32.4086V33.3199C29.7085 33.6345 29.9634 33.8897 30.2776 33.8897C30.5917 33.8897 30.8467 33.6345 30.8467 33.3199V32.4086C30.8467 32.0941 30.5917 31.8389 30.2776 31.8389C29.9628 31.8394 29.7085 32.0941 29.7085 32.4086ZM29.4767 19.4832C29.1626 19.4832 28.9077 19.7384 28.9077 20.0529V21.3031H27.6154C27.3012 21.3031 27.0463 21.5583 27.0463 21.8728C27.0463 22.1874 27.3012 22.4426 27.6154 22.4426H28.9077V23.7365C28.9077 24.051 29.1626 24.3062 29.4767 24.3062C29.7909 24.3062 30.0458 24.051 30.0458 23.7365V22.4426H31.2945C31.6087 22.4426 31.8636 22.1874 31.8636 21.8728C31.8636 21.5583 31.6087 21.3031 31.2945 21.3031H30.0458V20.0529C30.0453 19.7378 29.7909 19.4832 29.4767 19.4832ZM18.3714 32.4086V33.3199C18.3714 33.6345 18.6263 33.8897 18.9405 33.8897C19.2547 33.8897 19.5096 33.6345 19.5096 33.3199V32.4086C19.5096 32.0941 19.2547 31.8389 18.9405 31.8389C18.6263 31.8389 18.3714 32.0941 18.3714 32.4086ZM46.5068 29.7449L44.4547 27.6903C43.649 26.8837 42.3384 26.8837 41.5327 27.6903L37.4634 31.7644V19.6515C37.4634 13.5924 32.5399 8.66303 26.488 8.66303H16.8129C16.4987 8.66303 16.2438 8.91823 16.2438 9.23279C16.2438 9.54735 16.4987 9.80256 16.8129 9.80256H26.488C28.7514 9.80256 28.7514 10.9156 28.7514 11.9915V14.6083C28.7514 16.1396 29.9957 17.3854 31.5251 17.3854H34.1389C35.214 17.3854 36.3252 17.3854 36.3252 19.6515V32.904C28.9206 40.3174 29.1442 40.039 28.635 40.7857H14.5285C13.6263 40.7857 12.8923 40.0508 12.8923 39.1476V11.4401C12.8923 10.6496 13.455 9.97197 14.2299 9.82899C14.5387 9.77234 14.7435 9.47504 14.6864 9.16588C14.6292 8.85672 14.3328 8.65169 14.024 8.70888C12.7091 8.95114 11.7547 10.0998 11.7547 11.4401V39.1476C11.7547 40.6789 12.999 41.9247 14.5285 41.9247H27.9985C27.8546 42.2473 27.8724 42.2312 26.8124 44.9311C26.5311 45.6498 26.6949 46.4348 27.2403 46.9808C27.777 47.5182 28.559 47.6947 29.2876 47.4092L31.9687 46.3571C33.8904 45.6034 34.7403 44.384 35.2948 43.8973L36.2579 42.9331C36.4799 42.7108 36.4799 42.3499 36.2579 42.1276C36.0358 41.9053 35.6753 41.9053 35.4533 42.1276L34.8928 42.6887L31.5273 39.3192C32.5205 38.3248 37.3782 33.4613 38.1273 32.7113L41.4928 36.0808L37.3788 40.1998C37.1567 40.4221 37.1567 40.783 37.3788 41.0053C37.6008 41.2276 37.9613 41.2276 38.1834 41.0053L46.5074 32.6714C47.3125 31.8637 47.3125 30.5515 46.5068 29.7449ZM34.1394 16.2459H31.5257C30.6235 16.2459 29.8895 15.511 29.8895 14.6078C29.889 11.6171 29.9461 11.0764 29.654 10.3254C32.5361 11.309 34.8206 13.5961 35.803 16.4817C35.2005 16.2469 34.5587 16.2459 34.1394 16.2459ZM28.8715 46.3485C28.5773 46.4639 28.2674 46.3992 28.0438 46.1753C27.8201 45.9514 27.7555 45.6417 27.8708 45.3465L28.4388 43.8957C29.2272 44.296 29.9063 44.9618 30.3207 45.7798L28.8715 46.3485ZM34.0871 43.4937L33.677 43.9043C32.6116 44.971 31.4831 45.3125 31.3845 45.3622C30.8612 44.2717 29.9461 43.3551 28.8554 42.8301C28.898 42.7556 29.2288 41.6188 30.3115 40.5348L30.7216 40.1242L34.0871 43.4937ZM42.2963 35.2747L38.9308 31.9052L40.2011 30.6335L43.5665 34.003L42.2963 35.2747ZM45.7022 31.8653L44.3711 33.198L41.0056 29.8285L42.3368 28.4958C42.6989 28.1332 43.2879 28.1332 43.6501 28.4958L45.7022 30.5504C46.0644 30.913 46.0644 31.5027 45.7022 31.8653ZM22.8201 17.1021C22.5415 16.425 21.579 16.4423 21.3236 17.1167L17.3922 27.4513C17.2807 27.7453 17.4278 28.0744 17.7215 28.1861C18.0152 28.2978 18.3439 28.1505 18.4555 27.8565L19.2951 25.6497H24.8265L25.658 27.8548C25.7696 28.1511 26.0989 28.2973 26.3909 28.1867C26.6852 28.0755 26.8334 27.7469 26.7224 27.4529C22.6719 16.7093 22.8266 17.1183 22.8201 17.1021ZM19.7279 24.5107L22.0727 18.3463L24.3964 24.5107H19.7279ZM26.1371 32.543C25.7238 32.3331 25.2274 32.2899 24.6093 32.2899C23.9912 32.2899 23.4943 32.3331 23.081 32.543C22.6989 32.7372 22.243 33.1608 22.243 34.0759C22.243 35.5003 23.3046 36.6587 24.6093 36.6587C25.914 36.6587 26.9751 35.5003 26.9751 34.0759C26.9746 33.1608 26.5192 32.7372 26.1371 32.543ZM24.6088 35.5202C23.9314 35.5202 23.3806 34.8728 23.3806 34.0764C23.3806 33.628 23.4302 33.4295 24.6088 33.4295C25.7874 33.4295 25.8369 33.6275 25.8369 34.0764C25.8369 34.8722 25.2862 35.5202 24.6088 35.5202Z" fill="#00112B"/>
</svg>
