<svg width="216" height="50" viewBox="0 0 216 50" fill="none" xmlns="http://www.w3.org/2000/svg">
<path d="M1.43901 46.4278H16.7007C17.3185 48.4926 19.2056 49.9995 21.4326 49.9995H27.6635C29.8905 49.9995 31.7776 48.4926 32.3954 46.4278H47.6571C48.4514 46.4278 49.0956 45.7717 49.0956 44.9627C49.0956 44.1538 48.4514 43.4977 47.6571 43.4977H46.7869V38.3887C46.7869 37.4432 45.9187 36.7453 45.0163 36.9635C42.7159 37.5199 41.1894 37.7969 39.228 37.7705C35.874 37.7256 34.4409 37.0427 30.4535 36.7298C27.892 36.5291 25.8142 37.7341 24.4906 39.4468C23.1665 37.7341 21.0887 36.5291 18.5281 36.7298C14.5505 37.0422 13.1017 37.7256 9.75368 37.7705C7.79228 37.7964 6.26571 37.5194 3.96535 36.9635C3.06242 36.7453 2.19471 37.4437 2.19471 38.3887V43.4977H1.43852C0.644181 43.4977 0 44.1538 0 44.9627C0.000978254 45.7717 0.64467 46.4278 1.43901 46.4278ZM5.07225 40.2174C6.53816 40.5203 8.02755 40.7245 9.79281 40.7006C13.4231 40.6518 14.9321 39.9514 18.7502 39.6515C20.1359 39.5429 22.4392 40.3529 23.0961 43.0304L23.0966 43.0324C23.4541 44.4751 25.5148 44.5333 25.8861 43.0319C25.8861 43.0319 25.8865 43.0309 25.8865 43.0299C26.5434 40.3524 28.8458 39.5424 30.2324 39.651C34.0511 39.9509 35.559 40.6513 39.1898 40.7001C40.9546 40.7245 42.444 40.5198 43.9104 40.2169V43.4972H31.1784C31.176 43.4972 31.1735 43.4967 31.1711 43.4967C30.3767 43.4967 29.7325 44.1528 29.7325 44.9617C29.7325 46.1239 28.8042 47.0694 27.6635 47.0694H21.433C20.2919 47.0694 19.3636 46.1239 19.3636 44.9617C19.3636 44.1528 18.7194 43.4967 17.925 43.4967C17.9226 43.4967 17.9201 43.4972 17.9177 43.4972H5.07225V40.2174Z" fill="#1882FF"/>
<path d="M23.0552 33.8539H26.0173C28.3045 33.8539 30.1783 32.0217 30.194 29.7701L30.2165 26.697C30.6293 24.0608 31.6628 21.6094 33.2892 19.4101C34.7262 17.4683 35.4858 15.1524 35.4858 12.713C35.4858 6.4438 30.4478 1.48623 24.3929 1.5744C18.498 1.65759 13.6972 6.54044 13.6111 12.5461C13.5744 15.0603 14.3419 17.4449 15.8298 19.4425C17.4415 21.6054 18.4662 24.0399 18.8785 26.6786V29.7407C18.8785 32.0088 20.7519 33.8539 23.0552 33.8539ZM27.3169 29.7492C27.3125 30.3973 26.7295 30.9243 26.0173 30.9243H23.0552C22.3386 30.9243 21.7556 30.3933 21.7556 29.7407V27.9947H27.3301L27.3169 29.7492ZM16.4872 12.589C16.5503 8.19181 20.1145 4.56478 24.4326 4.50401C28.9223 4.43626 32.6088 8.12107 32.6088 12.713C32.6088 14.5108 32.0497 16.217 30.9913 17.6472C29.3209 19.9058 28.1812 22.396 27.5948 25.0646H25.9865V16.5712C25.9865 15.7622 25.3423 15.1061 24.548 15.1061C23.7537 15.1061 23.1095 15.7622 23.1095 16.5712V25.0646H21.5046C20.9206 22.387 19.7854 19.9053 18.1214 17.6716C17.0257 16.2005 16.4608 14.4431 16.4872 12.589Z" fill="#1882FF"/>
<path d="M10.8262 11.2668C10.8262 10.4578 10.1821 9.80176 9.38773 9.80176H4.59233C3.79799 9.80176 3.15381 10.4578 3.15381 11.2668C3.15381 12.0758 3.79799 12.7319 4.59233 12.7319H9.38773C10.1826 12.7319 10.8262 12.0758 10.8262 11.2668Z" fill="#1882FF"/>
<path d="M38.3513 19.8516L42.4829 22.3309C43.1677 22.7418 44.0496 22.5087 44.4521 21.8123C44.8552 21.1154 44.6273 20.2172 43.943 19.8068L39.8113 17.328C39.127 16.9175 38.2451 17.1491 37.8421 17.8465C37.4386 18.543 37.6665 19.4411 38.3513 19.8516Z" fill="#1882FF"/>
<path d="M6.61324 22.3304L10.7449 19.8511C11.4292 19.4406 11.6571 18.5425 11.2541 17.8456C10.8505 17.1482 9.96913 16.9165 9.28485 17.327L5.15319 19.8058C4.4689 20.2163 4.24097 21.1144 4.64401 21.8113C5.04705 22.5092 5.92895 22.7414 6.61324 22.3304Z" fill="#1882FF"/>
<path d="M39.8115 5.20588L43.9431 2.72709C44.6274 2.31662 44.8553 1.41845 44.4523 0.721545C44.0493 0.0241378 43.1674 -0.207501 42.4831 0.202973L38.3514 2.68176C37.6671 3.09223 37.4392 3.99039 37.8423 4.6873C38.2453 5.38471 39.1272 5.61635 39.8115 5.20588Z" fill="#1882FF"/>
<path d="M10.7449 2.68176L6.61324 0.202973C5.92895 -0.207501 5.04705 0.0241378 4.64401 0.721545C4.24097 1.41845 4.4689 2.31662 5.15319 2.72709L9.28485 5.20588C9.96962 5.61685 10.851 5.38421 11.2541 4.6873C11.6571 3.99039 11.4292 3.09223 10.7449 2.68176Z" fill="#1882FF"/>
<path d="M45.942 11.2668C45.942 10.4578 45.2978 9.80176 44.5035 9.80176H39.7081C38.9137 9.80176 38.2695 10.4578 38.2695 11.2668C38.2695 12.0758 38.9137 12.7319 39.7081 12.7319H44.5035C45.2978 12.7319 45.942 12.0758 45.942 11.2668Z" fill="#1882FF"/>
<path d="M58.3423 25.7231V3.2689H62.3671V14.9632L61.2721 14.5714L70.6534 3.2689H75.714L66.9246 13.8781L67.1613 10.9847L75.9803 25.7231H71.2453L65.3265 15.8372L62.3671 19.4239V25.7231H58.3423Z" fill="#1882FF"/>
<path d="M77.5107 25.7231V9.32702H81.1507V12.552L80.8548 11.9793C81.2296 10.9948 81.8412 10.2513 82.6896 9.74897C83.5577 9.22655 84.5639 8.96534 85.7082 8.96534C86.892 8.96534 87.9376 9.22655 88.8452 9.74897C89.7724 10.2714 90.4926 11.0048 91.0055 11.9492C91.5185 12.8735 91.775 13.9485 91.775 15.1741V25.7231H87.8982V16.1085C87.8982 15.3851 87.7601 14.7622 87.4838 14.2398C87.2076 13.7174 86.8229 13.3155 86.3297 13.0342C85.8562 12.7328 85.2939 12.5821 84.6428 12.5821C84.0115 12.5821 83.4492 12.7328 82.956 13.0342C82.4627 13.3155 82.078 13.7174 81.8018 14.2398C81.5256 14.7622 81.3875 15.3851 81.3875 16.1085V25.7231H77.5107Z" fill="#1882FF"/>
<path d="M102.333 26.0848C100.755 26.0848 99.3147 25.7131 98.0126 24.9696C96.7302 24.2262 95.7043 23.2114 94.9348 21.9255C94.1851 20.6395 93.8103 19.1727 93.8103 17.5251C93.8103 15.8774 94.1851 14.4106 94.9348 13.1246C95.7043 11.8387 96.7302 10.824 98.0126 10.0805C99.295 9.33706 100.735 8.96534 102.333 8.96534C103.912 8.96534 105.342 9.33706 106.624 10.0805C107.907 10.824 108.923 11.8387 109.673 13.1246C110.442 14.3905 110.827 15.8573 110.827 17.5251C110.827 19.1727 110.442 20.6395 109.673 21.9255C108.903 23.2114 107.877 24.2262 106.595 24.9696C105.312 25.7131 103.892 26.0848 102.333 26.0848ZM102.333 22.468C103.201 22.468 103.961 22.257 104.612 21.8351C105.283 21.4131 105.806 20.8304 106.181 20.0869C106.575 19.3234 106.772 18.4694 106.772 17.5251C106.772 16.5606 106.575 15.7167 106.181 14.9933C105.806 14.2499 105.283 13.6672 104.612 13.2452C103.961 12.8031 103.201 12.5821 102.333 12.5821C101.446 12.5821 100.666 12.8031 99.9954 13.2452C99.3246 13.6672 98.7919 14.2499 98.3973 14.9933C98.0225 15.7167 97.835 16.5606 97.835 17.5251C97.835 18.4694 98.0225 19.3234 98.3973 20.0869C98.7919 20.8304 99.3246 21.4131 99.9954 21.8351C100.666 22.257 101.446 22.468 102.333 22.468Z" fill="#1882FF"/>
<path d="M116.94 25.7231L111.406 9.32702H115.49L119.545 21.7748L118.124 21.7446L122.445 9.32702H125.878L130.169 21.7446L128.748 21.7748L132.803 9.32702H136.887L131.353 25.7231H127.89L123.51 12.7328H124.812L120.373 25.7231H116.94Z" fill="#1882FF"/>
<path d="M138.42 25.7231V2.90723H142.297V25.7231H138.42Z" fill="#1882FF"/>
<path d="M152.92 26.0848C151.262 26.0848 149.812 25.703 148.569 24.9395C147.326 24.1759 146.36 23.1411 145.669 21.8351C144.979 20.529 144.633 19.0823 144.633 17.4949C144.633 15.8473 144.979 14.3905 145.669 13.1246C146.379 11.8387 147.336 10.824 148.54 10.0805C149.763 9.33706 151.124 8.96534 152.624 8.96534C153.886 8.96534 154.991 9.17632 155.938 9.59828C156.905 10.0202 157.724 10.6029 158.395 11.3464C159.065 12.0898 159.578 12.9438 159.933 13.9083C160.289 14.8527 160.466 15.8774 160.466 16.9825C160.466 17.2638 160.446 17.5552 160.407 17.8566C160.387 18.158 160.338 18.4192 160.259 18.6402H147.83V15.6262H158.069L156.234 17.0428C156.412 16.1185 156.362 15.2947 156.086 14.5714C155.83 13.848 155.396 13.2753 154.784 12.8534C154.192 12.4314 153.472 12.2204 152.624 12.2204C151.815 12.2204 151.095 12.4314 150.463 12.8534C149.832 13.2552 149.349 13.858 149.013 14.6618C148.698 15.4454 148.579 16.3998 148.658 17.5251C148.579 18.5297 148.707 19.4239 149.043 20.2075C149.398 20.9711 149.911 21.5638 150.582 21.9858C151.272 22.4077 152.061 22.6187 152.949 22.6187C153.837 22.6187 154.587 22.4278 155.198 22.046C155.83 21.6643 156.323 21.1519 156.678 20.5089L159.815 22.0762C159.499 22.8598 159.006 23.553 158.335 24.1558C157.665 24.7586 156.866 25.2308 155.938 25.5724C155.031 25.914 154.025 26.0848 152.92 26.0848Z" fill="#1882FF"/>
<path d="M170.3 26.0848C168.742 26.0848 167.351 25.7131 166.128 24.9696C164.904 24.2061 163.938 23.1713 163.227 21.8652C162.517 20.5591 162.162 19.1124 162.162 17.5251C162.162 15.9176 162.517 14.4709 163.227 13.1849C163.938 11.899 164.904 10.8742 166.128 10.1107C167.371 9.34711 168.752 8.96534 170.271 8.96534C171.494 8.96534 172.579 9.2165 173.526 9.71884C174.493 10.2011 175.252 10.8842 175.805 11.7683L175.213 12.5821V2.90723H179.09V25.7231H175.42V22.5584L175.834 23.3421C175.282 24.2262 174.513 24.9093 173.526 25.3916C172.54 25.8537 171.464 26.0848 170.3 26.0848ZM170.715 22.468C171.603 22.468 172.382 22.257 173.053 21.8351C173.723 21.4131 174.246 20.8304 174.621 20.0869C175.016 19.3435 175.213 18.4895 175.213 17.5251C175.213 16.5807 175.016 15.7368 174.621 14.9933C174.246 14.2298 173.723 13.637 173.053 13.2151C172.382 12.7931 171.603 12.5821 170.715 12.5821C169.847 12.5821 169.067 12.8031 168.377 13.2452C167.686 13.6672 167.144 14.2499 166.749 14.9933C166.374 15.7167 166.187 16.5606 166.187 17.5251C166.187 18.4895 166.374 19.3435 166.749 20.0869C167.144 20.8304 167.686 21.4131 168.377 21.8351C169.067 22.257 169.847 22.468 170.715 22.468Z" fill="#1882FF"/>
<path d="M189.918 32.3539C188.714 32.3539 187.599 32.1529 186.573 31.7511C185.547 31.3492 184.66 30.7866 183.91 30.0632C183.18 29.36 182.647 28.5261 182.312 27.5616L185.922 26.1752C186.159 26.9387 186.623 27.5516 187.313 28.0137C188.024 28.496 188.892 28.7371 189.918 28.7371C190.707 28.7371 191.397 28.5864 191.989 28.285C192.601 27.9836 193.074 27.5415 193.41 26.9588C193.745 26.3962 193.913 25.7131 193.913 24.9093V21.172L194.653 22.0762C194.1 23.0607 193.36 23.8042 192.433 24.3065C191.506 24.8089 190.45 25.06 189.266 25.06C187.767 25.06 186.425 24.7084 185.242 24.0051C184.058 23.3019 183.131 22.3374 182.46 21.1117C181.789 19.886 181.454 18.5096 181.454 16.9825C181.454 15.4354 181.789 14.059 182.46 12.8534C183.131 11.6478 184.048 10.7034 185.212 10.0202C186.376 9.31697 187.698 8.96534 189.178 8.96534C190.381 8.96534 191.437 9.22655 192.344 9.74897C193.272 10.2513 194.041 10.9847 194.653 11.9492L194.12 12.9438V9.32702H197.79V24.9093C197.79 26.3359 197.444 27.6119 196.754 28.7371C196.083 29.8623 195.156 30.7464 193.972 31.3894C192.808 32.0324 191.456 32.3539 189.918 32.3539ZM189.74 21.4131C190.569 21.4131 191.289 21.2323 191.9 20.8706C192.532 20.4888 193.025 19.9664 193.38 19.3033C193.735 18.6402 193.913 17.8767 193.913 17.0127C193.913 16.1688 193.725 15.4153 193.35 14.7522C192.995 14.069 192.502 13.5366 191.871 13.1548C191.259 12.773 190.549 12.5821 189.74 12.5821C188.931 12.5821 188.201 12.773 187.55 13.1548C186.899 13.5366 186.386 14.069 186.011 14.7522C185.656 15.4153 185.478 16.1688 185.478 17.0127C185.478 17.8566 185.656 18.6101 186.011 19.2732C186.386 19.9362 186.889 20.4587 187.52 20.8404C188.171 21.2222 188.911 21.4131 189.74 21.4131Z" fill="#1882FF"/>
<path d="M208.454 26.0848C206.796 26.0848 205.346 25.703 204.103 24.9395C202.86 24.1759 201.894 23.1411 201.203 21.8351C200.512 20.529 200.167 19.0823 200.167 17.4949C200.167 15.8473 200.512 14.3905 201.203 13.1246C201.913 11.8387 202.87 10.824 204.074 10.0805C205.297 9.33706 206.658 8.96534 208.158 8.96534C209.42 8.96534 210.525 9.17632 211.472 9.59828C212.439 10.0202 213.258 10.6029 213.928 11.3464C214.599 12.0898 215.112 12.9438 215.467 13.9083C215.822 14.8527 216 15.8774 216 16.9825C216 17.2638 215.98 17.5552 215.941 17.8566C215.921 18.158 215.872 18.4192 215.793 18.6402H203.363V15.6262H213.603L211.768 17.0428C211.946 16.1185 211.896 15.2947 211.62 14.5714C211.364 13.848 210.93 13.2753 210.318 12.8534C209.726 12.4314 209.006 12.2204 208.158 12.2204C207.349 12.2204 206.629 12.4314 205.997 12.8534C205.366 13.2552 204.883 13.858 204.547 14.6618C204.231 15.4454 204.113 16.3998 204.192 17.5251C204.113 18.5297 204.241 19.4239 204.577 20.2075C204.932 20.9711 205.445 21.5638 206.116 21.9858C206.806 22.4077 207.595 22.6187 208.483 22.6187C209.371 22.6187 210.121 22.4278 210.732 22.046C211.364 21.6643 211.857 21.1519 212.212 20.5089L215.349 22.0762C215.033 22.8598 214.54 23.553 213.869 24.1558C213.198 24.7586 212.399 25.2308 211.472 25.5724C210.565 25.914 209.558 26.0848 208.454 26.0848Z" fill="#1882FF"/>
<path d="M59.6873 44.754C59.5474 44.754 59.4297 44.7054 59.3343 44.6082C59.2452 44.5111 59.2007 44.3912 59.2007 44.2487V37.6699C59.2007 37.5273 59.2484 37.4075 59.3438 37.3103C59.4392 37.2131 59.5537 37.1646 59.6873 37.1646C59.8272 37.1646 59.9449 37.2131 60.0403 37.3103C60.1358 37.4075 60.1835 37.5273 60.1835 37.6699V43.7434H63.6375C63.7775 43.7434 63.8952 43.792 63.9906 43.8891C64.086 43.9863 64.1337 44.1062 64.1337 44.2487C64.1337 44.3912 64.086 44.5111 63.9906 44.6082C63.8952 44.7054 63.7775 44.754 63.6375 44.754H59.6873Z" fill="#1882FF"/>
<path d="M67.4027 44.7929C66.9383 44.7929 66.5217 44.6763 66.1527 44.443C65.7838 44.2033 65.4912 43.8827 65.2749 43.481C65.065 43.0729 64.96 42.6129 64.96 42.1011C64.96 41.5893 65.0745 41.1293 65.3035 40.7212C65.5389 40.3131 65.8537 39.9924 66.2481 39.7592C66.6489 39.5195 67.0973 39.3996 67.5935 39.3996C68.0897 39.3996 68.5349 39.5195 68.9293 39.7592C69.3237 39.9924 69.6354 40.3131 69.8644 40.7212C70.0998 41.1293 70.2174 41.5893 70.2174 42.1011H69.8453C69.8453 42.6129 69.7372 43.0729 69.5209 43.481C69.311 43.8827 69.0216 44.2033 68.6526 44.443C68.2837 44.6763 67.867 44.7929 67.4027 44.7929ZM67.5935 43.9183C67.9179 43.9183 68.2073 43.8405 68.4618 43.6851C68.7162 43.5231 68.9166 43.3061 69.0629 43.034C69.2092 42.7554 69.2824 42.4445 69.2824 42.1011C69.2824 41.7513 69.2092 41.4403 69.0629 41.1682C68.9166 40.8896 68.7162 40.6726 68.4618 40.5171C68.2073 40.3552 67.9179 40.2742 67.5935 40.2742C67.2754 40.2742 66.986 40.3552 66.7252 40.5171C66.4708 40.6726 66.2672 40.8896 66.1145 41.1682C65.9682 41.4403 65.8951 41.7513 65.8951 42.1011C65.8951 42.4445 65.9682 42.7554 66.1145 43.034C66.2672 43.3061 66.4708 43.5231 66.7252 43.6851C66.986 43.8405 67.2754 43.9183 67.5935 43.9183ZM69.7308 44.7637C69.5909 44.7637 69.4732 44.7184 69.3778 44.6277C69.2887 44.5305 69.2442 44.4106 69.2442 44.2681V42.7813L69.4255 41.7513L70.2174 42.1011V44.2681C70.2174 44.4106 70.1697 44.5305 70.0743 44.6277C69.9853 44.7184 69.8708 44.7637 69.7308 44.7637Z" fill="#1882FF"/>
<path d="M76.0741 44.7637C75.9342 44.7637 75.8165 44.7184 75.7211 44.6277C75.632 44.5305 75.5875 44.4106 75.5875 44.2681V41.8776C75.5875 41.5083 75.5207 41.2071 75.3871 40.9739C75.2535 40.7406 75.0723 40.569 74.8433 40.4588C74.6206 40.3422 74.363 40.2839 74.0704 40.2839C73.8032 40.2839 73.5615 40.339 73.3452 40.4491C73.1289 40.5592 72.9572 40.7082 72.83 40.8961C72.7028 41.0775 72.6391 41.2881 72.6391 41.5278H72.038C72.038 41.1196 72.1334 40.7568 72.3243 40.4394C72.5215 40.1155 72.7886 39.8596 73.1258 39.6717C73.4629 39.4838 73.8414 39.3899 74.2612 39.3899C74.7001 39.3899 75.0913 39.4871 75.4348 39.6814C75.7847 39.8693 76.0582 40.1479 76.2554 40.5171C76.459 40.8864 76.5607 41.3399 76.5607 41.8776V44.2681C76.5607 44.4106 76.513 44.5305 76.4176 44.6277C76.3286 44.7184 76.2141 44.7637 76.0741 44.7637ZM72.1525 44.7637C72.0126 44.7637 71.8949 44.7184 71.7995 44.6277C71.7104 44.5305 71.6659 44.4106 71.6659 44.2681V39.9341C71.6659 39.7851 71.7104 39.6652 71.7995 39.5745C71.8949 39.4838 72.0126 39.4385 72.1525 39.4385C72.2988 39.4385 72.4165 39.4838 72.5056 39.5745C72.5946 39.6652 72.6391 39.7851 72.6391 39.9341V44.2681C72.6391 44.4106 72.5946 44.5305 72.5056 44.6277C72.4165 44.7184 72.2988 44.7637 72.1525 44.7637Z" fill="#1882FF"/>
<path d="M80.3453 44.7929C79.8682 44.7929 79.4452 44.6795 79.0763 44.4528C78.7137 44.2195 78.4275 43.9021 78.2176 43.5004C78.0076 43.0923 77.9027 42.6258 77.9027 42.1011C77.9027 41.5699 78.014 41.1034 78.2366 40.7018C78.4656 40.2936 78.7773 39.9762 79.1717 39.7494C79.5661 39.5162 80.0209 39.3996 80.5362 39.3996C81.045 39.3996 81.4967 39.5162 81.8911 39.7494C82.2855 39.9762 82.594 40.2936 82.8166 40.7018C83.0456 41.1034 83.1601 41.5699 83.1601 42.1011H82.5971C82.5971 42.6258 82.4986 43.0923 82.3014 43.5004C82.1105 43.9021 81.8465 44.2195 81.5094 44.4528C81.1723 44.6795 80.7842 44.7929 80.3453 44.7929ZM80.5171 46.9599C80.0654 46.9599 79.6424 46.8692 79.248 46.6878C78.8537 46.5064 78.5197 46.2408 78.2462 45.891C78.1635 45.7808 78.1317 45.6675 78.1508 45.5508C78.1762 45.4342 78.2398 45.3403 78.3416 45.269C78.4561 45.1913 78.5738 45.1654 78.6946 45.1913C78.8219 45.2172 78.9236 45.282 79 45.3856C79.1717 45.6059 79.388 45.7776 79.6488 45.9007C79.9096 46.0238 80.2054 46.0853 80.5362 46.0853C80.8415 46.0853 81.1214 46.0108 81.3758 45.8618C81.6366 45.7128 81.8434 45.4925 81.996 45.201C82.1487 44.9095 82.225 44.5532 82.225 44.1321V42.7522L82.5399 41.897L83.1601 42.1011V44.2001C83.1601 44.7119 83.0488 45.1751 82.8261 45.5897C82.6035 46.0108 82.2918 46.3444 81.8911 46.5906C81.4967 46.8368 81.0387 46.9599 80.5171 46.9599ZM80.5362 43.9183C80.8669 43.9183 81.1595 43.8405 81.414 43.6851C81.6684 43.5296 81.8656 43.3158 82.0056 43.0437C82.1519 42.7716 82.225 42.4574 82.225 42.1011C82.225 41.7448 82.1519 41.4306 82.0056 41.1585C81.8656 40.8799 81.6684 40.6629 81.414 40.5074C81.1595 40.3519 80.8669 40.2742 80.5362 40.2742C80.2054 40.2742 79.9128 40.3519 79.6583 40.5074C79.4039 40.6629 79.2035 40.8799 79.0572 41.1585C78.9109 41.4306 78.8378 41.7448 78.8378 42.1011C78.8378 42.4574 78.9109 42.7716 79.0572 43.0437C79.2035 43.3158 79.4039 43.5296 79.6583 43.6851C79.9128 43.8405 80.2054 43.9183 80.5362 43.9183Z" fill="#1882FF"/>
<path d="M86.8031 44.8026C86.3642 44.8026 85.9698 44.7087 85.62 44.5208C85.2765 44.3264 85.0029 44.0446 84.7994 43.6753C84.6022 43.3061 84.5036 42.8526 84.5036 42.3149V39.9244C84.5036 39.7818 84.5481 39.6652 84.6372 39.5745C84.7326 39.4773 84.8503 39.4288 84.9902 39.4288C85.1302 39.4288 85.2447 39.4773 85.3337 39.5745C85.4291 39.6652 85.4768 39.7818 85.4768 39.9244V42.3149C85.4768 42.6777 85.5436 42.9789 85.6772 43.2186C85.8108 43.4518 85.9921 43.6268 86.2211 43.7434C86.4501 43.8535 86.7077 43.9086 86.994 43.9086C87.2675 43.9086 87.5092 43.8535 87.7191 43.7434C87.9354 43.6332 88.1072 43.4842 88.2344 43.2964C88.3616 43.1085 88.4252 42.8979 88.4252 42.6647H89.0263C89.0263 43.0664 88.9277 43.4292 88.7305 43.7531C88.5397 44.077 88.2757 44.3329 87.9386 44.5208C87.6078 44.7087 87.2293 44.8026 86.8031 44.8026ZM88.9118 44.754C88.7719 44.754 88.6542 44.7086 88.5588 44.618C88.4697 44.5208 88.4252 44.4009 88.4252 44.2584V39.9244C88.4252 39.7754 88.4697 39.6555 88.5588 39.5648C88.6542 39.4741 88.7719 39.4288 88.9118 39.4288C89.0581 39.4288 89.1758 39.4741 89.2649 39.5648C89.3539 39.6555 89.3984 39.7754 89.3984 39.9244V44.2584C89.3984 44.4009 89.3539 44.5208 89.2649 44.618C89.1758 44.7086 89.0581 44.754 88.9118 44.754Z" fill="#1882FF"/>
<path d="M93.288 44.7929C92.8236 44.7929 92.407 44.6763 92.038 44.443C91.6691 44.2033 91.3765 43.8827 91.1602 43.481C90.9503 43.0729 90.8453 42.6129 90.8453 42.1011C90.8453 41.5893 90.9598 41.1293 91.1888 40.7212C91.4242 40.3131 91.7391 39.9924 92.1335 39.7592C92.5342 39.5195 92.9827 39.3996 93.4788 39.3996C93.975 39.3996 94.4203 39.5195 94.8147 39.7592C95.209 39.9924 95.5207 40.3131 95.7497 40.7212C95.9851 41.1293 96.1028 41.5893 96.1028 42.1011H95.7306C95.7306 42.6129 95.6225 43.0729 95.4062 43.481C95.1963 43.8827 94.9069 44.2033 94.5379 44.443C94.169 44.6763 93.7524 44.7929 93.288 44.7929ZM93.4788 43.9183C93.8032 43.9183 94.0927 43.8405 94.3471 43.6851C94.6016 43.5231 94.8019 43.3061 94.9482 43.034C95.0945 42.7554 95.1677 42.4445 95.1677 42.1011C95.1677 41.7513 95.0945 41.4403 94.9482 41.1682C94.8019 40.8896 94.6016 40.6726 94.3471 40.5171C94.0927 40.3552 93.8032 40.2742 93.4788 40.2742C93.1608 40.2742 92.8713 40.3552 92.6105 40.5171C92.3561 40.6726 92.1525 40.8896 91.9999 41.1682C91.8536 41.4403 91.7804 41.7513 91.7804 42.1011C91.7804 42.4445 91.8536 42.7554 91.9999 43.034C92.1525 43.3061 92.3561 43.5231 92.6105 43.6851C92.8713 43.8405 93.1608 43.9183 93.4788 43.9183ZM95.6161 44.7637C95.4762 44.7637 95.3585 44.7184 95.2631 44.6277C95.1741 44.5305 95.1295 44.4106 95.1295 44.2681V42.7813L95.3108 41.7513L96.1028 42.1011V44.2681C96.1028 44.4106 96.0551 44.5305 95.9596 44.6277C95.8706 44.7184 95.7561 44.7637 95.6161 44.7637Z" fill="#1882FF"/>
<path d="M99.7267 44.7929C99.2496 44.7929 98.8266 44.6795 98.4577 44.4528C98.0951 44.2195 97.8089 43.9021 97.5989 43.5004C97.389 43.0923 97.2841 42.6258 97.2841 42.1011C97.2841 41.5699 97.3954 41.1034 97.618 40.7018C97.847 40.2936 98.1587 39.9762 98.5531 39.7494C98.9475 39.5162 99.4023 39.3996 99.9175 39.3996C100.426 39.3996 100.878 39.5162 101.272 39.7494C101.667 39.9762 101.975 40.2936 102.198 40.7018C102.427 41.1034 102.541 41.5699 102.541 42.1011H101.979C101.979 42.6258 101.88 43.0923 101.683 43.5004C101.492 43.9021 101.228 44.2195 100.891 44.4528C100.554 44.6795 100.166 44.7929 99.7267 44.7929ZM99.8985 46.9599C99.4468 46.9599 99.0238 46.8692 98.6294 46.6878C98.235 46.5064 97.9011 46.2408 97.6276 45.891C97.5449 45.7808 97.5131 45.6675 97.5321 45.5508C97.5576 45.4342 97.6212 45.3403 97.723 45.269C97.8375 45.1913 97.9552 45.1654 98.076 45.1913C98.2032 45.2172 98.305 45.282 98.3813 45.3856C98.5531 45.6059 98.7694 45.7776 99.0302 45.9007C99.291 46.0238 99.5868 46.0853 99.9175 46.0853C100.223 46.0853 100.503 46.0108 100.757 45.8618C101.018 45.7128 101.225 45.4925 101.377 45.201C101.53 44.9095 101.606 44.5532 101.606 44.1321V42.7522L101.921 41.897L102.541 42.1011V44.2001C102.541 44.7119 102.43 45.1751 102.208 45.5897C101.985 46.0108 101.673 46.3444 101.272 46.5906C100.878 46.8368 100.42 46.9599 99.8985 46.9599ZM99.9175 43.9183C100.248 43.9183 100.541 43.8405 100.795 43.6851C101.05 43.5296 101.247 43.3158 101.387 43.0437C101.533 42.7716 101.606 42.4574 101.606 42.1011C101.606 41.7448 101.533 41.4306 101.387 41.1585C101.247 40.8799 101.05 40.6629 100.795 40.5074C100.541 40.3519 100.248 40.2742 99.9175 40.2742C99.5868 40.2742 99.2942 40.3519 99.0397 40.5074C98.7853 40.6629 98.5849 40.8799 98.4386 41.1585C98.2923 41.4306 98.2191 41.7448 98.2191 42.1011C98.2191 42.4574 98.2923 42.7716 98.4386 43.0437C98.5849 43.3158 98.7853 43.5296 99.0397 43.6851C99.2942 43.8405 99.5868 43.9183 99.9175 43.9183Z" fill="#1882FF"/>
<path d="M106.442 44.7929C105.914 44.7929 105.443 44.6795 105.03 44.4528C104.623 44.2195 104.302 43.9021 104.066 43.5004C103.837 43.0923 103.723 42.6258 103.723 42.1011C103.723 41.5699 103.831 41.1034 104.047 40.7018C104.27 40.2936 104.575 39.9762 104.963 39.7494C105.351 39.5162 105.796 39.3996 106.299 39.3996C106.795 39.3996 107.221 39.513 107.578 39.7397C107.934 39.96 108.204 40.2677 108.389 40.6629C108.579 41.0516 108.675 41.5018 108.675 42.0136C108.675 42.1367 108.634 42.2404 108.551 42.3246C108.468 42.4023 108.363 42.4412 108.236 42.4412H104.391V41.6638H108.207L107.816 41.9359C107.81 41.612 107.746 41.3237 107.625 41.071C107.504 40.8119 107.333 40.6078 107.11 40.4588C106.887 40.3098 106.617 40.2353 106.299 40.2353C105.936 40.2353 105.625 40.3163 105.364 40.4783C105.109 40.6402 104.915 40.8637 104.782 41.1488C104.648 41.4273 104.582 41.7448 104.582 42.1011C104.582 42.4574 104.661 42.7748 104.82 43.0534C104.979 43.332 105.199 43.5523 105.478 43.7142C105.758 43.8762 106.08 43.9572 106.442 43.9572C106.639 43.9572 106.84 43.9215 107.043 43.8503C107.253 43.7725 107.422 43.6851 107.549 43.5879C107.644 43.5166 107.746 43.481 107.854 43.481C107.969 43.4745 108.067 43.5069 108.15 43.5782C108.258 43.6753 108.315 43.7822 108.322 43.8989C108.328 44.0155 108.277 44.1159 108.169 44.2001C107.953 44.375 107.683 44.5175 107.358 44.6277C107.04 44.7378 106.735 44.7929 106.442 44.7929Z" fill="#1882FF"/>
<path d="M116.147 44.8512C115.631 44.8512 115.148 44.754 114.696 44.5596C114.251 44.3588 113.86 44.0835 113.523 43.7337C113.192 43.3773 112.931 42.9627 112.74 42.4898C112.556 42.0169 112.463 41.5051 112.463 40.9544C112.463 40.4102 112.556 39.9049 112.74 39.4385C112.931 38.9656 113.192 38.5542 113.523 38.2043C113.86 37.848 114.251 37.5695 114.696 37.3686C115.142 37.1678 115.625 37.0674 116.147 37.0674C116.636 37.0674 117.056 37.1322 117.406 37.2617C117.762 37.3913 118.118 37.6051 118.475 37.9031C118.526 37.942 118.564 37.9841 118.589 38.0294C118.621 38.0683 118.64 38.1104 118.646 38.1558C118.659 38.1946 118.666 38.2432 118.666 38.3015C118.666 38.4246 118.621 38.5283 118.532 38.6125C118.449 38.6902 118.347 38.7356 118.227 38.7485C118.106 38.755 117.988 38.7129 117.874 38.6222C117.638 38.4149 117.393 38.2562 117.139 38.146C116.891 38.0359 116.56 37.9808 116.147 37.9808C115.771 37.9808 115.418 38.0586 115.087 38.2141C114.757 38.3695 114.464 38.5833 114.21 38.8554C113.962 39.1275 113.768 39.445 113.628 39.8077C113.488 40.1641 113.418 40.5463 113.418 40.9544C113.418 41.369 113.488 41.7577 113.628 42.1205C113.768 42.4768 113.962 42.791 114.21 43.0631C114.464 43.3352 114.757 43.549 115.087 43.7045C115.418 43.8535 115.771 43.928 116.147 43.928C116.471 43.928 116.776 43.8729 117.063 43.7628C117.355 43.6462 117.635 43.4875 117.902 43.2866C118.017 43.2024 118.128 43.1668 118.236 43.1797C118.351 43.1862 118.446 43.2316 118.522 43.3158C118.599 43.3935 118.637 43.5037 118.637 43.6462C118.637 43.711 118.624 43.7758 118.599 43.8405C118.573 43.8989 118.535 43.9539 118.484 44.0057C118.141 44.2843 117.772 44.4949 117.377 44.6374C116.989 44.7799 116.579 44.8512 116.147 44.8512Z" fill="#1882FF"/>
<path d="M122.113 44.7929C121.598 44.7929 121.143 44.6795 120.749 44.4528C120.354 44.2195 120.042 43.9021 119.813 43.5004C119.591 43.0923 119.479 42.6258 119.479 42.1011C119.479 41.5699 119.591 41.1034 119.813 40.7018C120.042 40.2936 120.354 39.9762 120.749 39.7494C121.143 39.5162 121.598 39.3996 122.113 39.3996C122.622 39.3996 123.073 39.5162 123.468 39.7494C123.862 39.9762 124.171 40.2936 124.393 40.7018C124.622 41.1034 124.737 41.5699 124.737 42.1011C124.737 42.6258 124.626 43.0923 124.403 43.5004C124.18 43.9021 123.872 44.2195 123.477 44.4528C123.083 44.6795 122.628 44.7929 122.113 44.7929ZM122.113 43.9183C122.444 43.9183 122.736 43.8405 122.991 43.6851C123.245 43.5296 123.442 43.3158 123.582 43.0437C123.729 42.7716 123.802 42.4574 123.802 42.1011C123.802 41.7448 123.729 41.4306 123.582 41.1585C123.442 40.8799 123.245 40.6629 122.991 40.5074C122.736 40.3519 122.444 40.2742 122.113 40.2742C121.782 40.2742 121.49 40.3519 121.235 40.5074C120.981 40.6629 120.78 40.8799 120.634 41.1585C120.488 41.4306 120.415 41.7448 120.415 42.1011C120.415 42.4574 120.488 42.7716 120.634 43.0437C120.78 43.3158 120.981 43.5296 121.235 43.6851C121.49 43.8405 121.782 43.9183 122.113 43.9183Z" fill="#1882FF"/>
<path d="M127.426 44.754C127.146 44.754 126.898 44.6763 126.682 44.5208C126.465 44.3653 126.297 44.1547 126.176 43.8891C126.055 43.617 125.995 43.3061 125.995 42.9562V37.6504C125.995 37.5079 126.039 37.3913 126.128 37.3006C126.217 37.2099 126.332 37.1646 126.472 37.1646C126.612 37.1646 126.726 37.2099 126.815 37.3006C126.904 37.3913 126.949 37.5079 126.949 37.6504V42.9562C126.949 43.1959 126.993 43.3935 127.082 43.549C127.171 43.7045 127.286 43.7822 127.426 43.7822H127.664C127.792 43.7822 127.893 43.8276 127.97 43.9183C128.052 44.009 128.094 44.1256 128.094 44.2681C128.094 44.4106 128.033 44.5273 127.912 44.618C127.792 44.7086 127.636 44.754 127.445 44.754H127.426Z" fill="#1882FF"/>
<path d="M130.286 44.754C130.007 44.754 129.758 44.6763 129.542 44.5208C129.326 44.3653 129.157 44.1547 129.036 43.8891C128.916 43.617 128.855 43.3061 128.855 42.9562V37.6504C128.855 37.5079 128.9 37.3913 128.989 37.3006C129.078 37.2099 129.192 37.1646 129.332 37.1646C129.472 37.1646 129.587 37.2099 129.676 37.3006C129.765 37.3913 129.809 37.5079 129.809 37.6504V42.9562C129.809 43.1959 129.854 43.3935 129.943 43.549C130.032 43.7045 130.146 43.7822 130.286 43.7822H130.525C130.652 43.7822 130.754 43.8276 130.83 43.9183C130.913 44.009 130.954 44.1256 130.954 44.2681C130.954 44.4106 130.894 44.5273 130.773 44.618C130.652 44.7086 130.496 44.754 130.305 44.754H130.286Z" fill="#1882FF"/>
<path d="M134.07 44.7929C133.542 44.7929 133.071 44.6795 132.658 44.4528C132.251 44.2195 131.929 43.9021 131.694 43.5004C131.465 43.0923 131.351 42.6258 131.351 42.1011C131.351 41.5699 131.459 41.1034 131.675 40.7018C131.898 40.2936 132.203 39.9762 132.591 39.7494C132.979 39.5162 133.424 39.3996 133.927 39.3996C134.423 39.3996 134.849 39.513 135.205 39.7397C135.562 39.96 135.832 40.2677 136.016 40.6629C136.207 41.0516 136.303 41.5018 136.303 42.0136C136.303 42.1367 136.261 42.2404 136.179 42.3246C136.096 42.4023 135.991 42.4412 135.864 42.4412H132.018V41.6638H135.835L135.444 41.9359C135.438 41.612 135.374 41.3237 135.253 41.071C135.132 40.8119 134.96 40.6078 134.738 40.4588C134.515 40.3098 134.245 40.2353 133.927 40.2353C133.564 40.2353 133.253 40.3163 132.992 40.4783C132.737 40.6402 132.543 40.8637 132.41 41.1488C132.276 41.4273 132.209 41.7448 132.209 42.1011C132.209 42.4574 132.289 42.7748 132.448 43.0534C132.607 43.332 132.826 43.5523 133.106 43.7142C133.386 43.8762 133.707 43.9572 134.07 43.9572C134.267 43.9572 134.468 43.9215 134.671 43.8503C134.881 43.7725 135.05 43.6851 135.177 43.5879C135.272 43.5166 135.374 43.481 135.482 43.481C135.597 43.4745 135.695 43.5069 135.778 43.5782C135.886 43.6753 135.943 43.7822 135.95 43.8989C135.956 44.0155 135.905 44.1159 135.797 44.2001C135.581 44.375 135.31 44.5175 134.986 44.6277C134.668 44.7378 134.363 44.7929 134.07 44.7929Z" fill="#1882FF"/>
<path d="M139.533 44.7929C139.056 44.7929 138.633 44.6795 138.264 44.4528C137.901 44.2195 137.615 43.9021 137.405 43.5004C137.195 43.0923 137.09 42.6258 137.09 42.1011C137.09 41.5699 137.202 41.1034 137.424 40.7018C137.653 40.2936 137.965 39.9762 138.359 39.7494C138.754 39.5162 139.209 39.3996 139.724 39.3996C140.233 39.3996 140.684 39.5162 141.079 39.7494C141.473 39.9762 141.782 40.2936 142.004 40.7018C142.233 41.1034 142.348 41.5699 142.348 42.1011H141.785C141.785 42.6258 141.686 43.0923 141.489 43.5004C141.298 43.9021 141.034 44.2195 140.697 44.4528C140.36 44.6795 139.972 44.7929 139.533 44.7929ZM139.705 46.9599C139.253 46.9599 138.83 46.8692 138.436 46.6878C138.041 46.5064 137.707 46.2408 137.434 45.891C137.351 45.7808 137.319 45.6675 137.339 45.5508C137.364 45.4342 137.428 45.3403 137.529 45.269C137.644 45.1913 137.762 45.1654 137.882 45.1913C138.01 45.2172 138.111 45.282 138.188 45.3856C138.359 45.6059 138.576 45.7776 138.837 45.9007C139.097 46.0238 139.393 46.0853 139.724 46.0853C140.029 46.0853 140.309 46.0108 140.564 45.8618C140.824 45.7128 141.031 45.4925 141.184 45.201C141.336 44.9095 141.413 44.5532 141.413 44.1321V42.7522L141.728 41.897L142.348 42.1011V44.2001C142.348 44.7119 142.237 45.1751 142.014 45.5897C141.791 46.0108 141.48 46.3444 141.079 46.5906C140.684 46.8368 140.226 46.9599 139.705 46.9599ZM139.724 43.9183C140.055 43.9183 140.347 43.8405 140.602 43.6851C140.856 43.5296 141.053 43.3158 141.193 43.0437C141.34 42.7716 141.413 42.4574 141.413 42.1011C141.413 41.7448 141.34 41.4306 141.193 41.1585C141.053 40.8799 140.856 40.6629 140.602 40.5074C140.347 40.3519 140.055 40.2742 139.724 40.2742C139.393 40.2742 139.101 40.3519 138.846 40.5074C138.592 40.6629 138.391 40.8799 138.245 41.1585C138.099 41.4306 138.026 41.7448 138.026 42.1011C138.026 42.4574 138.099 42.7716 138.245 43.0437C138.391 43.3158 138.592 43.5296 138.846 43.6851C139.101 43.8405 139.393 43.9183 139.724 43.9183Z" fill="#1882FF"/>
<path d="M146.249 44.7929C145.721 44.7929 145.25 44.6795 144.836 44.4528C144.429 44.2195 144.108 43.9021 143.873 43.5004C143.644 43.0923 143.529 42.6258 143.529 42.1011C143.529 41.5699 143.637 41.1034 143.854 40.7018C144.076 40.2936 144.382 39.9762 144.77 39.7494C145.158 39.5162 145.603 39.3996 146.105 39.3996C146.602 39.3996 147.028 39.513 147.384 39.7397C147.74 39.96 148.011 40.2677 148.195 40.6629C148.386 41.0516 148.481 41.5018 148.481 42.0136C148.481 42.1367 148.44 42.2404 148.357 42.3246C148.275 42.4023 148.17 42.4412 148.042 42.4412H144.197V41.6638H148.014L147.623 41.9359C147.616 41.612 147.553 41.3237 147.432 41.071C147.311 40.8119 147.139 40.6078 146.916 40.4588C146.694 40.3098 146.423 40.2353 146.105 40.2353C145.743 40.2353 145.431 40.3163 145.17 40.4783C144.916 40.6402 144.722 40.8637 144.588 41.1488C144.455 41.4273 144.388 41.7448 144.388 42.1011C144.388 42.4574 144.467 42.7748 144.626 43.0534C144.785 43.332 145.005 43.5523 145.285 43.7142C145.565 43.8762 145.886 43.9572 146.249 43.9572C146.446 43.9572 146.646 43.9215 146.85 43.8503C147.06 43.7725 147.228 43.6851 147.355 43.5879C147.451 43.5166 147.553 43.481 147.661 43.481C147.775 43.4745 147.874 43.5069 147.956 43.5782C148.065 43.6753 148.122 43.7822 148.128 43.8989C148.135 44.0155 148.084 44.1159 147.976 44.2001C147.759 44.375 147.489 44.5175 147.165 44.6277C146.846 44.7378 146.541 44.7929 146.249 44.7929Z" fill="#1882FF"/>
</svg>
