<svg width="210" height="50" viewBox="0 0 210 50" fill="none" xmlns="http://www.w3.org/2000/svg">
<path d="M58.8232 9.24859H77.0493V16.0068H74.0116V14.6551C74.0116 14.3792 73.9863 14.0948 73.9357 13.8019C73.8907 13.5091 73.8175 13.219 73.7163 12.9318C73.6207 12.6446 73.48 12.4109 73.2944 12.2306C73.1088 12.0448 72.8978 11.9519 72.6615 11.9519H66.9237V19.3859H69.9614V16.3447H72.6615V25.1303H69.9614V22.0892H66.9237V27.4957H72.9991C73.2353 27.4957 73.4463 27.4056 73.6319 27.2254C73.8175 27.0395 73.9582 26.803 74.0538 26.5158C74.1551 26.2285 74.2282 25.9385 74.2732 25.6457C74.3238 25.3528 74.3491 25.0684 74.3491 24.7924V23.4408H77.3868V30.199H58.8232V27.4957H61.5234V11.9519H58.8232V9.24859Z" fill="#743EF9"/>
<path d="M85.6476 30.5876C84.3313 30.5876 83.2146 30.2497 82.2977 29.5739C81.3808 28.898 80.6973 27.9547 80.2473 26.7439C79.8029 25.533 79.5807 24.0913 79.5807 22.4186C79.5807 21.1965 79.7382 20.0786 80.0532 19.0649C80.3739 18.0511 80.8183 17.1979 81.3864 16.5052C81.9602 15.8069 82.6493 15.269 83.4537 14.8917C84.2638 14.5087 85.1498 14.3172 86.1117 14.3172C86.5955 14.3172 87.0511 14.3623 87.4786 14.4524C87.9062 14.5369 88.269 14.6439 88.5671 14.7734C88.8709 14.9029 89.1578 15.0635 89.4278 15.2549C89.6978 15.4464 89.9144 15.6266 90.0775 15.7956C90.2463 15.9645 90.4094 16.1532 90.5669 16.3616V11.9519H88.8793V9.24859H95.2922V27.4957H96.9798V30.199H91.9677L90.9467 28.2391C90.7273 28.5432 90.4798 28.822 90.2041 29.0754C89.0903 30.0835 87.5715 30.5876 85.6476 30.5876ZM90.5669 19.2254C89.9257 18.0427 89.0537 17.4513 87.9512 17.4513C86.8374 17.4513 86.0076 17.8878 85.462 18.7607C84.9219 19.6337 84.6519 20.8727 84.6519 22.4778C84.6519 23.2324 84.7391 23.9308 84.9135 24.5728C85.0935 25.2092 85.3298 25.7386 85.6223 26.161C85.9204 26.5834 86.2608 26.9128 86.6433 27.1494C87.0258 27.3803 87.4252 27.4957 87.8415 27.4957C88.404 27.4957 88.9018 27.3408 89.335 27.0311C89.7738 26.7157 90.1844 26.2511 90.5669 25.6372V19.2254Z" fill="#743EF9"/>
<path d="M98.5155 14.6551H104.928V24.1166C104.928 25.0064 105.007 25.6992 105.165 26.1948C105.328 26.6904 105.558 27.0311 105.857 27.2169C106.16 27.4028 106.571 27.4957 107.089 27.4957C107.561 27.4957 108.045 27.2958 108.54 26.8959C109.041 26.4961 109.513 25.9385 109.957 25.2233L109.991 17.3584H108.304V14.6551H114.716V27.4957H116.404V30.199H111.164L109.983 27.9012C109.032 29.6583 107.46 30.5369 105.266 30.5369C104.478 30.5369 103.789 30.4299 103.199 30.2159C102.608 30.0019 102.124 29.709 101.747 29.3373C101.37 28.96 101.064 28.4841 100.828 27.9096C100.597 27.3296 100.434 26.7101 100.338 26.0511C100.248 25.3866 100.203 24.6291 100.203 23.7787V17.3584H98.5155V14.6551Z" fill="#743EF9"/>
<path d="M128.994 17.6203C128.352 17.2204 127.537 17.0205 126.547 17.0205C126.147 17.0205 125.776 17.0768 125.433 17.1895C125.09 17.2965 124.76 17.4823 124.445 17.747C124.136 18.0117 123.872 18.3468 123.652 18.7523C123.433 19.1578 123.259 19.6731 123.129 20.2982C123 20.9234 122.935 21.633 122.935 22.4271C122.935 23.2212 123.005 23.9279 123.146 24.5474C123.287 25.167 123.472 25.6738 123.703 26.068C123.939 26.4623 124.22 26.7861 124.547 27.0395C124.879 27.293 125.219 27.4732 125.568 27.5802C125.916 27.6816 126.293 27.7322 126.698 27.7322C127.885 27.7322 128.811 27.5042 129.475 27.048C130.144 26.5862 130.678 25.8766 131.078 24.9191L133.322 25.6963C133.12 26.2426 132.861 26.7579 132.546 27.2423C132.237 27.721 131.862 28.1631 131.424 28.5686C130.985 28.9741 130.495 29.3232 129.955 29.6161C129.421 29.9033 128.816 30.1286 128.141 30.2919C127.466 30.4552 126.755 30.5369 126.006 30.5369C124.898 30.5369 123.849 30.3426 122.859 29.954C121.875 29.5654 121.017 29.0248 120.286 28.332C119.56 27.6337 118.983 26.7748 118.556 25.7555C118.134 24.7361 117.923 23.6266 117.923 22.4271C117.923 21.464 118.058 20.5573 118.328 19.7069C118.598 18.8565 118.978 18.1046 119.467 17.4513C119.962 16.7981 120.541 16.2349 121.205 15.7618C121.869 15.2887 122.606 14.9311 123.416 14.6889C124.226 14.4411 125.075 14.3172 125.964 14.3172C126.667 14.3172 127.328 14.3848 127.947 14.52C128.566 14.6495 129.117 14.8297 129.601 15.0606C130.09 15.2859 130.546 15.5675 130.968 15.9054C131.39 16.2433 131.758 16.6038 132.073 16.9867C132.394 17.3641 132.692 17.7893 132.968 18.2623C133.255 18.7072 133.398 19.1944 133.398 19.7238C133.398 20.4728 133.134 21.112 132.605 21.6414C132.082 22.1652 131.446 22.4271 130.698 22.4271C129.95 22.4271 129.311 22.1652 128.783 21.6414C128.259 21.112 127.998 20.4728 127.998 19.7238C127.998 19.307 128.085 18.9156 128.259 18.5496C128.439 18.1835 128.684 17.8737 128.994 17.6203Z" fill="#743EF9"/>
<path d="M149.447 20.0195V27.4957H151.135V30.199H145.878L145.127 28.4419C144.553 29.2641 143.887 29.8273 143.127 30.1314C142.373 30.4355 141.319 30.5876 139.963 30.5876C139.26 30.5876 138.604 30.4637 137.997 30.2159C137.395 29.9737 136.88 29.6414 136.453 29.219C136.031 28.7967 135.699 28.2898 135.457 27.6985C135.221 27.1071 135.103 26.4735 135.103 25.7977C135.103 24.6319 135.558 23.6661 136.47 22.9001C137.381 22.1286 138.545 21.7428 139.963 21.7428C141.105 21.7428 142.05 21.8526 142.798 22.0723C143.546 22.2863 144.188 22.6298 144.722 23.1029V19.521C144.722 19.0142 144.652 18.5918 144.511 18.2539C144.376 17.9103 144.171 17.6485 143.895 17.4682C143.619 17.2824 143.31 17.1529 142.967 17.0796C142.624 17.0064 142.213 16.9698 141.735 16.9698C141.352 16.9698 141.006 17.0515 140.697 17.2148C140.871 17.5809 140.959 17.9667 140.959 18.3722C140.959 19.1212 140.694 19.7604 140.165 20.2898C139.642 20.8135 139.007 21.0754 138.258 21.0754C137.51 21.0754 136.872 20.8135 136.343 20.2898C135.82 19.7604 135.558 19.1212 135.558 18.3722C135.558 17.9892 135.631 17.6287 135.778 17.2908C135.93 16.9529 136.138 16.6573 136.402 16.4038C136.627 16.1673 136.861 15.9561 137.102 15.7702C137.344 15.5788 137.648 15.3901 138.014 15.2042C138.385 15.0128 138.787 14.8551 139.22 14.7312C139.654 14.6073 140.171 14.5087 140.773 14.4355C141.381 14.3567 142.044 14.3172 142.764 14.3172C143.698 14.3172 144.576 14.4552 145.397 14.7312C146.218 15.0071 146.927 15.3901 147.523 15.8801C148.12 16.37 148.589 16.9726 148.933 17.6879C149.276 18.4031 149.447 19.1803 149.447 20.0195ZM144.722 26.4482V25.2824C144.373 24.9501 143.979 24.6713 143.541 24.4461C143.107 24.2152 142.705 24.0997 142.334 24.0997C141.535 24.0997 140.973 24.2349 140.646 24.5052C140.32 24.7699 140.157 25.2007 140.157 25.7977C140.157 26.513 140.298 27.0395 140.579 27.3774C140.86 27.7154 141.383 27.8843 142.148 27.8843C142.582 27.8843 143.032 27.7463 143.498 27.4704C143.971 27.1888 144.379 26.8481 144.722 26.4482Z" fill="#743EF9"/>
<path d="M156.366 11.276H158.054V14.6551H162.779V17.3584H158.054V26.1441C158.054 26.527 158.161 26.8481 158.375 27.1071C158.594 27.3662 158.937 27.4957 159.404 27.4957C159.927 27.4957 160.372 27.3239 160.737 26.9804C161.103 26.6312 161.334 26.1272 161.429 25.4683L163.454 25.8062C163.37 26.4651 163.207 27.0761 162.965 27.6393C162.729 28.1969 162.419 28.6953 162.037 29.1346C161.654 29.5682 161.179 29.9118 160.611 30.1652C160.048 30.413 159.421 30.5369 158.729 30.5369C157.047 30.5369 155.725 30.1455 154.763 29.3627C153.807 28.5742 153.329 27.5013 153.329 26.1441V17.3584H151.641V14.6551H151.979C152.845 14.6551 153.61 14.4073 154.274 13.9117C154.938 13.4161 155.635 12.5376 156.366 11.276Z" fill="#743EF9"/>
<path d="M166.939 12.8558C166.416 12.3264 166.154 11.6872 166.154 10.9381C166.154 10.1891 166.416 9.55271 166.939 9.02895C167.468 8.49956 168.106 8.23486 168.855 8.23486C169.603 8.23486 170.238 8.49956 170.762 9.02895C171.29 9.55271 171.555 10.1891 171.555 10.9381C171.555 11.6872 171.29 12.3264 170.762 12.8558C170.238 13.3795 169.603 13.6414 168.855 13.6414C168.106 13.6414 167.468 13.3795 166.939 12.8558ZM164.804 14.6551H171.217V27.4957H172.905V30.199H164.804V27.4957H166.492V17.3584H164.804V14.6551Z" fill="#743EF9"/>
<path d="M179.36 14.9508C180.35 14.5622 181.399 14.3679 182.507 14.3679C183.615 14.3679 184.662 14.5622 185.646 14.9508C186.636 15.3394 187.497 15.8829 188.228 16.5812C188.959 17.2739 189.536 18.13 189.958 19.1493C190.386 20.1687 190.599 21.2782 190.599 22.4778C190.599 23.6773 190.386 24.7868 189.958 25.8062C189.536 26.8255 188.959 27.6844 188.228 28.3827C187.497 29.0754 186.636 29.6161 185.646 30.0047C184.662 30.3933 183.615 30.5876 182.507 30.5876C181.399 30.5876 180.35 30.3933 179.36 30.0047C178.375 29.6161 177.518 29.0754 176.786 28.3827C176.061 27.6844 175.484 26.8255 175.056 25.8062C174.635 24.7868 174.424 23.6773 174.424 22.4778C174.424 21.2782 174.635 20.1687 175.056 19.1493C175.484 18.13 176.061 17.2739 176.786 16.5812C177.518 15.8829 178.375 15.3394 179.36 14.9508ZM182.507 17.0712C182.113 17.0712 181.762 17.1275 181.452 17.2402C181.143 17.3528 180.859 17.5386 180.6 17.7977C180.341 18.0568 180.128 18.3919 179.959 18.803C179.796 19.2141 179.666 19.7266 179.571 20.3405C179.481 20.9543 179.436 21.6668 179.436 22.4778C179.436 23.2887 179.481 24.0012 179.571 24.615C179.666 25.2289 179.796 25.7414 179.959 26.1525C180.128 26.5636 180.341 26.8987 180.6 27.1578C180.859 27.4169 181.143 27.6027 181.452 27.7154C181.762 27.828 182.113 27.8843 182.507 27.8843C183.002 27.8843 183.433 27.7914 183.798 27.6055C184.164 27.414 184.482 27.1099 184.752 26.6932C185.027 26.2764 185.233 25.7161 185.368 25.0121C185.508 24.3081 185.579 23.4633 185.579 22.4778C185.579 21.4922 185.508 20.6474 185.368 19.9434C185.233 19.2395 185.027 18.6791 184.752 18.2623C184.482 17.8456 184.164 17.5443 183.798 17.3584C183.433 17.1669 183.002 17.0712 182.507 17.0712Z" fill="#743EF9"/>
<path d="M203.248 14.3172C204.035 14.3172 204.724 14.4242 205.315 14.6383C205.906 14.8523 206.39 15.1479 206.766 15.5253C207.143 15.897 207.447 16.3729 207.678 16.9529C207.914 17.5274 208.077 18.1469 208.167 18.8114C208.263 19.4704 208.311 20.225 208.311 21.0754V27.4957H209.998V30.199H201.898V27.4957H203.585V20.7375C203.585 19.8477 203.504 19.155 203.341 18.6594C203.183 18.1638 202.952 17.823 202.649 17.6372C202.351 17.4513 201.943 17.3584 201.425 17.3584C200.953 17.3584 200.469 17.5584 199.974 17.9582C199.479 18.3581 199.009 18.9156 198.565 19.6309L198.523 27.4957H200.21V30.199H192.11V27.4957H193.797V17.3584H192.11V14.6551H197.35L198.531 16.9445C198.739 16.5672 198.978 16.2292 199.248 15.9308C199.524 15.6266 199.85 15.3507 200.227 15.1029C200.61 14.8494 201.057 14.6551 201.569 14.52C202.081 14.3848 202.64 14.3172 203.248 14.3172Z" fill="#743EF9"/>
<path d="M58.8232 47.4838L61.8161 38.9614H63.4838L66.4766 47.4838H65.0373L64.3862 45.5734H60.9251L60.2625 47.4838H58.8232ZM61.3134 44.3722H63.975L62.4672 39.9108H62.8441L61.3134 44.3722Z" fill="#743EF9"/>
<path d="M69.8447 47.621C69.2278 47.621 68.6795 47.48 68.1998 47.1978C67.7276 46.908 67.3507 46.519 67.0689 46.031C66.7948 45.5429 66.6577 44.99 66.6577 44.3722C66.6577 43.7621 66.7948 43.213 67.0689 42.725C67.3431 42.2369 67.72 41.8556 68.1998 41.581C68.6795 41.2988 69.2278 41.1577 69.8447 41.1577C70.2635 41.1577 70.6557 41.234 71.0213 41.3865C71.3868 41.5314 71.7028 41.7335 71.9694 41.9928C72.2435 42.2521 72.4453 42.5534 72.5748 42.8965L71.4439 43.4228C71.3144 43.1025 71.105 42.847 70.8156 42.6563C70.5339 42.458 70.2102 42.3589 69.8447 42.3589C69.4944 42.3589 69.1783 42.4466 68.8966 42.622C68.6224 42.7898 68.4054 43.03 68.2455 43.3427C68.0856 43.6477 68.0056 43.9947 68.0056 44.3837C68.0056 44.7726 68.0856 45.1234 68.2455 45.4361C68.4054 45.7412 68.6224 45.9814 68.8966 46.1568C69.1783 46.3322 69.4944 46.4199 69.8447 46.4199C70.2178 46.4199 70.5415 46.3246 70.8156 46.1339C71.0974 45.9356 71.3068 45.6725 71.4439 45.3446L72.5748 45.8822C72.4529 46.2102 72.2549 46.5076 71.9808 46.7745C71.7142 47.0338 71.3982 47.2397 71.0327 47.3923C70.6671 47.5448 70.2711 47.621 69.8447 47.621Z" fill="#743EF9"/>
<path d="M75.4027 47.621C74.9838 47.621 74.6145 47.5486 74.2946 47.4037C73.9824 47.2512 73.7387 47.0453 73.5636 46.786C73.3884 46.519 73.3008 46.2064 73.3008 45.8479C73.3008 45.5124 73.3732 45.2111 73.5179 44.9442C73.6702 44.6773 73.9025 44.4523 74.2147 44.2693C74.5269 44.0863 74.9191 43.9566 75.3912 43.8803L77.5388 43.5257V44.5438L75.6425 44.8756C75.2999 44.9366 75.0486 45.0472 74.8886 45.2073C74.7287 45.3598 74.6488 45.5581 74.6488 45.8022C74.6488 46.0386 74.7363 46.2331 74.9115 46.3856C75.0942 46.5305 75.3265 46.6029 75.6083 46.6029C75.9586 46.6029 76.2632 46.5267 76.5221 46.3741C76.7886 46.2216 76.9943 46.0195 77.139 45.7679C77.2836 45.5086 77.356 45.2226 77.356 44.9099V43.3198C77.356 43.0148 77.2418 42.7669 77.0133 42.5762C76.7925 42.378 76.4955 42.2788 76.1223 42.2788C75.7796 42.2788 75.4788 42.3703 75.2199 42.5534C74.9686 42.7288 74.782 42.9576 74.6602 43.2397L73.5864 42.7021C73.7006 42.397 73.8872 42.1301 74.1461 41.9013C74.4051 41.6649 74.7059 41.4819 75.0486 41.3522C75.3989 41.2226 75.7682 41.1577 76.1566 41.1577C76.644 41.1577 77.0742 41.2493 77.4474 41.4323C77.8281 41.6153 78.1213 41.8708 78.3269 42.1987C78.5402 42.519 78.6468 42.8927 78.6468 43.3198V47.4838H77.4131V46.3627L77.6758 46.397C77.5311 46.6487 77.3446 46.866 77.1161 47.0491C76.8953 47.2321 76.6402 47.3732 76.3508 47.4723C76.069 47.5715 75.753 47.621 75.4027 47.621Z" fill="#743EF9"/>
<path d="M82.7833 47.621C82.1893 47.621 81.6562 47.48 81.1841 47.1978C80.7196 46.908 80.3502 46.519 80.0761 46.031C79.8095 45.5429 79.6763 44.9938 79.6763 44.3837C79.6763 43.7736 79.8133 43.2245 80.0875 42.7364C80.3617 42.2483 80.731 41.8632 81.1955 41.581C81.6601 41.2988 82.1855 41.1577 82.7719 41.1577C83.2669 41.1577 83.7048 41.2569 84.0855 41.4552C84.4663 41.6535 84.7671 41.928 84.9879 42.2788L84.7938 42.5762V38.8241H86.0731V47.4838H84.8509V46.2254L84.9994 46.4657C84.7861 46.8394 84.4815 47.1253 84.0855 47.3236C83.6895 47.5219 83.2555 47.621 82.7833 47.621ZM82.909 46.4199C83.2669 46.4199 83.5867 46.3322 83.8685 46.1568C84.1579 45.9814 84.3825 45.7412 84.5424 45.4361C84.71 45.1234 84.7938 44.7726 84.7938 44.3837C84.7938 43.9947 84.71 43.6477 84.5424 43.3427C84.3825 43.0376 84.1579 42.7974 83.8685 42.622C83.5867 42.4466 83.2669 42.3589 82.909 42.3589C82.551 42.3589 82.2274 42.4466 81.938 42.622C81.6486 42.7974 81.424 43.0376 81.2641 43.3427C81.1041 43.6477 81.0242 43.9947 81.0242 44.3837C81.0242 44.7726 81.1041 45.1234 81.2641 45.4361C81.424 45.7412 81.6448 45.9814 81.9266 46.1568C82.216 46.3322 82.5434 46.4199 82.909 46.4199Z" fill="#743EF9"/>
<path d="M90.253 47.621C89.6362 47.621 89.0879 47.48 88.6081 47.1978C88.136 46.908 87.7666 46.519 87.5001 46.031C87.2336 45.5353 87.1003 44.9823 87.1003 44.3722C87.1003 43.7469 87.2336 43.194 87.5001 42.7135C87.7742 42.2331 88.1398 41.8556 88.5967 41.581C89.0536 41.2988 89.5715 41.1577 90.1502 41.1577C90.6148 41.1577 91.0298 41.2378 91.3953 41.398C91.7609 41.5581 92.0693 41.7793 92.3206 42.0615C92.5719 42.336 92.7623 42.6525 92.8917 43.0109C93.0288 43.3694 93.0973 43.7507 93.0973 44.1549C93.0973 44.254 93.0935 44.357 93.0859 44.4638C93.0783 44.5705 93.0631 44.6697 93.0402 44.7612H88.1169V43.7316H92.3092L91.6923 44.2006C91.7685 43.827 91.7418 43.4952 91.6124 43.2054C91.4905 42.908 91.3001 42.6754 91.0412 42.5076C90.7899 42.3322 90.4929 42.2445 90.1502 42.2445C89.8075 42.2445 89.5029 42.3322 89.2364 42.5076C88.9699 42.6754 88.7642 42.9194 88.6195 43.2397C88.4749 43.5524 88.4177 43.9337 88.4482 44.3837C88.4101 44.8031 88.4672 45.1692 88.6195 45.4819C88.7795 45.7945 89.0003 46.0386 89.2821 46.214C89.5715 46.3894 89.8989 46.4771 90.2645 46.4771C90.6376 46.4771 90.9536 46.3932 91.2126 46.2254C91.4791 46.0577 91.6885 45.8403 91.8408 45.5734L92.8917 46.0882C92.7699 46.378 92.5795 46.6411 92.3206 46.8775C92.0693 47.1063 91.7647 47.2893 91.4067 47.4266C91.0564 47.5562 90.6719 47.621 90.253 47.621Z" fill="#743EF9"/>
<path d="M94.1286 47.4838V41.295H95.3623V42.6334L95.2024 42.4275C95.3318 42.0081 95.5679 41.6916 95.9106 41.4781C96.2533 41.2645 96.6455 41.1577 97.0872 41.1577C97.5822 41.1577 98.02 41.2912 98.4008 41.5581C98.7892 41.8174 99.0481 42.1644 99.1776 42.5991L98.812 42.6334C98.9948 42.1377 99.2728 41.7679 99.6459 41.5238C100.027 41.2798 100.461 41.1577 100.948 41.1577C101.375 41.1577 101.759 41.2569 102.102 41.4552C102.452 41.6535 102.73 41.928 102.936 42.2788C103.141 42.6296 103.244 43.03 103.244 43.48V47.4838H101.953V43.8346C101.953 43.5219 101.896 43.2588 101.782 43.0453C101.675 42.8241 101.523 42.6563 101.325 42.5419C101.135 42.4199 100.91 42.3589 100.651 42.3589C100.392 42.3589 100.164 42.4199 99.9657 42.5419C99.7677 42.6563 99.6116 42.8241 99.4974 43.0453C99.3832 43.2664 99.3261 43.5295 99.3261 43.8346V47.4838H98.0467V43.8346C98.0467 43.5219 97.9896 43.2588 97.8753 43.0453C97.7687 42.8241 97.6164 42.6563 97.4184 42.5419C97.228 42.4199 96.9996 42.3589 96.7331 42.3589C96.4741 42.3589 96.2457 42.4199 96.0477 42.5419C95.8497 42.6563 95.6936 42.8241 95.5793 43.0453C95.4727 43.2664 95.4194 43.5295 95.4194 43.8346V47.4838H94.1286Z" fill="#743EF9"/>
<path d="M104.834 50.0005C104.682 50.0005 104.529 49.9852 104.377 49.9547C104.232 49.9318 104.099 49.8937 103.977 49.8403V48.7307C104.069 48.7536 104.179 48.7726 104.309 48.7879C104.438 48.8108 104.564 48.8222 104.685 48.8222C105.043 48.8222 105.306 48.7421 105.474 48.582C105.649 48.4294 105.805 48.193 105.942 47.8727L106.353 46.9347L106.33 48.0214L103.657 41.295H105.04L107.016 46.4542H106.547L108.512 41.295H109.906L107.176 48.1587C107.031 48.5248 106.848 48.8451 106.627 49.1196C106.414 49.4018 106.159 49.6191 105.862 49.7717C105.573 49.9242 105.23 50.0005 104.834 50.0005Z" fill="#743EF9"/>
<path d="M112.455 47.4838V38.9614H117.995V40.1625H113.803V42.725H117.538V43.9261H113.803V47.4838H112.455Z" fill="#743EF9"/>
<path d="M121.585 47.621C120.991 47.621 120.447 47.48 119.952 47.1978C119.465 46.9156 119.076 46.5305 118.787 46.0424C118.497 45.5543 118.353 45.0014 118.353 44.3837C118.353 43.7583 118.497 43.2054 118.787 42.725C119.076 42.2369 119.465 41.8556 119.952 41.581C120.439 41.2988 120.984 41.1577 121.585 41.1577C122.195 41.1577 122.739 41.2988 123.219 41.581C123.706 41.8556 124.091 42.2369 124.373 42.725C124.662 43.2054 124.807 43.7583 124.807 44.3837C124.807 45.009 124.662 45.5658 124.373 46.0538C124.083 46.5419 123.695 46.9271 123.208 47.2092C122.72 47.4838 122.179 47.621 121.585 47.621ZM121.585 46.4199C121.951 46.4199 122.275 46.3322 122.556 46.1568C122.838 45.9814 123.059 45.7412 123.219 45.4361C123.386 45.1234 123.47 44.7726 123.47 44.3837C123.47 43.9947 123.386 43.6477 123.219 43.3427C123.059 43.0376 122.838 42.7974 122.556 42.622C122.275 42.4466 121.951 42.3589 121.585 42.3589C121.228 42.3589 120.904 42.4466 120.615 42.622C120.333 42.7974 120.108 43.0376 119.941 43.3427C119.781 43.6477 119.701 43.9947 119.701 44.3837C119.701 44.7726 119.781 45.1234 119.941 45.4361C120.108 45.7412 120.333 45.9814 120.615 46.1568C120.904 46.3322 121.228 46.4199 121.585 46.4199Z" fill="#743EF9"/>
<path d="M125.838 47.4838V41.295H127.072V42.5419L126.958 42.3589C127.095 41.9547 127.316 41.6649 127.62 41.4895C127.925 41.3065 128.291 41.2149 128.717 41.2149H129.094V42.3932H128.557C128.131 42.3932 127.784 42.5267 127.518 42.7936C127.259 43.0529 127.129 43.4266 127.129 43.9147V47.4838H125.838Z" fill="#743EF9"/>
<path d="M131.643 47.4838V38.9614H132.99V43.5829L132.636 43.4456L136.486 38.9614H138.165L134.761 42.9537L134.83 41.9928L138.302 47.4838H136.714L134.224 43.5829L132.99 45.0243V47.4838H131.643Z" fill="#743EF9"/>
<path d="M138.952 47.4838V41.295H140.243V47.4838H138.952ZM138.952 40.4485V38.9614H140.243V40.4485H138.952Z" fill="#743EF9"/>
<path d="M144.379 47.621C143.785 47.621 143.252 47.48 142.78 47.1978C142.316 46.908 141.946 46.519 141.672 46.031C141.406 45.5429 141.272 44.9938 141.272 44.3837C141.272 43.7736 141.409 43.2245 141.683 42.7364C141.958 42.2483 142.327 41.8632 142.792 41.581C143.256 41.2988 143.782 41.1577 144.368 41.1577C144.863 41.1577 145.301 41.2569 145.682 41.4552C146.062 41.6535 146.363 41.928 146.584 42.2788L146.39 42.5762V38.8241H147.669V47.4838H146.447V46.2254L146.595 46.4657C146.382 46.8394 146.078 47.1253 145.682 47.3236C145.286 47.5219 144.851 47.621 144.379 47.621ZM144.505 46.4199C144.863 46.4199 145.183 46.3322 145.464 46.1568C145.754 45.9814 145.979 45.7412 146.138 45.4361C146.306 45.1234 146.39 44.7726 146.39 44.3837C146.39 43.9947 146.306 43.6477 146.138 43.3427C145.979 43.0376 145.754 42.7974 145.464 42.622C145.183 42.4466 144.863 42.3589 144.505 42.3589C144.147 42.3589 143.823 42.4466 143.534 42.622C143.245 42.7974 143.02 43.0376 142.86 43.3427C142.7 43.6477 142.62 43.9947 142.62 44.3837C142.62 44.7726 142.7 45.1234 142.86 45.4361C143.02 45.7412 143.241 45.9814 143.523 46.1568C143.812 46.3322 144.139 46.4199 144.505 46.4199Z" fill="#743EF9"/>
<path d="M151.232 47.621C150.6 47.621 150.044 47.4647 149.564 47.152C149.092 46.8394 148.761 46.4199 148.571 45.8937L149.564 45.4247C149.732 45.7755 149.96 46.0538 150.25 46.2598C150.547 46.4657 150.874 46.5686 151.232 46.5686C151.537 46.5686 151.784 46.5 151.975 46.3627C152.165 46.2254 152.26 46.0386 152.26 45.8022C152.26 45.6496 152.218 45.5276 152.135 45.4361C152.051 45.337 151.944 45.2569 151.815 45.1959C151.693 45.1349 151.567 45.0891 151.438 45.0586L150.467 44.7841C149.934 44.6315 149.534 44.4027 149.267 44.0977C149.009 43.785 148.879 43.4228 148.879 43.0109C148.879 42.6373 148.974 42.3131 149.165 42.0386C149.355 41.7564 149.618 41.5391 149.953 41.3865C150.288 41.234 150.665 41.1577 151.084 41.1577C151.647 41.1577 152.15 41.2988 152.592 41.581C153.033 41.8556 153.345 42.2407 153.528 42.7364L152.534 43.2054C152.413 42.908 152.218 42.6716 151.952 42.4962C151.693 42.3208 151.4 42.2331 151.072 42.2331C150.79 42.2331 150.566 42.3017 150.398 42.439C150.231 42.5686 150.147 42.7402 150.147 42.9537C150.147 43.0986 150.185 43.2207 150.261 43.3198C150.337 43.4113 150.436 43.4876 150.558 43.5486C150.68 43.602 150.806 43.6477 150.935 43.6859L151.94 43.9833C152.451 44.1282 152.843 44.357 153.117 44.6697C153.391 44.9747 153.528 45.3408 153.528 45.7679C153.528 46.1339 153.429 46.458 153.231 46.7402C153.041 47.0148 152.774 47.2321 152.432 47.3923C152.089 47.5448 151.689 47.621 151.232 47.621Z" fill="#743EF9"/>
<path d="M49.9909 25.3605C49.9925 25.2499 49.9995 25.1404 49.9995 25.0292C49.9995 11.2059 38.8069 0 24.9995 0C11.1921 0 0 11.2059 0 25.0292C0 28.6307 0.776569 32.2193 2.28282 35.4906C3.74327 38.6626 5.87358 41.5152 8.49322 43.8218C11.1279 46.1418 14.2472 47.8981 17.5992 48.9362C21.8452 50.2516 26.2002 49.9753 30.5729 49.9753C33.5789 49.9753 36.5855 49.9753 39.5915 49.9753C42.3605 49.9753 45.1299 49.9753 47.8988 49.9753C49.0543 49.9753 49.9914 49.0376 49.9914 47.8803L49.9909 25.3605Z" fill="#743EF9"/>
<path d="M34.6896 41.3549H14.5285C13.3105 41.3549 12.3238 40.3665 12.3238 39.1476V11.4401C12.3238 10.2212 13.3111 9.23279 14.5285 9.23279H26.488C32.2354 9.23279 36.8943 13.8972 36.8943 19.6515V39.1476C36.8943 40.3665 35.907 41.3549 34.6896 41.3549Z" fill="white"/>
<path d="M28.3008 38.5212C27.4817 39.3413 26.8382 40.2936 26.3839 41.3549H34.6896C35.907 41.3549 36.8943 40.3665 36.8943 39.1476V29.9181L28.3008 38.5212Z" fill="white"/>
<path d="M26.488 9.23279C29.2407 9.23279 29.3205 10.804 29.3205 11.991V14.6078C29.3205 15.8272 30.3077 16.8151 31.5251 16.8151H34.1389C35.3245 16.8151 36.8943 16.8955 36.8943 19.6515C36.8943 13.8972 32.2354 9.23279 26.488 9.23279Z" fill="white"/>
<path d="M31.7601 45.8267L29.079 46.8789C27.9899 47.3062 26.9142 46.2298 27.3411 45.1388L28.3919 42.4545C28.7325 41.5842 29.2493 40.7933 29.9095 40.1323L38.1263 31.9058L42.2963 36.0808L34.0796 44.3074C33.4194 44.9683 32.6299 45.4857 31.7601 45.8267Z" fill="white"/>
<path d="M30.7222 39.3192L34.8923 43.4942L36.5349 41.8497C35.0135 40.5623 34.2111 38.3167 34.7688 35.2683L30.7222 39.3192Z" fill="white"/>
<path d="M30.7222 39.3192L29.9095 40.1323C29.2493 40.7933 28.7325 41.5842 28.3919 42.4545L27.3411 45.1388C26.9142 46.2298 27.9899 47.3062 29.079 46.8789L31.7601 45.8267C32.6299 45.4857 33.4194 44.9683 34.0796 44.3074L34.8923 43.4942L30.7222 39.3192Z" fill="white"/>
<path d="M40.2005 29.8231L44.3695 33.9971L42.2953 36.0738L38.1263 31.8999L40.2005 29.8231Z" fill="white"/>
<path d="M44.3711 34.0036L40.2011 29.8285L41.9347 28.0928C42.5194 27.5074 43.4674 27.5074 44.0526 28.0928L46.1048 30.1474C46.6895 30.7328 46.6895 31.6819 46.1048 32.2673L44.3711 34.0036Z" fill="white"/>
<path d="M29.9305 44.2863C29.3905 43.7457 28.7638 43.3621 28.1225 43.1435L27.3411 45.1388C26.9142 46.2298 27.9899 47.3062 29.079 46.8789L31.0725 46.097C30.8537 45.455 30.4705 44.8275 29.9305 44.2863Z" fill="#FFBF00"/>
<path d="M18.5676 37.2193C19.7986 37.2193 20.7965 36.4236 20.7965 35.442C20.7965 34.4604 19.7986 33.6647 18.5676 33.6647C17.3366 33.6647 16.3387 34.4604 16.3387 35.442C16.3387 36.4236 17.3366 37.2193 18.5676 37.2193Z" fill="white"/>
<path d="M30.65 33.6647C31.8808 33.6647 32.8789 34.4606 32.8789 35.442C32.8789 36.4234 31.8808 37.2193 30.65 37.2193C29.4191 37.2193 28.421 36.4234 28.421 35.442C28.421 34.46 29.4191 33.6647 30.65 33.6647Z" fill="white"/>
<path d="M26.406 34.0764C26.406 32.9644 25.6014 32.8597 24.6088 32.8597C23.6161 32.8597 22.8115 32.9644 22.8115 34.0764C22.8115 35.1884 23.6161 36.09 24.6088 36.09C25.6014 36.0895 26.406 35.1884 26.406 34.0764Z" fill="#FFBF00"/>
<path d="M29.7085 32.4086V33.3199C29.7085 33.6345 29.9634 33.8897 30.2776 33.8897C30.5918 33.8897 30.8467 33.6345 30.8467 33.3199V32.4086C30.8467 32.0941 30.5918 31.8389 30.2776 31.8389C29.9628 31.8394 29.7085 32.0941 29.7085 32.4086ZM29.4767 19.4832C29.1626 19.4832 28.9077 19.7384 28.9077 20.0529V21.3031H27.6154C27.3012 21.3031 27.0463 21.5583 27.0463 21.8728C27.0463 22.1874 27.3012 22.4426 27.6154 22.4426H28.9077V23.7364C28.9077 24.051 29.1626 24.3062 29.4767 24.3062C29.7909 24.3062 30.0458 24.051 30.0458 23.7364V22.4426H31.2945C31.6087 22.4426 31.8636 22.1874 31.8636 21.8728C31.8636 21.5583 31.6087 21.3031 31.2945 21.3031H30.0458V20.0529C30.0453 19.7378 29.7909 19.4832 29.4767 19.4832ZM18.3714 32.4086V33.3199C18.3714 33.6345 18.6263 33.8897 18.9405 33.8897C19.2547 33.8897 19.5096 33.6345 19.5096 33.3199V32.4086C19.5096 32.0941 19.2547 31.8389 18.9405 31.8389C18.6263 31.8389 18.3714 32.0941 18.3714 32.4086ZM46.5068 29.7449L44.4547 27.6903C43.649 26.8836 42.3384 26.8836 41.5327 27.6903L37.4634 31.7644V19.6515C37.4634 13.5924 32.5399 8.66302 26.488 8.66302H16.8129C16.4987 8.66302 16.2438 8.91823 16.2438 9.23279C16.2438 9.54735 16.4987 9.80256 16.8129 9.80256H26.488C28.7514 9.80256 28.7514 10.9156 28.7514 11.9915V14.6083C28.7514 16.1396 29.9957 17.3854 31.5251 17.3854H34.1389C35.214 17.3854 36.3252 17.3854 36.3252 19.6515V32.904C28.9206 40.3174 29.1442 40.039 28.635 40.7857H14.5285C13.6263 40.7857 12.8923 40.0508 12.8923 39.1476V11.4401C12.8923 10.6496 13.455 9.97197 14.2299 9.82899C14.5387 9.77234 14.7435 9.47504 14.6864 9.16588C14.6292 8.85672 14.3328 8.65169 14.0241 8.70888C12.7091 8.95114 11.7547 10.0998 11.7547 11.4401V39.1476C11.7547 40.6789 12.999 41.9247 14.5285 41.9247H27.9985C27.8546 42.2473 27.8724 42.2312 26.8124 44.9311C26.5311 45.6498 26.6949 46.4348 27.2403 46.9808C27.777 47.5182 28.559 47.6947 29.2876 47.4092L31.9687 46.3571C33.8904 45.6034 34.7403 44.384 35.2948 43.8973L36.2579 42.9331C36.4799 42.7108 36.4799 42.3499 36.2579 42.1276C36.0358 41.9053 35.6753 41.9053 35.4533 42.1276L34.8928 42.6887L31.5273 39.3192C32.5205 38.3248 37.3782 33.4613 38.1273 32.7113L41.4928 36.0808L37.3788 40.1998C37.1568 40.4221 37.1568 40.783 37.3788 41.0053C37.6008 41.2276 37.9613 41.2276 38.1834 41.0053L46.5074 32.6714C47.3125 31.8637 47.3125 30.5515 46.5068 29.7449ZM34.1394 16.2459H31.5257C30.6235 16.2459 29.8896 15.511 29.8896 14.6078C29.889 11.6171 29.9461 11.0764 29.6541 10.3254C32.5361 11.309 34.8206 13.5961 35.803 16.4817C35.2005 16.2469 34.5587 16.2459 34.1394 16.2459ZM28.8716 46.3485C28.5773 46.4639 28.2674 46.3992 28.0438 46.1753C27.8201 45.9514 27.7555 45.6417 27.8708 45.3465L28.4388 43.8957C29.2272 44.296 29.9063 44.9618 30.3207 45.7798L28.8716 46.3485ZM34.0871 43.4937L33.677 43.9043C32.6116 44.971 31.4831 45.3125 31.3845 45.3622C30.8612 44.2717 29.9461 43.3551 28.8554 42.8301C28.898 42.7556 29.2289 41.6188 30.3115 40.5348L30.7216 40.1242L34.0871 43.4937ZM42.2963 35.2747L38.9308 31.9052L40.2011 30.6335L43.5665 34.003L42.2963 35.2747ZM45.7022 31.8653L44.3711 33.198L41.0056 29.8285L42.3368 28.4958C42.6989 28.1332 43.2879 28.1332 43.6501 28.4958L45.7022 30.5504C46.0644 30.913 46.0644 31.5027 45.7022 31.8653ZM22.8201 17.1021C22.5415 16.425 21.579 16.4423 21.3236 17.1167L17.3922 27.4513C17.2807 27.7453 17.4278 28.0744 17.7215 28.1861C18.0152 28.2978 18.344 28.1505 18.4555 27.8565L19.2951 25.6497H24.8265L25.658 27.8548C25.7696 28.151 26.0989 28.2973 26.391 28.1867C26.6852 28.0755 26.8334 27.7469 26.7224 27.4529C22.6719 16.7093 22.8266 17.1183 22.8201 17.1021ZM19.7279 24.5107L22.0727 18.3463L24.3964 24.5107H19.7279ZM26.1371 32.543C25.7238 32.3331 25.2274 32.2899 24.6093 32.2899C23.9912 32.2899 23.4943 32.3331 23.081 32.543C22.6989 32.7372 22.243 33.1608 22.243 34.0759C22.243 35.5003 23.3046 36.6587 24.6093 36.6587C25.914 36.6587 26.9751 35.5003 26.9751 34.0759C26.9746 33.1608 26.5192 32.7372 26.1371 32.543ZM24.6088 35.5202C23.9314 35.5202 23.3806 34.8728 23.3806 34.0764C23.3806 33.628 23.4302 33.4295 24.6088 33.4295C25.7874 33.4295 25.837 33.6275 25.837 34.0764C25.837 34.8722 25.2862 35.5202 24.6088 35.5202Z" fill="#FFBF00"/>
</svg>
