<svg width="178" height="50" viewBox="0 0 178 50" fill="none" xmlns="http://www.w3.org/2000/svg">
<path d="M46.445 18.4709H43.2475L44.0379 17.8588V25.924L43.463 25.1679L47.8103 25.96V27.8683H37.4272V25.96L40.9841 25.1319L40.3733 25.924V4.64472L41.0559 5.47285L37.4272 4.75273V2.84444L44.1097 2.66441H47.918C49.8102 2.66441 51.3671 2.98846 52.5886 3.63656C53.8101 4.28466 54.7203 5.1728 55.3191 6.30097C55.9179 7.42915 56.2173 8.72535 56.2173 10.1896C56.2173 11.7978 55.858 13.226 55.1394 14.4742C54.4209 15.7224 53.3311 16.7066 51.87 17.4267C50.4329 18.1228 48.6246 18.4709 46.445 18.4709ZM47.3432 5.36483H43.4271L44.0379 4.71673V16.3825L43.2475 15.7704H46.445C48.3851 15.7704 49.8701 15.2784 50.9 14.2942C51.9539 13.2861 52.4808 11.9418 52.4808 10.2616C52.4808 8.74935 52.0377 7.56117 51.1515 6.69704C50.2892 5.8089 49.0198 5.36483 47.3432 5.36483Z" fill="#1CB098"/>
<path d="M58.3647 27.8683V25.96L61.4545 25.2399L61.0234 25.852V10.9097L61.4904 11.5578L58.3647 10.8017V8.89337L63.8257 8.64133L64.2928 12.1339L63.8257 11.9899C64.9035 10.8617 65.9574 9.98554 66.9873 9.36145C68.0412 8.73735 69.1669 8.4253 70.3645 8.4253C71.1309 8.4253 71.9453 8.54532 72.8075 8.78536L72.5561 14.3302H70.3645L69.8974 10.6937L70.2926 11.4498C70.125 11.4018 69.9453 11.3658 69.7537 11.3418C69.5861 11.3177 69.4184 11.3057 69.2507 11.3057C68.3645 11.3057 67.4903 11.5818 66.628 12.1339C65.7897 12.662 65.0113 13.3461 64.2928 14.1862L64.6161 13.142V25.852L64.1491 25.2399L67.9574 25.96V27.8683H58.3647Z" fill="#1CB098"/>
<path d="M83.1434 8.4253C85.826 8.4253 87.9337 9.26543 89.4666 10.9457C90.9995 12.6019 91.766 14.9543 91.766 18.0028C91.766 20.0671 91.3947 21.8674 90.6522 23.4036C89.9097 24.9399 88.8439 26.128 87.4547 26.9682C86.0894 27.8083 84.4368 28.2284 82.4967 28.2284C79.8381 28.2284 77.7663 27.4122 76.2813 25.78C74.7963 24.1237 74.0538 21.7714 74.0538 18.7229C74.0538 16.5866 74.413 14.7503 75.1316 13.214C75.8501 11.6778 76.8801 10.5016 78.2213 9.6855C79.5866 8.84537 81.2273 8.4253 83.1434 8.4253ZM82.9638 11.0537C81.2632 11.0537 79.9698 11.7018 79.0836 12.998C78.2213 14.2702 77.7902 16.1185 77.7902 18.5429C77.7902 20.9192 78.2094 22.6955 79.0477 23.8717C79.886 25.0239 81.1075 25.6 82.7123 25.6C83.8859 25.6 84.8559 25.3119 85.6224 24.7358C86.4128 24.1597 86.9996 23.3196 87.3828 22.2154C87.79 21.0873 87.9936 19.743 87.9936 18.1828C87.9936 15.8064 87.5625 14.0302 86.7002 12.854C85.8379 11.6538 84.5925 11.0537 82.9638 11.0537Z" fill="#1CB098"/>
<path d="M106.43 15.2304L106.682 14.8343C108.311 14.8583 109.7 15.0983 110.85 15.5544C112.023 16.0105 112.909 16.6946 113.508 17.6067C114.107 18.4949 114.406 19.623 114.406 20.9912C114.406 22.3835 114.071 23.5956 113.4 24.6278C112.73 25.66 111.7 26.4641 110.311 27.0402C108.945 27.5923 107.209 27.8683 105.101 27.8683H94.8619V25.96L98.3468 25.1319L97.8079 25.924V4.71673L98.4546 5.50885L94.8619 4.75273V2.84444L101.329 2.66441H105.532C107.257 2.66441 108.706 2.90445 109.88 3.38452C111.053 3.84059 111.939 4.5247 112.538 5.43684C113.137 6.34898 113.436 7.48916 113.436 8.85737C113.436 10.6576 112.873 12.0979 111.748 13.178C110.646 14.2582 108.874 14.9423 106.43 15.2304ZM104.778 5.32882H100.862L101.473 4.68072V14.2942L100.862 13.7181H103.916C105.161 13.7181 106.215 13.5621 107.077 13.25C107.963 12.938 108.622 12.4579 109.053 11.8098C109.508 11.1617 109.736 10.3456 109.736 9.36145C109.736 8.4013 109.532 7.63318 109.125 7.05709C108.742 6.457 108.179 6.02493 107.436 5.76089C106.718 5.47285 105.832 5.32882 104.778 5.32882ZM104.778 25.2039C106.047 25.2039 107.113 25.0479 107.975 24.7358C108.838 24.3998 109.496 23.9077 109.951 23.2596C110.406 22.5875 110.634 21.7474 110.634 20.7392C110.634 19.7551 110.43 18.9389 110.023 18.2908C109.616 17.6427 109.041 17.1506 108.299 16.8146C107.58 16.4785 106.73 16.3105 105.748 16.3105H100.862L101.473 15.6264V25.816L100.862 25.2039H104.778Z" fill="#1CB098"/>
<path d="M126.719 8.4253C129.402 8.4253 131.51 9.26543 133.043 10.9457C134.575 12.6019 135.342 14.9543 135.342 18.0028C135.342 20.0671 134.971 21.8674 134.228 23.4036C133.486 24.9399 132.42 26.128 131.031 26.9682C129.665 27.8083 128.013 28.2284 126.073 28.2284C123.414 28.2284 121.342 27.4122 119.857 25.78C118.372 24.1237 117.63 21.7714 117.63 18.7229C117.63 16.5866 117.989 14.7503 118.708 13.214C119.426 11.6778 120.456 10.5016 121.797 9.6855C123.163 8.84537 124.803 8.4253 126.719 8.4253ZM126.54 11.0537C124.839 11.0537 123.546 11.7018 122.66 12.998C121.797 14.2702 121.366 16.1185 121.366 18.5429C121.366 20.9192 121.785 22.6955 122.624 23.8717C123.462 25.0239 124.683 25.6 126.288 25.6C127.462 25.6 128.432 25.3119 129.198 24.7358C129.989 24.1597 130.576 23.3196 130.959 22.2154C131.366 21.0873 131.57 19.743 131.57 18.1828C131.57 15.8064 131.138 14.0302 130.276 12.854C129.414 11.6538 128.168 11.0537 126.54 11.0537Z" fill="#1CB098"/>
<path d="M147.42 8.4253C150.102 8.4253 152.21 9.26543 153.743 10.9457C155.276 12.6019 156.042 14.9543 156.042 18.0028C156.042 20.0671 155.671 21.8674 154.928 23.4036C154.186 24.9399 153.12 26.128 151.731 26.9682C150.366 27.8083 148.713 28.2284 146.773 28.2284C144.114 28.2284 142.043 27.4122 140.558 25.78C139.073 24.1237 138.33 21.7714 138.33 18.7229C138.33 16.5866 138.689 14.7503 139.408 13.214C140.126 11.6778 141.156 10.5016 142.498 9.6855C143.863 8.84537 145.504 8.4253 147.42 8.4253ZM147.24 11.0537C145.539 11.0537 144.246 11.7018 143.36 12.998C142.498 14.2702 142.066 16.1185 142.066 18.5429C142.066 20.9192 142.486 22.6955 143.324 23.8717C144.162 25.0239 145.384 25.6 146.989 25.6C148.162 25.6 149.132 25.3119 149.899 24.7358C150.689 24.1597 151.276 23.3196 151.659 22.2154C152.066 21.0873 152.27 19.743 152.27 18.1828C152.27 15.8064 151.839 14.0302 150.976 12.854C150.114 11.6538 148.869 11.0537 147.24 11.0537Z" fill="#1CB098"/>
<path d="M158.276 27.8683V25.96L161.473 25.2039L160.97 25.924V2.37637L161.294 2.84444L158.276 2.16033V0.25204L164.563 0V16.6706L163.916 16.1305H168.767L167.868 16.5626L171.461 10.8017L171.749 11.2337L168.946 10.8017V8.89337L177.138 8.64133V10.5136L173.976 11.1977L174.982 10.5856L170.599 17.4987V16.4905L175.737 25.816L175.126 25.2759L178 25.996V27.8683H173.078L167.976 18.2908L168.623 18.5789H163.916L164.563 18.2548V25.924L164.132 25.2039L167.15 25.96V27.8683H158.276Z" fill="#1CB098"/>
<path d="M44.4395 38.4233V46.7437H43.0777V43.1043H39.1714V46.7437H37.8096V38.4233H39.1714V41.9909H43.0777V38.4233H44.4395Z" fill="#1CB098"/>
<path d="M46.9252 39.2733C46.6783 39.2733 46.4713 39.1895 46.304 39.0219C46.1368 38.8543 46.0532 38.6468 46.0532 38.3993C46.0532 38.1519 46.1368 37.9444 46.304 37.7768C46.4713 37.6092 46.6783 37.5254 46.9252 37.5254C47.1641 37.5254 47.3672 37.6092 47.5344 37.7768C47.7017 37.9444 47.7853 38.1519 47.7853 38.3993C47.7853 38.6468 47.7017 38.8543 47.5344 39.0219C47.3672 39.1895 47.1641 39.2733 46.9252 39.2733ZM47.5942 40.1472V46.7437H46.2323V40.1472H47.5942Z" fill="#1CB098"/>
<path d="M52.0341 40.0395C52.5438 40.0395 52.9938 40.1432 53.384 40.3508C53.7822 40.5503 54.0928 40.8017 54.3158 41.105V40.1472H55.6896V46.8515C55.6896 47.4581 55.5621 47.9968 55.3073 48.4677C55.0525 48.9466 54.6821 49.3217 54.1963 49.593C53.7185 49.8644 53.1451 50.0001 52.4761 50.0001C51.5842 50.0001 50.8435 49.7886 50.2542 49.3656C49.6649 48.9506 49.3304 48.3839 49.2507 47.6656H50.6006C50.7042 48.0088 50.9232 48.2841 51.2576 48.4916C51.6001 48.7071 52.0063 48.8149 52.4761 48.8149C53.0256 48.8149 53.4676 48.6473 53.8021 48.3121C54.1446 47.9768 54.3158 47.49 54.3158 46.8515V45.7501C54.0848 46.0613 53.7703 46.3247 53.3721 46.5402C52.9818 46.7477 52.5359 46.8515 52.0341 46.8515C51.4607 46.8515 50.9351 46.7078 50.4573 46.4205C49.9874 46.1252 49.6131 45.7181 49.3344 45.1994C49.0636 44.6726 48.9282 44.078 48.9282 43.4156C48.9282 42.7531 49.0636 42.1665 49.3344 41.6557C49.6131 41.1449 49.9874 40.7498 50.4573 40.4705C50.9351 40.1831 51.4607 40.0395 52.0341 40.0395ZM54.3158 43.4395C54.3158 42.9846 54.2202 42.5895 54.0291 42.2543C53.8459 41.9191 53.603 41.6637 53.3004 41.4881C52.9978 41.3125 52.6712 41.2247 52.3208 41.2247C51.9704 41.2247 51.6439 41.3125 51.3413 41.4881C51.0386 41.6557 50.7918 41.9071 50.6006 42.2423C50.4174 42.5695 50.3259 42.9606 50.3259 43.4156C50.3259 43.8705 50.4174 44.2696 50.6006 44.6127C50.7918 44.9559 51.0386 45.2193 51.3413 45.4029C51.6519 45.5785 51.9784 45.6663 52.3208 45.6663C52.6712 45.6663 52.9978 45.5785 53.3004 45.4029C53.603 45.2273 53.8459 44.9719 54.0291 44.6367C54.2202 44.2935 54.3158 43.8944 54.3158 43.4395Z" fill="#1CB098"/>
<path d="M60.8828 40.0395C61.3846 40.0395 61.8306 40.1472 62.2208 40.3627C62.619 40.5782 62.9296 40.8975 63.1526 41.3205C63.3835 41.7435 63.499 42.2543 63.499 42.8529V46.7437H62.1491V43.0564C62.1491 42.4658 62.0018 42.0148 61.7071 41.7036C61.4124 41.3843 61.0103 41.2247 60.5006 41.2247C59.9909 41.2247 59.5847 41.3843 59.2821 41.7036C58.9874 42.0148 58.8401 42.4658 58.8401 43.0564V46.7437H57.4783V37.8845H58.8401V40.9134C59.0711 40.6341 59.3617 40.4186 59.7122 40.267C60.0705 40.1153 60.4608 40.0395 60.8828 40.0395Z" fill="#1CB098"/>
<path d="M74.7661 48.2522L73.3087 46.6719C72.9503 46.7757 72.5561 46.8275 72.1261 46.8275C71.3536 46.8275 70.6408 46.648 69.9878 46.2888C69.3427 45.9217 68.829 45.4149 68.4467 44.7684C68.0724 44.1139 67.8853 43.3796 67.8853 42.5656C67.8853 41.7515 68.0724 41.0212 68.4467 40.3747C68.829 39.7282 69.3427 39.2254 69.9878 38.8662C70.6408 38.4991 71.3536 38.3155 72.1261 38.3155C72.9065 38.3155 73.6193 38.4991 74.2644 38.8662C74.9174 39.2254 75.4311 39.7282 75.8054 40.3747C76.1797 41.0212 76.3669 41.7515 76.3669 42.5656C76.3669 43.3318 76.1996 44.0261 75.8651 44.6487C75.5386 45.2632 75.0847 45.7581 74.5033 46.1332L76.4983 48.2522H74.7661ZM69.2829 42.5656C69.2829 43.1801 69.4024 43.7228 69.6413 44.1937C69.8882 44.6566 70.2267 45.0158 70.6567 45.2712C71.0868 45.5186 71.5766 45.6423 72.1261 45.6423C72.6756 45.6423 73.1654 45.5186 73.5954 45.2712C74.0255 45.0158 74.3599 44.6566 74.5989 44.1937C74.8457 43.7228 74.9692 43.1801 74.9692 42.5656C74.9692 41.951 74.8457 41.4123 74.5989 40.9493C74.3599 40.4864 74.0255 40.1313 73.5954 39.8839C73.1654 39.6364 72.6756 39.5127 72.1261 39.5127C71.5766 39.5127 71.0868 39.6364 70.6567 39.8839C70.2267 40.1313 69.8882 40.4864 69.6413 40.9493C69.4024 41.4123 69.2829 41.951 69.2829 42.5656Z" fill="#1CB098"/>
<path d="M83.7029 40.1472V46.7437H82.3411V45.9656C82.1261 46.2369 81.8434 46.4524 81.4929 46.6121C81.1505 46.7637 80.7842 46.8395 80.3939 46.8395C79.8763 46.8395 79.4104 46.7318 78.9963 46.5163C78.5901 46.3008 78.2676 45.9815 78.0286 45.5585C77.7977 45.1355 77.6822 44.6247 77.6822 44.0261V40.1472H79.0321V43.8226C79.0321 44.4132 79.1794 44.8681 79.4741 45.1874C79.7688 45.4987 80.1709 45.6543 80.6806 45.6543C81.1903 45.6543 81.5925 45.4987 81.8872 45.1874C82.1898 44.8681 82.3411 44.4132 82.3411 43.8226V40.1472H83.7029Z" fill="#1CB098"/>
<path d="M85.0458 43.4156C85.0458 42.7531 85.1812 42.1665 85.452 41.6557C85.7307 41.1449 86.105 40.7498 86.5749 40.4705C87.0527 40.1831 87.5783 40.0395 88.1517 40.0395C88.6694 40.0395 89.1194 40.1432 89.5016 40.3508C89.8919 40.5503 90.2025 40.8017 90.4334 41.105V40.1472H91.8072V46.7437H90.4334V45.762C90.2025 46.0733 89.8879 46.3327 89.4897 46.5402C89.0915 46.7477 88.6375 46.8515 88.1278 46.8515C87.5624 46.8515 87.0448 46.7078 86.5749 46.4205C86.105 46.1252 85.7307 45.7181 85.452 45.1994C85.1812 44.6726 85.0458 44.078 85.0458 43.4156ZM90.4334 43.4395C90.4334 42.9846 90.3378 42.5895 90.1467 42.2543C89.9635 41.9191 89.7206 41.6637 89.418 41.4881C89.1154 41.3125 88.7889 41.2247 88.4384 41.2247C88.088 41.2247 87.7615 41.3125 87.4589 41.4881C87.1563 41.6557 86.9094 41.9071 86.7182 42.2423C86.5351 42.5695 86.4435 42.9606 86.4435 43.4156C86.4435 43.8705 86.5351 44.2696 86.7182 44.6127C86.9094 44.9559 87.1563 45.2193 87.4589 45.4029C87.7695 45.5785 88.096 45.6663 88.4384 45.6663C88.7889 45.6663 89.1154 45.5785 89.418 45.4029C89.7206 45.2273 89.9635 44.9719 90.1467 44.6367C90.3378 44.2935 90.4334 43.8944 90.4334 43.4395Z" fill="#1CB098"/>
<path d="M94.9577 37.8845V46.7437H93.5959V37.8845H94.9577Z" fill="#1CB098"/>
<path d="M97.4385 39.2733C97.1917 39.2733 96.9846 39.1895 96.8174 39.0219C96.6501 38.8543 96.5665 38.6468 96.5665 38.3993C96.5665 38.1519 96.6501 37.9444 96.8174 37.7768C96.9846 37.6092 97.1917 37.5254 97.4385 37.5254C97.6775 37.5254 97.8805 37.6092 98.0478 37.7768C98.215 37.9444 98.2986 38.1519 98.2986 38.3993C98.2986 38.6468 98.215 38.8543 98.0478 39.0219C97.8805 39.1895 97.6775 39.2733 97.4385 39.2733ZM98.1075 40.1472V46.7437H96.7457V40.1472H98.1075Z" fill="#1CB098"/>
<path d="M101.484 41.2606V44.912C101.484 45.1595 101.54 45.339 101.652 45.4508C101.771 45.5545 101.97 45.6064 102.249 45.6064H103.085V46.7437H102.01C101.397 46.7437 100.927 46.6001 100.6 46.3128C100.274 46.0254 100.111 45.5585 100.111 44.912V41.2606H99.334V40.1472H100.111V38.5071H101.484V40.1472H103.085V41.2606H101.484Z" fill="#1CB098"/>
<path d="M110.265 40.1472L106.228 49.8445H104.818L106.156 46.636L103.564 40.1472H105.081L106.932 45.1754L108.856 40.1472H110.265Z" fill="#1CB098"/>
<path d="M118.84 42.4698C119.286 42.5496 119.664 42.785 119.975 43.1761C120.286 43.5672 120.441 44.0102 120.441 44.505C120.441 44.928 120.329 45.3111 120.106 45.6543C119.891 45.9895 119.577 46.2569 119.163 46.4564C118.748 46.648 118.267 46.7437 117.717 46.7437H114.396V38.4233H117.562C118.127 38.4233 118.613 38.5191 119.019 38.7106C119.425 38.9022 119.732 39.1615 119.939 39.4888C120.146 39.808 120.25 40.1672 120.25 40.5662C120.25 41.0451 120.122 41.4442 119.867 41.7634C119.613 42.0827 119.27 42.3181 118.84 42.4698ZM115.758 41.9191H117.442C117.888 41.9191 118.235 41.8193 118.482 41.6198C118.737 41.4123 118.864 41.117 118.864 40.7339C118.864 40.3587 118.737 40.0674 118.482 39.8599C118.235 39.6444 117.888 39.5367 117.442 39.5367H115.758V41.9191ZM117.598 45.6304C118.06 45.6304 118.422 45.5186 118.685 45.2951C118.948 45.0717 119.079 44.7604 119.079 44.3613C119.079 43.9543 118.94 43.6311 118.661 43.3916C118.382 43.1522 118.012 43.0325 117.55 43.0325H115.758V45.6304H117.598Z" fill="#1CB098"/>
<path d="M124.776 46.8515C124.155 46.8515 123.593 46.7118 123.091 46.4325C122.59 46.1451 122.195 45.7461 121.909 45.2353C121.622 44.7165 121.479 44.1179 121.479 43.4395C121.479 42.7691 121.626 42.1745 121.921 41.6557C122.215 41.1369 122.618 40.7378 123.127 40.4585C123.637 40.1792 124.206 40.0395 124.835 40.0395C125.465 40.0395 126.034 40.1792 126.544 40.4585C127.053 40.7378 127.456 41.1369 127.75 41.6557C128.045 42.1745 128.192 42.7691 128.192 43.4395C128.192 44.1099 128.041 44.7045 127.738 45.2233C127.436 45.7421 127.022 46.1451 126.496 46.4325C125.978 46.7118 125.405 46.8515 124.776 46.8515ZM124.776 45.6663C125.126 45.6663 125.453 45.5825 125.755 45.4149C126.066 45.2473 126.317 44.9958 126.508 44.6606C126.699 44.3254 126.795 43.9184 126.795 43.4395C126.795 42.9606 126.703 42.5576 126.52 42.2303C126.337 41.8951 126.094 41.6437 125.791 41.4761C125.489 41.3085 125.162 41.2247 124.812 41.2247C124.461 41.2247 124.135 41.3085 123.832 41.4761C123.537 41.6437 123.302 41.8951 123.127 42.2303C122.952 42.5576 122.864 42.9606 122.864 43.4395C122.864 44.1498 123.044 44.7005 123.402 45.0916C123.768 45.4747 124.226 45.6663 124.776 45.6663Z" fill="#1CB098"/>
<path d="M132.394 46.8515C131.772 46.8515 131.211 46.7118 130.709 46.4325C130.207 46.1451 129.813 45.7461 129.527 45.2353C129.24 44.7165 129.097 44.1179 129.097 43.4395C129.097 42.7691 129.244 42.1745 129.539 41.6557C129.833 41.1369 130.235 40.7378 130.745 40.4585C131.255 40.1792 131.824 40.0395 132.453 40.0395C133.082 40.0395 133.652 40.1792 134.162 40.4585C134.671 40.7378 135.073 41.1369 135.368 41.6557C135.663 42.1745 135.81 42.7691 135.81 43.4395C135.81 44.1099 135.659 44.7045 135.356 45.2233C135.054 45.7421 134.639 46.1451 134.114 46.4325C133.596 46.7118 133.023 46.8515 132.394 46.8515ZM132.394 45.6663C132.744 45.6663 133.071 45.5825 133.373 45.4149C133.684 45.2473 133.935 44.9958 134.126 44.6606C134.317 44.3254 134.412 43.9184 134.412 43.4395C134.412 42.9606 134.321 42.5576 134.138 42.2303C133.955 41.8951 133.712 41.6437 133.409 41.4761C133.106 41.3085 132.78 41.2247 132.429 41.2247C132.079 41.2247 131.752 41.3085 131.45 41.4761C131.155 41.6437 130.92 41.8951 130.745 42.2303C130.57 42.5576 130.482 42.9606 130.482 43.4395C130.482 44.1498 130.661 44.7005 131.02 45.0916C131.386 45.4747 131.844 45.6663 132.394 45.6663Z" fill="#1CB098"/>
<path d="M139.761 43.4515L142.795 46.7437H140.955L138.518 43.9064V46.7437H137.156V37.8845H138.518V43.0325L140.907 40.1472H142.795L139.761 43.4515Z" fill="#1CB098"/>
<path d="M146.16 46.8515C145.642 46.8515 145.177 46.7597 144.762 46.5761C144.356 46.3846 144.034 46.1292 143.795 45.8099C143.556 45.4827 143.428 45.1196 143.413 44.7205H144.822C144.846 44.9998 144.977 45.2353 145.216 45.4268C145.463 45.6104 145.77 45.7022 146.136 45.7022C146.518 45.7022 146.813 45.6304 147.02 45.4867C147.235 45.335 147.343 45.1435 147.343 44.912C147.343 44.6646 147.223 44.4811 146.984 44.3613C146.753 44.2416 146.383 44.1099 145.873 43.9663C145.38 43.8306 144.977 43.6989 144.667 43.5712C144.356 43.4435 144.085 43.248 143.855 42.9846C143.632 42.7212 143.52 42.374 143.52 41.943C143.52 41.5918 143.624 41.2726 143.831 40.9853C144.038 40.69 144.332 40.4585 144.715 40.2909C145.105 40.1233 145.551 40.0395 146.053 40.0395C146.801 40.0395 147.402 40.231 147.856 40.6141C148.318 40.9893 148.565 41.504 148.597 42.1585H147.235C147.211 41.8632 147.092 41.6278 146.877 41.4522C146.662 41.2766 146.371 41.1888 146.005 41.1888C145.646 41.1888 145.372 41.2566 145.181 41.3923C144.989 41.528 144.894 41.7076 144.894 41.931C144.894 42.1066 144.958 42.2543 145.085 42.374C145.212 42.4937 145.368 42.5895 145.551 42.6613C145.734 42.7252 146.005 42.809 146.363 42.9127C146.841 43.0404 147.231 43.1721 147.534 43.3078C147.844 43.4355 148.111 43.6271 148.334 43.8825C148.557 44.1379 148.673 44.4771 148.681 44.9001C148.681 45.2752 148.577 45.6104 148.37 45.9057C148.163 46.201 147.868 46.4325 147.486 46.6001C147.112 46.7677 146.67 46.8515 146.16 46.8515Z" fill="#1CB098"/>
<path d="M0.954101 39.2547C0.954101 39.2547 2.59429 37.0573 6.85869 37.1149C11.1231 37.1725 29.3839 37.114 29.3839 37.114V6.59863H4.67193C4.67193 6.59863 0.735376 7.91384 0.954101 10.8723C1.17283 13.8313 0.954101 39.2547 0.954101 39.2547Z" fill="#1CB098"/>
<path d="M4.66467 45.5103H29.8542C30.3674 45.5103 30.787 45.0894 30.787 44.5755V37.0956V6.24151C30.787 5.72714 30.367 5.30664 29.8542 5.30664H4.66467C2.08971 5.30664 8.36537e-08 7.4009 8.36537e-08 9.98147V40.836C-0.000482752 43.4156 2.08923 45.5103 4.66467 45.5103ZM5.59751 7.1759H28.9214V36.1602H5.59751V7.1759ZM1.86568 9.98099C1.86568 8.76546 2.64932 7.7372 3.73135 7.34429V36.2541C3.0409 36.3944 2.40645 36.7026 1.86568 37.1144V9.98099ZM4.66467 38.0304H28.9214V39.9002H19.592C19.0788 39.9002 18.6592 40.3211 18.6592 40.835C18.6592 41.3494 19.0792 41.7699 19.592 41.7699H28.9214V43.6396H4.66467C3.12539 43.6396 1.86568 42.3777 1.86568 40.8346C1.86568 39.2924 3.12491 38.0304 4.66467 38.0304Z" fill="#1CB098"/>
<path d="M26.1223 11.8525H8.39646C7.88321 11.8525 7.46362 12.273 7.46362 12.7874V21.2022C7.46362 21.7166 7.88369 22.1371 8.39646 22.1371H26.1223C26.6356 22.1371 27.0552 21.7161 27.0552 21.2022V12.7874C27.0552 12.273 26.6351 11.8525 26.1223 11.8525ZM25.189 20.2673H9.3293V13.7223H25.1895L25.189 20.2673Z" fill="#1CB098"/>
<path d="M172.738 41.5762L176.833 44.4698V44.5279H160.445V38.46H176.833L172.738 41.5762Z" fill="#1CB098"/>
<path d="M176.833 45.4957H160.445C159.912 45.4957 159.479 45.0621 159.479 44.5279V38.46C159.479 37.9257 159.912 37.4922 160.445 37.4922H176.833C177.247 37.4922 177.615 37.7574 177.748 38.1512C177.881 38.5446 177.747 38.9792 177.417 39.2303L174.373 41.5467L177.389 43.6782C177.645 43.8596 177.798 44.1543 177.798 44.4693V44.5274C177.798 45.0626 177.366 45.4957 176.833 45.4957ZM161.411 43.5601H173.87L172.182 42.3669C171.93 42.1888 171.778 41.9014 171.772 41.5926C171.767 41.2839 171.909 40.9917 172.154 40.8049L173.964 39.4272H161.411V43.5601Z" fill="#1CB098"/>
</svg>
