<svg width="171" height="50" viewBox="0 0 171 50" fill="none" xmlns="http://www.w3.org/2000/svg">
<path d="M65.2884 27.7265C58.3509 27.7265 54.6914 23.3967 54.6914 17.2227C54.6914 11.0488 58.3509 6.46289 65.2884 6.46289C72.2763 6.46289 75.8853 11.0488 75.8853 17.2227C75.8853 23.3975 72.1241 27.7265 65.2884 27.7265ZM65.2884 10.3573C60.9174 10.3573 59.088 13.2265 59.088 17.2235C59.088 21.0921 60.9174 23.8329 65.2884 23.8329C69.7098 23.8329 71.4887 21.0921 71.4887 17.2235C71.4895 13.3283 69.7098 10.3573 65.2884 10.3573Z" fill="#1882FF"/>
<path d="M98.3741 27.4702H94.7403L85.4647 16.0439L83.9398 13.6108H83.8894V27.4702H79.5688V6.71875H83.2027L92.5801 18.145L94.0031 20.5022H94.0536V6.71875H98.3741V27.4702Z" fill="#1882FF"/>
<path d="M118.78 27.4702H102.948V6.71875H107.269V23.1913L106.887 23.5758H118.781V27.4702H118.78Z" fill="#1882FF"/>
<path d="M125.894 27.4702H121.574V6.71875H125.894V27.4702Z" fill="#1882FF"/>
<path d="M149.4 27.4702H145.766L136.49 16.0439L134.965 13.6108H134.915V27.4702H130.595V6.71875H134.229L143.606 18.145L145.03 20.5022H145.081V6.71875H149.4V27.4702H149.4Z" fill="#1882FF"/>
<path d="M170.999 27.4702H153.974V6.71875H171V10.6131H157.888L158.294 11.0227V14.7369L157.888 15.1465H169.781V19.0408H157.888L158.294 19.4512V23.1655L157.888 23.575H171L170.999 27.4702Z" fill="#1882FF"/>
<path d="M60.4045 34.5068L56.9573 39.3536V42.8594H55.9758V39.3536L52.519 34.5068H53.7466L55.894 37.5692L56.4565 38.5289H56.4766L57.0286 37.5692L59.1865 34.5068H60.4045Z" fill="#1882FF"/>
<path d="M64.7965 42.9619C62.25 42.9619 60.9199 41.2712 60.9199 38.7347C60.9199 36.1982 62.2597 34.4033 64.7965 34.4033C67.3534 34.4033 68.6835 36.1877 68.6835 38.7347C68.6835 41.2712 67.3125 42.9619 64.7965 42.9619ZM64.8069 35.3323C62.7412 35.3323 61.9223 36.8679 61.9223 38.7347C61.9223 40.57 62.7508 42.0338 64.8069 42.0338C66.8726 42.0338 67.6811 40.5692 67.6811 38.7347C67.6811 36.9196 66.883 35.3323 64.8069 35.3323Z" fill="#1882FF"/>
<path d="M77.1456 39.0337C77.1456 41.5912 76.0302 42.962 73.6376 42.962C71.2441 42.962 70.1191 41.6114 70.1191 39.0337V34.5068H71.0903V39.0232C71.0903 40.8795 71.7553 42.0347 73.6368 42.0347C75.4885 42.0347 76.1736 40.8795 76.1736 39.0232V34.5068H77.1456V39.0337Z" fill="#1882FF"/>
<path d="M86.0183 42.8596H84.9238L83.8909 40.6632C83.4919 39.8078 82.8685 39.416 81.7739 39.416H79.81L79.9125 39.5194V42.8604H78.9414V34.5078H82.572C84.0856 34.5078 85.3541 35.3229 85.3541 36.9732C85.3541 38.0653 84.6081 38.8804 83.697 39.1179V39.1381C84.0856 39.3029 84.5055 39.6745 84.7811 40.2521L86.0183 42.8596ZM82.5712 35.436H79.8092L79.9118 35.5393V38.3852L79.8092 38.4886H82.4582C83.6553 38.4886 84.3501 37.8594 84.3501 36.9732C84.3509 35.8584 83.584 35.436 82.5712 35.436Z" fill="#1882FF"/>
<path d="M94.0527 42.8594H90.1665V34.5068H93.9606C95.6793 34.5068 96.4766 35.5691 96.4766 36.7549C96.4766 37.5385 96.2001 38.0442 95.5463 38.4456V38.4658C96.4053 38.8471 96.8348 39.5596 96.8348 40.4869C96.8348 41.9409 95.8732 42.8594 94.0527 42.8594ZM93.858 35.4358H91.0351L91.1376 35.5392V37.9933L91.0351 38.0967H93.858C95.0447 38.0967 95.4742 37.4981 95.4742 36.7565C95.4742 35.8679 94.9221 35.4358 93.858 35.4358ZM94.0423 39.0232H91.0351L91.1376 39.1266V41.8287L91.0351 41.9321H94.0527C95.3203 41.9321 95.8324 41.4167 95.8324 40.4877C95.8324 39.5798 95.2698 39.0232 94.0423 39.0232Z" fill="#1882FF"/>
<path d="M105.195 39.0337C105.195 41.5912 104.08 42.962 101.686 42.962C99.293 42.962 98.168 41.6114 98.168 39.0337V34.5068H99.1391V39.0232C99.1391 40.8795 99.8042 42.0347 101.686 42.0347C103.537 42.0347 104.222 40.8795 104.222 39.0232V34.5068H105.194V39.0337H105.195Z" fill="#1882FF"/>
<path d="M110.139 42.9623C108.81 42.9623 107.419 42.5285 106.58 41.6011L107.348 40.8798C108.228 41.6948 109.046 42.0349 110.099 42.0349C111.633 42.0349 112.441 41.4476 112.441 40.6536C112.441 40.0865 111.96 39.5598 110.835 39.2618C110.651 39.2101 109.495 38.9007 109.311 38.849C107.797 38.4273 106.795 37.8796 106.795 36.6631C106.795 35.5088 107.787 34.4053 110.037 34.4053C111.366 34.4053 112.491 34.8802 113.207 35.6848L112.471 36.3957C111.949 35.7664 111.131 35.3343 110.047 35.3343C108.493 35.3343 107.797 35.9425 107.797 36.6235C107.797 37.2625 108.431 37.5929 109.801 37.9741C109.986 38.025 110.947 38.294 111.142 38.3449C112.778 38.7787 113.443 39.6236 113.443 40.5922C113.443 41.7562 112.563 42.9623 110.139 42.9623Z" fill="#1882FF"/>
<path d="M115.901 42.8594H114.93V34.5068H115.901V42.8594Z" fill="#1882FF"/>
<path d="M124.597 42.8594H123.708L119.422 37.1265L118.788 36.1466H118.767V42.8594H117.796V34.5068H118.685L123.001 40.2809L123.605 41.2196H123.625V34.5068H124.597V42.8594Z" fill="#1882FF"/>
<path d="M132.528 42.8594H126.442V34.5068H132.528V35.4358H127.312L127.414 35.5392V38.1169L127.312 38.2203H132.037V39.1476H127.312L127.414 39.251V41.8287L127.312 41.9321H132.528V42.8594Z" fill="#1882FF"/>
<path d="M137.319 42.9623C135.989 42.9623 134.599 42.5285 133.76 41.6011L134.527 40.8798C135.406 41.6948 136.225 42.0349 137.278 42.0349C138.812 42.0349 139.62 41.4476 139.62 40.6536C139.62 40.0865 139.14 39.5598 138.015 39.2618C137.83 39.2101 136.675 38.9007 136.491 38.849C134.977 38.4273 133.975 37.8796 133.975 36.6631C133.975 35.5088 134.966 34.4053 137.216 34.4053C138.546 34.4053 139.672 34.8802 140.387 35.6848L139.651 36.3957C139.129 35.7664 138.311 35.3343 137.227 35.3343C135.672 35.3343 134.977 35.9425 134.977 36.6235C134.977 37.2625 135.611 37.5929 136.982 37.9741C137.165 38.025 138.127 38.294 138.321 38.3449C139.958 38.7787 140.623 39.6236 140.623 40.5922C140.622 41.7562 139.742 42.9623 137.319 42.9623Z" fill="#1882FF"/>
<path d="M145.207 42.9623C143.877 42.9623 142.487 42.5285 141.648 41.6011L142.416 40.8798C143.295 41.6948 144.113 42.0349 145.167 42.0349C146.702 42.0349 147.509 41.4476 147.509 40.6536C147.509 40.0865 147.029 39.5598 145.904 39.2618C145.719 39.2101 144.564 38.9007 144.38 38.849C142.866 38.4273 141.863 37.8796 141.863 36.6631C141.863 35.5088 142.855 34.4053 145.105 34.4053C146.435 34.4053 147.561 34.8802 148.276 35.6848L147.54 36.3957C147.018 35.7664 146.2 35.3343 145.117 35.3343C143.562 35.3343 142.866 35.9425 142.866 36.6235C142.866 37.2625 143.5 37.5929 144.871 37.9741C145.054 38.025 146.016 38.294 146.21 38.3449C147.847 38.7787 148.512 39.6236 148.512 40.5922C148.511 41.7562 147.631 42.9623 145.207 42.9623Z" fill="#1882FF"/>
<path d="M38.9351 6.23047H18.7994C16.723 6.23047 15.0239 7.9425 15.0239 10.0362V46.1943C15.0239 48.2876 16.723 50 18.7994 50H38.9351C41.0119 50 42.7101 48.2876 42.7101 46.1943V10.0362C42.7101 7.9425 41.0119 6.23047 38.9351 6.23047ZM28.8675 48.0983C28.0564 48.0983 27.3996 47.434 27.3996 46.6176C27.3996 45.8004 28.0568 45.1369 28.8675 45.1369C29.6781 45.1369 30.3353 45.8004 30.3353 46.6176C30.3353 47.434 29.6781 48.0983 28.8675 48.0983Z" fill="#1882FF"/>
<path d="M35.6839 7.92188H18.3804C17.4555 7.92188 16.7026 8.68916 16.7026 9.63347V42.0411C16.7026 42.9858 17.4555 43.754 18.3804 43.754H39.3542C40.2791 43.754 41.032 42.9858 41.032 42.0411V13.3143L35.6839 7.92188Z" fill="white"/>
<path d="M36.7929 13.9076C35.8566 13.9076 35.0942 13.1495 35.0942 12.2166V8.51562L40.4427 13.9076H36.7929Z" fill="#1882FF"/>
<path d="M33.587 17.9767H20.5823C20.402 17.9767 20.2563 17.8299 20.2563 17.6485C20.2563 17.4671 20.402 17.3203 20.5823 17.3203H33.587C33.7665 17.3203 33.9126 17.4671 33.9126 17.6485C33.9126 17.8299 33.7665 17.9767 33.587 17.9767Z" fill="#1882FF"/>
<path d="M27.749 20.8312H20.5823C20.402 20.8312 20.2563 20.6844 20.2563 20.503C20.2563 20.3216 20.402 20.1748 20.5823 20.1748H27.749C27.929 20.1748 28.0746 20.3216 28.0746 20.503C28.0742 20.6844 27.929 20.8312 27.749 20.8312Z" fill="#1882FF"/>
<path d="M33.587 23.6862H20.5823C20.402 23.6862 20.2563 23.5389 20.2563 23.3575C20.2563 23.1765 20.402 23.0293 20.5823 23.0293H33.587C33.7665 23.0293 33.9126 23.1765 33.9126 23.3575C33.9126 23.5389 33.7665 23.6862 33.587 23.6862Z" fill="#1882FF"/>
<path d="M30.8247 26.5402H20.5823C20.402 26.5402 20.2563 26.3934 20.2563 26.2124C20.2563 26.031 20.402 25.8838 20.5823 25.8838H30.8247C31.0042 25.8838 31.1503 26.031 31.1503 26.2124C31.1503 26.3934 31.0042 26.5402 30.8247 26.5402Z" fill="#1882FF"/>
<path d="M27.1896 29.3962H20.5823C20.402 29.3962 20.2563 29.249 20.2563 29.0676C20.2563 28.8866 20.402 28.7402 20.5823 28.7402H27.1896C27.3696 28.7402 27.5152 28.8866 27.5152 29.0676C27.5152 29.249 27.3696 29.3962 27.1896 29.3962Z" fill="#1882FF"/>
<path d="M33.587 32.2506H20.5823C20.402 32.2506 20.2563 32.1034 20.2563 31.922C20.2563 31.7414 20.402 31.5938 20.5823 31.5938H33.587C33.7665 31.5938 33.9126 31.7414 33.9126 31.922C33.9126 32.1034 33.7665 32.2506 33.587 32.2506Z" fill="#1882FF"/>
<path d="M0 0.546434C0 0.244079 0.243415 0 0.542027 0H5.8549C6.15481 0 6.39735 0.244079 6.39735 0.546434V5.90248C6.39735 6.20352 6.15481 6.44891 5.8549 6.44891H0.542027C0.243415 6.44891 0 6.20308 0 5.90248V0.546434Z" fill="#1882FF"/>
<path d="M9.27832 5.26159C9.27832 5.06747 9.4348 4.91016 9.62692 4.91016H13.0425C13.235 4.91016 13.3907 5.06703 13.3907 5.26159V8.70537C13.3907 8.89861 13.235 9.05638 13.0425 9.05638H9.62692C9.4348 9.05638 9.27832 8.89818 9.27832 8.70537V5.26159Z" fill="#1882FF"/>
<path d="M10.8799 14.7355C10.8799 14.6228 10.9703 14.5312 11.0824 14.5312H13.0701C13.1819 14.5312 13.2727 14.6228 13.2727 14.7355V16.7393C13.2727 16.8524 13.1819 16.944 13.0701 16.944H11.0824C10.9703 16.944 10.8799 16.8519 10.8799 16.7393V14.7355Z" fill="#1882FF"/>
<path d="M4.32764 9.21748C4.32764 9.07726 4.44022 8.96289 4.58018 8.96289H7.05514C7.19511 8.96289 7.30812 9.07769 7.30812 9.21748V11.7134C7.30812 11.8541 7.19511 11.9676 7.05514 11.9676H4.58018C4.44022 11.9676 4.32764 11.8541 4.32764 11.7134V9.21748Z" fill="#1882FF"/>
<path d="M9.27832 10.5395C9.27832 10.454 9.34699 10.3848 9.43132 10.3848H10.9287C11.0135 10.3848 11.0817 10.454 11.0817 10.5395V12.0495C11.0817 12.1345 11.0135 12.2033 10.9287 12.2033H9.43132C9.34699 12.2033 9.27832 12.1345 9.27832 12.0495V10.5395Z" fill="#1882FF"/>
</svg>
