<svg width="171" height="50" viewBox="0 0 171 50" fill="none" xmlns="http://www.w3.org/2000/svg">
<path d="M65.2893 27.7266C58.3518 27.7266 54.6924 23.3968 54.6924 17.2229C54.6924 11.0489 58.3518 6.46301 65.2893 6.46301C72.2773 6.46301 75.8863 11.0489 75.8863 17.2229C75.8863 23.3976 72.1251 27.7266 65.2893 27.7266ZM65.2893 10.3574C60.9183 10.3574 59.089 13.2267 59.089 17.2236C59.089 21.0922 60.9183 23.833 65.2893 23.833C69.7108 23.833 71.4896 21.0922 71.4896 17.2236C71.4904 13.3285 69.7108 10.3574 65.2893 10.3574Z" fill="#743EF9"/>
<path d="M98.3756 27.4703H94.7418L85.4661 16.0441L83.9413 13.611H83.8908V27.4703H79.5703V6.71887H83.2041L92.5815 18.1451L94.0046 20.5023H94.0551V6.71887H98.3756V27.4703Z" fill="#743EF9"/>
<path d="M118.781 27.4703H102.949V6.71887H107.27V23.1914L106.888 23.5759H118.782V27.4703H118.781Z" fill="#743EF9"/>
<path d="M125.896 27.4703H121.575V6.71887H125.896V27.4703Z" fill="#743EF9"/>
<path d="M149.401 27.4703H145.767L136.492 16.0441L134.967 13.611H134.916V27.4703H130.597V6.71887H134.23L143.608 18.1451L145.031 20.5023H145.082V6.71887H149.402V27.4703H149.401Z" fill="#743EF9"/>
<path d="M171 27.4703H153.975V6.71887H171.001V10.6132H157.889L158.295 11.0228V14.737L157.889 15.1466H169.782V19.041H157.889L158.295 19.4513V23.1656L157.889 23.5751H171.001L171 27.4703Z" fill="#743EF9"/>
<path d="M60.4049 34.5071L56.9578 39.3539V42.8597H55.9763V39.3539L52.5195 34.5071H53.7471L55.8945 37.5694L56.457 38.5291H56.4771L57.0291 37.5694L59.187 34.5071H60.4049Z" fill="#743EF9"/>
<path d="M64.7965 42.9622C62.25 42.9622 60.9199 41.2714 60.9199 38.735C60.9199 36.1985 62.2597 34.4036 64.7965 34.4036C67.3534 34.4036 68.6835 36.188 68.6835 38.735C68.6835 41.2714 67.3125 42.9622 64.7965 42.9622ZM64.8069 35.3325C62.7412 35.3325 61.9223 36.8681 61.9223 38.735C61.9223 40.5703 62.7508 42.034 64.8069 42.034C66.8726 42.034 67.6811 40.5695 67.6811 38.735C67.6811 36.9198 66.883 35.3325 64.8069 35.3325Z" fill="#743EF9"/>
<path d="M77.1456 39.034C77.1456 41.5914 76.0302 42.9623 73.6376 42.9623C71.2441 42.9623 70.1191 41.6116 70.1191 39.034V34.5071H71.0903V39.0235C71.0903 40.8798 71.7553 42.0349 73.6368 42.0349C75.4885 42.0349 76.1736 40.8798 76.1736 39.0235V34.5071H77.1456V39.034Z" fill="#743EF9"/>
<path d="M86.0193 42.8598H84.9248L83.8919 40.6635C83.4929 39.808 82.8695 39.4162 81.7749 39.4162H79.811L79.9135 39.5196V42.8607H78.9424V34.5081H82.573C84.0866 34.5081 85.355 35.3231 85.355 36.9734C85.355 38.0656 84.609 38.8806 83.698 39.1181V39.1383C84.0866 39.3031 84.5065 39.6747 84.7821 40.2523L86.0193 42.8598ZM82.5722 35.4362H79.8102L79.9127 35.5396V38.3855L79.8102 38.4889H82.4592C83.6563 38.4889 84.351 37.8596 84.351 36.9734C84.3518 35.8587 83.585 35.4362 82.5722 35.4362Z" fill="#743EF9"/>
<path d="M94.0532 42.8597H90.167V34.5071H93.9611C95.6798 34.5071 96.4771 35.5693 96.4771 36.7551C96.4771 37.5387 96.2006 38.0444 95.5468 38.4459V38.4661C96.4058 38.8474 96.8353 39.5598 96.8353 40.4872C96.8353 41.9412 95.8737 42.8597 94.0532 42.8597ZM93.8585 35.436H91.0356L91.1381 35.5394V37.9935L91.0356 38.0969H93.8585C95.0452 38.0969 95.4747 37.4983 95.4747 36.7568C95.4747 35.8682 94.9226 35.436 93.8585 35.436ZM94.0428 39.0235H91.0356L91.1381 39.1269V41.8289L91.0356 41.9323H94.0532C95.3208 41.9323 95.8328 41.417 95.8328 40.488C95.8328 39.58 95.2703 39.0235 94.0428 39.0235Z" fill="#743EF9"/>
<path d="M105.196 39.034C105.196 41.5914 104.081 42.9623 101.687 42.9623C99.2939 42.9623 98.1689 41.6116 98.1689 39.034V34.5071H99.1401V39.0235C99.1401 40.8798 99.8052 42.0349 101.687 42.0349C103.538 42.0349 104.223 40.8798 104.223 39.0235V34.5071H105.195V39.034H105.196Z" fill="#743EF9"/>
<path d="M110.139 42.9625C108.81 42.9625 107.419 42.5287 106.58 41.6014L107.348 40.88C108.228 41.6951 109.046 42.0352 110.099 42.0352C111.633 42.0352 112.441 41.4479 112.441 40.6538C112.441 40.0867 111.96 39.5601 110.835 39.262C110.651 39.2103 109.495 38.9009 109.311 38.8492C107.797 38.4276 106.795 37.8799 106.795 36.6633C106.795 35.509 107.787 34.4055 110.037 34.4055C111.366 34.4055 112.491 34.8805 113.207 35.6851L112.471 36.3959C111.949 35.7666 111.131 35.3345 110.047 35.3345C108.493 35.3345 107.797 35.9428 107.797 36.6238C107.797 37.2627 108.431 37.5931 109.801 37.9744C109.986 38.0253 110.947 38.2943 111.142 38.3451C112.778 38.7789 113.443 39.6239 113.443 40.5924C113.443 41.7565 112.563 42.9625 110.139 42.9625Z" fill="#743EF9"/>
<path d="M115.902 42.8597H114.931V34.5071H115.902V42.8597Z" fill="#743EF9"/>
<path d="M124.597 42.8597H123.708L119.422 37.1267L118.788 36.1469H118.767V42.8597H117.796V34.5071H118.685L123.001 40.2812L123.605 41.2199H123.625V34.5071H124.597V42.8597Z" fill="#743EF9"/>
<path d="M132.528 42.8597H126.442V34.5071H132.528V35.436H127.312L127.414 35.5394V38.1171L127.312 38.2205H132.037V39.1479H127.312L127.414 39.2513V41.8289L127.312 41.9323H132.528V42.8597Z" fill="#743EF9"/>
<path d="M137.319 42.9625C135.989 42.9625 134.599 42.5287 133.76 41.6014L134.527 40.88C135.406 41.6951 136.225 42.0352 137.278 42.0352C138.812 42.0352 139.62 41.4479 139.62 40.6538C139.62 40.0867 139.14 39.5601 138.015 39.262C137.83 39.2103 136.675 38.9009 136.491 38.8492C134.977 38.4276 133.975 37.8799 133.975 36.6633C133.975 35.509 134.966 34.4055 137.216 34.4055C138.546 34.4055 139.672 34.8805 140.387 35.6851L139.651 36.3959C139.129 35.7666 138.311 35.3345 137.227 35.3345C135.672 35.3345 134.977 35.9428 134.977 36.6238C134.977 37.2627 135.611 37.5931 136.982 37.9744C137.165 38.0253 138.127 38.2943 138.321 38.3451C139.958 38.7789 140.623 39.6239 140.623 40.5924C140.622 41.7565 139.742 42.9625 137.319 42.9625Z" fill="#743EF9"/>
<path d="M145.208 42.9625C143.878 42.9625 142.487 42.5287 141.648 41.6014L142.416 40.88C143.295 41.6951 144.114 42.0352 145.168 42.0352C146.702 42.0352 147.51 41.4479 147.51 40.6538C147.51 40.0867 147.029 39.5601 145.904 39.262C145.72 39.2103 144.564 38.9009 144.38 38.8492C142.866 38.4276 141.864 37.8799 141.864 36.6633C141.864 35.509 142.856 34.4055 145.106 34.4055C146.435 34.4055 147.561 34.8805 148.277 35.6851L147.54 36.3959C147.019 35.7666 146.201 35.3345 145.117 35.3345C143.563 35.3345 142.866 35.9428 142.866 36.6238C142.866 37.2627 143.5 37.5931 144.871 37.9744C145.055 38.0253 146.016 38.2943 146.211 38.3451C147.847 38.7789 148.512 39.6239 148.512 40.5924C148.511 41.7565 147.632 42.9625 145.208 42.9625Z" fill="#743EF9"/>
<path d="M38.9346 6.23059H18.7989C16.7225 6.23059 15.0234 7.94262 15.0234 10.0363V46.1944C15.0234 48.2877 16.7225 50.0002 18.7989 50.0002H38.9346C41.0114 50.0002 42.7097 48.2877 42.7097 46.1944V10.0363C42.7097 7.94262 41.0114 6.23059 38.9346 6.23059ZM28.867 48.0984C28.0559 48.0984 27.3991 47.4341 27.3991 46.6177C27.3991 45.8005 28.0563 45.1371 28.867 45.1371C29.6776 45.1371 30.3348 45.8005 30.3348 46.6177C30.3348 47.4341 29.6776 48.0984 28.867 48.0984Z" fill="#743EF9"/>
<path d="M35.6834 7.922H18.3799C17.455 7.922 16.7021 8.68928 16.7021 9.63359V42.0412C16.7021 42.9859 17.455 43.7541 18.3799 43.7541H39.3537C40.2786 43.7541 41.0315 42.9859 41.0315 42.0412V13.3144L35.6834 7.922Z" fill="white"/>
<path d="M36.7924 13.9077C35.8561 13.9077 35.0938 13.1497 35.0938 12.2167V8.51575L40.4423 13.9077H36.7924Z" fill="#FFBF00"/>
<path d="M33.5865 17.9768H20.5819C20.4015 17.9768 20.2559 17.8301 20.2559 17.6487C20.2559 17.4672 20.4015 17.3204 20.5819 17.3204H33.5865C33.766 17.3204 33.9121 17.4672 33.9121 17.6487C33.9121 17.8301 33.766 17.9768 33.5865 17.9768Z" fill="#743EF9"/>
<path d="M27.7486 20.8314H20.5819C20.4015 20.8314 20.2559 20.6846 20.2559 20.5031C20.2559 20.3217 20.4015 20.1749 20.5819 20.1749H27.7486C27.9285 20.1749 28.0741 20.3217 28.0741 20.5031C28.0737 20.6846 27.9285 20.8314 27.7486 20.8314Z" fill="#743EF9"/>
<path d="M33.5865 23.6863H20.5819C20.4015 23.6863 20.2559 23.5391 20.2559 23.3576C20.2559 23.1767 20.4015 23.0294 20.5819 23.0294H33.5865C33.766 23.0294 33.9121 23.1767 33.9121 23.3576C33.9121 23.5391 33.766 23.6863 33.5865 23.6863Z" fill="#743EF9"/>
<path d="M30.8242 26.5403H20.5819C20.4015 26.5403 20.2559 26.3935 20.2559 26.2126C20.2559 26.0311 20.4015 25.8839 20.5819 25.8839H30.8242C31.0037 25.8839 31.1498 26.0311 31.1498 26.2126C31.1498 26.3935 31.0037 26.5403 30.8242 26.5403Z" fill="#743EF9"/>
<path d="M27.1892 29.3963H20.5819C20.4015 29.3963 20.2559 29.2491 20.2559 29.0677C20.2559 28.8867 20.4015 28.7404 20.5819 28.7404H27.1892C27.3691 28.7404 27.5147 28.8867 27.5147 29.0677C27.5147 29.2491 27.3691 29.3963 27.1892 29.3963Z" fill="#743EF9"/>
<path d="M33.5865 32.2507H20.5819C20.4015 32.2507 20.2559 32.1035 20.2559 31.9221C20.2559 31.7416 20.4015 31.5939 20.5819 31.5939H33.5865C33.766 31.5939 33.9121 31.7416 33.9121 31.9221C33.9121 32.1035 33.766 32.2507 33.5865 32.2507Z" fill="#743EF9"/>
<path d="M0 0.546434C0 0.244079 0.243415 0 0.542027 0H5.8549C6.15481 0 6.39735 0.244079 6.39735 0.546434V5.90248C6.39735 6.20352 6.15481 6.44891 5.8549 6.44891H0.542027C0.243415 6.44891 0 6.20308 0 5.90248V0.546434Z" fill="#FFBF00"/>
<path d="M9.27832 5.26171C9.27832 5.06759 9.4348 4.91028 9.62692 4.91028H13.0425C13.235 4.91028 13.3907 5.06715 13.3907 5.26171V8.70549C13.3907 8.89874 13.235 9.0565 13.0425 9.0565H9.62692C9.4348 9.0565 9.27832 8.8983 9.27832 8.70549V5.26171Z" fill="#FFBF00"/>
<path d="M10.8799 14.7356C10.8799 14.623 10.9703 14.5314 11.0824 14.5314H13.0701C13.1819 14.5314 13.2727 14.623 13.2727 14.7356V16.7394C13.2727 16.8525 13.1819 16.9441 13.0701 16.9441H11.0824C10.9703 16.9441 10.8799 16.8521 10.8799 16.7394V14.7356Z" fill="#FFBF00"/>
<path d="M4.32812 9.2176C4.32812 9.07738 4.44071 8.96301 4.58067 8.96301H7.05563C7.19559 8.96301 7.30861 9.07782 7.30861 9.2176V11.7136C7.30861 11.8542 7.19559 11.9677 7.05563 11.9677H4.58067C4.44071 11.9677 4.32812 11.8542 4.32812 11.7136V9.2176Z" fill="#FFBF00"/>
<path d="M9.27832 10.5396C9.27832 10.4541 9.34699 10.3849 9.43132 10.3849H10.9287C11.0135 10.3849 11.0817 10.4541 11.0817 10.5396V12.0496C11.0817 12.1346 11.0135 12.2034 10.9287 12.2034H9.43132C9.34699 12.2034 9.27832 12.1346 9.27832 12.0496V10.5396Z" fill="#FFBF00"/>
</svg>
