<svg width="196" height="50" viewBox="0 0 196 50" fill="none" xmlns="http://www.w3.org/2000/svg">
<path d="M14.6727 15.3315C16.3611 13.6318 20.0198 9.8785 24.9444 11.7197C28.7024 13.1248 36.6234 16.465 41.8298 18.0231L43.0511 17.7912C40.3677 8.62484 31.9501 1.93164 21.9748 1.93164C9.8385 1.93164 0 11.8357 0 24.0531C0 36.2705 9.8385 46.1742 21.9748 46.1742C30.2023 46.1742 37.3695 41.6196 41.1354 34.8814C34.1333 34.7702 32.4252 29.3846 30.784 30.4169C30.2153 30.7744 28.9598 31.5817 27.4707 32.3629L29.1604 34.3929C32.4947 38.5893 28.3828 41.3305 28.3828 41.3305L27.3393 40.1484C26.6871 41.8388 25.2316 42.812 25.2316 42.812L23.567 40.9267C23.1183 41.3698 22.7638 41.6078 22.7638 41.6078L17.6982 35.8711L18.9645 30.9134C18.9645 30.9134 19.0692 30.954 19.3485 31.0645C20.486 27.6575 26.4196 22.7112 28.1816 21.2988L27.6183 20.9975H20.7938C20.7938 20.9975 20.4425 22.3432 17.4872 24.3262C21.0046 34.0293 13.5473 35.5874 13.5473 35.5874C13.5473 35.5874 11.1686 27.0313 9.88897 23.8301C8.64075 20.7087 12.984 17.0311 14.6727 15.3315Z" fill="#743EF9"/>
<path d="M25.4963 33.2998C25.3547 33.3592 25.2128 33.4171 25.0713 33.4726L25.3388 33.7947L25.4963 33.2998Z" fill="#743EF9" stroke="#743EF9" stroke-miterlimit="10"/>
<path d="M14.7069 28.0442C18.2951 33.7809 21.5669 30.4876 21.5669 30.4876L25.5769 18.9079L19.034 18.2705L14.2852 26.0257L14.7069 28.0442Z" fill="#FFBF00" stroke="white" stroke-miterlimit="10"/>
<path d="M45.2774 17.3682L41.8292 18.0231C36.623 16.465 28.702 13.1245 24.9437 11.7197C20.0191 9.87851 16.3604 13.6318 14.672 15.3315C12.9836 17.0315 8.64038 20.7087 9.88797 23.8304C11.1676 27.0316 13.5463 35.5878 13.5463 35.5878C13.5463 35.5878 21.0036 34.0296 17.4862 24.3266C20.4415 22.3435 20.7928 20.9979 20.7928 20.9979H27.6173L46.1828 30.9207" fill="white"/>
<path d="M45.2774 17.3682L41.8291 18.0231C36.623 16.465 28.702 13.1245 24.9437 11.7197C20.0191 9.87851 16.3604 13.6318 14.672 15.3315C12.9836 17.0315 8.64038 20.7087 9.88797 23.8304C11.1676 27.0316 13.5463 35.5878 13.5463 35.5878C13.5463 35.5878 21.0036 34.0296 17.4862 24.3266C20.4415 22.3435 20.7928 20.9979 20.7928 20.9979H27.6173L46.1828 30.9207" stroke="#FFBF00" stroke-miterlimit="10" stroke-linecap="round" stroke-linejoin="round"/>
<path d="M24.3818 36.7992L28.3829 41.3311C28.3829 41.3311 32.4948 38.5899 29.1605 34.3935L26.2591 30.9082L24.3818 36.7992Z" fill="white" stroke="#FFBF00" stroke-miterlimit="10"/>
<path d="M23.3262 38.7971L24.8816 40.6919C25.53 41.483 26.6932 41.5942 27.4793 40.9405C28.2645 40.2872 28.3746 39.1166 27.7262 38.3258L26.1714 36.4307L23.3262 38.7971Z" fill="#FFBF00"/>
<path d="M20.582 37.5468L25.2312 42.8119C25.2312 42.8119 30.0095 39.626 26.1351 34.7513L22.7633 30.7012L20.582 37.5468Z" fill="white" stroke="#FFBF00" stroke-miterlimit="10"/>
<path d="M20.3076 39.3446L21.8631 41.2398C22.5114 42.0305 23.6746 42.142 24.4607 41.4884C25.2459 40.8353 25.356 39.6644 24.7076 38.8734L23.1525 36.9785L20.3076 39.3446Z" fill="#FFBF00"/>
<path d="M17.6982 35.8715L22.7638 41.6082C22.7638 41.6082 27.9696 38.1376 23.7486 32.8262C19.8792 31.2677 18.9646 30.9141 18.9646 30.9141L17.6982 35.8715Z" fill="white" stroke="#FFBF00" stroke-miterlimit="10"/>
<path d="M17.7725 38.1288L19.3279 40.0233C19.9763 40.8147 21.1391 40.9255 21.9253 40.2716C22.7108 39.6185 22.8206 38.4479 22.1722 37.6572L20.6171 35.7617L17.7725 38.1288Z" fill="#FFBF00"/>
<path d="M24.1006 33.3932C24.1006 33.3932 31.9806 38.9883 42.0406 34.8801C52.1016 30.7724 33.1758 25.6025 33.1758 25.6025L26.0699 29.3555L24.1006 33.3932Z" fill="#FFBF00" stroke="#FFBF00" stroke-miterlimit="10"/>
<path d="M30.7743 7.9873L11.4268 43.4626C12.6991 44.1645 14.0473 44.7453 15.4571 45.1849L33.332 12.4109" fill="#FFBF00"/>
<path d="M33.3321 12.4109L37.4643 4.83463L33.6403 2.73242L30.7744 7.98731" fill="#FFBF00"/>
<path d="M10.8659 45.1436L10.5615 50.0004L14.6435 46.9148C13.3214 46.4435 12.0582 45.848 10.8659 45.1436Z" fill="#FFBF00"/>
<path d="M51.2576 30.772C47.0363 31.6225 44.0809 34.7384 41.7597 34.8799C34.2316 35.0921 32.4728 29.3554 30.784 30.418C29.0953 31.4806 21.3565 36.5083 19.3866 33.0387C17.4167 29.5685 28.6761 20.9092 28.6761 20.9092" fill="white"/>
<path d="M51.2576 30.772C47.0363 31.6225 44.0809 34.7384 41.7597 34.8799C34.2316 35.0921 32.4728 29.3554 30.784 30.418C29.0953 31.4806 21.3565 36.5083 19.3866 33.0387C17.4167 29.5685 28.6761 20.9092 28.6761 20.9092" stroke="#FFBF00" stroke-miterlimit="10" stroke-linecap="round" stroke-linejoin="round"/>
<path d="M23.1656 28.4453L21.1465 29.8277C20.3039 30.4044 20.0852 31.5593 20.6587 32.4079C21.2313 33.2558 22.3789 33.4756 23.2215 32.8989L25.2406 31.5168L23.1656 28.4453Z" fill="#FFBF00"/>
<path d="M10.3779 30.316L11.0041 32.692C11.2653 33.6834 12.2755 34.2738 13.2606 34.0102C14.2454 33.7476 14.8316 32.7303 14.5704 31.7393L13.9442 29.3633L10.3779 30.316Z" fill="#FFBF00"/>
<path d="M13.8242 23.4463C13.8242 23.4463 15.4139 24.4178 17.4867 24.3271" stroke="#FFBF00" stroke-miterlimit="10" stroke-linecap="round" stroke-linejoin="round"/>
<path d="M19.5596 19.1318C19.5596 19.1318 19.9141 20.3133 20.7932 20.9989" stroke="#FFBF00" stroke-miterlimit="10" stroke-linecap="round" stroke-linejoin="round"/>
<path d="M38.132 3.94687L38.3497 3.55103C38.9657 2.43219 38.5636 1.02263 37.4519 0.402825C36.3408 -0.216975 34.9405 0.187494 34.3248 1.30633L34.1074 1.70217L38.132 3.94687Z" fill="#FFBF00"/>
<path d="M28.6758 20.9083C28.6758 20.9083 30.7216 19.5712 33.3665 19.6246" stroke="#FFBF00" stroke-miterlimit="10" stroke-linecap="round"/>
<path d="M23.4489 21.0762L18.8867 29.516" stroke="#FFBF00" stroke-miterlimit="10" stroke-linecap="round"/>
<path d="M70.0574 27.9413C69.9214 27.8957 69.7514 27.8387 69.5473 27.7703C69.3433 27.7019 69.0373 27.5765 68.6293 27.3941H52.8865C52.6599 27.0977 52.4672 26.7672 52.3085 26.4024C52.1725 26.0148 52.1045 25.6272 52.1045 25.2396C52.8525 25.2396 53.4079 25.1028 53.7706 24.8292C54.1559 24.5556 54.3486 24.0996 54.3486 23.4612V7.42139C54.3486 6.78299 54.1673 6.33839 53.8046 6.08759C53.4419 5.81399 52.8865 5.67719 52.1385 5.67719C52.1385 5.28959 52.2065 4.91339 52.3425 4.54859C52.5012 4.16099 52.6939 3.81899 52.9205 3.52259H66.1132C66.5212 3.34019 66.9745 3.20339 67.4732 3.11219C67.9719 2.99819 68.4366 2.9412 68.8673 2.9412C69.0713 3.30599 69.298 3.84179 69.5473 4.54859C69.8194 5.23259 70.0574 5.91659 70.2614 6.60059C70.4654 7.28459 70.5674 7.82039 70.5674 8.20798C70.386 8.39038 70.0914 8.57278 69.6833 8.75518C69.298 8.93758 68.9013 9.09718 68.4933 9.23398C68.0853 9.37078 67.7453 9.47338 67.4732 9.54178C67.2239 8.78938 66.7819 8.08259 66.1472 7.42139C65.5351 6.76019 64.7758 6.42959 63.8691 6.42959H60.0269V13.6458H62.475C63.1097 13.6458 63.6311 13.4634 64.0391 13.0986C64.4698 12.711 64.6851 12.0612 64.6851 11.1492C65.7052 11.1492 66.6232 11.3886 67.4392 11.8674V18.2286C66.6685 18.7074 65.7618 18.9468 64.7191 18.9468C64.7191 18.0348 64.5038 17.3736 64.0731 16.9632C63.6651 16.5528 63.1437 16.3476 62.509 16.3476H60.0269V24.3846H64.1411C65.1385 24.3846 65.9772 23.9742 66.6572 23.1534C67.3599 22.3098 67.7906 21.318 67.9493 20.178H71.5874C71.5874 20.52 71.5308 21.0558 71.4174 21.7854C71.3268 22.4922 71.2021 23.2674 71.0434 24.111C70.9074 24.9318 70.7487 25.6956 70.5674 26.4024C70.386 27.1091 70.216 27.6221 70.0574 27.9413Z" fill="#743EF9"/>
<path d="M79.9274 27.7361C79.1114 27.7361 78.284 27.6449 77.4453 27.4625C76.6292 27.2801 75.8699 27.0179 75.1672 26.6759C74.4871 26.334 73.9318 25.9121 73.5011 25.4106C73.0704 24.8862 72.8551 24.2934 72.8551 23.6322C72.8551 22.8342 73.0817 22.1958 73.5351 21.717C73.9885 21.2154 74.5665 20.9646 75.2692 20.9646C75.9039 20.9646 76.4366 21.1698 76.8673 21.5802C77.3206 21.9906 77.5473 22.5264 77.5473 23.1876C77.5473 23.484 77.502 23.7462 77.4113 23.9742C77.3206 24.1794 77.1846 24.4074 77.0033 24.6582C77.2073 24.8634 77.57 25.0116 78.0913 25.1028C78.6127 25.194 79.1227 25.2396 79.6214 25.2396C80.4148 25.2396 81.0268 25.0914 81.4575 24.795C81.8882 24.4986 82.1035 24.1338 82.1035 23.7006C82.1035 23.0166 81.7408 22.4352 81.0155 21.9564C80.2901 21.4548 79.4627 20.9532 78.5333 20.4516C77.6946 19.9956 76.8559 19.5168 76.0172 19.0152C75.2012 18.4908 74.5098 17.841 73.9431 17.0658C73.3991 16.2906 73.1271 15.3102 73.1271 14.1246C73.1271 12.6198 73.7504 11.3772 74.9972 10.3968C76.2439 9.41638 78.012 8.92618 80.3014 8.92618C81.8882 8.92618 83.1576 9.13138 84.1096 9.54178C85.0617 9.92938 85.753 10.431 86.1837 11.0466C86.6144 11.6394 86.8297 12.2664 86.8297 12.9276C86.8297 13.6344 86.6031 14.2044 86.1497 14.6376C85.719 15.048 85.1863 15.2532 84.5516 15.2532C83.9849 15.2532 83.4862 15.0822 83.0556 14.7402C82.6249 14.3754 82.4095 13.908 82.4095 13.338C82.4095 13.0644 82.4549 12.768 82.5455 12.4488C82.6362 12.1296 82.7609 11.8674 82.9196 11.6622C82.6702 11.457 82.3755 11.3202 82.0355 11.2518C81.7182 11.1606 81.3328 11.115 80.8795 11.115C80.1314 11.115 79.5534 11.2974 79.1454 11.6622C78.76 12.0042 78.5673 12.426 78.5673 12.9276C78.5673 13.7028 78.93 14.3412 79.6554 14.8428C80.4034 15.3444 81.2308 15.8346 82.1375 16.3134C82.9762 16.7466 83.7923 17.214 84.5856 17.7156C85.4017 18.2172 86.0817 18.8442 86.6257 19.5966C87.1698 20.349 87.4418 21.318 87.4418 22.5036C87.4418 23.7804 87.0791 24.8064 86.3537 25.5816C85.6284 26.334 84.6876 26.8811 83.5316 27.2232C82.3982 27.5651 81.1968 27.7361 79.9274 27.7361Z" fill="#743EF9"/>
<path d="M97.595 27.9071C95.9402 27.9071 94.4782 27.5309 93.2088 26.7785C91.962 26.0262 90.976 24.9546 90.2506 23.5638C89.5479 22.1502 89.1966 20.463 89.1966 18.5022C89.1966 16.473 89.5819 14.7402 90.3526 13.3038C91.1233 11.8446 92.1774 10.7388 93.5148 9.98638C94.8522 9.21118 96.3596 8.82358 98.037 8.82358C99.7824 8.82358 101.108 9.24538 102.015 10.089C102.922 10.9098 103.375 11.9244 103.375 13.1328C103.375 14.2272 103.103 15.0708 102.559 15.6636C102.015 16.2564 101.312 16.5528 100.451 16.5528C99.7484 16.5528 99.1591 16.2906 98.683 15.7662C98.207 15.2418 97.969 14.6034 97.969 13.851C97.969 13.3038 98.0597 12.8592 98.241 12.5172C98.445 12.1752 98.6944 11.8902 98.9891 11.6622C98.7624 11.5254 98.5697 11.4456 98.411 11.4228C98.275 11.3772 98.139 11.3544 98.003 11.3544C97.5723 11.3544 97.1303 11.5254 96.6769 11.8674C96.2236 12.2094 95.8382 12.8136 95.5209 13.68C95.2262 14.5464 95.0789 15.7548 95.0789 17.3052C95.0789 19.8132 95.4415 21.5802 96.1669 22.6062C96.8923 23.6094 97.9123 24.111 99.2271 24.111C99.8391 24.111 100.451 24.0198 101.063 23.8374C101.698 23.655 102.231 23.3928 102.661 23.0508C102.843 23.2788 102.99 23.5638 103.103 23.9058C103.239 24.225 103.307 24.51 103.307 24.7608C103.307 25.2396 103.047 25.7298 102.525 26.2313C102.027 26.7101 101.347 27.1091 100.485 27.4283C99.6238 27.7475 98.6604 27.9071 97.595 27.9071Z" fill="#743EF9"/>
<path d="M111.36 27.6335C109.774 27.6335 108.538 27.1433 107.654 26.163C106.77 25.1826 106.328 23.8602 106.328 22.1958V12.7908C106.328 12.4032 106.181 12.1296 105.886 11.97C105.591 11.8104 105.183 11.7306 104.662 11.7306V10.2258C104.957 9.97498 105.569 9.71278 106.498 9.43918C107.45 9.14278 108.516 8.99458 109.694 8.99458C110.578 8.99458 111.156 9.09718 111.428 9.30238C111.723 9.50758 111.87 10.0092 111.87 10.8072V22.2984C111.87 22.9824 111.984 23.5068 112.21 23.8716C112.437 24.2364 112.834 24.4188 113.4 24.4188C113.876 24.4188 114.33 24.2706 114.761 23.9742C115.214 23.6778 115.588 23.3358 115.883 22.9482V12.7908C115.883 12.4032 115.713 12.1296 115.373 11.97C115.033 11.8104 114.568 11.7306 113.978 11.7306V10.2258C114.296 9.97498 114.919 9.71278 115.849 9.43918C116.778 9.14278 117.877 8.99458 119.147 8.99458C120.031 8.99458 120.631 9.09718 120.949 9.30238C121.266 9.50758 121.425 10.0092 121.425 10.8072V23.3928C121.425 23.94 121.561 24.396 121.833 24.7608C122.128 25.1256 122.536 25.3308 123.057 25.3764V26.334C122.694 26.7671 122.116 27.0977 121.323 27.3257C120.552 27.5309 119.804 27.6335 119.079 27.6335C118.331 27.6335 117.673 27.4397 117.107 27.0521C116.563 26.6418 116.2 26.0604 116.019 25.308C114.908 26.8584 113.355 27.6335 111.36 27.6335Z" fill="#743EF9"/>
<path d="M125.242 27.3941C124.993 27.1205 124.8 26.8355 124.664 26.5391C124.528 26.2428 124.46 25.9122 124.46 25.5474C125.117 25.5474 125.593 25.4106 125.888 25.137C126.183 24.8406 126.33 24.3504 126.33 23.6664V5.50619C126.33 4.98179 126.183 4.57139 125.888 4.27499C125.593 3.95579 124.97 3.79619 124.018 3.79619V2.4282C124.585 2.109 125.242 1.8354 125.99 1.6074C126.761 1.3566 127.52 1.1628 128.268 1.026C129.016 0.866399 129.64 0.786599 130.138 0.786599C130.66 0.786599 131.034 0.900599 131.26 1.1286C131.51 1.3566 131.634 1.7556 131.634 2.3256V23.6664C131.634 24.3732 131.77 24.8634 132.042 25.137C132.337 25.4106 132.824 25.5474 133.504 25.5474C133.504 25.9122 133.425 26.2428 133.266 26.5391C133.13 26.8355 132.938 27.1205 132.688 27.3941H125.242Z" fill="#743EF9"/>
<path d="M141.686 27.6335C140.734 27.6335 139.861 27.4625 139.068 27.1205C138.274 26.7558 137.628 26.1402 137.13 25.2738C136.654 24.4074 136.416 23.2218 136.416 21.717V12.312H134.273V10.2258C134.886 10.1346 135.464 9.74698 136.008 9.06298C136.552 8.37898 137.016 7.53539 137.402 6.53219C137.81 5.52899 138.07 4.52579 138.184 3.52259C138.592 3.45419 138.966 3.41999 139.306 3.41999C140.212 3.41999 140.836 3.68219 141.176 4.20659C141.538 4.73099 141.72 5.22119 141.72 5.67719V9.26818H145.664C145.664 9.81538 145.63 10.3626 145.562 10.9098C145.517 11.4342 145.369 11.9016 145.12 12.312H141.788V21.9564C141.788 22.686 141.935 23.1762 142.23 23.427C142.525 23.655 142.899 23.769 143.352 23.769C143.805 23.769 144.259 23.655 144.712 23.427C145.188 23.1762 145.562 22.8912 145.834 22.572C146.083 22.7772 146.253 23.085 146.344 23.4954C146.435 23.883 146.48 24.1794 146.48 24.3846C146.48 24.8862 146.31 25.3878 145.97 25.8894C145.63 26.3909 145.097 26.8127 144.372 27.1547C143.669 27.4739 142.774 27.6335 141.686 27.6335Z" fill="#743EF9"/>
<path d="M152.157 6.42959C151.182 6.42959 150.4 6.14459 149.811 5.57459C149.244 4.98179 148.961 4.19519 148.961 3.2148C148.961 2.2572 149.255 1.482 149.845 0.889199C150.457 0.2964 151.25 0 152.225 0C153.222 0 154.004 0.2964 154.571 0.889199C155.16 1.482 155.455 2.2572 155.455 3.2148C155.455 4.19519 155.149 4.98179 154.537 5.57459C153.948 6.14459 153.154 6.42959 152.157 6.42959ZM148.349 27.3941C148.099 27.1433 147.907 26.8697 147.771 26.5733C147.635 26.2769 147.567 25.935 147.567 25.5474C148.224 25.5474 148.711 25.4106 149.029 25.137C149.346 24.8406 149.505 24.3504 149.505 23.6664V13.7484C149.505 13.1556 149.357 12.711 149.063 12.4146C148.791 12.1182 148.19 11.97 147.261 11.97V10.4652C147.601 10.26 148.122 10.032 148.825 9.78118C149.527 9.50758 150.287 9.27958 151.103 9.09718C151.941 8.91478 152.689 8.82358 153.347 8.82358C153.868 8.82358 154.242 8.94898 154.469 9.19978C154.696 9.42778 154.809 9.82678 154.809 10.3968V23.7006C154.809 24.3846 154.979 24.8634 155.319 25.137C155.659 25.4106 156.158 25.5474 156.815 25.5474C156.815 25.935 156.747 26.2769 156.611 26.5733C156.475 26.8697 156.282 27.1433 156.033 27.3941H148.349Z" fill="#743EF9"/>
<path d="M166.458 27.8387C164.848 27.8387 163.42 27.4967 162.173 26.8127C160.927 26.106 159.952 25.08 159.249 23.7348C158.569 22.3668 158.229 20.6796 158.229 18.6732C158.229 16.53 158.592 14.7288 159.317 13.2696C160.043 11.8104 161.051 10.7046 162.343 9.95218C163.635 9.19978 165.12 8.82358 166.798 8.82358C168.43 8.82358 169.858 9.17698 171.082 9.88378C172.329 10.5906 173.292 11.6394 173.972 13.0302C174.675 14.3982 175.026 16.0968 175.026 18.126C175.026 20.2464 174.663 22.0362 173.938 23.4954C173.213 24.9318 172.204 26.0148 170.912 26.7444C169.62 27.4739 168.135 27.8387 166.458 27.8387ZM166.73 25.3764C167.206 25.3764 167.614 25.2054 167.954 24.8634C168.316 24.5214 168.588 23.8944 168.77 22.9824C168.974 22.0476 169.076 20.7024 169.076 18.9468C169.076 16.8036 168.974 15.1848 168.77 14.0904C168.566 12.9732 168.271 12.2208 167.886 11.8332C167.5 11.4456 167.047 11.2518 166.526 11.2518C166.05 11.2518 165.63 11.4228 165.268 11.7648C164.905 12.1068 164.622 12.7452 164.418 13.68C164.236 14.6148 164.146 15.9714 164.146 17.7498C164.146 19.8702 164.248 21.4776 164.452 22.572C164.678 23.6664 164.984 24.4074 165.37 24.795C165.755 25.1826 166.208 25.3764 166.73 25.3764Z" fill="#743EF9"/>
<path d="M177.741 27.3941C177.492 27.1433 177.288 26.8697 177.129 26.5733C176.993 26.2769 176.925 25.9464 176.925 25.5816C177.605 25.5816 178.092 25.4334 178.387 25.137C178.682 24.8406 178.829 24.3618 178.829 23.7006V13.7142C178.829 13.1214 178.659 12.6882 178.319 12.4146C178.002 12.141 177.412 12.0042 176.551 12.0042V10.4652C177.072 10.1688 177.73 9.89518 178.523 9.64438C179.339 9.39358 180.121 9.19978 180.869 9.06298C181.64 8.90338 182.229 8.82358 182.637 8.82358C183.113 8.82358 183.499 8.97178 183.793 9.26818C184.111 9.56458 184.292 10.203 184.337 11.1834C184.904 10.4766 185.618 9.90658 186.48 9.47338C187.364 9.04018 188.384 8.82358 189.54 8.82358C191.126 8.82358 192.316 9.23398 193.11 10.0548C193.926 10.8528 194.334 12.2208 194.334 14.1588V23.4954C194.334 24.6126 194.878 25.2738 195.966 25.479L196 26.4708C195.773 26.6988 195.411 26.9039 194.912 27.0863C194.413 27.2459 193.869 27.3713 193.28 27.4625C192.713 27.5537 192.18 27.5993 191.682 27.5993C190.707 27.5993 189.982 27.4169 189.506 27.0521C189.052 26.6873 188.826 26.106 188.826 25.308V14.6376C188.826 13.7028 188.622 13.053 188.214 12.6882C187.806 12.3234 187.307 12.141 186.718 12.141C185.788 12.141 185.006 12.5172 184.371 13.2696V23.7006C184.371 24.3618 184.507 24.8406 184.779 25.137C185.074 25.4334 185.562 25.5816 186.242 25.5816C186.242 26.2656 185.981 26.8697 185.46 27.3941H177.741Z" fill="#743EF9"/>
<path d="M58.9206 42.2279C58.9206 42.9583 58.7704 43.5728 58.47 44.0714C58.177 44.57 57.7715 44.9493 57.2532 45.2091C56.7425 45.4619 56.1604 45.5883 55.5069 45.5883C54.861 45.5883 54.2789 45.4619 53.7606 45.2091C53.2499 44.9493 52.8443 44.57 52.5439 44.0714C52.251 43.5728 52.1045 42.9583 52.1045 42.2279C52.1045 41.4975 52.2547 40.883 52.5551 40.3844C52.8631 39.8857 53.2724 39.51 53.7832 39.2572C54.3014 38.9973 54.876 38.8674 55.5069 38.8674C56.1529 38.8674 56.7312 38.9973 57.2419 39.2572C57.7602 39.51 58.1695 39.8857 58.47 40.3844C58.7704 40.883 58.9206 41.4975 58.9206 42.2279ZM57.4673 42.2279C57.4673 41.4905 57.287 40.9286 56.9265 40.5424C56.5735 40.1561 56.1003 39.963 55.5069 39.963C54.9286 39.963 54.4592 40.1561 54.0986 40.5424C53.7456 40.9286 53.5691 41.4905 53.5691 42.2279C53.5691 42.9723 53.7456 43.5376 54.0986 43.9239C54.4516 44.3102 54.9248 44.5033 55.5182 44.5033C56.1116 44.5033 56.5847 44.3102 56.9377 43.9239C57.2908 43.5376 57.4673 42.9723 57.4673 42.2279Z" fill="#743EF9"/>
<path d="M65.0866 42.1752V43.197H63.7008V42.2279C63.7008 41.9189 63.6069 41.6941 63.4191 41.5537C63.2314 41.4062 62.9798 41.3325 62.6643 41.3325C62.4315 41.3325 62.2212 41.3605 62.0334 41.4167C61.8531 41.4659 61.6916 41.5256 61.5489 41.5958V43.197H60.1632V41.5115C60.1632 41.343 60.2007 41.206 60.2758 41.1007C60.3509 40.9883 60.4636 40.8865 60.6138 40.7952C60.8392 40.6547 61.1283 40.5389 61.4813 40.4476C61.8419 40.3492 62.2399 40.3001 62.6756 40.3001C63.4342 40.3001 64.0238 40.4581 64.4444 40.7741C64.8725 41.0902 65.0866 41.5572 65.0866 42.1752ZM60.1632 42.6809H61.5489V45.4093C61.4888 45.4303 61.4025 45.4479 61.2898 45.4619C61.1771 45.483 61.0532 45.4935 60.918 45.4935C60.6627 45.4935 60.4711 45.4514 60.3434 45.3671C60.2233 45.2758 60.1632 45.1178 60.1632 44.8931V42.6809ZM63.7008 42.6809H65.0866V45.4093C65.034 45.4303 64.9476 45.4479 64.8274 45.4619C64.7148 45.483 64.5946 45.4935 64.4669 45.4935C64.204 45.4935 64.0088 45.4514 63.8811 45.3671C63.7609 45.2758 63.7008 45.1178 63.7008 44.8931V42.6809Z" fill="#743EF9"/>
<path d="M66.6234 42.6493L68.0091 42.7125V45.4093C67.949 45.4303 67.8627 45.4479 67.75 45.4619C67.6373 45.483 67.5134 45.4935 67.3782 45.4935C67.1228 45.4935 66.9313 45.4514 66.8036 45.3671C66.6834 45.2758 66.6234 45.1178 66.6234 44.8931V42.6493ZM68.0091 43.3761L66.6234 43.3129V38.583C66.6759 38.5689 66.7586 38.5514 66.8712 38.5303C66.9914 38.5092 67.1153 38.4987 67.243 38.4987C67.5134 38.4987 67.7087 38.5444 67.8289 38.6357C67.949 38.7199 68.0091 38.8744 68.0091 39.0992V43.3761Z" fill="#743EF9"/>
<path d="M69.4585 38.9622C69.4585 38.7586 69.5336 38.5865 69.6838 38.446C69.8416 38.3056 70.0369 38.2354 70.2697 38.2354C70.51 38.2354 70.7016 38.3056 70.8443 38.446C70.9945 38.5865 71.0696 38.7586 71.0696 38.9622C71.0696 39.1589 70.9945 39.3309 70.8443 39.4784C70.7016 39.6189 70.51 39.6891 70.2697 39.6891C70.0369 39.6891 69.8416 39.6189 69.6838 39.4784C69.5336 39.3309 69.4585 39.1589 69.4585 38.9622ZM69.5712 42.6493H70.9682V45.4093C70.9081 45.4303 70.8217 45.4479 70.7091 45.4619C70.5964 45.483 70.4725 45.4935 70.3373 45.4935C70.0819 45.4935 69.8904 45.4514 69.7627 45.3671C69.635 45.2758 69.5712 45.1178 69.5712 44.8931V42.6493ZM70.9682 43.3129H69.5712V40.4897C69.6313 40.4686 69.7176 40.4511 69.8303 40.437C69.9505 40.416 70.0782 40.4054 70.2134 40.4054C70.4762 40.4054 70.6678 40.4511 70.7879 40.5424C70.9081 40.6267 70.9682 40.7847 70.9682 41.0164V43.3129Z" fill="#743EF9"/>
<path d="M77.3871 42.1752V43.197H76.0014V42.2279C76.0014 41.9189 75.9075 41.6941 75.7197 41.5537C75.5319 41.4062 75.2803 41.3325 74.9649 41.3325C74.732 41.3325 74.5217 41.3605 74.3339 41.4167C74.1537 41.4659 73.9922 41.5256 73.8495 41.5958V43.197H72.4637V41.5115C72.4637 41.343 72.5013 41.206 72.5764 41.1007C72.6515 40.9883 72.7642 40.8865 72.9144 40.7952C73.1397 40.6547 73.4289 40.5389 73.7819 40.4476C74.1424 40.3492 74.5405 40.3001 74.9761 40.3001C75.7347 40.3001 76.3243 40.4581 76.7449 40.7741C77.1731 41.0902 77.3871 41.5572 77.3871 42.1752ZM72.4637 42.6809H73.8495V45.4093C73.7894 45.4303 73.703 45.4479 73.5904 45.4619C73.4777 45.483 73.3538 45.4935 73.2186 45.4935C72.9632 45.4935 72.7717 45.4514 72.644 45.3671C72.5238 45.2758 72.4637 45.1178 72.4637 44.8931V42.6809ZM76.0014 42.6809H77.3871V45.4093C77.3345 45.4303 77.2482 45.4479 77.128 45.4619C77.0153 45.483 76.8951 45.4935 76.7675 45.4935C76.5046 45.4935 76.3093 45.4514 76.1816 45.3671C76.0614 45.2758 76.0014 45.1178 76.0014 44.8931V42.6809Z" fill="#743EF9"/>
<path d="M79.4534 43.5973L79.3971 42.6914L82.4165 42.27C82.3939 42.0031 82.285 41.7714 82.0898 41.5747C81.8945 41.3781 81.6091 41.2798 81.2335 41.2798C80.8505 41.2798 80.5312 41.4062 80.2759 41.659C80.0205 41.9048 79.8891 42.2595 79.8815 42.723L79.9153 43.2708C79.9829 43.7202 80.167 44.0503 80.4674 44.261C80.7753 44.4717 81.1622 44.577 81.6278 44.577C81.9433 44.577 82.2362 44.5349 82.5066 44.4506C82.777 44.3593 82.9911 44.261 83.1488 44.1557C83.2539 44.2189 83.3366 44.2996 83.3966 44.398C83.4642 44.4893 83.498 44.5911 83.498 44.7035C83.498 44.886 83.4117 45.0441 83.2389 45.1775C83.0662 45.3039 82.8333 45.4022 82.5404 45.4725C82.2475 45.5427 81.9132 45.5778 81.5377 45.5778C80.9594 45.5778 80.4449 45.4795 79.9942 45.2828C79.5511 45.0792 79.2018 44.7772 78.9464 44.3769C78.6986 43.9766 78.5747 43.478 78.5747 42.881C78.5747 42.4526 78.646 42.0769 78.7887 41.7538C78.9314 41.4308 79.1229 41.1639 79.3633 40.9532C79.6112 40.7355 79.8966 40.574 80.2195 40.4686C80.5425 40.3563 80.8805 40.3001 81.2335 40.3001C81.7292 40.3001 82.1611 40.3949 82.5291 40.5845C82.9047 40.7671 83.1976 41.0234 83.4079 41.3535C83.6257 41.6836 83.7346 42.0628 83.7346 42.4912C83.7346 42.6879 83.6783 42.8354 83.5656 42.9337C83.4605 43.025 83.3103 43.0812 83.115 43.1022L79.4534 43.5973Z" fill="#743EF9"/>
<path d="M87.2542 41.1955H88.6512V45.3566C88.5987 45.3706 88.5123 45.3882 88.3921 45.4093C88.2719 45.4303 88.148 45.4409 88.0203 45.4409C87.7875 45.4409 87.5997 45.3777 87.457 45.2512C87.3218 45.1178 87.2542 44.9457 87.2542 44.7351V41.1955ZM88.6512 43.2602L87.2542 43.2497V39.7418C87.2542 39.5241 87.3218 39.352 87.457 39.2256C87.5997 39.0992 87.7875 39.036 88.0203 39.036C88.148 39.036 88.2719 39.0465 88.3921 39.0676C88.5123 39.0886 88.5987 39.1062 88.6512 39.1202V43.2602ZM88.0203 42.6914V41.638H91.4115C91.4491 41.6871 91.4828 41.7573 91.5129 41.8486C91.5504 41.9399 91.5692 42.0383 91.5692 42.1436C91.5692 42.3262 91.5242 42.4631 91.434 42.5544C91.3439 42.6457 91.22 42.6914 91.0622 42.6914H88.0203ZM88.0203 45.4409V44.3769H91.8058C91.8359 44.426 91.8659 44.4963 91.896 44.5876C91.9335 44.6789 91.9523 44.7807 91.9523 44.8931C91.9523 45.0757 91.9072 45.2126 91.8171 45.3039C91.727 45.3952 91.603 45.4409 91.4453 45.4409H88.0203ZM88.0203 40.1105V39.036H91.7495C91.787 39.0851 91.8208 39.1554 91.8509 39.2467C91.8809 39.3379 91.896 39.4363 91.896 39.5416C91.896 39.7242 91.8509 39.8647 91.7608 39.963C91.6781 40.0613 91.5542 40.1105 91.389 40.1105H88.0203Z" fill="#743EF9"/>
<path d="M96.5203 44.3347V41.027H97.9061V44.4717C97.9061 44.6262 97.8685 44.7561 97.7934 44.8615C97.7258 44.9598 97.6132 45.0546 97.4554 45.1459C97.2752 45.2583 97.0273 45.3566 96.7119 45.4409C96.4039 45.5322 96.0509 45.5778 95.6528 45.5778C95.0595 45.5778 94.5412 45.4865 94.0981 45.3039C93.6624 45.1143 93.3245 44.8264 93.0841 44.4401C92.8438 44.0468 92.7236 43.5517 92.7236 42.9547C92.7236 42.3438 92.8438 41.8416 93.0841 41.4483C93.332 41.055 93.6624 40.7671 94.0755 40.5845C94.4886 40.3949 94.9468 40.3001 95.45 40.3001C95.7279 40.3001 95.9796 40.3317 96.2049 40.3949C96.4377 40.4581 96.6255 40.5318 96.7682 40.6161V41.7222C96.648 41.6169 96.4903 41.5256 96.295 41.4483C96.0997 41.3711 95.8744 41.3325 95.619 41.3325C95.3411 41.3325 95.0895 41.3886 94.8642 41.501C94.6389 41.6063 94.4624 41.7819 94.3347 42.0277C94.207 42.2665 94.1431 42.579 94.1431 42.9653C94.1431 43.5131 94.2783 43.9134 94.5487 44.1662C94.8191 44.419 95.1834 44.5454 95.6416 44.5454C95.8444 44.5454 96.0171 44.5244 96.1598 44.4822C96.3025 44.4401 96.4227 44.3909 96.5203 44.3347ZM97.9061 41.2903L96.5203 41.3009V38.583C96.5729 38.5689 96.6555 38.5514 96.7682 38.5303C96.8884 38.5092 97.0123 38.4987 97.14 38.4987C97.4104 38.4987 97.6057 38.5444 97.7258 38.6357C97.846 38.7199 97.9061 38.8744 97.9061 39.0992V41.2903Z" fill="#743EF9"/>
<path d="M99.3753 43.5236V42.6914H100.761V43.5025C100.761 43.8747 100.862 44.1416 101.065 44.3031C101.276 44.4647 101.565 44.5454 101.933 44.5454C102.173 44.5454 102.376 44.5244 102.541 44.4822C102.706 44.4401 102.83 44.3944 102.913 44.3453V42.6914H104.299V44.4506C104.299 44.6122 104.269 44.7491 104.209 44.8615C104.156 44.9668 104.051 45.0651 103.893 45.1564C103.675 45.2758 103.397 45.3741 103.059 45.4514C102.729 45.5357 102.35 45.5778 101.921 45.5778C101.403 45.5778 100.953 45.5076 100.57 45.3671C100.186 45.2267 99.8898 45.0054 99.6795 44.7035C99.4767 44.3944 99.3753 44.0012 99.3753 43.5236ZM104.299 43.197H102.913V40.4581C102.973 40.4441 103.059 40.43 103.172 40.416C103.292 40.3949 103.416 40.3844 103.544 40.3844C103.807 40.3844 103.998 40.4265 104.118 40.5108C104.239 40.595 104.299 40.7531 104.299 40.9848V43.197ZM100.761 43.197H99.3753V40.4581C99.4354 40.4441 99.5218 40.43 99.6344 40.416C99.7471 40.3949 99.871 40.3844 100.006 40.3844C100.269 40.3844 100.461 40.4265 100.581 40.5108C100.701 40.595 100.761 40.7531 100.761 40.9848V43.197Z" fill="#743EF9"/>
<path d="M108.483 41.343C108.033 41.343 107.653 41.4799 107.345 41.7538C107.045 42.0277 106.895 42.428 106.895 42.9547C106.895 43.4744 107.041 43.8677 107.334 44.1346C107.627 44.4015 108.006 44.5349 108.472 44.5349C108.75 44.5349 108.983 44.5033 109.171 44.4401C109.366 44.3699 109.535 44.2961 109.678 44.2189C109.79 44.2821 109.877 44.3593 109.937 44.4506C110.004 44.5349 110.038 44.6402 110.038 44.7667C110.038 45.0054 109.884 45.2021 109.576 45.3566C109.268 45.5041 108.863 45.5778 108.359 45.5778C107.789 45.5778 107.285 45.483 106.85 45.2934C106.422 45.0967 106.084 44.8018 105.836 44.4085C105.595 44.0152 105.475 43.5306 105.475 42.9547C105.475 42.3578 105.603 41.8627 105.858 41.4694C106.121 41.0761 106.467 40.7847 106.895 40.595C107.33 40.3984 107.807 40.3001 108.326 40.3001C108.821 40.3001 109.219 40.3809 109.52 40.5424C109.82 40.7039 109.97 40.9041 109.97 41.1428C109.97 41.2482 109.94 41.3465 109.88 41.4378C109.82 41.5291 109.749 41.6028 109.666 41.659C109.516 41.5747 109.347 41.501 109.159 41.4378C108.972 41.3746 108.746 41.343 108.483 41.343Z" fill="#743EF9"/>
<path d="M113.309 44.5981C113.535 44.5981 113.737 44.577 113.918 44.5349C114.098 44.4928 114.229 44.4471 114.312 44.398V43.197L113.197 43.3024C112.889 43.3234 112.652 43.3867 112.487 43.492C112.329 43.5903 112.25 43.7378 112.25 43.9344C112.25 44.1381 112.337 44.2996 112.509 44.419C112.682 44.5384 112.949 44.5981 113.309 44.5981ZM113.253 40.3001C113.989 40.3001 114.575 40.4476 115.011 40.7425C115.446 41.0305 115.664 41.487 115.664 42.112V44.5349C115.664 44.7035 115.619 44.8369 115.529 44.9352C115.446 45.0335 115.337 45.1213 115.202 45.1986C114.992 45.3109 114.725 45.4022 114.402 45.4725C114.079 45.5497 113.715 45.5883 113.309 45.5883C112.558 45.5883 111.969 45.4549 111.54 45.188C111.112 44.9141 110.898 44.5103 110.898 43.9766C110.898 43.506 111.056 43.1479 111.371 42.9021C111.694 42.6493 112.16 42.4947 112.769 42.4386L114.301 42.2911V42.1015C114.301 41.8205 114.196 41.6169 113.985 41.4905C113.782 41.3641 113.493 41.3009 113.118 41.3009C112.825 41.3009 112.539 41.336 112.262 41.4062C111.984 41.4764 111.736 41.5607 111.518 41.659C111.443 41.6028 111.375 41.5256 111.315 41.4273C111.255 41.3289 111.225 41.2271 111.225 41.1218C111.225 40.8689 111.375 40.6828 111.676 40.5634C111.886 40.4721 112.13 40.4054 112.408 40.3633C112.693 40.3212 112.975 40.3001 113.253 40.3001Z" fill="#743EF9"/>
<path d="M117.1 42.6493H118.486V43.8923C118.486 44.1241 118.557 44.2891 118.7 44.3874C118.85 44.4857 119.061 44.5349 119.331 44.5349C119.451 44.5349 119.579 44.5209 119.714 44.4928C119.857 44.4647 119.977 44.4296 120.075 44.3874C120.127 44.4436 120.176 44.5103 120.221 44.5876C120.266 44.6648 120.289 44.7596 120.289 44.872C120.289 45.0757 120.183 45.2442 119.973 45.3777C119.77 45.5111 119.451 45.5778 119.016 45.5778C118.422 45.5778 117.953 45.4549 117.607 45.2091C117.269 44.9563 117.1 44.5489 117.1 43.9871V42.6493ZM117.945 41.5747V40.5529H120.153C120.183 40.6021 120.213 40.6723 120.244 40.7636C120.281 40.8549 120.3 40.9497 120.3 41.048C120.3 41.2236 120.255 41.357 120.165 41.4483C120.075 41.5326 119.958 41.5747 119.815 41.5747H117.945ZM118.486 42.9337H117.1V39.1413C117.16 39.1202 117.247 39.0992 117.359 39.0781C117.48 39.057 117.603 39.0465 117.731 39.0465C117.994 39.0465 118.186 39.0921 118.306 39.1834C118.426 39.2677 118.486 39.4222 118.486 39.647V42.9337Z" fill="#743EF9"/>
<path d="M121.345 38.9622C121.345 38.7586 121.42 38.5865 121.571 38.446C121.728 38.3056 121.924 38.2354 122.156 38.2354C122.397 38.2354 122.588 38.3056 122.731 38.446C122.881 38.5865 122.956 38.7586 122.956 38.9622C122.956 39.1589 122.881 39.3309 122.731 39.4784C122.588 39.6189 122.397 39.6891 122.156 39.6891C121.924 39.6891 121.728 39.6189 121.571 39.4784C121.42 39.3309 121.345 39.1589 121.345 38.9622ZM121.458 42.6493H122.855V45.4093C122.795 45.4303 122.708 45.4479 122.596 45.4619C122.483 45.483 122.359 45.4935 122.224 45.4935C121.969 45.4935 121.777 45.4514 121.649 45.3671C121.522 45.2758 121.458 45.1178 121.458 44.8931V42.6493ZM122.855 43.3129H121.458V40.4897C121.518 40.4686 121.604 40.4511 121.717 40.437C121.837 40.416 121.965 40.4054 122.1 40.4054C122.363 40.4054 122.555 40.4511 122.675 40.5424C122.795 40.6267 122.855 40.7847 122.855 41.0164V43.3129Z" fill="#743EF9"/>
<path d="M129.578 42.9337C129.578 43.4744 129.465 43.945 129.24 44.3453C129.015 44.7386 128.696 45.0441 128.282 45.2618C127.877 45.4725 127.396 45.5778 126.84 45.5778C126.285 45.5778 125.8 45.4725 125.387 45.2618C124.974 45.0441 124.651 44.7386 124.418 44.3453C124.193 43.952 124.08 43.4815 124.08 42.9337C124.08 42.3929 124.196 41.9259 124.429 41.5326C124.662 41.1393 124.985 40.8373 125.398 40.6267C125.811 40.4089 126.292 40.3001 126.84 40.3001C127.389 40.3001 127.866 40.4089 128.271 40.6267C128.684 40.8373 129.003 41.1428 129.229 41.5431C129.462 41.9364 129.578 42.3999 129.578 42.9337ZM126.84 41.3325C126.427 41.3325 126.101 41.4729 125.86 41.7538C125.627 42.0347 125.511 42.428 125.511 42.9337C125.511 43.4534 125.627 43.8537 125.86 44.1346C126.093 44.4085 126.42 44.5454 126.84 44.5454C127.253 44.5454 127.576 44.405 127.809 44.1241C128.042 43.8431 128.158 43.4464 128.158 42.9337C128.158 42.4351 128.042 42.0453 127.809 41.7644C127.576 41.4764 127.253 41.3325 126.84 41.3325Z" fill="#743EF9"/>
<path d="M135.688 42.1752V43.197H134.302V42.2279C134.302 41.9189 134.209 41.6941 134.021 41.5537C133.833 41.4062 133.581 41.3325 133.266 41.3325C133.033 41.3325 132.823 41.3605 132.635 41.4167C132.455 41.4659 132.293 41.5256 132.151 41.5958V43.197H130.765V41.5115C130.765 41.343 130.802 41.206 130.877 41.1007C130.953 40.9883 131.065 40.8865 131.215 40.7952C131.441 40.6547 131.73 40.5389 132.083 40.4476C132.443 40.3492 132.842 40.3001 133.277 40.3001C134.036 40.3001 134.625 40.4581 135.046 40.7741C135.474 41.0902 135.688 41.5572 135.688 42.1752ZM130.765 42.6809H132.151V45.4093C132.09 45.4303 132.004 45.4479 131.891 45.4619C131.779 45.483 131.655 45.4935 131.52 45.4935C131.264 45.4935 131.073 45.4514 130.945 45.3671C130.825 45.2758 130.765 45.1178 130.765 44.8931V42.6809ZM134.302 42.6809H135.688V45.4093C135.636 45.4303 135.549 45.4479 135.429 45.4619C135.316 45.483 135.196 45.4935 135.069 45.4935C134.806 45.4935 134.61 45.4514 134.483 45.3671C134.363 45.2758 134.302 45.1178 134.302 44.8931V42.6809Z" fill="#743EF9"/>
<path d="M140.968 42.2279H141.801C142.259 42.2279 142.62 42.1331 142.883 41.9434C143.146 41.7468 143.277 41.4624 143.277 41.0902C143.277 40.7109 143.15 40.43 142.894 40.2474C142.646 40.0648 142.29 39.9735 141.824 39.9735C141.659 39.9735 141.505 39.9805 141.362 39.9946C141.219 40.0016 141.088 40.0157 140.968 40.0367V42.2279ZM141.88 43.2918H139.548V39.5627C139.548 39.4363 139.586 39.3379 139.661 39.2677C139.743 39.1975 139.848 39.1413 139.976 39.0992C140.217 39.0289 140.502 38.9763 140.832 38.9412C141.163 38.906 141.471 38.8885 141.756 38.8885C142.748 38.8885 143.488 39.0851 143.976 39.4784C144.471 39.8717 144.719 40.4054 144.719 41.0796C144.719 41.5291 144.61 41.9189 144.393 42.2489C144.175 42.579 143.856 42.8354 143.435 43.018C143.014 43.2005 142.496 43.2918 141.88 43.2918ZM139.548 42.6914H140.979V45.4093C140.919 45.4303 140.825 45.4479 140.697 45.4619C140.577 45.483 140.449 45.4935 140.314 45.4935C140.044 45.4935 139.848 45.4479 139.728 45.3566C139.608 45.2583 139.548 45.0967 139.548 44.872V42.6914Z" fill="#743EF9"/>
<path d="M145.95 42.6493L147.336 42.7125V45.4093C147.275 45.4303 147.189 45.4479 147.076 45.4619C146.964 45.483 146.84 45.4935 146.705 45.4935C146.449 45.4935 146.258 45.4514 146.13 45.3671C146.01 45.2758 145.95 45.1178 145.95 44.8931V42.6493ZM147.336 43.3761L145.95 43.3129V38.583C146.002 38.5689 146.085 38.5514 146.198 38.5303C146.318 38.5092 146.442 38.4987 146.569 38.4987C146.84 38.4987 147.035 38.5444 147.155 38.6357C147.275 38.7199 147.336 38.8744 147.336 39.0992V43.3761Z" fill="#743EF9"/>
<path d="M150.937 44.5981C151.162 44.5981 151.365 44.577 151.545 44.5349C151.726 44.4928 151.857 44.4471 151.94 44.398V43.197L150.824 43.3024C150.516 43.3234 150.28 43.3867 150.115 43.492C149.957 43.5903 149.878 43.7378 149.878 43.9344C149.878 44.1381 149.964 44.2996 150.137 44.419C150.31 44.5384 150.577 44.5981 150.937 44.5981ZM150.881 40.3001C151.617 40.3001 152.203 40.4476 152.638 40.7425C153.074 41.0305 153.292 41.487 153.292 42.112V44.5349C153.292 44.7035 153.247 44.8369 153.157 44.9352C153.074 45.0335 152.965 45.1213 152.83 45.1986C152.62 45.3109 152.353 45.4022 152.03 45.4725C151.707 45.5497 151.343 45.5883 150.937 45.5883C150.186 45.5883 149.596 45.4549 149.168 45.188C148.74 44.9141 148.526 44.5103 148.526 43.9766C148.526 43.506 148.684 43.1479 148.999 42.9021C149.322 42.6493 149.788 42.4947 150.396 42.4386L151.929 42.2911V42.1015C151.929 41.8205 151.823 41.6169 151.613 41.4905C151.41 41.3641 151.121 41.3009 150.746 41.3009C150.453 41.3009 150.167 41.336 149.889 41.4062C149.611 41.4764 149.364 41.5607 149.146 41.659C149.071 41.6028 149.003 41.5256 148.943 41.4273C148.883 41.3289 148.853 41.2271 148.853 41.1218C148.853 40.8689 149.003 40.6828 149.303 40.5634C149.514 40.4721 149.758 40.4054 150.036 40.3633C150.321 40.3212 150.603 40.3001 150.881 40.3001Z" fill="#743EF9"/>
<path d="M154.728 42.6493H156.114V43.8923C156.114 44.1241 156.185 44.2891 156.328 44.3874C156.478 44.4857 156.688 44.5349 156.959 44.5349C157.079 44.5349 157.207 44.5209 157.342 44.4928C157.485 44.4647 157.605 44.4296 157.702 44.3874C157.755 44.4436 157.804 44.5103 157.849 44.5876C157.894 44.6648 157.916 44.7596 157.916 44.872C157.916 45.0757 157.811 45.2442 157.601 45.3777C157.398 45.5111 157.079 45.5778 156.643 45.5778C156.05 45.5778 155.581 45.4549 155.235 45.2091C154.897 44.9563 154.728 44.5489 154.728 43.9871V42.6493ZM155.573 41.5747V40.5529H157.781C157.811 40.6021 157.841 40.6723 157.871 40.7636C157.909 40.8549 157.928 40.9497 157.928 41.048C157.928 41.2236 157.883 41.357 157.792 41.4483C157.702 41.5326 157.586 41.5747 157.443 41.5747H155.573ZM156.114 42.9337H154.728V39.1413C154.788 39.1202 154.874 39.0992 154.987 39.0781C155.107 39.057 155.231 39.0465 155.359 39.0465C155.622 39.0465 155.813 39.0921 155.934 39.1834C156.054 39.2677 156.114 39.4222 156.114 39.647V42.9337Z" fill="#743EF9"/>
<path d="M160.179 41.7854V40.7741H162.443C162.473 40.8233 162.503 40.8935 162.533 40.9848C162.571 41.0691 162.59 41.1674 162.59 41.2798C162.59 41.4554 162.544 41.5853 162.454 41.6696C162.372 41.7468 162.252 41.7854 162.094 41.7854H160.179ZM160.393 40.2685V41.6274H159.063V40.2158C159.063 39.7734 159.157 39.4152 159.345 39.1413C159.54 38.8604 159.807 38.6567 160.145 38.5303C160.49 38.3969 160.881 38.3302 161.316 38.3302C161.805 38.3302 162.176 38.3899 162.432 38.5092C162.687 38.6286 162.815 38.8077 162.815 39.0465C162.815 39.1518 162.789 39.2502 162.736 39.3415C162.691 39.4257 162.635 39.496 162.567 39.5521C162.424 39.496 162.263 39.4503 162.083 39.4152C161.91 39.3801 161.726 39.3625 161.531 39.3625C161.132 39.3625 160.843 39.4328 160.663 39.5732C160.483 39.7137 160.393 39.9454 160.393 40.2685ZM159.063 41.2587H160.449V45.4093C160.389 45.4303 160.302 45.4479 160.19 45.4619C160.077 45.483 159.953 45.4935 159.818 45.4935C159.563 45.4935 159.371 45.4514 159.243 45.3671C159.123 45.2758 159.063 45.1178 159.063 44.8931V41.2587Z" fill="#743EF9"/>
<path d="M168.636 42.9337C168.636 43.4744 168.523 43.945 168.298 44.3453C168.073 44.7386 167.754 45.0441 167.341 45.2618C166.935 45.4725 166.454 45.5778 165.898 45.5778C165.343 45.5778 164.858 45.4725 164.445 45.2618C164.032 45.0441 163.709 44.7386 163.476 44.3453C163.251 43.952 163.138 43.4815 163.138 42.9337C163.138 42.3929 163.255 41.9259 163.487 41.5326C163.72 41.1393 164.043 40.8373 164.456 40.6267C164.869 40.4089 165.35 40.3001 165.898 40.3001C166.447 40.3001 166.924 40.4089 167.329 40.6267C167.742 40.8373 168.062 41.1428 168.287 41.5431C168.52 41.9364 168.636 42.3999 168.636 42.9337ZM165.898 41.3325C165.485 41.3325 165.159 41.4729 164.918 41.7538C164.685 42.0347 164.569 42.428 164.569 42.9337C164.569 43.4534 164.685 43.8537 164.918 44.1346C165.151 44.4085 165.478 44.5454 165.898 44.5454C166.312 44.5454 166.634 44.405 166.867 44.1241C167.1 43.8431 167.217 43.4464 167.217 42.9337C167.217 42.4351 167.1 42.0453 166.867 41.7644C166.634 41.4764 166.312 41.3325 165.898 41.3325Z" fill="#743EF9"/>
<path d="M171.209 41.638V43.0812H169.823V41.5326C169.823 41.357 169.868 41.2096 169.958 41.0902C170.048 40.9638 170.176 40.8479 170.341 40.7425C170.566 40.6161 170.852 40.5108 171.197 40.4265C171.543 40.3422 171.915 40.3001 172.313 40.3001C173.019 40.3001 173.372 40.5038 173.372 40.9111C173.372 41.0094 173.357 41.1007 173.327 41.185C173.297 41.2622 173.259 41.3325 173.214 41.3957C173.139 41.3816 173.045 41.3711 172.932 41.3641C172.82 41.35 172.7 41.343 172.572 41.343C172.301 41.343 172.046 41.3711 171.806 41.4273C171.573 41.4764 171.374 41.5467 171.209 41.638ZM169.823 42.6493L171.209 42.7125V45.4093C171.149 45.4303 171.062 45.4479 170.95 45.4619C170.837 45.483 170.713 45.4935 170.578 45.4935C170.322 45.4935 170.131 45.4514 170.003 45.3671C169.883 45.2758 169.823 45.1178 169.823 44.8931V42.6493Z" fill="#743EF9"/>
<path d="M178.866 41.9856V43.1865H177.48V42.1331C177.48 41.8592 177.39 41.659 177.21 41.5326C177.037 41.3992 176.815 41.3325 176.545 41.3325C176.35 41.3325 176.169 41.3605 176.004 41.4167C175.846 41.4659 175.711 41.5256 175.599 41.5958V43.1865H174.213V41.5115C174.213 41.343 174.25 41.206 174.325 41.1007C174.401 40.9883 174.513 40.8865 174.663 40.7952C174.896 40.6477 175.182 40.5283 175.52 40.437C175.865 40.3457 176.222 40.3001 176.59 40.3001C176.958 40.3001 177.296 40.3528 177.604 40.4581C177.912 40.5634 178.164 40.718 178.359 40.9216C178.411 40.9638 178.46 41.0059 178.505 41.048C178.55 41.0902 178.588 41.1393 178.618 41.1955C178.686 41.3009 178.742 41.4238 178.787 41.5642C178.84 41.6976 178.866 41.8381 178.866 41.9856ZM182.122 42.0909V43.1865H180.736V42.1331C180.736 41.8592 180.653 41.659 180.488 41.5326C180.323 41.3992 180.101 41.3325 179.823 41.3325C179.621 41.3325 179.422 41.3711 179.226 41.4483C179.039 41.5256 178.877 41.6274 178.742 41.7538L178.043 40.9638C178.276 40.7812 178.55 40.6267 178.866 40.5002C179.181 40.3668 179.557 40.3001 179.992 40.3001C180.391 40.3001 180.751 40.3598 181.074 40.4792C181.397 40.5986 181.652 40.7917 181.84 41.0586C182.028 41.3254 182.122 41.6696 182.122 42.0909ZM174.213 42.6809H175.599V45.4093C175.538 45.4303 175.452 45.4479 175.339 45.4619C175.227 45.483 175.103 45.4935 174.968 45.4935C174.712 45.4935 174.521 45.4514 174.393 45.3671C174.273 45.2758 174.213 45.1178 174.213 44.8931V42.6809ZM177.48 42.6809H178.866V45.4093C178.806 45.4303 178.716 45.4479 178.595 45.4619C178.483 45.483 178.363 45.4935 178.235 45.4935C177.972 45.4935 177.78 45.4514 177.66 45.3671C177.54 45.2758 177.48 45.1178 177.48 44.8931V42.6809ZM180.736 42.6809H182.122V45.4093C182.069 45.4303 181.983 45.4479 181.863 45.4619C181.75 45.483 181.63 45.4935 181.502 45.4935C181.239 45.4935 181.044 45.4514 180.916 45.3671C180.796 45.2758 180.736 45.1178 180.736 44.8931V42.6809Z" fill="#743EF9"/>
</svg>
