<svg width="216" height="50" viewBox="0 0 216 50" fill="none" xmlns="http://www.w3.org/2000/svg">
<path d="M1.43901 46.4278H16.7007C17.3185 48.4926 19.2056 49.9995 21.4326 49.9995H27.6635C29.8905 49.9995 31.7776 48.4926 32.3954 46.4278H47.6571C48.4514 46.4278 49.0956 45.7717 49.0956 44.9627C49.0956 44.1538 48.4514 43.4977 47.6571 43.4977H46.7869V38.3887C46.7869 37.4432 45.9187 36.7453 45.0163 36.9635C42.7159 37.5199 41.1894 37.7969 39.228 37.7705C35.874 37.7256 34.4409 37.0427 30.4535 36.7298C27.892 36.5291 25.8142 37.7341 24.4906 39.4468C23.1665 37.7341 21.0887 36.5291 18.5281 36.7298C14.5505 37.0422 13.1017 37.7256 9.75368 37.7705C7.79228 37.7964 6.26571 37.5194 3.96535 36.9635C3.06242 36.7453 2.19471 37.4437 2.19471 38.3887V43.4977H1.43852C0.644181 43.4977 0 44.1538 0 44.9627C0.000978254 45.7717 0.64467 46.4278 1.43901 46.4278ZM5.07225 40.2174C6.53816 40.5203 8.02755 40.7245 9.79281 40.7006C13.4231 40.6518 14.9321 39.9514 18.7502 39.6515C20.1359 39.5429 22.4392 40.3529 23.0961 43.0304L23.0966 43.0324C23.4541 44.4751 25.5148 44.5333 25.8861 43.0319C25.8861 43.0319 25.8865 43.0309 25.8865 43.0299C26.5434 40.3524 28.8458 39.5424 30.2324 39.651C34.051 39.9509 35.559 40.6513 39.1898 40.7001C40.9546 40.7245 42.444 40.5198 43.9104 40.2169V43.4972H31.1784C31.176 43.4972 31.1735 43.4967 31.1711 43.4967C30.3767 43.4967 29.7325 44.1528 29.7325 44.9617C29.7325 46.1239 28.8042 47.0694 27.6635 47.0694H21.433C20.2919 47.0694 19.3636 46.1239 19.3636 44.9617C19.3636 44.1528 18.7194 43.4967 17.925 43.4967C17.9226 43.4967 17.9201 43.4972 17.9177 43.4972H5.07225V40.2174Z" fill="#743EF9"/>
<path d="M23.0552 33.8539H26.0173C28.3045 33.8539 30.1783 32.0217 30.194 29.7701L30.2165 26.697C30.6293 24.0608 31.6628 21.6094 33.2892 19.4101C34.7262 17.4683 35.4858 15.1524 35.4858 12.713C35.4858 6.4438 30.4478 1.48623 24.3929 1.5744C18.498 1.65759 13.6972 6.54044 13.6111 12.5461C13.5744 15.0603 14.3419 17.4449 15.8298 19.4425C17.4415 21.6054 18.4662 24.0399 18.8785 26.6786V29.7407C18.8785 32.0088 20.7519 33.8539 23.0552 33.8539ZM27.3169 29.7492C27.3125 30.3973 26.7295 30.9243 26.0173 30.9243H23.0552C22.3386 30.9243 21.7556 30.3933 21.7556 29.7407V27.9947H27.3301L27.3169 29.7492ZM16.4872 12.589C16.5503 8.19181 20.1145 4.56478 24.4326 4.50401C28.9223 4.43626 32.6088 8.12107 32.6088 12.713C32.6088 14.5108 32.0497 16.217 30.9913 17.6472C29.3209 19.9058 28.1812 22.396 27.5948 25.0646H25.9865V16.5712C25.9865 15.7622 25.3423 15.1061 24.548 15.1061C23.7537 15.1061 23.1095 15.7622 23.1095 16.5712V25.0646H21.5046C20.9206 22.387 19.7854 19.9053 18.1214 17.6716C17.0257 16.2005 16.4608 14.4431 16.4872 12.589Z" fill="#08001C"/>
<path d="M10.8262 11.2668C10.8262 10.4578 10.1821 9.80176 9.38773 9.80176H4.59233C3.79799 9.80176 3.15381 10.4578 3.15381 11.2668C3.15381 12.0758 3.79799 12.7319 4.59233 12.7319H9.38773C10.1826 12.7319 10.8262 12.0758 10.8262 11.2668Z" fill="#743EF9"/>
<path d="M38.3513 19.8516L42.4829 22.3309C43.1677 22.7418 44.0496 22.5087 44.4521 21.8123C44.8552 21.1154 44.6273 20.2172 43.943 19.8068L39.8113 17.328C39.127 16.9175 38.2451 17.1491 37.8421 17.8465C37.4386 18.543 37.6665 19.4411 38.3513 19.8516Z" fill="#743EF9"/>
<path d="M6.61324 22.3304L10.7449 19.8511C11.4292 19.4406 11.6571 18.5425 11.2541 17.8456C10.8505 17.1482 9.96913 16.9165 9.28485 17.327L5.15319 19.8058C4.4689 20.2163 4.24097 21.1144 4.64401 21.8113C5.04705 22.5092 5.92895 22.7414 6.61324 22.3304Z" fill="#743EF9"/>
<path d="M39.8115 5.20588L43.9431 2.72709C44.6274 2.31662 44.8553 1.41845 44.4523 0.721545C44.0493 0.0241378 43.1674 -0.207501 42.4831 0.202973L38.3514 2.68176C37.6671 3.09223 37.4392 3.99039 37.8423 4.6873C38.2453 5.38471 39.1272 5.61635 39.8115 5.20588Z" fill="#743EF9"/>
<path d="M10.7449 2.68176L6.61324 0.202973C5.92895 -0.207501 5.04705 0.0241378 4.64401 0.721545C4.24097 1.41845 4.4689 2.31662 5.15319 2.72709L9.28485 5.20588C9.96962 5.61685 10.851 5.38421 11.2541 4.6873C11.6571 3.99039 11.4292 3.09223 10.7449 2.68176Z" fill="#743EF9"/>
<path d="M45.942 11.2668C45.942 10.4578 45.2978 9.80176 44.5035 9.80176H39.7081C38.9137 9.80176 38.2695 10.4578 38.2695 11.2668C38.2695 12.0758 38.9137 12.7319 39.7081 12.7319H44.5035C45.2978 12.7319 45.942 12.0758 45.942 11.2668Z" fill="#743EF9"/>
<path d="M58.3423 25.7231V3.2689H62.3671V14.9632L61.2721 14.5714L70.6534 3.2689H75.714L66.9246 13.8781L67.1613 10.9847L75.9803 25.7231H71.2453L65.3265 15.8372L62.3671 19.4239V25.7231H58.3423Z" fill="#743EF9"/>
<path d="M77.5107 25.7231V9.32702H81.1507V12.552L80.8548 11.9793C81.2296 10.9948 81.8412 10.2513 82.6896 9.74897C83.5577 9.22655 84.5639 8.96534 85.7082 8.96534C86.892 8.96534 87.9376 9.22655 88.8452 9.74897C89.7724 10.2714 90.4926 11.0048 91.0055 11.9492C91.5185 12.8735 91.775 13.9485 91.775 15.1741V25.7231H87.8982V16.1085C87.8982 15.3851 87.7601 14.7622 87.4838 14.2398C87.2076 13.7174 86.8229 13.3155 86.3297 13.0342C85.8562 12.7328 85.2939 12.5821 84.6428 12.5821C84.0115 12.5821 83.4492 12.7328 82.956 13.0342C82.4627 13.3155 82.078 13.7174 81.8018 14.2398C81.5256 14.7622 81.3875 15.3851 81.3875 16.1085V25.7231H77.5107Z" fill="#743EF9"/>
<path d="M102.333 26.0848C100.755 26.0848 99.3147 25.7131 98.0126 24.9696C96.7302 24.2262 95.7043 23.2114 94.9348 21.9255C94.1851 20.6395 93.8103 19.1727 93.8103 17.5251C93.8103 15.8774 94.1851 14.4106 94.9348 13.1246C95.7043 11.8387 96.7302 10.824 98.0126 10.0805C99.295 9.33706 100.735 8.96534 102.333 8.96534C103.912 8.96534 105.342 9.33706 106.624 10.0805C107.907 10.824 108.923 11.8387 109.673 13.1246C110.442 14.3905 110.827 15.8573 110.827 17.5251C110.827 19.1727 110.442 20.6395 109.673 21.9255C108.903 23.2114 107.877 24.2262 106.595 24.9696C105.312 25.7131 103.892 26.0848 102.333 26.0848ZM102.333 22.468C103.201 22.468 103.961 22.257 104.612 21.8351C105.283 21.4131 105.806 20.8304 106.181 20.0869C106.575 19.3234 106.772 18.4694 106.772 17.5251C106.772 16.5606 106.575 15.7167 106.181 14.9933C105.806 14.2499 105.283 13.6672 104.612 13.2452C103.961 12.8031 103.201 12.5821 102.333 12.5821C101.446 12.5821 100.666 12.8031 99.9954 13.2452C99.3246 13.6672 98.7919 14.2499 98.3973 14.9933C98.0225 15.7167 97.835 16.5606 97.835 17.5251C97.835 18.4694 98.0225 19.3234 98.3973 20.0869C98.7919 20.8304 99.3246 21.4131 99.9954 21.8351C100.666 22.257 101.446 22.468 102.333 22.468Z" fill="#743EF9"/>
<path d="M116.94 25.7231L111.406 9.32702H115.49L119.545 21.7748L118.124 21.7446L122.445 9.32702H125.878L130.169 21.7446L128.748 21.7748L132.803 9.32702H136.887L131.353 25.7231H127.89L123.51 12.7328H124.812L120.373 25.7231H116.94Z" fill="#743EF9"/>
<path d="M138.42 25.7231V2.90723H142.297V25.7231H138.42Z" fill="#743EF9"/>
<path d="M152.92 26.0848C151.262 26.0848 149.812 25.703 148.569 24.9395C147.326 24.1759 146.36 23.1411 145.669 21.8351C144.979 20.529 144.633 19.0823 144.633 17.4949C144.633 15.8473 144.979 14.3905 145.669 13.1246C146.379 11.8387 147.336 10.824 148.54 10.0805C149.763 9.33706 151.124 8.96534 152.624 8.96534C153.886 8.96534 154.991 9.17632 155.938 9.59828C156.905 10.0202 157.724 10.6029 158.395 11.3464C159.065 12.0898 159.578 12.9438 159.933 13.9083C160.289 14.8527 160.466 15.8774 160.466 16.9825C160.466 17.2638 160.446 17.5552 160.407 17.8566C160.387 18.158 160.338 18.4192 160.259 18.6402H147.83V15.6262H158.069L156.234 17.0428C156.412 16.1185 156.362 15.2947 156.086 14.5714C155.83 13.848 155.396 13.2753 154.784 12.8534C154.192 12.4314 153.472 12.2204 152.624 12.2204C151.815 12.2204 151.095 12.4314 150.463 12.8534C149.832 13.2552 149.349 13.858 149.013 14.6618C148.698 15.4454 148.579 16.3998 148.658 17.5251C148.579 18.5297 148.707 19.4239 149.043 20.2075C149.398 20.9711 149.911 21.5638 150.582 21.9858C151.272 22.4077 152.061 22.6187 152.949 22.6187C153.837 22.6187 154.587 22.4278 155.198 22.046C155.83 21.6643 156.323 21.1519 156.678 20.5089L159.815 22.0762C159.499 22.8598 159.006 23.553 158.335 24.1558C157.665 24.7586 156.866 25.2308 155.938 25.5724C155.031 25.914 154.025 26.0848 152.92 26.0848Z" fill="#743EF9"/>
<path d="M170.3 26.0848C168.742 26.0848 167.351 25.7131 166.128 24.9696C164.904 24.2061 163.938 23.1713 163.227 21.8652C162.517 20.5591 162.162 19.1124 162.162 17.5251C162.162 15.9176 162.517 14.4709 163.227 13.1849C163.938 11.899 164.904 10.8742 166.128 10.1107C167.371 9.34711 168.752 8.96534 170.271 8.96534C171.494 8.96534 172.579 9.2165 173.526 9.71884C174.493 10.2011 175.252 10.8842 175.805 11.7683L175.213 12.5821V2.90723H179.09V25.7231H175.42V22.5584L175.834 23.3421C175.282 24.2262 174.513 24.9093 173.526 25.3916C172.54 25.8537 171.464 26.0848 170.3 26.0848ZM170.715 22.468C171.603 22.468 172.382 22.257 173.053 21.8351C173.723 21.4131 174.246 20.8304 174.621 20.0869C175.016 19.3435 175.213 18.4895 175.213 17.5251C175.213 16.5807 175.016 15.7368 174.621 14.9933C174.246 14.2298 173.723 13.637 173.053 13.2151C172.382 12.7931 171.603 12.5821 170.715 12.5821C169.847 12.5821 169.067 12.8031 168.377 13.2452C167.686 13.6672 167.144 14.2499 166.749 14.9933C166.374 15.7167 166.187 16.5606 166.187 17.5251C166.187 18.4895 166.374 19.3435 166.749 20.0869C167.144 20.8304 167.686 21.4131 168.377 21.8351C169.067 22.257 169.847 22.468 170.715 22.468Z" fill="#743EF9"/>
<path d="M189.918 32.3539C188.714 32.3539 187.599 32.1529 186.573 31.7511C185.547 31.3492 184.66 30.7866 183.91 30.0632C183.18 29.36 182.647 28.5261 182.312 27.5616L185.922 26.1752C186.159 26.9387 186.623 27.5516 187.313 28.0137C188.023 28.496 188.892 28.7371 189.918 28.7371C190.707 28.7371 191.397 28.5864 191.989 28.285C192.601 27.9836 193.074 27.5415 193.41 26.9588C193.745 26.3962 193.913 25.7131 193.913 24.9093V21.172L194.653 22.0762C194.1 23.0607 193.36 23.8042 192.433 24.3065C191.506 24.8089 190.45 25.06 189.266 25.06C187.767 25.06 186.425 24.7084 185.242 24.0051C184.058 23.3019 183.131 22.3374 182.46 21.1117C181.789 19.886 181.454 18.5096 181.454 16.9825C181.454 15.4354 181.789 14.059 182.46 12.8534C183.131 11.6478 184.048 10.7034 185.212 10.0202C186.376 9.31697 187.698 8.96534 189.178 8.96534C190.381 8.96534 191.437 9.22655 192.344 9.74897C193.272 10.2513 194.041 10.9847 194.653 11.9492L194.12 12.9438V9.32702H197.79V24.9093C197.79 26.3359 197.444 27.6119 196.754 28.7371C196.083 29.8623 195.156 30.7464 193.972 31.3894C192.808 32.0324 191.456 32.3539 189.918 32.3539ZM189.74 21.4131C190.569 21.4131 191.289 21.2323 191.9 20.8706C192.532 20.4888 193.025 19.9664 193.38 19.3033C193.735 18.6402 193.913 17.8767 193.913 17.0127C193.913 16.1688 193.725 15.4153 193.35 14.7522C192.995 14.069 192.502 13.5366 191.871 13.1548C191.259 12.773 190.549 12.5821 189.74 12.5821C188.931 12.5821 188.201 12.773 187.55 13.1548C186.899 13.5366 186.386 14.069 186.011 14.7522C185.656 15.4153 185.478 16.1688 185.478 17.0127C185.478 17.8566 185.656 18.6101 186.011 19.2732C186.386 19.9362 186.889 20.4587 187.52 20.8404C188.171 21.2222 188.911 21.4131 189.74 21.4131Z" fill="#743EF9"/>
<path d="M208.454 26.0848C206.796 26.0848 205.346 25.703 204.103 24.9395C202.86 24.1759 201.894 23.1411 201.203 21.8351C200.512 20.529 200.167 19.0823 200.167 17.4949C200.167 15.8473 200.512 14.3905 201.203 13.1246C201.913 11.8387 202.87 10.824 204.074 10.0805C205.297 9.33706 206.658 8.96534 208.158 8.96534C209.42 8.96534 210.525 9.17632 211.472 9.59828C212.439 10.0202 213.258 10.6029 213.928 11.3464C214.599 12.0898 215.112 12.9438 215.467 13.9083C215.822 14.8527 216 15.8774 216 16.9825C216 17.2638 215.98 17.5552 215.941 17.8566C215.921 18.158 215.872 18.4192 215.793 18.6402H203.363V15.6262H213.603L211.768 17.0428C211.946 16.1185 211.896 15.2947 211.62 14.5714C211.364 13.848 210.93 13.2753 210.318 12.8534C209.726 12.4314 209.006 12.2204 208.158 12.2204C207.349 12.2204 206.629 12.4314 205.997 12.8534C205.366 13.2552 204.883 13.858 204.547 14.6618C204.231 15.4454 204.113 16.3998 204.192 17.5251C204.113 18.5297 204.241 19.4239 204.577 20.2075C204.932 20.9711 205.445 21.5638 206.116 21.9858C206.806 22.4077 207.595 22.6187 208.483 22.6187C209.371 22.6187 210.121 22.4278 210.732 22.046C211.364 21.6643 211.857 21.1519 212.212 20.5089L215.349 22.0762C215.033 22.8598 214.54 23.553 213.869 24.1558C213.198 24.7586 212.399 25.2308 211.472 25.5724C210.565 25.914 209.558 26.0848 208.454 26.0848Z" fill="#743EF9"/>
<path d="M58.4861 44.6866C58.3462 44.6866 58.2285 44.638 58.1331 44.5409C58.044 44.4437 57.9995 44.3238 57.9995 44.1813V37.6025C57.9995 37.46 58.0472 37.3401 58.1426 37.2429C58.2381 37.1458 58.3526 37.0972 58.4861 37.0972C58.6261 37.0972 58.7438 37.1458 58.8392 37.2429C58.9346 37.3401 58.9823 37.46 58.9823 37.6025V43.676H62.4364C62.5763 43.676 62.694 43.7246 62.7894 43.8217C62.8848 43.9189 62.9325 44.0388 62.9325 44.1813C62.9325 44.3238 62.8848 44.4437 62.7894 44.5409C62.694 44.638 62.5763 44.6866 62.4364 44.6866H58.4861Z" fill="#08001C"/>
<path d="M66.2015 44.7255C65.7371 44.7255 65.3205 44.6089 64.9515 44.3757C64.5826 44.136 64.29 43.8153 64.0737 43.4136C63.8638 43.0055 63.7588 42.5455 63.7588 42.0337C63.7588 41.5219 63.8733 41.062 64.1023 40.6538C64.3377 40.2457 64.6526 39.925 65.047 39.6918C65.4477 39.4521 65.8962 39.3322 66.3923 39.3322C66.8885 39.3322 67.3338 39.4521 67.7281 39.6918C68.1225 39.925 68.4342 40.2457 68.6632 40.6538C68.8986 41.062 69.0163 41.5219 69.0163 42.0337H68.6441C68.6441 42.5455 68.536 43.0055 68.3197 43.4136C68.1098 43.8153 67.8204 44.136 67.4514 44.3757C67.0825 44.6089 66.6658 44.7255 66.2015 44.7255ZM66.3923 43.8509C66.7167 43.8509 67.0062 43.7732 67.2606 43.6177C67.5151 43.4557 67.7154 43.2387 67.8617 42.9666C68.008 42.688 68.0812 42.3771 68.0812 42.0337C68.0812 41.6839 68.008 41.3729 67.8617 41.1008C67.7154 40.8223 67.5151 40.6052 67.2606 40.4497C67.0062 40.2878 66.7167 40.2068 66.3923 40.2068C66.0743 40.2068 65.7848 40.2878 65.524 40.4497C65.2696 40.6052 65.066 40.8223 64.9134 41.1008C64.7671 41.3729 64.6939 41.6839 64.6939 42.0337C64.6939 42.3771 64.7671 42.688 64.9134 42.9666C65.066 43.2387 65.2696 43.4557 65.524 43.6177C65.7848 43.7732 66.0743 43.8509 66.3923 43.8509ZM68.5296 44.6963C68.3897 44.6963 68.272 44.651 68.1766 44.5603C68.0875 44.4631 68.043 44.3433 68.043 44.2007V42.7139L68.2243 41.6839L69.0163 42.0337V44.2007C69.0163 44.3433 68.9686 44.4631 68.8731 44.5603C68.7841 44.651 68.6696 44.6963 68.5296 44.6963Z" fill="#08001C"/>
<path d="M74.8729 44.6963C74.733 44.6963 74.6153 44.651 74.5199 44.5603C74.4309 44.4631 74.3863 44.3433 74.3863 44.2007V41.8102C74.3863 41.4409 74.3195 41.1397 74.186 40.9065C74.0524 40.6732 73.8711 40.5016 73.6421 40.3914C73.4194 40.2748 73.1618 40.2165 72.8692 40.2165C72.602 40.2165 72.3603 40.2716 72.144 40.3817C71.9278 40.4919 71.756 40.6409 71.6288 40.8287C71.5016 41.0101 71.438 41.2207 71.438 41.4604H70.8368C70.8368 41.0522 70.9323 40.6894 71.1231 40.372C71.3203 40.0481 71.5875 39.7922 71.9246 39.6043C72.2617 39.4164 72.6402 39.3225 73.06 39.3225C73.499 39.3225 73.8902 39.4197 74.2337 39.614C74.5835 39.8019 74.857 40.0805 75.0542 40.4497C75.2578 40.819 75.3596 41.2725 75.3596 41.8102V44.2007C75.3596 44.3433 75.3119 44.4631 75.2164 44.5603C75.1274 44.651 75.0129 44.6963 74.8729 44.6963ZM70.9513 44.6963C70.8114 44.6963 70.6937 44.651 70.5983 44.5603C70.5093 44.4631 70.4647 44.3433 70.4647 44.2007V39.8667C70.4647 39.7177 70.5093 39.5978 70.5983 39.5071C70.6937 39.4164 70.8114 39.3711 70.9513 39.3711C71.0977 39.3711 71.2153 39.4164 71.3044 39.5071C71.3934 39.5978 71.438 39.7177 71.438 39.8667V44.2007C71.438 44.3433 71.3934 44.4631 71.3044 44.5603C71.2153 44.651 71.0977 44.6963 70.9513 44.6963Z" fill="#08001C"/>
<path d="M79.1442 44.7255C78.6671 44.7255 78.2441 44.6121 77.8751 44.3854C77.5125 44.1521 77.2263 43.8347 77.0164 43.433C76.8065 43.0249 76.7015 42.5585 76.7015 42.0337C76.7015 41.5025 76.8128 41.036 77.0355 40.6344C77.2645 40.2262 77.5762 39.9088 77.9705 39.6821C78.3649 39.4488 78.8197 39.3322 79.335 39.3322C79.8439 39.3322 80.2955 39.4488 80.6899 39.6821C81.0843 39.9088 81.3928 40.2262 81.6154 40.6344C81.8444 41.036 81.9589 41.5025 81.9589 42.0337H81.396C81.396 42.5585 81.2974 43.0249 81.1002 43.433C80.9094 43.8347 80.6454 44.1521 80.3082 44.3854C79.9711 44.6121 79.5831 44.7255 79.1442 44.7255ZM79.3159 46.8925C78.8643 46.8925 78.4413 46.8018 78.0469 46.6204C77.6525 46.439 77.3185 46.1734 77.045 45.8236C76.9623 45.7134 76.9305 45.6001 76.9496 45.4835C76.975 45.3668 77.0386 45.2729 77.1404 45.2016C77.2549 45.1239 77.3726 45.098 77.4935 45.1239C77.6207 45.1498 77.7225 45.2146 77.7988 45.3183C77.9705 45.5385 78.1868 45.7102 78.4476 45.8333C78.7084 45.9564 79.0042 46.0179 79.335 46.0179C79.6403 46.0179 79.9202 45.9434 80.1747 45.7944C80.4355 45.6454 80.6422 45.4252 80.7949 45.1336C80.9475 44.8421 81.0239 44.4858 81.0239 44.0647V42.6848L81.3387 41.8296L81.9589 42.0337V44.1327C81.9589 44.6445 81.8476 45.1077 81.625 45.5223C81.4023 45.9434 81.0906 46.2771 80.6899 46.5232C80.2955 46.7694 79.8375 46.8925 79.3159 46.8925ZM79.335 43.8509C79.6658 43.8509 79.9584 43.7732 80.2128 43.6177C80.4673 43.4622 80.6645 43.2484 80.8044 42.9763C80.9507 42.7042 81.0239 42.39 81.0239 42.0337C81.0239 41.6774 80.9507 41.3632 80.8044 41.0911C80.6645 40.8125 80.4673 40.5955 80.2128 40.44C79.9584 40.2845 79.6658 40.2068 79.335 40.2068C79.0042 40.2068 78.7116 40.2845 78.4572 40.44C78.2027 40.5955 78.0023 40.8125 77.856 41.0911C77.7097 41.3632 77.6366 41.6774 77.6366 42.0337C77.6366 42.39 77.7097 42.7042 77.856 42.9763C78.0023 43.2484 78.2027 43.4622 78.4572 43.6177C78.7116 43.7732 79.0042 43.8509 79.335 43.8509Z" fill="#08001C"/>
<path d="M85.602 44.7352C85.163 44.7352 84.7687 44.6413 84.4188 44.4534C84.0753 44.259 83.8018 43.9772 83.5982 43.608C83.401 43.2387 83.3024 42.7852 83.3024 42.2475V39.857C83.3024 39.7144 83.347 39.5978 83.436 39.5071C83.5314 39.41 83.6491 39.3614 83.7891 39.3614C83.929 39.3614 84.0435 39.41 84.1326 39.5071C84.228 39.5978 84.2757 39.7144 84.2757 39.857V42.2475C84.2757 42.6103 84.3425 42.9115 84.4761 43.1512C84.6096 43.3845 84.7909 43.5594 85.0199 43.676C85.2489 43.7861 85.5065 43.8412 85.7928 43.8412C86.0663 43.8412 86.308 43.7861 86.518 43.676C86.7342 43.5659 86.906 43.4168 87.0332 43.229C87.1604 43.0411 87.224 42.8306 87.224 42.5973H87.8252C87.8252 42.999 87.7266 43.3618 87.5294 43.6857C87.3385 44.0096 87.0745 44.2655 86.7374 44.4534C86.4066 44.6413 86.0282 44.7352 85.602 44.7352ZM87.7107 44.6866C87.5707 44.6866 87.453 44.6413 87.3576 44.5506C87.2686 44.4534 87.224 44.3335 87.224 44.191V39.857C87.224 39.708 87.2686 39.5881 87.3576 39.4974C87.453 39.4067 87.5707 39.3614 87.7107 39.3614C87.857 39.3614 87.9746 39.4067 88.0637 39.4974C88.1528 39.5881 88.1973 39.708 88.1973 39.857V44.191C88.1973 44.3335 88.1528 44.4534 88.0637 44.5506C87.9746 44.6413 87.857 44.6866 87.7107 44.6866Z" fill="#08001C"/>
<path d="M92.0868 44.7255C91.6225 44.7255 91.2058 44.6089 90.8369 44.3757C90.4679 44.136 90.1753 43.8153 89.959 43.4136C89.7491 43.0055 89.6442 42.5455 89.6442 42.0337C89.6442 41.5219 89.7587 41.062 89.9877 40.6538C90.223 40.2457 90.5379 39.925 90.9323 39.6918C91.333 39.4521 91.7815 39.3322 92.2777 39.3322C92.7738 39.3322 93.2191 39.4521 93.6135 39.6918C94.0079 39.925 94.3196 40.2457 94.5486 40.6538C94.7839 41.062 94.9016 41.5219 94.9016 42.0337H94.5295C94.5295 42.5455 94.4213 43.0055 94.2051 43.4136C93.9951 43.8153 93.7057 44.136 93.3368 44.3757C92.9678 44.6089 92.5512 44.7255 92.0868 44.7255ZM92.2777 43.8509C92.6021 43.8509 92.8915 43.7732 93.1459 43.6177C93.4004 43.4557 93.6008 43.2387 93.7471 42.9666C93.8934 42.688 93.9665 42.3771 93.9665 42.0337C93.9665 41.6839 93.8934 41.3729 93.7471 41.1008C93.6008 40.8223 93.4004 40.6052 93.1459 40.4497C92.8915 40.2878 92.6021 40.2068 92.2777 40.2068C91.9596 40.2068 91.6702 40.2878 91.4094 40.4497C91.1549 40.6052 90.9514 40.8223 90.7987 41.1008C90.6524 41.3729 90.5792 41.6839 90.5792 42.0337C90.5792 42.3771 90.6524 42.688 90.7987 42.9666C90.9514 43.2387 91.1549 43.4557 91.4094 43.6177C91.6702 43.7732 91.9596 43.8509 92.2777 43.8509ZM94.415 44.6963C94.275 44.6963 94.1574 44.651 94.0619 44.5603C93.9729 44.4631 93.9284 44.3433 93.9284 44.2007V42.7139L94.1096 41.6839L94.9016 42.0337V44.2007C94.9016 44.3433 94.8539 44.4631 94.7585 44.5603C94.6694 44.651 94.5549 44.6963 94.415 44.6963Z" fill="#08001C"/>
<path d="M98.5255 44.7255C98.0485 44.7255 97.6255 44.6121 97.2565 44.3854C96.8939 44.1521 96.6077 43.8347 96.3978 43.433C96.1878 43.0249 96.0829 42.5585 96.0829 42.0337C96.0829 41.5025 96.1942 41.036 96.4168 40.6344C96.6458 40.2262 96.9575 39.9088 97.3519 39.6821C97.7463 39.4488 98.2011 39.3322 98.7164 39.3322C99.2253 39.3322 99.6769 39.4488 100.071 39.6821C100.466 39.9088 100.774 40.2262 100.997 40.6344C101.226 41.036 101.34 41.5025 101.34 42.0337H100.777C100.777 42.5585 100.679 43.0249 100.482 43.433C100.291 43.8347 100.027 44.1521 99.6896 44.3854C99.3525 44.6121 98.9645 44.7255 98.5255 44.7255ZM98.6973 46.8925C98.2457 46.8925 97.8226 46.8018 97.4283 46.6204C97.0339 46.439 96.6999 46.1734 96.4264 45.8236C96.3437 45.7134 96.3119 45.6001 96.331 45.4835C96.3564 45.3668 96.42 45.2729 96.5218 45.2016C96.6363 45.1239 96.754 45.098 96.8748 45.1239C97.0021 45.1498 97.1038 45.2146 97.1802 45.3183C97.3519 45.5385 97.5682 45.7102 97.829 45.8333C98.0898 45.9564 98.3856 46.0179 98.7164 46.0179C99.0217 46.0179 99.3016 45.9434 99.556 45.7944C99.8168 45.6454 100.024 45.4252 100.176 45.1336C100.329 44.8421 100.405 44.4858 100.405 44.0647V42.6848L100.72 41.8296L101.34 42.0337V44.1327C101.34 44.6445 101.229 45.1077 101.006 45.5223C100.784 45.9434 100.472 46.2771 100.071 46.5232C99.6769 46.7694 99.2189 46.8925 98.6973 46.8925ZM98.7164 43.8509C99.0472 43.8509 99.3398 43.7732 99.5942 43.6177C99.8486 43.4622 100.046 43.2484 100.186 42.9763C100.332 42.7042 100.405 42.39 100.405 42.0337C100.405 41.6774 100.332 41.3632 100.186 41.0911C100.046 40.8125 99.8486 40.5955 99.5942 40.44C99.3398 40.2845 99.0472 40.2068 98.7164 40.2068C98.3856 40.2068 98.093 40.2845 97.8385 40.44C97.5841 40.5955 97.3837 40.8125 97.2374 41.0911C97.0911 41.3632 97.018 41.6774 97.018 42.0337C97.018 42.39 97.0911 42.7042 97.2374 42.9763C97.3837 43.2484 97.5841 43.4622 97.8385 43.6177C98.093 43.7732 98.3856 43.8509 98.7164 43.8509Z" fill="#08001C"/>
<path d="M105.241 44.7255C104.713 44.7255 104.242 44.6121 103.829 44.3854C103.422 44.1521 103.1 43.8347 102.865 43.433C102.636 43.0249 102.522 42.5585 102.522 42.0337C102.522 41.5025 102.63 41.036 102.846 40.6344C103.069 40.2262 103.374 39.9088 103.762 39.6821C104.15 39.4488 104.595 39.3322 105.098 39.3322C105.594 39.3322 106.02 39.4456 106.376 39.6723C106.733 39.8926 107.003 40.2003 107.187 40.5955C107.378 40.9842 107.474 41.4345 107.474 41.9463C107.474 42.0693 107.432 42.173 107.35 42.2572C107.267 42.335 107.162 42.3738 107.035 42.3738H103.19V41.5964H107.006L106.615 41.8685C106.609 41.5446 106.545 41.2563 106.424 41.0036C106.303 40.7445 106.132 40.5404 105.909 40.3914C105.686 40.2424 105.416 40.1679 105.098 40.1679C104.735 40.1679 104.424 40.2489 104.163 40.4109C103.908 40.5728 103.714 40.7963 103.581 41.0814C103.447 41.36 103.38 41.6774 103.38 42.0337C103.38 42.39 103.46 42.7075 103.619 42.986C103.778 43.2646 103.997 43.4849 104.277 43.6468C104.557 43.8088 104.878 43.8898 105.241 43.8898C105.438 43.8898 105.639 43.8541 105.842 43.7829C106.052 43.7051 106.221 43.6177 106.348 43.5205C106.443 43.4492 106.545 43.4136 106.653 43.4136C106.768 43.4071 106.866 43.4395 106.949 43.5108C107.057 43.608 107.114 43.7149 107.121 43.8315C107.127 43.9481 107.076 44.0485 106.968 44.1327C106.752 44.3076 106.481 44.4502 106.157 44.5603C105.839 44.6704 105.534 44.7255 105.241 44.7255Z" fill="#08001C"/>
<path d="M114.945 44.7838C114.43 44.7838 113.947 44.6866 113.495 44.4923C113.05 44.2914 112.659 44.0161 112.321 43.6663C111.991 43.31 111.73 42.8953 111.539 42.4224C111.355 41.9495 111.262 41.4377 111.262 40.887C111.262 40.3429 111.355 39.8375 111.539 39.3711C111.73 38.8982 111.991 38.4868 112.321 38.137C112.659 37.7806 113.05 37.5021 113.495 37.3012C113.94 37.1004 114.424 37 114.945 37C115.435 37 115.855 37.0648 116.205 37.1944C116.561 37.3239 116.917 37.5377 117.274 37.8357C117.324 37.8746 117.363 37.9167 117.388 37.962C117.42 38.0009 117.439 38.043 117.445 38.0884C117.458 38.1272 117.464 38.1758 117.464 38.2341C117.464 38.3572 117.42 38.4609 117.331 38.5451C117.248 38.6228 117.146 38.6682 117.025 38.6811C116.905 38.6876 116.787 38.6455 116.672 38.5548C116.437 38.3475 116.192 38.1888 115.938 38.0787C115.69 37.9685 115.359 37.9135 114.945 37.9135C114.57 37.9135 114.217 37.9912 113.886 38.1467C113.555 38.3022 113.263 38.5159 113.008 38.788C112.76 39.0601 112.566 39.3776 112.426 39.7404C112.286 40.0967 112.216 40.4789 112.216 40.887C112.216 41.3017 112.286 41.6904 112.426 42.0531C112.566 42.4095 112.76 42.7237 113.008 42.9958C113.263 43.2678 113.555 43.4816 113.886 43.6371C114.217 43.7861 114.57 43.8606 114.945 43.8606C115.27 43.8606 115.575 43.8056 115.861 43.6954C116.154 43.5788 116.434 43.4201 116.701 43.2193C116.816 43.135 116.927 43.0994 117.035 43.1124C117.149 43.1188 117.245 43.1642 117.321 43.2484C117.398 43.3262 117.436 43.4363 117.436 43.5788C117.436 43.6436 117.423 43.7084 117.398 43.7732C117.372 43.8315 117.334 43.8865 117.283 43.9384C116.94 44.2169 116.571 44.4275 116.176 44.57C115.788 44.7125 115.378 44.7838 114.945 44.7838Z" fill="#08001C"/>
<path d="M120.912 44.7255C120.397 44.7255 119.942 44.6121 119.547 44.3854C119.153 44.1521 118.841 43.8347 118.612 43.433C118.39 43.0249 118.278 42.5585 118.278 42.0337C118.278 41.5025 118.39 41.036 118.612 40.6344C118.841 40.2262 119.153 39.9088 119.547 39.6821C119.942 39.4488 120.397 39.3322 120.912 39.3322C121.421 39.3322 121.872 39.4488 122.267 39.6821C122.661 39.9088 122.97 40.2262 123.192 40.6344C123.421 41.036 123.536 41.5025 123.536 42.0337C123.536 42.5585 123.424 43.0249 123.202 43.433C122.979 43.8347 122.671 44.1521 122.276 44.3854C121.882 44.6121 121.427 44.7255 120.912 44.7255ZM120.912 43.8509C121.243 43.8509 121.535 43.7732 121.79 43.6177C122.044 43.4622 122.241 43.2484 122.381 42.9763C122.527 42.7042 122.601 42.39 122.601 42.0337C122.601 41.6774 122.527 41.3632 122.381 41.0911C122.241 40.8125 122.044 40.5955 121.79 40.44C121.535 40.2845 121.243 40.2068 120.912 40.2068C120.581 40.2068 120.288 40.2845 120.034 40.44C119.78 40.5955 119.579 40.8125 119.433 41.0911C119.287 41.3632 119.213 41.6774 119.213 42.0337C119.213 42.39 119.287 42.7042 119.433 42.9763C119.579 43.2484 119.78 43.4622 120.034 43.6177C120.288 43.7732 120.581 43.8509 120.912 43.8509Z" fill="#08001C"/>
<path d="M126.225 44.6866C125.945 44.6866 125.697 44.6089 125.48 44.4534C125.264 44.2979 125.096 44.0874 124.975 43.8217C124.854 43.5497 124.793 43.2387 124.793 42.8889V37.5831C124.793 37.4405 124.838 37.3239 124.927 37.2332C125.016 37.1425 125.13 37.0972 125.27 37.0972C125.41 37.0972 125.525 37.1425 125.614 37.2332C125.703 37.3239 125.748 37.4405 125.748 37.5831V42.8889C125.748 43.1286 125.792 43.3262 125.881 43.4816C125.97 43.6371 126.085 43.7149 126.225 43.7149H126.463C126.59 43.7149 126.692 43.7602 126.768 43.8509C126.851 43.9416 126.893 44.0582 126.893 44.2007C126.893 44.3433 126.832 44.4599 126.711 44.5506C126.59 44.6413 126.435 44.6866 126.244 44.6866H126.225Z" fill="#08001C"/>
<path d="M129.085 44.6866C128.805 44.6866 128.557 44.6089 128.341 44.4534C128.125 44.2979 127.956 44.0874 127.835 43.8217C127.714 43.5497 127.654 43.2387 127.654 42.8889V37.5831C127.654 37.4405 127.699 37.3239 127.788 37.2332C127.877 37.1425 127.991 37.0972 128.131 37.0972C128.271 37.0972 128.386 37.1425 128.475 37.2332C128.564 37.3239 128.608 37.4405 128.608 37.5831V42.8889C128.608 43.1286 128.653 43.3262 128.742 43.4816C128.831 43.6371 128.945 43.7149 129.085 43.7149H129.324C129.451 43.7149 129.553 43.7602 129.629 43.8509C129.712 43.9416 129.753 44.0582 129.753 44.2007C129.753 44.3433 129.693 44.4599 129.572 44.5506C129.451 44.6413 129.295 44.6866 129.104 44.6866H129.085Z" fill="#08001C"/>
<path d="M132.869 44.7255C132.341 44.7255 131.87 44.6121 131.457 44.3854C131.05 44.1521 130.728 43.8347 130.493 43.433C130.264 43.0249 130.149 42.5585 130.149 42.0337C130.149 41.5025 130.258 41.036 130.474 40.6344C130.696 40.2262 131.002 39.9088 131.39 39.6821C131.778 39.4488 132.223 39.3322 132.726 39.3322C133.222 39.3322 133.648 39.4456 134.004 39.6723C134.36 39.8926 134.631 40.2003 134.815 40.5955C135.006 40.9842 135.101 41.4345 135.101 41.9463C135.101 42.0693 135.06 42.173 134.977 42.2572C134.895 42.335 134.79 42.3738 134.663 42.3738H130.817V41.5964H134.634L134.243 41.8685C134.236 41.5446 134.173 41.2563 134.052 41.0036C133.931 40.7445 133.759 40.5404 133.537 40.3914C133.314 40.2424 133.044 40.1679 132.726 40.1679C132.363 40.1679 132.051 40.2489 131.791 40.4109C131.536 40.5728 131.342 40.7963 131.209 41.0814C131.075 41.36 131.008 41.6774 131.008 42.0337C131.008 42.39 131.088 42.7075 131.247 42.986C131.406 43.2646 131.625 43.4849 131.905 43.6468C132.185 43.8088 132.506 43.8898 132.869 43.8898C133.066 43.8898 133.266 43.8541 133.47 43.7829C133.68 43.7051 133.848 43.6177 133.976 43.5205C134.071 43.4492 134.173 43.4136 134.281 43.4136C134.395 43.4071 134.494 43.4395 134.577 43.5108C134.685 43.608 134.742 43.7149 134.748 43.8315C134.755 43.9481 134.704 44.0485 134.596 44.1327C134.38 44.3076 134.109 44.4502 133.785 44.5603C133.467 44.6704 133.161 44.7255 132.869 44.7255Z" fill="#08001C"/>
<path d="M138.332 44.7255C137.855 44.7255 137.432 44.6121 137.063 44.3854C136.7 44.1521 136.414 43.8347 136.204 43.433C135.994 43.0249 135.889 42.5585 135.889 42.0337C135.889 41.5025 136.001 41.036 136.223 40.6344C136.452 40.2262 136.764 39.9088 137.158 39.6821C137.553 39.4488 138.008 39.3322 138.523 39.3322C139.032 39.3322 139.483 39.4488 139.878 39.6821C140.272 39.9088 140.581 40.2262 140.803 40.6344C141.032 41.036 141.147 41.5025 141.147 42.0337H140.584C140.584 42.5585 140.485 43.0249 140.288 43.433C140.097 43.8347 139.833 44.1521 139.496 44.3854C139.159 44.6121 138.771 44.7255 138.332 44.7255ZM138.504 46.8925C138.052 46.8925 137.629 46.8018 137.235 46.6204C136.84 46.439 136.506 46.1734 136.233 45.8236C136.15 45.7134 136.118 45.6001 136.137 45.4835C136.163 45.3668 136.226 45.2729 136.328 45.2016C136.443 45.1239 136.56 45.098 136.681 45.1239C136.808 45.1498 136.91 45.2146 136.987 45.3183C137.158 45.5385 137.375 45.7102 137.635 45.8333C137.896 45.9564 138.192 46.0179 138.523 46.0179C138.828 46.0179 139.108 45.9434 139.362 45.7944C139.623 45.6454 139.83 45.4252 139.983 45.1336C140.135 44.8421 140.212 44.4858 140.212 44.0647V42.6848L140.526 41.8296L141.147 42.0337V44.1327C141.147 44.6445 141.035 45.1077 140.813 45.5223C140.59 45.9434 140.278 46.2771 139.878 46.5232C139.483 46.7694 139.025 46.8925 138.504 46.8925ZM138.523 43.8509C138.854 43.8509 139.146 43.7732 139.401 43.6177C139.655 43.4622 139.852 43.2484 139.992 42.9763C140.138 42.7042 140.212 42.39 140.212 42.0337C140.212 41.6774 140.138 41.3632 139.992 41.0911C139.852 40.8125 139.655 40.5955 139.401 40.44C139.146 40.2845 138.854 40.2068 138.523 40.2068C138.192 40.2068 137.899 40.2845 137.645 40.44C137.39 40.5955 137.19 40.8125 137.044 41.0911C136.898 41.3632 136.824 41.6774 136.824 42.0337C136.824 42.39 136.898 42.7042 137.044 42.9763C137.19 43.2484 137.39 43.4622 137.645 43.6177C137.899 43.7732 138.192 43.8509 138.523 43.8509Z" fill="#08001C"/>
<path d="M145.047 44.7255C144.519 44.7255 144.049 44.6121 143.635 44.3854C143.228 44.1521 142.907 43.8347 142.671 43.433C142.442 43.0249 142.328 42.5585 142.328 42.0337C142.328 41.5025 142.436 41.036 142.652 40.6344C142.875 40.2262 143.18 39.9088 143.568 39.6821C143.956 39.4488 144.402 39.3322 144.904 39.3322C145.4 39.3322 145.827 39.4456 146.183 39.6723C146.539 39.8926 146.809 40.2003 146.994 40.5955C147.185 40.9842 147.28 41.4345 147.28 41.9463C147.28 42.0693 147.239 42.173 147.156 42.2572C147.073 42.335 146.968 42.3738 146.841 42.3738H142.996V41.5964H146.813L146.421 41.8685C146.415 41.5446 146.351 41.2563 146.231 41.0036C146.11 40.7445 145.938 40.5404 145.715 40.3914C145.493 40.2424 145.222 40.1679 144.904 40.1679C144.542 40.1679 144.23 40.2489 143.969 40.4109C143.715 40.5728 143.521 40.7963 143.387 41.0814C143.254 41.36 143.187 41.6774 143.187 42.0337C143.187 42.39 143.266 42.7075 143.425 42.986C143.584 43.2646 143.804 43.4849 144.084 43.6468C144.364 43.8088 144.685 43.8898 145.047 43.8898C145.245 43.8898 145.445 43.8541 145.648 43.7829C145.858 43.7051 146.027 43.6177 146.154 43.5205C146.25 43.4492 146.351 43.4136 146.46 43.4136C146.574 43.4071 146.673 43.4395 146.755 43.5108C146.863 43.608 146.921 43.7149 146.927 43.8315C146.933 43.9481 146.883 44.0485 146.774 44.1327C146.558 44.3076 146.288 44.4502 145.963 44.5603C145.645 44.6704 145.34 44.7255 145.047 44.7255Z" fill="#08001C"/>
</svg>
