<svg width="64" height="64" viewBox="0 0 64 64" fill="none" xmlns="http://www.w3.org/2000/svg">
<path d="M49 48H38.92C38.7767 48.0001 38.6352 48.031 38.5049 48.0906C38.3747 48.1502 38.2587 48.2371 38.1649 48.3453C38.0712 48.4536 38.0017 48.5808 37.9614 48.7182C37.921 48.8557 37.9107 49.0002 37.931 49.142C38.0618 49.9967 38.0062 50.8696 37.7682 51.7008C37.5303 52.5321 37.1154 53.302 36.5521 53.958C35.9889 54.614 35.2905 55.1405 34.5048 55.5015C33.7191 55.8624 32.8646 56.0493 32 56.0493C31.1354 56.0493 30.2809 55.8624 29.4952 55.5015C28.7095 55.1405 28.0111 54.614 27.4479 53.958C26.8846 53.302 26.4697 52.5321 26.2318 51.7008C25.9938 50.8696 25.9382 49.9967 26.069 49.142C26.0893 49.0002 26.079 48.8557 26.0386 48.7182C25.9983 48.5808 25.9288 48.4536 25.8351 48.3453C25.7413 48.2371 25.6253 48.1502 25.4951 48.0906C25.3648 48.031 25.2232 48.0001 25.08 48H15C11.5534 48.004 8.24911 49.3749 5.812 51.812C3.37488 54.2491 2.00397 57.5534 2 61C2 61.2652 2.10536 61.5196 2.29289 61.7071C2.48043 61.8946 2.73478 62 3 62C3.26522 62 3.51957 61.8946 3.70711 61.7071C3.89464 61.5196 4 61.2652 4 61C4.00344 58.0837 5.16347 55.2878 7.22563 53.2256C9.28778 51.1635 12.0837 50.0034 15 50H24C24 52.1217 24.8429 54.1566 26.3431 55.6569C27.8434 57.1571 29.8783 58 32 58C34.1217 58 36.1566 57.1571 37.6569 55.6569C39.1571 54.1566 40 52.1217 40 50H49C51.9163 50.0034 54.7122 51.1635 56.7744 53.2256C58.8365 55.2878 59.9966 58.0837 60 61C60 61.2652 60.1054 61.5196 60.2929 61.7071C60.4804 61.8946 60.7348 62 61 62C61.2652 62 61.5196 61.8946 61.7071 61.7071C61.8946 61.5196 62 61.2652 62 61C61.996 57.5534 60.6251 54.2491 58.188 51.812C55.7509 49.3749 52.4466 48.004 49 48Z" fill="#1882FF"/>
<path d="M36 38C35.7348 38 35.4804 38.1054 35.2929 38.2929C35.1054 38.4804 35 38.7348 35 39C35 39.7956 34.6839 40.5587 34.1213 41.1213C33.5587 41.6839 32.7956 42 32 42C31.2044 42 30.4413 41.6839 29.8787 41.1213C29.3161 40.5587 29 39.7956 29 39C29 38.7348 28.8946 38.4804 28.7071 38.2929C28.5196 38.1054 28.2652 38 28 38C27.7348 38 27.4804 38.1054 27.2929 38.2929C27.1054 38.4804 27 38.7348 27 39C27 40.3261 27.5268 41.5979 28.4645 42.5355C29.4021 43.4732 30.6739 44 32 44C33.3261 44 34.5979 43.4732 35.5355 42.5355C36.4732 41.5979 37 40.3261 37 39C37 38.7348 36.8946 38.4804 36.7071 38.2929C36.5196 38.1054 36.2652 38 36 38Z" fill="#1882FF"/>
<path d="M50 61V57C50 56.7348 49.8946 56.4804 49.7071 56.2929C49.5196 56.1054 49.2652 56 49 56C48.7348 56 48.4804 56.1054 48.2929 56.2929C48.1054 56.4804 48 56.7348 48 57V61C48 61.2652 48.1054 61.5196 48.2929 61.7071C48.4804 61.8946 48.7348 62 49 62C49.2652 62 49.5196 61.8946 49.7071 61.7071C49.8946 61.5196 50 61.2652 50 61Z" fill="#1882FF"/>
<path d="M16 61V57C16 56.7348 15.8946 56.4804 15.7071 56.2929C15.5196 56.1054 15.2652 56 15 56C14.7348 56 14.4804 56.1054 14.2929 56.2929C14.1054 56.4804 14 56.7348 14 57V61C14 61.2652 14.1054 61.5196 14.2929 61.7071C14.4804 61.8946 14.7348 62 15 62C15.2652 62 15.5196 61.8946 15.7071 61.7071C15.8946 61.5196 16 61.2652 16 61Z" fill="#1882FF"/>
<path d="M33 62C33.2652 62 33.5196 61.8946 33.7071 61.7071C33.8946 61.5196 34 61.2652 34 61C34 60.7348 33.8946 60.4804 33.7071 60.2929C33.5196 60.1054 33.2652 60 33 60H31C30.7348 60 30.4804 60.1054 30.2929 60.2929C30.1054 60.4804 30 60.7348 30 61C30 61.2652 30.1054 61.5196 30.2929 61.7071C30.4804 61.8946 30.7348 62 31 62H33Z" fill="#1882FF"/>
<path d="M11.9999 46.0001C14.8579 46.0001 17.1829 42.5081 17.8209 37.6781C18.561 39.9919 19.7915 42.1188 21.4286 43.9136C23.0657 45.7084 25.0707 47.1289 27.3069 48.0781L31.6069 49.9171C31.7314 49.9704 31.8654 49.9979 32.0009 49.9979C32.1364 49.9979 32.2704 49.9704 32.3949 49.9171L36.6949 48.0771C38.931 47.1279 40.9359 45.7074 42.5728 43.9126C44.2098 42.1178 45.4401 39.9909 46.1799 37.6771C46.8169 42.5081 49.1419 46.0001 51.9999 46.0001C55.3639 46.0001 57.9999 41.1681 57.9999 35.0001C58.0708 32.1941 57.4255 29.4164 56.1249 26.9291C56.6416 25.3028 56.9359 23.6142 56.9999 21.9091C57.0191 19.9083 56.3072 17.9694 54.9978 16.4566C53.6884 14.9437 51.8717 13.961 49.8889 13.6931C49.6876 11.7012 48.7601 9.85309 47.2833 8.50135C45.8065 7.1496 43.8838 6.3888 41.8819 6.36406C40.9986 6.36565 40.1224 6.52166 39.2929 6.82506C38.6848 5.39391 37.6691 4.1733 36.3723 3.31528C35.0755 2.45726 33.5549 1.99976 31.9999 1.99976C30.4449 1.99976 28.9243 2.45726 27.6275 3.31528C26.3307 4.1733 25.315 5.39391 24.7069 6.82506C23.8774 6.52166 23.0012 6.36565 22.1179 6.36406C20.116 6.3888 18.1933 7.1496 16.7165 8.50135C15.2397 9.85309 14.3122 11.7012 14.1109 13.6931C12.1281 13.961 10.3114 14.9437 9.00199 16.4566C7.6926 17.9694 6.98066 19.9083 6.9999 21.9091C7.06391 23.6142 7.35825 25.3028 7.8749 26.9291C6.57431 29.4164 5.92901 32.1941 5.9999 35.0001C5.9999 41.1681 8.6359 46.0001 11.9999 46.0001ZM35.9059 46.2411L31.9999 47.9121L28.0999 46.2411C25.5696 45.1682 23.3854 43.4165 21.7888 41.1795C20.1921 38.9426 19.2452 36.3076 19.0529 33.5661C19.6617 32.7635 20.1918 31.9042 20.6359 31.0001H23.1419C23.3602 31.8576 23.858 32.6181 24.5566 33.1612C25.2553 33.7043 26.115 33.9991 26.9999 33.9991C27.8848 33.9991 28.7445 33.7043 29.4432 33.1612C30.1418 32.6181 30.6396 31.8576 30.8579 31.0001H33.1419C33.3602 31.8576 33.858 32.6181 34.5566 33.1612C35.2553 33.7043 36.115 33.9991 36.9999 33.9991C37.8848 33.9991 38.7445 33.7043 39.4432 33.1612C40.1418 32.6181 40.6396 31.8576 40.8579 31.0001H43.3639C43.8095 31.9044 44.3413 32.7637 44.9519 33.5661C44.7596 36.3075 43.8129 38.9424 42.2165 41.1793C40.62 43.4162 38.436 45.1681 35.9059 46.2411ZM36.9999 26.0001C36.1157 26.0034 35.2575 26.2996 34.5595 26.8424C33.8614 27.3851 33.3629 28.1439 33.1419 29.0001H30.8579C30.6396 28.1425 30.1418 27.3821 29.4432 26.839C28.7445 26.2958 27.8848 26.001 26.9999 26.001C26.115 26.001 25.2553 26.2958 24.5566 26.839C23.858 27.3821 23.3602 28.1425 23.1419 29.0001H21.5249C22.3136 27.0292 22.8343 24.9614 23.0729 22.8521C24.4527 22.6768 25.7629 22.1449 26.8744 21.3088C27.9858 20.4726 28.8601 19.3612 29.4109 18.0841C31.0825 18.697 32.9173 18.697 34.5889 18.0841C35.1397 19.3612 36.014 20.4726 37.1254 21.3088C38.2369 22.1449 39.5471 22.6768 40.9269 22.8521C41.1655 24.9614 41.6862 27.0292 42.4749 29.0001H40.8579C40.6368 28.1439 40.1384 27.3851 39.4403 26.8424C38.7423 26.2996 37.8841 26.0034 36.9999 26.0001ZM38.9999 30.0001C38.9999 30.3956 38.8826 30.7823 38.6628 31.1112C38.4431 31.4401 38.1307 31.6964 37.7653 31.8478C37.3998 31.9992 36.9977 32.0388 36.6097 31.9616C36.2218 31.8845 35.8654 31.694 35.5857 31.4143C35.306 31.1346 35.1155 30.7782 35.0383 30.3902C34.9612 30.0023 35.0008 29.6001 35.1521 29.2347C35.3035 28.8692 35.5599 28.5569 35.8888 28.3371C36.2177 28.1174 36.6043 28.0001 36.9999 28.0001C37.5303 28.0001 38.039 28.2108 38.4141 28.5858C38.7892 28.9609 38.9999 29.4696 38.9999 30.0001ZM28.9999 30.0001C28.9999 30.3956 28.8826 30.7823 28.6628 31.1112C28.4431 31.4401 28.1307 31.6964 27.7653 31.8478C27.3998 31.9992 26.9977 32.0388 26.6097 31.9616C26.2218 31.8845 25.8654 31.694 25.5857 31.4143C25.306 31.1346 25.1155 30.7782 25.0383 30.3902C24.9612 30.0023 25.0008 29.6001 25.1521 29.2347C25.3035 28.8692 25.5599 28.5569 25.8888 28.3371C26.2177 28.1174 26.6043 28.0001 26.9999 28.0001C27.5303 28.0001 28.039 28.2108 28.4141 28.5858C28.7892 28.9609 28.9999 29.4696 28.9999 30.0001ZM9.9169 26.7681C9.388 25.1986 9.07939 23.5633 8.9999 21.9091C8.97393 20.2744 9.59714 18.6962 10.7329 17.5203C11.8687 16.3444 13.4244 15.6668 15.0589 15.6361C15.3241 15.6361 15.5785 15.5307 15.766 15.3432C15.9535 15.1556 16.0589 14.9013 16.0589 14.6361C16.0329 13.0015 16.6562 11.4234 17.792 10.2477C18.9278 9.07193 20.4834 8.39456 22.1179 8.36406C23.0604 8.37155 23.987 8.608 24.8179 9.05306C24.9486 9.12129 25.0927 9.15979 25.2399 9.16581C25.3872 9.17183 25.534 9.14522 25.6698 9.08789C25.8056 9.03055 25.927 8.94391 26.0254 8.83417C26.1238 8.72442 26.1967 8.59428 26.2389 8.45306C26.5724 7.17861 27.3189 6.05065 28.3616 5.24562C29.4044 4.4406 30.6846 4.00393 32.0019 4.00393C33.3192 4.00393 34.5994 4.4406 35.6422 5.24562C36.6849 6.05065 37.4314 7.17861 37.7649 8.45306C37.8071 8.59428 37.88 8.72442 37.9784 8.83417C38.0768 8.94391 38.1982 9.03055 38.334 9.08789C38.4698 9.14522 38.6166 9.17183 38.7639 9.16581C38.9111 9.15979 39.0552 9.12129 39.1859 9.05306C40.0168 8.608 40.9434 8.37155 41.8859 8.36406C43.5204 8.39456 45.076 9.07193 46.2118 10.2477C47.3476 11.4234 47.9709 13.0015 47.9449 14.6361C47.9449 14.9013 48.0503 15.1556 48.2378 15.3432C48.4253 15.5307 48.6797 15.6361 48.9449 15.6361C50.5787 15.6679 52.1334 16.3459 53.2683 17.5217C54.4032 18.6975 55.0259 20.2751 54.9999 21.9091C54.9204 23.5633 54.6118 25.1986 54.0829 26.7681C54.0384 26.909 54.0258 27.0581 54.0458 27.2046C54.0659 27.351 54.1182 27.4912 54.1989 27.6151C55.4592 29.8673 56.0818 32.4205 55.9999 35.0001C55.9999 40.3001 53.8919 44.0001 51.9999 44.0001C50.1079 44.0001 47.9999 40.3001 47.9999 35.0001C47.9999 34.7851 48.0079 34.5731 48.0179 34.2931C48.0233 34.1321 47.9898 33.9722 47.9201 33.827C47.8505 33.6818 47.7468 33.5556 47.6179 33.4591C46.4348 32.4049 45.5073 31.0951 44.9059 29.6291L44.8899 29.5921C43.7373 27.1822 43.0551 24.5746 42.8799 21.9091C42.8799 21.6438 42.7745 21.3895 42.587 21.202C42.3995 21.0144 42.1451 20.9091 41.8799 20.9091C40.5662 20.8949 39.293 20.4529 38.253 19.6501C37.2131 18.8472 36.4632 17.7273 36.1169 16.4601C36.0752 16.3186 36.0027 16.1882 35.9047 16.0781C35.8067 15.968 35.6855 15.8809 35.5499 15.8231C35.4259 15.7705 35.2926 15.7433 35.1579 15.7431C34.9974 15.7432 34.8393 15.7819 34.6969 15.8561C33.8683 16.3067 32.9401 16.5428 31.9969 16.5428C31.0537 16.5428 30.1255 16.3067 29.2969 15.8561C29.1663 15.788 29.0223 15.7497 28.8751 15.7437C28.728 15.7378 28.5813 15.7645 28.4457 15.8218C28.31 15.8791 28.1887 15.9657 28.0904 16.0753C27.992 16.185 27.9191 16.315 27.8769 16.4561C27.5306 17.7233 26.7807 18.8432 25.7408 19.6461C24.7008 20.4489 23.4276 20.8909 22.1139 20.9051C21.8487 20.9051 21.5943 21.0104 21.4068 21.198C21.2193 21.3855 21.1139 21.6398 21.1139 21.9051C20.9389 24.5615 20.2602 27.1603 19.1139 29.5631C19.1005 29.5887 19.0885 29.6151 19.0779 29.6421C18.479 31.1015 17.5557 32.4055 16.3779 33.4551C16.2476 33.5652 16.144 33.7033 16.0747 33.8592C16.0054 34.0151 15.9723 34.1846 15.9779 34.3551C15.9859 34.5671 15.9939 34.7791 15.9939 34.9941C15.9939 40.2941 13.8859 43.9941 11.9939 43.9941C10.1019 43.9941 7.9939 40.2941 7.9939 34.9941C7.91165 32.4146 8.53395 29.8614 9.7939 27.6091C9.87491 27.4865 9.92794 27.3476 9.94919 27.2023C9.97045 27.0569 9.95943 26.9087 9.9169 26.7681Z" fill="#1882FF"/>
</svg>
