<svg width="40" height="40" viewBox="0 0 40 40" fill="none" xmlns="http://www.w3.org/2000/svg">
<path d="M15.5947 27.4976C15.2897 27.4976 15.0209 27.2726 14.9772 26.9601C14.8372 25.9701 14.0334 24.7851 13.0697 24.1413C12.3897 23.6876 11.7484 23.1626 11.1684 22.5838C10.9234 22.3401 10.9234 21.9438 11.1659 21.7001C11.4097 21.4538 11.8059 21.4563 12.0497 21.6976C12.5747 22.2201 13.1509 22.6926 13.7634 23.1013C14.8247 23.8076 15.9934 25.2213 16.2159 26.7838C16.2647 27.1251 16.0272 27.4413 15.6847 27.4901C15.6534 27.4951 15.6234 27.4976 15.5947 27.4976Z" fill="#1CB098"/>
<path d="M24.375 30C24.03 30 23.75 29.72 23.75 29.375V27.2813C23.75 25.6275 25.0012 23.9263 26.2375 23.1013C29.3762 21.0063 31.25 17.51 31.25 13.7488C31.25 7.54503 26.2038 2.49878 20 2.49878C13.7963 2.49878 8.75 7.54503 8.75 13.7488C8.75 15.8825 9.35 17.9588 10.4875 19.7513C10.6725 20.0425 10.5863 20.4288 10.295 20.6125C10.0038 20.795 9.61625 20.7113 9.43375 20.42C8.1675 18.4275 7.5 16.12 7.5 13.7488C7.5 6.85628 13.1075 1.24878 20 1.24878C26.8925 1.24878 32.5 6.85628 32.5 13.7488C32.5 17.93 30.4188 21.815 26.9312 24.1413C25.995 24.7663 25 26.0788 25 27.2813V29.375C25 29.72 24.72 30 24.375 30Z" fill="#1CB098"/>
<path d="M21.3125 38.75H18.6875C16.6537 38.75 15 37.0962 15 35.0625V34.375C15 34.03 15.28 33.75 15.625 33.75C15.97 33.75 16.25 34.03 16.25 34.375V35.0625C16.25 36.4062 17.3437 37.5 18.6875 37.5H21.3125C22.6562 37.5 23.75 36.4062 23.75 35.0625V34.375C23.75 34.03 24.03 33.75 24.375 33.75C24.72 33.75 25 34.03 25 34.375V35.0625C25 37.0962 23.3462 38.75 21.3125 38.75Z" fill="#1CB098"/>
<path d="M24.375 32.5H15.625C14.5912 32.5 13.75 31.6588 13.75 30.625C13.75 29.5912 14.5912 28.75 15.625 28.75H24.375C25.4087 28.75 26.25 29.5912 26.25 30.625C26.25 31.6588 25.4087 32.5 24.375 32.5ZM15.625 30C15.2812 30 15 30.2812 15 30.625C15 30.9688 15.2812 31.25 15.625 31.25H24.375C24.7188 31.25 25 30.9688 25 30.625C25 30.2812 24.7188 30 24.375 30H15.625Z" fill="#1CB098"/>
<path d="M5.90448 8.62009C5.83323 8.62009 5.76198 8.60759 5.69073 8.58259L2.75323 7.51259C2.42823 7.39384 2.26198 7.03509 2.37948 6.71134C2.49698 6.38759 2.85448 6.22134 3.18073 6.33759L6.11823 7.40759C6.44323 7.52634 6.61073 7.88509 6.49198 8.20884C6.39823 8.46384 6.15948 8.62009 5.90448 8.62009Z" fill="#1CB098"/>
<path d="M37.0307 19.9501C36.9594 19.9501 36.8882 19.9376 36.8169 19.9126L33.8807 18.8438C33.5557 18.725 33.3882 18.3663 33.5069 18.0426C33.6269 17.7176 33.9832 17.5501 34.3082 17.6688L37.2444 18.7375C37.5694 18.8563 37.7369 19.215 37.6182 19.5388C37.5257 19.7925 37.2857 19.9501 37.0307 19.9501Z" fill="#1CB098"/>
<path d="M34.0944 8.61998C33.8394 8.61998 33.5994 8.46248 33.5069 8.20873C33.3882 7.88498 33.5557 7.52623 33.8807 7.40748L36.8169 6.33748C37.1382 6.22123 37.4994 6.38623 37.6182 6.71123C37.7369 7.03498 37.5694 7.39373 37.2444 7.51248L34.3082 8.58248C34.2394 8.60873 34.1657 8.61998 34.0944 8.61998Z" fill="#1CB098"/>
<path d="M2.96748 19.9501C2.71248 19.9501 2.47248 19.7925 2.37998 19.5388C2.26123 19.2138 2.42873 18.8563 2.75373 18.7375L5.69123 17.6688C6.01623 17.5501 6.37373 17.7176 6.49248 18.0426C6.61123 18.3676 6.44373 18.725 6.11873 18.8438L3.18123 19.9126C3.10998 19.9376 3.03873 19.9501 2.96748 19.9501Z" fill="#1CB098"/>
<path d="M38.125 13.75H35C34.655 13.75 34.375 13.47 34.375 13.125C34.375 12.78 34.655 12.5 35 12.5H38.125C38.47 12.5 38.75 12.78 38.75 13.125C38.75 13.47 38.47 13.75 38.125 13.75Z" fill="#1CB098"/>
<path d="M5 13.75H1.875C1.53 13.75 1.25 13.47 1.25 13.125C1.25 12.78 1.53 12.5 1.875 12.5H5C5.345 12.5 5.625 12.78 5.625 13.125C5.625 13.47 5.345 13.75 5 13.75Z" fill="#1CB098"/>
<path d="M24.375 35H15.625C14.5912 35 13.75 34.1588 13.75 33.125C13.75 32.0912 14.5912 31.25 15.625 31.25H24.375C25.4087 31.25 26.25 32.0912 26.25 33.125C26.25 34.1588 25.4087 35 24.375 35ZM15.625 32.5C15.2812 32.5 15 32.7812 15 33.125C15 33.4688 15.2812 33.75 15.625 33.75H24.375C24.7188 33.75 25 33.4688 25 33.125C25 32.7812 24.7188 32.5 24.375 32.5H15.625Z" fill="#1CB098"/>
<path d="M5.62473 28.75H1.87473C1.62223 28.75 1.39348 28.5975 1.29723 28.3637C1.20098 28.13 1.25473 27.8612 1.43223 27.6825L6.43223 22.6825C6.54973 22.5662 6.70848 22.5 6.87473 22.5H10.6247C10.8772 22.5 11.106 22.6525 11.2022 22.8863C11.2985 23.12 11.2447 23.3888 11.0672 23.5675L6.06723 28.5675C5.94973 28.6838 5.79098 28.75 5.62473 28.75ZM3.38348 27.5H5.36598L9.11598 23.75H7.13348L3.38348 27.5Z" fill="#1CB098"/>
<path d="M5.625 32.5C5.545 32.5 5.4625 32.4837 5.38625 32.4525C5.1525 32.3562 5 32.1275 5 31.875V28.125C5 27.9587 5.06625 27.8 5.1825 27.6825L10.1825 22.6825C10.3625 22.5025 10.6312 22.45 10.8637 22.5475C11.0975 22.6437 11.25 22.8725 11.25 23.125V26.875C11.25 27.0412 11.1838 27.2 11.0675 27.3175L6.0675 32.3175C5.9475 32.4362 5.7875 32.5 5.625 32.5ZM6.25 28.3837V30.3662L10 26.6162V24.6337L6.25 28.3837Z" fill="#1CB098"/>
<path d="M5.62336 28.75C5.46336 28.75 5.30336 28.6888 5.18086 28.5675C4.93711 28.3238 4.93711 27.9275 5.18086 27.6838L19.5559 13.3088C19.7996 13.065 20.1959 13.065 20.4396 13.3088C20.6834 13.5525 20.6834 13.9488 20.4396 14.1925L6.06461 28.5675C5.94336 28.6888 5.78336 28.75 5.62336 28.75Z" fill="#1CB098"/>
<path d="M19.998 17.5C18.9955 17.5 18.053 17.1088 17.343 16.3988C17.0993 16.155 17.0993 15.7587 17.343 15.515C17.5868 15.2712 17.983 15.2712 18.2268 15.515C18.7005 15.9887 19.3305 16.25 19.998 16.25C21.3768 16.25 22.498 15.1287 22.498 13.75C22.498 12.3712 21.3768 11.25 19.998 11.25C18.6193 11.25 17.498 12.3712 17.498 13.75C17.498 14.095 17.218 14.375 16.873 14.375C16.528 14.375 16.248 14.095 16.248 13.75C16.248 11.6825 17.9305 10 19.998 10C22.0655 10 23.748 11.6825 23.748 13.75C23.748 15.8175 22.0655 17.5 19.998 17.5Z" fill="#1CB098"/>
<path d="M20 21.875C17.83 21.875 15.7888 21.0275 14.2525 19.49C14.0088 19.2463 14.0088 18.8488 14.2525 18.6063C14.4963 18.3625 14.8925 18.3625 15.1363 18.6063C16.4363 19.9088 18.1638 20.625 20 20.625C23.79 20.625 26.875 17.54 26.875 13.75C26.875 9.96 23.79 6.875 20 6.875C16.21 6.875 13.125 9.96 13.125 13.75C13.125 14.7475 13.335 15.71 13.7487 16.6125C13.8925 16.9262 13.7562 17.2975 13.4425 17.4412C13.125 17.5837 12.7575 17.4475 12.6137 17.135C12.1225 16.0675 11.875 14.9288 11.875 13.75C11.875 9.27 15.52 5.625 20 5.625C24.48 5.625 28.125 9.27 28.125 13.75C28.125 18.23 24.48 21.875 20 21.875Z" fill="#1CB098"/>
</svg>
