<svg width="40" height="40" viewBox="0 0 40 40" fill="none" xmlns="http://www.w3.org/2000/svg">
<g clip-path="url(#clip0_445_3117)">
<path d="M37.7023 5.28711H28.5084C28.2063 5.28711 27.9615 5.53195 27.9615 5.83398C27.9615 6.13602 28.2063 6.38086 28.5084 6.38086H37.7023C38.1848 6.38086 38.5773 6.77336 38.5773 7.25594V31.0471C38.5773 31.5296 38.1848 31.9221 37.7023 31.9221H2.29875C1.81625 31.9221 1.42383 31.5296 1.42383 31.0471V7.25594C1.42383 6.77344 1.81625 6.38086 2.29875 6.38086H11.4926C11.7946 6.38086 12.0395 6.13602 12.0395 5.83398C12.0395 5.53195 11.7946 5.28711 11.4926 5.28711H2.29875C1.2132 5.28711 0.330078 6.17031 0.330078 7.25594V31.0471C0.330078 32.1327 1.21328 33.0159 2.29875 33.0159H15.2377V35.7011H13.6638C12.0787 35.7011 10.7891 36.9906 10.7891 38.5757V39.1406C10.7891 39.4427 11.0339 39.6875 11.3359 39.6875H28.6652C28.9672 39.6875 29.212 39.4427 29.212 39.1406V38.5757C29.212 36.9906 27.9224 35.7011 26.3373 35.7011H24.7634V33.0159H37.7023C38.7879 33.0159 39.671 32.1327 39.671 31.0471V7.25594C39.671 6.17031 38.7878 5.28711 37.7023 5.28711ZM28.1183 38.5757V38.5938H11.8827V38.5757C11.8827 37.5938 12.6817 36.7948 13.6637 36.7948H26.3373C27.3193 36.7948 28.1183 37.5938 28.1183 38.5757ZM23.6697 35.7011H16.3314V33.0159H23.6697V35.7011ZM3.8532 8.81024V28.1679H36.1478V8.81024H28.5084C28.2063 8.81024 27.9615 8.56539 27.9615 8.26336C27.9615 7.96133 28.2063 7.71648 28.5084 7.71648H36.6947C36.9967 7.71648 37.2416 7.96133 37.2416 8.26336V28.7148C37.2416 29.0169 36.9967 29.2617 36.6947 29.2617H3.30633C3.0043 29.2617 2.75945 29.0169 2.75945 28.7148V8.26336C2.75945 7.96133 3.0043 7.71648 3.30633 7.71648H11.4926C11.7946 7.71648 12.0395 7.96133 12.0395 8.26336C12.0395 8.56539 11.7946 8.81024 11.4926 8.81024H3.8532ZM10.3887 11.5831C9.35875 11.5831 8.52086 12.4211 8.52086 13.451C8.52086 14.4809 9.35883 15.3189 10.3887 15.3189C10.5328 15.3189 10.673 15.302 10.8079 15.2709L12.2488 17.7666C12.3466 17.9358 12.5271 18.04 12.7224 18.04H16.8572C16.8354 18.1901 16.8236 18.3433 16.8236 18.4993C16.8236 18.6553 16.8354 18.8085 16.8572 18.9585H9.43117C9.1968 18.1946 8.48484 17.6375 7.64516 17.6375C6.61523 17.6375 5.77734 18.4755 5.77734 19.5054C5.77734 20.5353 6.61531 21.3733 7.64516 21.3733C8.48492 21.3733 9.19687 20.8162 9.43125 20.0523H12.7675L10.942 23.2141C10.8071 23.183 10.667 23.166 10.5228 23.166C9.49281 23.166 8.65492 24.004 8.65492 25.0339C8.65492 26.0638 9.49289 26.9018 10.5228 26.9018C11.5527 26.9018 12.3907 26.0638 12.3907 25.0339C12.3907 24.5427 12.1998 24.0955 11.8888 23.7617L14.0304 20.0522H17.2305C17.7755 21.0203 18.8126 21.6762 20.0005 21.6762C21.1885 21.6762 22.2255 21.0204 22.7705 20.0522H25.9707L28.1123 23.7617C27.8013 24.0955 27.6104 24.5427 27.6104 25.0339C27.6104 26.0638 28.4484 26.9018 29.4783 26.9018C30.5082 26.9018 31.3462 26.0638 31.3462 25.0339C31.3462 24.004 30.5082 23.166 29.4783 23.166C29.3341 23.166 29.194 23.183 29.0591 23.2141L27.2336 20.0523H30.5698C30.8042 20.8162 31.5162 21.3733 32.3559 21.3733C33.3859 21.3733 34.2238 20.5353 34.2238 19.5054C34.2238 18.4755 33.3859 17.6375 32.3559 17.6375C31.5162 17.6375 30.8043 18.1945 30.5699 18.9585H23.144C23.1658 18.8085 23.1776 18.6552 23.1776 18.4993C23.1776 18.3434 23.1658 18.1901 23.144 18.04H27.2788C27.4742 18.04 27.6548 17.9358 27.7524 17.7666L29.1933 15.2709C29.3281 15.302 29.4684 15.3189 29.6125 15.3189C30.6425 15.3189 31.4804 14.4809 31.4804 13.451C31.4804 12.4211 30.6424 11.5831 29.6125 11.5831C28.5826 11.5831 27.7446 12.4211 27.7446 13.451C27.7446 13.9422 27.9355 14.3894 28.2466 14.7232L26.9631 16.9463H22.7707C22.421 16.3251 21.8687 15.8327 21.2037 15.5596C21.8434 15.0146 22.3443 14.0423 22.6981 12.8549C22.9414 12.9127 23.18 12.9618 23.4116 12.9994C23.8112 13.0643 24.1835 13.0963 24.5257 13.0963C25.6384 13.0963 26.4328 12.7572 26.8093 12.1051C27.3014 11.2525 26.9732 10.0487 25.8848 8.71555C25.7377 8.53531 25.5772 8.35461 25.4071 8.1743C25.5772 7.99391 25.7377 7.81328 25.8848 7.63305C26.9733 6.29984 27.3016 5.09609 26.8093 4.24344C26.317 3.39078 25.1106 3.07328 23.4116 3.34922C23.18 3.38687 22.9414 3.43594 22.6981 3.49367C22.1462 1.64188 21.2366 0.3125 20.0008 0.3125C18.765 0.3125 17.8553 1.6418 17.3035 3.49367C17.0602 3.43594 16.8216 3.3868 16.59 3.34914C14.8914 3.07328 13.6846 3.3907 13.1924 4.24336C12.7001 5.09602 13.0284 6.29977 14.1168 7.63297C14.264 7.8132 14.4245 7.99391 14.5945 8.17422C14.4245 8.35461 14.264 8.53523 14.1168 8.71547C13.0284 10.0487 12.7001 11.2524 13.1923 12.105C13.5688 12.7572 14.363 13.0963 15.4759 13.0963C15.818 13.0963 16.1905 13.0641 16.59 12.9993C16.8216 12.9616 17.0602 12.9126 17.3035 12.8548C17.6573 14.0421 18.1582 15.0145 18.7979 15.5595C18.1329 15.8326 17.5805 16.3249 17.2309 16.9462H13.0384L11.755 14.723C12.0661 14.3893 12.257 13.942 12.257 13.4509C12.257 12.4209 11.419 11.583 10.3891 11.583L10.3887 11.5831ZM7.64516 20.2796C7.21828 20.2796 6.87109 19.9323 6.87109 19.5055C6.87109 19.0786 7.21828 18.7313 7.64516 18.7313C8.07203 18.7313 8.4193 19.0786 8.4193 19.5055C8.4193 19.9323 8.07203 20.2796 7.64516 20.2796ZM10.5227 25.8082C10.0959 25.8082 9.74859 25.4609 9.74859 25.0341C9.74859 24.6072 10.0959 24.2599 10.5227 24.2599C10.9496 24.2599 11.2969 24.6072 11.2969 25.0341C11.2969 25.4609 10.9496 25.8082 10.5227 25.8082ZM30.2524 25.0341C30.2524 25.4609 29.9052 25.8082 29.4783 25.8082C29.0514 25.8082 28.7041 25.4609 28.7041 25.0341C28.7041 24.6072 29.0514 24.2599 29.4783 24.2599C29.9052 24.2599 30.2524 24.6072 30.2524 25.0341ZM32.3559 18.7313C32.7827 18.7313 33.13 19.0786 33.13 19.5055C33.13 19.9323 32.7827 20.2796 32.3559 20.2796C31.929 20.2796 31.5817 19.9323 31.5817 19.5055C31.5817 19.0786 31.929 18.7313 32.3559 18.7313ZM29.6123 12.6769C30.0392 12.6769 30.3865 13.0241 30.3865 13.451C30.3865 13.8779 30.0392 14.2252 29.6123 14.2252C29.1855 14.2252 28.8382 13.8779 28.8382 13.451C28.8382 13.0241 29.1855 12.6769 29.6123 12.6769ZM25.8619 11.5583C25.6239 11.9706 24.7521 12.1091 23.5868 11.9198C23.3848 11.887 23.1766 11.8444 22.964 11.7944C23.0808 11.2341 23.1694 10.645 23.2293 10.044C23.7313 9.68586 24.1984 9.31398 24.6223 8.93563C24.7701 9.09297 24.9095 9.25039 25.0374 9.40719C25.7841 10.3217 26.1 11.1459 25.862 11.5582L25.8619 11.5583ZM18.8867 10.1036C18.5155 9.88922 18.1575 9.66531 17.8143 9.435C17.7878 9.03281 17.7728 8.61297 17.7728 8.1743C17.7728 7.73562 17.7877 7.3157 17.8143 6.91352C18.1576 6.6832 18.5155 6.4593 18.8867 6.24492C19.2575 6.03086 19.6299 5.83305 20.0005 5.65109C20.3712 5.83305 20.7436 6.03086 21.1144 6.24492C21.4856 6.4593 21.8436 6.6832 22.1868 6.91352C22.2133 7.3157 22.2283 7.73555 22.2283 8.1743C22.2283 8.61305 22.2134 9.03281 22.1868 9.435C21.8435 9.66531 21.4856 9.88922 21.1144 10.1036C20.7436 10.3177 20.3712 10.5155 20.0005 10.6974C19.6299 10.5155 19.2575 10.3177 18.8867 10.1036ZM18.7182 11.2633C18.5034 11.347 18.2907 11.4248 18.081 11.4953C18.038 11.2816 17.9987 11.0588 17.9637 10.8276C18.0878 10.9029 18.213 10.9776 18.3399 11.0508C18.4658 11.1234 18.592 11.194 18.7183 11.2633H18.7182ZM16.6843 8.6082C16.5052 8.46469 16.3321 8.32 16.1669 8.17422C16.3321 8.02844 16.5052 7.88375 16.6843 7.74023C16.6809 7.88508 16.6791 8.02984 16.6791 8.17422C16.6791 8.31859 16.6809 8.46336 16.6843 8.6082ZM17.9636 5.52094C17.9987 5.28969 18.0379 5.06695 18.0809 4.8532C18.2906 4.92367 18.5034 5.00141 18.7181 5.08516C18.5918 5.15445 18.4656 5.225 18.3398 5.29766C18.2129 5.37094 18.0877 5.44555 17.9635 5.52086L17.9636 5.52094ZM21.283 5.08516C21.4977 5.00141 21.7105 4.92367 21.9202 4.8532C21.9632 5.06695 22.0024 5.28969 22.0375 5.52094C21.9134 5.44562 21.7882 5.37102 21.6613 5.29773C21.5355 5.22508 21.4093 5.15453 21.283 5.08523V5.08516ZM23.3169 7.74023C23.496 7.88375 23.6691 8.02844 23.8343 8.17422C23.6691 8.32 23.496 8.46469 23.3169 8.6082C23.3202 8.46336 23.3221 8.31867 23.3221 8.17422C23.3221 8.02977 23.3202 7.88508 23.3169 7.74023ZM21.6613 11.0507C21.7882 10.9774 21.9134 10.9028 22.0375 10.8275C22.0024 11.0587 21.9632 11.2815 21.9202 11.4952C21.7105 11.4248 21.4977 11.347 21.283 11.2632C21.4093 11.1939 21.5355 11.1234 21.6613 11.0507ZM23.5868 4.42867C23.9317 4.37266 24.2509 4.34531 24.5355 4.34531C25.2127 4.34531 25.6944 4.49992 25.862 4.79016C26.1 5.20242 25.7841 6.02672 25.0374 6.94125C24.9094 7.09805 24.77 7.25547 24.6223 7.41281C24.1984 7.03445 23.7314 6.6625 23.2293 6.30445C23.1694 5.70352 23.0808 5.11438 22.964 4.55414C23.1765 4.50414 23.3848 4.46148 23.5868 4.42867ZM20.0006 1.40617C20.5367 1.40617 21.1944 2.26273 21.6558 3.78992C21.1166 3.96758 20.5614 4.1857 20.0006 4.44102C19.4398 4.18563 18.8847 3.9675 18.3455 3.78992C18.8069 2.26273 19.4645 1.40617 20.0005 1.40617H20.0006ZM14.1395 4.79016C14.307 4.49984 14.7887 4.34531 15.4659 4.34531C15.7505 4.34531 16.0697 4.37266 16.4146 4.42867C16.6166 4.46148 16.8248 4.50406 17.0374 4.55406C16.9206 5.1143 16.832 5.70344 16.7721 6.30437C16.2701 6.6625 15.803 7.03445 15.3791 7.41273C15.2313 7.25539 15.092 7.09797 14.964 6.94117C14.2173 6.02664 13.9014 5.20242 14.1395 4.79008L14.1395 4.79016ZM16.4145 11.9197C15.2491 12.1089 14.3774 11.9705 14.1394 11.5582C13.9013 11.1459 14.2173 10.3216 14.9639 9.40719C15.092 9.25039 15.2313 9.09297 15.3791 8.93563C15.803 9.31398 16.2699 9.68594 16.772 10.044C16.832 10.6449 16.9205 11.2341 17.0373 11.7944C16.8248 11.8444 16.6165 11.8869 16.4145 11.9197ZM18.3455 12.5584C18.8847 12.3808 19.4399 12.1627 20.0007 11.9073C20.5615 12.1627 21.1166 12.3809 21.6559 12.5585C21.1945 14.0857 20.5368 14.9423 20.0007 14.9423C19.4646 14.9423 18.807 14.0857 18.3456 12.5585L18.3455 12.5584ZM20.0006 16.416C21.1493 16.416 22.0838 17.3505 22.0838 18.4992C22.0838 19.6479 21.1493 20.5824 20.0006 20.5824C18.852 20.5824 17.9174 19.6479 17.9174 18.4992C17.9174 17.3505 18.852 16.416 20.0006 16.416ZM9.61477 13.4509C9.61477 13.024 9.96195 12.6767 10.3888 12.6767C10.8157 12.6767 11.163 13.024 11.163 13.4509C11.163 13.8777 10.8157 14.225 10.3888 14.225C9.96195 14.225 9.61477 13.8777 9.61477 13.4509ZM20.5767 8.17414C20.5767 8.47617 20.3319 8.72102 20.0298 8.72102H19.9714C19.6694 8.72102 19.4245 8.47617 19.4245 8.17414C19.4245 7.87211 19.6694 7.62727 19.9714 7.62727H20.0298C20.3319 7.62727 20.5767 7.87211 20.5767 8.17414Z" fill="#1CB098"/>
</g>
<defs>
<clipPath id="clip0_445_3117">
<rect width="40" height="40" fill="white"/>
</clipPath>
</defs>
</svg>
