<svg width="64" height="64" viewBox="0 0 64 64" fill="none" xmlns="http://www.w3.org/2000/svg">
<path d="M62.6667 15.2034H58.8582V12.3376C58.8582 11.8035 58.5396 11.321 58.0483 11.1112C50.0051 7.67773 40.1092 9.13292 31.9999 14.8846C23.8908 9.13292 13.9946 7.67813 5.9517 11.1112C5.46041 11.321 5.14178 11.8035 5.14178 12.3376V15.2034H1.33331C0.597053 15.2034 0 15.8003 0 16.5367V53.3905C0 54.1269 0.597053 54.7238 1.33331 54.7238H32.0001H62.6667C63.4031 54.7238 64 54.1268 64 53.3905V16.5368C64 15.8004 63.4031 15.2034 62.6667 15.2034ZM2.66663 52.0572V17.8701H5.14178V49.1914C5.14178 49.6393 5.3667 50.0571 5.74032 50.3039C6.11407 50.5507 6.58654 50.5932 6.99847 50.4176C13.2439 47.7515 20.7861 48.4183 27.4803 52.0572H2.66663ZM30.6668 50.8411C25.8004 47.7401 20.3871 46.13 15.1618 46.13C12.6391 46.13 10.1606 46.5052 7.80854 47.2693V16.5523C7.80854 16.547 7.80935 16.542 7.80935 16.5368C7.80935 16.5317 7.80867 16.5265 7.80854 16.5214V13.2394C14.9202 10.5739 23.5436 12.0646 30.6668 17.2092V50.8411ZM33.3334 17.2092C40.4564 12.0644 49.0803 10.5739 56.1916 13.2394V16.5213C56.1916 16.5264 56.1908 16.5315 56.1908 16.5367C56.1908 16.5418 56.1915 16.547 56.1916 16.5521V47.269C48.9674 44.9223 40.5489 46.2431 33.3334 50.841V17.2092ZM61.3334 52.0572H36.5196C43.2139 48.4183 50.756 47.7516 57.0015 50.4176C57.4135 50.5936 57.8863 50.5508 58.2597 50.3039C58.6334 50.0571 58.8582 49.6392 58.8582 49.1914V17.8701H61.3334V52.0572Z" fill="#1882FF"/>
</svg>
