<svg width="50" height="50" viewBox="0 0 50 50" fill="none" xmlns="http://www.w3.org/2000/svg">
<path d="M17.3516 24.9268L20.0205 13.2861C20.1172 12.8662 20.5361 12.6035 20.9561 12.6992C21.376 12.7959 21.6387 13.2139 21.543 13.6348L18.874 25.2754C18.791 25.6367 18.4697 25.8818 18.1143 25.8818C18.0566 25.8818 17.998 25.875 17.9395 25.8623C17.5176 25.7656 17.2559 25.3467 17.3516 24.9268ZM8.63574 19.9609L15.0273 23.5322C15.1475 23.5996 15.2783 23.6318 15.4072 23.6318C15.6807 23.6318 15.9463 23.4873 16.0898 23.2314C16.2998 22.8555 16.165 22.3799 15.7891 22.1689L10.6172 19.2793L15.7891 16.3896C16.165 16.1797 16.2998 15.7041 16.0898 15.3271C15.8799 14.9512 15.4043 14.8164 15.0273 15.0264L8.63574 18.5977C8.38867 18.7354 8.23633 18.9961 8.23633 19.2793C8.23535 19.5625 8.38867 19.8232 8.63574 19.9609ZM22.8066 23.2314C22.9492 23.4873 23.2148 23.6318 23.4893 23.6318C23.6182 23.6318 23.749 23.5996 23.8691 23.5322L30.2607 19.9609C30.5078 19.8232 30.6602 19.5625 30.6602 19.2793C30.6602 18.9961 30.5068 18.7354 30.2607 18.5977L23.8691 15.0264C23.4922 14.8164 23.0176 14.9512 22.8066 15.3271C22.5967 15.7031 22.7314 16.1787 23.1074 16.3896L28.2793 19.2793L23.1074 22.1689C22.7314 22.3789 22.5967 22.8545 22.8066 23.2314ZM50 29.3311V32.0693C50 32.4072 49.7822 32.707 49.4609 32.8115L47.7578 33.3652C47.5381 34.1582 47.2227 34.9189 46.8164 35.6338L47.6309 37.2314C47.7852 37.5332 47.7266 37.8994 47.4863 38.1387L45.5527 40.0723C45.3135 40.3125 44.9473 40.3701 44.6455 40.2168L43.0488 39.4023C42.332 39.8105 41.5713 40.126 40.7773 40.3447L40.6455 40.7471L40.2256 42.0449C40.1211 42.3672 39.8213 42.585 39.4824 42.585H36.7451C36.4062 42.585 36.1064 42.3672 36.002 42.0449L35.4502 40.3447C34.6562 40.126 33.8945 39.8105 33.1787 39.4023L31.582 40.2168C31.2803 40.3711 30.9141 40.3125 30.6748 40.0723L28.7412 38.1387C28.5303 37.9277 28.46 37.6191 28.5508 37.3418H23.7178L25.0361 41.0234H27.6201C28.0518 41.0234 28.4004 41.373 28.4004 41.8037C28.4004 42.2344 28.0508 42.584 27.6201 42.584H24.4922C24.4902 42.584 24.4883 42.584 24.4863 42.584C24.4854 42.584 24.4844 42.584 24.4834 42.584H14.4121C14.4111 42.584 14.4102 42.584 14.4092 42.584C14.4072 42.584 14.4053 42.584 14.4033 42.584H11.2754C10.8438 42.584 10.4951 42.2344 10.4951 41.8037C10.4951 41.373 10.8447 41.0234 11.2754 41.0234H13.8594L15.1777 37.3418H3.22852C1.44824 37.3418 0 35.8945 0 34.1143V10.6396C0 8.86133 1.44824 7.41504 3.22754 7.41504H35.668C37.4482 7.41504 38.8955 8.86133 38.8955 10.6396V18.8145H39.4824C39.8213 18.8145 40.1211 19.0322 40.2256 19.3545L40.7773 21.0557C41.5713 21.2754 42.332 21.5908 43.0479 21.9971L44.6465 21.1846C44.9482 21.0312 45.3135 21.0898 45.5518 21.3281L47.4863 23.2598C47.7266 23.499 47.7842 23.8652 47.6309 24.167L46.8164 25.7637C47.2256 26.4834 47.541 27.2441 47.7588 28.0342L48.1611 28.166L49.459 28.5859C49.7812 28.6924 50 28.9922 50 29.3311ZM1.56152 10.6396V29.585H26.2295V29.3301C26.2295 28.9912 26.4473 28.6914 26.7695 28.5869L28.4707 28.0352C28.6904 27.2412 29.0059 26.4805 29.4131 25.7646L28.5986 24.167C28.4443 23.8652 28.5029 23.499 28.7432 23.2598L30.6777 21.3281C30.917 21.0889 31.2822 21.0312 31.583 21.1836L33.1816 21.9961C33.8975 21.5898 34.6582 21.2744 35.4521 21.0547L35.584 20.6514L36.0039 19.3535C36.1084 19.0312 36.4082 18.8135 36.7471 18.8135H37.3369V10.6387C37.3369 9.72168 36.5889 8.97461 35.6709 8.97461H3.22852C2.30957 8.97656 1.56152 9.72266 1.56152 10.6396ZM3.22852 35.7812H29.3379L29.4131 35.6338C29.0068 34.918 28.6914 34.1582 28.4717 33.3652L26.7686 32.8115C26.4473 32.707 26.2295 32.4072 26.2295 32.0693V31.1475H1.56152V34.1152C1.56152 35.0332 2.30957 35.7812 3.22852 35.7812ZM22.0615 37.3418H16.8359L15.5176 41.0234H23.3799L22.0615 37.3418ZM48.4385 29.8984L46.8643 29.3857C46.6035 29.2998 46.4072 29.084 46.3457 28.8164C46.1367 27.8975 45.7734 27.0205 45.2637 26.21C45.1172 25.9775 45.1045 25.6855 45.2295 25.4404L45.9814 23.9639L44.8486 22.833L43.3721 23.584C43.127 23.709 42.835 23.6953 42.6025 23.5498C41.7979 23.0439 40.9209 22.6807 39.9941 22.4678C39.7275 22.4062 39.5127 22.21 39.4268 21.9502L38.9141 20.376H37.3125L36.7998 21.9502C36.7148 22.21 36.499 22.4062 36.2324 22.4678C35.3066 22.6807 34.4287 23.0449 33.624 23.5498C33.3916 23.6963 33.0996 23.709 32.8545 23.584L31.3779 22.833L30.2451 23.9639L30.9971 25.4404C31.1221 25.6855 31.1084 25.9775 30.9629 26.21C30.458 27.0146 30.0938 27.8916 29.8809 28.8184C29.8193 29.085 29.623 29.2998 29.3633 29.3857L27.7891 29.8984V31.502L29.3613 32.0127C29.6221 32.0977 29.8203 32.3125 29.8818 32.5801C30.0947 33.5059 30.459 34.3838 30.9639 35.1885C31.1104 35.4209 31.123 35.7129 30.998 35.958L30.5146 36.9062C30.5088 36.918 30.5029 36.9307 30.4961 36.9424L30.2451 37.4355L31.3779 38.5684L32.8545 37.8164C33.0996 37.6914 33.3926 37.7051 33.625 37.8516C34.4287 38.3584 35.3047 38.7227 36.2295 38.9326C36.4971 38.9932 36.7129 39.1904 36.7988 39.4512L37.3115 41.0254H38.9131L39.4258 39.4512C39.5107 39.1904 39.7275 38.9941 39.9951 38.9326C40.9199 38.7227 41.7959 38.3594 42.5996 37.8516C42.832 37.7051 43.125 37.6914 43.3701 37.8164L44.8467 38.5684L45.9795 37.4355L45.2275 35.959C45.1025 35.7139 45.1162 35.4219 45.2617 35.1895C45.7666 34.3848 46.1309 33.5078 46.3438 32.5811C46.4053 32.3135 46.6025 32.0977 46.8643 32.0137L48.4365 31.5029V29.8984H48.4385ZM42.9404 30.7012C42.9404 33.3613 40.7764 35.5264 38.1152 35.5264C35.4531 35.5264 33.2871 33.3623 33.2871 30.7012C33.2871 28.0391 35.4531 25.873 38.1152 25.873C40.7764 25.873 42.9404 28.0391 42.9404 30.7012ZM41.3799 30.7012C41.3799 28.9004 39.916 27.4346 38.1162 27.4346C36.3154 27.4346 34.8496 28.9004 34.8496 30.7012C34.8496 32.501 36.3154 33.9648 38.1162 33.9648C39.915 33.9648 41.3799 32.501 41.3799 30.7012Z" fill="#1CB098"/>
</svg>
