<svg width="40" height="40" viewBox="0 0 40 40" fill="none" xmlns="http://www.w3.org/2000/svg">
<g clip-path="url(#clip0_172_975)">
<path d="M7.30972 4.31799C5.85237 4.31799 4.66675 5.50323 4.66675 6.95995C4.66675 8.41667 5.85237 9.6019 7.30972 9.6019C8.76823 9.6019 9.95487 8.41667 9.95487 6.95995C9.95487 5.50323 8.76823 4.31799 7.30972 4.31799ZM7.30972 8.02627C6.7212 8.02627 6.24245 7.54791 6.24245 6.95995C6.24245 6.37198 6.7212 5.8937 7.30972 5.8937C7.8994 5.8937 8.37925 6.37206 8.37925 6.96002C8.37925 7.54799 7.8994 8.02627 7.30972 8.02627Z" fill="#1CB098"/>
<path d="M30.4192 4.31799H23.4325C21.9752 4.31799 20.7896 5.50323 20.7896 6.95995C20.7896 8.41667 21.9752 9.6019 23.4325 9.6019H30.4192C31.8765 9.6019 33.0621 8.41667 33.0621 6.95995C33.0621 5.50323 31.8765 4.31799 30.4192 4.31799ZM30.4192 8.02627H23.4325C22.844 8.02627 22.3653 7.54791 22.3653 6.95995C22.3653 6.37198 22.8441 5.89362 23.4325 5.89362H30.4192C31.0077 5.89362 31.4864 6.37198 31.4864 6.95995C31.4864 7.54791 31.0077 8.02627 30.4192 8.02627Z" fill="#1CB098"/>
<path d="M14.1591 4.31799C12.7017 4.31799 11.5161 5.50323 11.5161 6.95995C11.5161 8.41667 12.7017 9.6019 14.1591 9.6019C15.6176 9.6019 16.8042 8.41667 16.8042 6.95995C16.8042 5.50323 15.6176 4.31799 14.1591 4.31799ZM14.1591 8.02627C13.5706 8.02627 13.0918 7.54791 13.0918 6.95995C13.0918 6.37198 13.5706 5.89362 14.1591 5.89362C14.7488 5.89362 15.2286 6.37198 15.2286 6.95995C15.2286 7.54791 14.7488 8.02627 14.1591 8.02627Z" fill="#1CB098"/>
<path d="M12.8744 17.3784C12.4514 17.2771 12.0261 17.5382 11.925 17.9615L10.3621 24.502C10.261 24.9252 10.522 25.3503 10.9452 25.4514C11.0068 25.466 11.0684 25.4732 11.129 25.4732C11.4852 25.4732 11.8082 25.2299 11.8946 24.8682L13.4575 18.3278C13.5587 17.9046 13.2976 17.4796 12.8744 17.3784Z" fill="#1CB098"/>
<path d="M15.7668 24.6828C15.917 24.8165 16.1042 24.8823 16.2906 24.8823C16.5075 24.8823 16.7235 24.7933 16.8792 24.6185L19.0885 22.1385C19.453 21.7327 19.453 21.0972 19.0907 20.694L16.8792 18.2115C16.5896 17.8865 16.0916 17.8579 15.7668 18.1472C15.4418 18.4366 15.4131 18.9347 15.7025 19.2595L17.6226 21.4149L15.7025 23.5704C15.4131 23.8954 15.4419 24.3934 15.7668 24.6828Z" fill="#1CB098"/>
<path d="M8.05291 18.1471C7.72791 17.8577 7.23002 17.8867 6.94057 18.2114L4.73158 20.6912C4.36658 21.0971 4.36658 21.7328 4.72908 22.1359L6.94065 24.6185C7.09635 24.7933 7.31229 24.8823 7.52932 24.8823C7.71572 24.8823 7.90299 24.8165 8.05307 24.6828C8.37807 24.3933 8.40682 23.8953 8.11736 23.5704L6.19729 21.415L8.11736 19.2596C8.40666 18.9346 8.37791 18.4365 8.05291 18.1471Z" fill="#1CB098"/>
<path d="M38.2337 26.5259H37.9412C37.788 26.0296 37.5895 25.5506 37.3473 25.0928L37.556 24.8833C37.8894 24.552 38.0734 24.1096 38.0741 23.6375C38.0748 23.1644 37.8914 22.7202 37.5577 22.3865L37.1509 21.98V5.19877C37.1509 2.84885 35.4927 0.937134 33.4542 0.937134H3.69672C1.65828 0.937134 0 2.84885 0 5.19877V27.2185C0 29.5685 1.65828 31.4802 3.69672 31.4802H8.31906C8.75414 31.4802 9.10688 31.1274 9.10688 30.6924C9.10688 30.2573 8.75414 29.9046 8.31906 29.9046H3.69672C2.54703 29.9046 1.5757 28.6745 1.5757 27.2186V12.9253H35.5752V20.8867C35.4854 20.8728 35.3945 20.8638 35.3019 20.8638C35.3009 20.8638 35.3 20.8638 35.2991 20.8638C34.8271 20.8646 34.3847 21.0483 34.0559 21.3789L33.843 21.5909C33.3755 21.3439 32.8887 21.1431 32.3868 20.9897V20.7091C32.3868 19.7353 31.5945 18.9432 30.6205 18.9432H29.1948C28.222 18.9432 27.4307 19.7353 27.4307 20.7091V21.0089C26.9382 21.1637 26.4627 21.3628 26.0081 21.6047L25.8041 21.4013C25.4727 21.0682 25.0302 20.8843 24.5581 20.8836C24.5573 20.8836 24.5564 20.8836 24.5555 20.8836C24.0834 20.8836 23.6401 21.0668 23.307 21.3996L22.2998 22.4064C21.966 22.74 21.7827 23.1843 21.7834 23.6574C21.7841 24.1294 21.968 24.5718 22.2988 24.9006L22.5164 25.1188C22.2802 25.5696 22.0862 26.0398 21.9362 26.5257H21.637C20.6641 26.5257 19.8728 27.3168 19.8728 28.2893V29.7164C19.8728 29.7799 19.8763 29.8425 19.8829 29.9042H15.2989C14.8638 29.9042 14.5111 30.257 14.5111 30.6921C14.5111 31.1271 14.8638 31.4799 15.2989 31.4799H21.6369H21.9391C22.0915 31.9704 22.2884 32.4444 22.5287 32.8981L22.3158 33.1101C21.6304 33.7992 21.631 34.9178 22.3174 35.6037L23.3252 36.6111C23.6566 36.9442 24.0991 37.1281 24.5712 37.1288H24.5737C25.0459 37.1288 25.4892 36.9456 25.8223 36.6127L26.0333 36.4018C26.4911 36.6432 26.9671 36.8403 27.4571 36.9918V37.2967C27.4571 38.2705 28.2484 39.0626 29.2213 39.0626H30.6491C31.6219 39.0626 32.4132 38.2705 32.4132 37.2967V36.9937C32.9078 36.8411 33.3858 36.6432 33.843 36.4017L34.0531 36.611C34.3845 36.9442 34.8269 37.128 35.2989 37.1288H35.3016C35.7738 37.1288 36.217 36.9456 36.5507 36.6121L37.5558 35.6053C37.8891 35.274 38.0731 34.8316 38.0738 34.3596C38.0745 33.8864 37.8912 33.4422 37.5573 33.1085L37.3471 32.8984C37.5869 32.4442 37.7837 31.9699 37.9358 31.4799H38.2335C39.2075 31.4799 39.9998 30.6889 39.9998 29.7164V28.2893C40 27.317 39.2077 26.5259 38.2337 26.5259ZM1.5757 11.3496V5.19877C1.5757 3.74291 2.54703 2.51284 3.69672 2.51284H33.4542C34.6039 2.51284 35.5752 3.74291 35.5752 5.19877V11.3497L1.5757 11.3496ZM38.4243 29.7166C38.4243 29.8167 38.3352 29.9044 38.2336 29.9044H37.3327C36.9653 29.9044 36.6467 30.1582 36.5647 30.5163C36.3945 31.2589 36.1023 31.9631 35.6959 32.6096C35.5002 32.9209 35.5459 33.3262 35.8061 33.5861L36.4436 34.2232C36.4912 34.2709 36.4983 34.3278 36.4983 34.3574C36.4982 34.3929 36.489 34.4444 36.443 34.49L35.4364 35.4984C35.3887 35.546 35.3317 35.5532 35.3017 35.5532C35.3016 35.5532 35.3016 35.5532 35.3016 35.5532C35.2658 35.5532 35.2141 35.5439 35.168 35.4974L34.5281 34.8603C34.2679 34.6011 33.8634 34.5562 33.5527 34.7515C32.9052 35.1588 32.198 35.4515 31.4506 35.6216C31.0921 35.7033 30.8377 36.0221 30.8377 36.3899V37.297C30.8377 37.3982 30.7496 37.4871 30.6493 37.4871H29.2214C29.121 37.4871 29.033 37.3983 29.033 37.297V36.3876C29.033 36.0195 28.778 35.7003 28.4189 35.6192C27.681 35.4523 26.9751 35.16 26.3209 34.7506C26.192 34.6699 26.0471 34.6306 25.9031 34.6306C25.6996 34.6306 25.4979 34.7092 25.3459 34.8613L24.7085 35.4984C24.6608 35.546 24.6038 35.5532 24.5738 35.5532C24.5738 35.5532 24.5737 35.5532 24.5736 35.5532C24.5379 35.5532 24.4862 35.5439 24.4409 35.4985L23.4315 34.4895C23.3608 34.4189 23.3616 34.2937 23.4305 34.2243L24.0703 33.5871C24.3317 33.3268 24.3774 32.9201 24.1805 32.6082C23.7735 31.9639 23.4809 31.2601 23.3105 30.5165C23.2285 30.1585 22.9099 29.9046 22.5425 29.9046H21.637C21.5349 29.9046 21.4486 29.8185 21.4486 29.7167V28.2896C21.4486 28.1878 21.5349 28.1017 21.637 28.1017H22.5402C22.908 28.1017 23.2269 27.8473 23.3085 27.4888C23.4766 26.7499 23.7655 26.0491 24.1672 25.4055C24.3611 25.0948 24.3153 24.6914 24.0566 24.4321L23.4121 23.7856C23.3684 23.7422 23.3591 23.6907 23.3591 23.6553C23.3591 23.6256 23.3661 23.5687 23.4138 23.5211L24.4209 22.5144C24.4687 22.4667 24.5256 22.4596 24.5556 22.4596H24.5559C24.5916 22.4596 24.6433 22.4689 24.6895 22.5153L25.3248 23.1481C25.5858 23.4081 25.9918 23.4526 26.3026 23.2554C26.9463 22.8473 27.6514 22.5517 28.3981 22.3769C28.7544 22.2935 29.0063 21.9757 29.0063 21.6098V20.7093C29.0063 20.6063 29.0926 20.5192 29.1947 20.5192H30.6204C30.7238 20.5192 30.8111 20.6063 30.8111 20.7093V21.5965C30.8111 21.9656 31.0673 22.2853 31.4277 22.3655C32.1773 22.5324 32.8925 22.8273 33.5534 23.2419C33.8639 23.4366 34.268 23.3916 34.528 23.1327L35.1705 22.4928C35.2141 22.449 35.2657 22.4398 35.3014 22.4397H35.3016C35.3316 22.4397 35.3886 22.4469 35.4363 22.4946L36.4435 23.5012C36.4912 23.5489 36.4982 23.6057 36.4982 23.6354C36.4981 23.6709 36.4889 23.7224 36.4426 23.7684L35.805 24.4078C35.5454 24.6682 35.5004 25.0735 35.6966 25.3845C36.1045 26.0311 36.3979 26.7392 36.5688 27.4891C36.6505 27.8475 36.9693 28.1018 37.337 28.1018H38.2336C38.3352 28.1018 38.4243 28.1897 38.4243 28.2897V29.7166Z" fill="#1CB098"/>
<path d="M29.9365 24.1915C27.2817 24.1915 25.1218 26.3504 25.1218 29.0041C25.1218 31.6565 27.2817 33.8145 29.9365 33.8145C32.5902 33.8145 34.749 31.6566 34.749 29.0041C34.749 26.3505 32.5902 24.1915 29.9365 24.1915ZM29.9365 32.2388C28.1506 32.2388 26.6975 30.7877 26.6975 29.0041C26.6975 27.2193 28.1506 25.7672 29.9365 25.7672C31.7213 25.7672 33.1733 27.2193 33.1733 29.0041C33.1733 30.7877 31.7212 32.2388 29.9365 32.2388Z" fill="#1CB098"/>
<path d="M11.8323 29.9045H11.8169C11.3818 29.9045 11.0291 30.2573 11.0291 30.6924C11.0291 31.1274 11.3818 31.4802 11.8169 31.4802H11.8323C12.2674 31.4802 12.6201 31.1274 12.6201 30.6924C12.6201 30.2573 12.2674 29.9045 11.8323 29.9045Z" fill="#1CB098"/>
</g>
<defs>
<clipPath id="clip0_172_975">
<rect width="40" height="40" fill="white"/>
</clipPath>
</defs>
</svg>
