<svg width="40" height="40" viewBox="0 0 40 40" fill="none" xmlns="http://www.w3.org/2000/svg">
<path d="M37.1875 3.75H2.8125C2.23254 3.75064 1.67651 3.98131 1.26641 4.39141C0.856315 4.80151 0.625641 5.35754 0.625 5.9375V29.0625C0.625641 29.6425 0.856315 30.1985 1.26641 30.6086C1.67651 31.0187 2.23254 31.2494 2.8125 31.25H15.4875L15.1125 33.125H12.5C12.3342 33.125 12.1753 33.1908 12.0581 33.3081C11.9408 33.4253 11.875 33.5842 11.875 33.75V35.625C11.875 35.7908 11.9408 35.9497 12.0581 36.0669C12.1753 36.1842 12.3342 36.25 12.5 36.25H27.5C27.6658 36.25 27.8247 36.1842 27.9419 36.0669C28.0592 35.9497 28.125 35.7908 28.125 35.625V33.75C28.125 33.5842 28.0592 33.4253 27.9419 33.3081C27.8247 33.1908 27.6658 33.125 27.5 33.125H24.8875L24.5125 31.25H37.1875C37.7675 31.2494 38.3235 31.0187 38.7336 30.6086C39.1437 30.1985 39.3744 29.6425 39.375 29.0625V5.9375C39.3744 5.35754 39.1437 4.80151 38.7336 4.39141C38.3235 3.98131 37.7675 3.75064 37.1875 3.75ZM26.875 34.375V35H13.125V34.375H26.875ZM16.3875 33.125L16.7625 31.25H23.2375L23.6125 33.125H16.3875ZM38.125 29.0625C38.1248 29.3111 38.026 29.5494 37.8502 29.7252C37.6744 29.901 37.4361 29.9998 37.1875 30H2.8125C2.56392 29.9998 2.32559 29.901 2.14982 29.7252C1.97405 29.5494 1.87521 29.3111 1.875 29.0625V27.5H38.125V29.0625ZM38.125 26.25H1.875V5.9375C1.87521 5.68892 1.97405 5.45059 2.14982 5.27482C2.32559 5.09905 2.56392 5.00021 2.8125 5H37.1875C37.4361 5.00021 37.6744 5.09905 37.8502 5.27482C38.026 5.45059 38.1248 5.68892 38.125 5.9375V26.25Z" fill="#1CB098"/>
<path d="M20.625 28.125H19.375C19.2092 28.125 19.0503 28.1908 18.9331 28.3081C18.8158 28.4253 18.75 28.5842 18.75 28.75C18.75 28.9158 18.8158 29.0747 18.9331 29.1919C19.0503 29.3092 19.2092 29.375 19.375 29.375H20.625C20.7908 29.375 20.9497 29.3092 21.0669 29.1919C21.1842 29.0747 21.25 28.9158 21.25 28.75C21.25 28.5842 21.1842 28.4253 21.0669 28.3081C20.9497 28.1908 20.7908 28.125 20.625 28.125Z" fill="#1CB098"/>
</svg>
