<svg width="40" height="40" viewBox="0 0 40 40" fill="none" xmlns="http://www.w3.org/2000/svg">
<path d="M21.332 21.3938V24.8626H22.582V21.3938C22.5818 20.5698 22.3651 19.7603 21.9538 19.0463C21.5425 18.3323 20.951 17.7387 20.2383 17.3251C20.7245 16.6878 21.0228 15.9273 21.0997 15.1295C21.1766 14.3316 21.0289 13.5281 20.6734 12.8097C20.3179 12.0913 19.7686 11.4866 19.0877 11.0638C18.4067 10.641 17.6211 10.417 16.8195 10.417C16.018 10.417 15.2324 10.641 14.5514 11.0638C13.8704 11.4866 13.3212 12.0913 12.9656 12.8097C12.6101 13.5281 12.4625 14.3316 12.5394 15.1295C12.6162 15.9273 12.9146 16.6878 13.4008 17.3251C12.6874 17.7384 12.0949 18.3317 11.6825 19.0457C11.2701 19.7597 11.0523 20.5693 11.0508 21.3938V24.8626H12.3008V21.3938C12.3002 20.7266 12.4922 20.0733 12.8536 19.5124C13.215 18.9514 13.7305 18.5067 14.3383 18.2313L14.507 18.3313C14.6008 18.3938 14.7008 18.4501 14.7945 18.5001C14.8817 18.5469 14.9714 18.5886 15.0633 18.6251C15.2099 18.6935 15.3601 18.754 15.5133 18.8063C16.3525 19.0897 17.2616 19.0897 18.1008 18.8063C18.2564 18.7551 18.4087 18.6946 18.557 18.6251C18.6469 18.5885 18.7345 18.5468 18.8195 18.5001C18.9188 18.4499 19.0148 18.3935 19.107 18.3313L19.282 18.2313C19.8927 18.5042 20.4112 18.948 20.775 19.5092C21.1388 20.0705 21.3323 20.725 21.332 21.3938ZM18.7945 17.0188C18.3781 17.3593 17.8809 17.5865 17.351 17.6784C16.821 17.7704 16.2763 17.724 15.7695 17.5438C15.432 17.4262 15.1186 17.2483 14.8445 17.0188C14.3708 16.6149 14.0324 16.0754 13.8748 15.473C13.7173 14.8707 13.7483 14.2346 13.9635 13.6504C14.1788 13.0663 14.568 12.5622 15.0787 12.2061C15.5894 11.85 16.197 11.6591 16.8195 11.6591C17.4421 11.6591 18.0497 11.85 18.5604 12.2061C19.0711 12.5622 19.4603 13.0663 19.6756 13.6504C19.8908 14.2346 19.9218 14.8707 19.7642 15.473C19.6067 16.0754 19.2682 16.6149 18.7945 17.0188Z" fill="#1CB098"/>
<path d="M7.37406 25.3876C5.8247 23.3218 4.99092 20.8073 4.99906 18.2251C5.00286 16.3047 5.46821 14.4134 6.3559 12.7105C7.24359 11.0076 8.52761 9.54301 10.0997 8.44019C11.6719 7.33736 13.4861 6.6286 15.3894 6.37362C17.2928 6.11863 19.2296 6.32491 21.0366 6.97505L21.4616 5.80005C18.7891 4.8435 15.8798 4.77174 13.1634 5.59539C10.447 6.41904 8.06754 8.09443 6.37634 10.3741C4.68514 12.6538 3.7719 15.4169 3.77148 18.2555C3.77107 21.094 4.68351 23.8574 6.37406 26.1376L7.37406 25.3876Z" fill="#1CB098"/>
<path d="M29.6809 29.1812L28.9184 29.9438L26.4184 27.4438C28.8259 24.9694 30.1716 21.6524 30.1684 18.2C30.1676 17.5052 30.1132 16.8115 30.0059 16.125L28.7559 16.325C28.856 16.945 28.9061 17.572 28.9059 18.2C28.9145 20.9806 27.9568 23.6778 26.1966 25.8302C24.4363 27.9827 21.9828 29.4566 19.2559 30L19.4934 31.25C21.7186 30.824 23.7948 29.8268 25.5184 28.3562L28.0184 30.8562L27.2559 31.6188C26.9322 31.9443 26.7505 32.3847 26.7505 32.8438C26.7505 33.3028 26.9322 33.7432 27.2559 34.0687L31.7746 38.5938L32.6621 37.7063L28.1246 33.1625C28.0438 33.0711 27.9991 32.9533 27.9991 32.8312C27.9991 32.7092 28.0438 32.5914 28.1246 32.5L30.5621 30.0625C30.6535 29.9717 30.777 29.9207 30.9059 29.9207C31.0347 29.9207 31.1583 29.9717 31.2496 30.0625L36.4309 35.25L37.3184 34.375L32.1309 29.1875C31.8061 28.863 31.3662 28.6802 30.9071 28.6791C30.4481 28.6779 30.0072 28.8584 29.6809 29.1812Z" fill="#1CB098"/>
<path d="M38.125 6.25H23.125C22.9592 6.25 22.8003 6.31585 22.6831 6.43306C22.5658 6.55027 22.5 6.70924 22.5 6.875V14.375C22.5 14.5408 22.5658 14.6997 22.6831 14.8169C22.8003 14.9342 22.9592 15 23.125 15H38.125C38.2908 15 38.4497 14.9342 38.5669 14.8169C38.6842 14.6997 38.75 14.5408 38.75 14.375V6.875C38.75 6.70924 38.6842 6.55027 38.5669 6.43306C38.4497 6.31585 38.2908 6.25 38.125 6.25ZM37.5 13.75H23.75V7.5H37.5V13.75Z" fill="#1CB098"/>
<path d="M25 8.75H36.25V10H25V8.75Z" fill="#1CB098"/>
<path d="M25 11.25H31.25V12.5H25V11.25Z" fill="#1CB098"/>
<path d="M32.5 11.25H36.25V12.5H32.5V11.25Z" fill="#1CB098"/>
<path d="M16.875 26.875H1.875C1.70924 26.875 1.55027 26.9408 1.43306 27.0581C1.31585 27.1753 1.25 27.3342 1.25 27.5V35C1.25 35.1658 1.31585 35.3247 1.43306 35.4419C1.55027 35.5592 1.70924 35.625 1.875 35.625H16.875C17.0408 35.625 17.1997 35.5592 17.3169 35.4419C17.4342 35.3247 17.5 35.1658 17.5 35V27.5C17.5 27.3342 17.4342 27.1753 17.3169 27.0581C17.1997 26.9408 17.0408 26.875 16.875 26.875ZM16.25 34.375H2.5V28.125H16.25V34.375Z" fill="#1CB098"/>
<path d="M3.75 29.375H15V30.625H3.75V29.375Z" fill="#1CB098"/>
<path d="M3.75 31.875H10V33.125H3.75V31.875Z" fill="#1CB098"/>
<path d="M11.25 31.875H15V33.125H11.25V31.875Z" fill="#1CB098"/>
</svg>
