<svg width="50" height="50" viewBox="0 0 50 50" fill="none" xmlns="http://www.w3.org/2000/svg">
<path d="M44.3211 15.2342C44.7839 8.18027 39.1812 2.09668 32.0658 2.09668C26.9518 2.09668 22.6124 5.22256 20.7476 9.65898C15.3321 5.59102 7.41191 8.46338 5.88838 15.1717C2.44824 16.1443 0 19.5787 0 23.5579C0 28.3315 3.51719 32.2151 7.84033 32.2151H7.84434C8.38359 32.2151 8.8209 31.7778 8.8209 31.2386C8.8209 30.6993 8.38359 30.262 7.84434 30.262H7.84033C4.59414 30.2621 1.95312 27.2546 1.95312 23.5579C1.95312 20.2437 4.03477 17.4601 6.90293 16.9392C7.31279 16.8647 7.63027 16.5385 7.69365 16.1268C8.25361 12.484 11.4407 9.73701 15.1072 9.73701C17.1495 9.73701 19.0603 10.5505 20.4872 12.0276C21.0101 12.5688 21.9263 12.3385 22.1298 11.6131C23.3799 7.15986 27.4657 4.0498 32.0658 4.0498C38.2313 4.0498 43.1398 9.51582 42.2978 15.8476C42.2289 16.3644 42.5781 16.8439 43.0911 16.9372C45.9627 17.4591 48.0469 20.2436 48.0469 23.5579C48.0469 27.2546 45.4059 30.262 42.1597 30.262H42.1557C41.6164 30.262 41.1791 30.6993 41.1791 31.2386C41.1791 31.7778 41.6164 32.2151 42.1557 32.2151H42.1597C46.4829 32.2151 50 28.3314 50 23.5579C50 19.6036 47.605 16.2738 44.3211 15.2342Z" fill="#08001C"/>
<path d="M11.7625 47.9035C9.60195 47.9035 7.84424 46.1458 7.84424 43.9853V22.4133C7.84424 20.2528 9.60195 18.4951 11.7625 18.4951H38.2373C40.3979 18.4951 42.1556 20.2528 42.1556 22.4133V43.9853C42.1556 46.1458 40.3979 47.9035 38.2373 47.9035H11.7625Z" fill="#C8B4FD"/>
<path d="M35.2958 34.1846H14.7042C13.0844 34.1846 11.7666 35.5024 11.7666 37.1223V41.0445C11.7666 42.6643 13.0844 43.982 14.7042 43.982H35.2957C36.9155 43.982 38.2334 42.6643 38.2334 41.0445V37.1223C38.2335 35.5024 36.9156 34.1846 35.2958 34.1846ZM36.2804 41.0445C36.2804 41.5874 35.8388 42.0289 35.2958 42.0289H14.7042C14.1613 42.0289 13.7197 41.5874 13.7197 41.0445V37.1223C13.7197 36.5793 14.1613 36.1377 14.7042 36.1377H35.2957C35.8387 36.1377 36.2803 36.5793 36.2803 37.1223V41.0445H36.2804Z" fill="#08001C"/>
<path d="M25.4901 38.1064H15.6846C15.1453 38.1064 14.708 38.5438 14.708 39.083C14.708 39.6223 15.1453 40.0596 15.6846 40.0596H25.4901C26.0294 40.0596 26.4667 39.6223 26.4667 39.083C26.4667 38.5438 26.0294 38.1064 25.4901 38.1064Z" fill="#08001C"/>
<path d="M33.3345 38.1074C32.7929 38.1074 32.3579 38.548 32.3579 39.084C32.3579 39.6208 32.7951 40.0605 33.3345 40.0605C33.8733 40.0605 34.311 39.6212 34.311 39.084C34.3111 38.5523 33.8802 38.1074 33.3345 38.1074Z" fill="#08001C"/>
<path d="M30.0957 39.7734C30.477 39.3921 30.477 38.7739 30.0957 38.3926C29.7144 38.0113 29.0962 38.0113 28.7148 38.3926C28.3335 38.7739 28.3335 39.3921 28.7148 39.7734C29.0962 40.1548 29.7144 40.1548 30.0957 39.7734Z" fill="#08001C"/>
<path d="M35.2958 22.418H14.7042C13.0844 22.418 11.7666 23.7358 11.7666 25.3557V29.2779C11.7666 30.8978 13.0844 32.2156 14.7042 32.2156H35.2957C36.9155 32.2156 38.2334 30.8978 38.2334 29.2779V25.3557C38.2335 23.7358 36.9156 22.418 35.2958 22.418ZM36.2804 29.2779C36.2804 29.8209 35.8388 30.2625 35.2958 30.2625H14.7042C14.1613 30.2625 13.7197 29.8209 13.7197 29.2779V25.3557C13.7197 24.8127 14.1613 24.3711 14.7042 24.3711H35.2957C35.8387 24.3711 36.2803 24.8127 36.2803 25.3557V29.2779H36.2804Z" fill="#08001C"/>
<path d="M25.4901 26.3398H15.6846C15.1453 26.3398 14.708 26.7771 14.708 27.3164C14.708 27.8557 15.1453 28.293 15.6846 28.293H25.4901C26.0294 28.293 26.4667 27.8557 26.4667 27.3164C26.4667 26.7771 26.0294 26.3398 25.4901 26.3398Z" fill="#08001C"/>
<path d="M33.3346 28.2941C33.874 28.2941 34.3112 27.8569 34.3112 27.3175C34.3112 26.7781 33.874 26.3408 33.3346 26.3408C32.7952 26.3408 32.3579 26.7781 32.3579 27.3175C32.3579 27.8569 32.7952 28.2941 33.3346 28.2941Z" fill="#08001C"/>
<path d="M29.4126 28.2939C29.9519 28.2939 30.3892 27.8567 30.3892 27.3174C30.3892 26.778 29.9519 26.3408 29.4126 26.3408C28.8733 26.3408 28.436 26.778 28.436 27.3174C28.436 27.8567 28.8733 28.2939 29.4126 28.2939Z" fill="#08001C"/>
</svg>
