<svg width="50" height="50" viewBox="0 0 50 50" fill="none" xmlns="http://www.w3.org/2000/svg">
<g clip-path="url(#clip0_767_12749)">
<path d="M29.9023 41.1787V47.0625C29.9023 48.1455 29.0244 49.0234 27.9414 49.0234H22.0586C20.9756 49.0234 20.0977 48.1455 20.0977 47.0625V41.1787H29.9023Z" fill="#743EF9"/>
<path d="M25.8128 18.0852C25.3861 17.4465 24.431 17.5331 24.115 18.2131L17.2508 32.922C17.156 33.125 17.134 33.3545 17.1884 33.5719L19.1211 41.299V47.0625C19.1211 48.6822 20.4389 50 22.0586 50H27.9414C29.5611 50 30.8789 48.6822 30.8789 47.0625V41.299L32.8116 33.5719C32.866 33.3544 32.8439 33.125 32.7492 32.922C25.4741 17.3356 25.8754 18.1795 25.8128 18.0852ZM25 34.3113C25.5429 34.3113 25.9845 34.7529 25.9845 35.2958C25.9845 35.8387 25.5429 36.2803 25 36.2803C24.4571 36.2803 24.0154 35.8387 24.0154 35.2958C24.0154 34.7529 24.4571 34.3113 25 34.3113ZM28.9258 47.0625C28.9258 47.6054 28.4842 48.0469 27.9414 48.0469H22.0586C21.5158 48.0469 21.0742 47.6053 21.0742 47.0625C21.0734 40.8389 21.0782 41.1577 21.0662 41.0594C21.0542 40.9631 21.1608 41.4079 19.1672 33.434L24.0234 23.0278V32.5258C22.8823 32.9293 22.0623 34.0182 22.0623 35.2958C22.0623 36.9156 23.3802 38.2334 25 38.2334C26.6198 38.2334 27.9376 36.9156 27.9376 35.2958C27.9376 34.0182 27.1176 32.9293 25.9766 32.5258V23.0278L30.8328 33.4341C28.8516 41.3586 28.9258 40.9989 28.9258 41.1787V47.0625Z" fill="#08001C"/>
<path d="M46.0817 0.980566C44.2583 0.980566 42.7219 2.23262 42.2868 3.92217H30.3891V3.91826C30.3891 1.75771 28.6313 0 26.4708 0H23.5292C21.3687 0 19.6109 1.75771 19.6109 3.91826V3.92217H7.71318C7.27813 2.23262 5.7417 0.980566 3.91816 0.980566C1.75772 0.980566 0 2.73828 0 4.89873C0 7.05918 1.75771 8.81689 3.91826 8.81689C5.7417 8.81689 7.27822 7.56484 7.71328 5.87529H19.611V5.8793C19.611 6.62627 19.8214 7.325 20.1856 7.91963C13.8069 8.61103 8.825 14.0282 8.825 20.5876C8.825 21.1269 9.26221 21.5642 9.80156 21.5642C10.3409 21.5642 10.7781 21.1269 10.7781 20.5876C10.7781 14.6379 15.6186 9.79756 21.5682 9.79756H28.432C34.3816 9.79756 39.2221 14.6379 39.2221 20.5876C39.2221 21.1269 39.6593 21.5642 40.1986 21.5642C40.738 21.5642 41.1752 21.1269 41.1752 20.5876C41.1752 14.0281 36.1933 8.61103 29.8146 7.91963C30.4404 6.89785 30.3777 5.95381 30.3892 5.87529H42.2869C42.722 7.56484 44.2585 8.81689 46.0818 8.81689C48.2424 8.81689 50.0001 7.05918 50.0001 4.89873C50 2.73828 48.2423 0.980566 46.0817 0.980566ZM3.91826 6.86377C2.83467 6.86377 1.95312 5.98232 1.95312 4.89873C1.95312 3.81514 2.83467 2.93369 3.91826 2.93369C5.00186 2.93369 5.8834 3.81514 5.8834 4.89873C5.8834 5.98232 5.00176 6.86377 3.91826 6.86377ZM23.5292 7.84434C22.4456 7.84434 21.5641 6.96289 21.5641 5.8793V3.91826C21.5641 2.83467 22.4456 1.95312 23.5292 1.95312H26.4708C27.5544 1.95312 28.4359 2.83467 28.4359 3.91826V5.8793C28.4359 6.96289 27.5544 7.84434 26.4708 7.84434H23.5292ZM46.0817 6.86377C44.9981 6.86377 44.1167 5.98232 44.1167 4.89873C44.1167 3.81514 44.9981 2.93369 46.0817 2.93369C47.1653 2.93369 48.0469 3.81514 48.0469 4.89873C48.0469 5.98232 47.1653 6.86377 46.0817 6.86377Z" fill="#08001C"/>
<path d="M6.85986 20.5879H12.7432V26.4711H6.85986V20.5879Z" fill="#743EF9"/>
<path d="M37.2568 20.5879H43.1401V26.4711H37.2568V20.5879Z" fill="#743EF9"/>
</g>
<defs>
<clipPath id="clip0_767_12749">
<rect width="50" height="50" fill="white"/>
</clipPath>
</defs>
</svg>
