<svg width="50" height="50" viewBox="0 0 50 50" fill="none" xmlns="http://www.w3.org/2000/svg">
<g clip-path="url(#clip0_122_6424)">
<path d="M48.795 29.5L46.5 28.5833C46.1862 27.4639 45.7385 26.3864 45.1667 25.3742L46.1358 23.1033C46.2718 22.798 46.3189 22.4605 46.2717 22.1295C46.2245 21.7986 46.085 21.4877 45.8692 21.2325C45.2291 20.4705 44.5242 19.7654 43.7625 19.125C43.5078 18.9089 43.1972 18.7691 42.8666 18.7217C42.5359 18.6742 42.1986 18.721 41.8933 18.8567L39.6217 19.8267C38.6093 19.2556 37.5322 18.808 36.4133 18.4933L35.4967 16.2C35.3857 15.9363 35.2145 15.7022 34.9967 15.5167V6.66667C34.9967 2.33333 25.9808 0 17.4967 0C9.0125 0 0 2.33333 0 6.66667V36.6667C0 41 9.01583 43.3333 17.5 43.3333C17.9583 43.3333 18.4008 43.3175 18.8475 43.3058C18.9152 43.4743 19.0091 43.631 19.1258 43.77C19.7664 44.5316 20.4712 45.2367 21.2325 45.8775C21.4874 46.0933 21.7979 46.2329 22.1285 46.2804C22.4591 46.3279 22.7964 46.2812 23.1017 46.1458L25.3733 45.1758C26.3857 45.7469 27.4628 46.1945 28.5817 46.5092L29.4983 48.8025C29.6215 49.1098 29.8263 49.3775 30.0907 49.5767C30.3551 49.7759 30.669 49.8989 30.9983 49.9325C31.5175 49.9792 32.0375 50.0017 32.5433 50.0017C33.0492 50.0017 33.5433 49.9792 34.0033 49.9325C34.3328 49.8986 34.6467 49.7752 34.9111 49.5758C35.1755 49.3763 35.3803 49.1083 35.5033 48.8008L36.42 46.5092C37.5389 46.1945 38.616 45.7469 39.6283 45.1758L41.8983 46.145C42.2039 46.2803 42.5414 46.327 42.8723 46.2795C43.2031 46.232 43.5139 46.0924 43.7692 45.8767C44.5307 45.2363 45.2355 44.5315 45.8758 43.77C46.0915 43.5152 46.231 43.2048 46.2783 42.8743C46.3257 42.5439 46.2789 42.2068 46.1433 41.9017L45.1733 39.6283C45.743 38.615 46.1885 37.5367 46.5 36.4167L48.7958 35.5C49.1012 35.377 49.3674 35.1732 49.5657 34.9104C49.7641 34.6476 49.8871 34.3358 49.9217 34.0083C50.0213 33.0064 50.0213 31.997 49.9217 30.995C49.8873 30.667 49.7643 30.3545 49.5658 30.0911C49.3673 29.8277 49.1009 29.6234 48.795 29.5ZM17.5 1.66667C26.8333 1.66667 33.3333 4.30167 33.3333 6.66667C33.3333 9.03167 26.8333 11.6667 17.5 11.6667C8.16667 11.6667 1.66667 9.03167 1.66667 6.66667C1.66667 4.30167 8.16667 1.66667 17.5 1.66667ZM1.66667 9.63417C4.65917 12.0533 11.2233 13.3333 17.5 13.3333C23.7767 13.3333 30.3408 12.0533 33.3333 9.63417V15.0392C32.5559 14.9916 31.776 15.0016 31 15.0692C30.6705 15.1031 30.3566 15.2264 30.0922 15.4259C29.8279 15.6254 29.6231 15.8933 29.5 16.2008L28.5833 18.4925C27.4645 18.8072 26.3873 19.2548 25.375 19.8258L23.105 18.8567C22.7995 18.7203 22.4616 18.6731 22.1304 18.7206C21.7992 18.7681 21.4882 18.9083 21.2333 19.125C20.4725 19.7658 19.7679 20.4706 19.1275 21.2317C19.0239 21.3535 18.9377 21.4893 18.8717 21.635C18.4167 21.6483 17.9625 21.6667 17.5 21.6667C8.16667 21.6667 1.66667 19.0317 1.66667 16.6667V9.63417ZM1.66667 19.6342C4.65917 22.0533 11.2233 23.3333 17.5 23.3333C17.9867 23.3333 18.465 23.3142 18.9433 23.2983L19.8283 25.3717C19.2581 26.3849 18.8121 27.4633 18.5 28.5833L16.2042 29.5C15.8988 29.623 15.6326 29.8268 15.4343 30.0896C15.2359 30.3524 15.1129 30.6643 15.0783 30.9917C15.0583 31.1917 15.06 31.3933 15.0483 31.5942C7.01167 31.1667 1.66667 28.7575 1.66667 26.6667V19.6342ZM18.9708 41.6342C18.485 41.6508 18 41.6667 17.5 41.6667C8.16667 41.6667 1.66667 39.0317 1.66667 36.6667V29.5783C3.84333 31.4025 8.21583 32.925 15.0375 33.2583C15.05 33.5083 15.05 33.7583 15.075 34.0083C15.1085 34.3377 15.2315 34.6516 15.4307 34.916C15.6299 35.1804 15.8977 35.3853 16.205 35.5083L18.4967 36.425C18.8105 37.5444 19.2582 38.6219 19.83 39.6342L18.9708 41.6342ZM48.2658 33.8508C48.26 33.8736 48.2489 33.8947 48.2334 33.9124C48.2179 33.93 48.1985 33.9438 48.1767 33.9525L45.495 35.0233C45.372 35.0724 45.2626 35.1501 45.1756 35.25C45.0886 35.3498 45.0267 35.469 44.995 35.5975C44.6857 36.8442 44.1907 38.0372 43.5267 39.1367C43.4585 39.2498 43.4183 39.3774 43.4091 39.5091C43.4 39.6408 43.4223 39.7728 43.4742 39.8942L44.6092 42.555C44.6209 42.5768 44.6262 42.6014 44.6244 42.626C44.6227 42.6507 44.6139 42.6743 44.5992 42.6942C44.0165 43.387 43.3753 44.0282 42.6825 44.6108C42.6625 44.6224 42.6398 44.6285 42.6167 44.6285C42.5936 44.6285 42.5709 44.6224 42.5508 44.6108L39.8942 43.4767C39.7729 43.4249 39.6411 43.4027 39.5095 43.4118C39.378 43.421 39.2505 43.4612 39.1375 43.5292C38.0388 44.1941 36.8463 44.6899 35.6 45C35.4715 45.0317 35.3523 45.0936 35.2525 45.1806C35.1526 45.2676 35.0749 45.377 35.0258 45.5L33.9558 48.1792C33.9472 48.2031 33.9325 48.2244 33.913 48.2408C33.8935 48.2572 33.8701 48.2681 33.845 48.2725C32.9472 48.3551 32.0437 48.3551 31.1458 48.2725C31.1228 48.2669 31.1016 48.2556 31.084 48.2398C31.0664 48.2239 31.053 48.204 31.045 48.1817L29.9742 45.5C29.9251 45.377 29.8474 45.2676 29.7475 45.1806C29.6477 45.0936 29.5285 45.0317 29.4 45C28.1533 44.6908 26.9602 44.1959 25.8608 43.5317C25.7479 43.4637 25.6204 43.4235 25.4888 43.4143C25.3573 43.4052 25.2255 43.4274 25.1042 43.4792L22.4458 44.6142C22.4237 44.6262 22.3986 44.6315 22.3735 44.6292C22.3485 44.627 22.3246 44.6174 22.305 44.6017C21.6136 44.0189 20.9737 43.3777 20.3925 42.685C20.381 42.6651 20.375 42.6426 20.375 42.6196C20.375 42.5966 20.381 42.5741 20.3925 42.5542L21.5267 39.8958C21.5785 39.7744 21.6008 39.6425 21.5917 39.5108C21.5826 39.3791 21.5423 39.2514 21.4742 39.1383C20.8101 38.0389 20.3151 36.8458 20.0058 35.5992C19.9741 35.4706 19.9122 35.3515 19.8252 35.2516C19.7383 35.1518 19.6288 35.0741 19.5058 35.025L16.8283 33.9558C16.8057 33.9473 16.7853 33.9335 16.7691 33.9155C16.7529 33.8975 16.7412 33.8759 16.735 33.8525V33.8433C16.6454 32.9458 16.6454 32.0417 16.735 31.1442C16.7408 31.1214 16.7519 31.1003 16.7674 31.0827C16.7829 31.065 16.8023 31.0512 16.8242 31.0425L19.5058 29.9717C19.6288 29.9226 19.7383 29.8449 19.8252 29.745C19.9122 29.6452 19.9741 29.526 20.0058 29.3975C20.3151 28.1509 20.8101 26.9578 21.4742 25.8583C21.5423 25.7453 21.5826 25.6176 21.5917 25.4859C21.6008 25.3542 21.5785 25.2222 21.5267 25.1008L20.3908 22.4417C20.3791 22.4199 20.3738 22.3953 20.3756 22.3706C20.3774 22.346 20.3861 22.3224 20.4008 22.3025C20.9839 21.6101 21.6251 20.9689 22.3175 20.3858C22.3376 20.3744 22.3603 20.3685 22.3833 20.3685C22.4064 20.3685 22.4291 20.3744 22.4492 20.3858L25.1058 21.52C25.227 21.5723 25.3589 21.5948 25.4905 21.5857C25.6222 21.5765 25.7497 21.536 25.8625 21.4675C26.9614 20.8038 28.1539 20.3091 29.4 20C29.5285 19.9683 29.6477 19.9064 29.7475 19.8194C29.8474 19.7325 29.9251 19.623 29.9742 19.5L31.0442 16.8208C31.0528 16.7969 31.0675 16.7756 31.087 16.7592C31.1065 16.7428 31.1299 16.7319 31.155 16.7275C32.0528 16.6441 32.9564 16.6441 33.8542 16.7275C33.8772 16.7331 33.8984 16.7444 33.916 16.7602C33.9336 16.7761 33.947 16.796 33.955 16.8183L35.0258 19.5C35.0749 19.623 35.1526 19.7325 35.2525 19.8194C35.3523 19.9064 35.4715 19.9683 35.6 20C36.8467 20.3092 38.0398 20.8041 39.1392 21.4683C39.2519 21.5368 39.3795 21.5774 39.5111 21.5865C39.6428 21.5956 39.7747 21.5731 39.8958 21.5208L42.5542 20.3858C42.5763 20.3739 42.6014 20.3687 42.6265 20.3709C42.6515 20.3732 42.6753 20.3827 42.695 20.3983C43.388 20.9807 44.0293 21.622 44.6117 22.315C44.6232 22.3349 44.6292 22.3575 44.6292 22.3804C44.6292 22.4034 44.6232 22.4259 44.6117 22.4458L43.4775 25.1042C43.4256 25.2256 43.4033 25.3575 43.4125 25.4892C43.4216 25.6209 43.4619 25.7486 43.53 25.8617C44.1941 26.9611 44.6891 28.1542 44.9983 29.4008C45.0301 29.5294 45.092 29.6485 45.1789 29.7484C45.2659 29.8482 45.3754 29.9259 45.4983 29.975L48.1758 31.0442C48.1998 31.0534 48.221 31.0685 48.2375 31.0882C48.254 31.1079 48.2652 31.1315 48.27 31.1567C48.3581 32.0537 48.3567 32.9574 48.2658 33.8542V33.8508Z" fill="#1CB098"/>
<path d="M32.5 21.6667C30.3574 21.6667 28.2629 22.3021 26.4813 23.4925C24.6998 24.6829 23.3113 26.3748 22.4913 28.3543C21.6714 30.3339 21.4568 32.5121 21.8749 34.6136C22.2929 36.715 23.3246 38.6453 24.8397 40.1604C26.3548 41.6755 28.2851 42.7073 30.3865 43.1253C32.488 43.5433 34.6662 43.3287 36.6458 42.5088C38.6253 41.6888 40.3172 40.3003 41.5076 38.5188C42.698 36.7372 43.3334 34.6427 43.3334 32.5001C43.3301 29.6279 42.1876 26.8743 40.1567 24.8434C38.1258 22.8125 35.3722 21.6701 32.5 21.6667ZM32.5 41.6667C30.687 41.6667 28.9148 41.1291 27.4073 40.1219C25.8998 39.1146 24.7249 37.683 24.0311 36.008C23.3373 34.333 23.1558 32.4899 23.5095 30.7118C23.8632 28.9336 24.7362 27.3003 26.0182 26.0183C27.3002 24.7363 28.9335 23.8632 30.7117 23.5096C32.4899 23.1559 34.333 23.3374 36.008 24.0312C37.6829 24.725 39.1146 25.8999 40.1218 27.4074C41.1291 28.9148 41.6667 30.6871 41.6667 32.5001C41.6638 34.9304 40.6971 37.2603 38.9787 38.9787C37.2602 40.6972 34.9303 41.6639 32.5 41.6667Z" fill="#1CB098"/>
<path d="M32.5 25.8333C31.1814 25.8333 29.8925 26.2242 28.7962 26.9568C27.6999 27.6893 26.8454 28.7305 26.3408 29.9487C25.8362 31.1669 25.7042 32.5073 25.9614 33.8005C26.2186 35.0937 26.8536 36.2816 27.7859 37.214C28.7183 38.1463 29.9062 38.7813 31.1994 39.0385C32.4926 39.2957 33.833 39.1637 35.0512 38.6591C36.2694 38.1545 37.3106 37.3 38.0431 36.2037C38.7757 35.1074 39.1666 33.8185 39.1666 32.4999C39.1647 30.7324 38.4616 29.0379 37.2118 27.7881C35.962 26.5383 34.2675 25.8352 32.5 25.8333ZM32.5 37.4999C31.5111 37.4999 30.5444 37.2067 29.7221 36.6573C28.8999 36.1079 28.259 35.327 27.8806 34.4133C27.5021 33.4997 27.4031 32.4944 27.5961 31.5245C27.789 30.5546 28.2652 29.6636 28.9644 28.9644C29.6637 28.2651 30.5546 27.7889 31.5245 27.596C32.4944 27.4031 33.4998 27.5021 34.4134 27.8805C35.327 28.259 36.1079 28.8998 36.6573 29.7221C37.2067 30.5443 37.5 31.511 37.5 32.4999C37.4987 33.8256 36.9715 35.0966 36.0341 36.034C35.0967 36.9714 33.8257 37.4986 32.5 37.4999Z" fill="#1CB098"/>
<path d="M3.81332 15.9216C4.09249 16.0524 4.38749 16.1783 4.69416 16.2999C4.8986 16.3759 5.12466 16.3686 5.32383 16.2797C5.52299 16.1909 5.67938 16.0275 5.75944 15.8246C5.83949 15.6218 5.83683 15.3956 5.75202 15.1947C5.66722 14.9938 5.50702 14.8341 5.30582 14.7499C5.03138 14.6416 4.76944 14.5288 4.51999 14.4116C4.31975 14.3179 4.09049 14.3076 3.88264 14.3829C3.67478 14.4582 3.50537 14.613 3.41166 14.8133C3.31795 15.0135 3.30762 15.2428 3.38295 15.4506C3.45827 15.6585 3.61309 15.8279 3.81332 15.9216Z" fill="#1CB098"/>
<path d="M8.14415 17.35C8.42471 17.4161 8.71082 17.4784 9.00248 17.5367C9.05733 17.5478 9.11319 17.5531 9.16915 17.5525C9.37581 17.5527 9.57517 17.4761 9.72854 17.3376C9.88191 17.1991 9.97833 17.0086 9.9991 16.8029C10.0199 16.5973 9.9635 16.3913 9.84093 16.2249C9.71836 16.0586 9.53834 15.9437 9.33582 15.9025C9.06082 15.8475 8.79165 15.7884 8.52748 15.7275C8.41976 15.6992 8.30745 15.6928 8.19721 15.7087C8.08696 15.7245 7.98101 15.7623 7.88562 15.8198C7.79023 15.8773 7.70733 15.9534 7.64183 16.0434C7.57633 16.1335 7.52955 16.2358 7.50425 16.3443C7.47896 16.4528 7.47567 16.5652 7.49457 16.675C7.51348 16.7847 7.55419 16.8896 7.61431 16.9833C7.67443 17.0771 7.75274 17.1579 7.8446 17.2208C7.93647 17.2838 8.04002 17.3278 8.14915 17.35H8.14415Z" fill="#1CB098"/>
</g>
<defs>
<clipPath id="clip0_122_6424">
<rect width="50" height="50" fill="white"/>
</clipPath>
</defs>
</svg>
