<svg width="64" height="64" viewBox="0 0 64 64" fill="none" xmlns="http://www.w3.org/2000/svg">
<path d="M63.5866 15.3632L49.0323 4.71368C48.7925 4.53707 48.4864 4.47657 48.1974 4.54865L30.7133 8.98349C30.1781 9.11989 29.8548 9.66428 29.9912 10.1994C30.0483 10.4237 30.1816 10.6213 30.3683 10.7583L34.998 14.1381L33.998 19.2078C33.453 22.0377 37.9977 26.5175 44.1224 27.7074C45.1967 27.9148 46.2882 28.0186 47.3822 28.0174C49.0594 28.0279 50.7275 27.7679 52.322 27.2475C54.7718 26.4325 56.4067 25.0725 56.6918 23.6176L57.6918 18.5628L63.2464 17.158C63.7816 17.0216 64.1049 16.4772 63.9685 15.9421C63.9113 15.7177 63.778 15.5201 63.5914 15.3831L63.5866 15.3632ZM54.742 23.2328C54.627 23.8177 53.5421 24.7327 51.6971 25.3477C49.3675 26.0769 46.8923 26.2111 44.4975 25.7377C38.8728 24.6427 35.7329 20.8379 35.998 19.588L36.803 15.4433L44.9226 21.4029C45.0936 21.529 45.3001 21.5972 45.5125 21.5979C45.5971 21.5985 45.6814 21.5867 45.7625 21.563L55.542 19.0881L54.742 23.2328ZM45.7425 19.513L33.2681 10.3934L48.2323 6.60354L60.6917 15.7181L45.7425 19.513Z" fill="#1882FF"/>
<path d="M24.4487 28.2075C24.1428 28.3841 23.9527 28.7092 23.9487 29.0625V46.9015C23.9527 47.2549 24.1428 47.5798 24.4487 47.7565C24.5991 47.8495 24.772 47.8996 24.9487 47.9015C25.1103 47.903 25.2699 47.8653 25.4136 47.7915L42.4628 38.8669C42.9516 38.6098 43.1393 38.0051 42.8821 37.5164C42.788 37.3374 42.6417 37.1913 42.4628 37.0971L25.4287 28.1725C25.1184 28.0123 24.7469 28.0255 24.4487 28.2075ZM25.9487 30.7074L39.843 37.982L25.9638 45.2515L25.9487 30.7074Z" fill="#1882FF"/>
<path d="M60.9969 53.4813H55.8622C55.9511 53.2015 55.9965 52.9098 55.9971 52.6163V29.4824C55.9971 28.9302 55.5494 28.4824 54.9971 28.4824C54.4449 28.4824 53.9971 28.9302 53.9971 29.4824V52.6162C53.9889 53.1021 53.5883 53.4894 53.1024 53.4811C53.1023 53.4811 53.1023 53.4811 53.1021 53.4811H8.89451C8.40859 53.4895 8.00788 53.1024 7.99952 52.6165C7.99952 52.6163 7.99952 52.6163 7.99952 52.6162V22.3477C8.00776 21.8618 8.40835 21.4746 8.89427 21.4828H8.89451H30.9983C31.5506 21.4828 31.9983 21.0351 31.9983 20.4828C31.9983 19.9305 31.5506 19.4828 30.9983 19.4828H8.89451C7.30513 19.4773 6.01062 20.7583 5.99964 22.3476V52.6161C6.00024 52.9097 6.0457 53.2013 6.13461 53.481H1C0.447733 53.481 0 53.9287 0 54.481V54.731C0 56.9809 1.76993 59.4808 4.14475 59.4808H57.852C60.2268 59.4808 61.9968 56.9809 61.9968 54.731V54.481C61.9968 53.929 61.549 53.4813 60.9969 53.4813ZM57.852 57.481H4.14475C3.27983 57.481 2.39988 56.5611 2.10489 55.4811H59.8919C59.5969 56.5611 58.7169 57.481 57.852 57.481Z" fill="#1882FF"/>
</svg>
