<svg width="50" height="50" viewBox="0 0 50 50" fill="none" xmlns="http://www.w3.org/2000/svg">
<g clip-path="url(#clip0_122_6399)">
<path d="M50 12.705C50 10.8942 48.5321 9.42627 46.7213 9.42627C45.9334 9.4293 45.1734 9.71856 44.5828 10.2402C42.1869 9.0107 38.9811 8.46316 35.2311 8.6566C32.7689 3.41152 29.2123 0.409881 25.4098 0.409881C24.1862 0.421433 22.9832 0.72612 21.9016 1.29841C20.6391 0.108671 18.6666 0.114092 17.4106 1.31075C16.1546 2.50741 16.0538 4.47737 17.1811 5.79595C16.5791 6.70508 16.0475 7.65896 15.591 8.64922C12.848 8.4385 10.0907 8.7865 7.48607 9.67218C5.20743 10.4092 3.32929 12.046 2.28771 14.2025C0.894265 17.3623 1.78197 21.2107 4.40492 25.0353C1.99345 28.5541 1.13033 31.9943 1.9459 34.8427C1.01881 35.5942 0.575807 36.7918 0.790649 37.9657C1.00549 39.1397 1.84392 40.1028 2.97708 40.4773C4.11025 40.8517 5.35745 40.5779 6.22951 39.7632C8.69687 40.9202 11.4024 41.4787 14.1262 41.3935C14.6 41.3935 15.0943 41.3664 15.5861 41.341C18.0492 46.5869 21.6057 49.5902 25.4098 49.5902C29.2139 49.5902 32.768 46.5894 35.2295 41.3476C35.7164 41.373 36.2033 41.3976 36.6746 41.3976C38.9399 41.4404 41.1948 41.0796 43.3336 40.332C45.6124 39.5948 47.4906 37.9577 48.532 35.8009C49.9254 32.641 49.0369 28.7935 46.4148 24.9689C48.8262 21.45 49.6934 18.0107 48.8738 15.1615C49.5869 14.5442 49.9977 13.6482 50 12.705ZM46.7213 11.0656C47.6267 11.0656 48.3607 11.7996 48.3607 12.705C48.3607 13.6103 47.6267 14.3443 46.7213 14.3443C45.8159 14.3443 45.082 13.6103 45.082 12.705C45.082 11.7996 45.8159 11.0656 46.7213 11.0656ZM27.9951 38.4968C28.9443 38.1238 29.8975 37.7181 30.8467 37.2763C32.5554 36.4787 34.2159 35.5819 35.8197 34.5902C35.418 36.3211 34.8696 38.0147 34.1803 39.6525C32.0888 39.4484 30.0192 39.0617 27.9951 38.4968ZM36.8852 25C36.8898 27.4634 36.6814 29.9226 36.2623 32.35C34.3165 33.6513 32.2742 34.8021 30.1533 35.7927C28.6047 36.5162 27.0176 37.1543 25.3992 37.7041C23.7887 37.1521 22.2091 36.5137 20.6672 35.7918C18.5493 34.8031 16.5079 33.6581 14.5598 32.3664C13.7281 27.497 13.7281 22.5219 14.5598 17.6525C16.5057 16.3513 18.5479 15.2004 20.6689 14.2099C22.2134 13.4888 23.7961 12.8524 25.4098 12.3033C29.2421 13.6062 32.8901 15.3986 36.2631 17.6361C36.6825 20.0682 36.8907 22.532 36.8852 25ZM38.1287 18.9517C40.4776 20.6644 42.5834 22.6877 44.3885 24.9664C42.5931 27.2651 40.4875 29.3037 38.132 31.0238C38.3962 29.0268 38.5274 27.0145 38.5246 25C38.5277 22.9774 38.3954 20.9567 38.1287 18.9517ZM16.6254 39.6214C15.9446 37.9962 15.403 36.3161 15.0066 34.5992C16.6095 35.5843 18.2671 36.4775 19.9713 37.2746C20.9238 37.7197 21.8787 38.1164 22.8328 38.491C20.8016 39.0525 18.7241 39.4308 16.6254 39.6214ZM22.8131 11.5066C21.8672 11.8787 20.918 12.2828 19.973 12.723C18.2657 13.5209 16.6066 14.4181 15.0041 15.4099C15.4027 13.6831 15.9476 11.9934 16.6328 10.3591C18.7225 10.5605 20.7905 10.9439 22.8131 11.5066ZM12.691 31.0484C10.3422 29.3355 8.23645 27.3122 6.43115 25.0337C8.22658 22.735 10.3322 20.6964 12.6877 18.9763C12.162 22.9831 12.162 27.0415 12.6877 31.0484H12.691ZM30.8484 12.7255C29.8992 12.282 28.9475 11.8796 27.9959 11.5058C30.0242 10.9458 32.0986 10.5686 34.1943 10.3787C34.8749 12.0037 35.4165 13.6835 35.8131 15.4C34.21 14.4156 32.5524 13.5226 30.8484 12.7255ZM19.6721 2.04922C20.5775 2.04922 21.3115 2.78318 21.3115 3.68857C21.3115 4.59395 20.5775 5.32791 19.6721 5.32791C18.7667 5.32791 18.0328 4.59395 18.0328 3.68857C18.0328 2.78318 18.7667 2.04922 19.6721 2.04922ZM18.5172 6.74677C18.8855 6.89008 19.2769 6.96481 19.6721 6.96726C21.4829 6.96726 22.9508 5.49934 22.9508 3.68857C22.9462 3.3468 22.8876 3.00791 22.777 2.68447C23.5948 2.27486 24.4953 2.05758 25.4098 2.04922C28.4254 2.04922 31.3295 4.49677 33.4852 8.80578C30.7401 9.1096 28.0347 9.70222 25.4139 10.5738C22.7901 9.70045 20.0827 9.10162 17.3352 8.78693C17.687 8.08328 18.0818 7.40194 18.5172 6.74677ZM3.78771 14.8615C4.64743 13.1054 6.1942 11.7823 8.0623 11.205C10.0232 10.5197 12.0905 10.1894 14.1672 10.2296C14.4082 10.2296 14.659 10.2492 14.9049 10.2558C14.0854 12.335 13.4694 14.4888 13.0656 16.6869C10.1942 18.6138 7.62327 20.9544 5.43607 23.6328C3.38115 20.4615 2.68361 17.3582 3.78771 14.8615ZM4.09836 38.9345C3.19298 38.9345 2.45902 38.2005 2.45902 37.2951C2.45902 36.3897 3.19298 35.6558 4.09836 35.6558C5.00375 35.6558 5.73771 36.3897 5.73771 37.2951C5.73771 38.2005 5.00375 38.9345 4.09836 38.9345ZM7.17213 38.3992C7.30436 38.046 7.37371 37.6723 7.37705 37.2951C7.37976 36.3128 6.94072 35.3814 6.18133 34.7583C5.42193 34.1353 4.42266 33.8867 3.45984 34.0812C2.95492 31.8902 3.6459 29.2369 5.44836 26.4377C7.63827 29.1005 10.2065 31.4279 13.0713 33.3459C13.4746 35.5289 14.087 37.668 14.9 39.7337C12.2546 39.9098 9.60528 39.4524 7.17213 38.3992ZM25.4098 47.9509C22.3943 47.9509 19.4902 45.5033 17.3344 41.1943C20.0836 40.8885 22.7928 40.2937 25.4172 39.4197C28.0363 40.2916 30.7387 40.8896 33.4811 41.2041C31.3254 45.5058 28.423 47.9509 25.4098 47.9509ZM47.032 35.1369C46.1724 36.8934 44.6256 38.2168 42.7574 38.7943C40.5574 39.5498 38.2328 39.8756 35.9098 39.7541C36.7307 37.6726 37.3478 35.5163 37.7525 33.3156C40.6241 31.3887 43.195 29.0478 45.382 26.3689C47.4385 29.5386 48.1361 32.6402 47.032 35.1369ZM45.3713 23.5623C43.1812 20.8996 40.613 18.5719 37.7484 16.6533C37.3452 14.4706 36.7328 12.3318 35.9197 10.2664C38.5659 10.0896 41.2162 10.5471 43.65 11.6009C43.5169 11.954 43.4467 12.3276 43.4426 12.705C43.4399 13.6872 43.879 14.6187 44.6383 15.2417C45.3977 15.8648 46.397 16.1134 47.3598 15.9189C47.8689 18.1099 47.1738 20.7632 45.3713 23.5623Z" fill="#1CB098"/>
<path d="M16.3934 20.0821V23.3608C16.3956 23.9676 16.6235 24.552 17.0328 25.0001C16.6235 25.4482 16.3956 26.0326 16.3934 26.6394V29.9181C16.3934 31.2762 17.4944 32.3771 18.8524 32.3771H31.9672C33.3253 32.3771 34.4262 31.2762 34.4262 29.9181V26.6394C34.4241 26.0326 34.1962 25.4482 33.7869 25.0001C34.1962 24.552 34.4241 23.9676 34.4262 23.3608V20.0821C34.4262 18.724 33.3253 17.623 31.9672 17.623H18.8524C17.4944 17.623 16.3934 18.724 16.3934 20.0821ZM32.7869 29.9181C32.7869 30.3708 32.4199 30.7378 31.9672 30.7378H18.8524C18.3998 30.7378 18.0328 30.3708 18.0328 29.9181V26.6394C18.0328 26.1867 18.3998 25.8198 18.8524 25.8198H31.9672C32.4199 25.8198 32.7869 26.1867 32.7869 26.6394V29.9181ZM32.7869 20.0821V23.3608C32.7869 23.8134 32.4199 24.1804 31.9672 24.1804H18.8524C18.3998 24.1804 18.0328 23.8134 18.0328 23.3608V20.0821C18.0328 19.6294 18.3998 19.2624 18.8524 19.2624H31.9672C32.4199 19.2624 32.7869 19.6294 32.7869 20.0821Z" fill="#1CB098"/>
<path d="M20.4918 22.541H21.3115C21.7642 22.541 22.1311 22.174 22.1311 21.7213C22.1311 21.2686 21.7642 20.9016 21.3115 20.9016H20.4918C20.0391 20.9016 19.6721 21.2686 19.6721 21.7213C19.6721 22.174 20.0391 22.541 20.4918 22.541Z" fill="#1CB098"/>
<path d="M27.0492 22.541H30.3279C30.7806 22.541 31.1476 22.174 31.1476 21.7213C31.1476 21.2686 30.7806 20.9016 30.3279 20.9016H27.0492C26.5965 20.9016 26.2295 21.2686 26.2295 21.7213C26.2295 22.174 26.5965 22.541 27.0492 22.541Z" fill="#1CB098"/>
<path d="M21.3115 27.459H20.4918C20.0391 27.459 19.6721 27.826 19.6721 28.2787C19.6721 28.7313 20.0391 29.0983 20.4918 29.0983H21.3115C21.7642 29.0983 22.1311 28.7313 22.1311 28.2787C22.1311 27.826 21.7642 27.459 21.3115 27.459Z" fill="#1CB098"/>
<path d="M30.3279 27.459H27.0492C26.5965 27.459 26.2295 27.826 26.2295 28.2787C26.2295 28.7313 26.5965 29.0983 27.0492 29.0983H30.3279C30.7806 29.0983 31.1476 28.7313 31.1476 28.2787C31.1476 27.826 30.7806 27.459 30.3279 27.459Z" fill="#1CB098"/>
</g>
<defs>
<clipPath id="clip0_122_6399">
<rect width="50" height="50" fill="white"/>
</clipPath>
</defs>
</svg>
