<svg width="50" height="50" viewBox="0 0 50 50" fill="none" xmlns="http://www.w3.org/2000/svg">
<g clip-path="url(#clip0_348_1498)">
<path d="M32.7419 25.2088C32.5173 27.0438 31.6921 28.7928 30.3327 30.1522C28.6803 31.8055 26.3708 32.5839 23.4703 32.4667C21.4362 32.3856 20.4967 32.9178 20.3424 33.0145C19.7193 33.5604 18.9283 33.8593 18.0934 33.8593C17.1803 33.8593 16.3219 33.5038 15.6764 32.8583C14.5621 31.744 14.3824 30.0252 15.1431 28.7157L15.689 27.8504C15.8746 27.3983 16.1256 26.5057 16.067 25.0633C15.9508 22.1619 16.7291 19.8533 18.3814 18.201C19.735 16.8484 21.4654 16.0105 23.3366 15.7869C23.6012 14.5144 24.1744 13.324 25.0016 12.324H5.37453C3.21827 12.324 1.46338 14.0779 1.46338 16.2342V35.6278H42.2644V16.3709L37.3064 22.4471C36.1403 23.8719 34.5212 24.8416 32.7419 25.2088Z" fill="white"/>
<path d="M1.46348 39.8076C1.46348 41.9629 3.21837 43.7168 5.37463 43.7168H16.4898V47.0704H14.0261C13.2172 47.0704 12.5613 47.7262 12.5613 48.5352C12.5613 49.3442 13.2172 50.0001 14.0261 50.0001H29.7013C30.5103 50.0001 31.1662 49.3442 31.1662 48.5352C31.1662 47.7262 30.5103 47.0704 29.7013 47.0704H27.2376V43.7168H38.3532C40.5095 43.7168 42.2644 41.9629 42.2644 39.8076V38.5576H1.46338V39.8076H1.46348Z" fill="white"/>
<path d="M17.7834 30.0621C17.7831 30.0623 17.7828 30.0625 17.7826 30.0628C17.7824 30.0629 17.7823 30.063 17.7822 30.0632L17.7818 30.0636C17.7816 30.0637 17.7815 30.0639 17.7813 30.0641C17.7813 30.0644 17.7812 30.0644 17.7809 30.0646L17.7808 30.0647C17.7807 30.0649 17.7805 30.065 17.7803 30.0652C17.7803 30.0652 17.7803 30.0652 17.7802 30.0653C17.7801 30.0654 17.7799 30.0656 17.7798 30.0658C17.7798 30.0658 17.7798 30.0658 17.7797 30.0659C17.7795 30.066 17.7794 30.0662 17.7792 30.0664C17.7792 30.0664 17.7792 30.0664 17.7791 30.0665L17.7786 30.0669C17.5935 30.2581 17.5953 30.563 17.7841 30.7519C17.8795 30.8472 18.0044 30.8949 18.1294 30.8949C18.2532 30.8949 18.3771 30.8481 18.4721 30.7544C18.502 30.7261 19.9812 29.3586 23.6251 29.5051C25.6752 29.5877 27.2471 29.0966 28.2976 28.0462C30.4502 25.8936 30.4502 22.3911 28.2976 20.2384C27.2548 19.1957 25.8684 18.6213 24.3937 18.6213C22.9189 18.6213 21.5325 19.1956 20.4897 20.2384C19.4394 21.2888 18.9484 22.8609 19.0309 24.9109C19.1781 28.5747 17.7952 30.0499 17.7841 30.0614C17.7837 30.0617 17.7836 30.0619 17.7834 30.0621Z" fill="white"/>
<path d="M32.6152 22.197C33.5703 21.9109 34.4307 21.3445 35.0723 20.5603L36.9439 18.2666L30.2764 11.599L27.9922 13.4646C27.2061 14.1052 26.6377 14.9646 26.3506 15.9197C27.8604 16.2742 29.2451 17.0427 30.3691 18.1668C31.5195 19.3172 32.2686 20.7185 32.6152 22.197Z" fill="white"/>
<path d="M47.657 0.879616C46.5662 -0.211205 44.8416 -0.298119 43.6463 0.678444L32.5566 9.73635L38.8054 15.9851L47.8592 4.88948C48.8348 3.69505 48.7479 1.97044 47.657 0.879616Z" fill="white"/>
</g>
<defs>
<clipPath id="clip0_348_1498">
<rect width="50" height="50" fill="white"/>
</clipPath>
</defs>
</svg>
