<svg width="50" height="50" viewBox="0 0 50 50" fill="none" xmlns="http://www.w3.org/2000/svg">
<path d="M46.4844 4.6875H3.51562C2.79067 4.6883 2.09564 4.97664 1.58301 5.48926C1.07039 6.00189 0.782051 6.69692 0.78125 7.42188V36.3281C0.782051 37.0531 1.07039 37.7481 1.58301 38.2607C2.09564 38.7734 2.79067 39.0617 3.51562 39.0625H19.3594L18.8906 41.4062H15.625C15.4178 41.4062 15.2191 41.4886 15.0726 41.6351C14.9261 41.7816 14.8438 41.9803 14.8438 42.1875V44.5312C14.8438 44.7384 14.9261 44.9372 15.0726 45.0837C15.2191 45.2302 15.4178 45.3125 15.625 45.3125H34.375C34.5822 45.3125 34.7809 45.2302 34.9274 45.0837C35.0739 44.9372 35.1562 44.7384 35.1562 44.5312V42.1875C35.1562 41.9803 35.0739 41.7816 34.9274 41.6351C34.7809 41.4886 34.5822 41.4062 34.375 41.4062H31.1094L30.6406 39.0625H46.4844C47.2093 39.0617 47.9044 38.7734 48.417 38.2607C48.9296 37.7481 49.2179 37.0531 49.2188 36.3281V7.42188C49.2179 6.69692 48.9296 6.00189 48.417 5.48926C47.9044 4.97664 47.2093 4.6883 46.4844 4.6875ZM33.5938 42.9688V43.75H16.4062V42.9688H33.5938ZM20.4844 41.4062L20.9531 39.0625H29.0469L29.5156 41.4062H20.4844ZM47.6562 36.3281C47.656 36.6388 47.5324 36.9368 47.3127 37.1565C47.093 37.3762 46.7951 37.4997 46.4844 37.5H3.51562C3.2049 37.4997 2.90698 37.3762 2.68727 37.1565C2.46756 36.9368 2.34401 36.6388 2.34375 36.3281V34.375H47.6562V36.3281ZM47.6562 32.8125H2.34375V7.42188C2.34401 7.11115 2.46756 6.81323 2.68727 6.59352C2.90698 6.37381 3.2049 6.25026 3.51562 6.25H46.4844C46.7951 6.25026 47.093 6.37381 47.3127 6.59352C47.5324 6.81323 47.656 7.11115 47.6562 7.42188V32.8125Z" fill="#1CB098"/>
<path d="M25.7812 35.1562H24.2188C24.0115 35.1562 23.8128 35.2386 23.6663 35.3851C23.5198 35.5316 23.4375 35.7303 23.4375 35.9375C23.4375 36.1447 23.5198 36.3434 23.6663 36.4899C23.8128 36.6364 24.0115 36.7188 24.2188 36.7188H25.7812C25.9885 36.7188 26.1872 36.6364 26.3337 36.4899C26.4802 36.3434 26.5625 36.1447 26.5625 35.9375C26.5625 35.7303 26.4802 35.5316 26.3337 35.3851C26.1872 35.2386 25.9885 35.1562 25.7812 35.1562Z" fill="#1CB098"/>
</svg>
