<svg width="40" height="40" viewBox="0 0 40 40" fill="none" xmlns="http://www.w3.org/2000/svg">
<g clip-path="url(#clip0_445_3305)">
<path d="M37.3333 13.3333H25.3333C24.6261 13.3333 23.9478 13.6143 23.4477 14.1144C22.9476 14.6145 22.6667 15.2928 22.6667 16V22.6667H22C21.6464 22.6667 21.3072 22.5262 21.0572 22.2761C20.8071 22.0261 20.6667 21.687 20.6667 21.3333V18C20.6667 17.2928 20.3857 16.6145 19.8856 16.1144C19.3855 15.6143 18.7072 15.3333 18 15.3333H17.3333V2.66667C17.3333 1.95942 17.0524 1.28115 16.5523 0.781049C16.0522 0.280952 15.3739 0 14.6667 0L2.66667 0C1.95942 0 1.28115 0.280952 0.781049 0.781049C0.280952 1.28115 0 1.95942 0 2.66667L0 24C0 24.7072 0.280952 25.3855 0.781049 25.8856C1.28115 26.3857 1.95942 26.6667 2.66667 26.6667H14.6667C15.3739 26.6667 16.0522 26.3857 16.5523 25.8856C17.0524 25.3855 17.3333 24.7072 17.3333 24V16.6667H18C18.3536 16.6667 18.6928 16.8071 18.9428 17.0572C19.1929 17.3072 19.3333 17.6464 19.3333 18V21.3333C19.3333 22.0406 19.6143 22.7189 20.1144 23.219C20.6145 23.719 21.2928 24 22 24H22.6667V37.3333C22.6667 38.0406 22.9476 38.7189 23.4477 39.219C23.9478 39.719 24.6261 40 25.3333 40H37.3333C38.0406 40 38.7189 39.719 39.219 39.219C39.719 38.7189 40 38.0406 40 37.3333V16C40 15.2928 39.719 14.6145 39.219 14.1144C38.7189 13.6143 38.0406 13.3333 37.3333 13.3333ZM2.66667 1.33333H14.6667C15.0203 1.33333 15.3594 1.47381 15.6095 1.72386C15.8595 1.97391 16 2.31304 16 2.66667V5.33333H1.33333V2.66667C1.33333 2.31304 1.47381 1.97391 1.72386 1.72386C1.97391 1.47381 2.31304 1.33333 2.66667 1.33333ZM14.6667 25.3333H2.66667C2.31304 25.3333 1.97391 25.1929 1.72386 24.9428C1.47381 24.6928 1.33333 24.3536 1.33333 24V21.3333H16V24C16 24.3536 15.8595 24.6928 15.6095 24.9428C15.3594 25.1929 15.0203 25.3333 14.6667 25.3333ZM16 20H1.33333V6.66667H16V15.3333H13.2107C13.0733 14.9447 12.8192 14.6081 12.4831 14.3694C12.1471 14.1307 11.7455 14.0017 11.3333 14H6C5.46957 14 4.96086 14.2107 4.58579 14.5858C4.21071 14.9609 4 15.4696 4 16C4 16.5304 4.21071 17.0391 4.58579 17.4142C4.96086 17.7893 5.46957 18 6 18H11.3333C11.7455 17.9983 12.1471 17.8693 12.4831 17.6306C12.8192 17.3919 13.0733 17.0553 13.2107 16.6667H16V20ZM12 16C12 16.1768 11.9298 16.3464 11.8047 16.4714C11.6797 16.5964 11.5101 16.6667 11.3333 16.6667H6C5.82319 16.6667 5.65362 16.5964 5.5286 16.4714C5.40357 16.3464 5.33333 16.1768 5.33333 16C5.33333 15.8232 5.40357 15.6536 5.5286 15.5286C5.65362 15.4036 5.82319 15.3333 6 15.3333H11.3333C11.5101 15.3333 11.6797 15.4036 11.8047 15.5286C11.9298 15.6536 12 15.8232 12 16ZM25.3333 14.6667H37.3333C37.687 14.6667 38.0261 14.8071 38.2761 15.0572C38.5262 15.3072 38.6667 15.6464 38.6667 16V18.6667H24V16C24 15.6464 24.1405 15.3072 24.3905 15.0572C24.6406 14.8071 24.9797 14.6667 25.3333 14.6667ZM26.862 25.138C26.987 25.263 27.1566 25.3332 27.3333 25.3332C27.5101 25.3332 27.6796 25.263 27.8047 25.138L29.138 23.8047C29.2002 23.7426 29.2494 23.6687 29.2827 23.5873C29.3501 23.4242 29.3501 23.2411 29.2827 23.078C29.2494 22.9966 29.2002 22.9228 29.138 22.8607L27.8047 21.5273C27.6789 21.4059 27.5105 21.3387 27.3357 21.3402C27.1609 21.3417 26.9937 21.4118 26.8701 21.5355C26.7465 21.6591 26.6764 21.8263 26.6749 22.0011C26.6734 22.1759 26.7406 22.3443 26.862 22.47L27.0573 22.6653H24V20H38.6667V33.3333H24V24H27.0573L26.862 24.1953C26.737 24.3204 26.6668 24.4899 26.6668 24.6667C26.6668 24.8434 26.737 25.013 26.862 25.138ZM37.3333 38.6667H25.3333C24.9797 38.6667 24.6406 38.5262 24.3905 38.2761C24.1405 38.0261 24 37.687 24 37.3333V34.6667H38.6667V37.3333C38.6667 37.687 38.5262 38.0261 38.2761 38.2761C38.0261 38.5262 37.687 38.6667 37.3333 38.6667Z" fill="#1CB098"/>
<path d="M9.33398 22.6666H8.00065C7.82384 22.6666 7.65427 22.7369 7.52925 22.8619C7.40422 22.9869 7.33398 23.1565 7.33398 23.3333C7.33398 23.5101 7.40422 23.6797 7.52925 23.8047C7.65427 23.9297 7.82384 24 8.00065 24H9.33398C9.5108 24 9.68036 23.9297 9.80539 23.8047C9.93041 23.6797 10.0007 23.5101 10.0007 23.3333C10.0007 23.1565 9.93041 22.9869 9.80539 22.8619C9.68036 22.7369 9.5108 22.6666 9.33398 22.6666Z" fill="#1CB098"/>
<path d="M10.6667 3.99996H11.3333C11.5101 3.99996 11.6797 3.92972 11.8047 3.8047C11.9298 3.67967 12 3.5101 12 3.33329C12 3.15648 11.9298 2.98691 11.8047 2.86189C11.6797 2.73686 11.5101 2.66663 11.3333 2.66663H10.6667C10.4899 2.66663 10.3203 2.73686 10.1953 2.86189C10.0702 2.98691 10 3.15648 10 3.33329C10 3.5101 10.0702 3.67967 10.1953 3.8047C10.3203 3.92972 10.4899 3.99996 10.6667 3.99996Z" fill="#1CB098"/>
<path d="M6.00065 3.99996H8.00065C8.17746 3.99996 8.34703 3.92972 8.47206 3.8047C8.59708 3.67967 8.66732 3.5101 8.66732 3.33329C8.66732 3.15648 8.59708 2.98691 8.47206 2.86189C8.34703 2.73686 8.17746 2.66663 8.00065 2.66663H6.00065C5.82384 2.66663 5.65427 2.73686 5.52925 2.86189C5.40422 2.98691 5.33398 3.15648 5.33398 3.33329C5.33398 3.5101 5.40422 3.67967 5.52925 3.8047C5.65427 3.92972 5.82384 3.99996 6.00065 3.99996Z" fill="#1CB098"/>
<path d="M32 36H30.6667C30.4899 36 30.3203 36.0702 30.1953 36.1953C30.0702 36.3203 30 36.4899 30 36.6667C30 36.8435 30.0702 37.013 30.1953 37.1381C30.3203 37.2631 30.4899 37.3333 30.6667 37.3333H32C32.1768 37.3333 32.3464 37.2631 32.4714 37.1381C32.5964 37.013 32.6667 36.8435 32.6667 36.6667C32.6667 36.4899 32.5964 36.3203 32.4714 36.1953C32.3464 36.0702 32.1768 36 32 36Z" fill="#1CB098"/>
<path d="M33.3327 17.3333H33.9993C34.1762 17.3333 34.3457 17.2631 34.4708 17.1381C34.5958 17.013 34.666 16.8435 34.666 16.6667C34.666 16.4899 34.5958 16.3203 34.4708 16.1953C34.3457 16.0702 34.1762 16 33.9993 16H33.3327C33.1559 16 32.9863 16.0702 32.8613 16.1953C32.7363 16.3203 32.666 16.4899 32.666 16.6667C32.666 16.8435 32.7363 17.013 32.8613 17.1381C32.9863 17.2631 33.1559 17.3333 33.3327 17.3333Z" fill="#1CB098"/>
<path d="M28.6667 17.3333H30.6667C30.8435 17.3333 31.013 17.2631 31.1381 17.1381C31.2631 17.013 31.3333 16.8435 31.3333 16.6667C31.3333 16.4899 31.2631 16.3203 31.1381 16.1953C31.013 16.0702 30.8435 16 30.6667 16H28.6667C28.4899 16 28.3203 16.0702 28.1953 16.1953C28.0702 16.3203 28 16.4899 28 16.6667C28 16.8435 28.0702 17.013 28.1953 17.1381C28.3203 17.2631 28.4899 17.3333 28.6667 17.3333Z" fill="#1CB098"/>
</g>
<defs>
<clipPath id="clip0_445_3305">
<rect width="40" height="40" fill="white"/>
</clipPath>
</defs>
</svg>
