<svg width="64" height="64" viewBox="0 0 64 64" fill="none" xmlns="http://www.w3.org/2000/svg">
<g clip-path="url(#clip0_296_2886)">
<path fill-rule="evenodd" clip-rule="evenodd" d="M27.9961 0.776466L1.70703 11.3977C0.67141 11.8161 0.0918 12.8259 0.0918 13.7923C0.0918 14.7586 0.67141 15.7665 1.70703 16.1849L13.0977 20.7865C13.4335 25.2044 14.1441 29.6796 14.7109 34.0972C14.9317 36.0967 16.2615 37.8076 18.1445 38.5153C27.0754 41.8652 36.9182 41.8658 45.8496 38.5173C47.7397 37.8085 49.0337 36.0905 49.2871 34.1149C49.8315 29.7269 50.4471 25.3427 50.957 20.9526L55.957 18.9838V25.7339C54.7966 26.1496 53.957 27.2647 53.957 28.5601C53.957 29.341 54.263 30.0551 54.7598 30.5914C54.2622 31.143 53.957 31.8718 53.957 32.6656V36.5602C53.9572 37.1126 54.4049 37.5603 54.957 37.5602H58.9551C59.5065 37.5592 59.9529 37.1118 59.9531 36.5602V32.7184C59.9961 31.8977 59.6973 31.1325 59.1836 30.5601C59.6632 30.0275 59.957 29.3257 59.957 28.5601C59.957 27.2647 59.1174 26.1496 57.957 25.7339V18.1967C59.48 17.6578 60.9551 17.0229 62.418 16.3451C63.4528 15.8654 64.0053 14.822 63.9805 13.8314C63.9556 12.8408 63.3505 11.825 62.293 11.3978L36.0059 0.776466C33.4613 -0.251464 30.577 -0.266154 27.9961 0.776466ZM35.2559 2.63197L61.5449 13.2532C62.1207 13.4858 62.1485 14.2633 61.5761 14.5286C60.404 15.1146 59.1746 15.5664 57.957 16.0462V15.9134C57.957 14.2015 56.5478 12.7923 54.8359 12.7923H32C31.4477 12.7923 31 13.24 31 13.7923C31 14.3446 31.4477 14.7923 32 14.7923H54.8359C55.4669 14.7923 55.957 15.2824 55.957 15.9134V16.8333L35.2773 24.978C33.1765 25.8053 30.8396 25.7964 28.7461 24.9507L2.45703 14.3294C1.95197 14.1254 1.95631 13.4555 2.45703 13.2532L28.7461 2.63201C30.8502 1.78198 33.1877 1.7965 35.2559 2.63197ZM15.125 21.6049L27.9961 26.8042C30.5639 27.8415 33.4329 27.8541 36.0098 26.8393L48.8516 21.7826L47.3027 33.8609C47.1392 35.1362 46.3273 36.202 45.1484 36.6441C36.6694 39.8231 27.3263 39.8224 18.8477 36.6421C17.666 36.198 16.8378 35.1331 16.6992 33.8784C16.175 29.7871 15.6498 25.6961 15.125 21.6049ZM56.9492 27.56C56.9522 27.5607 56.9542 27.561 56.9572 27.562C56.9602 27.5614 56.9622 27.561 56.9652 27.56C57.5255 27.564 57.9574 27.9986 57.9574 28.5601C57.9574 29.1242 57.5215 29.5601 56.9574 29.5601C56.3933 29.5601 55.9574 29.1242 55.9574 28.5601C55.9574 27.9986 56.389 27.5641 56.9492 27.56ZM57.0351 31.5718C57.5828 31.617 57.986 32.0591 57.957 32.6128C57.953 33.5945 57.955 34.5765 57.955 35.5582H55.955V32.6656C55.955 32.0537 56.428 31.587 57.0351 31.5718ZM32 42.8278C31.5544 42.8278 31.1076 42.996 30.7734 43.3337C30.2757 44.009 29.6714 44.4441 28.9961 44.8025H27.2695C26.5511 44.8025 25.9238 45.2622 25.6641 45.9021C18.4574 45.8466 11.2714 45.6959 4.10547 45.447C1.87246 45.3694 0 47.1694 0 49.4061V53.2616C0 55.4982 1.87032 57.2988 4.10352 57.2245C11.2474 56.9867 18.4393 56.8448 25.6758 56.7929C25.8165 57.1233 26.0547 57.4026 26.3535 57.5937L23.7246 62.5293C23.3693 63.1956 23.8523 64.0003 24.6074 64H28.9805C29.3608 64 29.7083 63.7843 29.8769 63.4434L31.6738 59.8085C31.8882 59.8487 32.1098 59.8487 32.3242 59.8085L34.1231 63.4434C34.2917 63.7843 34.6392 64 35.0195 64H39.3926C40.1477 64.0003 40.6307 63.1956 40.2754 62.5293L37.6445 57.5937C37.9428 57.4029 38.1815 57.1245 38.3223 56.7948C45.4695 56.8499 52.6596 56.9936 59.8965 57.2284C62.13 57.3009 64 55.4983 64 53.2616V49.4061C64 47.1694 62.1296 45.3685 59.8965 45.4451C52.6885 45.6922 45.4999 45.8411 38.332 45.8982C38.0713 45.2604 37.4473 44.8025 36.7305 44.8025H35.0039C34.7947 44.8025 34.5952 44.7176 34.4473 44.5681C30.9045 40.9934 36.212 46.3474 33.2246 43.3337C32.8904 42.996 32.4456 42.8278 32 42.8278ZM33.5605 46.5173C33.654 46.6118 34.0011 46.8126 34.2656 46.8123L36.4434 46.8728C36.5029 46.8748 36.4727 49.0447 36.4727 49.0447C36.4725 49.3113 36.5772 49.567 36.7637 49.7556C37.2723 50.2679 38.1751 50.7812 38.1747 51.3346C38.1742 51.888 37.2715 52.4003 36.7636 52.9119C36.5772 53.1005 36.4725 53.3563 36.4726 53.6229L36.4433 55.8036C36.4433 55.9105 34.2655 55.8554 34.2655 55.8554C34.0014 55.8545 33.7477 55.9599 33.5605 56.1483C33.0538 56.6606 32.52 57.6848 32.0082 57.686C31.4963 57.687 30.9452 56.662 30.4373 56.1484C30.2506 55.9605 29.9977 55.8551 29.7342 55.8554L27.5534 55.8159C27.523 55.5421 27.5252 54.837 27.5252 54.367V53.6209C27.5253 53.3543 27.4206 53.0986 27.2342 52.91C25.8399 51.8284 25.6306 51.805 25.6245 51.3212C25.6185 50.8373 26.3366 50.4406 27.2344 49.7556C27.4208 49.567 27.5255 49.3113 27.5254 49.0447C27.5246 48.3189 27.5491 47.2299 27.5783 46.8414C27.5803 46.8047 29.7345 46.8123 29.7345 46.8123C29.9983 46.812 30.2512 46.706 30.4376 46.5173C31.7673 45.5784 31.6533 45.1395 32.0183 45.157C32.3832 45.1745 32.3024 45.5407 33.5605 46.5173ZM59.9648 47.4431C61.1229 47.4034 62 48.2495 62 49.4061V53.2616C62 54.4181 61.1208 55.266 59.9629 55.2284C59.3076 55.2071 58.6545 55.1896 58 55.1698V47.5037C58.6551 47.4828 59.3095 47.4655 59.9648 47.4431ZM4.03516 47.4451C4.68968 47.4678 5.34515 47.4865 6 47.5076V55.1679C5.34609 55.1881 4.69026 55.2048 4.03711 55.2265C2.87904 55.265 2 54.4181 2 53.2616V49.4061C2 48.2496 2.87706 47.4049 4.03516 47.4451ZM56 47.5662V55.1113C55.3335 55.0927 54.6658 55.0718 54 55.0547V47.6249C54.6663 47.6068 55.3334 47.5859 56 47.5662ZM8 47.5702C8.66669 47.5901 9.33297 47.6106 10 47.6288V55.0528C9.33255 55.0701 8.66666 55.0905 8 55.1094V47.5702ZM52 47.6737V55.0098C47.4702 54.9038 42.9575 54.8321 38.4629 54.7969V54.3691C38.4629 54.1578 38.5455 53.9561 38.6934 53.8066L39.916 52.5722C40.5844 51.8968 40.5844 50.7692 39.916 50.0937C39.5067 49.6847 39.1005 49.2724 38.6934 48.8613C38.5454 48.7118 38.4629 48.5101 38.4629 48.2988V47.8984C42.9671 47.8618 47.4798 47.7853 52 47.6737ZM12 47.6777C16.5046 47.7893 21.0165 47.8649 25.5371 47.9004V48.2988C25.3613 49.0639 24.624 49.5486 24.084 50.0938C23.4156 50.7693 23.4156 51.8969 24.084 52.5723L25.3047 53.8048C25.4526 53.9542 25.5371 54.1559 25.5371 54.3673V54.795C21.0062 54.8283 16.4948 54.9001 12 55.006V47.6777ZM28.4766 57.8654C29.2279 57.7798 29.5403 58.0886 30.043 58.5939L28.3594 62.0002H26.2734L28.4766 57.8654ZM35.5234 57.8654L37.7266 62.0002H35.6406L33.9551 58.5958C34.4172 57.9704 34.8114 57.9015 35.5234 57.8654Z" fill="#1882FF"/>
</g>
<defs>
<clipPath id="clip0_296_2886">
<rect width="64" height="64" fill="white"/>
</clipPath>
</defs>
</svg>
