<svg width="50" height="50" viewBox="0 0 50 50" fill="none" xmlns="http://www.w3.org/2000/svg">
<g clip-path="url(#clip0_349_1593)">
<path d="M45.8333 10.4167H35.4167V8.33333C35.4167 6.03538 33.548 4.16663 31.25 4.16663H18.75C16.4521 4.16663 14.5833 6.03528 14.5833 8.33333V10.4166H4.1667C1.86865 10.4167 0 12.2854 0 14.5833V20.8333C0 23.1314 1.86865 25 4.1667 25H20.8334V23.9583C20.8334 23.3825 21.2993 22.9166 21.8751 22.9166H28.1251C28.7009 22.9166 29.1668 23.3825 29.1668 23.9583V25H45.8335C48.1313 25 50 23.1314 50 20.8333V14.5833C50 12.2854 48.1313 10.4167 45.8333 10.4167ZM31.25 10.4167H18.75V8.33333H31.25V10.4167Z" fill="white"/>
<path d="M49.4222 26.124C49.0672 25.9481 48.643 25.9888 48.3296 26.2268C47.5891 26.7873 46.7264 27.0833 45.8332 27.0833H29.1667V30.2083C29.1667 30.7841 28.7008 31.25 28.125 31.25H21.875C21.2992 31.25 20.8333 30.7841 20.8333 30.2083V27.0833H4.1667C3.27354 27.0833 2.41094 26.7873 1.67031 26.2268C1.35596 25.9867 0.932812 25.946 0.577734 26.124C0.223828 26.3001 0 26.6612 0 27.057V41.6667C0 43.9647 1.86865 45.8334 4.1667 45.8334H45.8334C48.1313 45.8334 50.0001 43.9648 50.0001 41.6667V27.057C50 26.6612 49.7762 26.3001 49.4222 26.124Z" fill="white"/>
</g>
<defs>
<clipPath id="clip0_349_1593">
<rect width="50" height="50" fill="white"/>
</clipPath>
</defs>
</svg>
