<svg width="50" height="50" viewBox="0 0 50 50" fill="none" xmlns="http://www.w3.org/2000/svg">
<g clip-path="url(#clip0_565_4878)">
<path d="M41.1787 29.4121V46.082C41.1787 47.7061 39.8623 49.0234 38.2373 49.0234H11.7627C10.1377 49.0234 8.82129 47.7061 8.82129 46.082V29.4121H41.1787Z" fill="#743EF9"/>
<path d="M12.7429 26.4668C13.2822 26.4668 13.7194 26.0296 13.7194 25.4902C13.7194 24.9509 13.2822 24.5137 12.7429 24.5137C12.2035 24.5137 11.7663 24.9509 11.7663 25.4902C11.7663 26.0296 12.2035 26.4668 12.7429 26.4668Z" fill="#1E1E1E"/>
<path d="M16.6652 26.4667C17.2068 26.4667 17.6417 26.0261 17.6416 25.4901C17.6416 24.9534 17.2044 24.5136 16.6651 24.5137C16.1262 24.5137 15.6886 24.9531 15.6886 25.4902C15.6886 26.0219 16.1196 26.4668 16.6652 26.4667Z" fill="#1E1E1E"/>
<path d="M20.5875 24.5137C20.0459 24.5137 19.6108 24.9544 19.6108 25.4904C19.6108 26.0272 20.0481 26.4671 20.5876 26.4671C21.1266 26.4671 21.5643 26.0276 21.5643 25.4903C21.5643 24.9586 21.1332 24.5137 20.5875 24.5137Z" fill="#1E1E1E"/>
<path d="M44.3211 13.1374C44.786 6.08623 39.1812 0 32.0657 0C26.9794 0 22.6232 3.1001 20.7475 7.5623C15.3367 3.49873 7.41338 6.36211 5.88838 13.0751C2.44795 14.0488 0 17.4821 0 21.4612C0 26.2349 3.51719 30.1185 7.84033 30.1185H7.84473V46.082C7.84473 48.2424 9.60234 50 11.7627 50H38.2373C40.3977 50 42.1553 48.2424 42.1553 46.082V30.1185H42.1597C46.4829 30.1185 50 26.2348 50 21.4612C50 17.5068 47.605 14.177 44.3211 13.1374ZM40.2021 46.082C40.2021 47.1655 39.3208 48.0469 38.2373 48.0469H11.7627C10.6792 48.0469 9.79785 47.1655 9.79785 46.082V24.5098C9.79785 23.4263 10.6792 22.5449 11.7627 22.5449H38.2373C39.3208 22.5449 40.2021 23.4263 40.2021 24.5098V46.082ZM42.1597 28.1653H42.1553V24.5098C42.1553 22.3494 40.3977 20.5918 38.2373 20.5918H11.7627C9.60234 20.5918 7.84473 22.3494 7.84473 24.5098V28.1653H7.84033C4.59414 28.1653 1.95312 25.1578 1.95312 21.4612C1.95312 18.1479 4.03496 15.3642 6.90322 14.8424C7.31299 14.7678 7.63037 14.4416 7.69365 14.03C8.25352 10.3878 11.4407 7.64131 15.1072 7.64131C17.1499 7.64131 19.0605 8.45449 20.4873 9.93096C21.0093 10.4716 21.9259 10.2431 22.1298 9.51631C23.3798 5.06328 27.4656 1.95312 32.0657 1.95312C38.2304 1.95312 43.1402 7.41855 42.2977 13.7508C42.2288 14.2676 42.578 14.7472 43.091 14.8404C45.9627 15.3624 48.0469 18.1468 48.0469 21.4612C48.0469 25.1578 45.4059 28.1653 42.1597 28.1653Z" fill="#1E1E1E"/>
<path d="M19.8388 33.6585C19.4759 33.2594 18.8584 33.2301 18.4593 33.5928L13.0667 38.4951C12.6399 38.8832 12.6415 39.5538 13.0666 39.9403L18.4592 44.8436C18.6463 45.0137 18.8815 45.0977 19.1159 45.0977C20.0043 45.0977 20.4323 43.9979 19.7732 43.3987L15.1753 39.2179L19.7731 35.038C20.1723 34.6752 20.2016 34.0575 19.8388 33.6585Z" fill="white"/>
<path d="M31.5407 33.5929C31.1416 33.2301 30.5241 33.2593 30.1613 33.6587C29.7985 34.0577 29.8279 34.6754 30.227 35.0382L34.8247 39.218L30.2269 43.3988C29.8279 43.7616 29.7985 44.3793 30.1614 44.7783C30.5241 45.1773 31.1417 45.2067 31.5408 44.8438L36.9334 39.9405C37.3586 39.554 37.36 38.8834 36.9333 38.4954L31.5407 33.5929Z" fill="white"/>
<path d="M27.3237 33.4089C26.823 33.2089 26.2546 33.452 26.0542 33.9529L22.1324 43.7586C21.9321 44.2593 22.1756 44.8277 22.6764 45.028C23.1762 45.2276 23.745 44.986 23.9458 44.484L27.8677 34.6783C28.068 34.1776 27.8244 33.6092 27.3237 33.4089Z" fill="white"/>
</g>
<defs>
<clipPath id="clip0_565_4878">
<rect width="50" height="50" fill="white"/>
</clipPath>
</defs>
</svg>
