<svg width="50" height="50" viewBox="0 0 50 50" fill="none" xmlns="http://www.w3.org/2000/svg">
<g clip-path="url(#clip0_122_6384)">
<path d="M19.7274 35.0391C19.5386 35.0391 19.3483 34.9742 19.1931 34.842L13.8515 30.2936C13.6672 30.1365 13.5613 29.9071 13.5613 29.6648C13.5613 29.423 13.6677 29.1936 13.8515 29.0365L19.1931 24.4881C19.54 24.1924 20.0609 24.2343 20.3567 24.5812C20.652 24.9285 20.6105 25.4495 20.2632 25.7448L15.66 29.6648L20.2632 33.5849C20.6105 33.8806 20.652 34.4016 20.3567 34.7485C20.1932 34.9406 19.961 35.0391 19.7274 35.0391Z" fill="#1CB098"/>
<path d="M30.2725 35.0391C30.039 35.0391 29.8068 34.9406 29.6438 34.7485C29.348 34.4016 29.3899 33.8806 29.7368 33.5849L34.34 29.6648L29.7368 25.7448C29.3899 25.4495 29.348 24.9285 29.6438 24.5812C29.939 24.2343 30.4605 24.1924 30.8069 24.4881L36.1485 29.0365C36.3327 29.1936 36.4387 29.423 36.4387 29.6648C36.4387 29.9071 36.3327 30.1365 36.1485 30.2936L30.8069 34.842C30.6516 34.9742 30.4614 35.0391 30.2725 35.0391Z" fill="#1CB098"/>
<path d="M23.109 38.4508C23.0523 38.4508 22.9952 38.4448 22.9376 38.4328C22.4917 38.3388 22.2061 37.9008 22.3001 37.4549L25.6292 21.6488C25.7232 21.2029 26.1608 20.9173 26.6071 21.0113C27.053 21.1053 27.3386 21.5429 27.2447 21.9892L23.9156 37.7953C23.8336 38.1841 23.4909 38.4508 23.109 38.4508Z" fill="#1CB098"/>
<path d="M44.4576 47.0619H5.54245C2.48655 47.0619 0 44.5758 0 41.5195V8.49045C0 5.43455 2.48655 2.948 5.54245 2.948H44.4576C47.5135 2.948 50 5.43455 50 8.49045V41.5195C50 44.5758 47.5135 47.0619 44.4576 47.0619ZM5.54245 4.59894C3.39678 4.59894 1.65094 6.34478 1.65094 8.49045V41.5195C1.65094 43.6651 3.39678 45.411 5.54245 45.411H44.4576C46.6032 45.411 48.3491 43.6651 48.3491 41.5195V8.49045C48.3491 6.34478 46.6032 4.59894 44.4576 4.59894H5.54245Z" fill="#1CB098"/>
<path d="M49.1745 16.1663H0.825472C0.369435 16.1663 0 15.7969 0 15.3409C0 14.8853 0.369435 14.5154 0.825472 14.5154H49.1745C49.6306 14.5154 50 14.8853 50 15.3409C50 15.7969 49.6306 16.1663 49.1745 16.1663Z" fill="#1CB098"/>
<path d="M14.104 12.2163C12.664 12.2163 11.4917 11.044 11.4917 9.604C11.4917 8.16357 12.664 6.9917 14.104 6.9917C15.5444 6.9917 16.7163 8.16357 16.7163 9.604C16.7163 11.044 15.5444 12.2163 14.104 12.2163ZM14.104 8.64264C13.5743 8.64264 13.1426 9.0738 13.1426 9.604C13.1426 10.1342 13.5743 10.5654 14.104 10.5654C14.6342 10.5654 15.0654 10.1342 15.0654 9.604C15.0654 9.0738 14.6342 8.64264 14.104 8.64264Z" fill="#1CB098"/>
<path d="M6.07776 12.1909C4.63733 12.1909 3.46545 11.019 3.46545 9.57861C3.46545 8.13818 4.63733 6.96631 6.07776 6.96631C7.51819 6.96631 8.69006 8.13818 8.69006 9.57861C8.69006 11.019 7.51819 12.1909 6.07776 12.1909ZM6.07776 8.61725C5.54802 8.61725 5.1164 9.04887 5.1164 9.57861C5.1164 10.1088 5.54802 10.54 6.07776 10.54C6.60796 10.54 7.03912 10.1088 7.03912 9.57861C7.03912 9.04887 6.60796 8.61725 6.07776 8.61725Z" fill="#1CB098"/>
<path d="M22.1302 12.2412C20.6902 12.2412 19.5183 11.0694 19.5183 9.62893C19.5183 8.18896 20.6902 7.01709 22.1302 7.01709C23.5706 7.01709 24.7425 8.18896 24.7425 9.62893C24.7425 11.0694 23.5706 12.2412 22.1302 12.2412ZM22.1302 8.66757C21.6004 8.66757 21.1693 9.09873 21.1693 9.62893C21.1693 10.1591 21.6004 10.5903 22.1302 10.5903C22.6604 10.5903 23.0915 10.1591 23.0915 9.62893C23.0915 9.09873 22.6604 8.66757 22.1302 8.66757Z" fill="#1CB098"/>
</g>
<defs>
<clipPath id="clip0_122_6384">
<rect width="50" height="50" fill="white"/>
</clipPath>
</defs>
</svg>
