<svg width="50" height="50" viewBox="0 0 50 50" fill="none" xmlns="http://www.w3.org/2000/svg">
<g clip-path="url(#clip0_122_6366)">
<path d="M49.4214 20.8226L44.5536 20.353C44.0513 18.2693 43.2101 16.2822 42.0638 14.471L45.1537 10.7409C45.3551 10.4971 45.3387 10.1403 45.1159 9.91599L40.1357 4.88525C39.9115 4.65841 39.5511 4.64058 39.3057 4.84427L35.5704 7.9415C33.7517 6.8081 31.7643 5.97111 29.6828 5.46199L29.2134 0.637811C29.1809 0.326745 28.914 0.0933435 28.6014 0.102565H21.46C21.1475 0.0932411 20.8806 0.32654 20.8482 0.637503L20.3791 5.47224C18.2931 5.96732 16.3028 6.80205 14.4877 7.94314L10.756 4.84703C10.5123 4.64437 10.1543 4.66025 9.92951 4.88381L4.88852 9.91394C4.66393 10.1382 4.64703 10.4967 4.84959 10.7412L7.94488 14.4743C6.81178 16.2906 5.97316 18.2746 5.45994 20.3529L0.578586 20.8226C0.258811 20.8511 0.0105533 21.1136 0 21.4345V28.5657C0.0105533 28.8866 0.258811 29.1491 0.578586 29.1776L5.44641 29.6472C5.94877 31.7309 6.78986 33.718 7.93617 35.5292L4.84631 39.2593C4.64406 39.5043 4.66188 39.863 4.88729 40.0869L9.929 45.1176C10.1535 45.3418 10.5118 45.3583 10.7559 45.1557L14.4913 42.0587C16.3099 43.1924 18.2974 44.0296 20.3791 44.539L20.8486 49.3632C20.8813 49.6739 21.1478 49.9068 21.46 49.8976H28.6014C28.9139 49.907 29.1808 49.6737 29.2133 49.3627L29.6828 44.528C31.7687 44.0329 33.7591 43.1982 35.5742 42.0571L39.3052 45.1532C39.549 45.3558 39.907 45.34 40.1318 45.1164L45.1727 40.0863C45.3974 39.862 45.4143 39.5035 45.2118 39.259L42.1164 35.5259C43.2495 33.7095 44.0882 31.7253 44.6014 29.6468L49.4218 29.1775C49.7414 29.1488 49.9894 28.8864 50 28.5657V21.4345C49.9894 21.1136 49.7412 20.8511 49.4214 20.8226ZM48.7705 28.0081L44.0667 28.4661C43.7994 28.4913 43.5777 28.6835 43.515 28.9446C43.0116 31.1858 42.1082 33.3178 40.8482 35.2384C40.7006 35.4633 40.7164 35.7581 40.8872 35.9659L43.9091 39.6122L39.6602 43.8526L36.0127 40.8285C35.8042 40.6555 35.507 40.6395 35.281 40.789C33.3663 42.0576 31.2306 42.9555 28.9847 43.4364C28.7258 43.4834 28.5291 43.6958 28.5019 43.9576L28.043 48.6681H22.0184L21.5599 43.9572C21.5334 43.6927 21.337 43.4767 21.0761 43.4255C18.8325 42.9319 16.6971 42.0351 14.7739 40.7788C14.5481 40.6347 14.2549 40.6536 14.0493 40.8253L10.4017 43.8507L6.15379 39.6119L9.17715 35.966C9.35031 35.7571 9.36598 35.4593 9.21578 35.2333C7.94498 33.3223 7.04365 31.1901 6.55871 28.947C6.4916 28.6832 6.26527 28.4904 5.99406 28.466L1.22951 28.0075V21.9931L5.99385 21.5345C6.26137 21.5096 6.4834 21.3173 6.54631 21.056C7.04969 18.8149 7.95307 16.6828 9.21311 14.7622C9.36065 14.5373 9.34488 14.2425 9.17408 14.0347L6.15236 10.3876L10.4012 6.14765L14.0488 9.17172C14.2573 9.34468 14.5545 9.36066 14.7804 9.21117C16.6952 7.94283 18.8309 7.04498 21.0768 6.56425C21.3358 6.51722 21.5325 6.30482 21.5596 6.04304L22.0184 1.33207H28.043L28.5015 6.04304C28.5281 6.30748 28.7246 6.52347 28.9853 6.5747C31.229 7.06824 33.3643 7.96506 35.2876 9.22142C35.5134 9.36547 35.8066 9.34662 36.0122 9.1749L39.6569 6.15175L43.8484 10.3859L40.8228 14.0344C40.6497 14.2433 40.634 14.5411 40.7842 14.7671C42.055 16.6781 42.9563 18.8104 43.4413 21.0534C43.5084 21.3172 43.7347 21.51 44.0059 21.5344L48.7703 21.9929L48.7705 28.0081Z" fill="#1CB098"/>
<path d="M25.0051 10.5635C17.0338 10.5635 10.5482 17.0397 10.5482 25C10.5482 32.9602 17.0338 39.4364 25.0051 39.4364C32.9764 39.4364 39.4621 32.9602 39.4621 25C39.4621 17.0397 32.9767 10.5635 25.0051 10.5635ZM25.0051 38.2069C17.7115 38.2069 11.7777 32.2823 11.7777 25C11.7777 17.7176 17.7115 11.793 25.0051 11.793C32.2988 11.793 38.2326 17.7176 38.2326 25C38.2326 32.2823 32.2988 38.2069 25.0051 38.2069Z" fill="#1CB098"/>
<path d="M22.7842 20.3912C22.5794 20.1204 22.194 20.0669 21.9231 20.2717L16.3632 24.4759C16.0924 24.6807 16.0389 25.0662 16.2438 25.337C16.2779 25.3822 16.3181 25.4224 16.3632 25.4565L21.9231 29.6607C22.1924 29.8674 22.5784 29.8165 22.785 29.5472C22.9917 29.2778 22.9409 28.8919 22.6715 28.6852C22.6693 28.6835 22.667 28.6817 22.6648 28.6801L17.7533 24.9661L22.6648 21.2523C22.9354 21.0475 22.9889 20.662 22.7842 20.3912Z" fill="#1CB098"/>
<path d="M33.6476 24.4758L28.0877 20.2716C27.8195 20.0635 27.4333 20.1123 27.2252 20.3806C27.0171 20.649 27.0659 21.035 27.3342 21.2431C27.3382 21.2462 27.3422 21.2493 27.3463 21.2522L32.2577 24.9661L27.3463 28.68C27.0731 28.8814 27.0148 29.2663 27.2162 29.5396C27.4176 29.813 27.8025 29.8712 28.0758 29.6698C28.0798 29.6668 28.0838 29.6637 28.0878 29.6608L33.6477 25.4565C33.9185 25.2517 33.9719 24.8662 33.7671 24.5954C33.7329 24.5502 33.6927 24.5099 33.6476 24.4758Z" fill="#1CB098"/>
<path d="M26.041 18.1224C25.7054 18.072 25.3923 18.3027 25.3411 18.6382L23.4432 31.1783C23.3924 31.514 23.6234 31.8273 23.959 31.8781C23.9897 31.8828 24.0208 31.8852 24.0518 31.8852C24.3554 31.8848 24.6133 31.6629 24.6589 31.3627L26.5568 18.8218C26.6073 18.4862 26.3764 18.1732 26.041 18.1224Z" fill="#1CB098"/>
</g>
<defs>
<clipPath id="clip0_122_6366">
<rect width="50" height="50" fill="white"/>
</clipPath>
</defs>
</svg>
