<svg width="40" height="40" viewBox="0 0 40 40" fill="none" xmlns="http://www.w3.org/2000/svg">
<path fill-rule="evenodd" clip-rule="evenodd" d="M9.59813 4.07625C9.59813 3.33875 9.89479 2.66708 10.3731 2.17958C10.8523 1.69042 11.514 1.38708 12.2419 1.38708H27.7598C28.4877 1.38708 29.149 1.69083 29.6285 2.17958C30.1065 2.66708 30.4031 3.33875 30.4031 4.07625V19.6975H31.3565C31.4856 19.6975 31.6048 19.7442 31.6973 19.8213C31.7106 19.8313 31.7231 19.8421 31.7352 19.8542C31.8319 19.9508 31.8923 20.085 31.8923 20.2329V22.1921C31.9994 22.2258 32.1069 22.2633 32.2144 22.3042C32.3269 22.3467 32.4356 22.3913 32.5402 22.4375L33.909 21.0688C34.0135 20.9642 34.1506 20.9121 34.2877 20.9121C34.4085 20.9121 34.5302 20.9533 34.629 21.0358C34.6419 21.0458 34.6544 21.0567 34.6665 21.0688L36.5523 22.9546L36.5515 22.9554L36.5523 22.9563C36.6569 23.0608 36.709 23.1975 36.709 23.3333C36.709 23.4704 36.6569 23.6075 36.5523 23.7121L35.3069 24.9575C35.3727 25.0779 35.4356 25.2029 35.4944 25.3321C35.5548 25.465 35.6094 25.5975 35.6577 25.7288H37.3877C37.5352 25.7288 37.6694 25.7888 37.7665 25.8858C37.8635 25.9829 37.9235 26.1167 37.9235 26.2646V28.9312C37.9235 29.0787 37.8635 29.2129 37.7665 29.31C37.6698 29.4071 37.5356 29.4671 37.3877 29.4671H35.6577C35.6094 29.5983 35.5548 29.7308 35.4944 29.8642C35.4356 29.9933 35.3731 30.1183 35.3069 30.2387L36.5523 31.4842C36.6569 31.5887 36.709 31.7258 36.709 31.8629C36.709 32 36.6569 32.1371 36.5523 32.2417L34.6665 34.1275L34.6656 34.125L34.6648 34.1258C34.5602 34.2304 34.4235 34.2825 34.2877 34.2825C34.1506 34.2825 34.0135 34.2304 33.909 34.1258L32.5398 32.7571C32.4352 32.8033 32.3265 32.8479 32.214 32.8904C32.1065 32.9308 31.999 32.9683 31.8919 33.0021V34.9613C31.8919 35.1092 31.8319 35.2429 31.7348 35.34C31.6377 35.4371 31.504 35.4971 31.356 35.4971H30.4027V35.9238C30.4027 36.6613 30.106 37.3325 29.6281 37.8204C29.1485 38.3096 28.4873 38.6129 27.7594 38.6129H12.2419C11.514 38.6129 10.8527 38.3092 10.3731 37.8204C9.89521 37.3329 9.59813 36.6613 9.59813 35.9238V20.3025H8.64479C8.49688 20.3025 8.36313 20.2425 8.26604 20.1454C8.16896 20.0483 8.10896 19.9146 8.10896 19.7667V17.8075C8.00187 17.7738 7.89479 17.7363 7.78688 17.6958C7.67438 17.6533 7.56563 17.6088 7.46104 17.5625L6.09229 18.9313C5.98771 19.0358 5.85063 19.0879 5.71354 19.0879C5.57771 19.0879 5.44104 19.0354 5.33646 18.9313L5.33563 18.9304L5.33479 18.9313L3.44938 17.0458C3.34479 16.9413 3.29271 16.8042 3.29271 16.6671C3.29271 16.53 3.34479 16.3929 3.44938 16.2883L4.69479 15.0429C4.62896 14.9225 4.56646 14.7975 4.50729 14.6683C4.44688 14.535 4.39188 14.4025 4.34396 14.2717H2.61396C2.46604 14.2717 2.33229 14.2117 2.23521 14.1146C2.13854 14.0175 2.07812 13.8838 2.07812 13.7358V11.0692C2.07812 10.9217 2.13812 10.7875 2.23521 10.6904C2.33229 10.5933 2.46604 10.5333 2.61396 10.5333H4.34438C4.39271 10.4021 4.44729 10.2696 4.50771 10.1367C4.56646 10.0075 4.62896 9.8825 4.69521 9.76208L3.44938 8.51667C3.34479 8.41209 3.29271 8.275 3.29271 8.13792C3.29271 8.00167 3.34479 7.86542 3.44938 7.76083L3.45021 7.76L3.44938 7.75917L5.33521 5.87375C5.34729 5.86167 5.35979 5.85083 5.37271 5.84083C5.47187 5.75833 5.59313 5.71667 5.71396 5.71667C5.85104 5.71667 5.98813 5.76917 6.09271 5.87375L7.46146 7.2425C7.56604 7.19625 7.67438 7.15167 7.78688 7.10917C7.89479 7.06833 8.00229 7.03125 8.10938 6.99708V5.03792C8.10938 4.89 8.16937 4.75625 8.26646 4.65917C8.27854 4.64708 8.29104 4.63625 8.30438 4.62625C8.39688 4.54917 8.51604 4.5025 8.64521 4.5025H9.59854L9.59813 4.07625ZM13.3519 27.8875H18.5385C18.7481 27.8875 18.9185 27.7175 18.9185 27.5075C18.9185 27.2975 18.7485 27.1275 18.5385 27.1275H13.3519C13.1423 27.1275 12.9719 27.2975 12.9719 27.5075C12.9719 27.7175 13.1423 27.8875 13.3519 27.8875ZM13.3519 24.4892H21.5777C21.7873 24.4892 21.9577 24.3192 21.9577 24.1092C21.9577 23.8996 21.7877 23.7292 21.5777 23.7292H13.3519C13.1423 23.7292 12.9719 23.8992 12.9719 24.1092C12.9719 24.3192 13.1423 24.4892 13.3519 24.4892ZM13.3519 21.0904H24.6165C24.826 21.0904 24.9965 20.9204 24.9965 20.7104C24.9965 20.5008 24.8265 20.3304 24.6165 20.3304H13.3519C13.1423 20.3304 12.9719 20.5004 12.9719 20.7104C12.9719 20.9204 13.1423 21.0904 13.3519 21.0904ZM16.1844 10.6096L13.1248 12.9079C12.9577 13.0333 12.9235 13.2704 13.049 13.4375C13.0727 13.4692 13.1002 13.4958 13.1306 13.5179L16.184 15.8117C16.351 15.9371 16.5885 15.9029 16.7135 15.7358C16.839 15.5688 16.8052 15.3317 16.6377 15.2063L13.981 13.2104L16.6377 11.2146C16.8048 11.0892 16.839 10.8521 16.7135 10.685C16.589 10.5183 16.3515 10.4842 16.1844 10.6096ZM23.3306 11.215L25.9873 13.2108L23.3306 15.2067C23.1635 15.3321 23.1294 15.5692 23.2552 15.7363C23.3806 15.9033 23.6177 15.9371 23.7848 15.8121L26.8381 13.5183C26.8685 13.4963 26.8965 13.4696 26.9202 13.4379C27.0456 13.2708 27.0115 13.0333 26.8444 12.9083L23.7848 10.61C23.6177 10.4846 23.3802 10.5188 23.2552 10.6858C23.1298 10.8525 23.1635 11.0896 23.3306 11.215ZM21.519 9.79625L17.794 16.2479C17.6898 16.4292 17.7523 16.6604 17.9335 16.7642C18.1148 16.8683 18.346 16.8058 18.4498 16.6246L22.1748 10.1729C22.279 9.99167 22.2165 9.76083 22.0352 9.65667C21.8544 9.55292 21.6231 9.61542 21.519 9.79625ZM30.4031 29.9675C30.914 29.8862 31.371 29.6442 31.7206 29.2942C32.1548 28.8596 32.4235 28.2596 32.4235 27.5967C32.4235 26.9338 32.1548 26.3338 31.7206 25.8992C31.371 25.5496 30.914 25.3075 30.4031 25.2263V29.9675ZM30.4031 24.4596C31.124 24.5458 31.7702 24.875 32.2577 25.3625C32.8298 25.9346 33.1835 26.7246 33.1835 27.5971C33.1835 28.4696 32.8298 29.2596 32.2577 29.8317C31.7702 30.3192 31.124 30.6483 30.4031 30.7346V34.7371H31.1323V32.8358C31.1323 32.7162 31.1715 32.6046 31.2406 32.5129C31.3085 32.4229 31.4056 32.3546 31.5215 32.3212C31.6702 32.2792 31.8123 32.2317 31.9469 32.1808C32.0819 32.13 32.219 32.0712 32.3577 32.005C32.4602 31.9562 32.5715 31.9421 32.6781 31.9604C32.7848 31.9788 32.8844 32.0292 32.9652 32.1096L32.966 32.1104L32.9669 32.1096L34.2877 33.4304L35.8565 31.8617L34.649 30.6546C34.5635 30.5688 34.5119 30.4592 34.4973 30.3429C34.4827 30.2275 34.5052 30.1083 34.5673 30.0038C34.6565 29.8529 34.736 29.7008 34.8052 29.5487C34.8723 29.4013 34.9344 29.2429 34.9898 29.0746C35.0256 28.9654 35.0952 28.8737 35.1856 28.8083C35.2756 28.7433 35.3835 28.7067 35.4981 28.7067H37.1627V26.4883H35.4977C35.3831 26.4883 35.2752 26.4517 35.1852 26.3867C35.0948 26.3213 35.0256 26.2296 34.9894 26.1204C34.9335 25.9525 34.8719 25.7942 34.8048 25.6467C34.7356 25.4946 34.656 25.3425 34.5665 25.1917C34.5044 25.0871 34.4819 24.9679 34.4965 24.8525C34.511 24.7379 34.5623 24.6283 34.649 24.5417L34.6481 24.5408L35.8556 23.3333L34.2869 21.7646L32.9665 23.085C32.8865 23.1654 32.7856 23.2158 32.6781 23.2342C32.5715 23.2525 32.4602 23.2383 32.3577 23.1896C32.219 23.1233 32.0819 23.0646 31.9469 23.0138C31.8119 22.9629 31.6698 22.9158 31.521 22.8738C31.5102 22.8708 31.4998 22.8671 31.4894 22.8633C31.3873 22.8275 31.3019 22.7638 31.2402 22.6817C31.171 22.5904 31.1319 22.4788 31.1319 22.3592V20.4579H30.4027V24.4596H30.4031ZM9.59813 15.5404C8.87729 15.4542 8.23104 15.125 7.74354 14.6375C7.17146 14.0658 6.81771 13.2754 6.81771 12.4029C6.81771 11.5304 7.17146 10.7404 7.74354 10.1683C8.23104 9.68083 8.87729 9.35167 9.59813 9.26542V5.26292H8.86896V7.16417C8.86896 7.28375 8.82938 7.39542 8.76063 7.48667C8.69896 7.56833 8.61313 7.63208 8.51146 7.66833C8.50104 7.67208 8.49063 7.67584 8.47979 7.67875C8.33104 7.72125 8.18896 7.76792 8.05396 7.81875C7.91896 7.86958 7.78187 7.92833 7.64313 7.99458C7.54062 8.04333 7.42938 8.0575 7.32271 8.03917C7.21479 8.02083 7.11438 7.97042 7.03438 7.89L5.71354 6.56958L4.14479 8.13833L5.35229 9.34583L5.35146 9.34667C5.43771 9.43333 5.48938 9.5425 5.50396 9.6575C5.51854 9.77292 5.49604 9.89209 5.43438 9.99667C5.34521 10.1475 5.26562 10.2996 5.19604 10.4517C5.12896 10.5992 5.06729 10.7575 5.01146 10.9254C4.97521 11.0346 4.90604 11.1263 4.81562 11.1917C4.72563 11.2567 4.61729 11.2933 4.50312 11.2933H2.83812V13.5117H4.50312C4.61771 13.5117 4.72563 13.5483 4.81562 13.6133C4.90604 13.6788 4.97563 13.7704 5.01146 13.8796C5.06729 14.0479 5.12896 14.2058 5.19604 14.3538C5.26521 14.5058 5.34521 14.6579 5.43396 14.8088C5.49604 14.9133 5.51854 15.0325 5.50396 15.1479C5.48938 15.2642 5.43771 15.3738 5.35229 15.4596L4.14479 16.6667L5.71354 18.2354L7.03438 16.915L7.03521 16.9158L7.03604 16.915C7.11646 16.8346 7.21646 16.7842 7.32312 16.7658C7.42979 16.7475 7.54104 16.7617 7.64354 16.8104C7.78229 16.8767 7.91938 16.9354 8.05438 16.9863C8.18896 17.0371 8.33104 17.0838 8.47979 17.1263C8.59563 17.1596 8.69271 17.2279 8.76063 17.3183C8.82979 17.4096 8.86896 17.5217 8.86896 17.6408V19.5421H9.59813V15.5404ZM9.59813 10.0321C9.08729 10.1133 8.63021 10.3554 8.28063 10.705C7.84604 11.1396 7.57771 11.7396 7.57771 12.4025C7.57771 13.0654 7.84646 13.6654 8.28063 14.1C8.63021 14.4496 9.08729 14.6921 9.59813 14.7733V10.0321ZM17.9585 32.8733C17.5565 32.8733 17.1915 33.0375 16.9269 33.3021C16.6623 33.5667 16.4981 33.9317 16.4981 34.3338C16.4981 34.7358 16.6623 35.1008 16.9269 35.3654C17.1915 35.63 17.5565 35.7942 17.9585 35.7942H22.0431C22.4452 35.7942 22.8102 35.63 23.0748 35.3654C23.3394 35.1008 23.5035 34.7358 23.5035 34.3338C23.5035 33.9317 23.3394 33.5667 23.0748 33.3021C22.8102 33.0375 22.4452 32.8733 22.0431 32.8733H17.9585ZM22.0427 33.6329H17.9581C17.7656 33.6329 17.5906 33.7117 17.4635 33.8392C17.3365 33.9662 17.2573 34.1413 17.2573 34.3338C17.2573 34.5258 17.3365 34.7012 17.4635 34.8283C17.5906 34.9554 17.7656 35.0346 17.9581 35.0346H22.0427C22.2352 35.0346 22.4102 34.9554 22.5373 34.8283C22.6644 34.7012 22.7435 34.5262 22.7435 34.3338C22.7435 34.1417 22.6644 33.9662 22.5373 33.8392C22.4102 33.7121 22.2352 33.6329 22.0427 33.6329ZM25.5177 2.14708L25.3798 3.05042C25.3115 3.49625 25.1144 3.88167 24.8365 4.15833C24.5444 4.44875 24.1665 4.61958 23.7527 4.61958H16.2165C15.7969 4.61958 15.4144 4.44375 15.1206 4.14583C14.8427 3.86375 14.6473 3.47 14.5852 3.01625L14.4665 2.14708H12.2415C11.7244 2.14708 11.254 2.36292 10.9127 2.71125C10.5702 3.06083 10.3573 3.54375 10.3573 4.07667V4.88334V9.62292V15.1833V19.9229V35.9238C10.3573 36.4567 10.5702 36.9396 10.9127 37.2892C11.254 37.6371 11.7244 37.8533 12.2415 37.8533H27.7594C28.2765 37.8533 28.7469 37.6371 29.0881 37.2892C29.4306 36.9396 29.6431 36.4567 29.6431 35.9238V35.1171V30.3775V24.8167V20.0775V4.07625C29.6431 3.54375 29.4306 3.06042 29.0881 2.71083C28.7469 2.36292 28.2765 2.14667 27.7594 2.14667L25.5177 2.14708ZM15.2315 2.14708L15.336 2.91542C15.3752 3.20167 15.4935 3.445 15.6606 3.61458C15.8123 3.76875 16.0069 3.85958 16.2165 3.85958H23.7523C23.959 3.85958 24.151 3.77125 24.3019 3.62125C24.4669 3.45708 24.5856 3.21958 24.6285 2.9375L24.7494 2.14667L15.2315 2.14708Z" fill="#1CB098"/>
</svg>
