<svg width="40" height="40" viewBox="0 0 40 40" fill="none" xmlns="http://www.w3.org/2000/svg">
<path d="M16.2223 4.5577H19.212C19.5368 4.5577 19.8002 4.29431 19.8002 3.96946C19.8002 3.64461 19.5368 3.38123 19.212 3.38123H16.2223C15.8974 3.38123 15.634 3.64461 15.634 3.96946C15.634 4.29431 15.8974 4.5577 16.2223 4.5577Z" fill="#1CB098"/>
<path d="M13.5558 36.2257H18.8887C19.2135 36.2257 19.4769 35.9623 19.4769 35.6374C19.4769 35.3126 19.2135 35.0492 18.8887 35.0492H13.5558C13.2309 35.0492 12.9675 35.3126 12.9675 35.6374C12.9675 35.9623 13.2309 36.2257 13.5558 36.2257Z" fill="#1CB098"/>
<path d="M5.97325 30.3732C6.2981 30.3732 6.56148 30.1098 6.56148 29.7849V6.76475H25.8828V9.79066C25.8828 10.1155 26.1462 10.3789 26.471 10.3789C26.7959 10.3789 27.0592 10.1155 27.0592 9.79066C27.0595 9.08294 27.0583 11.9617 27.0619 3.51768C27.0619 2.22985 26.0087 1.17651 24.7164 1.17651H24.7148H7.7279H7.7266C6.497 1.17651 5.38501 2.1879 5.38501 3.5194V29.7849C5.38501 30.1098 5.6484 30.3732 5.97325 30.3732ZM24.7148 2.35298C25.3363 2.35298 25.8828 2.86178 25.8828 3.5194V5.58828H6.56187V3.51768C6.56187 2.87613 7.08733 2.35298 7.7279 2.35298H24.7148Z" fill="#1CB098"/>
<path d="M19.8521 15.9979C20.0809 16.225 20.4537 16.2263 20.6839 15.9939L23.1422 13.5125C23.3694 13.2833 23.3694 12.914 23.1422 12.6848L20.6839 10.2034C20.4553 9.9725 20.083 9.97136 19.8521 10.1994C19.6212 10.428 19.6194 10.8006 19.8481 11.0312L21.8963 13.0987L19.8481 15.1661C19.6194 15.3967 19.6212 15.7693 19.8521 15.9979Z" fill="#1CB098"/>
<path d="M12.5919 10.1993C12.3612 9.97012 11.9884 9.97184 11.7601 10.2034L9.30199 12.6847C9.07479 12.9139 9.07479 13.2833 9.30199 13.5125L11.7601 15.9938C11.9885 16.2245 12.3608 16.2266 12.5919 15.9978C12.8228 15.7692 12.8245 15.3967 12.5959 15.166L10.548 13.0986L12.5959 11.0311C12.8245 10.8005 12.8228 10.428 12.5919 10.1993Z" fill="#1CB098"/>
<path d="M17.1705 8.53721L13.7178 17.2257C13.5977 17.5276 13.7454 17.8697 14.0472 17.9895C14.3475 18.1093 14.6905 17.9634 14.811 17.66L18.2637 8.97149C18.3837 8.66962 18.2361 8.32753 17.9342 8.20776C17.6312 8.08627 17.2903 8.23534 17.1705 8.53721Z" fill="#1CB098"/>
<path d="M26.4736 19.4353C24.7501 19.4353 23.3501 20.8353 23.3501 22.5588C23.3501 24.2986 24.7686 25.6824 26.4736 25.6824C28.1712 25.6824 29.5913 24.3015 29.5913 22.5588C29.5913 20.8353 28.1913 19.4353 26.4736 19.4353ZM27.0619 24.4118V22.1706C27.0619 21.8471 26.7972 21.5824 26.4736 21.5824C26.1442 21.5824 25.8854 21.8471 25.8854 22.1706V24.4177C25.0971 24.1706 24.5266 23.4294 24.5266 22.5588C24.5266 21.4883 25.3971 20.6118 26.4736 20.6118C27.5442 20.6118 28.4148 21.4883 28.4148 22.5588C28.4148 23.4294 27.8442 24.1647 27.0619 24.4118Z" fill="#1CB098"/>
<path d="M34.0914 20.7001L32.6443 20.5353C32.5326 20.1942 32.3914 19.8589 32.2208 19.5354L33.0679 18.3354C33.2385 18.106 33.2091 17.7824 33.009 17.5824L31.3208 15.9001C31.109 15.6883 30.7738 15.6648 30.5384 15.853L29.4032 16.7648C29.0796 16.6001 28.7443 16.4648 28.3973 16.3589L28.1561 14.906C28.109 14.6236 27.862 14.4177 27.5738 14.4177H25.1914C24.8914 14.4177 24.6385 14.6413 24.6032 14.9413L24.4443 16.3942C24.0973 16.506 23.7679 16.6471 23.4502 16.8118L22.2443 15.9589C22.009 15.7942 21.6914 15.8177 21.4914 16.0236L19.809 17.7059C19.5973 17.9177 19.5796 18.253 19.7679 18.4883L20.6738 19.6295C20.509 19.953 20.3738 20.2883 20.2679 20.6354L18.8208 20.8765C18.5385 20.9295 18.3267 21.1707 18.3267 21.4589V23.8413C18.3267 24.1412 18.5561 24.3883 18.8502 24.4236L20.2973 24.5883C20.409 24.9354 20.5561 25.2707 20.7208 25.5883L19.8737 26.7824C19.709 27.0177 19.7326 27.3353 19.9385 27.5413L21.6208 29.2236C21.8326 29.4354 22.1679 29.453 22.4032 29.2648L23.5444 28.3589C23.8679 28.5177 24.1973 28.653 24.5443 28.7589L24.7855 30.2118C24.8326 30.5001 25.0796 30.706 25.3679 30.706H25.8855V32.0059H5.97373C5.65021 32.0059 5.3855 32.2707 5.3855 32.5942C5.3855 32.6853 5.3855 36.6303 5.3855 36.4824C5.3855 37.7706 6.43846 38.8236 7.7267 38.8236H24.7149C26.009 38.8236 27.062 37.7706 27.062 36.4824C27.062 36.1948 27.062 30.4214 27.062 30.706H27.7502C28.0502 30.706 28.3032 30.4824 28.3384 30.1824L28.5032 28.7295C28.8443 28.6177 29.1796 28.4765 29.4973 28.3118L30.6973 29.1648C30.9326 29.3295 31.2502 29.3001 31.4561 29.1001L33.1326 27.4118C33.3443 27.2001 33.362 26.8648 33.1738 26.6354L32.2679 25.4942C32.4326 25.1648 32.5679 24.8295 32.6737 24.4883L34.1208 24.2413C34.4032 24.1942 34.6149 23.9471 34.6149 23.6648V21.2824C34.6149 20.9824 34.3914 20.7295 34.0914 20.7001ZM25.8855 36.4824C25.8855 37.1236 25.362 37.6471 24.7149 37.6471H7.7267C7.08551 37.6471 6.56197 37.1236 6.56197 36.4824C6.56197 36.3561 6.56197 33.122 6.56197 33.1824H25.8855L25.8855 36.4824ZM33.4384 23.1648L32.1091 23.3883C31.8738 23.4295 31.6914 23.6001 31.6326 23.8354C31.5149 24.3295 31.3208 24.8059 31.062 25.2589C30.9384 25.4648 30.9561 25.7295 31.1091 25.9177L31.9267 26.953L30.9737 27.9177L29.8679 27.1295C29.6796 26.9942 29.4208 26.9883 29.2208 27.1119C28.7914 27.3765 28.3208 27.5765 27.8208 27.7001C27.5796 27.7589 27.4032 27.9648 27.3737 28.206L27.2267 29.5295C26.7311 29.5295 26.3578 29.5295 25.862 29.5295L25.6385 28.1942C25.6032 27.9648 25.4267 27.7765 25.1973 27.7236C24.7032 27.6001 24.2267 27.406 23.7855 27.1471C23.5738 27.0236 23.3091 27.0412 23.1208 27.1942L22.0796 28.0177L21.1208 27.0589L21.8973 25.9707C22.0223 25.7934 22.0446 25.532 21.9208 25.3118C21.6561 24.8824 21.4502 24.4059 21.3208 23.9001C21.262 23.6648 21.062 23.4883 20.8208 23.4648L19.5031 23.3118V21.9589L20.8326 21.7354C21.0679 21.6942 21.2561 21.5177 21.309 21.2883C21.4267 20.7883 21.6208 20.3119 21.8855 19.8765C22.009 19.6648 21.9973 19.4001 21.8443 19.206L21.0149 18.1648L21.9737 17.206L23.0737 17.9883C23.262 18.1236 23.5208 18.1354 23.7208 18.0118C24.1502 17.7471 24.6267 17.5471 25.1326 17.4177C25.3679 17.3589 25.5384 17.1589 25.5679 16.9177L25.7149 15.5942H27.0796L27.3032 16.9236C27.3443 17.1589 27.5149 17.3471 27.7443 17.4001C28.2444 17.5177 28.7208 17.7118 29.162 17.9765C29.3738 18.1001 29.6385 18.0824 29.8267 17.9295L30.862 17.1001L31.8208 18.0648L31.0443 19.1589C30.9209 19.3337 30.8956 19.5892 31.0208 19.8118C31.2914 20.253 31.4914 20.7295 31.6149 21.2177C31.6737 21.453 31.8737 21.6295 32.1208 21.6589L33.4384 21.806L33.4384 23.1648Z" fill="#1CB098"/>
</svg>
