<svg width="50" height="50" viewBox="0 0 50 50" fill="none" xmlns="http://www.w3.org/2000/svg">
<path d="M13.3755 31.4682C13.8424 31.1988 14.0023 30.6011 13.7329 30.1342C13.4632 29.6676 12.8659 29.5074 12.3989 29.7767C11.932 30.0464 11.7718 30.6442 12.0415 31.1107C12.3108 31.5776 12.9086 31.7379 13.3755 31.4682Z" fill="#1CB098"/>
<path d="M9.37346 38.2083L14.2914 46.7269C15.3526 48.5672 17.7399 49.2485 19.6277 48.1571C21.4958 47.0775 22.1378 44.6907 21.0571 42.8211L18.1274 37.746L20.6646 36.2812C21.1315 36.0111 21.2917 35.4141 21.022 34.9472L19.7521 32.7476C19.9035 32.7182 20.8992 32.5229 38.4571 29.0786C40.6277 28.9608 41.9281 26.5869 40.8317 24.6891L37.5862 19.0677L39.6602 15.9263C39.864 15.6173 39.8762 15.2202 39.6911 14.8998L37.738 11.5169C37.553 11.1965 37.2017 11.0088 36.8336 11.0305L33.0765 11.256L29.4735 5.01514C28.9516 4.11105 28.0166 3.56364 26.9729 3.55067C26.9604 3.55029 26.9482 3.55029 26.9356 3.55029C25.927 3.55029 25.0114 4.05231 24.469 4.90108L11.7119 21.1525L3.41833 25.9407C0.156387 27.8232 -0.973526 32.0079 0.916275 35.2787C2.64281 38.2694 6.28279 39.4458 9.37346 38.2083ZM19.3661 43.798C19.9055 44.7311 19.5862 45.9251 18.6504 46.4656C17.7116 47.0085 16.5161 46.6751 15.9828 45.7508L11.1 37.2924L14.4829 35.3393C20.134 45.1286 19.2753 43.6412 19.3661 43.798ZM17.1509 36.0542L16.1743 34.3627L17.8657 33.3862L18.8423 35.0776L17.1509 36.0542ZM36.3483 13.0161L37.698 15.3537L36.4944 17.1764L34.1682 13.1469L36.3483 13.0161ZM26.1024 5.97186C26.3645 5.54309 26.7803 5.49884 26.9489 5.50342C27.1156 5.50533 27.531 5.55721 27.7817 5.99132L39.1403 25.6656C39.5103 26.3061 39.0606 27.1114 38.3186 27.1297C38.1855 27.1328 38.1241 27.1568 37.783 27.2205L25.7679 6.40941C26.02 6.08516 26.0525 6.05388 26.1024 5.97186ZM24.4682 8.06499L35.757 27.618L18.7198 30.9597L13.5395 21.9871L24.4682 8.06499ZM2.60771 34.3021C2.17894 33.5601 1.95235 32.7178 1.95235 31.8656C1.95235 30.1239 2.88847 28.5018 4.3949 27.6321L12.0064 23.2376L16.8892 31.6947L9.27771 36.0897C6.94579 37.4355 3.95392 36.6336 2.60771 34.3021Z" fill="#1CB098"/>
<path d="M10.3501 32.0873C10.0804 31.6204 9.48298 31.4602 9.01606 31.7299L7.32463 32.7064C6.85847 32.9757 6.25994 32.8151 5.99063 32.349C5.72093 31.8821 5.12355 31.7218 4.65663 31.9915C4.18971 32.2612 4.02949 32.8586 4.29919 33.3255C5.10295 34.7179 6.89585 35.2089 8.30119 34.3979L9.99263 33.4213C10.4595 33.1516 10.6198 32.5546 10.3501 32.0873Z" fill="#1CB098"/>
<path d="M48.5485 5.63917L43.1069 8.66728C42.6358 8.92973 42.466 9.52444 42.7284 9.99556C42.9901 10.4663 43.5845 10.6368 44.0567 10.374L49.498 7.34587C49.9695 7.08342 50.1389 6.48871 49.8764 6.01759C49.6144 5.54609 49.0196 5.37672 48.5485 5.63917Z" fill="#1CB098"/>
<path d="M47.9778 15.7537L44.2047 14.7428C43.6836 14.6032 43.148 14.9121 43.0084 15.4332C42.8688 15.9543 43.1782 16.4895 43.6993 16.6291L47.4728 17.64C47.9969 17.7808 48.5298 17.4668 48.6687 16.9496C48.8083 16.4285 48.4989 15.8929 47.9778 15.7537Z" fill="#1CB098"/>
<path d="M38.496 2.09119L37.484 5.86469C37.3444 6.38577 37.6534 6.92098 38.1744 7.06098C38.6951 7.20021 39.2307 6.89198 39.3707 6.37052L40.3824 2.59702C40.522 2.07593 40.213 1.54035 39.6919 1.40073C39.1712 1.26111 38.6356 1.5701 38.496 2.09119Z" fill="#1CB098"/>
</svg>
