<svg width="50" height="50" viewBox="0 0 50 50" fill="none" xmlns="http://www.w3.org/2000/svg">
<g clip-path="url(#clip0_348_1524)">
<path d="M50 11.8164V4.49219C50 2.06904 48.0286 0.0976562 45.6055 0.0976562H4.39453C1.97139 0.0976562 0 2.06904 0 4.49219V11.8164H50ZM33.7891 5.95703H42.5781C43.3871 5.95703 44.043 6.61289 44.043 7.42188C44.043 8.23086 43.3871 8.88672 42.5781 8.88672H33.7891C32.9801 8.88672 32.3242 8.23086 32.3242 7.42188C32.3242 6.61289 32.9801 5.95703 33.7891 5.95703ZM19.1406 5.95703C19.9496 5.95703 20.6055 6.61289 20.6055 7.42188C20.6055 8.23086 19.9496 8.88672 19.1406 8.88672C18.3316 8.88672 17.6758 8.23086 17.6758 7.42188C17.6758 6.61289 18.3316 5.95703 19.1406 5.95703ZM13.2812 5.95703C14.0902 5.95703 14.7461 6.61289 14.7461 7.42188C14.7461 8.23086 14.0902 8.88672 13.2812 8.88672C12.4723 8.88672 11.8164 8.23086 11.8164 7.42188C11.8164 6.61289 12.4723 5.95703 13.2812 5.95703ZM7.42188 5.95703C8.23086 5.95703 8.88672 6.61289 8.88672 7.42188C8.88672 8.23086 8.23086 8.88672 7.42188 8.88672C6.61289 8.88672 5.95703 8.23086 5.95703 7.42188C5.95703 6.61289 6.61289 5.95703 7.42188 5.95703Z" fill="white"/>
<path d="M0 14.7461V45.5078C0 47.931 1.97139 49.9023 4.39453 49.9023H45.6055C48.0286 49.9023 50 47.931 50 45.5078V14.7461H0ZM17.126 35.5749C17.7578 36.0803 17.8602 37.0021 17.3548 37.6338C16.8495 38.2654 15.9275 38.368 15.2959 37.8625L7.97168 32.0031C7.23936 31.4175 7.23887 30.3016 7.97168 29.7154L15.2959 23.8561C15.9273 23.3507 16.8493 23.453 17.3548 24.0848C17.8602 24.7165 17.7578 25.6384 17.126 26.1437L11.2316 30.8594L17.126 35.5749ZM30.7409 21.1825L21.9519 41.6903C21.6332 42.4338 20.7723 42.7785 20.0284 42.4597C19.2849 42.141 18.9403 41.2798 19.2591 40.5362L28.0481 20.0284C28.3669 19.2849 29.228 18.9404 29.9716 19.2591C30.7151 19.5777 31.0597 20.4389 30.7409 21.1825ZM42.0283 32.0032L34.7041 37.8626C34.0734 38.3673 33.1514 38.2665 32.6452 37.6339C32.1398 37.0021 32.2422 36.0803 32.874 35.575L38.7684 30.8594L32.874 26.1438C32.2422 25.6385 32.1398 24.7167 32.6452 24.085C33.1505 23.4532 34.0724 23.3508 34.7041 23.8562L42.0283 29.7156C42.7606 30.3013 42.7611 31.4171 42.0283 32.0032Z" fill="white"/>
</g>
<defs>
<clipPath id="clip0_348_1524">
<rect width="50" height="50" fill="white"/>
</clipPath>
</defs>
</svg>
