<svg width="50" height="50" viewBox="0 0 50 50" fill="none" xmlns="http://www.w3.org/2000/svg">
<path fill-rule="evenodd" clip-rule="evenodd" d="M10.7422 32.8125V27.9297H5.37109V40.1367H44.6289V27.9297H39.2578V32.8125H34.375V27.9297H15.625V32.8125H10.7422Z" fill="#743EF9"/>
<path d="M49.0234 10.3516H34.6652L33.7515 7.15361C33.0899 4.83789 31.6555 4.49219 30.8594 4.49219H19.1406C18.3445 4.49219 16.9102 4.83799 16.2485 7.15361L15.3348 10.3516H0.976562C0.437207 10.3516 0 10.7888 0 11.3281V40.625C0 43.3174 2.19043 45.5078 4.88281 45.5078H45.1172C47.8096 45.5078 50 43.3174 50 40.625V11.3281C50 10.7888 49.5627 10.3516 49.0234 10.3516ZM18.1265 7.69014C18.3625 6.86416 18.7037 6.44531 19.1406 6.44531H30.8594C31.2963 6.44531 31.6375 6.86416 31.8734 7.69023L32.6339 10.3516H17.3661L18.1265 7.69014ZM1.95312 12.3047H48.0469V24.0234C48.0469 25.6389 46.7326 26.9531 45.1172 26.9531H40.2344V25.4883C40.2344 23.6036 38.7011 22.0703 36.8164 22.0703C34.9317 22.0703 33.3984 23.6036 33.3984 25.4883V26.9531H16.6016V25.4883C16.6016 23.6036 15.0683 22.0703 13.1836 22.0703C11.2989 22.0703 9.76562 23.6036 9.76562 25.4883V26.9531H4.88281C3.26738 26.9531 1.95312 25.6389 1.95312 24.0234V12.3047ZM35.3516 28.9062H38.2812V31.8359H35.3516V28.9062ZM35.3516 26.9531V25.4883C35.3516 24.6806 36.0087 24.0234 36.8164 24.0234C37.6241 24.0234 38.2812 24.6806 38.2812 25.4883V26.9531H35.3516ZM11.7188 28.9062H14.6484V31.8359H11.7188V28.9062ZM11.7188 26.9531V25.4883C11.7188 24.6806 12.3759 24.0234 13.1836 24.0234C13.9913 24.0234 14.6484 24.6806 14.6484 25.4883V26.9531H11.7188ZM45.1172 43.5547H4.88281C3.26738 43.5547 1.95312 42.2404 1.95312 40.625V27.9273C2.76973 28.5417 3.78447 28.9062 4.88281 28.9062H9.76562V32.8125C9.76562 33.3519 10.2028 33.7891 10.7422 33.7891H15.625C16.1644 33.7891 16.6016 33.3519 16.6016 32.8125V28.9062H33.3984V32.8125C33.3984 33.3519 33.8356 33.7891 34.375 33.7891H39.2578C39.7972 33.7891 40.2344 33.3519 40.2344 32.8125V28.9062H45.1172C46.2155 28.9062 47.2303 28.5417 48.0469 27.9273V40.625C48.0469 42.2404 46.7326 43.5547 45.1172 43.5547Z" fill="#08001C"/>
</svg>
