<svg width="50" height="50" viewBox="0 0 50 50" fill="none" xmlns="http://www.w3.org/2000/svg">
<path d="M44.3211 15.2342C44.7839 8.18027 39.1812 2.09668 32.0658 2.09668C26.9518 2.09668 22.6124 5.22256 20.7476 9.65898C15.3321 5.59102 7.41191 8.46338 5.88838 15.1717C2.44824 16.1443 0 19.5787 0 23.5579C0 28.3315 3.51719 32.2151 7.84033 32.2151H7.84434C8.38359 32.2151 8.8209 31.7778 8.8209 31.2386C8.8209 30.6993 8.38359 30.262 7.84434 30.262H7.84033C4.59414 30.2621 1.95312 27.2546 1.95312 23.5579C1.95312 20.2437 4.03477 17.4601 6.90293 16.9392C7.31279 16.8647 7.63027 16.5385 7.69365 16.1268C8.25361 12.484 11.4407 9.73701 15.1072 9.73701C17.1495 9.73701 19.0603 10.5505 20.4872 12.0276C21.0101 12.5688 21.9263 12.3385 22.1298 11.6131C23.3799 7.15986 27.4657 4.0498 32.0658 4.0498C38.2313 4.0498 43.1398 9.51582 42.2978 15.8476C42.2289 16.3644 42.5781 16.8439 43.0911 16.9372C45.9627 17.4591 48.0469 20.2436 48.0469 23.5579C48.0469 27.2546 45.4059 30.262 42.1597 30.262H42.1557C41.6164 30.262 41.1791 30.6993 41.1791 31.2386C41.1791 31.7778 41.6164 32.2151 42.1557 32.2151H42.1597C46.4829 32.2151 50 28.3314 50 23.5579C50 19.6036 47.605 16.2738 44.3211 15.2342Z" fill="#1E1E1E"/>
<path d="M11.7626 47.9035C9.60208 47.9035 7.84436 46.1458 7.84436 43.9853V22.4133C7.84436 20.2528 9.60208 18.4951 11.7626 18.4951H38.2374C40.398 18.4951 42.1557 20.2528 42.1557 22.4133V43.9853C42.1557 46.1458 40.398 47.9035 38.2374 47.9035H11.7626Z" fill="#FDB4B4"/>
<path d="M35.2957 34.1846H14.7041C13.0843 34.1846 11.7665 35.5024 11.7665 37.1223V41.0445C11.7665 42.6643 13.0843 43.982 14.7041 43.982H35.2956C36.9154 43.982 38.2333 42.6643 38.2333 41.0445V37.1223C38.2334 35.5024 36.9155 34.1846 35.2957 34.1846ZM36.2803 41.0445C36.2803 41.5874 35.8386 42.0289 35.2957 42.0289H14.7041C14.1612 42.0289 13.7196 41.5874 13.7196 41.0445V37.1223C13.7196 36.5793 14.1612 36.1377 14.7041 36.1377H35.2956C35.8386 36.1377 36.2802 36.5793 36.2802 37.1223V41.0445H36.2803Z" fill="#1E1E1E"/>
<path d="M25.4903 38.1064H15.6847C15.1454 38.1064 14.7081 38.5438 14.7081 39.083C14.7081 39.6223 15.1454 40.0596 15.6847 40.0596H25.4903C26.0295 40.0596 26.4668 39.6223 26.4668 39.083C26.4668 38.5438 26.0295 38.1064 25.4903 38.1064Z" fill="#1E1E1E"/>
<path d="M33.3345 38.1074C32.7929 38.1074 32.3579 38.548 32.3579 39.084C32.3579 39.6208 32.7951 40.0605 33.3345 40.0605C33.8733 40.0605 34.311 39.6212 34.311 39.084C34.3111 38.5523 33.8802 38.1074 33.3345 38.1074Z" fill="#1E1E1E"/>
<path d="M30.0953 39.7734C30.4767 39.3921 30.4767 38.7739 30.0953 38.3926C29.714 38.0113 29.0958 38.0113 28.7145 38.3926C28.3332 38.7739 28.3332 39.3921 28.7145 39.7734C29.0958 40.1548 29.714 40.1548 30.0953 39.7734Z" fill="#1E1E1E"/>
<path d="M35.2957 22.418H14.7041C13.0843 22.418 11.7665 23.7358 11.7665 25.3557V29.2779C11.7665 30.8978 13.0843 32.2156 14.7041 32.2156H35.2956C36.9154 32.2156 38.2333 30.8978 38.2333 29.2779V25.3557C38.2334 23.7358 36.9155 22.418 35.2957 22.418ZM36.2803 29.2779C36.2803 29.8209 35.8386 30.2625 35.2957 30.2625H14.7041C14.1612 30.2625 13.7196 29.8209 13.7196 29.2779V25.3557C13.7196 24.8127 14.1612 24.3711 14.7041 24.3711H35.2956C35.8386 24.3711 36.2802 24.8127 36.2802 25.3557V29.2779H36.2803Z" fill="#1E1E1E"/>
<path d="M25.4903 26.3398H15.6847C15.1454 26.3398 14.7081 26.7771 14.7081 27.3164C14.7081 27.8557 15.1454 28.293 15.6847 28.293H25.4903C26.0295 28.293 26.4668 27.8557 26.4668 27.3164C26.4668 26.7771 26.0295 26.3398 25.4903 26.3398Z" fill="#1E1E1E"/>
<path d="M33.3347 28.2941C33.8741 28.2941 34.3114 27.8569 34.3114 27.3175C34.3114 26.7781 33.8741 26.3408 33.3347 26.3408C32.7953 26.3408 32.358 26.7781 32.358 27.3175C32.358 27.8569 32.7953 28.2941 33.3347 28.2941Z" fill="#1E1E1E"/>
<path d="M29.4122 28.2939C29.9516 28.2939 30.3888 27.8567 30.3888 27.3174C30.3888 26.778 29.9516 26.3408 29.4122 26.3408C28.8729 26.3408 28.4357 26.778 28.4357 27.3174C28.4357 27.8567 28.8729 28.2939 29.4122 28.2939Z" fill="#1E1E1E"/>
</svg>
