<svg width="40" height="40" viewBox="0 0 40 40" fill="none" xmlns="http://www.w3.org/2000/svg">
<path d="M38.1818 21.8182C37.6364 21.8182 37.2728 22.1819 37.2728 22.7273V34.5455C37.2728 35.091 36.9091 35.4546 36.3637 35.4546H3.63637C3.0909 35.4546 2.7273 35.0909 2.7273 34.5455V22.7273C2.7273 22.1818 2.36363 21.8182 1.81824 21.8182C1.27285 21.8182 0.90918 22.1819 0.90918 22.7273V34.5455C0.90918 36.091 2.09098 37.2728 3.63645 37.2728H36.3637C37.9092 37.2728 39.091 36.091 39.091 34.5455V22.7273C39.091 22.1818 38.7273 21.8182 38.1818 21.8182Z" fill="#1CB098"/>
<path d="M37.2727 9.09094H2.72727C1.1818 9.09094 0 10.2727 0 11.8182V17.6364C0 18.9091 0.909063 20 2.09094 20.2727L16.3637 23.4545V26.3636C16.3637 26.9091 16.7273 27.2727 17.2727 27.2727H22.7273C23.2727 27.2727 23.6363 26.909 23.6363 26.3636V23.4545L37.9091 20.2727C39.0909 20 40 18.9091 40 17.6363V11.8181C40 10.2727 38.8182 9.09094 37.2727 9.09094ZM21.8182 25.4545H18.1819V21.8182H21.8182V25.4545ZM38.1818 17.6363C38.1818 18.0909 37.9091 18.4545 37.4545 18.5454L23.6363 21.6363V20.9091C23.6363 20.3636 23.2727 20 22.7273 20H17.2727C16.7273 20 16.3637 20.3637 16.3637 20.9091V21.6363L2.54547 18.5455C2.09094 18.4545 1.8182 18.0909 1.8182 17.6364V11.8182C1.8182 11.2727 2.18187 10.9091 2.72727 10.9091H37.2727C37.8182 10.9091 38.1818 11.2728 38.1818 11.8182V17.6363Z" fill="#1CB098"/>
<path d="M24.5455 2.72729H15.4546C13.9091 2.72729 12.7273 3.90909 12.7273 5.45456V6.36362C12.7273 6.90909 13.091 7.27269 13.6364 7.27269C14.1817 7.27269 14.5454 6.90901 14.5454 6.36362V5.45456C14.5454 4.90909 14.9091 4.5455 15.4545 4.5455H24.5454C25.0909 4.5455 25.4545 4.90917 25.4545 5.45456V6.36362C25.4545 6.90909 25.8182 7.27269 26.3635 7.27269C26.909 7.27269 27.2726 6.90901 27.2726 6.36362V5.45456C27.2728 3.90909 26.091 2.72729 24.5455 2.72729Z" fill="#1CB098"/>
</svg>
