<svg width="50" height="50" viewBox="0 0 50 50" fill="none" xmlns="http://www.w3.org/2000/svg">
<g clip-path="url(#clip0_348_1553)">
<path d="M16.2085 23.5352H31.9312C34.0885 23.5352 35.8374 21.7862 35.8374 19.6289V3.90625C35.8374 1.74893 34.0885 0 31.9312 0H16.2085C14.0512 0 12.3022 1.74893 12.3022 3.90625V19.6289C12.3022 21.7862 14.0512 23.5352 16.2085 23.5352ZM18.0748 17.1056L22.4752 5.55186C22.4794 5.54072 22.4838 5.52959 22.4883 5.51855C22.7552 4.86611 23.3832 4.44404 24.0882 4.44336H24.0899C24.7942 4.44336 25.4223 4.86397 25.6902 5.51543C25.6957 5.52871 25.701 5.54209 25.7061 5.55557L30.0664 17.1098C30.3521 17.8667 29.97 18.7118 29.2132 18.9975C29.0429 19.0617 28.8681 19.0922 28.6962 19.0922C28.1042 19.0922 27.5468 18.7308 27.3255 18.1441L26.5972 16.2143H21.5492L20.8126 18.1482C20.5246 18.9043 19.6783 19.2837 18.9224 18.9958C18.1663 18.7079 17.7869 17.8616 18.0748 17.1056Z" fill="white"/>
<path d="M24.0848 9.55688L22.665 13.2846H25.4915L24.0848 9.55688Z" fill="white"/>
<path d="M12.1895 39.2341C12.1895 39.2341 9.88779 39.2359 9.65576 39.2368V42.6209C10.5967 42.6171 11.7248 42.613 12.1895 42.613C13.1211 42.613 13.8789 41.8551 13.8789 40.9236C13.8789 39.992 13.1211 39.2341 12.1895 39.2341Z" fill="white"/>
<path d="M19.6289 26.4648H3.90625C1.74893 26.4648 0 28.2138 0 30.3711V46.0938C0 48.2511 1.74893 50 3.90625 50H19.6289C21.7862 50 23.5352 48.2511 23.5352 46.0938V30.3711C23.5352 28.2138 21.7862 26.4648 19.6289 26.4648ZM12.1896 45.5427C11.3388 45.5427 8.22891 45.5564 8.19766 45.5566C8.19551 45.5566 8.19336 45.5566 8.19121 45.5566C7.80391 45.5566 7.43232 45.4032 7.15771 45.1299C6.88154 44.855 6.72637 44.4813 6.72637 44.0918V32.373C6.72637 31.5641 7.38223 30.9082 8.19121 30.9082H11.5952C13.8897 30.9082 15.7565 32.775 15.7565 35.0695C15.7565 35.9023 15.5097 36.6781 15.0867 37.3294C16.136 38.1769 16.8089 39.4728 16.8089 40.9235C16.8089 43.4706 14.7367 45.5427 12.1896 45.5427Z" fill="white"/>
<path d="M12.8267 35.0695C12.8267 34.3903 12.2741 33.8379 11.595 33.8379H9.65576V36.3044C9.65576 36.3044 11.3404 36.3012 11.5949 36.3012C12.2741 36.3012 12.8267 35.7486 12.8267 35.0695Z" fill="white"/>
<path d="M46.0938 26.4648H30.3711C28.2138 26.4648 26.4648 28.2138 26.4648 30.3711V46.0938C26.4648 48.2511 28.2138 50 30.3711 50H46.0938C48.2511 50 50 48.2511 50 46.0938V30.3711C50 28.2138 48.2511 26.4648 46.0938 26.4648ZM44.1302 43.379C43.9373 43.609 43.7274 43.8254 43.5065 44.0222C42.3795 45.0261 40.9306 45.5566 39.3164 45.5566C35.2778 45.5566 31.9922 42.271 31.9922 38.2324C31.9922 34.1938 35.2778 30.9082 39.3164 30.9082C40.7839 30.9082 42.2003 31.341 43.4125 32.1599C44.0829 32.6128 44.2592 33.5233 43.8063 34.1938C43.3534 34.8641 42.4429 35.0404 41.7725 34.5876C41.0465 34.0972 40.1973 33.8379 39.3164 33.8379C36.8933 33.8379 34.9219 35.8093 34.9219 38.2324C34.9219 40.6556 36.8933 42.627 39.3164 42.627C40.2134 42.627 40.9676 42.3604 41.5579 41.8345C41.6732 41.7317 41.7834 41.6181 41.8855 41.4964C42.4054 40.8765 43.3292 40.7954 43.9491 41.3153C44.5689 41.8352 44.65 42.7591 44.1302 43.379Z" fill="white"/>
</g>
<defs>
<clipPath id="clip0_348_1553">
<rect width="50" height="50" fill="white"/>
</clipPath>
</defs>
</svg>
