<svg width="50" height="50" viewBox="0 0 50 50" fill="none" xmlns="http://www.w3.org/2000/svg">
<g clip-path="url(#clip0_565_4896)">
<path d="M29.9023 8.06055V34.7842L29.8945 34.8058L11.4189 27.8037V15.041L29.8945 8.04004L29.9023 8.06055Z" fill="#FFBF00"/>
<path d="M40.2271 18.1765L36.7627 16.004V10.0303C36.7627 7.29525 34.0082 5.40902 31.4569 6.40404C29.6163 7.1015 12.9453 13.4184 11.24 14.0644H7.3584C3.30098 14.0645 0 17.3655 0 21.4229C0 24.9456 2.48955 27.8967 5.80156 28.613V41.198C5.80156 42.6685 6.99785 43.8649 8.46846 43.8649H13.7722C15.5679 43.8649 16.8493 42.1304 16.321 40.4138L14.8837 35.7424H16.3056C17.9887 35.7424 19.3579 34.3735 19.3579 32.691V31.8567C24.8958 33.9553 31.2138 36.3496 31.4569 36.4417C34.0021 37.4332 36.7627 35.5545 36.7627 32.8144V26.8456L40.2208 24.7131C40.5092 24.5353 40.6848 24.2207 40.6848 23.8819V19.0037C40.6848 18.6676 40.5118 18.3549 40.2271 18.1765ZM1.95312 21.4229C1.95312 18.4423 4.37793 16.0175 7.3584 16.0175H10.4424V18.5093H5.38906C4.84971 18.5093 4.4125 18.9465 4.4125 19.4859C4.4125 20.0251 4.84971 20.4624 5.38906 20.4624H10.4425V22.4315H5.38906C4.84971 22.4315 4.4125 22.8688 4.4125 23.408C4.4125 23.9473 4.84971 24.3846 5.38906 24.3846H10.4425V26.8272H7.3584C4.37793 26.8272 1.95312 24.4029 1.95312 21.4229ZM13.7722 41.9118H8.46846C8.0749 41.9118 7.75469 41.5916 7.75469 41.198V28.7808H10.6981C11.1418 30.2225 14.0792 39.7692 14.4543 40.9882C14.5956 41.4475 14.2527 41.9118 13.7722 41.9118ZM17.4048 32.691C17.4048 33.2965 16.9116 33.7893 16.3056 33.7893H14.2827L12.9396 29.4244C14.0797 29.8564 15.653 30.4526 17.4048 31.1165V32.691ZM34.8096 32.8145C34.8096 34.1322 33.4973 35.131 32.1537 34.6172C31.9981 34.5583 15.8166 28.426 12.3955 27.1295C12.3955 25.9141 12.3955 16.8279 12.3955 15.7153C12.6121 15.6332 32.1537 8.22874 32.1638 8.22484C33.435 7.7264 34.8096 8.66019 34.8096 10.0303V32.8145ZM38.7316 23.3368L36.7627 24.5511V18.3094L38.7316 19.5442V23.3368Z" fill="#1E1E1E"/>
<path d="M43.6304 22.3994H49.0234C49.5627 22.3994 50 21.9622 50 21.4229C50 20.8836 49.5627 20.4463 49.0234 20.4463H43.6304C43.0911 20.4463 42.6538 20.8836 42.6538 21.4229C42.6538 21.9621 43.0911 22.3994 43.6304 22.3994Z" fill="#1E1E1E"/>
<path d="M43.6307 16.5404C43.8651 16.5404 44.1002 16.4566 44.2873 16.2864L49.6804 11.3838C50.0795 11.021 50.1089 10.4034 49.7461 10.0043C49.3832 9.60518 48.7657 9.57569 48.3666 9.93858L42.9735 14.8412C42.3137 15.4411 42.7428 16.5404 43.6307 16.5404Z" fill="#1E1E1E"/>
<path d="M44.2873 26.6076C43.8881 26.2446 43.2707 26.2741 42.9078 26.6733C42.545 27.0723 42.5744 27.69 42.9735 28.0528L48.3666 32.9556C48.7646 33.3176 49.3824 33.2899 49.7461 32.8899C50.1089 32.4909 50.0795 31.8732 49.6803 31.5105L44.2873 26.6076Z" fill="#1E1E1E"/>
</g>
<defs>
<clipPath id="clip0_565_4896">
<rect width="50" height="50" fill="white"/>
</clipPath>
</defs>
</svg>
