<svg width="50" height="50" viewBox="0 0 50 50" fill="none" xmlns="http://www.w3.org/2000/svg">
<g clip-path="url(#clip0_348_1539)">
<path fill-rule="evenodd" clip-rule="evenodd" d="M27.9432 37.5148L28.7663 38.942C29.3871 40.0183 29.5548 41.2988 29.2316 42.4986C28.9104 43.6994 28.1242 44.724 27.0475 45.345L25.4395 46.2725C24.3628 46.8935 23.0822 47.0609 21.882 46.7376C20.6815 46.4167 19.6571 45.6303 19.0363 44.5539L17.6638 42.1743C18.0962 41.9883 18.5207 41.7752 18.9374 41.5349L23.9065 38.6689L27.9432 37.5148ZM21.1484 36.6505L17.3753 38.8267C13.0393 41.3275 7.49765 39.8398 4.99617 35.5028L4.68576 34.9646C2.18428 30.6276 3.67062 25.0842 8.00662 22.5834L11.2086 20.7366L21.1484 36.6505ZM13.825 19.0265L28.8245 4.53619C29.8632 3.533 31.3057 3.06491 32.7343 3.26491C34.1638 3.4665 35.4208 4.31549 36.1423 5.56644L46.195 22.9956C46.9165 24.2466 47.0219 25.7598 46.4806 27.098C45.9383 28.4347 44.8108 29.4489 43.4223 29.8457L24.0403 35.3802L13.825 19.0265Z" fill="white"/>
</g>
<defs>
<clipPath id="clip0_348_1539">
<rect width="50" height="50" fill="white"/>
</clipPath>
</defs>
</svg>
