<svg width="30" height="30" viewBox="0 0 30 30" fill="none" xmlns="http://www.w3.org/2000/svg">
<g clip-path="url(#clip0_1875_4701)">
<path d="M8.02547 18.8809C8.30561 18.7193 8.40155 18.3607 8.23991 18.0805C8.07809 17.8006 7.71971 17.7044 7.43951 17.866C7.15937 18.0278 7.06325 18.3865 7.22507 18.6664C7.38665 18.9466 7.74533 19.0427 8.02547 18.8809Z" fill="#1882FF"/>
<path d="M5.62408 22.9249L8.57484 28.0361C9.21156 29.1403 10.6439 29.5491 11.7766 28.8942C12.8975 28.2465 13.2827 26.8144 12.6343 25.6926L10.8764 22.6476L12.3988 21.7687C12.6789 21.6066 12.775 21.2484 12.6132 20.9683L11.8513 19.6485C11.9421 19.6309 12.5395 19.5137 23.0743 17.4471C24.3766 17.3764 25.1569 15.9521 24.499 14.8134L22.5517 11.4406L23.7961 9.55573C23.9184 9.37033 23.9257 9.13207 23.8147 8.93983L22.6428 6.91009C22.5318 6.71785 22.321 6.60523 22.1002 6.61825L19.8459 6.75355L17.6841 3.00904C17.371 2.46658 16.81 2.13814 16.1837 2.13035C16.1762 2.13013 16.1689 2.13013 16.1614 2.13013C15.5562 2.13013 15.0068 2.43134 14.6814 2.9406L7.02714 12.6915L2.051 15.5644C0.0938321 16.6939 -0.584116 19.2047 0.549765 21.1672C1.58569 22.9616 3.76967 23.6674 5.62408 22.9249ZM11.6197 26.2788C11.9433 26.8386 11.7517 27.555 11.1902 27.8793C10.627 28.2051 9.90966 28.005 9.58968 27.4504L6.66 22.3754L8.68974 21.2035C12.0804 27.0771 11.5652 26.1847 11.6197 26.2788ZM10.2905 21.6325L9.70458 20.6176L10.7194 20.0317L11.3054 21.0465L10.2905 21.6325ZM21.809 7.80961L22.6188 9.21217L21.8966 10.3058L20.5009 7.88809L21.809 7.80961ZM15.6614 3.58307C15.8187 3.32581 16.0682 3.29926 16.1693 3.302C16.2694 3.30315 16.5186 3.33428 16.669 3.59474L23.4842 15.3993C23.7062 15.7836 23.4364 16.2668 22.9912 16.2778C22.9113 16.2796 22.8745 16.294 22.6698 16.3323L15.4607 3.8456C15.612 3.65105 15.6315 3.63228 15.6614 3.58307ZM14.6809 4.83895L21.4542 16.5708L11.2319 18.5758L8.1237 13.1922L14.6809 4.83895ZM1.56463 20.5812C1.30736 20.136 1.17141 19.6306 1.17141 19.1193C1.17141 18.0743 1.73308 17.101 2.63694 16.5792L7.20384 13.9425L10.1335 19.0168L5.56663 21.6538C4.16747 22.4613 2.37235 21.9801 1.56463 20.5812Z" fill="#1882FF"/>
<path d="M6.21011 19.2525C6.04829 18.9724 5.68984 18.8762 5.40968 19.0381L4.39483 19.624C4.11513 19.7855 3.75601 19.6892 3.59443 19.4095C3.43261 19.1294 3.07418 19.0332 2.79403 19.195C2.51387 19.3568 2.41774 19.7153 2.57956 19.9954C3.06182 20.8309 4.13756 21.1255 4.98076 20.6389L5.99563 20.0529C6.27575 19.8911 6.37193 19.5329 6.21011 19.2525Z" fill="#1882FF"/>
<path d="M29.1291 3.38345L25.8641 5.20032C25.5815 5.35779 25.4796 5.71462 25.637 5.99729C25.7941 6.27973 26.1507 6.38203 26.434 6.22435L29.6988 4.40747C29.9817 4.25 30.0833 3.89318 29.9258 3.61051C29.7686 3.32761 29.4118 3.22598 29.1291 3.38345Z" fill="#1882FF"/>
<path d="M28.7869 9.4521L26.523 8.84556C26.2104 8.7618 25.889 8.94714 25.8053 9.2598C25.7215 9.57246 25.9071 9.89358 26.2198 9.97734L28.4839 10.5839C28.7984 10.6684 29.1181 10.48 29.2014 10.1696C29.2852 9.85698 29.0996 9.53562 28.7869 9.4521Z" fill="#1882FF"/>
<path d="M23.0975 1.25471L22.4903 3.51881C22.4066 3.83146 22.592 4.15259 22.9046 4.23659C23.217 4.32013 23.5384 4.13519 23.6224 3.82231L24.2294 1.55821C24.3131 1.24556 24.1277 0.924209 23.8151 0.840437C23.5027 0.756665 23.1813 0.942059 23.0975 1.25471Z" fill="#1882FF"/>
</g>
<defs>
<clipPath id="clip0_1875_4701">
<rect width="30" height="30" fill="white"/>
</clipPath>
</defs>
</svg>
