<svg width="30" height="30" viewBox="0 0 30 30" fill="none" xmlns="http://www.w3.org/2000/svg">
<g clip-path="url(#clip0_1875_4690)">
<mask id="mask0_1875_4690" style="mask-type:luminance" maskUnits="userSpaceOnUse" x="0" y="0" width="30" height="30">
<path d="M30 0H0V30H30V0Z" fill="white"/>
</mask>
<g mask="url(#mask0_1875_4690)">
<path d="M30 7.62305C30 6.53657 29.1193 5.65581 28.0328 5.65581C27.5601 5.65763 27.1041 5.83118 26.7497 6.14417C25.3122 5.40647 23.3887 5.07794 21.1387 5.19401C19.6614 2.04696 17.5274 0.245977 15.2459 0.245977C14.5118 0.252908 13.79 0.43572 13.141 0.779094C12.3835 0.065251 11.2 0.0685036 10.4464 0.786498C9.6928 1.50449 9.63232 2.68647 10.3087 3.47762C9.9475 4.0231 9.62854 4.59542 9.35464 5.18958C7.70884 5.06315 6.05446 5.27195 4.49168 5.80336C3.12449 6.24557 1.99761 7.22765 1.37266 8.52155C0.536596 10.4174 1.06922 12.7265 2.64299 15.0212C1.19611 17.1325 0.678235 19.1966 1.16758 20.9057C0.611323 21.3566 0.345521 22.0751 0.474426 22.7795C0.603331 23.4839 1.10639 24.0617 1.78628 24.2864C2.46619 24.5111 3.21451 24.3468 3.73774 23.858C5.21816 24.5522 6.84148 24.8873 8.47576 24.8361C8.76004 24.8361 9.05662 24.8199 9.3517 24.8046C10.8296 27.9522 12.9635 29.7542 15.2459 29.7542C17.5284 29.7542 19.6608 27.9537 21.1377 24.8086C21.4299 24.8238 21.722 24.8386 22.0048 24.8386C23.364 24.8643 24.7169 24.6478 26.0002 24.1992C27.3675 23.7569 28.4944 22.7747 29.1192 21.4806C29.9553 19.5846 29.4222 17.2761 27.8489 14.9814C29.2958 12.87 29.8161 10.8065 29.3243 9.09695C29.7522 8.72657 29.9987 8.18897 30 7.62305ZM28.0328 6.63941C28.5761 6.63941 29.0165 7.07981 29.0165 7.62305C29.0165 8.16623 28.5761 8.60663 28.0328 8.60663C27.4896 8.60663 27.0492 8.16623 27.0492 7.62305C27.0492 7.07981 27.4896 6.63941 28.0328 6.63941ZM16.7971 23.0981C17.3666 22.8743 17.9385 22.6309 18.5081 22.3658C19.5333 21.8873 20.5296 21.3492 21.4919 20.7542C21.2508 21.7927 20.9218 22.8089 20.5082 23.7915C19.2533 23.6691 18.0116 23.4371 16.7971 23.0981ZM22.1312 15C22.1339 16.4781 22.0089 17.9536 21.7574 19.41C20.5899 20.1908 19.3646 20.8813 18.092 21.4757C17.1629 21.9098 16.2106 22.2926 15.2396 22.6225C14.2733 22.2913 13.3255 21.9083 12.4004 21.4751C11.1296 20.8819 9.90478 20.1949 8.73592 19.4199C8.2369 16.4982 8.2369 13.5132 8.73592 10.5915C9.90346 9.81083 11.1288 9.12029 12.4014 8.52599C13.3281 8.09333 14.2777 7.71149 15.2459 7.38203C17.5453 8.16377 19.7341 9.23921 21.7579 10.5817C22.0095 12.041 22.1345 13.5192 22.1312 15ZM22.8773 11.3711C24.2866 12.3987 25.5501 13.6127 26.6331 14.9799C25.5559 16.3591 24.2925 17.5823 22.8792 18.6143C23.0378 17.4161 23.1165 16.2087 23.1148 15C23.1167 13.7865 23.0373 12.5741 22.8773 11.3711ZM9.97528 23.7729C9.5668 22.7978 9.24184 21.7897 9.004 20.7596C9.96574 21.3506 10.9603 21.8865 11.9828 22.3648C12.5543 22.6319 13.1273 22.8699 13.6997 23.0946C12.481 23.4315 11.2345 23.6585 9.97528 23.7729ZM13.6879 6.90401C13.1204 7.12727 12.5508 7.36973 11.9838 7.63385C10.9595 8.11259 9.964 8.65091 9.0025 9.24599C9.24166 8.20991 9.5686 7.19609 9.97972 6.21551C11.2335 6.33635 12.4743 6.56639 13.6879 6.90401ZM7.61464 18.6291C6.20536 17.6013 4.94191 16.3874 3.85873 15.0203C4.93598 13.641 6.19936 12.4179 7.61266 11.3858C7.29724 13.7899 7.29724 16.2249 7.61266 18.6291H7.61464ZM18.5091 7.63535C17.9396 7.36925 17.3685 7.12781 16.7976 6.90353C18.0146 6.56753 19.2592 6.34121 20.5166 6.22727C20.925 7.20227 21.2499 8.21015 21.4879 9.24005C20.526 8.64941 19.5315 8.11361 18.5091 7.63535ZM11.8033 1.22958C12.3465 1.22958 12.7869 1.66996 12.7869 2.21319C12.7869 2.75642 12.3465 3.19679 11.8033 3.19679C11.2601 3.19679 10.8197 2.75642 10.8197 2.21319C10.8197 1.66996 11.2601 1.22958 11.8033 1.22958ZM11.1104 4.04811C11.3313 4.1341 11.5662 4.17893 11.8033 4.1804C12.8898 4.1804 13.7705 3.29965 13.7705 2.21319C13.7678 2.00813 13.7326 1.80479 13.6662 1.61073C14.1569 1.36496 14.6972 1.2346 15.2459 1.22958C17.0553 1.22958 18.7977 2.69811 20.0912 5.28352C18.4441 5.46581 16.8209 5.82138 15.2484 6.34433C13.6741 5.82032 12.0497 5.46102 10.4012 5.27221C10.6122 4.85002 10.8491 4.44121 11.1104 4.04811ZM2.27266 8.91695C2.78849 7.86329 3.71656 7.06943 4.83742 6.72305C6.01396 6.31187 7.25434 6.11369 8.50036 6.13781C8.64496 6.13781 8.79544 6.14957 8.94298 6.15353C8.45128 7.40105 8.08168 8.69333 7.8394 10.0122C6.11656 11.1683 4.574 12.5727 3.26168 14.1797C2.02873 12.2769 1.6102 10.415 2.27266 8.91695ZM2.45905 23.3607C1.91582 23.3607 1.47545 22.9203 1.47545 22.3771C1.47545 21.8339 1.91582 21.3935 2.45905 21.3935C3.00229 21.3935 3.44266 21.8339 3.44266 22.3771C3.44266 22.9203 3.00229 23.3607 2.45905 23.3607ZM4.30331 23.0396C4.38265 22.8276 4.42426 22.6034 4.42627 22.3771C4.42789 21.7877 4.16447 21.2289 3.70883 20.855C3.25319 20.4812 2.65363 20.3321 2.07594 20.4488C1.77299 19.1342 2.18758 17.5422 3.26905 15.8627C4.583 17.4603 6.12394 18.8568 7.84282 20.0076C8.0848 21.3174 8.45224 22.6008 8.94004 23.8403C7.3528 23.9459 5.7632 23.6715 4.30331 23.0396ZM15.2459 28.7706C13.4366 28.7706 11.6942 27.302 10.4007 24.7166C12.0502 24.5331 13.6757 24.1763 15.2504 23.6519C16.8218 24.175 18.4433 24.5338 20.0887 24.7225C18.7953 27.3035 17.0538 28.7706 15.2459 28.7706ZM28.2192 21.0822C27.7035 22.1361 26.7754 22.9301 25.6545 23.2766C24.3345 23.7299 22.9397 23.9254 21.5459 23.8525C22.0385 22.6036 22.4087 21.3098 22.6515 19.9894C24.3745 18.8333 25.917 17.4287 27.2292 15.8214C28.4631 17.7232 28.8817 19.5842 28.2192 21.0822ZM27.2228 14.1374C25.9088 12.5398 24.3678 11.1432 22.6491 9.99203C22.4072 8.68241 22.0397 7.39913 21.5519 6.15989C23.1396 6.05381 24.7298 6.32831 26.19 6.96059C26.1102 7.17245 26.0681 7.39661 26.0656 7.62305C26.064 8.21237 26.3274 8.77127 26.783 9.14507C27.2387 9.51893 27.8382 9.66809 28.4159 9.55139C28.7214 10.866 28.3043 12.458 27.2228 14.1374Z" fill="#1882FF"/>
<path d="M9.83594 12.0492V14.0164C9.83726 14.3805 9.974 14.7311 10.2196 15C9.974 15.2689 9.83726 15.6195 9.83594 15.9836V17.9508C9.83594 18.7657 10.4965 19.4262 11.3113 19.4262H19.1802C19.9951 19.4262 20.6556 18.7657 20.6556 17.9508V15.9836C20.6544 15.6195 20.5176 15.2689 20.272 15C20.5176 14.7311 20.6544 14.3805 20.6556 14.0164V12.0492C20.6556 11.2343 19.9951 10.5737 19.1802 10.5737H11.3113C10.4965 10.5737 9.83594 11.2343 9.83594 12.0492ZM19.672 17.9508C19.672 18.2224 19.4518 18.4426 19.1802 18.4426H11.3113C11.0398 18.4426 10.8196 18.2224 10.8196 17.9508V15.9836C10.8196 15.712 11.0398 15.4918 11.3113 15.4918H19.1802C19.4518 15.4918 19.672 15.712 19.672 15.9836V17.9508ZM19.672 12.0492V14.0164C19.672 14.288 19.4518 14.5082 19.1802 14.5082H11.3113C11.0398 14.5082 10.8196 14.288 10.8196 14.0164V12.0492C10.8196 11.7776 11.0398 11.5574 11.3113 11.5574H19.1802C19.4518 11.5574 19.672 11.7776 19.672 12.0492Z" fill="#1882FF"/>
<path d="M12.295 13.5247H12.7869C13.0585 13.5247 13.2786 13.3045 13.2786 13.0328C13.2786 12.7612 13.0585 12.541 12.7869 12.541H12.295C12.0234 12.541 11.8032 12.7612 11.8032 13.0328C11.8032 13.3045 12.0234 13.5247 12.295 13.5247Z" fill="#1882FF"/>
<path d="M16.2296 13.5247H18.1968C18.4685 13.5247 18.6887 13.3045 18.6887 13.0328C18.6887 12.7612 18.4685 12.541 18.1968 12.541H16.2296C15.958 12.541 15.7378 12.7612 15.7378 13.0328C15.7378 13.3045 15.958 13.5247 16.2296 13.5247Z" fill="#1882FF"/>
<path d="M12.7869 16.4753H12.295C12.0234 16.4753 11.8032 16.6955 11.8032 16.9672C11.8032 17.2387 12.0234 17.4589 12.295 17.4589H12.7869C13.0585 17.4589 13.2786 17.2387 13.2786 16.9672C13.2786 16.6955 13.0585 16.4753 12.7869 16.4753Z" fill="#1882FF"/>
<path d="M18.1968 16.4753H16.2296C15.958 16.4753 15.7378 16.6955 15.7378 16.9672C15.7378 17.2387 15.958 17.4589 16.2296 17.4589H18.1968C18.4685 17.4589 18.6887 17.2387 18.6887 16.9672C18.6887 16.6955 18.4685 16.4753 18.1968 16.4753Z" fill="#1882FF"/>
</g>
</g>
<defs>
<clipPath id="clip0_1875_4690">
<rect width="30" height="30" fill="white"/>
</clipPath>
</defs>
</svg>
