<svg width="30" height="30" viewBox="0 0 30 30" fill="none" xmlns="http://www.w3.org/2000/svg">
<g clip-path="url(#clip0_1875_4654)">
<mask id="mask0_1875_4654" style="mask-type:luminance" maskUnits="userSpaceOnUse" x="0" y="0" width="30" height="30">
<path d="M30 0H0V30H30V0Z" fill="white"/>
</mask>
<g mask="url(#mask0_1875_4654)">
<path d="M29.7399 21.8273L26.6649 20.2898L24.7079 15.1992C24.6848 15.1391 24.6496 15.0842 24.6045 15.0383C24.5593 14.9923 24.5051 14.9561 24.4454 14.9321L12.3024 10.0781C12.2175 10.0443 12.1245 10.0361 12.035 10.0544C11.9455 10.0727 11.8632 10.1168 11.7985 10.1813L10.179 11.8008C10.1154 11.8657 10.072 11.9476 10.0541 12.0366C10.0362 12.1256 10.0446 12.218 10.0782 12.3023L14.9321 24.4454C14.9562 24.5051 14.9923 24.5593 15.0383 24.6044C15.0843 24.6496 15.1391 24.6848 15.1992 24.7079L20.2899 26.6648L21.8274 29.7398C21.8598 29.8076 21.908 29.8667 21.9679 29.912C22.0278 29.9573 22.0978 29.9874 22.1719 30C22.1969 30.0023 22.2219 30.0023 22.2469 30C22.371 29.9995 22.4899 29.9498 22.5774 29.8617L29.8617 22.5773C29.9154 22.5257 29.9559 22.4618 29.9799 22.3913C30.004 22.3208 30.0108 22.2456 30 22.1719C29.9874 22.0978 29.9573 22.0279 29.912 21.9679C29.8667 21.908 29.8077 21.8597 29.7399 21.8273ZM11.0602 12.2414L11.3204 11.9836L17.3649 18.0281C16.9665 18.5926 16.7945 19.286 16.8828 19.9712C16.971 20.6564 17.3133 21.2836 17.8416 21.7286C18.3701 22.1738 19.0463 22.4043 19.7365 22.3748C20.4268 22.3453 21.0808 22.0579 21.5694 21.5693C22.0579 21.0808 22.3453 20.4268 22.3748 19.7365C22.4043 19.0463 22.1737 18.3701 21.7287 17.8416C21.2836 17.3132 20.6565 16.971 19.9713 16.8827C19.2861 16.7945 18.5926 16.9665 18.0282 17.3648L11.9836 11.3204L12.2415 11.0602L23.9063 15.7266L25.7461 20.5125L20.5125 25.7461L15.7266 23.9063L11.0602 12.2414ZM19.6173 17.7961C20.0385 17.7968 20.4465 17.9434 20.7718 18.2111C21.0971 18.4789 21.3195 18.8511 21.4011 19.2644C21.4827 19.6777 21.4185 20.1065 21.2194 20.4778C21.0204 20.849 20.6987 21.1398 20.3093 21.3005C19.9199 21.4613 19.4868 21.482 19.0838 21.3593C18.6807 21.2365 18.3328 20.9777 18.0992 20.6272C17.8655 20.2766 17.7606 19.8559 17.8024 19.4367C17.8441 19.0175 18.03 18.6257 18.3282 18.3281C18.6704 17.987 19.134 17.7956 19.6173 17.7961ZM22.3758 28.7391L21.204 26.3954L26.3907 21.2086L28.7344 22.3805L22.3758 28.7391Z" fill="#1882FF"/>
<path d="M8.96495 25.0781C8.87532 24.9934 8.75667 24.9462 8.6333 24.9462C8.51 24.9462 8.39127 24.9934 8.30165 25.0781L7.70637 25.6734C6.11771 23.5173 5.24131 20.9192 5.19929 18.2413C5.15728 15.5635 5.95175 12.9392 7.47197 10.7344C7.9274 10.9849 8.45187 11.0812 8.9666 11.0087C9.4814 10.9362 9.95885 10.6988 10.3273 10.3321C10.6959 9.96546 10.9356 9.48928 11.0107 8.97486C11.0858 8.46043 10.9922 7.93558 10.7439 7.47886C12.9487 5.95864 15.573 5.16416 18.2508 5.20618C20.9287 5.24819 23.5268 6.12459 25.6829 7.71321L25.0782 8.30151C24.991 8.38941 24.9422 8.50821 24.9423 8.63196C24.9419 8.69368 24.9537 8.75481 24.9771 8.81196C25.0004 8.86903 25.0347 8.92101 25.0782 8.96481L27.1454 11.0156C27.2332 11.1029 27.352 11.1519 27.4758 11.1519C27.5997 11.1519 27.7185 11.1029 27.8064 11.0156L29.8618 8.96008C29.9054 8.91658 29.94 8.86491 29.9636 8.80798C29.9871 8.75106 29.9993 8.69008 29.9993 8.62843C29.9993 8.56686 29.9871 8.50588 29.9636 8.44896C29.94 8.39203 29.9054 8.34036 29.8618 8.29686L27.8064 6.24136C27.7185 6.15405 27.5997 6.10504 27.4758 6.10504C27.352 6.10504 27.2332 6.15405 27.1454 6.24136L26.3508 7.0312C24.3927 5.55767 22.0776 4.63189 19.6433 4.34893C17.209 4.06596 14.7433 4.43599 12.4993 5.42104L15.2016 2.72573C15.5081 2.87214 15.8564 2.90528 16.185 2.81927C16.5135 2.73327 16.8009 2.53367 16.9962 2.2559C17.1916 1.97813 17.2823 1.64014 17.2521 1.30189C17.222 0.963636 17.073 0.646998 16.8316 0.408141C16.5902 0.169284 16.272 0.0236522 15.9335 -0.00291787C15.5949 -0.029488 15.2579 0.064721 14.9822 0.262996C14.7065 0.461271 14.51 0.750793 14.4274 1.0802C14.3449 1.40961 14.3817 1.7576 14.5314 2.06245L9.9704 6.63042C9.50735 6.31978 8.95077 6.17956 8.39577 6.23371C7.84077 6.28787 7.32179 6.53304 6.92749 6.92734C6.53319 7.32164 6.28802 7.84063 6.23387 8.39563C6.17971 8.95063 6.31993 9.50721 6.63056 9.97026L2.0626 14.5312C1.75656 14.3821 1.40756 14.3463 1.07762 14.4301C0.747673 14.5141 0.458157 14.7122 0.260513 14.9894C0.0628686 15.2666 -0.0301028 15.6049 -0.00188045 15.9442C0.0263418 16.2834 0.17393 16.6017 0.414658 16.8424C0.655386 17.0832 0.97366 17.2307 1.31293 17.259C1.6522 17.2872 1.99049 17.1942 2.26768 16.9966C2.54488 16.7989 2.74302 16.5094 2.82692 16.1794C2.9108 15.8495 2.87501 15.5005 2.72588 15.1945L5.42822 12.4992C4.44219 14.7426 4.07099 17.2079 4.35272 19.6422C4.63445 22.0765 5.55896 24.3919 7.03135 26.3507L6.23916 27.1453C6.15185 27.2331 6.10285 27.3519 6.10285 27.4757C6.10285 27.5995 6.15185 27.7184 6.23916 27.8062L8.2946 29.8617C8.38212 29.9497 8.501 29.9995 8.62512 30C8.68692 30 8.7482 29.9878 8.80535 29.9641C8.86242 29.9404 8.91432 29.9056 8.9579 29.8617L11.0157 27.8062C11.103 27.7184 11.152 27.5995 11.152 27.4757C11.152 27.3519 11.103 27.2331 11.0157 27.1453L8.96495 25.0781ZM27.4806 7.23042L28.8727 8.62258L27.4806 10.0148L26.0883 8.62258L27.4806 7.23042ZM15.4689 1.08511C15.5385 1.01488 15.6274 0.966936 15.7244 0.947338C15.8214 0.927748 15.9219 0.937401 16.0134 0.975066C16.1049 1.01273 16.183 1.07671 16.2381 1.1589C16.2931 1.24108 16.3225 1.33776 16.3225 1.43667C16.3225 1.53558 16.2931 1.63225 16.2381 1.71444C16.183 1.79662 16.1049 1.86061 16.0134 1.89827C15.9219 1.93594 15.8214 1.94559 15.7244 1.926C15.6274 1.9064 15.5385 1.85845 15.4689 1.78823C15.4227 1.74208 15.386 1.68728 15.3609 1.62696C15.336 1.56664 15.3231 1.50197 15.3231 1.43667C15.3231 1.37137 15.336 1.3067 15.3609 1.24638C15.386 1.18606 15.4227 1.13125 15.4689 1.08511ZM7.59387 7.59373C7.73 7.45693 7.89177 7.3484 8.06997 7.27435C8.2481 7.20029 8.4392 7.16217 8.6321 7.16217C8.82507 7.16217 9.01617 7.20029 9.1943 7.27435C9.3725 7.3484 9.53427 7.45693 9.6704 7.59373C9.8762 7.79916 10.0164 8.06098 10.0732 8.34606C10.1301 8.63121 10.1012 8.92678 9.99005 9.19543C9.8789 9.46416 9.6905 9.69381 9.44877 9.85536C9.20712 10.0169 8.92287 10.1032 8.6321 10.1032C8.3414 10.1032 8.05715 10.0169 7.81542 9.85536C7.57377 9.69381 7.38539 9.46416 7.27424 9.19543C7.16308 8.92678 7.13411 8.63121 7.19101 8.34606C7.2479 8.06098 7.38809 7.79916 7.59387 7.59373ZM1.79072 16.1719C1.69502 16.2517 1.57294 16.2928 1.44846 16.2871C1.32398 16.2815 1.20611 16.2295 1.118 16.1414C1.02989 16.0533 0.977912 15.9355 0.972287 15.811C0.966662 15.6865 1.00779 15.5644 1.0876 15.4687C1.18139 15.3765 1.30765 15.3249 1.43916 15.3249C1.57067 15.3249 1.69692 15.3765 1.79072 15.4687C1.83693 15.5149 1.87358 15.5697 1.89859 15.63C1.9236 15.6903 1.93647 15.7549 1.93647 15.8203C1.93647 15.8856 1.9236 15.9502 1.89859 16.0105C1.87358 16.0709 1.83693 16.1257 1.79072 16.1719ZM8.6321 28.8586L7.23994 27.4663L8.6321 26.0742L10.0243 27.4663L8.6321 28.8586Z" fill="#1882FF"/>
</g>
</g>
<defs>
<clipPath id="clip0_1875_4654">
<rect width="30" height="30" fill="white"/>
</clipPath>
</defs>
</svg>
